M48
;Layer_Color=9474304
;FILE_FORMAT=2:5
INCH,LZ
;TYPE=PLATED
T1F00S00C0.00787
T2F00S00C0.00799
T3F00S00C0.00800
T4F00S00C0.00984
T5F00S00C0.01181
T6F00S00C0.01575
T7F00S00C0.02362
T9F00S00C0.02756
T11F00S00C0.04331
T12F00S00C0.05118
T13F00S00C0.05512
T14F00S00C0.05906
T16F00S00C0.10630
T17F00S00C0.11417
T18F00S00C0.12598
;TYPE=NON_PLATED
T19F00S00C0.02559
T20F00S00C0.03346
T21F00S00C0.03937
T22F00S00C0.05118
%
T01
X-06678Y-01183
X-06605Y-01184
Y-00917
X-066Y-00826
X-06569Y-00763
X-0656693Y-0073228
X-0655606Y-0069298
X-0652653Y-0068708
X-0649114Y-0067323
X-0648917Y-0063976
X-0647342Y-0061417
X-0647244Y-0057677
X-0647736Y-0054232
X-0649409Y-0051673
X-0652653Y-0048136
X-0655606Y-0047644
X-0665158Y-0046654
X-0670571Y-0050787
X-0672771Y-0052271
X-0672835Y-0055512
X-0671555Y-0057382
Y-0061516
X-0669685Y-0063386
X-0669783Y-0066339
X-066722Y-0068708
X-0664366Y-0069397
X-066348Y-0073432
X-0668701Y-0079724
X-06749Y-00754
X-0676968Y-0073188
X-0679035Y-0070866
X-06924Y-00636
X-06834Y-00527
X-0682483Y-0050295
X-06841Y-00491
X-06788Y-0049
X-06775Y-00414
X-06845Y-00415
X-0667815Y-0039272
X-06676Y-00363
X-06629Y-0032139
X-06603Y-00317
X-0657781Y-0031819
X-06543Y-00371
X-0660961Y-004
X-0643597Y-004498
X-063838Y-0042427
X-0629298Y-0040694
X-0621253Y-0044198
X-061752Y-0046949
X-06092Y-0054
X-0606
X-0601495Y-0064241
X-06069Y-006819
X-06137Y-0068178
X-0619291Y-0065394
Y-0063228
X-06313Y-00658
X-06328Y-008
X-0637205Y-0076968
X-0641339Y-0075
X-06425Y-00803
X-06489Y-00715
X-0649902Y-0059252
X-0641831Y-005561
X-0669488Y-0059449
X-06736Y-00892
X-068Y-00958
X-06527Y-00939
X-06392Y-00951
X-064Y-01031
X-06423Y-0102
X-06293Y-01072
X-06214Y-00937
X-0623819Y-0091043
X-0616Y-00922
X-06133Y-00953
X-06114Y-00997
X-06111Y-01031
X-0608322Y-0104978
X-06052Y-01011
X-0604322Y-009016
X-0606Y-00866
X-06087Y-00833
X-06088Y-00802
X-06183Y-00812
X-06181Y-0078959
X-0622539Y-0077854
X-06149Y-00757
X-061811Y-0085138
X-0597342Y-0082579
X-05949Y-00816
X-05995Y-00949
X-05914Y-00969
X-05853Y-01018
X-058435Y-0118012
X-0591634
Y-0130413
X-05998Y-01095
X-05756Y-01156
X-0573189Y-00752
X-0570089Y-00723
Y-00624
X-05833Y-00386
X-05833Y-00365
X-0587396Y-0036216
X-0592421Y-003622
X-0597342
X-05918Y-003158
X-0586693Y-0011142
X-0591634Y-0001575
X-06192Y-0007
Y-00098
X-0643702Y-0006206
X-0660039Y-0006004
X-0665752Y-0001606
X-0669587Y-000128
X-0670427Y-0003722
X-06698Y-00098
X-06725Y-00099
X-0679524Y-0009846
X-0683756Y-0012405
X-0686319Y-0014665
X-0688776Y-0012405
X-06638Y-00126
X-06546Y-00185
X-06522Y-00254
X-0672342Y-0024213
X-055281Y-002559
X-05514Y-0027
X-05522Y-00135
X-0550863Y-0011963
X-05531Y-00073
X-05517Y-00057
X-05445Y-0034509
X-05445Y-00365
X-05373Y-00357
X-0535275Y-00357
X-0522539Y-0051378
X-0514272Y-0052559
X-0506693Y-005689
X-0507185Y-0059284
Y-0061253
X-0508734Y-006505
X-0510925Y-0064764
X-05138Y-00678
Y-00699
X-0515748Y-0071161
X-0516634Y-0068209
X-05236Y-00711
X-052457Y-0064173
X-0526539
X-05382Y-00703
Y-00728
Y-00749
X-05357Y-00767
Y-00788
X-05337Y-00806
X-05333Y-0084182
X-05411Y-00841
X-0542627Y-0081918
X-0545Y-00782
Y-00735
X-0547402Y-0075816
X-05498Y-00735
Y-00782
X-05525Y-00837
X-0555621Y-0083652
X-05519Y-00884
X-0554612Y-00912
X-0556938Y-00951
X-0559Y-00951
X-055Y-00969
X-05466Y-00967
X-05438Y-0097
X-05382Y-00948
X-05283
X-0508236Y-0095024
X-04969Y-00955
X-04946Y-00963
X-04934Y-00991
X-04932Y-0105231
X-05028Y-0104646
X-0513209Y-0105509
X-0505263Y-0118851
X-04982Y-01207
X-04911Y-01187
X-0488209Y-0116991
X-04882Y-01207
X-04782Y-0104
X-04832Y-00981
X-04833Y-00837
X-0488386Y-0083655
X-0490256Y-0078895
X-04914Y-0071975
X-04887Y-00636
Y-00615
X-0489075Y-0058563
X-0483372Y-00588
Y-00664
X-04783Y-00637
X-0478272Y-0061655
X-047427Y-0060728
X-0472146Y-0066437
X-04735Y-00723
X-0468201Y-0078499
X-0461321Y-0075325
X-0456318Y-0075382
X-045126Y-007539
X-0446321Y-0075385
X-0445642Y-0071219
X-0447037Y-0069666
X-045126Y-007039
X-04563Y-00703
X-04564Y-0061346
Y-0059258
X-045676Y-005539
X-0460366
X-0462992Y-0056398
X-0463386Y-0054212
X-0466142Y-0053051
X-0465551Y-0050098
X-0463576Y-0045524
X-04621Y-0047
X-046126Y-003989
X-045726
X-0456321Y-0035325
X-046076Y-003489
X-046126Y-003039
X-0461368Y-0025433
X-0461321Y-0015325
X-046126Y-001039
X-045676
X-045126
X-044676
X-044576Y-001539
X-044176
X-0446368Y-0020433
Y-0025433
X-044626Y-003039
X-044876
X-045126
X-045576
X-045126Y-003539
X-044626
Y-004039
X-044676Y-004489
X-045176Y-004539
X-045576
X-0456416Y-0050541
X-045126Y-005048
X-0446416Y-0050541
X-044126Y-005048
X-04414Y-00469
Y-00444
X-044076Y-004039
X-043676
X-04321Y-00404
X-04289
X-042576Y-004039
Y-004489
X-042876Y-004539
X-043276
X-043526
X-0436416Y-0050541
X-043126Y-005039
X-042626
X-0421416Y-0050541
X-0416321Y-0050325
X-0416416Y-0045541
X-0411416Y-0050541
X-0411368Y-0055433
X-041626Y-005548
Y-006048
X-0416321Y-0065325
Y-0070325
X-041626Y-007548
X-0411368Y-0075433
Y-0080433
X-041626Y-008048
X-0421368Y-0080433
X-0421416Y-0075541
X-042626Y-007548
X-0430208Y-00755
X-0432296
X-0436476Y-0075385
X-04389Y-00754
X-044126Y-007539
Y-008039
X-0436416Y-0080541
Y-0085541
X-043626Y-009039
X-0431416Y-0090541
X-0431368Y-0085433
Y-0080433
X-042626Y-008048
X-0426368Y-0085433
X-0421364Y-0085429
X-0421416Y-0090541
X-04263Y-00905
X-0416368Y-0090429
X-0411416Y-0090541
X-0421416Y-0070541
X-042626Y-007039
Y-006539
X-042126
X-0421367Y-0060434
X-0426416Y-0060541
X-043126Y-006039
X-043626
Y-006539
X-043126
X-0431416Y-0070541
X-043726Y-007089
X-044076Y-007039
X-0441476Y-0065385
X-0446321Y-0065325
X-0451476Y-0065385
X-0451Y-00616
X-045226Y-0059541
X-044976Y-005539
X-044726
X-04423Y-00554
X-043976Y-005539
X-043726
X-04346Y-00554
X-0431416Y-0055541
X-0426476Y-0055385
X-0411368Y-0060433
Y-0040433
Y-0035433
X-04115Y-0029903
Y-0026003
X-0416321Y-0025325
X-0416416Y-0020541
X-0421586Y-0020215
X-042426Y-002039
X-042676Y-001989
X-043126Y-002039
X-0431416Y-0025541
X-043126Y-003039
X-043576
X-0436321Y-0035325
X-043076Y-003539
X-042676
X-0426321Y-0030325
X-042626Y-002548
X-0421476Y-0025385
X-0421416Y-0030541
X-0421321Y-0035325
X-0416321Y-0030325
Y-0010325
X-042126Y-001048
Y-000548
X-042626Y-000539
X-043076
X-043626
X-044126Y-000548
X-045126
X-045626Y-000489
X-045576Y-001489
X-045176
X-0451476Y-0020385
X-0436416Y-0020541
X-043676Y-002539
X-044076
X-043626Y-001089
X-043176
Y-001489
X-042626Y-001048
X-041126Y-000548
X-04664Y-0011899
X-04664Y-00141
X-04665Y-0017066
X-04665Y-00191
X-04757Y-00197
X-04757Y-0017591
X-04759Y-0014
Y-00118
X-04758Y-00095
X-0477756Y-002126
X-04765Y-0026
X-0470406Y-0027688
Y-0029776
X-0468406Y-0039499
X-0467Y-0041043
X-0469488Y-0042028
X-0478346Y-0042323
X-0480927Y-0048503
X-0479534Y-0049895
X-0486024Y-0052362
X-0500689Y-0057579
X-05037Y-00639
X-0503662Y-0067876
X-05037Y-00699
X-0508734Y-007265
X-05061Y-00798
X-0499606Y-0078937
X-04982Y-0084086
X-048Y-00818
X-0481004Y-0078937
X-04744Y-0083
Y-00851
X-04757Y-00896
X-0468401Y-0089701
X-0456476Y-0090385
X-0451476
X-045176Y-0085738
X-045626Y-008548
Y-008048
X-045126Y-008039
X-0446416Y-0080385
X-0446368Y-0085433
X-0441416Y-0090541
X-044276Y-006039
X-044576
X-0461321Y-0060325
X-0464764Y-0060728
X-0466156Y-006212
X-045126Y-004039
X-04961Y-00397
X-05057Y-0021311
X-05057Y-00193
X-05142Y-00137
Y-00115
X-05154Y-00249
X-05154Y-0026904
X-0502Y-0004586
X-0502Y-00025
X-05165Y-00791
X-0542627Y-0069713
X-0552177
X-0555621Y-0068451
X-0560978Y-00673
X-0561089Y-00707
X-0566689Y-00711
X-0564789Y-0064
X-0564301Y-0052593
X-056124Y-0055647
X-0545889Y-00856
X-05465Y-00896
X-0562254Y-0107471
Y-0112471
Y-0117571
X-05456Y-01331
X-0537241Y-0133105
X-05161Y-01327
X-0425197Y-0124902
X-0381063Y-011939
X-037Y-0111
X-036999Y-0103116
Y-0095242
Y-0087368
X-0363Y-00882
X-03629Y-00974
X-03619Y-01006
X-0359728Y-0111072
X-0378346Y-009941
X-038924Y-010326
X-0395079Y-0104331
X-0398436Y-01019
X-04015Y-00963
X-0395079Y-0096457
X-03984Y-00907
X-0398622Y-0085138
X-04049Y-00858
X-04053Y-00907
X-04072Y-00754
X-0394094Y-0074803
X-03799Y-00648
X-03731Y-00716
X-0370472Y-0054134
X-0372917Y-0049996
X-0369571Y-0040153
X-03837Y-00352
X-03847Y-00302
X-03901Y-00305
X-039Y-00357
X-03906Y-00255
X-0391Y-00204
X-03853Y-00202
X-03856Y-00148
X-04024Y-00306
X-04025Y-0035
X-03489Y-00379
X-03383Y-00395
X-03333
X-03283
X-03233
X-03183
X-031598Y-0036943
X-031098
X-030598
X-03083Y-00395
X-03033
X-030098Y-0036943
X-029598
X-0295669Y-0014764
Y-0011811
X-0293701
Y-0009843
X-0295669Y-0008858
X-0292717Y-0007283
X-0293701Y-001378
Y-0015748
X-0289862Y-0017618
X-0287Y-00183
X-028126Y-001739
Y-001439
Y-001189
Y-000989
X-02768Y-00244
X-0257283Y-0015748
Y-001378
Y-0010827
Y-0007874
X-026326Y-000239
X-030561Y-0004134
X-0323819Y-0010039
X-0324902Y-0011811
X-0322539
X-0323819Y-0013189
X-0322047Y-0022343
X-03302Y-00192
X-03306Y-01017
X-0327349Y-0104943
X-0327185Y-010876
X-032374Y-0115453
X-0310256Y-0115748
X-0306713Y-0108661
X-030658Y-0104943
X-0303071Y-0104921
X-0310616Y-0100021
X-0313003Y-0096949
X-0320886
X-0323313Y-0099824
X-026939Y-0119685
X-024673Y-0126181
X-0240059Y-0111516
X-0243504Y-0104823
X-0243668Y-0101005
X-02459Y-00976
X-0239632Y-0095887
X-0237205Y-0093012
X-0229322
X-0226935Y-0096084
X-0222899Y-0101005
X-02194Y-01011
X-0223031Y-0104724
X-0226575Y-0111811
X-0194894Y-0103216
X-01911Y-0104
X-0191216Y-0100491
X-0191952Y-0095178
X-0193931Y-008623
X-0184881Y-0088107
X-018686Y-0079159
X-017626Y-009439
X-01771Y-00987
X-0166313Y-0099605
X-0165551Y-0106496
X-01621Y-01085
X-0162337Y-0103504
X-0163655Y-0093797
X-0154232Y-0081791
X-0157677Y-0075098
X-0157841Y-0071281
X-0153805Y-0066163
X-0151378Y-0063287
X-0143495
X-0141108Y-006636
X-0137072Y-0071281
X-0133563Y-007126
X-0130315Y-0072441
X-0127165Y-0072736
X-0137205Y-0075
X-0140748Y-0082087
X-0104921Y-0083661
X-00987Y-0082736
X-0101686Y-0076422
Y-0073863
X-0101678Y-0071281
Y-0068722
X-00986Y-00622
X-0110424Y-0069971
X-00998Y-00375
Y-00342
X-0112Y-00008
X-01353Y-0016341
X-01543Y-00017
X-0178071Y-0017229
X-01945Y-00129
X-0195089Y-0010705
X-0196996Y-0010215
X-0197014Y-0007637
Y-0005078
X-0194685Y-0006004
X-0199508Y-0000984
X-0205136Y-0006601
Y-0011301
X-0207539Y-0008917
X-0209936Y-0006601
Y-0011301
X-0218Y-00102
X-0218063Y-0007637
Y-0005078
X-0221555Y-0008268
X-0221576Y-001082
X-0221557Y-0013398
X-0217207Y-0015151
X-02173Y-0018
X-02248Y-00185
X-0226469Y-0019783
X-022828Y-0022643
X-0230819Y-002416
X-0233398Y-0022643
X-0235819Y-002416
X-02404Y-00232
X-024623Y-0015986
X-02463Y-00133
X-0242624Y-001082
Y-0008261
X-0239998Y-0003964
X-0241142Y-0002362
X-0236614Y-0001476
X-023338Y-0001576
X-023082
X-0228243Y-0001557
X-0229698Y-0009784
Y-0014484
X-02321Y-00121
X-0234498Y-0009784
Y-0014484
X-0254331Y-001378
Y-0011811
Y-0008858
Y-0015748
X-024676Y-000239
X-0213386Y-000187
X-0208837Y-0019459
X-02069Y-00211
X-0203718Y-0019459
X-0195276Y-0022736
X-0196039Y-0031393
X-0222244Y-0047638
X-0160827Y-0062205
X-01499Y-01226
X-0149467Y-0132874
X-0146Y-01331
X-01417Y-01332
X-01377Y-01338
X-0142Y-01276
X-0138681Y-0122539
X-0123031Y-0132972
X-01204Y-01327
X-01097Y-01328
X-01807Y-01174
X-01914Y-01237
X-00831Y-01328
X-00647Y-01329
X-0071328Y-0119783
X-0063937Y-0113225
X-0064022Y-0101614
X-00615Y-00994
X-0066136Y-00965
X-00659Y-00927
Y-00868
X-00658Y-00834
X-00659Y-00809
Y-0075
X-0066164Y-00714
X-00659Y-0069
Y-00631
Y-00572
Y-00513
X-00631Y-00485
X-00594Y-0048928
X-0057637Y-0047
X-0059574Y-004523
X-0055637
X-00537Y-0047
X-0052Y-0048983
X-00517Y-004523
X-0047763
X-00475Y-0048
X-0052Y-0054883
Y-0060783
Y-0066684
Y-0072684
Y-0078584
Y-0084483
Y-0090383
X-00594Y-0090328
Y-0084428
Y-0078528
Y-0072628
Y-0066628
Y-0060728
Y-0054828
X-007423Y-00532
X-00743Y-00493
X-0076403Y-00552
X-0074264Y-00591
X-007423Y-0065
X-0076403Y-0067
X-00788Y-00707
X-00791Y-00736
X-0076403Y-00788
X-007423Y-00768
X-00793Y-00827
X-00789Y-00853
X-0084547Y-008691
X-0087205Y-0086811
X-0089862Y-008563
X-0089882Y-0083108
X-0092618Y-0082677
X-0093504Y-0087894
X-0098233Y-0079844
X-0093559Y-0074968
Y-0070268
X-0091161Y-0072584
X-0088759Y-0070268
Y-0074968
X-0083878Y-0078819
Y-0066481
X-0084Y-0064
X-0095Y-00621
X-00941Y-00555
X-00925Y-00535
X-00924Y-00504
X-0098Y-00481
X-00979Y-0043
X-0092206Y-0026987
X-0088269Y-0026987
X-0084332Y-0026987
X-0080395
X-0082363Y-0023444
X-00863
X-0090237Y-0023473
X-0078426Y-0023444
X-00731Y-00279
Y-0032
X-00691Y-00325
X-00656Y-00298
X-00674Y-00243
X-0061542Y-0024987
X-0057605Y-0024987
X-0053668Y-0024987
X-0049731
X-00517Y-0021444
X-0055637
X-0059574Y-0021473
X-0056647Y-0007185
X-0054403
X-00687Y-00086
X-0037615Y-0005832
X-0037615Y-0003285
X-0025886Y-0002953
X-0026773Y-0009646
X-0029026Y-0009646
X-0015846Y-0008858
Y-0017717
Y-0026575
X-0018505Y-0028938
X-0020572Y-0027167
X-0015846Y-0035433
Y-0044291
Y-005315
X-0021024Y-0053051
X-0023268
X-0024323Y-0060323
X-0022736Y-006191
X-0015846Y-0062008
Y-0070866
Y-0079724
X-0022894Y-0079527
X-0025138
X-0032283Y-0081102
X-0029558Y-00839
X-0025728Y-0088484
X-0023484
X-0015846Y-0088583
Y-0097441
X-0016535Y-0104921
X-0025492Y-0109252
X-0030413
X-0034055Y-0111417
X-00377Y-0113
X-0040581Y-0105075
X-00323Y-01013
X-00465Y-00963
X-0044764Y-00937
X-0044564Y-0084976
X-0044664Y-00827
X-0046399Y-0075099
X-00455Y-0069
X-00448Y-00622
X-0044664Y-00591
X-0032283Y-0060925
X-0029758Y-00589
X-00365Y-00493
X-00406Y-00393
X-004055Y-00365
X-00406Y-00327
X-0044Y-00291
X-00431Y-0023
X-0031464Y-0029818
X-0031496Y-0032077
X-0026476Y-0034646
X-0026575Y-0036909
X-00657Y-00403
X-00659Y-00436
X-007423Y-00886
X-0076403Y-00906
X-00793Y-00957
X-0079Y-00993
X-00772Y-01049
X-00772Y-01071
X-00803Y-01106
X-00824Y-01106
X-00857Y-01016
X-00888
X-00747Y-01024
X-0053981Y-0109925
X-00514Y-01129
X-00297Y-01199
X-0023425Y-0115748
X-0015846Y-0124016
X-00361Y-00774
X-00362Y-00726
X-0048231Y0002658
X-005079
X-0015846Y0
Y0008858
Y0017717
Y0026575
Y0035433
X-0020768Y0038484
X-00267Y00345
X-0033Y00416
X-00368Y00553
X-0035827Y0060925
X-00359Y00631
X-0042224Y0063081
X-0042226Y0060338
X-00453Y00574
X-0043014Y0069196
X-0043012Y0071939
X-00453Y00748
X-0041732Y0077716
Y0079862
X-00431Y00825
X-0040256Y0082884
Y008503
X-0033858Y0085138
Y0082776
X-0035433Y0079921
Y0077658
X-0036417Y0072244
Y0069784
X-00267Y00688
X-0015846Y0070866
Y0062008
Y005315
Y0044291
Y0079724
Y0088583
Y0097441
Y0106299
Y0115157
X-0021309
X-00224Y01201
X-00202
X-0020144Y012206
X-00179Y01226
X-00184Y01247
X-0015846Y0124016
X-0024Y0122
X-00275Y01217
X-00286Y01198
X-00257
X-0026698Y0106274
X-0028285Y0104687
X-0026247Y0098633
Y0096173
X-0026673Y009065
X-0032Y00899
X-00361Y00886
X-004124Y0091437
Y0093898
X-0048428Y0093804
Y0091442
X-00513Y00926
X-0054331Y0095571
X-0056496Y0095472
X-00577Y00929
X-00554Y01028
X-0051279Y0105807
X-0051378Y0107973
X-005561Y0111122
Y0113386
X-00611Y01177
X-00643
X-007Y01185
X-00737Y01197
X-00754Y0122
X-00718Y01265
X-00732Y01306
X-00753
X-00801Y01504
X-00633Y01498
X-00628Y01529
X-00599Y01503
X-00557Y01437
X-005115Y014015
X-0046752Y0102264
X-0046654Y0099803
X-00401Y01047
X-00627Y0105
X-00636Y01031
Y01003
X-0063Y01091
X-0065847Y0109153
X-0067913
X-0026Y00812
X-01038Y0016826
X-00998Y00113
X-01945Y00029
X-0203681Y000326
X-0206259Y0001608
X-0208818
X-0201673Y-0000295
X-02189Y-00001
X-022313Y0002756
X-0225197Y0004528
X-0232382Y0000259
X-0238681Y-0000304
X-024426Y000311
X-025276Y000761
X-02447Y00845
X-0220866Y00625
X-02098Y00634
X-02067
X-02037
Y00603
X-02067
Y00572
X-02037
Y00541
X-02067
Y0051
X-02037
X-02098
Y00541
Y00572
Y00603
Y00665
X-02067
X-02037
Y00696
X-02067
X-02098
X-0192224Y0070177
Y0066339
Y0062992
X-0192126Y0054626
X-0194882Y0072835
X-0178051Y0080851
X-01686Y00947
X-01671Y01296
X-01445Y01449
X-01439Y01505
X-01459Y01506
X-01234Y01354
X-0196949Y0150689
X-020096Y0147356
X-0193184Y0155132
X-0229899Y0152081
X-02339Y0155
X-0233934Y0149016
X-0237795Y0144291
X-024685Y0152971
X-0260117Y0150801
X-0264546Y0152179
X-02686Y01537
X-02739Y01485
X-0281968Y0151293
X-0284822Y014834
X-0290827Y0147848
X-0296072Y0142627
X-03088Y01465
X-0309Y01517
X-0314173Y0146457
X-0320158Y0151524
X-0316221Y0155461
X-0326012Y0145669
X-03497Y01416
X-0352421Y0141634
X-0354665
X-03608Y01413
X-0359488Y0143701
X-0358Y01454
X-0360121Y0146962
X-0360138Y0149213
X-03629Y01482
X-03626Y01368
X-03604
X-0365043Y013456
X-0367405
X-03832Y01343
X-03854
X-03878Y0118
X-0386345Y0116445
X-03835Y01175
X-03825Y01133
X-03826Y01051
X-03802Y01041
X-03774Y01046
X-03737Y01045
X-03724Y00994
X-0367
X-03776Y00997
X-03803Y00998
X-03832
X-03854Y00949
X-03896Y00942
Y00901
X-039459Y0088843
X-03936Y00846
X-03919Y00797
X-03918Y00743
X-03864
X-03863Y00798
X-0400618Y00794
X-0402903
X-04069Y00795
X-0406791Y0085039
X-0403937Y0088976
X-0400491Y0090344
X-04005Y009427
X-0403642Y009498
X-040689Y0099016
X-0403937Y0104626
X-0403839Y0114961
X-040374Y0118504
X-03921Y01185
X-0397244Y0109153
X-0397146Y0099705
X-039459Y0095416
X-0390551Y0104626
X-03711Y00896
X-03635Y01152
X-0364Y01215
X-0354331Y0152657
Y0154902
X-03898Y01535
X-0397Y00748
X-03963Y00535
X-04013Y005382
X-04005Y00489
X-0405729Y0048988
X-0407256Y0050412
X-03949Y00491
X-0374311Y0036122
X-03479Y00745
X-029326Y003611
X-026926Y004211
X-026276Y000761
X-0294882Y000689
X-0305866Y0006654
X-03133Y00159
X-041126Y001452
Y000952
X-0416368Y0009567
X-042126Y000952
Y001452
X-0416368Y0014567
X-041626Y001952
X-0411365Y0019571
X-0411368Y0024567
X-0411416Y0029459
X-042126Y002952
Y003452
X-0416416Y0034459
Y0039459
X-042126Y003961
Y004461
X-0416476Y0044615
X-0414Y00446
X-0411368Y0044567
X-0411325Y003961
X-04139Y00496
X-041126Y005452
X-0411368Y0059567
Y0064567
X-0416476Y0064615
X-042126Y006461
X-042626
X-0426321Y0069675
X-0426368Y0074567
X-043126Y007461
X-043626
X-044126
X-044576
X-045076
X-045126Y007961
X-045126Y008452
X-0446427Y0084676
X-0446411Y008961
X-0446368Y0094567
X-04464Y00996
X-0446321Y0104675
X-0441476Y0104615
X-044126Y010952
X-0436321Y0109675
Y0104675
X-043626Y009961
X-04412Y00996
X-04415Y00948
X-0441362Y008974
X-043626Y008952
X-04336Y00897
X-043076Y008961
Y008511
X-0433564Y0084724
X-0436321Y0084675
X-043626Y007961
X-0441275Y0079625
X-04415Y0082
X-044137Y0084319
X-044626Y0079528
X-045626Y007961
X-0456292Y008461
X-045626Y008961
X-045176
X-0451416Y0094459
X-045676Y009411
X-046126
X-0461321Y0089675
X-04615Y00992
X-04571Y00997
X-04618Y01051
X-0456321Y0109675
X-0457972Y0113779
X-0457874Y0117323
X-0445079
X-0445177Y0113779
X-0451476Y0104615
X-042626Y010452
Y010952
X-042126
Y010452
X-041626
Y009952
X-042126
X-042626
Y009452
Y008952
X-042126
Y009452
Y008452
X-0416476Y0084615
X-042626Y008452
X-0426368Y0079567
X-0421368
X-042126Y007452
X-0416416Y0074459
X-0416476Y0069615
X-0416416Y0059459
X-042126Y005961
X-0426368Y0059567
X-043126Y005961
X-04339Y00596
X-043626Y005961
Y006461
X-04338Y00645
X-0431476Y0064615
X-043126Y006952
X-0436416Y0069459
X-044126Y006952
X-044126Y006461
X-044626
X-045126
X-04514Y00621
X-045176Y005961
X-04514Y0057
X-045126Y005452
X-04514Y00521
X-045076Y004961
X-044676
X-04464Y00521
X-0446416Y0054459
X-044676Y005861
X-044126Y005961
X-044126Y005452
X-0441353Y0051391
X-043626Y004961
X-04364Y0045449
Y0043361
X-0436416Y0039459
X-044126Y0039459
X-044576Y003961
X-04458Y00444
X-04415Y00446
X-045126Y004461
X-045626Y0044675
Y004961
Y005461
X-045526Y005961
X-0457654
X-04564Y00621
X-045626Y006461
X-0456416Y0069459
X-045126Y006952
X-0446416Y0069459
X-04616Y00675
X-046126Y0064675
X-0463681Y0062106
X-0462697Y0074016
X-0473725Y0065009
X-04732Y00896
X-04897
X-04938Y0099
X-04915Y0108
X-05045Y01086
X-05107Y01062
X-05133Y01037
X-05134Y01011
X-05148Y0098
X-052068Y009858
X-05227Y00896
X-05148Y00903
X-05146Y00856
X-05082Y00813
X-0518022Y007814
X-0520122Y007684
X-0523022Y0071232
X-0525827
X-0529122
X-0531878
X-0532078Y0068378
Y0065622
X-0531843Y00603
X-0529558
X-05244Y00606
Y00573
X-0523763Y0045955
X-0523187Y0042822
X-05198Y0042097
X-05226Y00381
X-0530613Y0040618
Y0045318
X-0533016Y0043002
X-0535413Y0045318
Y0040618
X-05391Y00382
X-05434Y00355
X-0543189Y00433
X-0543289Y0046
X-05382Y00482
X-0535988Y00529
X-0533704
X-05425Y00568
X-05433Y00596
X-05454
X-05468Y0066568
Y0071268
X-0544402Y0068953
X-0542Y0071268
Y0066568
X-05383Y0064178
Y0073728
X-0539Y0078009
X-0539Y00801
X-05348Y00777
X-05315Y00842
X-053166Y0089068
X-0538379Y0098379
X-05455Y01011
X-0545501Y010624
X-054552Y010878
X-05455Y01114
X-0535479Y011648
X-0543361Y0128761
X-0543Y01322
X-05442Y01415
X-05521Y01385
X-05618Y0141
X-0562Y01342
X-05621Y01303
X-05637Y01272
X-0558921Y0126983
X-055026
X-05512Y01507
X-0517815Y0154232
X-0516915Y01392
X-0500886Y0125492
X-04954Y01308
X-04938Y01325
X-049075Y01347
X-04874Y01374
X-04872Y01478
X-04839Y01504
X-0474475Y0131075
X-04781Y01254
X-0493461Y012066
X-05065Y01162
X-05108Y01113
X-05133Y0108818
X-05184Y00666
X-052Y0065
X-05534Y00653
Y0068669
X-0559048Y0074813
X-05594Y0082932
X-05528Y00836
X-05469Y00854
X-05474Y00777
X-05453
X-05504Y00545
X-05526
X-05544Y00526
X-0556602Y00526
X-055539Y0057891
X-0562311Y0058749
X-0563197Y0052437
X-05621Y0042
Y00384
X-055585Y0040618
Y0045318
X-0553453Y0043002
X-055105Y0045318
Y0040618
X-0552311Y00331
X-0554398
X-05506Y00294
X-05498Y0026
X-053397Y00328
X-0531882
X-05294Y0002
X-0527963Y0000463
X-05232Y-00001
X-05232Y0002059
X-05354Y00017
X-05375
X-05418Y00024
X-05439
X-05629Y00155
X-05659Y00152
X-0502232Y0011968
X-0500616Y0013584
X-04954Y00029
X-04969Y00014
X-0471Y0000954
Y0003042
X-0461197Y0004396
X-04619Y00086
X-04619Y00107
X-0461321Y0014675
X-046126Y001961
X-045576
X-045126
X-045126Y002452
X-0446321Y0024675
X-0441476Y0024615
X-044176Y002911
X-044576
X-044626Y003461
X-045126
X-0451476Y0039615
X-0461368Y0039567
X-0461321Y0044675
X-046126Y0034459
X-0456476Y0034615
X-0456325Y002961
X-0458868Y0029219
X-045176Y002961
X-044626Y001961
X-044626Y001452
X-0446321Y0009675
X-044126Y000961
Y001461
Y001911
X-043626Y001961
X-04338Y00196
X-0431368Y0019567
Y0014567
X-043626Y001452
X-0426416Y0014459
X-042626Y000961
X-043126
Y000411
Y-000039
X-043626
Y000411
X-044176Y000461
X-044676
X-045126
X-045176Y-000039
X-045576
X-0461368Y-0000433
X-0456321Y0009675
X-045626Y001461
X-045126
X-044626Y-000048
X-0441368Y-0000433
X-042626Y-000039
X-042176
X-041626Y-000048
Y000452
X-042626
X-0421368Y0019567
X-042176Y002411
X-0416476Y0024615
X-042676Y002511
X-0426416Y0029459
X-043126Y002961
Y002461
X-04338Y00246
X-0436321Y0024675
X-0436476Y0034615
X-044076Y003461
X-0431368Y0034567
X-042626Y003461
Y003961
X-0426476Y0044615
X-043126Y004461
Y004011
X-0431416Y0049459
X-0429Y00496
X-042626Y004952
X-0421416Y0049459
X-0421476Y0054615
X-043126Y005461
X-043626Y005411
X-043576Y009461
X-0431416Y0094459
X-0411416Y0089459
X-0411368Y0079567
X-0416321Y0109675
X-0416535Y0118504
X-04188Y0119392
Y0117305
X-04233Y01148
Y01218
X-04291Y0120185
Y01179
X-05695Y01281
X-05723Y01312
X-05782Y01326
X-05768Y01395
X-05728Y0142
X-05705Y01436
X-05697Y01404
X-05705Y01369
X-05728Y01467
X-05745Y01511
X-0570374Y0154232
X-0584612Y0150911
X-05832Y01479
X-058851Y0146691
X-05852Y01428
X-05885Y01374
X-0595Y01358
X-05951Y01319
X-0590846Y0128248
X-060335Y012835
X-06051Y01307
X-06047Y01389
X-06046Y01427
X-06047Y01469
X-06077Y01531
X-0612405Y0154596
X-06211Y01497
X-0621222Y0147028
Y0144469
Y0139351
X-06261Y01506
X-063635Y0149587
Y014191
X-06396Y01552
X-064935Y015275
X-06529Y01445
X-0653Y01394
Y01356
X-0652525Y0131775
X-06444Y01284
X-0640353Y0125525
X-0637597
X-0632235Y0108235
X-0624651Y01132
X-06243Y00997
X-06273Y01005
X-0619312Y010013
X-06173Y01053
X-06134Y01042
Y01097
X-06136Y01169
X-0611751Y0119035
X-0607501Y0120752
X-0607022Y0112411
X-0608222Y0105711
X-06065Y00959
X-06174Y0084869
X-0613747Y0076359
X-0611585Y0073039
X-0615824Y0066986
X-0621336Y0062416
X-0626454Y0067141
X-0633147Y0063204
X-0637478Y0067141
Y0056117
X-06454Y00559
Y0058
X-0654173Y0062197
X-06631Y00613
X-0665854Y005725
X-06735Y00564
X-067351Y005849
X-0671489Y0068047
X-0665626Y0076788
X-06586Y0075469
X-06575Y00818
X-06599Y00915
X-06658Y0089769
X-0673069Y0093122
Y0095927
Y0099173
Y0101978
X-06672Y0104369
X-06655Y0105969
X-06604Y01009
X-0654332Y0094359
X-0642399Y0100669
X-06478Y01106
X-0646837Y0077224
X-0645167Y007258
X-0650549Y0073061
X-06301Y00808
X-0627304Y0082039
X-0624825Y0078797
X-0620805Y0074953
X-0602516Y0074499
X-05965Y0077
X-05927Y0074
X-05981Y00697
X-05999Y0067369
X-06061Y0065282
X-0607985Y0062021
X-0599938Y005725
X-0591767Y0060716
X-0588521
X-0585716
X-05783Y00579
X-05784Y00471
X-0585795Y0046916
X-0595683Y0047795
X-0598015Y0044706
X-0598067Y0040516
X-0595014Y0040372
X-0592016Y0040516
X-0601985Y0041034
X-0608485Y0041087
X-06078Y00475
X-0616218Y0045881
X-062173Y0050212
X-0626848Y0045487
X-0633147Y0049818
X-0637478Y0045487
X-0635009Y0036462
X-0635Y00335
X-0629022Y002751
X-06287Y00242
X-0626143Y0022725
X-0631607Y0018981
X-0617944Y0018981
X-06184Y0016
X-061515Y0016955
X-06157Y00128
X-0611Y00099
X-0610857Y0018981
X-060795Y00242
X-0605393Y0022725
X-060195Y0022455
X-05972Y0022
X-0591951Y0022456
X-059285Y0027781
X-05846Y00275
Y00371
X-05733Y00404
X-05738Y00146
X-05707Y00155
X-05787Y00076
X-05843Y00079
X-0588Y00063
X-05914Y00049
X-05976Y0004843
X-06011Y00027
X-06Y00083
X-0592643Y0010625
X-05962Y00159
X-05882Y00166
X-0609922Y002751
X-0615824Y0056511
X-0626753Y0056351
X-06569Y005
X-0655502Y0044346
X-0655844Y0041034
X-0654891Y0036028
X-0656Y00297
X-06528Y00214
X-0659921Y0021668
X-0663189Y0008661
X-0667421Y0009252
X-0676575Y0006988
X-06806Y00043
X-068376Y0003347
X-0674996Y0001571
X-06503Y00059
X-0671592Y0027537
X-0685894Y0047042
X-0681468Y0078022
X-068284Y011192
X-0665158Y013435
Y0153839
X-05948Y01511
X-05905Y015432
X-05781Y01222
X-06136Y01278
X-05693Y00851
X-05695Y0075
X-05763Y00772
X-05697Y01574
X-0571161Y0165256
X-05836Y01622
X-05824Y01591
X-0590387Y015943
Y0164548
Y0169666
X-0586572Y0174614
X-0586494Y0178927
X-05788Y01769
X-0583616Y0171738
X-0598487Y0172225
Y0167107
Y0161988
Y015687
X-0612012Y0159404
X-0612131Y0171806
X-0612593Y0177647
X-0625639Y0187845
X-062835Y019495
X-0635822Y019554
X-06418Y01926
X-06453Y01903
X-0646034Y0179
X-0653125Y0181925
X-06523Y01976
X-0660983Y0205698
X-066743Y0207194
X-066752Y0218504
X-0662706Y0224637
X-0651673Y0219094
X-0645866Y0212008
X-06377Y02093
X-0646063Y0230512
Y0234055
X-0654438Y023881
X-065561Y0243602
X-0651575Y0253838
X-0655709Y0259252
X-0651575Y0269066
X-065561Y0274311
X-0651575Y0284519
X-06523Y0305
X-06553Y0311
X-0660344Y0307087
X-0662598Y030059
X-06661Y02988
X-0666Y02939
X-0688119Y029577
X-0688019Y030087
Y030587
Y031087
X-0686716Y0275981
X-0695276Y0270276
X-0695768Y0266929
X-0695866Y0263484
X-0689764Y0248524
X-0629528Y0246654
X-0633465Y0265551
X-06038Y02611
X-05979Y02632
X-0598327Y0278543
X-0600394Y0286626
X-0600787Y0289665
X-06008Y02924
X-0606594Y0296764
X-0604523Y0302777
X-06044Y03054
X-0601078Y0308191
Y031075
X-0627359Y0310553
Y0305435
X-06296Y03
X-0627756Y0295571
X-0634938Y0302876
Y0307797
X-06465Y031
X-0646555Y0301279
X-0611516Y029311
X-0584646
X-0567913Y0283071
X-05758Y02282
Y02187
X-05923Y0224562
X-0586Y0231762
X-06066Y02297
X-05936Y02092
X-06282Y01669
X-0632
X-06357Y01639
X-0627658Y016063
X-06431Y01555
X-067313Y017511
X-0677658Y0181705
X-0665928Y0192045
X-05618Y01879
X-0556784Y0212224
X-05619Y02219
X-0543452Y0221065
X-0543352Y0224865
X-054014Y0228653
X-0535654Y0231467
X-05361Y02352
X-0535995Y0239195
X-0523529Y0238202
X-0523551Y0235425
X-05178Y02374
X-0517723Y02405
X-05201Y02499
X-0524Y02504
X-0527Y02525
X-0529079Y025112
X-0532424Y0251076
X-0534652Y0253248
X-0540075Y02561
X-05433Y02607
X-05432Y02645
X-0539988Y0268288
X-0535502Y0271102
X-05355Y02781
X-05309Y0285
X-05271Y02873
X-05235Y02894
X-05177Y02861
X-05107Y02833
X-05138Y02771
X-05189Y02769
X-0523351Y0277881
X-0523372Y0275103
X-052338Y0265418
X-052348Y0260361
X-0528718Y0260221
X-0526333Y026305
X-0529085Y0265629
X-05123Y02646
X-05122Y02685
X-05139Y02607
X-0513916Y0257516
X-0515Y02534
X-0517167Y0252567
X-05007Y02588
X-05064Y02731
X-0506425Y0235675
X-05064Y02319
X-0512352Y0228865
X-0512452Y0224965
X-0514052Y0221065
X-0514068Y0217881
X-0515152Y0213765
X-0517319Y0212933
X-0520252Y0210265
X-0524152Y0210765
X-0529232Y0211486
X-0532576Y0211441
X-0534804Y0213613
X-0540227Y0216465
X-052887Y0220586
X-0526485Y0223416
X-0523532Y0225784
X-0523631Y0220726
X-0529237Y0225995
X-04874Y02266
Y02294
Y02327
Y02355
X-04879Y02409
X-0481746Y0234487
X-0478275Y0237415
X-04749Y02345
X-04683Y02366
X-046076Y023511
X-045776
X-045126
X-044676
X-0446321Y0240266
X-0451476Y0240205
X-0456321Y0240266
X-045576Y024511
X-045176
X-0451416Y0250049
X-045626Y025011
X-046126
X-0461321Y0245266
X-0456416Y0255049
X-045626Y025961
X-045176
X-0451476Y0255205
X-0446416Y025511
X-044626Y0250266
X-0441416Y025011
Y024511
X-043626
Y025011
X-0431321Y0250266
X-0426321
X-0421476Y0250205
X-042126Y025511
X-0416416Y0255049
X-0416476Y0260205
Y0265205
X-042126Y026511
Y027011
X-0416416Y027005
Y0275049
X-042126Y027511
Y028011
X-0416476Y0280205
X-041626Y028511
X-0421368Y0285158
X-042626Y028511
Y029011
X-043126
Y029511
X-042626
X-042126
Y030011
Y030511
X-0416476Y0305205
X-0416416Y031005
X-042126Y031011
X-042626Y031061
X-043076Y031011
Y030511
X-0426476Y0305205
X-042676Y030055
X-043076Y030011
X-044126
Y030511
Y031011
X-044626
X-045126
Y030511
Y030011
X-0446321Y0300266
X-044626Y030511
X-043626
Y031011
Y029511
X-044126
Y029011
X-044626
X-0446416Y028505
X-045126Y028511
X-045176Y028011
X-045726
X-046026
X-0461321Y0275266
X-045626Y027511
X-045126
Y027011
Y026511
X-044676
X-044626Y026011
X-044126Y026061
X-0441476Y0255205
X-0436321Y0255266
X-043576Y026011
X-043126
X-0431416Y026505
X-042626Y026511
Y027011
Y027511
X-0426476Y0280205
X-0431321Y0280266
X-043126Y028511
X-043626Y028061
X-044126Y028011
X-044626
X-044576Y027461
X-044626Y027061
X-0441416Y027011
X-0437Y02663
Y0264
X-04356Y02747
X-04317Y02752
X-044126Y028511
X-043626Y029011
X-042126
X-041126
Y029511
X-041626
X-0411368Y0300158
X-041126Y030511
X-044676Y029511
X-0451Y0295
X-045176Y029061
X-045576
X-0461321Y0290266
X-046026Y029511
X-045776Y0295215
X-0456321Y0300266
X-0461321Y0305266
X-046076Y031011
X-045676
X-045626Y027011
Y026511
X-042626Y025961
X-0426416Y025511
X-0421416Y026011
X-042126Y024511
X-0416476Y0245205
Y0240205
X-0421321Y0240266
Y023511
X-042626
X-0426416Y023011
Y022511
X-042126
X-0421368Y0220158
X-042626Y022011
Y021511
X-042126
X-041626
X-0411368Y0215158
Y0210158
X-041576Y020561
X-042176Y020511
X-0426368Y0205158
X-043126Y020511
Y020011
X-043626
X-043676Y019561
X-0441368Y0195158
Y0200158
X-044126Y020511
X-0436321
X-043626Y021061
X-043526Y021511
X-043176
X-0431416Y022005
X-043726Y022011
X-044076
X-044126Y022511
X-0436416Y0225049
X-043576Y023011
X-043226
X-0431416Y023505
X-043126Y024011
X-0426416
X-042626Y0245266
X-043126Y024511
X-0436416Y024005
X-043676Y023511
X-0440976Y0235205
X-044226Y023011
X-044576
X-044626Y022511
X-0446416Y022011
X-044626Y021511
X-0441416
X-044126Y021011
X-045126Y0210188
Y021511
X-045626
X-045676Y021911
Y022161
X-0456321Y0225266
X-045576Y023011
X-045176
X-0450416Y022611
X-0461321Y0230266
X-04673Y02247
X-04685Y0219
X-04678Y02128
X-046176Y021261
X-045626Y021011
Y020511
X-045126
X-0451368Y0200158
X-045126Y019511
X-0456229
X-045676Y0189766
X-045126Y019011
X-0451368Y0185158
X-045376Y018511
X-0452505Y01765
X-0467Y01701
X-0464Y01614
X-04625Y01598
X-04757Y01571
X-0473001Y0188299
X-0479Y01929
Y0195
X-0473101Y0199501
X-04744Y02086
X-0479Y02062
X-0482353Y0207847
X-0487743Y0208796
Y0211596
X-0487769Y0214869
Y0217669
X-0482031Y0217131
X-0478559Y0220059
X-04783Y0224
X-04741Y02258
X-04814Y02274
X-0475191Y0217137
X-04631Y02056
X-04611Y0194
X-044626Y019406
X-044126Y019011
X-043126
X-042676
X-042376Y018511
X-0420213Y0182613
X-04289Y01826
X-043376Y018461
X-04359Y01824
X-043126Y019511
X-0421368Y0195158
Y0199626
X-041626Y019511
X-0411368Y0195158
Y0190158
X-041176Y018761
X-042126Y021011
X-042626
X-04214Y02302
X-0416416Y0230049
X-041126Y023011
Y022511
X-04242Y01628
X-0515354Y0165256
X-0515748Y0159744
X-05441Y01598
X-05589Y0156235
X-05024Y02
Y02029
X-05179Y0304008
X-0512Y0310592
X-0532571Y0293722
X-0555725Y0303225
X-05605Y0302
X-05619Y03094
X-0555725Y0311575
X-0401575Y0284842
X-04016Y02825
X-03945Y02831
X-0388174Y0285946
X-0382874Y0284842
X-0375Y0285335
X-0371654Y0282874
X-0371835Y0274626
X-0364862Y0274606
X-0364961Y0277067
X-0365453Y0269783
Y0267618
X-0353445Y0266634
X-0353543Y0271161
X-0352756Y0273819
Y0277953
X-0351181Y0282677
Y0286811
X-0343684Y0285946
X-0336392Y0285759
X-0336392Y0281822
Y0277885
X-0332455
X-0328518
Y0281822
X-0332455
Y0273948
X-0328518
X-0324581
Y0277885
Y0281822
X-0320644
Y0277885
Y0273948
X-0316732Y0273819
X-0316707Y0270011
X-031277
X-0308833
Y0266074
X-031277
X-0316707
X-0320644
X-0320669Y0269882
X-0324606
Y0266043
X-0324581Y0262137
X-0320644
X-0316707
X-031277
X-0308833
X-0304896
X-0300959
X-0297022
X-0293085
Y02582
X-0297022
Y0254263
X-0293085
X-0289148
Y02582
Y0262137
X-0285211
Y02582
Y0254263
X-0281274
X-0277337
Y0250326
X-0281274
X-0285211
X-0289148
Y024642
Y0242452
X-0285335Y024252
X-0281274Y0242452
X-0277337
Y0238515
Y0234578
X-0281274
Y0238515
X-0285211
Y0234578
Y0230641
X-0289148
X-0293085
X-0297022
X-0300959
Y0226704
X-0297022
X-0293085
Y0222767
Y021883
X-0297022
X-0300959
Y0222767
X-0304896
Y021883
Y0214893
X-0308833
X-031277
Y021883
Y0222767
X-0308833
Y021883
X-0316707
Y0222767
Y0226704
Y0230641
X-031277
X-0308833
Y0234578
Y0238515
X-031277
Y0234578
X-0304896
Y0230641
Y0226704
X-0308833
X-031277
X-0320768Y023061
X-0324581Y0230641
Y0234578
X-0324581Y0238515
X-0324581Y0242452
Y0246389
X-0328518
X-0332455
X-033248Y0242224
X-03324Y02384
X-0328543Y0238386
X-0328518Y0234578
X-0332455
X-0336392
X-0336392Y0238515
X-0336417Y0242224
X-0340354
X-0340329Y0238515
Y0230641
X-0336392
X-0332455
X-0328543Y023061
X-0328518Y0226704
X-033248Y0226673
Y0222736
Y0218799
X-0332455Y0214893
X-0328543Y0214862
X-0328518Y021883
X-0320669Y0218799
Y0214862
Y0210925
Y0206988
X-0324606
X-0324581Y0210956
X-0316707
Y0207019
Y0203082
Y0199145
X-031277Y0199145
Y0203082
X-0308833
Y0199145
X-0304896
Y0203082
Y0207019
X-0308833
X-031277
Y0210956
X-0308833
X-0304896
X-0301083Y0211122
X-0300959Y0214893
X-0297022
X-0293085
Y0210956
X-0297022
Y0207019
X-0293085
Y0203082
X-0297022
Y0199145
X-0300959
Y0203082
Y0207019
Y0195208
Y0191271
X-0297022
X-0293085
Y0195177
Y0199114
X-0289272
X-0289148Y0195208
X-0285211
X-0281274Y0195208
X-0277337
Y0199145
Y0203082
X-0281201Y0203051
X-0285211Y0203082
X-0289148
X-0285211Y0207019
X-0281274
X-0277337
X-02734
X-0269463
X-0265526
Y0210956
Y0214893
X-0269463
X-02734
Y021883
X-0277337Y021883
Y0222767
Y0226704
Y0230641
X-0281274
Y0226704
Y0222767
Y021883
X-0285211
Y0222767
X-0289148
Y021883
Y0214893
Y0210956
X-0285211
X-0281274
X-0277337
X-0277337Y0214893
X-0281274
X-0269463Y0210956
Y0203082
Y0199145
X-0265526
Y0203082
X-0261589Y0207019
Y0210956
Y0214862
Y021883
X-0265526Y021883
Y0222767
X-0269463
Y021883
X-0269463Y0226704
X-0265526
X-0261589
X-0257652
Y0230641
Y0234578
Y0238515
Y0242452
X-0261589
Y0238515
Y0234578
Y0230641
X-0265526
X-0269463
X-0269463Y0234578
Y0238515
X-0265526
Y0234578
Y0242452
X-0269463
Y0250326
Y0254263
Y02582
X-0265526
Y0262137
Y0266074
Y0270011
X-0261589
X-0257652
Y0273948
Y0277885
Y0281822
X-0261589
Y0277885
Y0273948
X-0265526
Y0277885
Y0281822
X-0265551Y0285531
X-0269488
X-0269463Y0281822
Y0277885
Y0273948
Y0270011
Y0266074
X-0277337
Y0262137
X-0281274Y0262137
Y02582
Y0266074
X-0285211
X-0289148
X-0293085
X-0297022
X-0300959
X-0304896
Y0270011
Y0273948
X-0308833
X-031277
Y0277885
X-0308833
Y0281822
Y0285759
X-0304896
X-0304921Y0281918
X-0301083Y0281791
X-0297022Y0281822
Y0277885
X-0293085
Y0281822
X-0289148
Y0277885
Y0273948
X-0293085
X-0297022
Y0270011
X-0293085
X-0289148
X-0285211
Y0273948
Y0277885
Y0281822
X-0281274
Y0277885
Y0273948
X-0277337
Y0277885
Y0281822
X-0281274Y0285759
X-0285211
X-0285236Y0289665
X-0289173
X-0289148Y0285759
X-0293085
X-029311Y0289665
X-0297022Y0289696
X-0296949Y0293504
X-0300787Y0293406
X-0300984Y0289469
Y0285827
X-0297022Y0285759
Y029757
X-0293085
X-0289148
Y0293633
X-0285335Y0293701
X-0285211Y029757
X-0285211Y0301507
Y0305444
X-0281398Y0305413
X-0281279Y0309274
X-0277264Y0309372
Y0305512
X-02734Y0305444
Y0301507
X-0277264Y0301575
Y0297539
X-02734Y029757
Y0293633
Y02899
X-0269463Y0289696
X-0265526
X-0261589
X-0257776Y0289665
Y0293602
X-0261761Y0293701
X-0265526Y0293633
X-0269463
Y029757
Y0301507
X-0265526Y0301507
X-0261713Y0301476
X-0261589Y0297669
X-0257677Y0301378
X-0261589Y0305444
X-0265551Y0305512
X-0265501Y0309313
X-0257652Y0309381
X-02734
X-0285315Y0309372
X-0289148Y0309381
X-0293085
X-0297022Y0309381
X-0300959
Y0305444
X-0297022
X-0293085Y0305444
X-0289148Y0305444
X-0289148Y0301507
X-0293209Y0301476
X-0297022Y0301507
X-0300959
X-0304823Y0301378
X-0304921Y0297539
X-0304896Y0293633
X-0308833
X-031277
Y029757
X-0312795Y0301378
X-0308858
X-0308833Y029757
Y0289696
X-0305118Y0289665
X-031277Y0289696
X-0316732Y0289567
X-0316812Y0293623
X-0320571Y0293602
X-0324606
Y0289665
Y0285827
X-0320644Y0285759
X-0316707Y0281822
Y0277885
X-031277Y0281822
X-0304896Y0277885
X-0300984Y0273622
X-0300959Y0270011
X-0300984Y0258169
X-0300959Y0254263
X-0304896
X-0308833
X-031277
X-0316707
X-0320644
Y0250326
X-0324581
X-0328518
Y0254263
X-0332455
X-0336392Y0254263
X-0336319Y0258071
X-0340256
X-0340329Y0254263
Y0250326
X-0336417Y0246161
X-0328543Y0242224
X-0320669Y0242323
X-0320644Y0238515
X-0316707
X-0316732Y0242224
X-0316707Y0246389
X-031277
X-0308833
Y0250326
X-031277
X-0316707
X-0320644Y0246389
X-031277Y0242452
X-0308833
X-0304896Y0242452
Y0246389
X-0300959Y0246389
Y0250326
X-0304896
X-0297022Y0250326
X-0293085
X-029311Y0242421
X-0293085Y0238515
Y0234578
X-0297022
Y0238515
X-0296991Y0242328
X-0300959Y0242452
X-0300886Y0238681
X-0289148Y0238515
Y0234578
Y0226704
X-0285138Y0199114
X-0285211Y019124
X-0289148Y0191271
X-0281274
X-0277337
Y0187303
Y0180807
Y0174311
X-0281274Y0175999
X-0285216Y017718
Y0183578
X-0292987Y0179528
X-0302362Y0177264
X-0302244Y0183381
X-0309036Y0183578
X-0309154Y0177264
X-0314844Y0177377
X-0312383Y0173834
X-03193Y01747
X-0320669Y0177165
X-0322835
X-03256Y01741
X-03281Y01739
X-03307Y01724
X-03313Y01637
X-03271Y0158
X-0322677Y0169322
X-0320532
X-0318504Y016752
X-0304804Y0167239
Y0172554
X-0301162Y0170586
X-0304896Y0191271
Y0195208
X-0308833
Y0191271
X-031277
X-0316707Y0191271
X-0320644
X-0320669Y0195177
Y0199114
X-0320768Y0203051
X-0328518Y0199145
X-0332455Y0195208
X-0340354Y0195177
X-0340329Y0203082
X-0332677Y020315
X-0332455Y0207019
X-0336301Y0210942
X-0341026
X-0341223Y0214978
X-034124Y0218799
X-0340329Y0222767
X-0340354Y0226673
X-0345866Y0214961
X-035Y0218898
X-0354528
X-0354626Y0206988
X-0346555Y020689
X-035392Y0199213
X-035748Y0195276
X-0361614Y019124
X-0366142Y0195177
X-0362697Y0199213
X-0366043Y0203051
X-0371161Y0203248
X-0376Y02048
X-03781Y02048
X-0377067Y0211516
X-03771Y02139
X-0383405Y021372
Y0211555
X-03827Y02167
X-0393209Y0216555
Y0218721
X-03932Y02212
X-0398209Y020872
Y0206555
X-0406535Y02051
X-04087
X-0393209Y0198721
Y0196555
X-0391142Y0193701
Y0191535
X-0384827Y0191354
X-0384842Y0193504
X-038691Y0196555
Y0198917
X-0373622Y019498
X-0377434Y0190837
X-0374787Y0186334
X-036524
X-0369882Y0172343
X-0373311Y0172357
X-0376476Y0172343
X-0378823Y0178165
X-0392111Y0177476
X-03909Y01757
X-04031Y01781
X-0401167Y0183874
X-04073Y01819
X-037526Y01589
X-0370059Y0158937
X-0368473Y0157351
X-03653Y01656
X-0364351Y0168189
X-0362764Y0166603
X-03543Y01576
X-0358957Y0202953
X-0362598Y0207579
X-0364665Y0209252
X-0364075Y021565
X-0366142Y021811
X-03742Y02257
X-03852Y02387
X-0388976Y0238583
Y0236122
X-0395768Y0236516
Y0238681
X-04027Y02348
X-0386894Y0254645
X-0386796Y0257893
X-0388961Y0265571
X-0389862Y0270571
X-0385039Y0269685
X-0376378Y0271752
X-0376575Y0264961
X-0375083Y0257992
X-0381791Y0250394
X-03666Y02489
X-0364945Y0247361
X-036Y02486
X-0357579Y0251575
X-0357562Y025494
X-0357579Y0257972
X-0355217Y0241339
X-0355904Y0236207
X-0358836Y0239138
X-0348999Y0235648
X-0340329Y0262137
X-0336392
X-0332455Y0262137
X-0328518
Y0266074
X-0328543Y0269882
X-033248
X-0332455Y0266074
X-0336392
X-0336417Y0269882
X-0340354
X-0336713Y0273622
X-0340329Y0277885
Y0281822
X-0332455Y0289696
X-0332561Y0297462
X-0336392Y0293633
X-0336417Y0301378
X-0328543
X-0324581Y029757
X-0316707Y029757
X-0316732Y0301378
Y030561
X-0316707Y0309381
X-031277
X-0312795Y030561
X-0308858
X-0308833Y0309381
X-0304921Y030935
Y0305512
X-0300984Y0297539
X-0281274Y029757
X-0281243Y0301383
X-0281274Y0293633
Y0270011
X-0277337
X-0261589Y0266074
X-0257652
Y0262137
Y02582
Y0254263
Y0250326
X-0261589
Y0254263
X-0265526
Y0250326
X-02734Y02496
X-0261589Y02582
Y0262137
X-0257874Y028563
X-0257652Y0222767
Y021883
Y0214893
Y0210956
Y0207019
Y0203082
Y0199145
Y0195208
X-0261589
X-0265526
X-0269463
Y0191271
X-0265526
X-0261589
X-0257652
Y0186122
Y0179331
X-0261691Y0177082
Y01663
X-0257652Y017
X-02694Y0169
X-02692Y01641
X-0272715Y0160447
X-0278523Y0160152
X-0263562Y0158479
X-0273425Y01723
Y0178051
X-0273405Y0190847
Y0199327
X-0261589Y0199145
X-0297022Y0195208
X-031277
X-0316634Y0195177
X-031504Y0186334
X-0316707Y0214893
X-0320768Y0222736
X-0324556Y025449
X-0328389Y0258273
X-0332326
X-0320644Y02582
X-0320866Y030561
X-0328445Y0309252
X-03557Y03115
X-0360531Y0306398
X-0360433Y0299902
X-0366437Y0300492
X-0374508Y0299705
X-037559Y0308858
X-0376854Y0290178
X-0365043Y0289784
X-036309Y0285827
Y0283661
X-0361024Y0293701
X-0344686Y0293633
X-0389847Y0277677
X-0394882Y0265551
X-04076Y02705
X-0409746
X-0253715Y0270011
X-0249778
X-0245841
X-0241904
Y0273948
Y0277885
Y0281822
X-0237967
Y0277885
X-023403
Y0281822
X-0230093
Y0277885
X-0226156
Y0281822
X-0222219
Y0277885
Y0273948
Y0270011
X-0218282
X-0218307Y0273819
X-0214345Y0273948
X-0210408
Y0277885
Y0281822
Y0285759
X-0206471
Y0289696
Y0293633
X-0210408
Y0289696
X-0214345
X-0218282
X-0222219
Y0293633
X-0218282
X-0214345
Y029757
Y0301507
X-0218282
X-0218307Y0297638
X-0222244
X-0222219Y0301507
X-0226156
Y0305444
Y0309381
X-0222219
X-0218282
X-0214345
Y0305444
X-0218Y03054
X-0222219Y0305444
X-0230093
X-0233931
Y0309381
X-0230093
Y0301507
X-0233931
Y029757
X-0230093
Y0293633
X-023403
X-0233957Y0289665
X-0230093Y0289696
X-0226156
Y0285759
X-0222219
X-0218282
X-0214345
Y0281822
Y0277885
X-0218282
Y0281822
X-0206471
Y0277885
Y0273948
X-0210408Y0270011
X-0214345Y0270011
X-0214345Y0266074
X-0214345Y0262137
X-0218282
Y02582
Y0254263
X-0214345
X-0214345Y02582
X-0210408
Y0254263
Y0250326
X-0206471
Y0254263
Y0246389
Y0242452
X-0210408
Y0246389
X-0214345
X-0218282
Y0250326
X-0214345
X-0222219
X-0226156
Y0254263
X-0230093
X-023403
X-0237967
Y02582
Y0262137
X-023403
Y0266074
X-0237967
Y0270011
X-023403
Y0273948
X-0237967
X-0230093
X-0226156
X-0226181Y0269882
X-0226156Y0266074
Y0262137
X-0222219
Y0266074
X-0218282Y0266074
X-0210408
X-0206471
X-0203543Y0266043
X-01936
X-0183366Y0265059
Y0262894
X-0173031Y0262854
Y0265098
X-0173327Y0273819
Y0277953
X-016998Y0277854
X-0169955Y028191
X-0173327Y028189
X-0172888Y02862
X-0170801
X-0167099Y0286142
X-0160504
X-0161909Y0289567
X-0158Y02895
X-0154035Y0289567
X-0153615Y0286142
X-0146725
X-0146824Y0289587
X-0150197Y0292323
X-014958Y0297659
X-0152237Y0297363
X-0153937Y0301575
X-0157972Y0301476
X-0162008
X-0163753Y0297462
X-0163779Y0292323
X-0167986Y0292737
X-0170348Y0289587
X-0176156Y0287324
X-0182677Y0285728
X-0182947Y028191
Y0277874
Y0273839
X-0167126Y0274016
X-0160531
X-0159744Y0269685
Y026752
X-01631Y02608
Y0257
X-01558Y02578
Y02602
X-0146063Y0259941
X-0146036Y0257696
X-01432Y02604
X-0146063Y026752
Y0269685
X-0146752Y0274016
X-0143898Y0277854
X-0143209Y028189
X-0150098
X-0150787Y0277854
X-0153642Y0274016
X-0157677Y0277854
X-0156988Y028189
X-0163779
X-0164272Y0277854
X-0139862Y0274016
X-0139835Y0286142
Y0289587
X-0143307Y0292224
X-0142618Y0297638
X-0145249Y0301694
X-0149902Y0301476
X-0139173Y0303445
X-01235Y0293026
Y0290938
X-01Y0295112
Y0297199
X-00998Y0300712
Y03028
X-01044Y03034
X-0167815Y0307776
X-017399Y030947
X-0177927Y0309667
X-0174705Y0301378
X-0170742Y0301399
X-0174114Y0297638
X-0188583Y0293898
X-01874Y02886
X-0184Y02891
X-0188976Y0301378
X-0189542Y0309274
X-0195068Y0309284
X-0200197Y0308957
X-0206496Y0309252
X-0206471Y0305444
X-0210433Y0305413
Y0309252
X-02104Y03014
X-02108Y0298
X-02063Y02975
X-02028Y02976
X-0206496Y0301476
X-02013Y02873
X-0230093Y0285759
X-023403
X-0237967
X-0241904
X-0245669Y0285728
X-0249585Y0285749
X-0249778Y0289598
X-0253642Y0289665
X-0249778Y0293535
X-0249803Y0297441
X-0253248Y0297835
X-0253839Y0301575
Y0305413
Y0309252
X-0249705Y0309449
X-0245841Y0309381
X-0242126Y0309449
X-0238189
Y0305512
Y0301575
X-0241904Y0301507
X-0241929Y0305315
X-0245841Y0305444
X-0249705Y0305512
Y0301575
X-0245669
X-0245841Y029757
Y0293731
X-0241904
X-0238189Y0293701
Y0297638
X-0241904Y029757
Y0289598
X-0245841
Y0281822
Y0277885
Y0273948
X-0249778
X-0253715
Y0277885
Y0281822
X-0249778
Y0277885
Y0266074
X-0253715
Y0262137
Y02582
Y0254263
Y0250326
X-0249778Y0250326
Y0246389
Y0242452
X-0253715
Y0238515
X-0249778
Y0234578
X-0253715
Y0230641
Y0226704
X-0249778
Y0222767
X-0253715Y0222767
Y021883
X-0249778
X-0245841
Y0214893
X-0241904
X-0237967
X-023403
Y021883
X-0237967
X-0241904
Y0226704
X-0245841
X-0242028Y023061
X-0241904Y0234578
Y0238515
X-0245841
X-0245841Y0234578
X-0237967
Y0238515
X-023403
X-0230118
X-0230093Y0242452
Y0246389
X-023403
X-0237967
Y0242452
X-023403
X-0241904
X-0245841
Y0246389
X-0241904
Y0250326
X-0237967
X-023403
X-0230093
X-0226156Y0246389
X-0222219
X-0222342Y024252
X-0226125Y0242421
X-0226Y02385
X-0222219Y0238515
Y0234578
X-0218282
Y0238515
X-0214345
Y0234578
X-0210408
Y0238515
X-0206471
Y0234578
X-0206496Y023061
X-0206471Y0226704
Y0222767
X-0206471Y021883
X-0210408
Y0222767
X-0214345
Y021883
X-0218282
Y0222767
Y0226704
X-0214345
Y0230641
X-0218282
X-0222219
X-0226156
X-0226156Y0226704
X-0222219
Y0222767
Y021883
X-0226156
Y0222767
X-0230118Y0222835
X-0233957
X-023403Y0226704
X-0237967
X-0237992Y0222933
X-0237798Y0230641
X-023403
X-0230093
Y0226704
X-0230095Y0218718
X-0230093Y0214893
Y0210956
X-0226156
Y0207019
X-0222219
Y0203082
Y0199145
X-0218282
X-0214345
Y0203082
X-0218282
Y0207019
X-0214345
Y0210956
X-0218282
Y0214893
X-0214345
X-0210408
X-0206471
Y0210956
Y0207019
Y0203082
X-0210408
X-0210408Y0199145
X-0206471
X-0206471Y0195208
Y0191271
X-0210408
X-0210409Y0195095
X-0214345Y0195208
X-0218282
X-0222219
X-0226156
Y0191271
X-0222219
X-0218282
X-0214345
X-0218282Y0187008
Y0180905
Y0174818
X-0214345Y0174424
Y0168799
Y0163302
X-0210508Y0165467
Y016025
X-020502Y0160236
X-0205094Y0165369
X-0206372Y0169577
X-0204996Y0173637
X-0205882Y0177279
X-0196924Y0179937
X-0196949Y0184547
X-0193Y01843
X-01891Y01814
Y01918
X-0193086Y0195784
X-0193184Y0201394
X-0193Y02039
X-0193012Y0206496
X-0201191Y0206998
X-020096Y0201394
X-0201059Y0195784
X-01891Y02006
X-0210408Y0207019
Y0210956
X-0222219
Y0214893
X-0226156
Y0203082
Y0199145
X-0230093
X-023403
Y0195208
X-0237967
X-0241904
X-0245841
X-0245908Y0198357
X-0249778Y0199145
X-0253715
Y0203082
X-0249778
X-0245908Y0203051
X-0241904
Y0199213
X-0237967Y0199311
X-0237992Y0203346
X-0237967Y0207019
X-023403
X-0233957Y0203248
X-023002
X-0230093Y0207019
X-023403Y0210956
X-0237967
X-0241904
X-0245841
X-0249778
X-0253715
Y0214862
Y0207019
X-0249778
X-0245841
X-0241904
X-0242028Y019124
X-0245841Y0191271
X-0249778
X-0253715
X-0253715Y0195208
X-0249778
X-0237967Y019124
X-0234055
X-0230093Y0191271
X-0230095Y0195095
X-0230064Y0184239
X-0229899Y0175113
X-0233934Y0176393
Y017119
X-0229899Y01697
X-0233934Y016565
Y0160433
X-0242Y01578
X-0242005Y0168617
X-0242028Y0174409
X-0253715Y0174095
Y0168633
Y0157736
X-0214345Y0156707
X-0218282Y0170487
X-0222244Y0170669
X-0222146Y0177165
X-0196924Y0173735
Y0168223
X-019311Y017185
X-01891Y01591
X-0172731Y0163947
X-01734Y01687
Y01751
X-0173597Y0180625
X-01726Y01869
X-01675Y01896
X-0165351Y0182211
X-0165328Y0176393
Y0171275
X-01651Y01643
X-0156Y01792
X-01536Y01825
X-01448Y01844
X-01456Y01893
X-01448Y01915
X-0149518Y0205896
X-0151104Y0204309
X-0156499Y0209842
X-0158743
X-0163787Y0220385
X-0166347
X-0167888Y0221769
X-0167922Y0224125
X-01629Y02232
X-0158563Y0227067
Y0229232
X-01586Y02317
X-0171063Y0232579
X-01711Y02346
X-01716Y02403
X-01671Y02402
X-0164836Y0240471
X-0166716Y0242699
Y0244942
X-0175672Y0244903
Y0242738
X-0177461Y023435
Y0232185
X-0182185Y0230315
X-0183Y02378
X-01834Y02503
X-0180315Y0252559
Y0254724
X-0169685Y0254823
Y0252658
X-0155841Y024941
Y0247244
X-0146036Y0247164
X-0146063Y024941
X-0144144Y0239469
Y0237303
X-01438Y02347
X-0146555Y0235827
X-0148721
X-01505Y02407
X-0177461Y0224114
Y0221949
X-01772Y0219582
X-0193701Y0225098
X-0193578Y0230529
X-0193819Y0242284
X-0214345Y0242452
X-0218282
X-0222219Y0254263
X-0222219Y02582
X-0230093Y0262137
Y0266074
Y0270011
X-0241904Y0266074
X-0245841
Y0262137
X-0245841Y02582
X-0241904
Y0254263
X-0245841
Y0250326
X-0249778Y0254263
Y0262137
X-0241904
X-023403Y0234578
X-02302Y02346
X-0210433Y023061
X-0210408Y0226704
X-0226156Y0293633
Y029757
X-0098837Y0240963
X-01018Y02066
Y02045
X-01056Y02075
X-01093Y01745
X-00893Y0168585
X-00841Y0165265
X-00803Y01774
X-008395Y018115
X-00799Y01859
X-00783Y01919
X-00903Y0192
X-0091043Y0184843
X-009Y02044
Y02066
X-00929Y0223012
Y02251
X-00929Y02279
X-00928Y02394
X-0089971Y02389
X-0087883
X-00894Y0244712
Y0246799
X-00863Y02458
X-0097361Y0242439
X-00956Y0254112
Y0256199
X-0092Y02569
X-00887Y0274898
X-00887Y02771
X-00881Y0285
X-0090291Y0285
X-00951Y02835
Y02987
X-00701Y01721
X-00636Y01702
X-00604Y0168
X-00625Y01653
X-00635Y01618
X-00599Y0163
X-00597Y01588
X-00624Y0157
X-0047244Y0188976
X-00975Y03161
X-00998Y0314499
Y0312412
X-01048Y0318312
Y0320399
X-01147Y0322212
Y03243
X-01189Y03255
Y03214
X-01187Y03325
X-01236Y03326
X-0123524Y0334842
X-0118504Y0338976
X-01144Y03342
X-0133071Y034252
X-0150787Y0318996
X-0156791Y0313484
X-0162402Y0313287
X-0169783Y0318898
X-0161085Y0327309
X-0194291Y0326476
X-0200763Y0325219
X-0206471Y0325129
Y0321192
X-0210408
X-0214345
X-0218282
X-0222219
X-0225984Y032126
Y0325197
X-0222219Y0325129
X-0218282
X-0214345
X-0210408
Y0317255
X-0210433Y0313386
X-021437
X-0214345Y0317255
X-0218282
Y0313318
X-0222219
Y0317255
X-0225984Y0317323
X-0226156Y0313318
X-0230093
X-0233931
X-0233942Y0317332
X-0230315Y0317323
Y032126
X-0233931Y0321192
Y0325129
X-0230315Y0325394
X-0238189Y0325197
X-0241904Y0325129
Y0321192
X-0238189Y032126
Y0317323
X-0241904Y0317255
Y0313318
X-0238189Y0313386
X-0245841Y0313318
X-0249705Y0313386
Y0317323
Y0321161
X-0245841Y0321192
Y0325129
X-0249705Y0325098
X-0253839
Y0321161
X-0253715Y0317255
X-0253839Y0313318
X-0245841Y0317255
X-0245647Y0342937
X-0249323Y0343619
X-024988Y0347661
X-0253054Y0350602
X-0249606Y0366437
X-0247835Y0372342
X-024299Y0370103
X-0254429Y0370571
X-025266Y0377756
Y0380906
Y0384056
Y0387206
X-0249511Y0390356
X-024951Y0393506
X-0246361Y0393506
X-0243151Y0393384
X-0245634Y0388288
Y0386123
X-0246361Y0380906
X-0233761
X-0230673Y038076
X-0227819Y0380858
X-0227461Y0384056
Y0387206
Y0390356
X-0230611
Y0393506
Y0399805
X-0227461
Y0406106
Y0409256
Y0412405
Y0415555
Y0418706
X-023376
X-023691
Y0415555
X-023376
Y0412405
Y0409256
Y0406106
X-023691
Y0409256
Y0412405
Y0402955
X-023376
X-0237661Y0397738
Y0395573
X-023691Y0390356
X-0233761Y0387206
X-0230611
Y0384056
X-023691
X-0233921Y0377512
X-023061Y0377756
X-0213227Y0377805
Y0380955
X-0210077
Y0384105
Y0387255
X-0213227
Y0390405
X-0210077
Y0393555
X-0206927
X-0206928Y0390404
X-020305Y0388337
Y0386172
X-0203777Y0380955
X-0210077Y0377805
X-0213227Y0384105
Y0399854
X-0210077
X-0203777
Y0403004
Y0406154
Y0409304
Y0412454
Y0415604
Y0418754
X-0206927
Y0415604
Y0412454
Y0409304
Y0406154
Y0403004
X-0213227Y0406154
Y0409304
Y0412454
Y0415604
Y0418754
X-0194327
Y0415604
X-0191177
Y0412454
Y0409304
Y0406154
X-0194327
Y0409304
Y0412454
X-0184877
Y0415604
Y0418754
X-0191177
X-0184877Y0409304
Y0406154
Y0399854
X-0188027
Y0393555
Y0390405
Y0387255
Y0384105
X-0184877
Y0387255
Y0390405
X-0191177Y0390404
X-0194327Y0390405
X-0195078Y0395622
Y0397787
X-0194327Y0403004
X-0191177
X-0194327Y0384105
Y0380955
X-0188027
Y0377805
X-0184877
Y0380955
X-0170511Y0380953
Y0384103
X-0167361
Y0387253
Y0390403
Y0393553
X-0164211
X-0161062Y0393553
X-0159655Y0392175
X-0160335Y0388336
Y038617
X-0161062Y0380953
X-0167361
Y0377803
X-0170511
Y0387253
Y0390403
Y0399853
X-0167213Y0399793
X-0161062Y0399853
Y0403003
Y0406153
X-0164211
Y0409303
Y0412453
X-0161062
Y0415603
Y0418753
X-0164211
Y0415603
X-0170511
Y0418753
Y0412453
Y0409303
Y0406153
X-0164211Y0403003
X-0161062Y0409303
X-0151611
Y0406153
X-0148461
Y0403003
X-0151611
X-0152362Y0397786
Y039562
X-0151611Y0390403
X-0148461Y0390403
X-0145311Y0390403
Y0387253
Y0384103
Y0380953
Y0377803
X-0141929Y0377756
Y0380906
Y0384055
Y0387205
X-0142162Y0390403
X-0145311Y0393553
Y0399853
X-0142162
Y0406153
Y0409303
Y0412453
Y0415603
Y0418753
X-0148461
X-0151611
Y0415603
Y0412453
X-0148461
Y0409303
Y0415603
X-0127461Y0409842
X-0118Y04
X-01163Y03865
X-0113287Y0386417
X-0110236Y0386024
X-0107283Y0386122
X-0108661Y0384154
X-0111909
X-01148Y03842
X-01057Y03906
X-0151611Y0384103
Y0380953
X-018376Y0364075
Y0359941
X-0187205Y0353642
X-0181668Y0346677
X-0177534Y0350614
X-020502Y0353642
X-0204246Y035932
X-0203248Y0364075
X-0199311Y0366831
X-0206791Y0341535
X-021063Y0345276
X-0229552Y0340257
X-023497Y0344501
X-0206471Y0317255
X-0206496Y0313386
X-0202756Y0313484
X-0198622Y0313583
X-0193504Y0313779
X-025266Y0393506
Y0399805
X-0249511Y0402955
X-0246361
Y0406106
Y0409256
Y0412405
Y0415555
X-0249511
Y0418706
X-0246361
X-0249511Y0412405
Y0409256
Y0406106
X-0246361Y0399805
X-025581
Y0406106
Y0409256
Y0412405
Y0415555
Y0418706
X-027041Y0418702
Y0415552
Y0412402
Y0409252
Y0406102
X-0276709
Y0409252
Y0412402
X-0279859
Y0409252
Y0406102
Y0402952
X-0276709
X-027356Y0399802
X-027041
Y0393502
Y0390352
X-027356Y0390352
Y0393502
X-027671Y0390352
X-0279859Y0390352
X-028061Y0395569
Y0397735
X-028931Y0399802
Y0402952
Y0406102
X-029246
Y0409252
Y0412402
X-028931
Y0415552
X-029246
Y0418702
X-028931
X-0298759
Y0415552
Y0412402
Y0409252
Y0406102
Y0399802
X-0295609
X-029246Y0402952
X-0292459Y0393502
X-0295609
Y0390352
Y0387202
Y0384052
Y0380902
Y0377752
X-0298759
Y0380902
Y0384052
Y0387202
Y0390352
X-029998Y0397612
X-0307776Y0391189
X-0309842Y0387941
X-0306594Y0384791
X-0321555Y0382429
X-032006Y0380289
X-0325492Y0380067
X-0325492Y0374752
Y0372586
X-0329429Y0377705
X-0329429Y0384791
X-0325492Y0387153
X-0321555Y0389516
X-0321457Y0396602
X-0325394Y039424
X-0329429Y0391878
X-0329331Y0398964
X-0325394Y0401327
X-0321457Y0403689
X-0317126Y040113
X-0317913Y0407724
X-0321457Y0410776
X-0325394Y0408413
X-0329331Y0406051
Y0413138
X-0325492Y04155
X-0321555Y0417862
X-0329429Y0420224
X-033691Y0417862
X-0343388Y0417889
X-0343504Y0410677
X-033691Y0410776
X-033691Y0403689
X-0343388Y0403716
X-0346831Y0397146
X-0350768
X-0354705
X-0358642
X-0362579
Y0390846
X-0358445
X-0354508
X-0350571
X-0346634Y0390945
X-0346831Y0385433
X-0350768
X-0354705
X-0358642Y0385335
X-0362579Y0385433
Y0379035
X-0358445
X-0354508
X-0350571
X-0346634Y0379134
X-0343388Y0382356
X-033691Y0382429
Y0389516
X-03416Y03878
Y0395
X-033691Y0396602
X-0337008Y0375342
Y037239
X-0343388Y0373794
X-035689Y0373721
X-0365945Y0374213
X-0373031Y0372933
X-0377461Y0373524
X-0381594Y0373819
X-0408647Y0375025
X-0408549Y0385065
X-0406496Y0355118
X-0402362Y0355217
X-039813Y0360433
X-0410714Y035022
X-04105Y03451
X-0360925Y0316831
Y0313878
X-0343799Y0316535
X-0346752Y0319882
X-0344193Y032313
X-0348819Y0327067
X-0345522Y0330463
X-0337106Y0326083
X-0333268Y0325984
X-033002Y0326476
X-03261Y03283
X-0324508Y0325689
X-0320644Y0325129
Y0321192
X-0316707
X-031277
X-0308833
X-0304896
Y0317255
X-0304921Y0313386
X-0301181Y0313189
X-0300959Y0317255
Y0321192
X-0297022
X-0297047Y0317323
X-0293085Y0317255
X-0289148
X-0285335Y0317224
X-0281398
Y0313287
X-0285211Y0313318
X-0289148
Y0321192
X-0285211
X-0281398Y032126
X-0277337Y0321192
X-02734
Y0317255
X-0277264Y0317323
X-0277337Y0313318
X-02734
X-0269438Y0313287
X-0269463Y0317255
X-0265526
Y0321192
Y0325129
X-0269463
X-02734
X-0277337
X-0281201Y0325197
X-0285211Y0325129
X-0289148
X-029311Y0325197
X-0297022Y0325129
X-0300984Y0325197
X-0304896Y0325129
X-0308833
X-031277
X-0316707
X-03175Y033
X-03197Y03299
X-0332087Y0330413
X-033248Y0321161
Y0317421
Y0313484
X-0324606
Y0317421
X-0324588Y0321161
X-0320644Y0317255
X-0316707
X-0316732Y0313386
X-0312795Y0313287
X-031277Y0317255
X-0308833
X-0308858Y0313484
X-0293085Y0321192
X-0269463
X-0257579Y0321161
Y0317224
X-0257652Y0313318
X-0261589
X-0257677Y0325098
X-0257716Y0334588
X-0265432Y0341952
X-0261494Y0351008
X-0259427Y0355536
X-0265038Y0354551
X-0268799Y0352559
X-0269861Y0359571
X-0275176Y0358981
X-0274684Y0364394
X-0265846Y0365256
X-0263878Y0359842
X-025561Y036624
X-025581Y0377756
Y0380906
Y0384056
Y0387206
Y0390356
X-027041Y0384052
X-0273559
X-0276709
X-0279859
Y0380902
X-027356
X-027041
Y0377752
X-027356
X-0292459Y0380902
X-0288583Y0386119
Y0388285
X-028931Y0393502
Y0409252
X-0303543Y0409201
X-0305512Y041235
Y0415697
X-030748Y0418748
X-0279859Y0418702
X-0279823Y0415598
X-0276709Y0415552
Y0418702
X-0353212Y0418432
X-0357051Y0422468
X-0355098Y0426378
X-0353212Y0430342
X-0367697Y0427559
X-0374587
X-0364843Y0415846
X-0351046Y0412527
X-0340158Y0354921
X-0337008Y0354823
X-0333465Y0354921
X-0322736
X-0319175Y0354945
X-0312973Y0354847
X-03141Y03392
X-030118Y0344223
X-0291535Y0344365
X-02832Y03443
X-0316732Y0374752
X-0336392Y0321192
X-0336516Y0317323
X-0411368Y0315158
X-0411367Y0320157
X-041126Y032511
X-0411367Y0330159
Y0335157
X-0416416Y033505
X-0421368Y0335158
X-042626Y033511
Y034011
X-0421368Y0340158
X-042126Y034511
Y035011
Y035511
X-041626
X-0416321Y0350266
Y0345266
X-042626Y034511
X-043126
X-0431112Y0340414
X-0431034Y0335414
X-042676Y033011
X-0421476Y0330205
X-0421416Y0325049
Y032005
X-042176Y031511
X-042626Y031561
X-043126Y031511
X-043626
X-0441476Y0315205
X-044126Y031961
X-044576
X-0446321Y0315266
X-045126Y031511
Y032011
X-0448414Y0325021
X-044576Y032511
X-0446321Y0330266
X-044626Y033505
Y034011
X-0441416Y034005
X-044126Y033511
X-0441476Y0330205
X-043626Y033011
Y032511
X-0433868Y0325219
X-0431112Y0325414
X-043176Y0319766
X-042876Y032061
X-0416476Y0325205
X-0416416Y031505
X-0456321Y0315266
X-045626Y032511
X-046076
X-0461321Y0320266
X-0461476Y0330205
X-0466327Y0333586
X-045626Y033511
X-0451368Y0335158
Y0340158
X-045626Y034011
Y034511
Y035011
X-045176
X-045126Y0345266
X-044626Y034511
X-044126
Y035011
X-043626
Y034511
Y034011
X-043126Y035011
Y035511
X-043626
Y036011
X-043126
X-042626
Y036511
Y037011
Y037511
X-0421321Y0375266
Y0380266
X-042126Y038511
X-042626
X-0425184Y038872
X-04301Y03887
X-043126Y038511
X-0431321Y0380266
X-0436321
X-0441321
Y0385266
X-0446321
X-0451321
X-0451083Y0388878
X-0450874Y0393333
X-04562Y03933
Y03884
X-0456321Y0385266
X-0462697Y0388484
X-0462627Y0393616
X-04701Y04013
X-04767Y0408827
X-0484598Y0401454
X-0480217Y0378346
X-0481773Y0372973
X-04847Y03718
X-04791Y03701
X-04883Y03762
X-04943Y03686
X-0499286Y036522
X-04976Y03586
X-05009Y0358
X-05019Y03524
X-05022Y03447
X-04917Y03462
X-04914Y03432
X-0487Y03435
X-04874Y03366
X-049405Y033145
X-05089Y03358
X-05109Y0339
X-05127Y03302
X-0512Y0326192
X-0524656Y0320456
X-052946Y0314824
X-05326Y03293
X-054Y03243
X-05399Y0336308
X-05466Y0334892
Y0338692
X-0546937Y034485
X-05512Y03458
X-0555603Y0347071
Y0351008
Y0354945
X-0550889Y0355976
X-0552257Y0358488
Y0361343
X-05637Y03629
X-05635Y0357
X-0563767Y0353127
Y034919
X-05663Y03423
X-05652Y0319
X-05654Y03718
X-0548032Y0372249
X-054015Y0371876
Y0365183
X-0536221Y036191
Y0368602
X-0531456Y0367693
X-0532374Y0375418
X-0532275Y0380438
X-0523425Y0379921
X-0521161Y0379528
X-0524001Y0394999
X-0539764Y0390551
Y0386417
X-0539911Y0382579
X-0552355Y038408
Y0386738
X-0555603Y0390478
X-0563767Y038846
X-0566234Y0403176
X-05664Y04067
X-0556654Y0410302
X-05598Y04141
X-0513Y0415
X-05102Y04177
X-05134Y04237
X-05167Y04216
X-050555Y042735
X-0462198Y0427254
X-0430873Y0427094
X-0432645Y0422665
X-043059Y0420472
X-04226Y04204
X-04227Y04166
X-0419862Y0418701
X-04189Y0422
X-0421077Y0425586
X-0412Y04278
X-04167Y04176
X-0419574Y0407017
X-0424888Y0406918
X-0430204
X-043Y04005
X-0425184Y0400531
X-0424888Y0395107
X-0430204
X-0436811Y0397835
X-0447146Y0396654
X-0446321Y0380266
X-0446368Y0370158
X-0451368
X-045626Y037011
X-0456321Y036511
X-045176
Y036011
X-045526Y035961
X-045676Y035511
X-046076Y035561
X-0461321Y0350266
X-04662Y03493
X-04693Y03494
X-04794Y03445
X-0451368Y0355158
X-044626Y035511
X-0441416Y0355049
X-0446416Y036005
X-0446146Y0365132
X-0441368Y0365158
X-0441416Y037005
X-043626Y037011
Y037461
X-0431416Y037005
X-043226Y036511
X-043526
X-042126
Y037011
X-0416321Y0370266
Y0365266
X-041626Y036011
X-042126
X-042626Y035511
Y035011
X-0426321Y0380266
X-0411416Y0380049
X-0414554Y0388818
X-0419475Y0388757
X-0419574Y0395206
X-0414258
X-04146Y04005
X-0419475Y0400569
X-0451476Y0375205
X-0456321Y0375266
X-0461476Y0375205
X-0461321Y0365266
X-0451476Y0330205
X-05225Y03455
Y03491
X-05234Y0356
X-05307Y03558
X-05406Y03571
X-05402Y03496
X-05273Y0345592
X-05703Y03423
X-05762
X-05801
X-0584Y03424
X-05882Y03437
X-05919Y03426
X-05959
X-0597817Y0349717
X-05921Y03483
X-05964Y03599
X-05894Y03651
X-05912Y03837
X-05923Y03867
X-05944Y03939
X-0597835Y0394488
X-0605723Y0395033
X-06117Y0395
X-06153Y03926
X-0614764Y0388484
X-0612Y03892
X-0611708Y0386508
X-06085Y03881
X-06164Y03826
X-0616233Y037473
Y0368825
X-061437Y0370374
X-0616188Y0364805
X-0616322Y0359033
Y0355096
Y0351159
Y0347222
X-0611962Y03445
X-06058Y03429
X-0607673Y0334472
X-061161
X-06152Y03357
X-0626772Y0339075
X-0629921Y0334055
X-0629342Y0328163
X-06337Y0328
X-063517Y0323177
X-06498Y0322669
X-0655969Y03205
X-0656499Y031675
X-0663287Y0320669
X-0665453Y032559
X-0664272Y0327854
X-06692Y0326234
X-0669095Y0315748
X-0675787Y0315748
X-0679511Y0314567
X-0683563Y0315059
X-068127Y033113
X-0687106Y0339885
X-0692126
X-06969Y03365
X-0697Y03432
X-06896Y03484
X-06926Y03537
X-06948Y03568
X-06992Y03544
X-069311Y0364985
X-06968Y03707
X-0670683Y0374635
X-06678Y0378
X-06668Y03829
X-0667321Y0360457
X-0649Y03605
X-0627457Y0360359
Y0363312
X-0624307Y0356914
Y0353173
Y034904
Y0345102
X-06307Y03533
X-063543Y0341362
X-0639272Y0338287
X-0641437Y033248
X-0651083Y0331988
X-0655821Y0329179
X-06468Y03131
X-0599284Y0316648
X-06002Y03219
X-060374Y0325295
X-0607574Y0327385
X-05961Y03292
X-05895Y03311
X-0589955Y0334472
X-0582081
X-0578144
X-0574699Y0331223
X-0571844
X-0568301Y0334472
X-05677Y03518
X-0568392Y0395054
X-05707Y04053
X-0574207Y0403176
X-0586011Y0403102
X-059065Y0406791
X-0596452Y0406522
X-0599208
X-0603085Y0406485
X-06058Y04039
X-0613579Y0403373
X-0624803Y0406496
X-062423Y0412303
X-063002Y0414567
X-0633698Y0411454
X-06433Y04074
X-06467Y04045
X-06412Y04031
X-064045Y0389494
X-0641533Y0384474
X-0644193Y0380315
X-0630512Y0386221
X-0627Y03891
X-0624307Y0392348
X-0624397Y0376649
Y0370744
X-0582171Y0395054
X-0579423Y041607
X-0576083Y0419685
X-0577312Y04228
X-057Y04167
X-0649Y04181
X-0649508Y0429626
X-0679576Y04178
T02
X-06903Y-00247
X-0562099Y-0032517
X-05531Y-00372
X-0556Y-0042287
X-0544186Y-0028383
X-0540249Y-0024446
Y-0016572
X-0536312Y-0020509
X-0532375Y-0016572
Y-0024446
X-0524501
Y-0016572
X-0528438Y-0020509
X-0520564
Y-0012635
X-0528438
X-0524501Y-0008698
X-0532375
X-0540249
X-0544186Y-0012635
Y-0020509
X-0536312Y-0012635
Y-0004761
X-0528438
X-0520564
X-0544186
X-0536312Y-0028383
X-0528438
X-0520564
X-06302Y00375
X-06668Y00359
X-067Y00364
X-0670019Y0031787
X-06745Y00325
X-06744Y0036
T03
X-068189Y0001476
T04
X-032Y-01108
Y-0107776
Y-0104823
X-0316949
X-0316944Y-0107793
X-0316949Y-01108
X-03139
Y-0107776
Y-0104823
X-02363Y-0103839
Y-01008
X-0233268
X-0233263Y-0103856
X-0233268Y-01069
X-02363
X-02302
Y-0103839
Y-01008
X-01505Y-00772
X-0147441
X-01444
Y-0074114
Y-00711
X-0147441
X-0147436Y-0074131
X-01505Y-0074114
Y-00711
X-0488583Y0143405
X-0500492Y0152165
X-0530512
X-0522706Y0114988
X-0595Y01396
X-0586024Y0184744
X-0578839Y0184646
X-0586319Y0194291
X-0595768Y0194095
X-05942Y02353
X-06131Y0237
X-06252Y02412
X-05491Y02449
X-054905Y024855
X-0555807Y0226279
X-05178Y02436
X-05062Y0246
X-016696Y025061
X-01652Y02619
X-0363858Y0405118
Y0409055
X-0366811Y0407087
X-0369764Y0409055
Y0405118
X-04657Y03249
X-05962Y03325
T05
X-06183Y-00026
X-0606763Y-0001521
X-0601863Y-0001621
X-0596737Y-0010279
X-0587201Y-0019966
X-0581004Y-0028762
X-0572532Y-0028974
X-05734Y-00395
X-0569186Y-0040194
X-0571Y-00156
X-0565839Y-0010667
X-0566036Y-0004761
X-0562885Y-0004187
X-05594Y-0008
X-0552511Y-0017408
X-0549608Y-0029124
X-0552257Y-0033895
X-0558556Y-0039801
X-0546648Y-0043137
X-0543398Y-0048265
X-0536228Y-0046952
X-0533465Y-0047872
X-05374Y-0044
X-0540349Y-0036364
X-0532626Y-0035851
X-0521541Y-0035864
X-051643Y-003547
X-05103Y-0038969
X-05123Y-0029
X-05054Y-00256
X-0497066Y-0026845
X-0497204Y-002099
X-049789Y-0015093
X-0498713Y-0008305
X-0491233Y-0007517
X-0484934Y-0007714
X-0483162Y-0021256
X-0482946Y-003587
X-0475295Y-0035433
X-0483858Y-0044094
X-0486705Y-0041966
X-0496753Y-0034477
X-0500902Y-00508
X-0500984Y-0060433
X-0521745Y-0047675
X-05368Y-0055
X-05446Y-00559
X-05496Y-00624
X-0553044Y-0062635
X-0551863Y-0048462
X-054Y-00663
X-05332Y-00634
X-0512865Y-0018101
Y-0003928
X-0189445Y-0097475
X-0121555Y-0125098
X-0055667Y01498
X-00552Y01538
X-00586Y01548
X-01494Y00877
X-0267717Y0047343
X-0269685Y0045079
X-0274705Y0035138
X-02809Y0034
X-02807Y00315
X-02828Y00295
X-02832Y00264
X-02932Y00212
X-02967Y00179
X-03791Y01155
X-05136Y00811
X-05163Y00825
X-0517272Y0030701
X-0512887Y0027128
X-0522685Y0026833
X-0529803Y0030017
X-0535864Y0029714
X-0538871Y0015317
X-0539494Y0003723
X-0531701Y0003069
X-0524982Y0003918
X-051643Y0002916
X-0503438Y0006459
X-0499894Y-0000037
X-0487099Y0001538
X-0509343Y0015317
X-0523517
X-0551863Y0020042
X-054891Y0002916
X-0566036Y0001144
Y0011774
X-0572532Y0008821
X-0575485
X-0578438Y0002916
X-0568398Y0003506
X-06183Y00041
Y00008
X-06165Y00327
X-06127Y00324
X-06322Y00267
X-0639Y00278
X-0638946Y0019053
X-0646529Y0012181
X-0645608Y0061272
X-06586Y0057291
X-0680874Y0051104
X-06904Y00512
X-0570089Y0054189
X-0572589Y0058189
X-0569889Y0060689
X-04789Y02865
X-0479Y02906
X-00678Y01883
X-0050591Y0437008
X-0101969Y0437008
X-0132283
X-0153937
X-0169291Y0436772
X-0497Y03667
X-04991Y03627
X-05034Y0367
X-04979Y03514
T06
X-06885Y-0038
X-06816
X-06748Y-00381
X-06733Y-00288
X-06731Y-00193
X-0689173Y-0019384
X-068937Y-0028887
X-06426Y-00397
X-0631102Y-005748
X-058405Y-0081691
X-0513218Y-0095648
X-0518218Y-0120076
X-0523218
X-0478196Y-009567
X-04772Y-0072
X-0356594Y-0074311
X-03568Y-00813
X-0356693Y-009252
X-0351562Y-0098741
X-0346641
X-0348819Y-0102362
X-0352185Y-010502
X-0351575Y-0109843
X-0333845Y-0114589
X-0327743Y-01139
X-0331319Y-0105315
X-03367Y-0120002
X-032498Y-012393
X-0330789Y-0132874
X-0313662Y-0129823
X-030303Y-013082
X-0306678Y-0114392
X-0297165Y-0102461
X-029841Y-0096576
X-0293292
X-0292638Y-0084744
X-0292736Y-0076772
X-02892Y-00646
X-0292513Y-0060738
X-02966Y-00645
X-0301372Y-0060738
X-0306496Y-0059744
X-0306786Y-0066447
X-0312303Y-0065059
X-0317618Y-0061122
X-0325689Y-0061024
X-0333163Y-0061035
X-03298Y-00649
X-03373
X-0342022Y-0061035
X-0347435Y-0066744
X-0345591Y-0075098
X-0335531
X-0337402Y-0080413
X-0344091Y-0084755
X-0319114Y-0086122
X-0319606Y-0094095
X-0314685Y-0094193
X-0307558Y-0089873
X-0303439Y-0083082
X-0312298Y-0075897
X-0321181Y-0075295
X-032185Y-0065059
X-03446Y-00461
X-02908Y-00388
X-0273111Y-0038598
X-02685Y-00389
X-0268583Y-005041
X-0273209
X-0266929Y-0056988
X-0267192Y-0063504
X-0272803Y-0068032
X-0273Y-00766
X-0278248Y-0081299
X-0274529Y-0085467
X-0267881Y-0094804
X-026296
X-0268504Y-0101083
X-0267894Y-0105905
X-0280594Y-0112522
X-028335Y-0117837
X-0282277Y-0060738
X-0262369Y-0068819
X-0260401Y-0077185
X-0260138Y-0051476
X-0255282Y-0053464
X-0257579Y-0028642
X-0264469
X-0271358
X-03656Y-01194
X-0370456Y-0119684
X-03868Y-01192
X-0253018Y-0116065
X-0250164Y-0110652
X-0244061Y-0109963
X-0241732Y-011998
X-0237953Y-0129442
X-0233228Y-0125801
X-021939Y-0127067
X-0222997Y-0110455
X-0213484Y-0098524
X-0214729Y-0092639
X-0209611
X-021063Y-0081496
Y-0073622
X-0217584Y-0076103
Y-0068228
X-0220635Y-0062519
X-022595
X-0234547Y-0063779
Y-0070669
Y-0077559
Y-0084449
X-0235433Y-0090158
X-0231004Y-0090256
X-02243Y-00859
X-0228445Y-007185
X-0227242Y-0050213
X-0231573
X-0236088Y-0053464
X-0238189Y-0057185
X-02425Y-00609
X-0247441Y-0057185
X-02529Y-00608
X-02502Y-00492
X-02411Y-00491
X-0231573Y-0038401
X-02275Y-0038764
X-0229134Y-0028346
X-0222244
X-0215354
X-0208465
X-01996Y-00175
X-0187382Y-0020685
X-0182756
X-0181102Y-0027264
X-0181366Y-0033779
X-0176543Y-0039094
X-0174574Y-0047461
X-0167618Y-0045276
X-01671Y-00313
X-0161614Y-0027461
X-01566Y-00313
X-0152362Y-0027461
X-0150262Y-0023739
X-0145746Y-0020488
X-0141415
X-01414Y-00089
X-0145746Y-0008677
X-01278Y-00083
X-0123622Y-0005512
X-01239Y-00195
X-01149
X-0109711Y-0023935
X-0111811Y-0027656
X-01161Y-00313
X-0121063Y-0027656
X-01261Y-00313
X-0128904Y-0023935
X-0134941Y-0025787
X-0134808Y-0032795
X-0140123
X-0148721Y-0034055
Y-0040945
Y-0047835
Y-0054724
X-0150098Y-0060433
X-0145177Y-0060532
X-0138549Y-0059469
X-0128902Y-0062915
X-0123784
X-0127657Y-0068799
X-0124803Y-0051772
Y-0043898
X-0131757Y-0046378
Y-0038504
X-0142618Y-0042126
X-01554Y-00193
X-01643Y-00195
X-0169456Y-0023739
X-0174311Y-0021752
X-01893Y-00263
X-0186976Y-0038307
X-01872Y-00469
X-0188702Y-0055743
X-0195537Y-0053659
X-0197638Y-005738
X-02017Y-00609
X-020689Y-005738
X-02118Y-00609
X-0214731Y-0053659
X-0220768Y-0055512
X-02096Y-00493
X-02007Y-00491
X-0194882Y-0065354
X-0194783Y-0073917
X-0195338Y-008191
X-0182067Y-0076181
X-0182677Y-0071358
X-0182055Y-006508
X-0177133
X-0161811Y-0071653
X-0164337Y-0080927
X-0158235Y-0080238
X-0156004Y-0090354
X-0152461Y-0099803
X-014672Y-0096076
X-0133826Y-0097159
X-0137171Y-008073
X-0113843Y-0084175
X-0111087Y-007886
X-0109512Y-0052186
X-0108957Y-0044193
X-0109055Y-003563
X-0163484Y-0006693
X-01826Y-00091
X-0187284Y-0008874
X-0250689Y-0028642
X-0251969Y-0038189
X-0253445Y-0075
X-0247835Y-0100886
X-0196913Y-0108585
X-0199669Y-01139
X-0167192Y-0086341
X-0020768Y-0097441
Y-0112303
X-0043078Y-0121259
X-0020768Y-0070866
Y-0044291
X-0021424Y0000006
X-0020768Y0044291
Y0088583
X-01355Y0081909
X-0141437Y0077953
X-0146326Y0081909
X-0152264Y0077953
X-0157153Y0081909
Y0073051
X-0152264Y0069095
Y0060236
X-0157153Y0064193
Y0055334
X-0152264Y0051378
X-0157153Y0046476
X-0156201Y0037598
X-01523Y00336
X-0161Y00335
X-0165059Y0038583
X-0173917
X-0182776
X-0185531Y0032874
X-01914Y00329
X-01918Y00392
X-02004Y00364
X-020382Y0032449
X-02002Y00276
X-02032Y00217
X-0209762Y0020405
X-02113Y00134
X-0206791Y0014469
X-0200886Y0014764
X-0195472Y0016929
X-01914Y00213
X-0184Y00211
X-01754Y0021
X-01663Y00214
X-01575Y00212
X-01487Y00213
X-0138465Y0020898
X-0138484Y0008268
X-0147343
X-01435Y00128
X-01524Y00127
X-0156201Y0008268
X-0165059
X-01613Y00127
X-0169961Y0013157
X-0173917Y0008268
X-0182776
X-01789Y00129
X-01878Y00128
X-0191634Y0008268
X-0197539Y0009941
X-0209762Y0008594
X-0216Y00146
X-02226Y00151
X-02228Y00241
X-0229429Y0024311
X-0233366Y0020374
Y00125
X-0229398Y000858
X-02288Y00357
X-02233Y00334
X-02158Y00332
X-02118Y00383
X-020382Y0041307
X-02003Y00454
X-02231Y00452
X-023791Y0057156
Y006503
X-0244669Y0061093
X-0241732Y0073721
X-0215551Y0074213
X-0215354Y0078248
X-0184449Y0075
X-0163091Y0077953
Y0069095
X-0163091Y0060236
X-0163091Y0051378
X-01701Y00332
X-0179
X-0178642Y0000098
X-0171752
X-0164862
X-0185531Y00001
X-01904
X-0144291Y0000394
X-0137402
X-0130512
X-0123622
X-0138484Y0037598
X-0147343
X-01433Y00333
X-02159Y00241
X-0478839Y0027067
X-0484449Y0027165
X-04751Y00375
X-0476958Y0051879
X-0484439
X-0490147Y0057982
X-0495295Y0065602
X-0495669Y0076809
Y0080709
X-0501476Y0088287
X-0505896Y0052765
X-0507606Y0042347
X-05115Y00369
X-05014Y00372
X-0513189Y0058858
X-048061Y0061614
X-0585117Y0069975
X-06126Y02071
X-04184Y01787
X-04191Y01712
X-0419396Y0163604
X-04195Y01599
X-04105Y01589
Y01628
X-04069Y01642
Y01607
X-0406946Y0157311
X-03986Y01657
X-03952Y01688
X-0244867Y0424488
X-023833
X-0228508Y0428102
X-0212106Y042815
X-0202284Y0424535
X-0195747
X-0185925Y042815
X-016939
X-0159568Y0424535
X-0153031
X-0143209Y042815
X-0254689Y0428102
X-0271457Y0428098
X-0281279Y0424484
X-0287874Y0424582
X-0297638Y0428098
X-0309627Y0424287
X-0347602Y0411739
X-0353425Y0409547
X-0362087Y0418504
X-0380506Y0419606
X-0383659Y0425214
X-0403722Y0425248
X-04028Y04052
X-0383694Y0405152
X-0381279Y0386417
X-0373488Y0386344
X-0377426Y0381226
X-0389237
X-0393076Y0383982
Y0388608
X-0387795Y0375984
X-0353839Y0322244
X-0352805Y0314518
X-04794Y0322
X-0462418Y038061
X-0496447Y0403471
X-0542709Y0403569
T07
X-0079528Y019626
X-0073622
X-0067716
X-0061811
X-0055905
X-005
X-0044094
X-0038189
X-0032283
Y0206102
X-0038189
X-0044094
X-005
X-0055905
X-0061811
X-0067716
X-0073622
X-0079528
Y0215945
X-0073622
X-0067716
X-0061811
X-0055905
X-005
X-0044094
X-0038189
X-0032283Y0215945
Y0225787
X-0038189
X-0044094
X-005
X-0055905
X-0061811
X-0067716
X-0073622
X-0079528
Y023563
X-0073622
X-0067716
X-0061811
X-0055905
X-005
X-0044094
X-0038189
X-0032283
Y0245472
X-0038189
X-0044094
X-005
X-0055905
X-0061811
X-0067716
X-0073622
X-0079528
Y0255315
X-0073622
X-0067716
X-0061811
X-0055905
X-005
X-0044094
X-0038189
X-0032283Y0255315
Y0265158
X-0038189
X-0044094
X-005
X-0055905
X-0061811
X-0067716
X-0073622
X-0079528
Y0275
X-0073622
X-0067716
X-0061811
X-0055905
X-005
X-0044094
X-0038189
X-0032283
Y0284842
X-0038189Y0284842
X-0044094
X-005
X-0055905
X-0061811
X-0067716
X-0073622
X-0079528
Y0294685
X-0073622
X-0067716
X-0061811
X-0055905
X-005
X-0044094
X-0038189
X-0032283
Y0304528
X-0038189
X-0044094
X-005
X-0055905
X-0061811
X-0067716
X-0073622
X-0079528
Y031437
X-0073622
X-0067716
X-0061811
X-0055905
X-005
X-0044094
X-0038189
X-0032283Y031437
Y0324213
X-0038189
X-0044094
X-005
X-0055905
X-0061811
X-0067716
X-0073622
X-0079528
Y0334055
X-0073622
X-0067716
X-0061811
X-0055905
X-005
X-0044094
X-0038189
X-0032283
Y0343898
X-0038189
X-0044094
X-005
X-0055905
X-0061811
X-0067716
X-0073622
X-0079528
Y035374
X-0073622
X-0067716
X-0061811
X-0055905
X-005
X-0044094
X-0038189
X-0032283Y035374
Y0363583
X-0038189
X-0044094
X-005
X-0055905
X-0061811
X-0067716
X-0073622
X-0079528
Y0373425
X-0073622
X-0067716
X-0061811
X-0055905
X-005
X-0044094
X-0038189
X-0032283
Y0383268
X-0038189Y0383268
X-0044094
X-005
X-0055905
X-0061811
X-0067716
X-0073622
X-0079528
T09
X-02005Y-01197
X-01952Y-01198
X-01899Y-01199
X-01846Y-012
X-01845Y-01134
X-01898Y-01133
X-01919Y-01083
X-01856Y-00986
X-0180964Y-0098464
X-01864Y-00925
X-01754Y-00906
X-01792Y-01135
X-01608Y-01118
X-0160694Y-0116636
X-01428Y-01138
X-0142952Y-0108048
X-0139Y-0104
X-01259Y-01005
Y-00949
X-01117Y-01027
Y-01089
Y-01147
X-0141417Y-0119447
T11
X-0689469Y0136132
Y0153849
T12
X-02424Y0011
X-03723Y01433
X-06408Y00067
X-0575984Y0311319
T13
X-0679626Y0131211
Y015877
T14
X-0117323Y-0119587
X-0100787
Y-0097933
X-0117323Y-0097933
T16
X-069626Y-013189
X-0660325Y-0104468
X-0444183Y-0114311
X-0445364Y0133721
X-0660325Y0118169
Y0171122
X-0445364Y016128
Y0409311
X-0629921Y0430709
X-0660325Y039376
T17
X-007874Y0409449
X-0108268
T18
X-0049213Y0409449
T19
X-0584646Y-0126181
T20
X-0591338Y-0126181
T21
X-0378346Y-0111221
Y-007185
T22
X-042436Y-009748
X-0436368Y0116614
X-042436Y0178111
X-0436368Y0392205
M30
