G04*
G04 #@! TF.GenerationSoftware,Altium Limited,Altium Designer,21.6.1 (37)*
G04*
G04 Layer_Color=128*
%FSLAX25Y25*%
%MOIN*%
G70*
G04*
G04 #@! TF.SameCoordinates,5F2E6CC5-E892-4DBC-A3D3-1DAF92D0A98F*
G04*
G04*
G04 #@! TF.FilePolarity,Positive*
G04*
G01*
G75*
%ADD24R,0.02362X0.02362*%
%ADD25R,0.02441X0.02284*%
%ADD31R,0.02441X0.02441*%
%ADD32R,0.02284X0.02441*%
%ADD37R,0.01811X0.01654*%
%ADD38R,0.01968X0.03543*%
%ADD42R,0.03543X0.03937*%
%ADD51C,0.01968*%
%ADD58O,0.03347X0.01102*%
%ADD59O,0.01102X0.03347*%
%ADD63R,0.02559X0.04134*%
%ADD64R,0.03937X0.02362*%
%ADD72R,0.06102X0.02362*%
%ADD83O,0.01181X0.03543*%
%ADD84O,0.03543X0.01181*%
%ADD106R,0.08661X0.06102*%
%ADD108R,0.09252X0.09646*%
%ADD110R,0.04528X0.10630*%
%ADD111R,0.04528X0.07087*%
%ADD112R,0.05512X0.04134*%
%ADD114R,0.03740X0.03937*%
%ADD116R,0.01772X0.01575*%
%ADD117R,0.04528X0.07087*%
%ADD119R,0.02362X0.02362*%
%ADD120R,0.01575X0.01772*%
%ADD121R,0.07087X0.04528*%
%ADD124R,0.12598X0.02756*%
%ADD125R,0.06693X0.02756*%
%ADD126R,0.02756X0.12598*%
%ADD127R,0.02756X0.06693*%
%ADD129R,0.03937X0.03740*%
%ADD133R,0.03150X0.03150*%
%ADD135R,0.04134X0.05512*%
%ADD136R,0.03150X0.03150*%
%ADD138R,0.02362X0.06102*%
%ADD144R,0.02992X0.05512*%
%ADD145R,0.07992X0.09016*%
%ADD146R,0.10630X0.04528*%
%ADD150R,0.02953X0.01968*%
%ADD151R,0.05906X0.03937*%
%ADD158R,0.05512X0.11614*%
%ADD159R,0.11614X0.05512*%
%ADD560C,0.01575*%
%ADD730R,0.11024X0.13780*%
%ADD731R,0.10827X0.03937*%
%ADD732R,0.14094X0.30000*%
%ADD737R,0.15945X0.08071*%
%ADD738R,0.01575X0.03071*%
%ADD739R,0.02854X0.00906*%
%ADD740R,0.03740X0.02165*%
%ADD741R,0.04528X0.01968*%
%ADD742R,0.02362X0.04134*%
%ADD743R,0.06299X0.09449*%
%ADD744R,0.02953X0.01772*%
%ADD745R,0.03740X0.01181*%
%ADD746R,0.12992X0.21850*%
%ADD747R,0.02913X0.10984*%
%ADD748C,0.02520*%
%ADD749R,0.10039X0.10039*%
%ADD750R,0.07284X0.13386*%
%ADD751R,0.08661X0.04134*%
%ADD752R,0.04134X0.03937*%
%ADD753R,0.06102X0.08661*%
%ADD754R,0.07087X0.20079*%
%ADD756R,0.09646X0.09252*%
%ADD757R,0.09449X0.11024*%
%ADD758P,0.05568X4X270.0*%
G36*
X-296850Y163386D02*
Y160630D01*
X-309449D01*
Y163386D01*
X-306496Y166142D01*
X-299803D01*
X-296850Y163386D01*
D02*
G37*
G36*
X-217618Y163583D02*
Y156890D01*
X-220374Y153937D01*
X-223130D01*
Y166535D01*
X-220374D01*
X-217618Y163583D01*
D02*
G37*
G36*
X-225492Y153937D02*
X-228248D01*
X-231004Y156890D01*
Y163583D01*
X-228248Y166535D01*
X-225492D01*
Y153937D01*
D02*
G37*
G36*
X-296850Y155512D02*
X-299803Y152756D01*
X-306496D01*
X-309449Y155512D01*
Y158268D01*
X-296850D01*
Y155512D01*
D02*
G37*
G36*
X-203150Y61516D02*
X-210236D01*
Y69468D01*
X-203150D01*
Y61516D01*
D02*
G37*
G36*
Y51595D02*
X-210236D01*
Y59547D01*
X-203150D01*
Y51595D01*
D02*
G37*
G36*
X-144424Y-77143D02*
X-150448D01*
Y-71120D01*
X-144424D01*
Y-77143D01*
D02*
G37*
G36*
X-230251Y-106868D02*
X-236275D01*
Y-100844D01*
X-230251D01*
Y-106868D01*
D02*
G37*
G36*
X-313932Y-110805D02*
X-319956D01*
Y-104781D01*
X-313932D01*
Y-110805D01*
D02*
G37*
D24*
X-301272Y83800D02*
D03*
X-297728D02*
D03*
X-317126Y70473D02*
D03*
X-313583D02*
D03*
X-331398Y380067D02*
D03*
X-334941D02*
D03*
X-351161Y414567D02*
D03*
X-347618D02*
D03*
X-351161Y418504D02*
D03*
X-347618D02*
D03*
X-359035Y430315D02*
D03*
X-362579D02*
D03*
X-359035Y426378D02*
D03*
X-362579D02*
D03*
X-359035Y422441D02*
D03*
X-362579D02*
D03*
X-341929Y82874D02*
D03*
X-345472D02*
D03*
X-341437Y76772D02*
D03*
X-344980D02*
D03*
X-229429Y70374D02*
D03*
X-225886D02*
D03*
X-331398Y398964D02*
D03*
X-334941D02*
D03*
X-331398Y403689D02*
D03*
X-334941Y403689D02*
D03*
X-331398Y417862D02*
D03*
X-334941D02*
D03*
X-331398Y413138D02*
D03*
X-334941Y413138D02*
D03*
X-331398Y408413D02*
D03*
X-334941D02*
D03*
X-331398Y394240D02*
D03*
X-334941D02*
D03*
X-331398Y384791D02*
D03*
X-334941Y384791D02*
D03*
X-331398Y389516D02*
D03*
X-334941Y389516D02*
D03*
X-331398Y372291D02*
D03*
X-334941D02*
D03*
X-331398Y375539D02*
D03*
X-334941D02*
D03*
X-351161Y422441D02*
D03*
X-347618D02*
D03*
X-351161Y426378D02*
D03*
X-347618D02*
D03*
X-351161Y430315D02*
D03*
X-347618D02*
D03*
X-428327Y418602D02*
D03*
X-424784D02*
D03*
X-428327Y422539D02*
D03*
X-424784D02*
D03*
D25*
X-86614Y-80236D02*
D03*
Y-83937D02*
D03*
X-104921Y-80787D02*
D03*
Y-77087D02*
D03*
Y-69902D02*
D03*
Y-73602D02*
D03*
X-226575Y-9035D02*
D03*
Y-5335D02*
D03*
Y-16319D02*
D03*
Y-12618D02*
D03*
X-229921Y4311D02*
D03*
Y610D02*
D03*
X-234744Y4409D02*
D03*
Y709D02*
D03*
X-93458Y199908D02*
D03*
Y203608D02*
D03*
Y211109D02*
D03*
Y207408D02*
D03*
X-47800Y161050D02*
D03*
Y157350D02*
D03*
X-203150Y-13406D02*
D03*
Y-17106D02*
D03*
X-96161Y-73858D02*
D03*
Y-77559D02*
D03*
X-98600Y-68750D02*
D03*
Y-65050D02*
D03*
X-221752Y-15571D02*
D03*
Y-19272D02*
D03*
X-70000Y-22401D02*
D03*
Y-18700D02*
D03*
X-101200Y-24450D02*
D03*
Y-20750D02*
D03*
D31*
X-51628Y161000D02*
D03*
X-55172D02*
D03*
X-198972Y-124600D02*
D03*
X-195428D02*
D03*
D32*
X-97323Y-85236D02*
D03*
X-93622D02*
D03*
X-191358Y-3248D02*
D03*
X-195059D02*
D03*
X-190866Y-8366D02*
D03*
X-194567D02*
D03*
X-215827Y4134D02*
D03*
X-212126D02*
D03*
X-215827Y591D02*
D03*
X-212126D02*
D03*
X-211929Y-8957D02*
D03*
X-215630D02*
D03*
X-211929Y-4232D02*
D03*
X-215630D02*
D03*
X-248406Y-7776D02*
D03*
X-244705D02*
D03*
X-248406Y-10827D02*
D03*
X-244705D02*
D03*
X-51550Y157300D02*
D03*
X-55250D02*
D03*
X-51950Y135000D02*
D03*
X-48250D02*
D03*
X-97159Y203608D02*
D03*
X-93458D02*
D03*
X-97159Y207408D02*
D03*
X-93458D02*
D03*
X-63050Y-92600D02*
D03*
X-59350D02*
D03*
X-52050D02*
D03*
X-55750D02*
D03*
X-63050Y-86700D02*
D03*
X-59350D02*
D03*
X-52050D02*
D03*
X-55750D02*
D03*
X-63050Y-80800D02*
D03*
X-59350D02*
D03*
X-52050D02*
D03*
X-55750D02*
D03*
X-63050Y-74900D02*
D03*
X-59350D02*
D03*
X-52050D02*
D03*
X-55750D02*
D03*
X-63050Y-68900D02*
D03*
X-59350D02*
D03*
X-52050D02*
D03*
X-55750D02*
D03*
X-63050Y-63000D02*
D03*
X-59350D02*
D03*
X-52050D02*
D03*
X-55750D02*
D03*
X-63050Y-57100D02*
D03*
X-59350D02*
D03*
X-52050D02*
D03*
X-55750D02*
D03*
X-63050Y-51200D02*
D03*
X-59350D02*
D03*
X-52050D02*
D03*
X-55750D02*
D03*
D37*
X-389062Y-22863D02*
D03*
X-386463D02*
D03*
X-391660D02*
D03*
X-389062D02*
D03*
X-389081Y-17881D02*
D03*
X-386482D02*
D03*
X-391679D02*
D03*
X-389081D02*
D03*
X-388901Y-33000D02*
D03*
X-386302D02*
D03*
X-388901D02*
D03*
X-391499D02*
D03*
X-389801Y-28100D02*
D03*
X-387202D02*
D03*
X-392399D02*
D03*
X-389801D02*
D03*
X-391501Y82200D02*
D03*
X-388902D02*
D03*
X-394099D02*
D03*
X-391501D02*
D03*
Y76900D02*
D03*
X-388902D02*
D03*
X-394099D02*
D03*
X-391501D02*
D03*
D38*
X-95400Y-13682D02*
D03*
Y-23918D02*
D03*
X-64400Y-12482D02*
D03*
Y-22718D02*
D03*
D42*
X-230807Y82185D02*
D03*
X-224508D02*
D03*
X-230807Y76279D02*
D03*
X-224508D02*
D03*
X-224950Y55500D02*
D03*
X-231250D02*
D03*
X-225450Y49000D02*
D03*
X-231750D02*
D03*
D51*
X-338361Y323161D02*
D03*
Y319224D02*
D03*
Y315287D02*
D03*
Y311350D02*
D03*
Y307413D02*
D03*
Y303476D02*
D03*
Y299539D02*
D03*
Y295602D02*
D03*
Y291665D02*
D03*
Y287728D02*
D03*
Y283790D02*
D03*
Y279854D02*
D03*
Y275917D02*
D03*
Y271979D02*
D03*
Y268042D02*
D03*
Y264106D02*
D03*
Y260169D02*
D03*
Y256231D02*
D03*
Y252294D02*
D03*
Y248358D02*
D03*
Y244421D02*
D03*
Y240483D02*
D03*
Y236546D02*
D03*
Y232610D02*
D03*
Y228672D02*
D03*
Y224735D02*
D03*
Y220798D02*
D03*
Y216861D02*
D03*
Y212924D02*
D03*
Y208987D02*
D03*
Y205050D02*
D03*
Y201113D02*
D03*
Y197176D02*
D03*
Y193239D02*
D03*
X-334424Y323161D02*
D03*
Y319224D02*
D03*
Y315287D02*
D03*
Y311350D02*
D03*
Y307413D02*
D03*
Y303476D02*
D03*
Y299539D02*
D03*
Y295602D02*
D03*
Y291665D02*
D03*
Y287728D02*
D03*
Y283790D02*
D03*
Y279854D02*
D03*
Y275917D02*
D03*
Y271979D02*
D03*
Y268042D02*
D03*
Y264106D02*
D03*
Y260169D02*
D03*
Y256231D02*
D03*
Y252294D02*
D03*
Y248358D02*
D03*
Y244421D02*
D03*
Y240483D02*
D03*
Y236546D02*
D03*
Y232610D02*
D03*
Y228672D02*
D03*
Y224735D02*
D03*
Y220798D02*
D03*
Y216861D02*
D03*
Y212924D02*
D03*
Y208987D02*
D03*
Y205050D02*
D03*
Y201113D02*
D03*
Y197176D02*
D03*
Y193239D02*
D03*
X-330487Y323161D02*
D03*
Y319224D02*
D03*
Y315287D02*
D03*
Y311350D02*
D03*
Y307413D02*
D03*
Y303476D02*
D03*
Y299539D02*
D03*
Y295602D02*
D03*
Y291665D02*
D03*
Y287728D02*
D03*
Y283790D02*
D03*
Y279854D02*
D03*
Y275917D02*
D03*
Y271979D02*
D03*
Y268042D02*
D03*
Y264106D02*
D03*
Y260169D02*
D03*
Y256231D02*
D03*
Y252294D02*
D03*
Y248358D02*
D03*
Y244421D02*
D03*
Y240483D02*
D03*
Y236546D02*
D03*
Y232610D02*
D03*
Y228672D02*
D03*
Y224735D02*
D03*
Y220798D02*
D03*
Y216861D02*
D03*
Y212924D02*
D03*
Y208987D02*
D03*
Y205050D02*
D03*
Y201113D02*
D03*
Y197176D02*
D03*
Y193239D02*
D03*
X-326550Y323161D02*
D03*
Y319224D02*
D03*
Y315287D02*
D03*
Y311350D02*
D03*
Y307413D02*
D03*
Y303476D02*
D03*
Y299539D02*
D03*
Y295602D02*
D03*
Y291665D02*
D03*
Y287728D02*
D03*
Y283790D02*
D03*
Y279854D02*
D03*
Y275917D02*
D03*
Y271979D02*
D03*
Y268042D02*
D03*
Y264106D02*
D03*
Y260169D02*
D03*
Y256231D02*
D03*
Y252294D02*
D03*
Y248358D02*
D03*
Y244421D02*
D03*
Y240483D02*
D03*
Y236546D02*
D03*
Y232610D02*
D03*
Y228672D02*
D03*
Y224735D02*
D03*
Y220798D02*
D03*
Y216861D02*
D03*
Y212924D02*
D03*
Y208987D02*
D03*
Y205050D02*
D03*
Y201113D02*
D03*
Y197176D02*
D03*
Y193239D02*
D03*
X-322613Y323161D02*
D03*
Y319224D02*
D03*
Y315287D02*
D03*
Y311350D02*
D03*
Y307413D02*
D03*
Y303476D02*
D03*
Y299539D02*
D03*
Y295602D02*
D03*
Y291665D02*
D03*
Y287728D02*
D03*
Y283790D02*
D03*
Y279854D02*
D03*
Y275917D02*
D03*
Y271979D02*
D03*
Y268042D02*
D03*
Y264106D02*
D03*
Y260169D02*
D03*
Y256231D02*
D03*
Y252294D02*
D03*
Y248358D02*
D03*
Y244421D02*
D03*
Y240483D02*
D03*
Y236546D02*
D03*
Y232610D02*
D03*
Y228672D02*
D03*
Y224735D02*
D03*
Y220798D02*
D03*
Y216861D02*
D03*
Y212924D02*
D03*
Y208987D02*
D03*
Y205050D02*
D03*
Y201113D02*
D03*
Y197176D02*
D03*
Y193239D02*
D03*
X-318676Y323161D02*
D03*
Y319224D02*
D03*
Y315287D02*
D03*
Y311350D02*
D03*
Y307413D02*
D03*
Y303476D02*
D03*
Y299539D02*
D03*
Y295602D02*
D03*
Y291665D02*
D03*
Y287728D02*
D03*
Y283790D02*
D03*
Y279854D02*
D03*
Y275917D02*
D03*
Y271979D02*
D03*
Y268042D02*
D03*
Y264106D02*
D03*
Y260169D02*
D03*
Y256231D02*
D03*
Y252294D02*
D03*
Y248358D02*
D03*
Y244421D02*
D03*
Y240483D02*
D03*
Y236546D02*
D03*
Y232610D02*
D03*
Y228672D02*
D03*
Y224735D02*
D03*
Y220798D02*
D03*
Y216861D02*
D03*
Y212924D02*
D03*
Y208987D02*
D03*
Y205050D02*
D03*
Y201113D02*
D03*
Y197176D02*
D03*
Y193239D02*
D03*
X-314739Y323161D02*
D03*
Y319224D02*
D03*
Y315287D02*
D03*
Y311350D02*
D03*
Y307413D02*
D03*
Y303476D02*
D03*
Y299539D02*
D03*
Y295602D02*
D03*
Y291665D02*
D03*
Y287728D02*
D03*
Y283790D02*
D03*
Y279854D02*
D03*
Y275917D02*
D03*
Y271979D02*
D03*
Y268042D02*
D03*
Y264106D02*
D03*
Y260169D02*
D03*
Y256231D02*
D03*
Y252294D02*
D03*
Y248358D02*
D03*
Y244421D02*
D03*
Y240483D02*
D03*
Y236546D02*
D03*
Y232610D02*
D03*
Y228672D02*
D03*
Y224735D02*
D03*
Y220798D02*
D03*
Y216861D02*
D03*
Y212924D02*
D03*
Y208987D02*
D03*
Y205050D02*
D03*
Y201113D02*
D03*
Y197176D02*
D03*
Y193239D02*
D03*
X-310802Y323161D02*
D03*
Y319224D02*
D03*
Y315287D02*
D03*
Y311350D02*
D03*
Y307413D02*
D03*
Y303476D02*
D03*
Y299539D02*
D03*
Y295602D02*
D03*
Y291665D02*
D03*
Y287728D02*
D03*
Y283790D02*
D03*
Y279854D02*
D03*
Y275917D02*
D03*
Y271979D02*
D03*
Y268042D02*
D03*
Y264106D02*
D03*
Y260169D02*
D03*
Y256231D02*
D03*
Y252294D02*
D03*
Y248358D02*
D03*
Y244421D02*
D03*
Y240483D02*
D03*
Y236546D02*
D03*
Y232610D02*
D03*
Y228672D02*
D03*
Y224735D02*
D03*
Y220798D02*
D03*
Y216861D02*
D03*
Y212924D02*
D03*
Y208987D02*
D03*
Y205050D02*
D03*
Y201113D02*
D03*
Y197176D02*
D03*
Y193239D02*
D03*
X-306865Y323161D02*
D03*
Y319224D02*
D03*
Y315287D02*
D03*
Y311350D02*
D03*
Y307413D02*
D03*
Y303476D02*
D03*
Y299539D02*
D03*
Y295602D02*
D03*
Y291665D02*
D03*
Y287728D02*
D03*
Y283790D02*
D03*
Y279854D02*
D03*
Y275917D02*
D03*
Y271979D02*
D03*
Y268042D02*
D03*
Y264106D02*
D03*
Y260169D02*
D03*
Y256231D02*
D03*
Y252294D02*
D03*
Y248358D02*
D03*
Y244421D02*
D03*
Y240483D02*
D03*
Y236546D02*
D03*
Y232610D02*
D03*
Y228672D02*
D03*
Y224735D02*
D03*
Y220798D02*
D03*
Y216861D02*
D03*
Y212924D02*
D03*
Y208987D02*
D03*
Y205050D02*
D03*
Y201113D02*
D03*
Y197176D02*
D03*
Y193239D02*
D03*
X-302928Y323161D02*
D03*
Y319224D02*
D03*
Y315287D02*
D03*
Y311350D02*
D03*
Y307413D02*
D03*
Y303476D02*
D03*
Y299539D02*
D03*
Y295602D02*
D03*
Y291665D02*
D03*
Y287728D02*
D03*
Y283790D02*
D03*
Y279854D02*
D03*
Y275917D02*
D03*
Y271979D02*
D03*
Y268042D02*
D03*
Y264106D02*
D03*
Y260169D02*
D03*
Y256231D02*
D03*
Y252294D02*
D03*
Y248358D02*
D03*
Y244421D02*
D03*
Y240483D02*
D03*
Y236546D02*
D03*
Y232610D02*
D03*
Y228672D02*
D03*
Y224735D02*
D03*
Y220798D02*
D03*
Y216861D02*
D03*
Y212924D02*
D03*
Y208987D02*
D03*
Y205050D02*
D03*
Y201113D02*
D03*
Y197176D02*
D03*
Y193239D02*
D03*
X-298991Y323161D02*
D03*
Y319224D02*
D03*
Y315287D02*
D03*
Y311350D02*
D03*
Y307413D02*
D03*
Y303476D02*
D03*
Y299539D02*
D03*
Y295602D02*
D03*
Y291665D02*
D03*
Y287728D02*
D03*
Y283790D02*
D03*
Y279854D02*
D03*
Y275917D02*
D03*
Y271979D02*
D03*
Y268042D02*
D03*
Y264106D02*
D03*
Y260169D02*
D03*
Y256231D02*
D03*
Y252294D02*
D03*
Y248358D02*
D03*
Y244421D02*
D03*
Y240483D02*
D03*
Y236546D02*
D03*
Y232610D02*
D03*
Y228672D02*
D03*
Y224735D02*
D03*
Y220798D02*
D03*
Y216861D02*
D03*
Y212924D02*
D03*
Y208987D02*
D03*
Y205050D02*
D03*
Y201113D02*
D03*
Y197176D02*
D03*
Y193239D02*
D03*
X-295054Y323161D02*
D03*
Y319224D02*
D03*
Y315287D02*
D03*
Y311350D02*
D03*
Y307413D02*
D03*
Y303476D02*
D03*
Y299539D02*
D03*
Y295602D02*
D03*
Y291665D02*
D03*
Y287728D02*
D03*
Y283790D02*
D03*
Y279854D02*
D03*
Y275917D02*
D03*
Y271979D02*
D03*
Y268042D02*
D03*
Y264106D02*
D03*
Y260169D02*
D03*
Y256231D02*
D03*
Y252294D02*
D03*
Y248358D02*
D03*
Y244421D02*
D03*
Y240483D02*
D03*
Y236546D02*
D03*
Y232610D02*
D03*
Y228672D02*
D03*
Y224735D02*
D03*
Y220798D02*
D03*
Y216861D02*
D03*
Y212924D02*
D03*
Y208987D02*
D03*
Y205050D02*
D03*
Y201113D02*
D03*
Y197176D02*
D03*
Y193239D02*
D03*
X-291116Y323161D02*
D03*
Y319224D02*
D03*
Y315287D02*
D03*
Y311350D02*
D03*
Y307413D02*
D03*
Y303476D02*
D03*
Y299539D02*
D03*
Y295602D02*
D03*
Y291665D02*
D03*
Y287728D02*
D03*
Y283790D02*
D03*
Y279854D02*
D03*
Y275917D02*
D03*
Y271979D02*
D03*
Y268042D02*
D03*
Y264106D02*
D03*
Y260169D02*
D03*
Y256231D02*
D03*
Y252294D02*
D03*
Y248358D02*
D03*
Y244421D02*
D03*
Y240483D02*
D03*
Y236546D02*
D03*
Y232610D02*
D03*
Y228672D02*
D03*
Y224735D02*
D03*
Y220798D02*
D03*
Y216861D02*
D03*
Y212924D02*
D03*
Y208987D02*
D03*
Y205050D02*
D03*
Y201113D02*
D03*
Y197176D02*
D03*
Y193239D02*
D03*
X-287179Y323161D02*
D03*
Y319224D02*
D03*
Y315287D02*
D03*
Y311350D02*
D03*
Y307413D02*
D03*
Y303476D02*
D03*
Y299539D02*
D03*
Y295602D02*
D03*
Y291665D02*
D03*
Y287728D02*
D03*
Y283790D02*
D03*
Y279854D02*
D03*
Y275917D02*
D03*
Y271979D02*
D03*
Y268042D02*
D03*
Y264106D02*
D03*
Y260169D02*
D03*
Y256231D02*
D03*
Y252294D02*
D03*
Y248358D02*
D03*
Y244421D02*
D03*
Y240483D02*
D03*
Y236546D02*
D03*
Y232610D02*
D03*
Y228672D02*
D03*
Y224735D02*
D03*
Y220798D02*
D03*
Y216861D02*
D03*
Y212924D02*
D03*
Y208987D02*
D03*
Y205050D02*
D03*
Y201113D02*
D03*
Y197176D02*
D03*
Y193239D02*
D03*
X-283243Y323161D02*
D03*
Y319224D02*
D03*
Y315287D02*
D03*
Y311350D02*
D03*
Y307413D02*
D03*
Y303476D02*
D03*
Y299539D02*
D03*
Y295602D02*
D03*
Y291665D02*
D03*
Y287728D02*
D03*
Y283790D02*
D03*
Y279854D02*
D03*
Y275917D02*
D03*
Y271979D02*
D03*
Y268042D02*
D03*
Y264106D02*
D03*
Y260169D02*
D03*
Y256231D02*
D03*
Y252294D02*
D03*
Y248358D02*
D03*
Y244421D02*
D03*
Y240483D02*
D03*
Y236546D02*
D03*
Y232610D02*
D03*
Y228672D02*
D03*
Y224735D02*
D03*
Y220798D02*
D03*
Y216861D02*
D03*
Y212924D02*
D03*
Y208987D02*
D03*
Y205050D02*
D03*
Y201113D02*
D03*
Y197176D02*
D03*
Y193239D02*
D03*
X-279306Y323161D02*
D03*
Y319224D02*
D03*
Y315287D02*
D03*
Y311350D02*
D03*
Y307413D02*
D03*
Y303476D02*
D03*
Y299539D02*
D03*
Y295602D02*
D03*
Y291665D02*
D03*
Y287728D02*
D03*
Y283790D02*
D03*
Y279854D02*
D03*
Y275917D02*
D03*
Y271979D02*
D03*
Y268042D02*
D03*
Y264106D02*
D03*
Y260169D02*
D03*
Y256231D02*
D03*
Y252294D02*
D03*
Y248358D02*
D03*
Y244421D02*
D03*
Y240483D02*
D03*
Y236546D02*
D03*
Y232610D02*
D03*
Y228672D02*
D03*
Y224735D02*
D03*
Y220798D02*
D03*
Y216861D02*
D03*
Y212924D02*
D03*
Y208987D02*
D03*
Y205050D02*
D03*
Y201113D02*
D03*
Y197176D02*
D03*
Y193239D02*
D03*
X-275368Y323161D02*
D03*
Y319224D02*
D03*
Y315287D02*
D03*
Y311350D02*
D03*
Y307413D02*
D03*
Y303476D02*
D03*
Y299539D02*
D03*
Y295602D02*
D03*
Y291665D02*
D03*
Y287728D02*
D03*
Y283790D02*
D03*
Y279854D02*
D03*
Y275917D02*
D03*
Y271979D02*
D03*
Y268042D02*
D03*
Y264106D02*
D03*
Y260169D02*
D03*
Y256231D02*
D03*
Y252294D02*
D03*
Y248358D02*
D03*
Y244421D02*
D03*
Y240483D02*
D03*
Y236546D02*
D03*
Y232610D02*
D03*
Y228672D02*
D03*
Y224735D02*
D03*
Y220798D02*
D03*
Y216861D02*
D03*
Y212924D02*
D03*
Y208987D02*
D03*
Y205050D02*
D03*
Y201113D02*
D03*
Y197176D02*
D03*
Y193239D02*
D03*
X-271431Y323161D02*
D03*
Y319224D02*
D03*
Y315287D02*
D03*
Y311350D02*
D03*
Y307413D02*
D03*
Y303476D02*
D03*
Y299539D02*
D03*
Y295602D02*
D03*
Y291665D02*
D03*
Y287728D02*
D03*
Y283790D02*
D03*
Y279854D02*
D03*
Y275917D02*
D03*
Y271979D02*
D03*
Y268042D02*
D03*
Y264106D02*
D03*
Y260169D02*
D03*
Y256231D02*
D03*
Y252294D02*
D03*
Y248358D02*
D03*
Y244421D02*
D03*
Y240483D02*
D03*
Y236546D02*
D03*
Y232610D02*
D03*
Y228672D02*
D03*
Y224735D02*
D03*
Y220798D02*
D03*
Y216861D02*
D03*
Y212924D02*
D03*
Y208987D02*
D03*
Y205050D02*
D03*
Y201113D02*
D03*
Y197176D02*
D03*
Y193239D02*
D03*
X-267495Y323161D02*
D03*
Y319224D02*
D03*
Y315287D02*
D03*
Y311350D02*
D03*
Y307413D02*
D03*
Y303476D02*
D03*
Y299539D02*
D03*
Y295602D02*
D03*
Y291665D02*
D03*
Y287728D02*
D03*
Y283790D02*
D03*
Y279854D02*
D03*
Y275917D02*
D03*
Y271979D02*
D03*
Y268042D02*
D03*
Y264106D02*
D03*
Y260169D02*
D03*
Y256231D02*
D03*
Y252294D02*
D03*
Y248358D02*
D03*
Y244421D02*
D03*
Y240483D02*
D03*
Y236546D02*
D03*
Y232610D02*
D03*
Y228672D02*
D03*
Y224735D02*
D03*
Y220798D02*
D03*
Y216861D02*
D03*
Y212924D02*
D03*
Y208987D02*
D03*
Y205050D02*
D03*
Y201113D02*
D03*
Y197176D02*
D03*
Y193239D02*
D03*
X-263558Y323161D02*
D03*
Y319224D02*
D03*
Y315287D02*
D03*
Y311350D02*
D03*
Y307413D02*
D03*
Y303476D02*
D03*
Y299539D02*
D03*
Y295602D02*
D03*
Y291665D02*
D03*
Y287728D02*
D03*
Y283790D02*
D03*
Y279854D02*
D03*
Y275917D02*
D03*
Y271979D02*
D03*
Y268042D02*
D03*
Y264106D02*
D03*
Y260169D02*
D03*
Y256231D02*
D03*
Y252294D02*
D03*
Y248358D02*
D03*
Y244421D02*
D03*
Y240483D02*
D03*
Y236546D02*
D03*
Y232610D02*
D03*
Y228672D02*
D03*
Y224735D02*
D03*
Y220798D02*
D03*
Y216861D02*
D03*
Y212924D02*
D03*
Y208987D02*
D03*
Y205050D02*
D03*
Y201113D02*
D03*
Y197176D02*
D03*
Y193239D02*
D03*
X-259620Y323161D02*
D03*
Y319224D02*
D03*
Y315287D02*
D03*
Y311350D02*
D03*
Y307413D02*
D03*
Y303476D02*
D03*
Y299539D02*
D03*
Y295602D02*
D03*
Y291665D02*
D03*
Y287728D02*
D03*
Y283790D02*
D03*
Y279854D02*
D03*
Y275917D02*
D03*
Y271979D02*
D03*
Y268042D02*
D03*
Y264106D02*
D03*
Y260169D02*
D03*
Y256231D02*
D03*
Y252294D02*
D03*
Y248358D02*
D03*
Y244421D02*
D03*
Y240483D02*
D03*
Y236546D02*
D03*
Y232610D02*
D03*
Y228672D02*
D03*
Y224735D02*
D03*
Y220798D02*
D03*
Y216861D02*
D03*
Y212924D02*
D03*
Y208987D02*
D03*
Y205050D02*
D03*
Y201113D02*
D03*
Y197176D02*
D03*
Y193239D02*
D03*
X-255683Y323161D02*
D03*
Y319224D02*
D03*
Y315287D02*
D03*
Y311350D02*
D03*
Y307413D02*
D03*
Y303476D02*
D03*
Y299539D02*
D03*
Y295602D02*
D03*
Y291665D02*
D03*
Y287728D02*
D03*
Y283790D02*
D03*
Y279854D02*
D03*
Y275917D02*
D03*
Y271979D02*
D03*
Y268042D02*
D03*
Y264106D02*
D03*
Y260169D02*
D03*
Y256231D02*
D03*
Y252294D02*
D03*
Y248358D02*
D03*
Y244421D02*
D03*
Y240483D02*
D03*
Y236546D02*
D03*
Y232610D02*
D03*
Y228672D02*
D03*
Y224735D02*
D03*
Y220798D02*
D03*
Y216861D02*
D03*
Y212924D02*
D03*
Y208987D02*
D03*
Y205050D02*
D03*
Y201113D02*
D03*
Y197176D02*
D03*
Y193239D02*
D03*
X-251747Y323161D02*
D03*
Y319224D02*
D03*
Y315287D02*
D03*
Y311350D02*
D03*
Y307413D02*
D03*
Y303476D02*
D03*
Y299539D02*
D03*
Y295602D02*
D03*
Y291665D02*
D03*
Y287728D02*
D03*
Y283790D02*
D03*
Y279854D02*
D03*
Y275917D02*
D03*
Y271979D02*
D03*
Y268042D02*
D03*
Y264106D02*
D03*
Y260169D02*
D03*
Y256231D02*
D03*
Y252294D02*
D03*
Y248358D02*
D03*
Y244421D02*
D03*
Y240483D02*
D03*
Y236546D02*
D03*
Y232610D02*
D03*
Y228672D02*
D03*
Y224735D02*
D03*
Y220798D02*
D03*
Y216861D02*
D03*
Y212924D02*
D03*
Y208987D02*
D03*
Y205050D02*
D03*
Y201113D02*
D03*
Y197176D02*
D03*
Y193239D02*
D03*
X-247810Y323161D02*
D03*
Y319224D02*
D03*
Y315287D02*
D03*
Y311350D02*
D03*
Y307413D02*
D03*
Y303476D02*
D03*
Y299539D02*
D03*
Y295602D02*
D03*
Y291665D02*
D03*
Y287728D02*
D03*
Y283790D02*
D03*
Y279854D02*
D03*
Y275917D02*
D03*
Y271979D02*
D03*
Y268042D02*
D03*
Y264106D02*
D03*
Y260169D02*
D03*
Y256231D02*
D03*
Y252294D02*
D03*
Y248358D02*
D03*
Y244421D02*
D03*
Y240483D02*
D03*
Y236546D02*
D03*
Y232610D02*
D03*
Y228672D02*
D03*
Y224735D02*
D03*
Y220798D02*
D03*
Y216861D02*
D03*
Y212924D02*
D03*
Y208987D02*
D03*
Y205050D02*
D03*
Y201113D02*
D03*
Y197176D02*
D03*
Y193239D02*
D03*
X-243872Y323161D02*
D03*
Y319224D02*
D03*
Y315287D02*
D03*
Y311350D02*
D03*
Y307413D02*
D03*
Y303476D02*
D03*
Y299539D02*
D03*
Y295602D02*
D03*
Y291665D02*
D03*
Y287728D02*
D03*
Y283790D02*
D03*
Y279854D02*
D03*
Y275917D02*
D03*
Y271979D02*
D03*
Y268042D02*
D03*
Y264106D02*
D03*
Y260169D02*
D03*
Y256231D02*
D03*
Y252294D02*
D03*
Y248358D02*
D03*
Y244421D02*
D03*
Y240483D02*
D03*
Y236546D02*
D03*
Y232610D02*
D03*
Y228672D02*
D03*
Y224735D02*
D03*
Y220798D02*
D03*
Y216861D02*
D03*
Y212924D02*
D03*
Y208987D02*
D03*
Y205050D02*
D03*
Y201113D02*
D03*
Y197176D02*
D03*
Y193239D02*
D03*
X-239935Y323161D02*
D03*
Y319224D02*
D03*
Y315287D02*
D03*
Y311350D02*
D03*
Y307413D02*
D03*
Y303476D02*
D03*
Y299539D02*
D03*
Y295602D02*
D03*
Y291665D02*
D03*
Y287728D02*
D03*
Y283790D02*
D03*
Y279854D02*
D03*
Y275917D02*
D03*
Y271979D02*
D03*
Y268042D02*
D03*
Y264106D02*
D03*
Y260169D02*
D03*
Y256231D02*
D03*
Y252294D02*
D03*
Y248358D02*
D03*
Y244421D02*
D03*
Y240483D02*
D03*
Y236546D02*
D03*
Y232610D02*
D03*
Y228672D02*
D03*
Y224735D02*
D03*
Y220798D02*
D03*
Y216861D02*
D03*
Y212924D02*
D03*
Y208987D02*
D03*
Y205050D02*
D03*
Y201113D02*
D03*
Y197176D02*
D03*
Y193239D02*
D03*
X-235998Y323161D02*
D03*
Y319224D02*
D03*
Y315287D02*
D03*
Y311350D02*
D03*
Y307413D02*
D03*
Y303476D02*
D03*
Y299539D02*
D03*
Y295602D02*
D03*
Y291665D02*
D03*
Y287728D02*
D03*
Y283790D02*
D03*
Y279854D02*
D03*
Y275917D02*
D03*
Y271979D02*
D03*
Y268042D02*
D03*
Y264106D02*
D03*
Y260169D02*
D03*
Y256231D02*
D03*
Y252294D02*
D03*
Y248358D02*
D03*
Y244421D02*
D03*
Y240483D02*
D03*
Y236546D02*
D03*
Y232610D02*
D03*
Y228672D02*
D03*
Y224735D02*
D03*
Y220798D02*
D03*
Y216861D02*
D03*
Y212924D02*
D03*
Y208987D02*
D03*
Y205050D02*
D03*
Y201113D02*
D03*
Y197176D02*
D03*
Y193239D02*
D03*
X-232061Y323161D02*
D03*
Y319224D02*
D03*
Y315287D02*
D03*
Y311350D02*
D03*
Y307413D02*
D03*
Y303476D02*
D03*
Y299539D02*
D03*
Y295602D02*
D03*
Y291665D02*
D03*
Y287728D02*
D03*
Y283790D02*
D03*
Y279854D02*
D03*
Y275917D02*
D03*
Y271979D02*
D03*
Y268042D02*
D03*
Y264106D02*
D03*
Y260169D02*
D03*
Y256231D02*
D03*
Y252294D02*
D03*
Y248358D02*
D03*
Y244421D02*
D03*
Y240483D02*
D03*
Y236546D02*
D03*
Y232610D02*
D03*
Y228672D02*
D03*
Y224735D02*
D03*
Y220798D02*
D03*
Y216861D02*
D03*
Y212924D02*
D03*
Y208987D02*
D03*
Y205050D02*
D03*
Y201113D02*
D03*
Y197176D02*
D03*
Y193239D02*
D03*
X-228124Y323161D02*
D03*
Y319224D02*
D03*
Y315287D02*
D03*
Y311350D02*
D03*
Y307413D02*
D03*
Y303476D02*
D03*
Y299539D02*
D03*
Y295602D02*
D03*
Y291665D02*
D03*
Y287728D02*
D03*
Y283790D02*
D03*
Y279854D02*
D03*
Y275917D02*
D03*
Y271979D02*
D03*
Y268042D02*
D03*
Y264106D02*
D03*
Y260169D02*
D03*
Y256231D02*
D03*
Y252294D02*
D03*
Y248358D02*
D03*
Y244421D02*
D03*
Y240483D02*
D03*
Y236546D02*
D03*
Y232610D02*
D03*
Y228672D02*
D03*
Y224735D02*
D03*
Y220798D02*
D03*
Y216861D02*
D03*
Y212924D02*
D03*
Y208987D02*
D03*
Y205050D02*
D03*
Y201113D02*
D03*
X-224187Y323161D02*
D03*
Y319224D02*
D03*
Y315287D02*
D03*
Y311350D02*
D03*
Y307413D02*
D03*
Y303476D02*
D03*
Y299539D02*
D03*
Y295602D02*
D03*
Y291665D02*
D03*
Y287728D02*
D03*
Y283790D02*
D03*
Y279854D02*
D03*
Y275917D02*
D03*
Y271979D02*
D03*
Y268042D02*
D03*
Y264106D02*
D03*
Y260169D02*
D03*
Y256231D02*
D03*
Y252294D02*
D03*
Y248358D02*
D03*
Y244421D02*
D03*
Y240483D02*
D03*
Y236546D02*
D03*
Y232610D02*
D03*
Y228672D02*
D03*
Y224735D02*
D03*
Y220798D02*
D03*
Y216861D02*
D03*
Y212924D02*
D03*
Y208987D02*
D03*
Y205050D02*
D03*
Y201113D02*
D03*
Y197176D02*
D03*
Y193239D02*
D03*
X-220250Y323161D02*
D03*
Y319224D02*
D03*
Y315287D02*
D03*
Y311350D02*
D03*
Y307413D02*
D03*
Y303476D02*
D03*
Y299539D02*
D03*
Y295602D02*
D03*
Y291665D02*
D03*
Y287728D02*
D03*
Y283790D02*
D03*
Y279854D02*
D03*
Y275917D02*
D03*
Y271979D02*
D03*
Y268042D02*
D03*
Y264106D02*
D03*
Y260169D02*
D03*
Y256231D02*
D03*
Y252294D02*
D03*
Y248358D02*
D03*
Y244421D02*
D03*
Y240483D02*
D03*
Y236546D02*
D03*
Y232610D02*
D03*
Y228672D02*
D03*
Y224735D02*
D03*
Y220798D02*
D03*
Y216861D02*
D03*
Y212924D02*
D03*
Y208987D02*
D03*
Y205050D02*
D03*
Y201113D02*
D03*
Y197176D02*
D03*
Y193239D02*
D03*
X-216313Y323161D02*
D03*
Y319224D02*
D03*
Y315287D02*
D03*
Y311350D02*
D03*
Y307413D02*
D03*
Y303476D02*
D03*
Y299539D02*
D03*
Y295602D02*
D03*
Y291665D02*
D03*
Y287728D02*
D03*
Y283790D02*
D03*
Y279854D02*
D03*
Y275917D02*
D03*
Y271979D02*
D03*
Y268042D02*
D03*
Y264106D02*
D03*
Y260169D02*
D03*
Y256231D02*
D03*
Y252294D02*
D03*
Y248358D02*
D03*
Y244421D02*
D03*
Y240483D02*
D03*
Y236546D02*
D03*
Y232610D02*
D03*
Y228672D02*
D03*
Y224735D02*
D03*
Y220798D02*
D03*
Y216861D02*
D03*
Y212924D02*
D03*
Y208987D02*
D03*
Y205050D02*
D03*
Y201113D02*
D03*
Y197176D02*
D03*
Y193239D02*
D03*
X-212376Y323161D02*
D03*
Y319224D02*
D03*
Y315287D02*
D03*
Y311350D02*
D03*
Y307413D02*
D03*
Y303476D02*
D03*
Y299539D02*
D03*
Y295602D02*
D03*
Y291665D02*
D03*
Y287728D02*
D03*
Y283790D02*
D03*
Y279854D02*
D03*
Y275917D02*
D03*
Y271979D02*
D03*
Y268042D02*
D03*
Y264106D02*
D03*
Y260169D02*
D03*
Y256231D02*
D03*
Y252294D02*
D03*
Y248358D02*
D03*
Y244421D02*
D03*
Y240483D02*
D03*
Y236546D02*
D03*
Y232610D02*
D03*
Y228672D02*
D03*
Y224735D02*
D03*
Y220798D02*
D03*
Y216861D02*
D03*
Y212924D02*
D03*
Y208987D02*
D03*
Y205050D02*
D03*
Y201113D02*
D03*
Y197176D02*
D03*
Y193239D02*
D03*
X-208439Y323161D02*
D03*
Y319224D02*
D03*
Y315287D02*
D03*
Y311350D02*
D03*
Y307413D02*
D03*
Y303476D02*
D03*
Y299539D02*
D03*
Y295602D02*
D03*
Y291665D02*
D03*
Y287728D02*
D03*
Y283790D02*
D03*
Y279854D02*
D03*
Y275917D02*
D03*
Y271979D02*
D03*
Y268042D02*
D03*
Y264106D02*
D03*
Y260169D02*
D03*
Y256231D02*
D03*
Y252294D02*
D03*
Y248358D02*
D03*
Y244421D02*
D03*
Y240483D02*
D03*
Y236546D02*
D03*
Y232610D02*
D03*
Y228672D02*
D03*
Y224735D02*
D03*
Y220798D02*
D03*
Y216861D02*
D03*
Y212924D02*
D03*
Y208987D02*
D03*
Y205050D02*
D03*
Y201113D02*
D03*
Y197176D02*
D03*
Y193239D02*
D03*
X-228124Y197176D02*
D03*
Y193239D02*
D03*
D58*
X-65381Y-38062D02*
D03*
Y-32156D02*
D03*
X-43924Y-32156D02*
D03*
Y-38061D02*
D03*
X-74587Y-40061D02*
D03*
Y-34156D02*
D03*
X-96044Y-34156D02*
D03*
Y-40062D02*
D03*
D59*
X-47763Y-28317D02*
D03*
X-45794D02*
D03*
X-51700Y-28317D02*
D03*
X-53668D02*
D03*
X-55637D02*
D03*
X-57605D02*
D03*
X-59574D02*
D03*
X-61542D02*
D03*
X-63511D02*
D03*
X-49731D02*
D03*
X-55637Y-41900D02*
D03*
X-53668D02*
D03*
X-51700D02*
D03*
X-49731D02*
D03*
X-47763D02*
D03*
X-45794D02*
D03*
X-57605D02*
D03*
X-59574D02*
D03*
X-61542D02*
D03*
X-63511D02*
D03*
X-94174Y-43900D02*
D03*
X-92206D02*
D03*
X-90237D02*
D03*
X-88269D02*
D03*
X-76458D02*
D03*
X-78426D02*
D03*
X-80395D02*
D03*
X-82363D02*
D03*
X-84332D02*
D03*
X-86300D02*
D03*
X-80395Y-30318D02*
D03*
X-94174D02*
D03*
X-92206D02*
D03*
X-90237D02*
D03*
X-88269D02*
D03*
X-86300D02*
D03*
X-84332D02*
D03*
X-82363D02*
D03*
X-76458Y-30317D02*
D03*
X-78426D02*
D03*
D63*
X-52060Y149255D02*
D03*
X-55800Y140200D02*
D03*
X-48320D02*
D03*
D64*
X-324043Y79960D02*
D03*
X-314988Y76220D02*
D03*
Y83700D02*
D03*
X-338157Y66536D02*
D03*
X-329102Y62795D02*
D03*
Y70276D02*
D03*
D72*
X-169830Y-130000D02*
D03*
Y-125000D02*
D03*
Y-120000D02*
D03*
Y-115000D02*
D03*
X-148570Y-130000D02*
D03*
Y-125000D02*
D03*
Y-120000D02*
D03*
Y-115000D02*
D03*
D83*
X-238184Y-111533D02*
D03*
X-236216D02*
D03*
X-234247D02*
D03*
X-232279D02*
D03*
X-230310D02*
D03*
X-228342D02*
D03*
Y-96179D02*
D03*
X-230310D02*
D03*
X-232279D02*
D03*
X-234247D02*
D03*
X-236216D02*
D03*
X-238184D02*
D03*
X-321866Y-115470D02*
D03*
X-319897D02*
D03*
X-317929D02*
D03*
X-315960D02*
D03*
X-313991D02*
D03*
X-312023D02*
D03*
Y-100116D02*
D03*
X-313991D02*
D03*
X-315960D02*
D03*
X-317929D02*
D03*
X-319897D02*
D03*
X-321866D02*
D03*
X-152358Y-81809D02*
D03*
X-150389D02*
D03*
X-148421D02*
D03*
X-146452D02*
D03*
X-144484D02*
D03*
X-142515D02*
D03*
Y-66454D02*
D03*
X-144484D02*
D03*
X-146452D02*
D03*
X-148421D02*
D03*
X-150389D02*
D03*
X-152358D02*
D03*
D84*
X-240940Y-98935D02*
D03*
Y-100903D02*
D03*
Y-102872D02*
D03*
Y-104840D02*
D03*
Y-106809D02*
D03*
Y-108777D02*
D03*
X-225586D02*
D03*
Y-106809D02*
D03*
Y-104840D02*
D03*
Y-102872D02*
D03*
Y-100903D02*
D03*
Y-98935D02*
D03*
X-324621Y-102872D02*
D03*
Y-104840D02*
D03*
Y-106809D02*
D03*
Y-108777D02*
D03*
Y-110746D02*
D03*
Y-112714D02*
D03*
X-309267D02*
D03*
Y-110746D02*
D03*
Y-108777D02*
D03*
Y-106809D02*
D03*
Y-104840D02*
D03*
Y-102872D02*
D03*
X-155113Y-69210D02*
D03*
Y-71179D02*
D03*
Y-73147D02*
D03*
Y-75116D02*
D03*
Y-77084D02*
D03*
Y-79053D02*
D03*
X-139759D02*
D03*
Y-77084D02*
D03*
Y-75116D02*
D03*
Y-73147D02*
D03*
Y-71179D02*
D03*
Y-69210D02*
D03*
D106*
X-61929Y-122000D02*
D03*
X-78071D02*
D03*
D108*
X-373228Y178150D02*
D03*
X-397638D02*
D03*
D110*
X-386713Y278543D02*
D03*
X-374902D02*
D03*
X-316043Y354823D02*
D03*
X-327854D02*
D03*
D111*
X-319094Y-127756D02*
D03*
X-330906D02*
D03*
X-298504Y56900D02*
D03*
X-286693D02*
D03*
X-298246Y66435D02*
D03*
X-286435D02*
D03*
X-207676Y43504D02*
D03*
X-195865D02*
D03*
X-207676Y34646D02*
D03*
X-195865D02*
D03*
X-207676Y25787D02*
D03*
X-195865D02*
D03*
X-168895Y-92600D02*
D03*
X-180705D02*
D03*
D112*
X-297835Y42126D02*
D03*
Y49213D02*
D03*
X-288287Y42028D02*
D03*
Y49114D02*
D03*
D114*
X-324016Y-120374D02*
D03*
X-330315D02*
D03*
X-316929Y146850D02*
D03*
X-323228D02*
D03*
X-219390Y45276D02*
D03*
X-213090D02*
D03*
X-379921Y264961D02*
D03*
X-386221D02*
D03*
X-305315Y145571D02*
D03*
X-299016D02*
D03*
X-377756Y257579D02*
D03*
X-384055Y257579D02*
D03*
X-366142Y198917D02*
D03*
X-372441D02*
D03*
X-223721Y148130D02*
D03*
X-230020D02*
D03*
X-366929Y190453D02*
D03*
X-373228D02*
D03*
X-365479Y304921D02*
D03*
X-371779D02*
D03*
X-366240Y296260D02*
D03*
X-372539D02*
D03*
X-367815Y289862D02*
D03*
X-374114D02*
D03*
X-207776Y150591D02*
D03*
X-201476Y150591D02*
D03*
X-207776Y165354D02*
D03*
X-201476Y165354D02*
D03*
X-207776Y157480D02*
D03*
X-201476Y157480D02*
D03*
D116*
X-89764Y-80709D02*
D03*
X-92520D02*
D03*
X-209055Y-689D02*
D03*
X-206299D02*
D03*
X-233366Y-3937D02*
D03*
X-230610D02*
D03*
X-171145Y242541D02*
D03*
X-173901D02*
D03*
X-171145Y245100D02*
D03*
X-173901D02*
D03*
X-175689Y224311D02*
D03*
X-172933D02*
D03*
X-175689Y221752D02*
D03*
X-172933D02*
D03*
X-151117Y247047D02*
D03*
X-153872D02*
D03*
X-151215Y249606D02*
D03*
X-153971D02*
D03*
X-156693Y229331D02*
D03*
X-153937D02*
D03*
X-156693Y226870D02*
D03*
X-153937D02*
D03*
X-178839Y262697D02*
D03*
X-181595D02*
D03*
X-178839Y265256D02*
D03*
X-181595D02*
D03*
X-179331Y232579D02*
D03*
X-182087D02*
D03*
X-179331Y235039D02*
D03*
X-182087D02*
D03*
X-178144Y250900D02*
D03*
X-180900D02*
D03*
X-400027Y208839D02*
D03*
X-402783D02*
D03*
X-177944Y256400D02*
D03*
X-180700D02*
D03*
X-400000Y206400D02*
D03*
X-402756D02*
D03*
X-155217Y267323D02*
D03*
X-157972D02*
D03*
X-155217Y269882D02*
D03*
X-157972D02*
D03*
X-150716Y257579D02*
D03*
X-153472D02*
D03*
X-388779Y218898D02*
D03*
X-391535D02*
D03*
X-153472Y260138D02*
D03*
X-150716D02*
D03*
X-388779Y216437D02*
D03*
X-391535D02*
D03*
X-388681Y196555D02*
D03*
X-391437D02*
D03*
X-388681Y199016D02*
D03*
X-391437D02*
D03*
X-386614Y193799D02*
D03*
X-389370D02*
D03*
X-386614Y191437D02*
D03*
X-389370D02*
D03*
X-378937Y213976D02*
D03*
X-381693D02*
D03*
X-378937Y211614D02*
D03*
X-381693D02*
D03*
X-390748Y238681D02*
D03*
X-393504D02*
D03*
X-390748Y236221D02*
D03*
X-393504D02*
D03*
X-155217Y239665D02*
D03*
X-157972D02*
D03*
X-92422Y-48100D02*
D03*
X-95178D02*
D03*
X-325122Y171400D02*
D03*
X-327878D02*
D03*
X-30906Y29626D02*
D03*
X-33661D02*
D03*
X-155217Y237106D02*
D03*
X-157973D02*
D03*
X-400295Y238878D02*
D03*
X-397539D02*
D03*
X-400295Y236319D02*
D03*
X-397539D02*
D03*
X-64478Y-46100D02*
D03*
X-61722D02*
D03*
X-159498Y183229D02*
D03*
X-156743D02*
D03*
X-31004Y23327D02*
D03*
X-33760D02*
D03*
X-31004Y20768D02*
D03*
X-33760D02*
D03*
X-31004Y58760D02*
D03*
X-33760D02*
D03*
X-31004Y56201D02*
D03*
X-33760D02*
D03*
X-27953Y50787D02*
D03*
X-30709D02*
D03*
X-27953Y48228D02*
D03*
X-30709D02*
D03*
X-30622Y76500D02*
D03*
X-33378D02*
D03*
X-30622Y74000D02*
D03*
X-33378D02*
D03*
X-31496Y67815D02*
D03*
X-34252D02*
D03*
X-31496Y65256D02*
D03*
X-34252D02*
D03*
X-30906Y32185D02*
D03*
X-33661D02*
D03*
X-33760Y14567D02*
D03*
X-31004D02*
D03*
X-33760Y12008D02*
D03*
X-31004D02*
D03*
X-31004Y5610D02*
D03*
X-33760D02*
D03*
X-31004Y3051D02*
D03*
X-33760D02*
D03*
X-338878Y417862D02*
D03*
X-341634D02*
D03*
X-338878Y373768D02*
D03*
X-341634D02*
D03*
X-338878Y403689D02*
D03*
X-341634D02*
D03*
X-338878Y389516D02*
D03*
X-341634D02*
D03*
X-422922Y428700D02*
D03*
X-425678D02*
D03*
Y425800D02*
D03*
X-422922D02*
D03*
X-181890Y221752D02*
D03*
X-179134D02*
D03*
X-181890Y224213D02*
D03*
X-179134D02*
D03*
X-180900Y245100D02*
D03*
X-178144D02*
D03*
X-180900Y242639D02*
D03*
X-178144D02*
D03*
X-35822Y114400D02*
D03*
X-38578D02*
D03*
X-35734Y117427D02*
D03*
X-38490D02*
D03*
D117*
X-170109Y-101900D02*
D03*
X-158691D02*
D03*
D119*
X-310400Y84072D02*
D03*
Y80528D02*
D03*
X-130807Y-89764D02*
D03*
Y-93307D02*
D03*
X-151100Y972D02*
D03*
Y-2572D02*
D03*
X-134449Y-93307D02*
D03*
Y-89764D02*
D03*
X-323900Y64828D02*
D03*
Y68372D02*
D03*
X-165300Y188528D02*
D03*
Y192072D02*
D03*
X-304035Y-126969D02*
D03*
Y-123425D02*
D03*
X-277165Y-61221D02*
D03*
Y-64764D02*
D03*
X-300394Y-123425D02*
D03*
Y-126969D02*
D03*
X-159100Y772D02*
D03*
Y-2772D02*
D03*
X-354724Y-50984D02*
D03*
Y-47441D02*
D03*
X-219882Y-122835D02*
D03*
Y-119291D02*
D03*
X-214961D02*
D03*
Y-122835D02*
D03*
X-244882Y-28543D02*
D03*
Y-32087D02*
D03*
X-237008Y-28543D02*
D03*
Y-32087D02*
D03*
X-236713Y75197D02*
D03*
Y71653D02*
D03*
X-418900Y424528D02*
D03*
Y428072D02*
D03*
D120*
X-99410Y-76673D02*
D03*
Y-73917D02*
D03*
X-199409Y-4921D02*
D03*
Y-7677D02*
D03*
X-220374Y-5906D02*
D03*
Y-3150D02*
D03*
X-223228Y-8071D02*
D03*
Y-10827D02*
D03*
X-240748Y-10728D02*
D03*
Y-7972D02*
D03*
X-100300Y-42978D02*
D03*
Y-40222D02*
D03*
X-322000Y171822D02*
D03*
Y174578D02*
D03*
X-48000Y-71878D02*
D03*
Y-69122D02*
D03*
X-63900Y-96622D02*
D03*
Y-99378D02*
D03*
X-100300Y-31478D02*
D03*
Y-28722D02*
D03*
X-103500Y-34278D02*
D03*
Y-31522D02*
D03*
X-69500Y-38578D02*
D03*
Y-35822D02*
D03*
Y-41922D02*
D03*
Y-44678D02*
D03*
X-69600Y-26822D02*
D03*
Y-29578D02*
D03*
D121*
X-306398Y41143D02*
D03*
Y52954D02*
D03*
X-350768Y393996D02*
D03*
Y382185D02*
D03*
X-315453Y52854D02*
D03*
Y41043D02*
D03*
X-145571Y-90848D02*
D03*
Y-102659D02*
D03*
X-270768Y-46457D02*
D03*
Y-34646D02*
D03*
X-231398Y-120572D02*
D03*
Y-132383D02*
D03*
X-229528Y-46260D02*
D03*
Y-34449D02*
D03*
X-135433Y28739D02*
D03*
Y16928D02*
D03*
X-144291Y28739D02*
D03*
Y16928D02*
D03*
X-153150Y28739D02*
D03*
Y16928D02*
D03*
X-162008Y28739D02*
D03*
Y16928D02*
D03*
X-188583Y17128D02*
D03*
Y28939D02*
D03*
X-170866Y17128D02*
D03*
Y28939D02*
D03*
X-179724Y28739D02*
D03*
Y16928D02*
D03*
D124*
X-303150Y162008D02*
D03*
Y156890D02*
D03*
D125*
Y164764D02*
D03*
Y154134D02*
D03*
D126*
X-226870Y160236D02*
D03*
X-221752D02*
D03*
D127*
X-229626D02*
D03*
X-218996D02*
D03*
D129*
X-304600Y-99450D02*
D03*
Y-93150D02*
D03*
X-308583Y-124114D02*
D03*
Y-130413D02*
D03*
X-134600Y-65350D02*
D03*
Y-59050D02*
D03*
X-315551Y158268D02*
D03*
Y164567D02*
D03*
X-188400Y-65550D02*
D03*
Y-59250D02*
D03*
X-152300Y-89850D02*
D03*
Y-96150D02*
D03*
X-138779Y-90453D02*
D03*
Y-96752D02*
D03*
X-220700Y-95250D02*
D03*
Y-88950D02*
D03*
X-238000Y-119650D02*
D03*
Y-125950D02*
D03*
X-224606Y-120177D02*
D03*
Y-126476D02*
D03*
X-274500Y-95750D02*
D03*
Y-89450D02*
D03*
X-146752Y283169D02*
D03*
Y276870D02*
D03*
X-139862Y283169D02*
D03*
Y276870D02*
D03*
Y292323D02*
D03*
Y298622D02*
D03*
X-167126Y283071D02*
D03*
Y276772D02*
D03*
X-153642Y283071D02*
D03*
Y276772D02*
D03*
X-266339Y162889D02*
D03*
Y156590D02*
D03*
X-160531Y283071D02*
D03*
Y276772D02*
D03*
X-146752Y292323D02*
D03*
Y298622D02*
D03*
D133*
X-652100Y423252D02*
D03*
Y429748D02*
D03*
X-159028Y-14594D02*
D03*
Y-8098D02*
D03*
X-151091Y-14657D02*
D03*
Y-8161D02*
D03*
X-277200Y-77048D02*
D03*
Y-70552D02*
D03*
X-244900Y-43848D02*
D03*
Y-37352D02*
D03*
X-237000Y-43848D02*
D03*
Y-37352D02*
D03*
D135*
X-226957Y64400D02*
D03*
X-234043D02*
D03*
X-222743Y38000D02*
D03*
X-215657D02*
D03*
X-222743Y28500D02*
D03*
X-215657D02*
D03*
Y19500D02*
D03*
X-222743D02*
D03*
X-215657Y10100D02*
D03*
X-222743D02*
D03*
D136*
X-329024Y83465D02*
D03*
X-335520D02*
D03*
X-366547Y-54134D02*
D03*
X-360051D02*
D03*
X-329528Y76575D02*
D03*
X-336024D02*
D03*
D138*
X-113858Y-79528D02*
D03*
X-118858D02*
D03*
X-123858D02*
D03*
X-128858D02*
D03*
X-113858Y-58268D02*
D03*
X-118858D02*
D03*
X-123858D02*
D03*
X-128858D02*
D03*
X-298366Y-91929D02*
D03*
X-293366D02*
D03*
X-288366D02*
D03*
X-283366D02*
D03*
X-298366Y-113189D02*
D03*
X-293366D02*
D03*
X-288366D02*
D03*
X-283366D02*
D03*
X-182165Y-60433D02*
D03*
X-177165D02*
D03*
X-172165D02*
D03*
X-167165D02*
D03*
X-182165Y-81693D02*
D03*
X-177165D02*
D03*
X-172165D02*
D03*
X-167165D02*
D03*
X-267992Y-90158D02*
D03*
X-262992D02*
D03*
X-257992D02*
D03*
X-252992D02*
D03*
X-267992Y-111417D02*
D03*
X-262992D02*
D03*
X-257992D02*
D03*
X-252992D02*
D03*
X-214685Y-87992D02*
D03*
X-209685D02*
D03*
X-204685D02*
D03*
X-199685D02*
D03*
X-214685Y-109252D02*
D03*
X-209685D02*
D03*
X-204685D02*
D03*
X-199685D02*
D03*
X-351673Y-94095D02*
D03*
X-346673D02*
D03*
X-341673D02*
D03*
X-336673D02*
D03*
X-351673Y-115354D02*
D03*
X-346673D02*
D03*
X-341673D02*
D03*
X-336673D02*
D03*
D144*
X-187400Y-130804D02*
D03*
X-177400Y-103796D02*
D03*
D145*
X-179900Y-129052D02*
D03*
X-184900Y-105548D02*
D03*
D146*
X-126200Y403648D02*
D03*
Y422152D02*
D03*
X-275372Y143696D02*
D03*
Y155507D02*
D03*
X-288779Y143696D02*
D03*
Y155507D02*
D03*
X-240551Y149114D02*
D03*
Y160925D02*
D03*
X-253937Y149213D02*
D03*
Y161024D02*
D03*
X-174114Y304528D02*
D03*
Y292717D02*
D03*
X-174705Y183760D02*
D03*
Y171949D02*
D03*
D150*
X-60712Y-113200D02*
D03*
X-55200D02*
D03*
X-40356Y-115100D02*
D03*
X-34844D02*
D03*
X-40556Y-108300D02*
D03*
X-35044D02*
D03*
X-50756Y-109900D02*
D03*
X-45244D02*
D03*
D151*
X-62600Y184431D02*
D03*
Y175769D02*
D03*
D158*
X-395866Y-5906D02*
D03*
X-105600Y-4400D02*
D03*
X-394783Y317913D02*
D03*
X-200800Y-28900D02*
D03*
D159*
X-152735Y334646D02*
D03*
X-208711Y-128937D02*
D03*
X-274000Y-128000D02*
D03*
D560*
X-271988Y417127D02*
D03*
X-275137D02*
D03*
X-278287D02*
D03*
X-290885D02*
D03*
X-294035D02*
D03*
X-297184D02*
D03*
X-271988Y413977D02*
D03*
X-275137D02*
D03*
X-278287D02*
D03*
X-290885D02*
D03*
X-294035D02*
D03*
X-297184D02*
D03*
X-271988Y410828D02*
D03*
X-275137D02*
D03*
X-278287D02*
D03*
X-290885D02*
D03*
X-294035D02*
D03*
X-297184D02*
D03*
X-271988Y407678D02*
D03*
X-275137D02*
D03*
X-278287D02*
D03*
X-290885D02*
D03*
X-294035D02*
D03*
X-297184D02*
D03*
X-271988Y404529D02*
D03*
X-275137D02*
D03*
X-278287D02*
D03*
X-290885D02*
D03*
X-294035D02*
D03*
X-297184D02*
D03*
X-271988Y401379D02*
D03*
X-275137D02*
D03*
X-278287D02*
D03*
X-290885D02*
D03*
X-294035D02*
D03*
X-297184D02*
D03*
X-271988Y398230D02*
D03*
X-275137D02*
D03*
X-278287D02*
D03*
X-290885D02*
D03*
X-294035D02*
D03*
X-297184D02*
D03*
X-271988Y395080D02*
D03*
X-275137D02*
D03*
X-278287D02*
D03*
X-290885D02*
D03*
X-294035D02*
D03*
X-297184D02*
D03*
X-271988Y391930D02*
D03*
X-275137D02*
D03*
X-278287D02*
D03*
X-290885D02*
D03*
X-294035D02*
D03*
X-297184D02*
D03*
X-271988Y388781D02*
D03*
X-275137D02*
D03*
X-278287D02*
D03*
X-290885D02*
D03*
X-294035D02*
D03*
X-297184D02*
D03*
X-271988Y385631D02*
D03*
X-275137D02*
D03*
X-278287D02*
D03*
X-290885D02*
D03*
X-294035D02*
D03*
X-297184D02*
D03*
X-271988Y382481D02*
D03*
X-275137D02*
D03*
X-278287D02*
D03*
X-290885D02*
D03*
X-294035D02*
D03*
X-297184D02*
D03*
X-271988Y379332D02*
D03*
X-275137D02*
D03*
X-278287D02*
D03*
X-290885D02*
D03*
X-294035D02*
D03*
X-297184D02*
D03*
X-143739Y417178D02*
D03*
X-146889D02*
D03*
X-150039D02*
D03*
X-162637D02*
D03*
X-165787D02*
D03*
X-168936D02*
D03*
X-143739Y414028D02*
D03*
X-146889D02*
D03*
X-150039D02*
D03*
X-162637D02*
D03*
X-165787D02*
D03*
X-168936D02*
D03*
X-143739Y410879D02*
D03*
X-146889D02*
D03*
X-150039D02*
D03*
X-162637D02*
D03*
X-165787D02*
D03*
X-168936D02*
D03*
X-143739Y407729D02*
D03*
X-146889D02*
D03*
X-150039D02*
D03*
X-162637D02*
D03*
X-165787D02*
D03*
X-168936D02*
D03*
X-143739Y404580D02*
D03*
X-146889D02*
D03*
X-150039D02*
D03*
X-162637D02*
D03*
X-165787D02*
D03*
X-168936D02*
D03*
X-143739Y401430D02*
D03*
X-146889D02*
D03*
X-150039D02*
D03*
X-162637D02*
D03*
X-165787D02*
D03*
X-168936D02*
D03*
X-143739Y398280D02*
D03*
X-146889D02*
D03*
X-150039D02*
D03*
X-162637D02*
D03*
X-165787D02*
D03*
X-168936D02*
D03*
X-143739Y395131D02*
D03*
X-146889D02*
D03*
X-150039D02*
D03*
X-162637D02*
D03*
X-165787D02*
D03*
X-168936D02*
D03*
X-143739Y391981D02*
D03*
X-146889D02*
D03*
X-150039D02*
D03*
X-162637D02*
D03*
X-165787D02*
D03*
X-168936D02*
D03*
X-143739Y388832D02*
D03*
X-146889D02*
D03*
X-150039D02*
D03*
X-162637D02*
D03*
X-165787D02*
D03*
X-168936D02*
D03*
X-143739Y385682D02*
D03*
X-146889D02*
D03*
X-150039D02*
D03*
X-162637D02*
D03*
X-165787D02*
D03*
X-168936D02*
D03*
X-143739Y382532D02*
D03*
X-146889D02*
D03*
X-150039D02*
D03*
X-162637D02*
D03*
X-165787D02*
D03*
X-168936D02*
D03*
X-143739Y379383D02*
D03*
X-146889D02*
D03*
X-150039D02*
D03*
X-162637D02*
D03*
X-165787D02*
D03*
X-168936D02*
D03*
X-186455Y417180D02*
D03*
X-189605D02*
D03*
X-192754D02*
D03*
X-205353D02*
D03*
X-208503D02*
D03*
X-211652D02*
D03*
X-186455Y414030D02*
D03*
X-189605D02*
D03*
X-192754D02*
D03*
X-205353D02*
D03*
X-208503D02*
D03*
X-211652D02*
D03*
X-186455Y410880D02*
D03*
X-189605D02*
D03*
X-192754D02*
D03*
X-205353D02*
D03*
X-208503D02*
D03*
X-211652D02*
D03*
X-186455Y407731D02*
D03*
X-189605D02*
D03*
X-192754D02*
D03*
X-205353D02*
D03*
X-208503D02*
D03*
X-211652D02*
D03*
X-186455Y404581D02*
D03*
X-189605D02*
D03*
X-192754D02*
D03*
X-205353D02*
D03*
X-208503D02*
D03*
X-211652D02*
D03*
X-186455Y401432D02*
D03*
X-189605D02*
D03*
X-192754D02*
D03*
X-205353D02*
D03*
X-208503D02*
D03*
X-211652D02*
D03*
X-186455Y398282D02*
D03*
X-189605D02*
D03*
X-192754D02*
D03*
X-205353D02*
D03*
X-208503D02*
D03*
X-211652D02*
D03*
X-186455Y395132D02*
D03*
X-189605D02*
D03*
X-192754D02*
D03*
X-205353D02*
D03*
X-208503D02*
D03*
X-211652D02*
D03*
X-186455Y391983D02*
D03*
X-189605D02*
D03*
X-192754D02*
D03*
X-205353D02*
D03*
X-208503D02*
D03*
X-211652D02*
D03*
X-186455Y388833D02*
D03*
X-189605D02*
D03*
X-192754D02*
D03*
X-205353D02*
D03*
X-208503D02*
D03*
X-211652D02*
D03*
X-186455Y385683D02*
D03*
X-189605D02*
D03*
X-192754D02*
D03*
X-205353D02*
D03*
X-208503D02*
D03*
X-211652D02*
D03*
X-186455Y382534D02*
D03*
X-189605D02*
D03*
X-192754D02*
D03*
X-205353D02*
D03*
X-208503D02*
D03*
X-211652D02*
D03*
X-186455Y379384D02*
D03*
X-189605D02*
D03*
X-192754D02*
D03*
X-205353D02*
D03*
X-208503D02*
D03*
X-211652D02*
D03*
X-229039Y417131D02*
D03*
X-232188D02*
D03*
X-235338D02*
D03*
X-247936D02*
D03*
X-251086D02*
D03*
X-254235D02*
D03*
X-229039Y413981D02*
D03*
X-232188D02*
D03*
X-235338D02*
D03*
X-247936D02*
D03*
X-251086D02*
D03*
X-254235D02*
D03*
X-229039Y410831D02*
D03*
X-232188D02*
D03*
X-235338D02*
D03*
X-247936D02*
D03*
X-251086D02*
D03*
X-254235D02*
D03*
X-229039Y407682D02*
D03*
X-232188D02*
D03*
X-235338D02*
D03*
X-247936D02*
D03*
X-251086D02*
D03*
X-254235D02*
D03*
X-229039Y404532D02*
D03*
X-232188D02*
D03*
X-235338D02*
D03*
X-247936D02*
D03*
X-251086D02*
D03*
X-254235D02*
D03*
X-229039Y401383D02*
D03*
X-232188D02*
D03*
X-235338D02*
D03*
X-247936D02*
D03*
X-251086D02*
D03*
X-254235D02*
D03*
X-229039Y398233D02*
D03*
X-232188D02*
D03*
X-235338D02*
D03*
X-247936D02*
D03*
X-251086D02*
D03*
X-254235D02*
D03*
X-229039Y395083D02*
D03*
X-232188D02*
D03*
X-235338D02*
D03*
X-247936D02*
D03*
X-251086D02*
D03*
X-254235D02*
D03*
X-229039Y391934D02*
D03*
X-232188D02*
D03*
X-235338D02*
D03*
X-247936D02*
D03*
X-251086D02*
D03*
X-254235D02*
D03*
X-229039Y388784D02*
D03*
X-232188D02*
D03*
X-235338D02*
D03*
X-247936D02*
D03*
X-251086D02*
D03*
X-254235D02*
D03*
X-229039Y385635D02*
D03*
X-232188D02*
D03*
X-235338D02*
D03*
X-247936D02*
D03*
X-251086D02*
D03*
X-254235D02*
D03*
X-229039Y382485D02*
D03*
X-232188D02*
D03*
X-235338D02*
D03*
X-247936D02*
D03*
X-251086D02*
D03*
X-254235D02*
D03*
X-229039Y379335D02*
D03*
X-232188D02*
D03*
X-235338D02*
D03*
X-247936D02*
D03*
X-251086D02*
D03*
X-254235D02*
D03*
D730*
X-269400Y-16060D02*
D03*
Y26460D02*
D03*
X-310900Y26260D02*
D03*
Y-16260D02*
D03*
D731*
X-386713Y-115157D02*
D03*
Y-107283D02*
D03*
Y-99410D02*
D03*
X-369980Y-115157D02*
D03*
Y-107283D02*
D03*
Y-99410D02*
D03*
X-386713Y-83661D02*
D03*
Y-75787D02*
D03*
Y-67913D02*
D03*
X-369980Y-83661D02*
D03*
Y-75787D02*
D03*
Y-67913D02*
D03*
X-386713Y-91535D02*
D03*
X-369980D02*
D03*
D732*
X-183492Y58366D02*
D03*
X-141405D02*
D03*
D737*
X-54653Y-35109D02*
D03*
X-85316Y-37109D02*
D03*
D738*
X-45893Y-35109D02*
D03*
X-63413Y-35109D02*
D03*
D03*
X-94076Y-37108D02*
D03*
D03*
X-76556Y-37109D02*
D03*
D739*
X-65627Y-34026D02*
D03*
X-65627Y-36191D02*
D03*
X-43678Y-34026D02*
D03*
X-43678Y-36191D02*
D03*
X-74341Y-38191D02*
D03*
X-74341Y-36026D02*
D03*
X-96290Y-38191D02*
D03*
X-96290Y-36026D02*
D03*
D740*
X-591634Y-132382D02*
D03*
Y-119980D02*
D03*
X-584350Y-132382D02*
D03*
Y-119980D02*
D03*
D741*
X-32480Y-71358D02*
D03*
Y-75098D02*
D03*
Y-78839D02*
D03*
X-42717D02*
D03*
Y-75098D02*
D03*
Y-71358D02*
D03*
X-36518Y36760D02*
D03*
Y40500D02*
D03*
Y44240D02*
D03*
X-26282D02*
D03*
Y40500D02*
D03*
Y36760D02*
D03*
D742*
X-51400Y175328D02*
D03*
X-55140Y166272D02*
D03*
X-47660D02*
D03*
D743*
X-153795Y190900D02*
D03*
D744*
X-147889Y187160D02*
D03*
Y190900D02*
D03*
Y194640D02*
D03*
X-159700D02*
D03*
Y190900D02*
D03*
Y187160D02*
D03*
D745*
X-197244Y70374D02*
D03*
Y68405D02*
D03*
Y66437D02*
D03*
Y64468D02*
D03*
Y62500D02*
D03*
Y60532D02*
D03*
Y58563D02*
D03*
Y56595D02*
D03*
Y54626D02*
D03*
Y52658D02*
D03*
Y50689D02*
D03*
X-216142D02*
D03*
Y52658D02*
D03*
Y54626D02*
D03*
Y56595D02*
D03*
Y58563D02*
D03*
Y60532D02*
D03*
Y62500D02*
D03*
Y64468D02*
D03*
Y66437D02*
D03*
Y68405D02*
D03*
Y70374D02*
D03*
D746*
X-206693Y60532D02*
D03*
D747*
X-340800Y-30412D02*
D03*
Y-46412D02*
D03*
X-335800Y-30412D02*
D03*
Y-46412D02*
D03*
X-330800Y-30412D02*
D03*
Y-46412D02*
D03*
X-325800Y-30412D02*
D03*
Y-46412D02*
D03*
X-320800Y-30412D02*
D03*
Y-46412D02*
D03*
X-315800Y-30412D02*
D03*
Y-46412D02*
D03*
X-310800Y-30412D02*
D03*
Y-46412D02*
D03*
X-305800Y-30412D02*
D03*
Y-46412D02*
D03*
X-300800Y-30412D02*
D03*
Y-46412D02*
D03*
X-295800Y-30412D02*
D03*
Y-46412D02*
D03*
D748*
X-418868Y107067D02*
D03*
Y102067D02*
D03*
Y97067D02*
D03*
Y92067D02*
D03*
Y87067D02*
D03*
Y82067D02*
D03*
Y77067D02*
D03*
Y72067D02*
D03*
Y67067D02*
D03*
Y62067D02*
D03*
Y57067D02*
D03*
Y52067D02*
D03*
Y47067D02*
D03*
Y42067D02*
D03*
Y37067D02*
D03*
Y32067D02*
D03*
Y27067D02*
D03*
Y22067D02*
D03*
Y17067D02*
D03*
Y12067D02*
D03*
Y7067D02*
D03*
Y2067D02*
D03*
Y-2933D02*
D03*
Y-7933D02*
D03*
Y-12933D02*
D03*
Y-17933D02*
D03*
Y-22933D02*
D03*
Y-27933D02*
D03*
Y-32933D02*
D03*
Y-37933D02*
D03*
Y-42933D02*
D03*
Y-47933D02*
D03*
Y-52933D02*
D03*
Y-57933D02*
D03*
Y-62933D02*
D03*
Y-67933D02*
D03*
Y-72933D02*
D03*
Y-77933D02*
D03*
Y-82933D02*
D03*
Y-87933D02*
D03*
X-413868D02*
D03*
Y-82933D02*
D03*
Y-77933D02*
D03*
Y-72933D02*
D03*
Y-67933D02*
D03*
Y-62933D02*
D03*
Y-57933D02*
D03*
Y-52933D02*
D03*
Y-47933D02*
D03*
Y-42933D02*
D03*
Y-37933D02*
D03*
Y-32933D02*
D03*
Y-27933D02*
D03*
Y-22933D02*
D03*
Y-17933D02*
D03*
Y-12933D02*
D03*
Y-7933D02*
D03*
Y-2933D02*
D03*
Y2067D02*
D03*
Y7067D02*
D03*
Y12067D02*
D03*
Y17067D02*
D03*
Y22067D02*
D03*
Y27067D02*
D03*
Y32067D02*
D03*
Y37067D02*
D03*
Y42067D02*
D03*
Y47067D02*
D03*
Y52067D02*
D03*
Y57067D02*
D03*
Y62067D02*
D03*
Y67067D02*
D03*
Y72067D02*
D03*
Y77067D02*
D03*
Y82067D02*
D03*
Y87067D02*
D03*
Y92067D02*
D03*
Y97067D02*
D03*
Y102067D02*
D03*
Y107067D02*
D03*
X-423868Y-87933D02*
D03*
Y-82933D02*
D03*
Y-77933D02*
D03*
Y-72933D02*
D03*
Y-67933D02*
D03*
Y-62933D02*
D03*
Y-57933D02*
D03*
Y-52933D02*
D03*
Y-47933D02*
D03*
Y-42933D02*
D03*
Y-37933D02*
D03*
Y-32933D02*
D03*
Y-27933D02*
D03*
Y-22933D02*
D03*
Y-17933D02*
D03*
Y-12933D02*
D03*
Y-7933D02*
D03*
Y-2933D02*
D03*
Y2067D02*
D03*
Y7067D02*
D03*
Y12067D02*
D03*
Y17067D02*
D03*
Y22067D02*
D03*
Y27067D02*
D03*
Y32067D02*
D03*
Y37067D02*
D03*
Y42067D02*
D03*
Y47067D02*
D03*
Y52067D02*
D03*
Y57067D02*
D03*
Y62067D02*
D03*
Y67067D02*
D03*
Y72067D02*
D03*
Y77067D02*
D03*
Y82067D02*
D03*
Y87067D02*
D03*
Y92067D02*
D03*
Y97067D02*
D03*
Y102067D02*
D03*
Y107067D02*
D03*
X-428868Y-87933D02*
D03*
Y-82933D02*
D03*
Y-77933D02*
D03*
Y-72933D02*
D03*
Y-67933D02*
D03*
Y-62933D02*
D03*
Y-57933D02*
D03*
Y-52933D02*
D03*
Y-47933D02*
D03*
Y-42933D02*
D03*
Y-37933D02*
D03*
Y-32933D02*
D03*
Y-27933D02*
D03*
Y-22933D02*
D03*
Y-17933D02*
D03*
Y-12933D02*
D03*
Y-7933D02*
D03*
Y-2933D02*
D03*
Y2067D02*
D03*
Y7067D02*
D03*
Y12067D02*
D03*
Y17067D02*
D03*
Y22067D02*
D03*
Y27067D02*
D03*
Y32067D02*
D03*
Y37067D02*
D03*
Y42067D02*
D03*
Y47067D02*
D03*
Y52067D02*
D03*
Y57067D02*
D03*
Y62067D02*
D03*
Y67067D02*
D03*
Y72067D02*
D03*
Y77067D02*
D03*
Y82067D02*
D03*
Y87067D02*
D03*
Y92067D02*
D03*
Y97067D02*
D03*
Y102067D02*
D03*
Y107067D02*
D03*
X-433868Y-87933D02*
D03*
Y-82933D02*
D03*
Y-77933D02*
D03*
Y-72933D02*
D03*
Y-67933D02*
D03*
Y-62933D02*
D03*
Y-57933D02*
D03*
Y-52933D02*
D03*
Y-47933D02*
D03*
Y-42933D02*
D03*
Y-37933D02*
D03*
Y-32933D02*
D03*
Y-27933D02*
D03*
Y-22933D02*
D03*
Y-17933D02*
D03*
Y-12933D02*
D03*
Y-7933D02*
D03*
Y-2933D02*
D03*
Y2067D02*
D03*
Y7067D02*
D03*
Y12067D02*
D03*
Y17067D02*
D03*
Y22067D02*
D03*
Y27067D02*
D03*
Y32067D02*
D03*
Y37067D02*
D03*
Y42067D02*
D03*
Y47067D02*
D03*
Y52067D02*
D03*
Y57067D02*
D03*
Y62067D02*
D03*
Y67067D02*
D03*
Y72067D02*
D03*
Y77067D02*
D03*
Y82067D02*
D03*
Y87067D02*
D03*
Y92067D02*
D03*
Y97067D02*
D03*
Y102067D02*
D03*
Y107067D02*
D03*
X-438868Y-87933D02*
D03*
Y-82933D02*
D03*
Y-77933D02*
D03*
Y-72933D02*
D03*
Y-67933D02*
D03*
Y-62933D02*
D03*
Y-57933D02*
D03*
Y-52933D02*
D03*
Y-47933D02*
D03*
Y-42933D02*
D03*
Y-37933D02*
D03*
Y-32933D02*
D03*
Y-27933D02*
D03*
Y-22933D02*
D03*
Y-17933D02*
D03*
Y-12933D02*
D03*
Y-7933D02*
D03*
Y-2933D02*
D03*
Y2067D02*
D03*
Y7067D02*
D03*
Y12067D02*
D03*
Y17067D02*
D03*
Y22067D02*
D03*
Y27067D02*
D03*
Y32067D02*
D03*
Y37067D02*
D03*
Y42067D02*
D03*
Y47067D02*
D03*
Y52067D02*
D03*
Y57067D02*
D03*
Y62067D02*
D03*
Y67067D02*
D03*
Y72067D02*
D03*
Y77067D02*
D03*
Y82067D02*
D03*
Y87067D02*
D03*
Y92067D02*
D03*
Y97067D02*
D03*
Y102067D02*
D03*
Y107067D02*
D03*
X-443868Y-87933D02*
D03*
Y-82933D02*
D03*
Y-77933D02*
D03*
Y-72933D02*
D03*
Y-67933D02*
D03*
Y-62933D02*
D03*
Y-57933D02*
D03*
Y-52933D02*
D03*
Y-47933D02*
D03*
Y-42933D02*
D03*
Y-37933D02*
D03*
Y-32933D02*
D03*
Y-27933D02*
D03*
Y-22933D02*
D03*
Y-17933D02*
D03*
Y-12933D02*
D03*
Y-7933D02*
D03*
Y-2933D02*
D03*
Y2067D02*
D03*
Y7067D02*
D03*
Y12067D02*
D03*
Y17067D02*
D03*
Y22067D02*
D03*
Y27067D02*
D03*
Y32067D02*
D03*
Y37067D02*
D03*
Y42067D02*
D03*
Y47067D02*
D03*
Y52067D02*
D03*
Y57067D02*
D03*
Y62067D02*
D03*
Y67067D02*
D03*
Y72067D02*
D03*
Y77067D02*
D03*
Y82067D02*
D03*
Y87067D02*
D03*
Y92067D02*
D03*
Y97067D02*
D03*
Y102067D02*
D03*
Y107067D02*
D03*
X-448868Y-87933D02*
D03*
Y-82933D02*
D03*
Y-77933D02*
D03*
Y-72933D02*
D03*
Y-67933D02*
D03*
Y-62933D02*
D03*
Y-57933D02*
D03*
Y-52933D02*
D03*
Y-47933D02*
D03*
Y-42933D02*
D03*
Y-37933D02*
D03*
Y-32933D02*
D03*
Y-27933D02*
D03*
Y-22933D02*
D03*
Y-17933D02*
D03*
Y-12933D02*
D03*
Y-7933D02*
D03*
Y-2933D02*
D03*
Y2067D02*
D03*
Y7067D02*
D03*
Y12067D02*
D03*
Y17067D02*
D03*
Y22067D02*
D03*
Y27067D02*
D03*
Y32067D02*
D03*
Y37067D02*
D03*
Y42067D02*
D03*
Y47067D02*
D03*
Y52067D02*
D03*
Y57067D02*
D03*
Y62067D02*
D03*
Y67067D02*
D03*
Y72067D02*
D03*
Y77067D02*
D03*
Y82067D02*
D03*
Y87067D02*
D03*
Y92067D02*
D03*
Y97067D02*
D03*
Y102067D02*
D03*
Y107067D02*
D03*
X-453868Y-87933D02*
D03*
Y-82933D02*
D03*
Y-77933D02*
D03*
Y-72933D02*
D03*
Y-67933D02*
D03*
Y-62933D02*
D03*
Y-57933D02*
D03*
Y-52933D02*
D03*
Y-47933D02*
D03*
Y-42933D02*
D03*
Y-37933D02*
D03*
Y-32933D02*
D03*
Y-27933D02*
D03*
Y-22933D02*
D03*
Y-17933D02*
D03*
Y-12933D02*
D03*
Y-7933D02*
D03*
Y-2933D02*
D03*
Y2067D02*
D03*
Y7067D02*
D03*
Y12067D02*
D03*
Y17067D02*
D03*
Y22067D02*
D03*
Y27067D02*
D03*
Y32067D02*
D03*
Y37067D02*
D03*
Y42067D02*
D03*
Y47067D02*
D03*
Y52067D02*
D03*
Y57067D02*
D03*
Y62067D02*
D03*
Y67067D02*
D03*
Y72067D02*
D03*
Y77067D02*
D03*
Y82067D02*
D03*
Y87067D02*
D03*
Y92067D02*
D03*
Y97067D02*
D03*
Y102067D02*
D03*
Y107067D02*
D03*
X-458868Y-87933D02*
D03*
Y-82933D02*
D03*
Y-77933D02*
D03*
Y-72933D02*
D03*
Y-67933D02*
D03*
Y-62933D02*
D03*
Y-57933D02*
D03*
Y-52933D02*
D03*
Y-47933D02*
D03*
Y-42933D02*
D03*
Y-37933D02*
D03*
Y-32933D02*
D03*
Y-27933D02*
D03*
Y-22933D02*
D03*
Y-17933D02*
D03*
Y-12933D02*
D03*
Y-7933D02*
D03*
Y-2933D02*
D03*
Y2067D02*
D03*
Y7067D02*
D03*
Y12067D02*
D03*
Y17067D02*
D03*
Y22067D02*
D03*
Y27067D02*
D03*
Y32067D02*
D03*
Y37067D02*
D03*
Y42067D02*
D03*
Y47067D02*
D03*
Y52067D02*
D03*
Y57067D02*
D03*
Y62067D02*
D03*
Y67067D02*
D03*
Y72067D02*
D03*
Y77067D02*
D03*
Y82067D02*
D03*
Y87067D02*
D03*
Y92067D02*
D03*
Y97067D02*
D03*
Y102067D02*
D03*
Y107067D02*
D03*
X-418868Y382658D02*
D03*
Y377658D02*
D03*
Y372658D02*
D03*
Y367658D02*
D03*
Y362658D02*
D03*
Y357658D02*
D03*
Y352658D02*
D03*
Y347658D02*
D03*
Y342658D02*
D03*
Y337658D02*
D03*
Y332658D02*
D03*
Y327658D02*
D03*
Y322658D02*
D03*
Y317658D02*
D03*
Y312658D02*
D03*
Y307658D02*
D03*
Y302658D02*
D03*
Y297658D02*
D03*
Y292658D02*
D03*
Y287658D02*
D03*
Y282658D02*
D03*
Y277658D02*
D03*
Y272658D02*
D03*
Y267658D02*
D03*
Y262658D02*
D03*
Y257658D02*
D03*
Y252658D02*
D03*
Y247658D02*
D03*
Y242658D02*
D03*
Y237658D02*
D03*
Y232658D02*
D03*
Y227658D02*
D03*
Y222658D02*
D03*
Y217658D02*
D03*
Y212658D02*
D03*
Y207658D02*
D03*
Y202658D02*
D03*
Y197658D02*
D03*
Y192658D02*
D03*
Y187658D02*
D03*
X-413868D02*
D03*
Y192658D02*
D03*
Y197658D02*
D03*
Y202658D02*
D03*
Y207658D02*
D03*
Y212658D02*
D03*
Y217658D02*
D03*
Y222658D02*
D03*
Y227658D02*
D03*
Y232658D02*
D03*
Y237658D02*
D03*
Y242658D02*
D03*
Y247658D02*
D03*
Y252658D02*
D03*
Y257658D02*
D03*
Y262658D02*
D03*
Y267658D02*
D03*
Y272658D02*
D03*
Y277658D02*
D03*
Y282658D02*
D03*
Y287658D02*
D03*
Y292658D02*
D03*
Y297658D02*
D03*
Y302658D02*
D03*
Y307658D02*
D03*
Y312658D02*
D03*
Y317658D02*
D03*
Y322658D02*
D03*
Y327658D02*
D03*
Y332658D02*
D03*
Y337658D02*
D03*
Y342658D02*
D03*
Y347658D02*
D03*
Y352658D02*
D03*
Y357658D02*
D03*
Y362658D02*
D03*
Y367658D02*
D03*
Y372658D02*
D03*
Y377658D02*
D03*
Y382658D02*
D03*
X-423868Y187658D02*
D03*
Y192658D02*
D03*
Y197658D02*
D03*
Y202658D02*
D03*
Y207658D02*
D03*
Y212658D02*
D03*
Y217658D02*
D03*
Y222658D02*
D03*
Y227658D02*
D03*
Y232658D02*
D03*
Y237658D02*
D03*
Y242658D02*
D03*
Y247658D02*
D03*
Y252658D02*
D03*
Y257658D02*
D03*
Y262658D02*
D03*
Y267658D02*
D03*
Y272658D02*
D03*
Y277658D02*
D03*
Y282658D02*
D03*
Y287658D02*
D03*
Y292658D02*
D03*
Y297658D02*
D03*
Y302658D02*
D03*
Y307658D02*
D03*
Y312658D02*
D03*
Y317658D02*
D03*
Y322658D02*
D03*
Y327658D02*
D03*
Y332658D02*
D03*
Y337658D02*
D03*
Y342658D02*
D03*
Y347658D02*
D03*
Y352658D02*
D03*
Y357658D02*
D03*
Y362658D02*
D03*
Y367658D02*
D03*
Y372658D02*
D03*
Y377658D02*
D03*
Y382658D02*
D03*
X-428868Y187658D02*
D03*
Y192658D02*
D03*
Y197658D02*
D03*
Y202658D02*
D03*
Y207658D02*
D03*
Y212658D02*
D03*
Y217658D02*
D03*
Y222658D02*
D03*
Y227658D02*
D03*
Y232658D02*
D03*
Y237658D02*
D03*
Y242658D02*
D03*
Y247658D02*
D03*
Y252658D02*
D03*
Y257658D02*
D03*
Y262658D02*
D03*
Y267658D02*
D03*
Y272658D02*
D03*
Y277658D02*
D03*
Y282658D02*
D03*
Y287658D02*
D03*
Y292658D02*
D03*
Y297658D02*
D03*
Y302658D02*
D03*
Y307658D02*
D03*
Y312658D02*
D03*
Y317658D02*
D03*
Y322658D02*
D03*
Y327658D02*
D03*
Y332658D02*
D03*
Y337658D02*
D03*
Y342658D02*
D03*
Y347658D02*
D03*
Y352658D02*
D03*
Y357658D02*
D03*
Y362658D02*
D03*
Y367658D02*
D03*
Y372658D02*
D03*
Y377658D02*
D03*
Y382658D02*
D03*
X-433868Y187658D02*
D03*
Y192658D02*
D03*
Y197658D02*
D03*
Y202658D02*
D03*
Y207658D02*
D03*
Y212658D02*
D03*
Y217658D02*
D03*
Y222658D02*
D03*
Y227658D02*
D03*
Y232658D02*
D03*
Y237658D02*
D03*
Y242658D02*
D03*
Y247658D02*
D03*
Y252658D02*
D03*
Y257658D02*
D03*
Y262658D02*
D03*
Y267658D02*
D03*
Y272658D02*
D03*
Y277658D02*
D03*
Y282658D02*
D03*
Y287658D02*
D03*
Y292658D02*
D03*
Y297658D02*
D03*
Y302658D02*
D03*
Y307658D02*
D03*
Y312658D02*
D03*
Y317658D02*
D03*
Y322658D02*
D03*
Y327658D02*
D03*
Y332658D02*
D03*
Y337658D02*
D03*
Y342658D02*
D03*
Y347658D02*
D03*
Y352658D02*
D03*
Y357658D02*
D03*
Y362658D02*
D03*
Y367658D02*
D03*
Y372658D02*
D03*
Y377658D02*
D03*
Y382658D02*
D03*
X-438868Y187658D02*
D03*
Y192658D02*
D03*
Y197658D02*
D03*
Y202658D02*
D03*
Y207658D02*
D03*
Y212658D02*
D03*
Y217658D02*
D03*
Y222658D02*
D03*
Y227658D02*
D03*
Y232658D02*
D03*
Y237658D02*
D03*
Y242658D02*
D03*
Y247658D02*
D03*
Y252658D02*
D03*
Y257658D02*
D03*
Y262658D02*
D03*
Y267658D02*
D03*
Y272658D02*
D03*
Y277658D02*
D03*
Y282658D02*
D03*
Y287658D02*
D03*
Y292658D02*
D03*
Y297658D02*
D03*
Y302658D02*
D03*
Y307658D02*
D03*
Y312658D02*
D03*
Y317658D02*
D03*
Y322658D02*
D03*
Y327658D02*
D03*
Y332658D02*
D03*
Y337658D02*
D03*
Y342658D02*
D03*
Y347658D02*
D03*
Y352658D02*
D03*
Y357658D02*
D03*
Y362658D02*
D03*
Y367658D02*
D03*
Y372658D02*
D03*
Y377658D02*
D03*
Y382658D02*
D03*
X-443868Y187658D02*
D03*
Y192658D02*
D03*
Y197658D02*
D03*
Y202658D02*
D03*
Y207658D02*
D03*
Y212658D02*
D03*
Y217658D02*
D03*
Y222658D02*
D03*
Y227658D02*
D03*
Y232658D02*
D03*
Y237658D02*
D03*
Y242658D02*
D03*
Y247658D02*
D03*
Y252658D02*
D03*
Y257658D02*
D03*
Y262658D02*
D03*
Y267658D02*
D03*
Y272658D02*
D03*
Y277658D02*
D03*
Y282658D02*
D03*
Y287658D02*
D03*
Y292658D02*
D03*
Y297658D02*
D03*
Y302658D02*
D03*
Y307658D02*
D03*
Y312658D02*
D03*
Y317658D02*
D03*
Y322658D02*
D03*
Y327658D02*
D03*
Y332658D02*
D03*
Y337658D02*
D03*
Y342658D02*
D03*
Y347658D02*
D03*
Y352658D02*
D03*
Y357658D02*
D03*
Y362658D02*
D03*
Y367658D02*
D03*
Y372658D02*
D03*
Y377658D02*
D03*
Y382658D02*
D03*
X-448868Y187658D02*
D03*
Y192658D02*
D03*
Y197658D02*
D03*
Y202658D02*
D03*
Y207658D02*
D03*
Y212658D02*
D03*
Y217658D02*
D03*
Y222658D02*
D03*
Y227658D02*
D03*
Y232658D02*
D03*
Y237658D02*
D03*
Y242658D02*
D03*
Y247658D02*
D03*
Y252658D02*
D03*
Y257658D02*
D03*
Y262658D02*
D03*
Y267658D02*
D03*
Y272658D02*
D03*
Y277658D02*
D03*
Y282658D02*
D03*
Y287658D02*
D03*
Y292658D02*
D03*
Y297658D02*
D03*
Y302658D02*
D03*
Y307658D02*
D03*
Y312658D02*
D03*
Y317658D02*
D03*
Y322658D02*
D03*
Y327658D02*
D03*
Y332658D02*
D03*
Y337658D02*
D03*
Y342658D02*
D03*
Y347658D02*
D03*
Y352658D02*
D03*
Y357658D02*
D03*
Y362658D02*
D03*
Y367658D02*
D03*
Y372658D02*
D03*
Y377658D02*
D03*
Y382658D02*
D03*
X-453868Y187658D02*
D03*
Y192658D02*
D03*
Y197658D02*
D03*
Y202658D02*
D03*
Y207658D02*
D03*
Y212658D02*
D03*
Y217658D02*
D03*
Y222658D02*
D03*
Y227658D02*
D03*
Y232658D02*
D03*
Y237658D02*
D03*
Y242658D02*
D03*
Y247658D02*
D03*
Y252658D02*
D03*
Y257658D02*
D03*
Y262658D02*
D03*
Y267658D02*
D03*
Y272658D02*
D03*
Y277658D02*
D03*
Y282658D02*
D03*
Y287658D02*
D03*
Y292658D02*
D03*
Y297658D02*
D03*
Y302658D02*
D03*
Y307658D02*
D03*
Y312658D02*
D03*
Y317658D02*
D03*
Y322658D02*
D03*
Y327658D02*
D03*
Y332658D02*
D03*
Y337658D02*
D03*
Y342658D02*
D03*
Y347658D02*
D03*
Y352658D02*
D03*
Y357658D02*
D03*
Y362658D02*
D03*
Y367658D02*
D03*
Y372658D02*
D03*
Y377658D02*
D03*
Y382658D02*
D03*
X-458868Y187658D02*
D03*
Y192658D02*
D03*
Y197658D02*
D03*
Y212658D02*
D03*
Y217658D02*
D03*
Y222658D02*
D03*
Y227658D02*
D03*
Y232658D02*
D03*
Y237658D02*
D03*
Y242658D02*
D03*
Y247658D02*
D03*
Y252658D02*
D03*
Y257658D02*
D03*
Y262658D02*
D03*
Y267658D02*
D03*
Y272658D02*
D03*
Y277658D02*
D03*
Y282658D02*
D03*
Y287658D02*
D03*
Y292658D02*
D03*
Y297658D02*
D03*
Y302658D02*
D03*
Y307658D02*
D03*
Y312658D02*
D03*
Y317658D02*
D03*
Y322658D02*
D03*
Y327658D02*
D03*
Y332658D02*
D03*
Y337658D02*
D03*
Y342658D02*
D03*
Y347658D02*
D03*
Y352658D02*
D03*
Y357658D02*
D03*
Y362658D02*
D03*
Y367658D02*
D03*
Y372658D02*
D03*
Y377658D02*
D03*
Y382658D02*
D03*
Y207658D02*
D03*
Y202658D02*
D03*
D749*
X-233263Y-103856D02*
D03*
X-316944Y-107793D02*
D03*
X-147436Y-74131D02*
D03*
D750*
X-222835Y-70866D02*
D03*
X-200984D02*
D03*
X-137008Y-41142D02*
D03*
X-115157D02*
D03*
X-306516Y-74803D02*
D03*
X-284665D02*
D03*
X-329417Y-75740D02*
D03*
X-351267D02*
D03*
X-181759Y-42079D02*
D03*
X-159909D02*
D03*
X-267586Y-71803D02*
D03*
X-245736D02*
D03*
D751*
X-74496Y167793D02*
D03*
Y179407D02*
D03*
X-121704Y145193D02*
D03*
Y156807D02*
D03*
X-665158Y138287D02*
D03*
Y149902D02*
D03*
X-393532Y122095D02*
D03*
Y133709D02*
D03*
X-375032D02*
D03*
Y122095D02*
D03*
X-73596Y160707D02*
D03*
Y149093D02*
D03*
X-121604Y163693D02*
D03*
Y175307D02*
D03*
D752*
X-80500Y173600D02*
D03*
X-115700Y151000D02*
D03*
X-659154Y144095D02*
D03*
X-387528Y127902D02*
D03*
X-381036D02*
D03*
X-79600Y154900D02*
D03*
X-115600Y169500D02*
D03*
D753*
X-137300Y-128171D02*
D03*
Y-112029D02*
D03*
D754*
X-374700Y415200D02*
D03*
X-411708D02*
D03*
D756*
X-157972Y294980D02*
D03*
Y319390D02*
D03*
D757*
X-331239Y50400D02*
D03*
X-356435D02*
D03*
X-276181Y42520D02*
D03*
X-250984D02*
D03*
X-276378Y61614D02*
D03*
X-251181D02*
D03*
X-331239Y31398D02*
D03*
X-356435D02*
D03*
D758*
X-51575Y-129921D02*
D03*
X-689764Y-111417D02*
D03*
M02*
