G04*
G04 #@! TF.GenerationSoftware,Altium Limited,Altium Designer,21.6.1 (37)*
G04*
G04 Layer_Color=16711935*
%FSLAX25Y25*%
%MOIN*%
G70*
G04*
G04 #@! TF.SameCoordinates,5F2E6CC5-E892-4DBC-A3D3-1DAF92D0A98F*
G04*
G04*
G04 #@! TF.FilePolarity,Negative*
G04*
G01*
G75*
%ADD163R,0.02862X0.02862*%
%ADD164R,0.02941X0.02784*%
%ADD169C,0.04437*%
%ADD171R,0.02941X0.02941*%
%ADD172R,0.02784X0.02941*%
%ADD177R,0.02311X0.02153*%
%ADD178R,0.02468X0.04043*%
%ADD182R,0.04043X0.04437*%
%ADD188R,0.07193X0.02390*%
%ADD189R,0.05224X0.02390*%
%ADD190R,0.06701X0.02390*%
%ADD191R,0.12705X0.02390*%
%ADD192R,0.05717X0.02390*%
%ADD196C,0.02468*%
%ADD201O,0.03847X0.01602*%
%ADD202O,0.01602X0.03847*%
%ADD206R,0.03059X0.04634*%
%ADD207R,0.04437X0.02862*%
%ADD215R,0.06602X0.02862*%
%ADD248R,0.09161X0.06602*%
%ADD250R,0.09752X0.10146*%
%ADD252R,0.05028X0.11130*%
%ADD253R,0.05028X0.07587*%
%ADD254R,0.06012X0.04634*%
%ADD256R,0.04240X0.04437*%
%ADD258R,0.02272X0.02075*%
%ADD259R,0.05028X0.07587*%
%ADD261R,0.02862X0.02862*%
%ADD262R,0.02075X0.02272*%
%ADD263R,0.07587X0.05028*%
%ADD266R,0.13098X0.03256*%
%ADD267R,0.07193X0.03256*%
%ADD268R,0.03256X0.13098*%
%ADD269R,0.03256X0.07193*%
%ADD271R,0.04437X0.04240*%
%ADD275R,0.03650X0.03650*%
%ADD277R,0.04634X0.06012*%
%ADD278R,0.03650X0.03650*%
%ADD280R,0.02862X0.06602*%
%ADD282C,0.07874*%
%ADD287R,0.03492X0.06012*%
%ADD288R,0.08492X0.09516*%
%ADD289R,0.11130X0.05028*%
%ADD293R,0.03453X0.02468*%
%ADD294R,0.06406X0.04437*%
%ADD301R,0.06012X0.12114*%
%ADD302R,0.12114X0.06012*%
%ADD304C,0.09161*%
G04:AMPARAMS|DCode=305|XSize=53.23mil|YSize=79.8mil|CornerRadius=21.79mil|HoleSize=0mil|Usage=FLASHONLY|Rotation=270.000|XOffset=0mil|YOffset=0mil|HoleType=Round|Shape=RoundedRectangle|*
%AMROUNDEDRECTD305*
21,1,0.05323,0.03622,0,0,270.0*
21,1,0.00965,0.07980,0,0,270.0*
1,1,0.04358,-0.01811,-0.00482*
1,1,0.04358,-0.01811,0.00482*
1,1,0.04358,0.01811,0.00482*
1,1,0.04358,0.01811,-0.00482*
%
%ADD305ROUNDEDRECTD305*%
G04:AMPARAMS|DCode=306|XSize=46.34mil|YSize=54.21mil|CornerRadius=19.04mil|HoleSize=0mil|Usage=FLASHONLY|Rotation=270.000|XOffset=0mil|YOffset=0mil|HoleType=Round|Shape=RoundedRectangle|*
%AMROUNDEDRECTD306*
21,1,0.04634,0.01614,0,0,270.0*
21,1,0.00827,0.05421,0,0,270.0*
1,1,0.03807,-0.00807,-0.00413*
1,1,0.03807,-0.00807,0.00413*
1,1,0.03807,0.00807,0.00413*
1,1,0.03807,0.00807,-0.00413*
%
%ADD306ROUNDEDRECTD306*%
%ADD307O,0.44594X0.09161*%
%ADD308C,0.04831*%
%ADD309C,0.08374*%
%ADD310C,0.20972*%
%ADD311C,0.15854*%
%ADD312C,0.02559*%
%ADD313C,0.03347*%
%ADD314C,0.06299*%
%ADD315C,0.08768*%
%ADD316C,0.07587*%
%ADD317C,0.20185*%
%ADD318C,0.13098*%
%ADD758P,0.05568X4X270.0*%
%ADD810C,0.00197*%
%ADD811R,5.82677X0.03969*%
%ADD812R,0.11524X0.14279*%
%ADD813R,0.11327X0.04437*%
%ADD814R,0.14595X0.30500*%
%ADD815R,0.08374X0.02390*%
%ADD816R,0.04043X0.02390*%
%ADD817R,0.05500X0.05500*%
%ADD818R,0.16445X0.08571*%
%ADD819R,0.02075X0.03571*%
%ADD820R,0.03354X0.01406*%
%ADD821R,0.04240X0.02665*%
%ADD822R,0.05028X0.02468*%
%ADD823R,0.02862X0.04634*%
%ADD824R,0.06799X0.09949*%
%ADD825R,0.03453X0.02272*%
%ADD826R,0.04240X0.01681*%
%ADD827R,0.13492X0.22350*%
%ADD828R,0.03413X0.11484*%
%ADD829C,0.03020*%
%ADD830R,0.10591X0.10591*%
%ADD831O,0.04095X0.01732*%
%ADD832O,0.01732X0.04095*%
%ADD833R,0.07783X0.13886*%
%ADD834R,0.09161X0.04634*%
%ADD835R,0.04634X0.04437*%
%ADD836R,0.06602X0.09161*%
%ADD837C,0.02075*%
%ADD838R,0.07587X0.20579*%
G04:AMPARAMS|DCode=839|XSize=205.79mil|YSize=205.79mil|CornerRadius=52.7mil|HoleSize=0mil|Usage=FLASHONLY|Rotation=180.000|XOffset=0mil|YOffset=0mil|HoleType=Round|Shape=RoundedRectangle|*
%AMROUNDEDRECTD839*
21,1,0.20579,0.10039,0,0,180.0*
21,1,0.10039,0.20579,0,0,180.0*
1,1,0.10539,-0.05020,0.05020*
1,1,0.10539,0.05020,0.05020*
1,1,0.10539,0.05020,-0.05020*
1,1,0.10539,-0.05020,-0.05020*
%
%ADD839ROUNDEDRECTD839*%
%ADD840R,0.10146X0.09752*%
%ADD841R,0.09949X0.11524*%
%ADD842R,0.05500X0.05500*%
G36*
X-225453Y166783D02*
X-225415Y166774D01*
X-225378Y166759D01*
X-225345Y166738D01*
X-225315Y166713D01*
X-225289Y166683D01*
X-225269Y166649D01*
X-225254Y166613D01*
X-225244Y166575D01*
X-225241Y166535D01*
Y153937D01*
X-225244Y153898D01*
X-225254Y153859D01*
X-225269Y153823D01*
X-225289Y153790D01*
X-225315Y153760D01*
X-225345Y153734D01*
X-225378Y153714D01*
X-225415Y153699D01*
X-225453Y153689D01*
X-225492Y153686D01*
X-228248D01*
X-228252Y153687D01*
X-228257Y153686D01*
X-228272Y153688D01*
X-228287Y153689D01*
X-228291Y153690D01*
X-228296Y153691D01*
X-228311Y153695D01*
X-228326Y153699D01*
X-228329Y153700D01*
X-228334Y153701D01*
X-228348Y153708D01*
X-228362Y153714D01*
X-228366Y153716D01*
X-228369Y153718D01*
X-228382Y153726D01*
X-228395Y153734D01*
X-228399Y153737D01*
X-228402Y153739D01*
X-228414Y153750D01*
X-228425Y153760D01*
X-228428Y153763D01*
X-228431Y153766D01*
X-231187Y156719D01*
X-231197Y156731D01*
X-231207Y156742D01*
X-231209Y156746D01*
X-231212Y156749D01*
X-231219Y156763D01*
X-231227Y156776D01*
X-231229Y156780D01*
X-231231Y156784D01*
X-231237Y156798D01*
X-231242Y156812D01*
X-231243Y156816D01*
X-231245Y156820D01*
X-231248Y156836D01*
X-231252Y156851D01*
X-231252Y156855D01*
X-231253Y156859D01*
X-231254Y156875D01*
X-231255Y156890D01*
Y163583D01*
X-231254Y163598D01*
X-231253Y163613D01*
X-231252Y163618D01*
X-231252Y163622D01*
X-231248Y163637D01*
X-231245Y163652D01*
X-231243Y163656D01*
X-231242Y163660D01*
X-231237Y163674D01*
X-231231Y163689D01*
X-231229Y163692D01*
X-231227Y163697D01*
X-231219Y163710D01*
X-231212Y163723D01*
X-231209Y163726D01*
X-231207Y163730D01*
X-231197Y163742D01*
X-231187Y163754D01*
X-228431Y166707D01*
X-228428Y166709D01*
X-228425Y166713D01*
X-228414Y166723D01*
X-228402Y166733D01*
X-228399Y166735D01*
X-228395Y166738D01*
X-228382Y166746D01*
X-228369Y166755D01*
X-228366Y166757D01*
X-228362Y166759D01*
X-228348Y166765D01*
X-228334Y166771D01*
X-228329Y166772D01*
X-228326Y166774D01*
X-228311Y166778D01*
X-228296Y166782D01*
X-228291Y166782D01*
X-228287Y166783D01*
X-228272Y166784D01*
X-228257Y166786D01*
X-228252Y166786D01*
X-228248Y166786D01*
X-225492D01*
X-225453Y166783D01*
D02*
G37*
G36*
X-299788Y166391D02*
X-299773Y166391D01*
X-299768Y166390D01*
X-299764Y166389D01*
X-299749Y166386D01*
X-299734Y166383D01*
X-299730Y166381D01*
X-299726Y166380D01*
X-299711Y166374D01*
X-299697Y166369D01*
X-299693Y166367D01*
X-299689Y166365D01*
X-299676Y166357D01*
X-299663Y166350D01*
X-299659Y166347D01*
X-299656Y166345D01*
X-299644Y166335D01*
X-299632Y166325D01*
X-296679Y163569D01*
X-296676Y163566D01*
X-296673Y163563D01*
X-296663Y163551D01*
X-296653Y163540D01*
X-296650Y163537D01*
X-296648Y163533D01*
X-296639Y163520D01*
X-296631Y163507D01*
X-296629Y163503D01*
X-296627Y163500D01*
X-296621Y163486D01*
X-296615Y163471D01*
X-296614Y163467D01*
X-296612Y163463D01*
X-296608Y163449D01*
X-296604Y163434D01*
X-296604Y163429D01*
X-296603Y163425D01*
X-296602Y163410D01*
X-296600Y163394D01*
X-296600Y163390D01*
X-296600Y163386D01*
Y160630D01*
X-296603Y160591D01*
X-296612Y160552D01*
X-296627Y160516D01*
X-296648Y160483D01*
X-296673Y160453D01*
X-296703Y160427D01*
X-296737Y160406D01*
X-296773Y160391D01*
X-296811Y160382D01*
X-296850Y160379D01*
X-309449D01*
X-309488Y160382D01*
X-309526Y160391D01*
X-309563Y160406D01*
X-309596Y160427D01*
X-309626Y160453D01*
X-309652Y160483D01*
X-309672Y160516D01*
X-309687Y160552D01*
X-309697Y160591D01*
X-309700Y160630D01*
Y163386D01*
X-309699Y163390D01*
X-309699Y163394D01*
X-309698Y163410D01*
X-309697Y163425D01*
X-309696Y163429D01*
X-309695Y163434D01*
X-309691Y163449D01*
X-309687Y163463D01*
X-309686Y163467D01*
X-309684Y163471D01*
X-309678Y163485D01*
X-309672Y163500D01*
X-309670Y163503D01*
X-309668Y163507D01*
X-309660Y163520D01*
X-309652Y163533D01*
X-309649Y163537D01*
X-309647Y163540D01*
X-309636Y163551D01*
X-309626Y163563D01*
X-309623Y163566D01*
X-309620Y163569D01*
X-306667Y166325D01*
X-306655Y166335D01*
X-306644Y166345D01*
X-306640Y166347D01*
X-306636Y166350D01*
X-306623Y166357D01*
X-306610Y166365D01*
X-306606Y166367D01*
X-306602Y166369D01*
X-306588Y166374D01*
X-306574Y166380D01*
X-306569Y166381D01*
X-306565Y166383D01*
X-306550Y166386D01*
X-306535Y166389D01*
X-306531Y166390D01*
X-306527Y166391D01*
X-306511Y166391D01*
X-306496Y166393D01*
X-299803D01*
X-299788Y166391D01*
D02*
G37*
G36*
X-220370Y166786D02*
X-220365Y166786D01*
X-220350Y166784D01*
X-220335Y166783D01*
X-220331Y166782D01*
X-220326Y166782D01*
X-220311Y166778D01*
X-220297Y166774D01*
X-220292Y166772D01*
X-220288Y166771D01*
X-220274Y166765D01*
X-220260Y166759D01*
X-220256Y166757D01*
X-220252Y166755D01*
X-220240Y166746D01*
X-220227Y166738D01*
X-220223Y166735D01*
X-220220Y166733D01*
X-220208Y166723D01*
X-220197Y166713D01*
X-220194Y166709D01*
X-220191Y166707D01*
X-217435Y163754D01*
X-217425Y163742D01*
X-217415Y163730D01*
X-217413Y163726D01*
X-217410Y163723D01*
X-217403Y163710D01*
X-217395Y163697D01*
X-217393Y163692D01*
X-217391Y163689D01*
X-217386Y163674D01*
X-217380Y163660D01*
X-217379Y163656D01*
X-217377Y163652D01*
X-217374Y163637D01*
X-217370Y163622D01*
X-217370Y163618D01*
X-217369Y163613D01*
X-217369Y163598D01*
X-217367Y163583D01*
Y156890D01*
X-217369Y156875D01*
X-217369Y156859D01*
X-217370Y156855D01*
X-217370Y156851D01*
X-217374Y156836D01*
X-217377Y156820D01*
X-217379Y156816D01*
X-217380Y156812D01*
X-217386Y156798D01*
X-217391Y156784D01*
X-217393Y156780D01*
X-217395Y156776D01*
X-217403Y156763D01*
X-217410Y156749D01*
X-217413Y156746D01*
X-217415Y156742D01*
X-217425Y156731D01*
X-217435Y156719D01*
X-220191Y153766D01*
X-220194Y153763D01*
X-220197Y153760D01*
X-220208Y153750D01*
X-220220Y153739D01*
X-220223Y153737D01*
X-220227Y153734D01*
X-220240Y153726D01*
X-220252Y153718D01*
X-220256Y153716D01*
X-220260Y153714D01*
X-220274Y153708D01*
X-220288Y153701D01*
X-220292Y153700D01*
X-220297Y153699D01*
X-220311Y153695D01*
X-220326Y153691D01*
X-220331Y153690D01*
X-220335Y153689D01*
X-220350Y153688D01*
X-220365Y153686D01*
X-220370Y153687D01*
X-220374Y153686D01*
X-223130D01*
X-223169Y153689D01*
X-223207Y153699D01*
X-223244Y153714D01*
X-223277Y153734D01*
X-223307Y153760D01*
X-223333Y153790D01*
X-223353Y153823D01*
X-223368Y153859D01*
X-223378Y153898D01*
X-223381Y153937D01*
Y166535D01*
X-223378Y166575D01*
X-223368Y166613D01*
X-223353Y166649D01*
X-223333Y166683D01*
X-223307Y166713D01*
X-223277Y166738D01*
X-223244Y166759D01*
X-223207Y166774D01*
X-223169Y166783D01*
X-223130Y166786D01*
X-220374D01*
X-220370Y166786D01*
D02*
G37*
G36*
X-296811Y158515D02*
X-296773Y158506D01*
X-296737Y158491D01*
X-296703Y158471D01*
X-296673Y158445D01*
X-296648Y158415D01*
X-296627Y158382D01*
X-296612Y158345D01*
X-296603Y158307D01*
X-296600Y158268D01*
Y155512D01*
X-296600Y155508D01*
X-296600Y155503D01*
X-296602Y155488D01*
X-296603Y155473D01*
X-296604Y155468D01*
X-296604Y155464D01*
X-296608Y155449D01*
X-296612Y155434D01*
X-296614Y155430D01*
X-296615Y155426D01*
X-296621Y155412D01*
X-296627Y155398D01*
X-296629Y155394D01*
X-296631Y155390D01*
X-296639Y155378D01*
X-296648Y155364D01*
X-296650Y155361D01*
X-296653Y155358D01*
X-296663Y155346D01*
X-296673Y155334D01*
X-296676Y155332D01*
X-296679Y155329D01*
X-299632Y152573D01*
X-299644Y152563D01*
X-299656Y152553D01*
X-299659Y152551D01*
X-299663Y152548D01*
X-299676Y152541D01*
X-299689Y152532D01*
X-299693Y152531D01*
X-299697Y152529D01*
X-299711Y152523D01*
X-299726Y152517D01*
X-299730Y152516D01*
X-299734Y152515D01*
X-299749Y152512D01*
X-299764Y152508D01*
X-299768Y152508D01*
X-299773Y152507D01*
X-299788Y152506D01*
X-299803Y152505D01*
X-306496D01*
X-306511Y152506D01*
X-306527Y152507D01*
X-306531Y152508D01*
X-306535Y152508D01*
X-306550Y152512D01*
X-306565Y152515D01*
X-306569Y152516D01*
X-306574Y152517D01*
X-306588Y152523D01*
X-306602Y152529D01*
X-306606Y152531D01*
X-306610Y152532D01*
X-306623Y152541D01*
X-306636Y152548D01*
X-306640Y152551D01*
X-306644Y152553D01*
X-306655Y152563D01*
X-306667Y152573D01*
X-309620Y155329D01*
X-309623Y155332D01*
X-309626Y155334D01*
X-309636Y155346D01*
X-309647Y155358D01*
X-309649Y155361D01*
X-309652Y155364D01*
X-309660Y155378D01*
X-309668Y155390D01*
X-309670Y155394D01*
X-309672Y155398D01*
X-309678Y155412D01*
X-309684Y155426D01*
X-309686Y155430D01*
X-309687Y155434D01*
X-309691Y155449D01*
X-309695Y155464D01*
X-309696Y155468D01*
X-309697Y155473D01*
X-309698Y155488D01*
X-309699Y155503D01*
X-309699Y155508D01*
X-309700Y155512D01*
Y158268D01*
X-309697Y158307D01*
X-309687Y158345D01*
X-309672Y158382D01*
X-309652Y158415D01*
X-309626Y158445D01*
X-309596Y158471D01*
X-309563Y158491D01*
X-309526Y158506D01*
X-309488Y158515D01*
X-309449Y158519D01*
X-296850D01*
X-296811Y158515D01*
D02*
G37*
G36*
X984Y-129134D02*
X-18701D01*
Y129134D01*
X984D01*
Y-129134D01*
D02*
G37*
D163*
X-301272Y83800D02*
D03*
X-297728D02*
D03*
X-317126Y70473D02*
D03*
X-313583D02*
D03*
X-331398Y380067D02*
D03*
X-334941D02*
D03*
X-351161Y414567D02*
D03*
X-347618D02*
D03*
X-351161Y418504D02*
D03*
X-347618D02*
D03*
X-359035Y430315D02*
D03*
X-362579D02*
D03*
X-359035Y426378D02*
D03*
X-362579D02*
D03*
X-359035Y422441D02*
D03*
X-362579D02*
D03*
X-341929Y82874D02*
D03*
X-345472D02*
D03*
X-341437Y76772D02*
D03*
X-344980D02*
D03*
X-229429Y70374D02*
D03*
X-225886D02*
D03*
X-331398Y398964D02*
D03*
X-334941D02*
D03*
X-331398Y403689D02*
D03*
X-334941Y403689D02*
D03*
X-331398Y417862D02*
D03*
X-334941D02*
D03*
X-331398Y413138D02*
D03*
X-334941Y413138D02*
D03*
X-331398Y408413D02*
D03*
X-334941D02*
D03*
X-331398Y394240D02*
D03*
X-334941D02*
D03*
X-331398Y384791D02*
D03*
X-334941Y384791D02*
D03*
X-331398Y389516D02*
D03*
X-334941Y389516D02*
D03*
X-331398Y372291D02*
D03*
X-334941D02*
D03*
X-331398Y375539D02*
D03*
X-334941D02*
D03*
X-351161Y422441D02*
D03*
X-347618D02*
D03*
X-351161Y426378D02*
D03*
X-347618D02*
D03*
X-351161Y430315D02*
D03*
X-347618D02*
D03*
X-428327Y418602D02*
D03*
X-424784D02*
D03*
X-428327Y422539D02*
D03*
X-424784D02*
D03*
D164*
X-86614Y-80236D02*
D03*
Y-83937D02*
D03*
X-104921Y-80787D02*
D03*
Y-77087D02*
D03*
Y-69902D02*
D03*
Y-73602D02*
D03*
X-226575Y-9035D02*
D03*
Y-5335D02*
D03*
Y-16319D02*
D03*
Y-12618D02*
D03*
X-229921Y4311D02*
D03*
Y610D02*
D03*
X-234744Y4409D02*
D03*
Y709D02*
D03*
X-93458Y199908D02*
D03*
Y203608D02*
D03*
Y211109D02*
D03*
Y207408D02*
D03*
X-47800Y161050D02*
D03*
Y157350D02*
D03*
X-203150Y-13406D02*
D03*
Y-17106D02*
D03*
X-96161Y-73858D02*
D03*
Y-77559D02*
D03*
X-98600Y-68750D02*
D03*
Y-65050D02*
D03*
X-221752Y-15571D02*
D03*
Y-19272D02*
D03*
X-70000Y-22401D02*
D03*
Y-18700D02*
D03*
X-101200Y-24450D02*
D03*
Y-20750D02*
D03*
D169*
X-32283Y225787D02*
D03*
X-38189D02*
D03*
D171*
X-51628Y161000D02*
D03*
X-55172D02*
D03*
X-198972Y-124600D02*
D03*
X-195428D02*
D03*
D172*
X-97323Y-85236D02*
D03*
X-93622D02*
D03*
X-191358Y-3248D02*
D03*
X-195059D02*
D03*
X-190866Y-8366D02*
D03*
X-194567D02*
D03*
X-215827Y4134D02*
D03*
X-212126D02*
D03*
X-215827Y591D02*
D03*
X-212126D02*
D03*
X-211929Y-8957D02*
D03*
X-215630D02*
D03*
X-211929Y-4232D02*
D03*
X-215630D02*
D03*
X-248406Y-7776D02*
D03*
X-244705D02*
D03*
X-248406Y-10827D02*
D03*
X-244705D02*
D03*
X-51550Y157300D02*
D03*
X-55250D02*
D03*
X-51950Y135000D02*
D03*
X-48250D02*
D03*
X-97159Y203608D02*
D03*
X-93458D02*
D03*
X-97159Y207408D02*
D03*
X-93458D02*
D03*
X-63050Y-92600D02*
D03*
X-59350D02*
D03*
X-52050D02*
D03*
X-55750D02*
D03*
X-63050Y-86700D02*
D03*
X-59350D02*
D03*
X-52050D02*
D03*
X-55750D02*
D03*
X-63050Y-80800D02*
D03*
X-59350D02*
D03*
X-52050D02*
D03*
X-55750D02*
D03*
X-63050Y-74900D02*
D03*
X-59350D02*
D03*
X-52050D02*
D03*
X-55750D02*
D03*
X-63050Y-68900D02*
D03*
X-59350D02*
D03*
X-52050D02*
D03*
X-55750D02*
D03*
X-63050Y-63000D02*
D03*
X-59350D02*
D03*
X-52050D02*
D03*
X-55750D02*
D03*
X-63050Y-57100D02*
D03*
X-59350D02*
D03*
X-52050D02*
D03*
X-55750D02*
D03*
X-63050Y-51200D02*
D03*
X-59350D02*
D03*
X-52050D02*
D03*
X-55750D02*
D03*
D177*
X-389062Y-22863D02*
D03*
X-386463D02*
D03*
X-391660D02*
D03*
X-389062D02*
D03*
X-389081Y-17881D02*
D03*
X-386482D02*
D03*
X-391679D02*
D03*
X-389081D02*
D03*
X-388901Y-33000D02*
D03*
X-386302D02*
D03*
X-388901D02*
D03*
X-391499D02*
D03*
X-389801Y-28100D02*
D03*
X-387202D02*
D03*
X-392399D02*
D03*
X-389801D02*
D03*
X-391501Y82200D02*
D03*
X-388902D02*
D03*
X-394099D02*
D03*
X-391501D02*
D03*
Y76900D02*
D03*
X-388902D02*
D03*
X-394099D02*
D03*
X-391501D02*
D03*
D178*
X-95400Y-13682D02*
D03*
Y-23918D02*
D03*
X-64400Y-12482D02*
D03*
Y-22718D02*
D03*
D182*
X-230807Y82185D02*
D03*
X-224508D02*
D03*
X-230807Y76279D02*
D03*
X-224508D02*
D03*
X-224950Y55500D02*
D03*
X-231250D02*
D03*
X-225450Y49000D02*
D03*
X-231750D02*
D03*
D188*
X-6102Y94488D02*
D03*
Y29528D02*
D03*
Y59055D02*
D03*
Y112205D02*
D03*
Y103347D02*
D03*
Y50197D02*
D03*
Y73819D02*
D03*
Y32480D02*
D03*
Y100394D02*
D03*
Y109252D02*
D03*
Y76772D02*
D03*
Y67913D02*
D03*
Y47244D02*
D03*
Y64961D02*
D03*
Y56102D02*
D03*
Y91535D02*
D03*
Y-41339D02*
D03*
Y2953D02*
D03*
Y-94488D02*
D03*
Y14764D02*
D03*
Y-29528D02*
D03*
Y23622D02*
D03*
Y-14764D02*
D03*
Y-32480D02*
D03*
Y-85630D02*
D03*
Y20669D02*
D03*
Y-20669D02*
D03*
Y11811D02*
D03*
Y-23622D02*
D03*
Y5906D02*
D03*
Y-59055D02*
D03*
Y-67913D02*
D03*
Y-64961D02*
D03*
Y-56102D02*
D03*
Y-91535D02*
D03*
Y-11811D02*
D03*
Y-82677D02*
D03*
Y-38386D02*
D03*
D189*
X-12598Y59055D02*
D03*
Y14764D02*
D03*
Y-11811D02*
D03*
Y112205D02*
D03*
Y56102D02*
D03*
Y109252D02*
D03*
Y11811D02*
D03*
Y-59055D02*
D03*
Y-32480D02*
D03*
Y103347D02*
D03*
Y-56102D02*
D03*
Y-29528D02*
D03*
Y-14764D02*
D03*
Y100394D02*
D03*
Y94488D02*
D03*
Y91535D02*
D03*
Y76772D02*
D03*
Y73819D02*
D03*
Y67913D02*
D03*
Y64961D02*
D03*
Y50197D02*
D03*
Y47244D02*
D03*
Y32480D02*
D03*
Y29528D02*
D03*
Y23622D02*
D03*
Y20669D02*
D03*
Y5906D02*
D03*
Y2953D02*
D03*
Y-20669D02*
D03*
Y-23622D02*
D03*
Y-38386D02*
D03*
Y-41339D02*
D03*
Y-64961D02*
D03*
Y-67913D02*
D03*
Y-82677D02*
D03*
Y-85630D02*
D03*
Y-91535D02*
D03*
Y-94488D02*
D03*
D190*
X-11860Y38386D02*
D03*
Y-76772D02*
D03*
Y-112205D02*
D03*
Y-103347D02*
D03*
Y82677D02*
D03*
Y-5906D02*
D03*
Y-50197D02*
D03*
Y-109252D02*
D03*
D191*
X-8858Y35433D02*
D03*
Y115157D02*
D03*
Y44291D02*
D03*
Y79724D02*
D03*
Y106299D02*
D03*
Y124016D02*
D03*
Y85630D02*
D03*
Y62008D02*
D03*
Y97441D02*
D03*
Y70866D02*
D03*
Y53150D02*
D03*
Y121063D02*
D03*
Y88583D02*
D03*
Y41339D02*
D03*
Y-17717D02*
D03*
Y17717D02*
D03*
Y-106299D02*
D03*
Y-124016D02*
D03*
Y26575D02*
D03*
Y-35433D02*
D03*
Y-2953D02*
D03*
Y-62008D02*
D03*
Y-121063D02*
D03*
Y-88583D02*
D03*
Y8858D02*
D03*
Y-100394D02*
D03*
Y-53150D02*
D03*
Y-8858D02*
D03*
Y-47244D02*
D03*
Y-44291D02*
D03*
Y-26575D02*
D03*
Y-97441D02*
D03*
Y-70866D02*
D03*
Y-115157D02*
D03*
Y-73819D02*
D03*
Y0D02*
D03*
Y-79724D02*
D03*
D192*
X-5364Y38386D02*
D03*
Y82677D02*
D03*
Y-76772D02*
D03*
Y-103347D02*
D03*
Y-5906D02*
D03*
Y-109252D02*
D03*
Y-50197D02*
D03*
Y-112205D02*
D03*
D196*
X-338361Y323161D02*
D03*
Y319224D02*
D03*
Y315287D02*
D03*
Y311350D02*
D03*
Y307413D02*
D03*
Y303476D02*
D03*
Y299539D02*
D03*
Y295602D02*
D03*
Y291665D02*
D03*
Y287728D02*
D03*
Y283790D02*
D03*
Y279854D02*
D03*
Y275917D02*
D03*
Y271979D02*
D03*
Y268042D02*
D03*
Y264106D02*
D03*
Y260169D02*
D03*
Y256231D02*
D03*
Y252294D02*
D03*
Y248358D02*
D03*
Y244421D02*
D03*
Y240483D02*
D03*
Y236546D02*
D03*
Y232610D02*
D03*
Y228672D02*
D03*
Y224735D02*
D03*
Y220798D02*
D03*
Y216861D02*
D03*
Y212924D02*
D03*
Y208987D02*
D03*
Y205050D02*
D03*
Y201113D02*
D03*
Y197176D02*
D03*
Y193239D02*
D03*
X-334424Y323161D02*
D03*
Y319224D02*
D03*
Y315287D02*
D03*
Y311350D02*
D03*
Y307413D02*
D03*
Y303476D02*
D03*
Y299539D02*
D03*
Y295602D02*
D03*
Y291665D02*
D03*
Y287728D02*
D03*
Y283790D02*
D03*
Y279854D02*
D03*
Y275917D02*
D03*
Y271979D02*
D03*
Y268042D02*
D03*
Y264106D02*
D03*
Y260169D02*
D03*
Y256231D02*
D03*
Y252294D02*
D03*
Y248358D02*
D03*
Y244421D02*
D03*
Y240483D02*
D03*
Y236546D02*
D03*
Y232610D02*
D03*
Y228672D02*
D03*
Y224735D02*
D03*
Y220798D02*
D03*
Y216861D02*
D03*
Y212924D02*
D03*
Y208987D02*
D03*
Y205050D02*
D03*
Y201113D02*
D03*
Y197176D02*
D03*
Y193239D02*
D03*
X-330487Y323161D02*
D03*
Y319224D02*
D03*
Y315287D02*
D03*
Y311350D02*
D03*
Y307413D02*
D03*
Y303476D02*
D03*
Y299539D02*
D03*
Y295602D02*
D03*
Y291665D02*
D03*
Y287728D02*
D03*
Y283790D02*
D03*
Y279854D02*
D03*
Y275917D02*
D03*
Y271979D02*
D03*
Y268042D02*
D03*
Y264106D02*
D03*
Y260169D02*
D03*
Y256231D02*
D03*
Y252294D02*
D03*
Y248358D02*
D03*
Y244421D02*
D03*
Y240483D02*
D03*
Y236546D02*
D03*
Y232610D02*
D03*
Y228672D02*
D03*
Y224735D02*
D03*
Y220798D02*
D03*
Y216861D02*
D03*
Y212924D02*
D03*
Y208987D02*
D03*
Y205050D02*
D03*
Y201113D02*
D03*
Y197176D02*
D03*
Y193239D02*
D03*
X-326550Y323161D02*
D03*
Y319224D02*
D03*
Y315287D02*
D03*
Y311350D02*
D03*
Y307413D02*
D03*
Y303476D02*
D03*
Y299539D02*
D03*
Y295602D02*
D03*
Y291665D02*
D03*
Y287728D02*
D03*
Y283790D02*
D03*
Y279854D02*
D03*
Y275917D02*
D03*
Y271979D02*
D03*
Y268042D02*
D03*
Y264106D02*
D03*
Y260169D02*
D03*
Y256231D02*
D03*
Y252294D02*
D03*
Y248358D02*
D03*
Y244421D02*
D03*
Y240483D02*
D03*
Y236546D02*
D03*
Y232610D02*
D03*
Y228672D02*
D03*
Y224735D02*
D03*
Y220798D02*
D03*
Y216861D02*
D03*
Y212924D02*
D03*
Y208987D02*
D03*
Y205050D02*
D03*
Y201113D02*
D03*
Y197176D02*
D03*
Y193239D02*
D03*
X-322613Y323161D02*
D03*
Y319224D02*
D03*
Y315287D02*
D03*
Y311350D02*
D03*
Y307413D02*
D03*
Y303476D02*
D03*
Y299539D02*
D03*
Y295602D02*
D03*
Y291665D02*
D03*
Y287728D02*
D03*
Y283790D02*
D03*
Y279854D02*
D03*
Y275917D02*
D03*
Y271979D02*
D03*
Y268042D02*
D03*
Y264106D02*
D03*
Y260169D02*
D03*
Y256231D02*
D03*
Y252294D02*
D03*
Y248358D02*
D03*
Y244421D02*
D03*
Y240483D02*
D03*
Y236546D02*
D03*
Y232610D02*
D03*
Y228672D02*
D03*
Y224735D02*
D03*
Y220798D02*
D03*
Y216861D02*
D03*
Y212924D02*
D03*
Y208987D02*
D03*
Y205050D02*
D03*
Y201113D02*
D03*
Y197176D02*
D03*
Y193239D02*
D03*
X-318676Y323161D02*
D03*
Y319224D02*
D03*
Y315287D02*
D03*
Y311350D02*
D03*
Y307413D02*
D03*
Y303476D02*
D03*
Y299539D02*
D03*
Y295602D02*
D03*
Y291665D02*
D03*
Y287728D02*
D03*
Y283790D02*
D03*
Y279854D02*
D03*
Y275917D02*
D03*
Y271979D02*
D03*
Y268042D02*
D03*
Y264106D02*
D03*
Y260169D02*
D03*
Y256231D02*
D03*
Y252294D02*
D03*
Y248358D02*
D03*
Y244421D02*
D03*
Y240483D02*
D03*
Y236546D02*
D03*
Y232610D02*
D03*
Y228672D02*
D03*
Y224735D02*
D03*
Y220798D02*
D03*
Y216861D02*
D03*
Y212924D02*
D03*
Y208987D02*
D03*
Y205050D02*
D03*
Y201113D02*
D03*
Y197176D02*
D03*
Y193239D02*
D03*
X-314739Y323161D02*
D03*
Y319224D02*
D03*
Y315287D02*
D03*
Y311350D02*
D03*
Y307413D02*
D03*
Y303476D02*
D03*
Y299539D02*
D03*
Y295602D02*
D03*
Y291665D02*
D03*
Y287728D02*
D03*
Y283790D02*
D03*
Y279854D02*
D03*
Y275917D02*
D03*
Y271979D02*
D03*
Y268042D02*
D03*
Y264106D02*
D03*
Y260169D02*
D03*
Y256231D02*
D03*
Y252294D02*
D03*
Y248358D02*
D03*
Y244421D02*
D03*
Y240483D02*
D03*
Y236546D02*
D03*
Y232610D02*
D03*
Y228672D02*
D03*
Y224735D02*
D03*
Y220798D02*
D03*
Y216861D02*
D03*
Y212924D02*
D03*
Y208987D02*
D03*
Y205050D02*
D03*
Y201113D02*
D03*
Y197176D02*
D03*
Y193239D02*
D03*
X-310802Y323161D02*
D03*
Y319224D02*
D03*
Y315287D02*
D03*
Y311350D02*
D03*
Y307413D02*
D03*
Y303476D02*
D03*
Y299539D02*
D03*
Y295602D02*
D03*
Y291665D02*
D03*
Y287728D02*
D03*
Y283790D02*
D03*
Y279854D02*
D03*
Y275917D02*
D03*
Y271979D02*
D03*
Y268042D02*
D03*
Y264106D02*
D03*
Y260169D02*
D03*
Y256231D02*
D03*
Y252294D02*
D03*
Y248358D02*
D03*
Y244421D02*
D03*
Y240483D02*
D03*
Y236546D02*
D03*
Y232610D02*
D03*
Y228672D02*
D03*
Y224735D02*
D03*
Y220798D02*
D03*
Y216861D02*
D03*
Y212924D02*
D03*
Y208987D02*
D03*
Y205050D02*
D03*
Y201113D02*
D03*
Y197176D02*
D03*
Y193239D02*
D03*
X-306865Y323161D02*
D03*
Y319224D02*
D03*
Y315287D02*
D03*
Y311350D02*
D03*
Y307413D02*
D03*
Y303476D02*
D03*
Y299539D02*
D03*
Y295602D02*
D03*
Y291665D02*
D03*
Y287728D02*
D03*
Y283790D02*
D03*
Y279854D02*
D03*
Y275917D02*
D03*
Y271979D02*
D03*
Y268042D02*
D03*
Y264106D02*
D03*
Y260169D02*
D03*
Y256231D02*
D03*
Y252294D02*
D03*
Y248358D02*
D03*
Y244421D02*
D03*
Y240483D02*
D03*
Y236546D02*
D03*
Y232610D02*
D03*
Y228672D02*
D03*
Y224735D02*
D03*
Y220798D02*
D03*
Y216861D02*
D03*
Y212924D02*
D03*
Y208987D02*
D03*
Y205050D02*
D03*
Y201113D02*
D03*
Y197176D02*
D03*
Y193239D02*
D03*
X-302928Y323161D02*
D03*
Y319224D02*
D03*
Y315287D02*
D03*
Y311350D02*
D03*
Y307413D02*
D03*
Y303476D02*
D03*
Y299539D02*
D03*
Y295602D02*
D03*
Y291665D02*
D03*
Y287728D02*
D03*
Y283790D02*
D03*
Y279854D02*
D03*
Y275917D02*
D03*
Y271979D02*
D03*
Y268042D02*
D03*
Y264106D02*
D03*
Y260169D02*
D03*
Y256231D02*
D03*
Y252294D02*
D03*
Y248358D02*
D03*
Y244421D02*
D03*
Y240483D02*
D03*
Y236546D02*
D03*
Y232610D02*
D03*
Y228672D02*
D03*
Y224735D02*
D03*
Y220798D02*
D03*
Y216861D02*
D03*
Y212924D02*
D03*
Y208987D02*
D03*
Y205050D02*
D03*
Y201113D02*
D03*
Y197176D02*
D03*
Y193239D02*
D03*
X-298991Y323161D02*
D03*
Y319224D02*
D03*
Y315287D02*
D03*
Y311350D02*
D03*
Y307413D02*
D03*
Y303476D02*
D03*
Y299539D02*
D03*
Y295602D02*
D03*
Y291665D02*
D03*
Y287728D02*
D03*
Y283790D02*
D03*
Y279854D02*
D03*
Y275917D02*
D03*
Y271979D02*
D03*
Y268042D02*
D03*
Y264106D02*
D03*
Y260169D02*
D03*
Y256231D02*
D03*
Y252294D02*
D03*
Y248358D02*
D03*
Y244421D02*
D03*
Y240483D02*
D03*
Y236546D02*
D03*
Y232610D02*
D03*
Y228672D02*
D03*
Y224735D02*
D03*
Y220798D02*
D03*
Y216861D02*
D03*
Y212924D02*
D03*
Y208987D02*
D03*
Y205050D02*
D03*
Y201113D02*
D03*
Y197176D02*
D03*
Y193239D02*
D03*
X-295054Y323161D02*
D03*
Y319224D02*
D03*
Y315287D02*
D03*
Y311350D02*
D03*
Y307413D02*
D03*
Y303476D02*
D03*
Y299539D02*
D03*
Y295602D02*
D03*
Y291665D02*
D03*
Y287728D02*
D03*
Y283790D02*
D03*
Y279854D02*
D03*
Y275917D02*
D03*
Y271979D02*
D03*
Y268042D02*
D03*
Y264106D02*
D03*
Y260169D02*
D03*
Y256231D02*
D03*
Y252294D02*
D03*
Y248358D02*
D03*
Y244421D02*
D03*
Y240483D02*
D03*
Y236546D02*
D03*
Y232610D02*
D03*
Y228672D02*
D03*
Y224735D02*
D03*
Y220798D02*
D03*
Y216861D02*
D03*
Y212924D02*
D03*
Y208987D02*
D03*
Y205050D02*
D03*
Y201113D02*
D03*
Y197176D02*
D03*
Y193239D02*
D03*
X-291116Y323161D02*
D03*
Y319224D02*
D03*
Y315287D02*
D03*
Y311350D02*
D03*
Y307413D02*
D03*
Y303476D02*
D03*
Y299539D02*
D03*
Y295602D02*
D03*
Y291665D02*
D03*
Y287728D02*
D03*
Y283790D02*
D03*
Y279854D02*
D03*
Y275917D02*
D03*
Y271979D02*
D03*
Y268042D02*
D03*
Y264106D02*
D03*
Y260169D02*
D03*
Y256231D02*
D03*
Y252294D02*
D03*
Y248358D02*
D03*
Y244421D02*
D03*
Y240483D02*
D03*
Y236546D02*
D03*
Y232610D02*
D03*
Y228672D02*
D03*
Y224735D02*
D03*
Y220798D02*
D03*
Y216861D02*
D03*
Y212924D02*
D03*
Y208987D02*
D03*
Y205050D02*
D03*
Y201113D02*
D03*
Y197176D02*
D03*
Y193239D02*
D03*
X-287179Y323161D02*
D03*
Y319224D02*
D03*
Y315287D02*
D03*
Y311350D02*
D03*
Y307413D02*
D03*
Y303476D02*
D03*
Y299539D02*
D03*
Y295602D02*
D03*
Y291665D02*
D03*
Y287728D02*
D03*
Y283790D02*
D03*
Y279854D02*
D03*
Y275917D02*
D03*
Y271979D02*
D03*
Y268042D02*
D03*
Y264106D02*
D03*
Y260169D02*
D03*
Y256231D02*
D03*
Y252294D02*
D03*
Y248358D02*
D03*
Y244421D02*
D03*
Y240483D02*
D03*
Y236546D02*
D03*
Y232610D02*
D03*
Y228672D02*
D03*
Y224735D02*
D03*
Y220798D02*
D03*
Y216861D02*
D03*
Y212924D02*
D03*
Y208987D02*
D03*
Y205050D02*
D03*
Y201113D02*
D03*
Y197176D02*
D03*
Y193239D02*
D03*
X-283243Y323161D02*
D03*
Y319224D02*
D03*
Y315287D02*
D03*
Y311350D02*
D03*
Y307413D02*
D03*
Y303476D02*
D03*
Y299539D02*
D03*
Y295602D02*
D03*
Y291665D02*
D03*
Y287728D02*
D03*
Y283790D02*
D03*
Y279854D02*
D03*
Y275917D02*
D03*
Y271979D02*
D03*
Y268042D02*
D03*
Y264106D02*
D03*
Y260169D02*
D03*
Y256231D02*
D03*
Y252294D02*
D03*
Y248358D02*
D03*
Y244421D02*
D03*
Y240483D02*
D03*
Y236546D02*
D03*
Y232610D02*
D03*
Y228672D02*
D03*
Y224735D02*
D03*
Y220798D02*
D03*
Y216861D02*
D03*
Y212924D02*
D03*
Y208987D02*
D03*
Y205050D02*
D03*
Y201113D02*
D03*
Y197176D02*
D03*
Y193239D02*
D03*
X-279306Y323161D02*
D03*
Y319224D02*
D03*
Y315287D02*
D03*
Y311350D02*
D03*
Y307413D02*
D03*
Y303476D02*
D03*
Y299539D02*
D03*
Y295602D02*
D03*
Y291665D02*
D03*
Y287728D02*
D03*
Y283790D02*
D03*
Y279854D02*
D03*
Y275917D02*
D03*
Y271979D02*
D03*
Y268042D02*
D03*
Y264106D02*
D03*
Y260169D02*
D03*
Y256231D02*
D03*
Y252294D02*
D03*
Y248358D02*
D03*
Y244421D02*
D03*
Y240483D02*
D03*
Y236546D02*
D03*
Y232610D02*
D03*
Y228672D02*
D03*
Y224735D02*
D03*
Y220798D02*
D03*
Y216861D02*
D03*
Y212924D02*
D03*
Y208987D02*
D03*
Y205050D02*
D03*
Y201113D02*
D03*
Y197176D02*
D03*
Y193239D02*
D03*
X-275368Y323161D02*
D03*
Y319224D02*
D03*
Y315287D02*
D03*
Y311350D02*
D03*
Y307413D02*
D03*
Y303476D02*
D03*
Y299539D02*
D03*
Y295602D02*
D03*
Y291665D02*
D03*
Y287728D02*
D03*
Y283790D02*
D03*
Y279854D02*
D03*
Y275917D02*
D03*
Y271979D02*
D03*
Y268042D02*
D03*
Y264106D02*
D03*
Y260169D02*
D03*
Y256231D02*
D03*
Y252294D02*
D03*
Y248358D02*
D03*
Y244421D02*
D03*
Y240483D02*
D03*
Y236546D02*
D03*
Y232610D02*
D03*
Y228672D02*
D03*
Y224735D02*
D03*
Y220798D02*
D03*
Y216861D02*
D03*
Y212924D02*
D03*
Y208987D02*
D03*
Y205050D02*
D03*
Y201113D02*
D03*
Y197176D02*
D03*
Y193239D02*
D03*
X-271431Y323161D02*
D03*
Y319224D02*
D03*
Y315287D02*
D03*
Y311350D02*
D03*
Y307413D02*
D03*
Y303476D02*
D03*
Y299539D02*
D03*
Y295602D02*
D03*
Y291665D02*
D03*
Y287728D02*
D03*
Y283790D02*
D03*
Y279854D02*
D03*
Y275917D02*
D03*
Y271979D02*
D03*
Y268042D02*
D03*
Y264106D02*
D03*
Y260169D02*
D03*
Y256231D02*
D03*
Y252294D02*
D03*
Y248358D02*
D03*
Y244421D02*
D03*
Y240483D02*
D03*
Y236546D02*
D03*
Y232610D02*
D03*
Y228672D02*
D03*
Y224735D02*
D03*
Y220798D02*
D03*
Y216861D02*
D03*
Y212924D02*
D03*
Y208987D02*
D03*
Y205050D02*
D03*
Y201113D02*
D03*
Y197176D02*
D03*
Y193239D02*
D03*
X-267495Y323161D02*
D03*
Y319224D02*
D03*
Y315287D02*
D03*
Y311350D02*
D03*
Y307413D02*
D03*
Y303476D02*
D03*
Y299539D02*
D03*
Y295602D02*
D03*
Y291665D02*
D03*
Y287728D02*
D03*
Y283790D02*
D03*
Y279854D02*
D03*
Y275917D02*
D03*
Y271979D02*
D03*
Y268042D02*
D03*
Y264106D02*
D03*
Y260169D02*
D03*
Y256231D02*
D03*
Y252294D02*
D03*
Y248358D02*
D03*
Y244421D02*
D03*
Y240483D02*
D03*
Y236546D02*
D03*
Y232610D02*
D03*
Y228672D02*
D03*
Y224735D02*
D03*
Y220798D02*
D03*
Y216861D02*
D03*
Y212924D02*
D03*
Y208987D02*
D03*
Y205050D02*
D03*
Y201113D02*
D03*
Y197176D02*
D03*
Y193239D02*
D03*
X-263558Y323161D02*
D03*
Y319224D02*
D03*
Y315287D02*
D03*
Y311350D02*
D03*
Y307413D02*
D03*
Y303476D02*
D03*
Y299539D02*
D03*
Y295602D02*
D03*
Y291665D02*
D03*
Y287728D02*
D03*
Y283790D02*
D03*
Y279854D02*
D03*
Y275917D02*
D03*
Y271979D02*
D03*
Y268042D02*
D03*
Y264106D02*
D03*
Y260169D02*
D03*
Y256231D02*
D03*
Y252294D02*
D03*
Y248358D02*
D03*
Y244421D02*
D03*
Y240483D02*
D03*
Y236546D02*
D03*
Y232610D02*
D03*
Y228672D02*
D03*
Y224735D02*
D03*
Y220798D02*
D03*
Y216861D02*
D03*
Y212924D02*
D03*
Y208987D02*
D03*
Y205050D02*
D03*
Y201113D02*
D03*
Y197176D02*
D03*
Y193239D02*
D03*
X-259620Y323161D02*
D03*
Y319224D02*
D03*
Y315287D02*
D03*
Y311350D02*
D03*
Y307413D02*
D03*
Y303476D02*
D03*
Y299539D02*
D03*
Y295602D02*
D03*
Y291665D02*
D03*
Y287728D02*
D03*
Y283790D02*
D03*
Y279854D02*
D03*
Y275917D02*
D03*
Y271979D02*
D03*
Y268042D02*
D03*
Y264106D02*
D03*
Y260169D02*
D03*
Y256231D02*
D03*
Y252294D02*
D03*
Y248358D02*
D03*
Y244421D02*
D03*
Y240483D02*
D03*
Y236546D02*
D03*
Y232610D02*
D03*
Y228672D02*
D03*
Y224735D02*
D03*
Y220798D02*
D03*
Y216861D02*
D03*
Y212924D02*
D03*
Y208987D02*
D03*
Y205050D02*
D03*
Y201113D02*
D03*
Y197176D02*
D03*
Y193239D02*
D03*
X-255683Y323161D02*
D03*
Y319224D02*
D03*
Y315287D02*
D03*
Y311350D02*
D03*
Y307413D02*
D03*
Y303476D02*
D03*
Y299539D02*
D03*
Y295602D02*
D03*
Y291665D02*
D03*
Y287728D02*
D03*
Y283790D02*
D03*
Y279854D02*
D03*
Y275917D02*
D03*
Y271979D02*
D03*
Y268042D02*
D03*
Y264106D02*
D03*
Y260169D02*
D03*
Y256231D02*
D03*
Y252294D02*
D03*
Y248358D02*
D03*
Y244421D02*
D03*
Y240483D02*
D03*
Y236546D02*
D03*
Y232610D02*
D03*
Y228672D02*
D03*
Y224735D02*
D03*
Y220798D02*
D03*
Y216861D02*
D03*
Y212924D02*
D03*
Y208987D02*
D03*
Y205050D02*
D03*
Y201113D02*
D03*
Y197176D02*
D03*
Y193239D02*
D03*
X-251747Y323161D02*
D03*
Y319224D02*
D03*
Y315287D02*
D03*
Y311350D02*
D03*
Y307413D02*
D03*
Y303476D02*
D03*
Y299539D02*
D03*
Y295602D02*
D03*
Y291665D02*
D03*
Y287728D02*
D03*
Y283790D02*
D03*
Y279854D02*
D03*
Y275917D02*
D03*
Y271979D02*
D03*
Y268042D02*
D03*
Y264106D02*
D03*
Y260169D02*
D03*
Y256231D02*
D03*
Y252294D02*
D03*
Y248358D02*
D03*
Y244421D02*
D03*
Y240483D02*
D03*
Y236546D02*
D03*
Y232610D02*
D03*
Y228672D02*
D03*
Y224735D02*
D03*
Y220798D02*
D03*
Y216861D02*
D03*
Y212924D02*
D03*
Y208987D02*
D03*
Y205050D02*
D03*
Y201113D02*
D03*
Y197176D02*
D03*
Y193239D02*
D03*
X-247810Y323161D02*
D03*
Y319224D02*
D03*
Y315287D02*
D03*
Y311350D02*
D03*
Y307413D02*
D03*
Y303476D02*
D03*
Y299539D02*
D03*
Y295602D02*
D03*
Y291665D02*
D03*
Y287728D02*
D03*
Y283790D02*
D03*
Y279854D02*
D03*
Y275917D02*
D03*
Y271979D02*
D03*
Y268042D02*
D03*
Y264106D02*
D03*
Y260169D02*
D03*
Y256231D02*
D03*
Y252294D02*
D03*
Y248358D02*
D03*
Y244421D02*
D03*
Y240483D02*
D03*
Y236546D02*
D03*
Y232610D02*
D03*
Y228672D02*
D03*
Y224735D02*
D03*
Y220798D02*
D03*
Y216861D02*
D03*
Y212924D02*
D03*
Y208987D02*
D03*
Y205050D02*
D03*
Y201113D02*
D03*
Y197176D02*
D03*
Y193239D02*
D03*
X-243872Y323161D02*
D03*
Y319224D02*
D03*
Y315287D02*
D03*
Y311350D02*
D03*
Y307413D02*
D03*
Y303476D02*
D03*
Y299539D02*
D03*
Y295602D02*
D03*
Y291665D02*
D03*
Y287728D02*
D03*
Y283790D02*
D03*
Y279854D02*
D03*
Y275917D02*
D03*
Y271979D02*
D03*
Y268042D02*
D03*
Y264106D02*
D03*
Y260169D02*
D03*
Y256231D02*
D03*
Y252294D02*
D03*
Y248358D02*
D03*
Y244421D02*
D03*
Y240483D02*
D03*
Y236546D02*
D03*
Y232610D02*
D03*
Y228672D02*
D03*
Y224735D02*
D03*
Y220798D02*
D03*
Y216861D02*
D03*
Y212924D02*
D03*
Y208987D02*
D03*
Y205050D02*
D03*
Y201113D02*
D03*
Y197176D02*
D03*
Y193239D02*
D03*
X-239935Y323161D02*
D03*
Y319224D02*
D03*
Y315287D02*
D03*
Y311350D02*
D03*
Y307413D02*
D03*
Y303476D02*
D03*
Y299539D02*
D03*
Y295602D02*
D03*
Y291665D02*
D03*
Y287728D02*
D03*
Y283790D02*
D03*
Y279854D02*
D03*
Y275917D02*
D03*
Y271979D02*
D03*
Y268042D02*
D03*
Y264106D02*
D03*
Y260169D02*
D03*
Y256231D02*
D03*
Y252294D02*
D03*
Y248358D02*
D03*
Y244421D02*
D03*
Y240483D02*
D03*
Y236546D02*
D03*
Y232610D02*
D03*
Y228672D02*
D03*
Y224735D02*
D03*
Y220798D02*
D03*
Y216861D02*
D03*
Y212924D02*
D03*
Y208987D02*
D03*
Y205050D02*
D03*
Y201113D02*
D03*
Y197176D02*
D03*
Y193239D02*
D03*
X-235998Y323161D02*
D03*
Y319224D02*
D03*
Y315287D02*
D03*
Y311350D02*
D03*
Y307413D02*
D03*
Y303476D02*
D03*
Y299539D02*
D03*
Y295602D02*
D03*
Y291665D02*
D03*
Y287728D02*
D03*
Y283790D02*
D03*
Y279854D02*
D03*
Y275917D02*
D03*
Y271979D02*
D03*
Y268042D02*
D03*
Y264106D02*
D03*
Y260169D02*
D03*
Y256231D02*
D03*
Y252294D02*
D03*
Y248358D02*
D03*
Y244421D02*
D03*
Y240483D02*
D03*
Y236546D02*
D03*
Y232610D02*
D03*
Y228672D02*
D03*
Y224735D02*
D03*
Y220798D02*
D03*
Y216861D02*
D03*
Y212924D02*
D03*
Y208987D02*
D03*
Y205050D02*
D03*
Y201113D02*
D03*
Y197176D02*
D03*
Y193239D02*
D03*
X-232061Y323161D02*
D03*
Y319224D02*
D03*
Y315287D02*
D03*
Y311350D02*
D03*
Y307413D02*
D03*
Y303476D02*
D03*
Y299539D02*
D03*
Y295602D02*
D03*
Y291665D02*
D03*
Y287728D02*
D03*
Y283790D02*
D03*
Y279854D02*
D03*
Y275917D02*
D03*
Y271979D02*
D03*
Y268042D02*
D03*
Y264106D02*
D03*
Y260169D02*
D03*
Y256231D02*
D03*
Y252294D02*
D03*
Y248358D02*
D03*
Y244421D02*
D03*
Y240483D02*
D03*
Y236546D02*
D03*
Y232610D02*
D03*
Y228672D02*
D03*
Y224735D02*
D03*
Y220798D02*
D03*
Y216861D02*
D03*
Y212924D02*
D03*
Y208987D02*
D03*
Y205050D02*
D03*
Y201113D02*
D03*
Y197176D02*
D03*
Y193239D02*
D03*
X-228124Y323161D02*
D03*
Y319224D02*
D03*
Y315287D02*
D03*
Y311350D02*
D03*
Y307413D02*
D03*
Y303476D02*
D03*
Y299539D02*
D03*
Y295602D02*
D03*
Y291665D02*
D03*
Y287728D02*
D03*
Y283790D02*
D03*
Y279854D02*
D03*
Y275917D02*
D03*
Y271979D02*
D03*
Y268042D02*
D03*
Y264106D02*
D03*
Y260169D02*
D03*
Y256231D02*
D03*
Y252294D02*
D03*
Y248358D02*
D03*
Y244421D02*
D03*
Y240483D02*
D03*
Y236546D02*
D03*
Y232610D02*
D03*
Y228672D02*
D03*
Y224735D02*
D03*
Y220798D02*
D03*
Y216861D02*
D03*
Y212924D02*
D03*
Y208987D02*
D03*
Y205050D02*
D03*
Y201113D02*
D03*
X-224187Y323161D02*
D03*
Y319224D02*
D03*
Y315287D02*
D03*
Y311350D02*
D03*
Y307413D02*
D03*
Y303476D02*
D03*
Y299539D02*
D03*
Y295602D02*
D03*
Y291665D02*
D03*
Y287728D02*
D03*
Y283790D02*
D03*
Y279854D02*
D03*
Y275917D02*
D03*
Y271979D02*
D03*
Y268042D02*
D03*
Y264106D02*
D03*
Y260169D02*
D03*
Y256231D02*
D03*
Y252294D02*
D03*
Y248358D02*
D03*
Y244421D02*
D03*
Y240483D02*
D03*
Y236546D02*
D03*
Y232610D02*
D03*
Y228672D02*
D03*
Y224735D02*
D03*
Y220798D02*
D03*
Y216861D02*
D03*
Y212924D02*
D03*
Y208987D02*
D03*
Y205050D02*
D03*
Y201113D02*
D03*
Y197176D02*
D03*
Y193239D02*
D03*
X-220250Y323161D02*
D03*
Y319224D02*
D03*
Y315287D02*
D03*
Y311350D02*
D03*
Y307413D02*
D03*
Y303476D02*
D03*
Y299539D02*
D03*
Y295602D02*
D03*
Y291665D02*
D03*
Y287728D02*
D03*
Y283790D02*
D03*
Y279854D02*
D03*
Y275917D02*
D03*
Y271979D02*
D03*
Y268042D02*
D03*
Y264106D02*
D03*
Y260169D02*
D03*
Y256231D02*
D03*
Y252294D02*
D03*
Y248358D02*
D03*
Y244421D02*
D03*
Y240483D02*
D03*
Y236546D02*
D03*
Y232610D02*
D03*
Y228672D02*
D03*
Y224735D02*
D03*
Y220798D02*
D03*
Y216861D02*
D03*
Y212924D02*
D03*
Y208987D02*
D03*
Y205050D02*
D03*
Y201113D02*
D03*
Y197176D02*
D03*
Y193239D02*
D03*
X-216313Y323161D02*
D03*
Y319224D02*
D03*
Y315287D02*
D03*
Y311350D02*
D03*
Y307413D02*
D03*
Y303476D02*
D03*
Y299539D02*
D03*
Y295602D02*
D03*
Y291665D02*
D03*
Y287728D02*
D03*
Y283790D02*
D03*
Y279854D02*
D03*
Y275917D02*
D03*
Y271979D02*
D03*
Y268042D02*
D03*
Y264106D02*
D03*
Y260169D02*
D03*
Y256231D02*
D03*
Y252294D02*
D03*
Y248358D02*
D03*
Y244421D02*
D03*
Y240483D02*
D03*
Y236546D02*
D03*
Y232610D02*
D03*
Y228672D02*
D03*
Y224735D02*
D03*
Y220798D02*
D03*
Y216861D02*
D03*
Y212924D02*
D03*
Y208987D02*
D03*
Y205050D02*
D03*
Y201113D02*
D03*
Y197176D02*
D03*
Y193239D02*
D03*
X-212376Y323161D02*
D03*
Y319224D02*
D03*
Y315287D02*
D03*
Y311350D02*
D03*
Y307413D02*
D03*
Y303476D02*
D03*
Y299539D02*
D03*
Y295602D02*
D03*
Y291665D02*
D03*
Y287728D02*
D03*
Y283790D02*
D03*
Y279854D02*
D03*
Y275917D02*
D03*
Y271979D02*
D03*
Y268042D02*
D03*
Y264106D02*
D03*
Y260169D02*
D03*
Y256231D02*
D03*
Y252294D02*
D03*
Y248358D02*
D03*
Y244421D02*
D03*
Y240483D02*
D03*
Y236546D02*
D03*
Y232610D02*
D03*
Y228672D02*
D03*
Y224735D02*
D03*
Y220798D02*
D03*
Y216861D02*
D03*
Y212924D02*
D03*
Y208987D02*
D03*
Y205050D02*
D03*
Y201113D02*
D03*
Y197176D02*
D03*
Y193239D02*
D03*
X-208439Y323161D02*
D03*
Y319224D02*
D03*
Y315287D02*
D03*
Y311350D02*
D03*
Y307413D02*
D03*
Y303476D02*
D03*
Y299539D02*
D03*
Y295602D02*
D03*
Y291665D02*
D03*
Y287728D02*
D03*
Y283790D02*
D03*
Y279854D02*
D03*
Y275917D02*
D03*
Y271979D02*
D03*
Y268042D02*
D03*
Y264106D02*
D03*
Y260169D02*
D03*
Y256231D02*
D03*
Y252294D02*
D03*
Y248358D02*
D03*
Y244421D02*
D03*
Y240483D02*
D03*
Y236546D02*
D03*
Y232610D02*
D03*
Y228672D02*
D03*
Y224735D02*
D03*
Y220798D02*
D03*
Y216861D02*
D03*
Y212924D02*
D03*
Y208987D02*
D03*
Y205050D02*
D03*
Y201113D02*
D03*
Y197176D02*
D03*
Y193239D02*
D03*
X-228124Y197176D02*
D03*
Y193239D02*
D03*
X-378346Y-111221D02*
D03*
Y-71850D02*
D03*
D201*
X-65381Y-38062D02*
D03*
Y-32156D02*
D03*
X-43924Y-32156D02*
D03*
Y-38061D02*
D03*
X-74587Y-40061D02*
D03*
Y-34156D02*
D03*
X-96044Y-34156D02*
D03*
Y-40062D02*
D03*
D202*
X-47763Y-28317D02*
D03*
X-45794D02*
D03*
X-51700Y-28317D02*
D03*
X-53668D02*
D03*
X-55637D02*
D03*
X-57605D02*
D03*
X-59574D02*
D03*
X-61542D02*
D03*
X-63511D02*
D03*
X-49731D02*
D03*
X-55637Y-41900D02*
D03*
X-53668D02*
D03*
X-51700D02*
D03*
X-49731D02*
D03*
X-47763D02*
D03*
X-45794D02*
D03*
X-57605D02*
D03*
X-59574D02*
D03*
X-61542D02*
D03*
X-63511D02*
D03*
X-94174Y-43900D02*
D03*
X-92206D02*
D03*
X-90237D02*
D03*
X-88269D02*
D03*
X-76458D02*
D03*
X-78426D02*
D03*
X-80395D02*
D03*
X-82363D02*
D03*
X-84332D02*
D03*
X-86300D02*
D03*
X-80395Y-30318D02*
D03*
X-94174D02*
D03*
X-92206D02*
D03*
X-90237D02*
D03*
X-88269D02*
D03*
X-86300D02*
D03*
X-84332D02*
D03*
X-82363D02*
D03*
X-76458Y-30317D02*
D03*
X-78426D02*
D03*
D206*
X-52060Y149255D02*
D03*
X-55800Y140200D02*
D03*
X-48320D02*
D03*
D207*
X-324043Y79960D02*
D03*
X-314988Y76220D02*
D03*
Y83700D02*
D03*
X-338157Y66536D02*
D03*
X-329102Y62795D02*
D03*
Y70276D02*
D03*
D215*
X-169830Y-130000D02*
D03*
Y-125000D02*
D03*
Y-120000D02*
D03*
Y-115000D02*
D03*
X-148570Y-130000D02*
D03*
Y-125000D02*
D03*
Y-120000D02*
D03*
Y-115000D02*
D03*
D248*
X-61929Y-122000D02*
D03*
X-78071D02*
D03*
D250*
X-373228Y178150D02*
D03*
X-397638D02*
D03*
D252*
X-386713Y278543D02*
D03*
X-374902D02*
D03*
X-316043Y354823D02*
D03*
X-327854D02*
D03*
D253*
X-319094Y-127756D02*
D03*
X-330906D02*
D03*
X-298504Y56900D02*
D03*
X-286693D02*
D03*
X-298246Y66435D02*
D03*
X-286435D02*
D03*
X-207676Y43504D02*
D03*
X-195865D02*
D03*
X-207676Y34646D02*
D03*
X-195865D02*
D03*
X-207676Y25787D02*
D03*
X-195865D02*
D03*
X-168895Y-92600D02*
D03*
X-180705D02*
D03*
D254*
X-297835Y42126D02*
D03*
Y49213D02*
D03*
X-288287Y42028D02*
D03*
Y49114D02*
D03*
D256*
X-324016Y-120374D02*
D03*
X-330315D02*
D03*
X-316929Y146850D02*
D03*
X-323228D02*
D03*
X-219390Y45276D02*
D03*
X-213090D02*
D03*
X-379921Y264961D02*
D03*
X-386221D02*
D03*
X-305315Y145571D02*
D03*
X-299016D02*
D03*
X-377756Y257579D02*
D03*
X-384055Y257579D02*
D03*
X-366142Y198917D02*
D03*
X-372441D02*
D03*
X-223721Y148130D02*
D03*
X-230020D02*
D03*
X-366929Y190453D02*
D03*
X-373228D02*
D03*
X-365479Y304921D02*
D03*
X-371779D02*
D03*
X-366240Y296260D02*
D03*
X-372539D02*
D03*
X-367815Y289862D02*
D03*
X-374114D02*
D03*
X-207776Y150591D02*
D03*
X-201476Y150591D02*
D03*
X-207776Y165354D02*
D03*
X-201476Y165354D02*
D03*
X-207776Y157480D02*
D03*
X-201476Y157480D02*
D03*
D258*
X-89764Y-80709D02*
D03*
X-92520D02*
D03*
X-209055Y-689D02*
D03*
X-206299D02*
D03*
X-233366Y-3937D02*
D03*
X-230610D02*
D03*
X-171145Y242541D02*
D03*
X-173901D02*
D03*
X-171145Y245100D02*
D03*
X-173901D02*
D03*
X-175689Y224311D02*
D03*
X-172933D02*
D03*
X-175689Y221752D02*
D03*
X-172933D02*
D03*
X-151117Y247047D02*
D03*
X-153872D02*
D03*
X-151215Y249606D02*
D03*
X-153971D02*
D03*
X-156693Y229331D02*
D03*
X-153937D02*
D03*
X-156693Y226870D02*
D03*
X-153937D02*
D03*
X-178839Y262697D02*
D03*
X-181595D02*
D03*
X-178839Y265256D02*
D03*
X-181595D02*
D03*
X-179331Y232579D02*
D03*
X-182087D02*
D03*
X-179331Y235039D02*
D03*
X-182087D02*
D03*
X-178144Y250900D02*
D03*
X-180900D02*
D03*
X-400027Y208839D02*
D03*
X-402783D02*
D03*
X-177944Y256400D02*
D03*
X-180700D02*
D03*
X-400000Y206400D02*
D03*
X-402756D02*
D03*
X-155217Y267323D02*
D03*
X-157972D02*
D03*
X-155217Y269882D02*
D03*
X-157972D02*
D03*
X-150716Y257579D02*
D03*
X-153472D02*
D03*
X-388779Y218898D02*
D03*
X-391535D02*
D03*
X-153472Y260138D02*
D03*
X-150716D02*
D03*
X-388779Y216437D02*
D03*
X-391535D02*
D03*
X-388681Y196555D02*
D03*
X-391437D02*
D03*
X-388681Y199016D02*
D03*
X-391437D02*
D03*
X-386614Y193799D02*
D03*
X-389370D02*
D03*
X-386614Y191437D02*
D03*
X-389370D02*
D03*
X-378937Y213976D02*
D03*
X-381693D02*
D03*
X-378937Y211614D02*
D03*
X-381693D02*
D03*
X-390748Y238681D02*
D03*
X-393504D02*
D03*
X-390748Y236221D02*
D03*
X-393504D02*
D03*
X-155217Y239665D02*
D03*
X-157972D02*
D03*
X-92422Y-48100D02*
D03*
X-95178D02*
D03*
X-325122Y171400D02*
D03*
X-327878D02*
D03*
X-30906Y29626D02*
D03*
X-33661D02*
D03*
X-155217Y237106D02*
D03*
X-157973D02*
D03*
X-400295Y238878D02*
D03*
X-397539D02*
D03*
X-400295Y236319D02*
D03*
X-397539D02*
D03*
X-64478Y-46100D02*
D03*
X-61722D02*
D03*
X-159498Y183229D02*
D03*
X-156743D02*
D03*
X-31004Y23327D02*
D03*
X-33760D02*
D03*
X-31004Y20768D02*
D03*
X-33760D02*
D03*
X-31004Y58760D02*
D03*
X-33760D02*
D03*
X-31004Y56201D02*
D03*
X-33760D02*
D03*
X-27953Y50787D02*
D03*
X-30709D02*
D03*
X-27953Y48228D02*
D03*
X-30709D02*
D03*
X-30622Y76500D02*
D03*
X-33378D02*
D03*
X-30622Y74000D02*
D03*
X-33378D02*
D03*
X-31496Y67815D02*
D03*
X-34252D02*
D03*
X-31496Y65256D02*
D03*
X-34252D02*
D03*
X-30906Y32185D02*
D03*
X-33661D02*
D03*
X-33760Y14567D02*
D03*
X-31004D02*
D03*
X-33760Y12008D02*
D03*
X-31004D02*
D03*
X-31004Y5610D02*
D03*
X-33760D02*
D03*
X-31004Y3051D02*
D03*
X-33760D02*
D03*
X-338878Y417862D02*
D03*
X-341634D02*
D03*
X-338878Y373768D02*
D03*
X-341634D02*
D03*
X-338878Y403689D02*
D03*
X-341634D02*
D03*
X-338878Y389516D02*
D03*
X-341634D02*
D03*
X-422922Y428700D02*
D03*
X-425678D02*
D03*
Y425800D02*
D03*
X-422922D02*
D03*
X-181890Y221752D02*
D03*
X-179134D02*
D03*
X-181890Y224213D02*
D03*
X-179134D02*
D03*
X-180900Y245100D02*
D03*
X-178144D02*
D03*
X-180900Y242639D02*
D03*
X-178144D02*
D03*
X-35822Y114400D02*
D03*
X-38578D02*
D03*
X-35734Y117427D02*
D03*
X-38490D02*
D03*
D259*
X-170109Y-101900D02*
D03*
X-158691D02*
D03*
D261*
X-310400Y84072D02*
D03*
Y80528D02*
D03*
X-130807Y-89764D02*
D03*
Y-93307D02*
D03*
X-151100Y972D02*
D03*
Y-2572D02*
D03*
X-134449Y-93307D02*
D03*
Y-89764D02*
D03*
X-323900Y64828D02*
D03*
Y68372D02*
D03*
X-165300Y188528D02*
D03*
Y192072D02*
D03*
X-304035Y-126969D02*
D03*
Y-123425D02*
D03*
X-277165Y-61221D02*
D03*
Y-64764D02*
D03*
X-300394Y-123425D02*
D03*
Y-126969D02*
D03*
X-159100Y772D02*
D03*
Y-2772D02*
D03*
X-354724Y-50984D02*
D03*
Y-47441D02*
D03*
X-219882Y-122835D02*
D03*
Y-119291D02*
D03*
X-214961D02*
D03*
Y-122835D02*
D03*
X-244882Y-28543D02*
D03*
Y-32087D02*
D03*
X-237008Y-28543D02*
D03*
Y-32087D02*
D03*
X-236713Y75197D02*
D03*
Y71653D02*
D03*
X-418900Y424528D02*
D03*
Y428072D02*
D03*
D262*
X-99410Y-76673D02*
D03*
Y-73917D02*
D03*
X-199409Y-4921D02*
D03*
Y-7677D02*
D03*
X-220374Y-5906D02*
D03*
Y-3150D02*
D03*
X-223228Y-8071D02*
D03*
Y-10827D02*
D03*
X-240748Y-10728D02*
D03*
Y-7972D02*
D03*
X-100300Y-42978D02*
D03*
Y-40222D02*
D03*
X-322000Y171822D02*
D03*
Y174578D02*
D03*
X-48000Y-71878D02*
D03*
Y-69122D02*
D03*
X-63900Y-96622D02*
D03*
Y-99378D02*
D03*
X-100300Y-31478D02*
D03*
Y-28722D02*
D03*
X-103500Y-34278D02*
D03*
Y-31522D02*
D03*
X-69500Y-38578D02*
D03*
Y-35822D02*
D03*
Y-41922D02*
D03*
Y-44678D02*
D03*
X-69600Y-26822D02*
D03*
Y-29578D02*
D03*
D263*
X-306398Y41143D02*
D03*
Y52954D02*
D03*
X-350768Y393996D02*
D03*
Y382185D02*
D03*
X-315453Y52854D02*
D03*
Y41043D02*
D03*
X-145571Y-90848D02*
D03*
Y-102659D02*
D03*
X-270768Y-46457D02*
D03*
Y-34646D02*
D03*
X-231398Y-120572D02*
D03*
Y-132383D02*
D03*
X-229528Y-46260D02*
D03*
Y-34449D02*
D03*
X-135433Y28739D02*
D03*
Y16928D02*
D03*
X-144291Y28739D02*
D03*
Y16928D02*
D03*
X-153150Y28739D02*
D03*
Y16928D02*
D03*
X-162008Y28739D02*
D03*
Y16928D02*
D03*
X-188583Y17128D02*
D03*
Y28939D02*
D03*
X-170866Y17128D02*
D03*
Y28939D02*
D03*
X-179724Y28739D02*
D03*
Y16928D02*
D03*
D266*
X-303150Y162008D02*
D03*
Y156890D02*
D03*
D267*
Y164764D02*
D03*
Y154134D02*
D03*
D268*
X-226870Y160236D02*
D03*
X-221752D02*
D03*
D269*
X-229626D02*
D03*
X-218996D02*
D03*
D271*
X-304600Y-99450D02*
D03*
Y-93150D02*
D03*
X-308583Y-124114D02*
D03*
Y-130413D02*
D03*
X-134600Y-65350D02*
D03*
Y-59050D02*
D03*
X-315551Y158268D02*
D03*
Y164567D02*
D03*
X-188400Y-65550D02*
D03*
Y-59250D02*
D03*
X-152300Y-89850D02*
D03*
Y-96150D02*
D03*
X-138779Y-90453D02*
D03*
Y-96752D02*
D03*
X-220700Y-95250D02*
D03*
Y-88950D02*
D03*
X-238000Y-119650D02*
D03*
Y-125950D02*
D03*
X-224606Y-120177D02*
D03*
Y-126476D02*
D03*
X-274500Y-95750D02*
D03*
Y-89450D02*
D03*
X-146752Y283169D02*
D03*
Y276870D02*
D03*
X-139862Y283169D02*
D03*
Y276870D02*
D03*
Y292323D02*
D03*
Y298622D02*
D03*
X-167126Y283071D02*
D03*
Y276772D02*
D03*
X-153642Y283071D02*
D03*
Y276772D02*
D03*
X-266339Y162889D02*
D03*
Y156590D02*
D03*
X-160531Y283071D02*
D03*
Y276772D02*
D03*
X-146752Y292323D02*
D03*
Y298622D02*
D03*
D275*
X-652100Y423252D02*
D03*
Y429748D02*
D03*
X-159028Y-14594D02*
D03*
Y-8098D02*
D03*
X-151091Y-14657D02*
D03*
Y-8161D02*
D03*
X-277200Y-77048D02*
D03*
Y-70552D02*
D03*
X-244900Y-43848D02*
D03*
Y-37352D02*
D03*
X-237000Y-43848D02*
D03*
Y-37352D02*
D03*
D277*
X-226957Y64400D02*
D03*
X-234043D02*
D03*
X-222743Y38000D02*
D03*
X-215657D02*
D03*
X-222743Y28500D02*
D03*
X-215657D02*
D03*
Y19500D02*
D03*
X-222743D02*
D03*
X-215657Y10100D02*
D03*
X-222743D02*
D03*
D278*
X-329024Y83465D02*
D03*
X-335520D02*
D03*
X-366547Y-54134D02*
D03*
X-360051D02*
D03*
X-329528Y76575D02*
D03*
X-336024D02*
D03*
D280*
X-113858Y-79528D02*
D03*
X-118858D02*
D03*
X-123858D02*
D03*
X-128858D02*
D03*
X-113858Y-58268D02*
D03*
X-118858D02*
D03*
X-123858D02*
D03*
X-128858D02*
D03*
X-298366Y-91929D02*
D03*
X-293366D02*
D03*
X-288366D02*
D03*
X-283366D02*
D03*
X-298366Y-113189D02*
D03*
X-293366D02*
D03*
X-288366D02*
D03*
X-283366D02*
D03*
X-182165Y-60433D02*
D03*
X-177165D02*
D03*
X-172165D02*
D03*
X-167165D02*
D03*
X-182165Y-81693D02*
D03*
X-177165D02*
D03*
X-172165D02*
D03*
X-167165D02*
D03*
X-267992Y-90158D02*
D03*
X-262992D02*
D03*
X-257992D02*
D03*
X-252992D02*
D03*
X-267992Y-111417D02*
D03*
X-262992D02*
D03*
X-257992D02*
D03*
X-252992D02*
D03*
X-214685Y-87992D02*
D03*
X-209685D02*
D03*
X-204685D02*
D03*
X-199685D02*
D03*
X-214685Y-109252D02*
D03*
X-209685D02*
D03*
X-204685D02*
D03*
X-199685D02*
D03*
X-351673Y-94095D02*
D03*
X-346673D02*
D03*
X-341673D02*
D03*
X-336673D02*
D03*
X-351673Y-115354D02*
D03*
X-346673D02*
D03*
X-341673D02*
D03*
X-336673D02*
D03*
D282*
X-692520Y407480D02*
D03*
X-201156Y330444D02*
D03*
X-345644Y185956D02*
D03*
X-124600Y395700D02*
D03*
D287*
X-187400Y-130804D02*
D03*
X-177400Y-103796D02*
D03*
D288*
X-179900Y-129052D02*
D03*
X-184900Y-105548D02*
D03*
D289*
X-126200Y403648D02*
D03*
Y422152D02*
D03*
X-275372Y143696D02*
D03*
Y155507D02*
D03*
X-288779Y143696D02*
D03*
Y155507D02*
D03*
X-240551Y149114D02*
D03*
Y160925D02*
D03*
X-253937Y149213D02*
D03*
Y161024D02*
D03*
X-174114Y304528D02*
D03*
Y292717D02*
D03*
X-174705Y183760D02*
D03*
Y171949D02*
D03*
D293*
X-60712Y-113200D02*
D03*
X-55200D02*
D03*
X-40356Y-115100D02*
D03*
X-34844D02*
D03*
X-40556Y-108300D02*
D03*
X-35044D02*
D03*
X-50756Y-109900D02*
D03*
X-45244D02*
D03*
D294*
X-62600Y184431D02*
D03*
Y175769D02*
D03*
D301*
X-395866Y-5906D02*
D03*
X-105600Y-4400D02*
D03*
X-394783Y317913D02*
D03*
X-200800Y-28900D02*
D03*
D302*
X-152735Y334646D02*
D03*
X-208711Y-128937D02*
D03*
X-274000Y-128000D02*
D03*
D304*
X-100787Y-119587D02*
D03*
X-117323D02*
D03*
Y-97933D02*
D03*
X-100787Y-97933D02*
D03*
D305*
X-698100Y90608D02*
D03*
Y122792D02*
D03*
D306*
X-685797Y97940D02*
D03*
Y115460D02*
D03*
D307*
X-625197Y-125787D02*
D03*
D308*
X-50000Y245472D02*
D03*
X-55905D02*
D03*
X-32283Y275000D02*
D03*
X-38189D02*
D03*
X-32283Y284842D02*
D03*
X-38189Y284842D02*
D03*
X-32283Y294685D02*
D03*
X-38189D02*
D03*
X-32283Y324213D02*
D03*
X-38189D02*
D03*
X-32283Y363583D02*
D03*
X-38189D02*
D03*
X-32283Y383268D02*
D03*
X-38189Y383268D02*
D03*
X-32283Y215945D02*
D03*
X-50000Y275000D02*
D03*
Y265158D02*
D03*
Y255315D02*
D03*
Y235630D02*
D03*
Y225787D02*
D03*
Y206102D02*
D03*
Y196260D02*
D03*
X-55905Y275000D02*
D03*
Y265158D02*
D03*
Y255315D02*
D03*
Y235630D02*
D03*
Y225787D02*
D03*
Y206102D02*
D03*
Y196260D02*
D03*
X-61811Y284842D02*
D03*
Y275000D02*
D03*
Y265158D02*
D03*
Y255315D02*
D03*
Y245472D02*
D03*
Y235630D02*
D03*
Y225787D02*
D03*
Y215945D02*
D03*
Y206102D02*
D03*
Y196260D02*
D03*
X-67716Y275000D02*
D03*
Y265158D02*
D03*
Y255315D02*
D03*
Y245472D02*
D03*
Y235630D02*
D03*
Y225787D02*
D03*
Y215945D02*
D03*
Y206102D02*
D03*
Y196260D02*
D03*
X-73622Y275000D02*
D03*
Y265158D02*
D03*
Y255315D02*
D03*
Y245472D02*
D03*
Y235630D02*
D03*
Y225787D02*
D03*
Y215945D02*
D03*
Y206102D02*
D03*
Y196260D02*
D03*
X-79528Y284842D02*
D03*
Y275000D02*
D03*
Y265158D02*
D03*
Y255315D02*
D03*
Y245472D02*
D03*
Y235630D02*
D03*
Y225787D02*
D03*
Y215945D02*
D03*
Y206102D02*
D03*
Y196260D02*
D03*
X-44094Y284842D02*
D03*
Y275000D02*
D03*
Y265158D02*
D03*
Y255315D02*
D03*
Y245472D02*
D03*
Y235630D02*
D03*
Y225787D02*
D03*
Y215945D02*
D03*
Y206102D02*
D03*
Y196260D02*
D03*
X-38189Y265158D02*
D03*
Y255315D02*
D03*
Y245472D02*
D03*
Y235630D02*
D03*
Y215945D02*
D03*
Y206102D02*
D03*
Y196260D02*
D03*
X-32283D02*
D03*
Y206102D02*
D03*
Y235630D02*
D03*
Y245472D02*
D03*
Y255315D02*
D03*
Y265158D02*
D03*
X-67716Y284842D02*
D03*
X-73622D02*
D03*
X-50000D02*
D03*
X-55905D02*
D03*
X-50000Y215945D02*
D03*
X-55905D02*
D03*
X-32283Y373425D02*
D03*
Y353740D02*
D03*
Y343898D02*
D03*
Y334055D02*
D03*
Y314370D02*
D03*
X-38189Y314370D02*
D03*
Y334055D02*
D03*
Y343898D02*
D03*
Y353740D02*
D03*
Y373425D02*
D03*
X-44094Y294685D02*
D03*
Y304528D02*
D03*
Y314370D02*
D03*
Y324213D02*
D03*
Y334055D02*
D03*
Y343898D02*
D03*
Y353740D02*
D03*
Y363583D02*
D03*
Y373425D02*
D03*
Y383268D02*
D03*
X-79528Y294685D02*
D03*
Y304528D02*
D03*
Y314370D02*
D03*
Y324213D02*
D03*
Y334055D02*
D03*
Y343898D02*
D03*
Y353740D02*
D03*
Y363583D02*
D03*
Y373425D02*
D03*
Y383268D02*
D03*
X-73622Y294685D02*
D03*
Y304528D02*
D03*
Y314370D02*
D03*
Y324213D02*
D03*
Y334055D02*
D03*
Y353740D02*
D03*
Y373425D02*
D03*
Y383268D02*
D03*
X-67716Y294685D02*
D03*
Y304528D02*
D03*
Y314370D02*
D03*
Y324213D02*
D03*
Y334055D02*
D03*
Y353740D02*
D03*
Y373425D02*
D03*
Y383268D02*
D03*
X-61811Y294685D02*
D03*
Y304528D02*
D03*
Y314370D02*
D03*
Y324213D02*
D03*
Y334055D02*
D03*
Y343898D02*
D03*
Y353740D02*
D03*
Y363583D02*
D03*
Y373425D02*
D03*
Y383268D02*
D03*
X-55905Y304528D02*
D03*
Y324213D02*
D03*
Y334055D02*
D03*
Y343898D02*
D03*
Y353740D02*
D03*
Y363583D02*
D03*
Y373425D02*
D03*
X-50000Y304528D02*
D03*
Y324213D02*
D03*
Y334055D02*
D03*
Y343898D02*
D03*
Y353740D02*
D03*
Y363583D02*
D03*
Y373425D02*
D03*
Y294685D02*
D03*
X-55905D02*
D03*
X-32283Y304528D02*
D03*
X-38189D02*
D03*
X-67716Y343898D02*
D03*
X-73622D02*
D03*
X-50000Y314370D02*
D03*
X-55905D02*
D03*
X-50000Y383268D02*
D03*
X-55905D02*
D03*
X-67716Y363583D02*
D03*
X-73622D02*
D03*
D309*
X-640800Y6700D02*
D03*
X-242400Y11000D02*
D03*
X-372300Y143300D02*
D03*
X-575984Y311319D02*
D03*
D310*
X-108268Y409449D02*
D03*
X-78740D02*
D03*
D311*
X-49213D02*
D03*
D312*
X-584646Y-126181D02*
D03*
D313*
X-591338D02*
D03*
D314*
X-424360Y-97480D02*
D03*
X-436368Y116614D02*
D03*
X-424360Y178111D02*
D03*
X-436368Y392205D02*
D03*
D315*
X-679626Y131211D02*
D03*
Y158770D02*
D03*
D316*
X-689469Y136132D02*
D03*
Y153849D02*
D03*
D317*
X-444183Y-114311D02*
D03*
X-445364Y161280D02*
D03*
X-660325Y171122D02*
D03*
X-445364Y409311D02*
D03*
X-660325Y393760D02*
D03*
Y118169D02*
D03*
X-445364Y133721D02*
D03*
X-660325Y-104468D02*
D03*
D318*
X-696260Y-131890D02*
D03*
X-629921Y430709D02*
D03*
D758*
X-51575Y-129921D02*
D03*
X-689764Y-111417D02*
D03*
D810*
X-205315Y60532D02*
G03*
X-205315Y60532I-1378J0D01*
G01*
X-206693Y58563D02*
Y62500D01*
X-208661Y60532D02*
X-204724D01*
D811*
X-339961Y436992D02*
D03*
D812*
X-269400Y-16060D02*
D03*
Y26460D02*
D03*
X-310900Y26260D02*
D03*
Y-16260D02*
D03*
D813*
X-386713Y-115157D02*
D03*
Y-107283D02*
D03*
Y-99410D02*
D03*
X-369980Y-115157D02*
D03*
Y-107283D02*
D03*
Y-99410D02*
D03*
X-386713Y-83661D02*
D03*
Y-75787D02*
D03*
Y-67913D02*
D03*
X-369980Y-83661D02*
D03*
Y-75787D02*
D03*
Y-67913D02*
D03*
X-386713Y-91535D02*
D03*
X-369980D02*
D03*
D814*
X-183492Y58366D02*
D03*
X-141405D02*
D03*
D815*
X-6693Y118110D02*
D03*
Y-118110D02*
D03*
D816*
X-13189Y118110D02*
D03*
Y-118110D02*
D03*
D817*
X-350100Y372600D02*
D03*
X-371400Y380800D02*
D03*
X-341400Y423600D02*
D03*
D818*
X-54653Y-35109D02*
D03*
X-85316Y-37109D02*
D03*
D819*
X-45893Y-35109D02*
D03*
X-63413Y-35109D02*
D03*
D03*
X-94076Y-37108D02*
D03*
D03*
X-76556Y-37109D02*
D03*
D820*
X-65627Y-34026D02*
D03*
X-65627Y-36191D02*
D03*
X-43678Y-34026D02*
D03*
X-43678Y-36191D02*
D03*
X-74341Y-38191D02*
D03*
X-74341Y-36026D02*
D03*
X-96290Y-38191D02*
D03*
X-96290Y-36026D02*
D03*
D821*
X-591634Y-132382D02*
D03*
Y-119980D02*
D03*
X-584350Y-132382D02*
D03*
Y-119980D02*
D03*
D822*
X-32480Y-71358D02*
D03*
Y-75098D02*
D03*
Y-78839D02*
D03*
X-42717D02*
D03*
Y-75098D02*
D03*
Y-71358D02*
D03*
X-36518Y36760D02*
D03*
Y40500D02*
D03*
Y44240D02*
D03*
X-26282D02*
D03*
Y40500D02*
D03*
Y36760D02*
D03*
D823*
X-51400Y175328D02*
D03*
X-55140Y166272D02*
D03*
X-47660D02*
D03*
D824*
X-153795Y190900D02*
D03*
D825*
X-147889Y187160D02*
D03*
Y190900D02*
D03*
Y194640D02*
D03*
X-159700D02*
D03*
Y190900D02*
D03*
Y187160D02*
D03*
D826*
X-197244Y70374D02*
D03*
Y68405D02*
D03*
Y66437D02*
D03*
Y64468D02*
D03*
Y62500D02*
D03*
Y60532D02*
D03*
Y58563D02*
D03*
Y56595D02*
D03*
Y54626D02*
D03*
Y52658D02*
D03*
Y50689D02*
D03*
X-216142D02*
D03*
Y52658D02*
D03*
Y54626D02*
D03*
Y56595D02*
D03*
Y58563D02*
D03*
Y60532D02*
D03*
Y62500D02*
D03*
Y64468D02*
D03*
Y66437D02*
D03*
Y68405D02*
D03*
Y70374D02*
D03*
D827*
X-206693Y60532D02*
D03*
D828*
X-340800Y-30412D02*
D03*
Y-46412D02*
D03*
X-335800Y-30412D02*
D03*
Y-46412D02*
D03*
X-330800Y-30412D02*
D03*
Y-46412D02*
D03*
X-325800Y-30412D02*
D03*
Y-46412D02*
D03*
X-320800Y-30412D02*
D03*
Y-46412D02*
D03*
X-315800Y-30412D02*
D03*
Y-46412D02*
D03*
X-310800Y-30412D02*
D03*
Y-46412D02*
D03*
X-305800Y-30412D02*
D03*
Y-46412D02*
D03*
X-300800Y-30412D02*
D03*
Y-46412D02*
D03*
X-295800Y-30412D02*
D03*
Y-46412D02*
D03*
D829*
X-418868Y107067D02*
D03*
Y102067D02*
D03*
Y97067D02*
D03*
Y92067D02*
D03*
Y87067D02*
D03*
Y82067D02*
D03*
Y77067D02*
D03*
Y72067D02*
D03*
Y67067D02*
D03*
Y62067D02*
D03*
Y57067D02*
D03*
Y52067D02*
D03*
Y47067D02*
D03*
Y42067D02*
D03*
Y37067D02*
D03*
Y32067D02*
D03*
Y27067D02*
D03*
Y22067D02*
D03*
Y17067D02*
D03*
Y12067D02*
D03*
Y7067D02*
D03*
Y2067D02*
D03*
Y-2933D02*
D03*
Y-7933D02*
D03*
Y-12933D02*
D03*
Y-17933D02*
D03*
Y-22933D02*
D03*
Y-27933D02*
D03*
Y-32933D02*
D03*
Y-37933D02*
D03*
Y-42933D02*
D03*
Y-47933D02*
D03*
Y-52933D02*
D03*
Y-57933D02*
D03*
Y-62933D02*
D03*
Y-67933D02*
D03*
Y-72933D02*
D03*
Y-77933D02*
D03*
Y-82933D02*
D03*
Y-87933D02*
D03*
X-413868D02*
D03*
Y-82933D02*
D03*
Y-77933D02*
D03*
Y-72933D02*
D03*
Y-67933D02*
D03*
Y-62933D02*
D03*
Y-57933D02*
D03*
Y-52933D02*
D03*
Y-47933D02*
D03*
Y-42933D02*
D03*
Y-37933D02*
D03*
Y-32933D02*
D03*
Y-27933D02*
D03*
Y-22933D02*
D03*
Y-17933D02*
D03*
Y-12933D02*
D03*
Y-7933D02*
D03*
Y-2933D02*
D03*
Y2067D02*
D03*
Y7067D02*
D03*
Y12067D02*
D03*
Y17067D02*
D03*
Y22067D02*
D03*
Y27067D02*
D03*
Y32067D02*
D03*
Y37067D02*
D03*
Y42067D02*
D03*
Y47067D02*
D03*
Y52067D02*
D03*
Y57067D02*
D03*
Y62067D02*
D03*
Y67067D02*
D03*
Y72067D02*
D03*
Y77067D02*
D03*
Y82067D02*
D03*
Y87067D02*
D03*
Y92067D02*
D03*
Y97067D02*
D03*
Y102067D02*
D03*
Y107067D02*
D03*
X-423868Y-87933D02*
D03*
Y-82933D02*
D03*
Y-77933D02*
D03*
Y-72933D02*
D03*
Y-67933D02*
D03*
Y-62933D02*
D03*
Y-57933D02*
D03*
Y-52933D02*
D03*
Y-47933D02*
D03*
Y-42933D02*
D03*
Y-37933D02*
D03*
Y-32933D02*
D03*
Y-27933D02*
D03*
Y-22933D02*
D03*
Y-17933D02*
D03*
Y-12933D02*
D03*
Y-7933D02*
D03*
Y-2933D02*
D03*
Y2067D02*
D03*
Y7067D02*
D03*
Y12067D02*
D03*
Y17067D02*
D03*
Y22067D02*
D03*
Y27067D02*
D03*
Y32067D02*
D03*
Y37067D02*
D03*
Y42067D02*
D03*
Y47067D02*
D03*
Y52067D02*
D03*
Y57067D02*
D03*
Y62067D02*
D03*
Y67067D02*
D03*
Y72067D02*
D03*
Y77067D02*
D03*
Y82067D02*
D03*
Y87067D02*
D03*
Y92067D02*
D03*
Y97067D02*
D03*
Y102067D02*
D03*
Y107067D02*
D03*
X-428868Y-87933D02*
D03*
Y-82933D02*
D03*
Y-77933D02*
D03*
Y-72933D02*
D03*
Y-67933D02*
D03*
Y-62933D02*
D03*
Y-57933D02*
D03*
Y-52933D02*
D03*
Y-47933D02*
D03*
Y-42933D02*
D03*
Y-37933D02*
D03*
Y-32933D02*
D03*
Y-27933D02*
D03*
Y-22933D02*
D03*
Y-17933D02*
D03*
Y-12933D02*
D03*
Y-7933D02*
D03*
Y-2933D02*
D03*
Y2067D02*
D03*
Y7067D02*
D03*
Y12067D02*
D03*
Y17067D02*
D03*
Y22067D02*
D03*
Y27067D02*
D03*
Y32067D02*
D03*
Y37067D02*
D03*
Y42067D02*
D03*
Y47067D02*
D03*
Y52067D02*
D03*
Y57067D02*
D03*
Y62067D02*
D03*
Y67067D02*
D03*
Y72067D02*
D03*
Y77067D02*
D03*
Y82067D02*
D03*
Y87067D02*
D03*
Y92067D02*
D03*
Y97067D02*
D03*
Y102067D02*
D03*
Y107067D02*
D03*
X-433868Y-87933D02*
D03*
Y-82933D02*
D03*
Y-77933D02*
D03*
Y-72933D02*
D03*
Y-67933D02*
D03*
Y-62933D02*
D03*
Y-57933D02*
D03*
Y-52933D02*
D03*
Y-47933D02*
D03*
Y-42933D02*
D03*
Y-37933D02*
D03*
Y-32933D02*
D03*
Y-27933D02*
D03*
Y-22933D02*
D03*
Y-17933D02*
D03*
Y-12933D02*
D03*
Y-7933D02*
D03*
Y-2933D02*
D03*
Y2067D02*
D03*
Y7067D02*
D03*
Y12067D02*
D03*
Y17067D02*
D03*
Y22067D02*
D03*
Y27067D02*
D03*
Y32067D02*
D03*
Y37067D02*
D03*
Y42067D02*
D03*
Y47067D02*
D03*
Y52067D02*
D03*
Y57067D02*
D03*
Y62067D02*
D03*
Y67067D02*
D03*
Y72067D02*
D03*
Y77067D02*
D03*
Y82067D02*
D03*
Y87067D02*
D03*
Y92067D02*
D03*
Y97067D02*
D03*
Y102067D02*
D03*
Y107067D02*
D03*
X-438868Y-87933D02*
D03*
Y-82933D02*
D03*
Y-77933D02*
D03*
Y-72933D02*
D03*
Y-67933D02*
D03*
Y-62933D02*
D03*
Y-57933D02*
D03*
Y-52933D02*
D03*
Y-47933D02*
D03*
Y-42933D02*
D03*
Y-37933D02*
D03*
Y-32933D02*
D03*
Y-27933D02*
D03*
Y-22933D02*
D03*
Y-17933D02*
D03*
Y-12933D02*
D03*
Y-7933D02*
D03*
Y-2933D02*
D03*
Y2067D02*
D03*
Y7067D02*
D03*
Y12067D02*
D03*
Y17067D02*
D03*
Y22067D02*
D03*
Y27067D02*
D03*
Y32067D02*
D03*
Y37067D02*
D03*
Y42067D02*
D03*
Y47067D02*
D03*
Y52067D02*
D03*
Y57067D02*
D03*
Y62067D02*
D03*
Y67067D02*
D03*
Y72067D02*
D03*
Y77067D02*
D03*
Y82067D02*
D03*
Y87067D02*
D03*
Y92067D02*
D03*
Y97067D02*
D03*
Y102067D02*
D03*
Y107067D02*
D03*
X-443868Y-87933D02*
D03*
Y-82933D02*
D03*
Y-77933D02*
D03*
Y-72933D02*
D03*
Y-67933D02*
D03*
Y-62933D02*
D03*
Y-57933D02*
D03*
Y-52933D02*
D03*
Y-47933D02*
D03*
Y-42933D02*
D03*
Y-37933D02*
D03*
Y-32933D02*
D03*
Y-27933D02*
D03*
Y-22933D02*
D03*
Y-17933D02*
D03*
Y-12933D02*
D03*
Y-7933D02*
D03*
Y-2933D02*
D03*
Y2067D02*
D03*
Y7067D02*
D03*
Y12067D02*
D03*
Y17067D02*
D03*
Y22067D02*
D03*
Y27067D02*
D03*
Y32067D02*
D03*
Y37067D02*
D03*
Y42067D02*
D03*
Y47067D02*
D03*
Y52067D02*
D03*
Y57067D02*
D03*
Y62067D02*
D03*
Y67067D02*
D03*
Y72067D02*
D03*
Y77067D02*
D03*
Y82067D02*
D03*
Y87067D02*
D03*
Y92067D02*
D03*
Y97067D02*
D03*
Y102067D02*
D03*
Y107067D02*
D03*
X-448868Y-87933D02*
D03*
Y-82933D02*
D03*
Y-77933D02*
D03*
Y-72933D02*
D03*
Y-67933D02*
D03*
Y-62933D02*
D03*
Y-57933D02*
D03*
Y-52933D02*
D03*
Y-47933D02*
D03*
Y-42933D02*
D03*
Y-37933D02*
D03*
Y-32933D02*
D03*
Y-27933D02*
D03*
Y-22933D02*
D03*
Y-17933D02*
D03*
Y-12933D02*
D03*
Y-7933D02*
D03*
Y-2933D02*
D03*
Y2067D02*
D03*
Y7067D02*
D03*
Y12067D02*
D03*
Y17067D02*
D03*
Y22067D02*
D03*
Y27067D02*
D03*
Y32067D02*
D03*
Y37067D02*
D03*
Y42067D02*
D03*
Y47067D02*
D03*
Y52067D02*
D03*
Y57067D02*
D03*
Y62067D02*
D03*
Y67067D02*
D03*
Y72067D02*
D03*
Y77067D02*
D03*
Y82067D02*
D03*
Y87067D02*
D03*
Y92067D02*
D03*
Y97067D02*
D03*
Y102067D02*
D03*
Y107067D02*
D03*
X-453868Y-87933D02*
D03*
Y-82933D02*
D03*
Y-77933D02*
D03*
Y-72933D02*
D03*
Y-67933D02*
D03*
Y-62933D02*
D03*
Y-57933D02*
D03*
Y-52933D02*
D03*
Y-47933D02*
D03*
Y-42933D02*
D03*
Y-37933D02*
D03*
Y-32933D02*
D03*
Y-27933D02*
D03*
Y-22933D02*
D03*
Y-17933D02*
D03*
Y-12933D02*
D03*
Y-7933D02*
D03*
Y-2933D02*
D03*
Y2067D02*
D03*
Y7067D02*
D03*
Y12067D02*
D03*
Y17067D02*
D03*
Y22067D02*
D03*
Y27067D02*
D03*
Y32067D02*
D03*
Y37067D02*
D03*
Y42067D02*
D03*
Y47067D02*
D03*
Y52067D02*
D03*
Y57067D02*
D03*
Y62067D02*
D03*
Y67067D02*
D03*
Y72067D02*
D03*
Y77067D02*
D03*
Y82067D02*
D03*
Y87067D02*
D03*
Y92067D02*
D03*
Y97067D02*
D03*
Y102067D02*
D03*
Y107067D02*
D03*
X-458868Y-87933D02*
D03*
Y-82933D02*
D03*
Y-77933D02*
D03*
Y-72933D02*
D03*
Y-67933D02*
D03*
Y-62933D02*
D03*
Y-57933D02*
D03*
Y-52933D02*
D03*
Y-47933D02*
D03*
Y-42933D02*
D03*
Y-37933D02*
D03*
Y-32933D02*
D03*
Y-27933D02*
D03*
Y-22933D02*
D03*
Y-17933D02*
D03*
Y-12933D02*
D03*
Y-7933D02*
D03*
Y-2933D02*
D03*
Y2067D02*
D03*
Y7067D02*
D03*
Y12067D02*
D03*
Y17067D02*
D03*
Y22067D02*
D03*
Y27067D02*
D03*
Y32067D02*
D03*
Y37067D02*
D03*
Y42067D02*
D03*
Y47067D02*
D03*
Y52067D02*
D03*
Y57067D02*
D03*
Y62067D02*
D03*
Y67067D02*
D03*
Y72067D02*
D03*
Y77067D02*
D03*
Y82067D02*
D03*
Y87067D02*
D03*
Y92067D02*
D03*
Y97067D02*
D03*
Y102067D02*
D03*
Y107067D02*
D03*
X-418868Y382658D02*
D03*
Y377658D02*
D03*
Y372658D02*
D03*
Y367658D02*
D03*
Y362658D02*
D03*
Y357658D02*
D03*
Y352658D02*
D03*
Y347658D02*
D03*
Y342658D02*
D03*
Y337658D02*
D03*
Y332658D02*
D03*
Y327658D02*
D03*
Y322658D02*
D03*
Y317658D02*
D03*
Y312658D02*
D03*
Y307658D02*
D03*
Y302658D02*
D03*
Y297658D02*
D03*
Y292658D02*
D03*
Y287658D02*
D03*
Y282658D02*
D03*
Y277658D02*
D03*
Y272658D02*
D03*
Y267658D02*
D03*
Y262658D02*
D03*
Y257658D02*
D03*
Y252658D02*
D03*
Y247658D02*
D03*
Y242658D02*
D03*
Y237658D02*
D03*
Y232658D02*
D03*
Y227658D02*
D03*
Y222658D02*
D03*
Y217658D02*
D03*
Y212658D02*
D03*
Y207658D02*
D03*
Y202658D02*
D03*
Y197658D02*
D03*
Y192658D02*
D03*
Y187658D02*
D03*
X-413868D02*
D03*
Y192658D02*
D03*
Y197658D02*
D03*
Y202658D02*
D03*
Y207658D02*
D03*
Y212658D02*
D03*
Y217658D02*
D03*
Y222658D02*
D03*
Y227658D02*
D03*
Y232658D02*
D03*
Y237658D02*
D03*
Y242658D02*
D03*
Y247658D02*
D03*
Y252658D02*
D03*
Y257658D02*
D03*
Y262658D02*
D03*
Y267658D02*
D03*
Y272658D02*
D03*
Y277658D02*
D03*
Y282658D02*
D03*
Y287658D02*
D03*
Y292658D02*
D03*
Y297658D02*
D03*
Y302658D02*
D03*
Y307658D02*
D03*
Y312658D02*
D03*
Y317658D02*
D03*
Y322658D02*
D03*
Y327658D02*
D03*
Y332658D02*
D03*
Y337658D02*
D03*
Y342658D02*
D03*
Y347658D02*
D03*
Y352658D02*
D03*
Y357658D02*
D03*
Y362658D02*
D03*
Y367658D02*
D03*
Y372658D02*
D03*
Y377658D02*
D03*
Y382658D02*
D03*
X-423868Y187658D02*
D03*
Y192658D02*
D03*
Y197658D02*
D03*
Y202658D02*
D03*
Y207658D02*
D03*
Y212658D02*
D03*
Y217658D02*
D03*
Y222658D02*
D03*
Y227658D02*
D03*
Y232658D02*
D03*
Y237658D02*
D03*
Y242658D02*
D03*
Y247658D02*
D03*
Y252658D02*
D03*
Y257658D02*
D03*
Y262658D02*
D03*
Y267658D02*
D03*
Y272658D02*
D03*
Y277658D02*
D03*
Y282658D02*
D03*
Y287658D02*
D03*
Y292658D02*
D03*
Y297658D02*
D03*
Y302658D02*
D03*
Y307658D02*
D03*
Y312658D02*
D03*
Y317658D02*
D03*
Y322658D02*
D03*
Y327658D02*
D03*
Y332658D02*
D03*
Y337658D02*
D03*
Y342658D02*
D03*
Y347658D02*
D03*
Y352658D02*
D03*
Y357658D02*
D03*
Y362658D02*
D03*
Y367658D02*
D03*
Y372658D02*
D03*
Y377658D02*
D03*
Y382658D02*
D03*
X-428868Y187658D02*
D03*
Y192658D02*
D03*
Y197658D02*
D03*
Y202658D02*
D03*
Y207658D02*
D03*
Y212658D02*
D03*
Y217658D02*
D03*
Y222658D02*
D03*
Y227658D02*
D03*
Y232658D02*
D03*
Y237658D02*
D03*
Y242658D02*
D03*
Y247658D02*
D03*
Y252658D02*
D03*
Y257658D02*
D03*
Y262658D02*
D03*
Y267658D02*
D03*
Y272658D02*
D03*
Y277658D02*
D03*
Y282658D02*
D03*
Y287658D02*
D03*
Y292658D02*
D03*
Y297658D02*
D03*
Y302658D02*
D03*
Y307658D02*
D03*
Y312658D02*
D03*
Y317658D02*
D03*
Y322658D02*
D03*
Y327658D02*
D03*
Y332658D02*
D03*
Y337658D02*
D03*
Y342658D02*
D03*
Y347658D02*
D03*
Y352658D02*
D03*
Y357658D02*
D03*
Y362658D02*
D03*
Y367658D02*
D03*
Y372658D02*
D03*
Y377658D02*
D03*
Y382658D02*
D03*
X-433868Y187658D02*
D03*
Y192658D02*
D03*
Y197658D02*
D03*
Y202658D02*
D03*
Y207658D02*
D03*
Y212658D02*
D03*
Y217658D02*
D03*
Y222658D02*
D03*
Y227658D02*
D03*
Y232658D02*
D03*
Y237658D02*
D03*
Y242658D02*
D03*
Y247658D02*
D03*
Y252658D02*
D03*
Y257658D02*
D03*
Y262658D02*
D03*
Y267658D02*
D03*
Y272658D02*
D03*
Y277658D02*
D03*
Y282658D02*
D03*
Y287658D02*
D03*
Y292658D02*
D03*
Y297658D02*
D03*
Y302658D02*
D03*
Y307658D02*
D03*
Y312658D02*
D03*
Y317658D02*
D03*
Y322658D02*
D03*
Y327658D02*
D03*
Y332658D02*
D03*
Y337658D02*
D03*
Y342658D02*
D03*
Y347658D02*
D03*
Y352658D02*
D03*
Y357658D02*
D03*
Y362658D02*
D03*
Y367658D02*
D03*
Y372658D02*
D03*
Y377658D02*
D03*
Y382658D02*
D03*
X-438868Y187658D02*
D03*
Y192658D02*
D03*
Y197658D02*
D03*
Y202658D02*
D03*
Y207658D02*
D03*
Y212658D02*
D03*
Y217658D02*
D03*
Y222658D02*
D03*
Y227658D02*
D03*
Y232658D02*
D03*
Y237658D02*
D03*
Y242658D02*
D03*
Y247658D02*
D03*
Y252658D02*
D03*
Y257658D02*
D03*
Y262658D02*
D03*
Y267658D02*
D03*
Y272658D02*
D03*
Y277658D02*
D03*
Y282658D02*
D03*
Y287658D02*
D03*
Y292658D02*
D03*
Y297658D02*
D03*
Y302658D02*
D03*
Y307658D02*
D03*
Y312658D02*
D03*
Y317658D02*
D03*
Y322658D02*
D03*
Y327658D02*
D03*
Y332658D02*
D03*
Y337658D02*
D03*
Y342658D02*
D03*
Y347658D02*
D03*
Y352658D02*
D03*
Y357658D02*
D03*
Y362658D02*
D03*
Y367658D02*
D03*
Y372658D02*
D03*
Y377658D02*
D03*
Y382658D02*
D03*
X-443868Y187658D02*
D03*
Y192658D02*
D03*
Y197658D02*
D03*
Y202658D02*
D03*
Y207658D02*
D03*
Y212658D02*
D03*
Y217658D02*
D03*
Y222658D02*
D03*
Y227658D02*
D03*
Y232658D02*
D03*
Y237658D02*
D03*
Y242658D02*
D03*
Y247658D02*
D03*
Y252658D02*
D03*
Y257658D02*
D03*
Y262658D02*
D03*
Y267658D02*
D03*
Y272658D02*
D03*
Y277658D02*
D03*
Y282658D02*
D03*
Y287658D02*
D03*
Y292658D02*
D03*
Y297658D02*
D03*
Y302658D02*
D03*
Y307658D02*
D03*
Y312658D02*
D03*
Y317658D02*
D03*
Y322658D02*
D03*
Y327658D02*
D03*
Y332658D02*
D03*
Y337658D02*
D03*
Y342658D02*
D03*
Y347658D02*
D03*
Y352658D02*
D03*
Y357658D02*
D03*
Y362658D02*
D03*
Y367658D02*
D03*
Y372658D02*
D03*
Y377658D02*
D03*
Y382658D02*
D03*
X-448868Y187658D02*
D03*
Y192658D02*
D03*
Y197658D02*
D03*
Y202658D02*
D03*
Y207658D02*
D03*
Y212658D02*
D03*
Y217658D02*
D03*
Y222658D02*
D03*
Y227658D02*
D03*
Y232658D02*
D03*
Y237658D02*
D03*
Y242658D02*
D03*
Y247658D02*
D03*
Y252658D02*
D03*
Y257658D02*
D03*
Y262658D02*
D03*
Y267658D02*
D03*
Y272658D02*
D03*
Y277658D02*
D03*
Y282658D02*
D03*
Y287658D02*
D03*
Y292658D02*
D03*
Y297658D02*
D03*
Y302658D02*
D03*
Y307658D02*
D03*
Y312658D02*
D03*
Y317658D02*
D03*
Y322658D02*
D03*
Y327658D02*
D03*
Y332658D02*
D03*
Y337658D02*
D03*
Y342658D02*
D03*
Y347658D02*
D03*
Y352658D02*
D03*
Y357658D02*
D03*
Y362658D02*
D03*
Y367658D02*
D03*
Y372658D02*
D03*
Y377658D02*
D03*
Y382658D02*
D03*
X-453868Y187658D02*
D03*
Y192658D02*
D03*
Y197658D02*
D03*
Y202658D02*
D03*
Y207658D02*
D03*
Y212658D02*
D03*
Y217658D02*
D03*
Y222658D02*
D03*
Y227658D02*
D03*
Y232658D02*
D03*
Y237658D02*
D03*
Y242658D02*
D03*
Y247658D02*
D03*
Y252658D02*
D03*
Y257658D02*
D03*
Y262658D02*
D03*
Y267658D02*
D03*
Y272658D02*
D03*
Y277658D02*
D03*
Y282658D02*
D03*
Y287658D02*
D03*
Y292658D02*
D03*
Y297658D02*
D03*
Y302658D02*
D03*
Y307658D02*
D03*
Y312658D02*
D03*
Y317658D02*
D03*
Y322658D02*
D03*
Y327658D02*
D03*
Y332658D02*
D03*
Y337658D02*
D03*
Y342658D02*
D03*
Y347658D02*
D03*
Y352658D02*
D03*
Y357658D02*
D03*
Y362658D02*
D03*
Y367658D02*
D03*
Y372658D02*
D03*
Y377658D02*
D03*
Y382658D02*
D03*
X-458868Y187658D02*
D03*
Y192658D02*
D03*
Y197658D02*
D03*
Y212658D02*
D03*
Y217658D02*
D03*
Y222658D02*
D03*
Y227658D02*
D03*
Y232658D02*
D03*
Y237658D02*
D03*
Y242658D02*
D03*
Y247658D02*
D03*
Y252658D02*
D03*
Y257658D02*
D03*
Y262658D02*
D03*
Y267658D02*
D03*
Y272658D02*
D03*
Y277658D02*
D03*
Y282658D02*
D03*
Y287658D02*
D03*
Y292658D02*
D03*
Y297658D02*
D03*
Y302658D02*
D03*
Y307658D02*
D03*
Y312658D02*
D03*
Y317658D02*
D03*
Y322658D02*
D03*
Y327658D02*
D03*
Y332658D02*
D03*
Y337658D02*
D03*
Y342658D02*
D03*
Y347658D02*
D03*
Y352658D02*
D03*
Y357658D02*
D03*
Y362658D02*
D03*
Y367658D02*
D03*
Y372658D02*
D03*
Y377658D02*
D03*
Y382658D02*
D03*
Y207658D02*
D03*
Y202658D02*
D03*
D830*
X-233263Y-103856D02*
D03*
X-316944Y-107793D02*
D03*
X-147436Y-74131D02*
D03*
D831*
X-240940Y-98935D02*
D03*
Y-100903D02*
D03*
Y-102872D02*
D03*
Y-104840D02*
D03*
Y-106809D02*
D03*
Y-108777D02*
D03*
X-225586D02*
D03*
Y-106809D02*
D03*
Y-104840D02*
D03*
Y-102872D02*
D03*
Y-100903D02*
D03*
Y-98935D02*
D03*
X-324621Y-102872D02*
D03*
Y-104840D02*
D03*
Y-106809D02*
D03*
Y-108777D02*
D03*
Y-110746D02*
D03*
Y-112714D02*
D03*
X-309267D02*
D03*
Y-110746D02*
D03*
Y-108777D02*
D03*
Y-106809D02*
D03*
Y-104840D02*
D03*
Y-102872D02*
D03*
X-155113Y-69210D02*
D03*
Y-71179D02*
D03*
Y-73147D02*
D03*
Y-75116D02*
D03*
Y-77084D02*
D03*
Y-79053D02*
D03*
X-139759D02*
D03*
Y-77084D02*
D03*
Y-75116D02*
D03*
Y-73147D02*
D03*
Y-71179D02*
D03*
Y-69210D02*
D03*
D832*
X-238184Y-111533D02*
D03*
X-236216D02*
D03*
X-234247D02*
D03*
X-232279D02*
D03*
X-230310D02*
D03*
X-228342D02*
D03*
Y-96179D02*
D03*
X-230310D02*
D03*
X-232279D02*
D03*
X-234247D02*
D03*
X-236216D02*
D03*
X-238184D02*
D03*
X-321866Y-115470D02*
D03*
X-319897D02*
D03*
X-317929D02*
D03*
X-315960D02*
D03*
X-313991D02*
D03*
X-312023D02*
D03*
Y-100116D02*
D03*
X-313991D02*
D03*
X-315960D02*
D03*
X-317929D02*
D03*
X-319897D02*
D03*
X-321866D02*
D03*
X-152358Y-81809D02*
D03*
X-150389D02*
D03*
X-148421D02*
D03*
X-146452D02*
D03*
X-144484D02*
D03*
X-142515D02*
D03*
Y-66454D02*
D03*
X-144484D02*
D03*
X-146452D02*
D03*
X-148421D02*
D03*
X-150389D02*
D03*
X-152358D02*
D03*
D833*
X-222835Y-70866D02*
D03*
X-200984D02*
D03*
X-137008Y-41142D02*
D03*
X-115157D02*
D03*
X-306516Y-74803D02*
D03*
X-284665D02*
D03*
X-329417Y-75740D02*
D03*
X-351267D02*
D03*
X-181759Y-42079D02*
D03*
X-159909D02*
D03*
X-267586Y-71803D02*
D03*
X-245736D02*
D03*
D834*
X-74496Y167793D02*
D03*
Y179407D02*
D03*
X-121704Y145193D02*
D03*
Y156807D02*
D03*
X-665158Y138287D02*
D03*
Y149902D02*
D03*
X-393532Y122095D02*
D03*
Y133709D02*
D03*
X-375032D02*
D03*
Y122095D02*
D03*
X-73596Y160707D02*
D03*
Y149093D02*
D03*
X-121604Y163693D02*
D03*
Y175307D02*
D03*
D835*
X-80500Y173600D02*
D03*
X-115700Y151000D02*
D03*
X-659154Y144095D02*
D03*
X-387528Y127902D02*
D03*
X-381036D02*
D03*
X-79600Y154900D02*
D03*
X-115600Y169500D02*
D03*
D836*
X-137300Y-128171D02*
D03*
Y-112029D02*
D03*
D837*
X-271988Y417127D02*
D03*
X-275137D02*
D03*
X-278287D02*
D03*
X-290885D02*
D03*
X-294035D02*
D03*
X-297184D02*
D03*
X-271988Y413977D02*
D03*
X-275137D02*
D03*
X-278287D02*
D03*
X-290885D02*
D03*
X-294035D02*
D03*
X-297184D02*
D03*
X-271988Y410828D02*
D03*
X-275137D02*
D03*
X-278287D02*
D03*
X-290885D02*
D03*
X-294035D02*
D03*
X-297184D02*
D03*
X-271988Y407678D02*
D03*
X-275137D02*
D03*
X-278287D02*
D03*
X-290885D02*
D03*
X-294035D02*
D03*
X-297184D02*
D03*
X-271988Y404529D02*
D03*
X-275137D02*
D03*
X-278287D02*
D03*
X-290885D02*
D03*
X-294035D02*
D03*
X-297184D02*
D03*
X-271988Y401379D02*
D03*
X-275137D02*
D03*
X-278287D02*
D03*
X-290885D02*
D03*
X-294035D02*
D03*
X-297184D02*
D03*
X-271988Y398230D02*
D03*
X-275137D02*
D03*
X-278287D02*
D03*
X-290885D02*
D03*
X-294035D02*
D03*
X-297184D02*
D03*
X-271988Y395080D02*
D03*
X-275137D02*
D03*
X-278287D02*
D03*
X-290885D02*
D03*
X-294035D02*
D03*
X-297184D02*
D03*
X-271988Y391930D02*
D03*
X-275137D02*
D03*
X-278287D02*
D03*
X-290885D02*
D03*
X-294035D02*
D03*
X-297184D02*
D03*
X-271988Y388781D02*
D03*
X-275137D02*
D03*
X-278287D02*
D03*
X-290885D02*
D03*
X-294035D02*
D03*
X-297184D02*
D03*
X-271988Y385631D02*
D03*
X-275137D02*
D03*
X-278287D02*
D03*
X-290885D02*
D03*
X-294035D02*
D03*
X-297184D02*
D03*
X-271988Y382481D02*
D03*
X-275137D02*
D03*
X-278287D02*
D03*
X-290885D02*
D03*
X-294035D02*
D03*
X-297184D02*
D03*
X-271988Y379332D02*
D03*
X-275137D02*
D03*
X-278287D02*
D03*
X-290885D02*
D03*
X-294035D02*
D03*
X-297184D02*
D03*
X-143739Y417178D02*
D03*
X-146889D02*
D03*
X-150039D02*
D03*
X-162637D02*
D03*
X-165787D02*
D03*
X-168936D02*
D03*
X-143739Y414028D02*
D03*
X-146889D02*
D03*
X-150039D02*
D03*
X-162637D02*
D03*
X-165787D02*
D03*
X-168936D02*
D03*
X-143739Y410879D02*
D03*
X-146889D02*
D03*
X-150039D02*
D03*
X-162637D02*
D03*
X-165787D02*
D03*
X-168936D02*
D03*
X-143739Y407729D02*
D03*
X-146889D02*
D03*
X-150039D02*
D03*
X-162637D02*
D03*
X-165787D02*
D03*
X-168936D02*
D03*
X-143739Y404580D02*
D03*
X-146889D02*
D03*
X-150039D02*
D03*
X-162637D02*
D03*
X-165787D02*
D03*
X-168936D02*
D03*
X-143739Y401430D02*
D03*
X-146889D02*
D03*
X-150039D02*
D03*
X-162637D02*
D03*
X-165787D02*
D03*
X-168936D02*
D03*
X-143739Y398280D02*
D03*
X-146889D02*
D03*
X-150039D02*
D03*
X-162637D02*
D03*
X-165787D02*
D03*
X-168936D02*
D03*
X-143739Y395131D02*
D03*
X-146889D02*
D03*
X-150039D02*
D03*
X-162637D02*
D03*
X-165787D02*
D03*
X-168936D02*
D03*
X-143739Y391981D02*
D03*
X-146889D02*
D03*
X-150039D02*
D03*
X-162637D02*
D03*
X-165787D02*
D03*
X-168936D02*
D03*
X-143739Y388832D02*
D03*
X-146889D02*
D03*
X-150039D02*
D03*
X-162637D02*
D03*
X-165787D02*
D03*
X-168936D02*
D03*
X-143739Y385682D02*
D03*
X-146889D02*
D03*
X-150039D02*
D03*
X-162637D02*
D03*
X-165787D02*
D03*
X-168936D02*
D03*
X-143739Y382532D02*
D03*
X-146889D02*
D03*
X-150039D02*
D03*
X-162637D02*
D03*
X-165787D02*
D03*
X-168936D02*
D03*
X-143739Y379383D02*
D03*
X-146889D02*
D03*
X-150039D02*
D03*
X-162637D02*
D03*
X-165787D02*
D03*
X-168936D02*
D03*
X-186455Y417180D02*
D03*
X-189605D02*
D03*
X-192754D02*
D03*
X-205353D02*
D03*
X-208503D02*
D03*
X-211652D02*
D03*
X-186455Y414030D02*
D03*
X-189605D02*
D03*
X-192754D02*
D03*
X-205353D02*
D03*
X-208503D02*
D03*
X-211652D02*
D03*
X-186455Y410880D02*
D03*
X-189605D02*
D03*
X-192754D02*
D03*
X-205353D02*
D03*
X-208503D02*
D03*
X-211652D02*
D03*
X-186455Y407731D02*
D03*
X-189605D02*
D03*
X-192754D02*
D03*
X-205353D02*
D03*
X-208503D02*
D03*
X-211652D02*
D03*
X-186455Y404581D02*
D03*
X-189605D02*
D03*
X-192754D02*
D03*
X-205353D02*
D03*
X-208503D02*
D03*
X-211652D02*
D03*
X-186455Y401432D02*
D03*
X-189605D02*
D03*
X-192754D02*
D03*
X-205353D02*
D03*
X-208503D02*
D03*
X-211652D02*
D03*
X-186455Y398282D02*
D03*
X-189605D02*
D03*
X-192754D02*
D03*
X-205353D02*
D03*
X-208503D02*
D03*
X-211652D02*
D03*
X-186455Y395132D02*
D03*
X-189605D02*
D03*
X-192754D02*
D03*
X-205353D02*
D03*
X-208503D02*
D03*
X-211652D02*
D03*
X-186455Y391983D02*
D03*
X-189605D02*
D03*
X-192754D02*
D03*
X-205353D02*
D03*
X-208503D02*
D03*
X-211652D02*
D03*
X-186455Y388833D02*
D03*
X-189605D02*
D03*
X-192754D02*
D03*
X-205353D02*
D03*
X-208503D02*
D03*
X-211652D02*
D03*
X-186455Y385683D02*
D03*
X-189605D02*
D03*
X-192754D02*
D03*
X-205353D02*
D03*
X-208503D02*
D03*
X-211652D02*
D03*
X-186455Y382534D02*
D03*
X-189605D02*
D03*
X-192754D02*
D03*
X-205353D02*
D03*
X-208503D02*
D03*
X-211652D02*
D03*
X-186455Y379384D02*
D03*
X-189605D02*
D03*
X-192754D02*
D03*
X-205353D02*
D03*
X-208503D02*
D03*
X-211652D02*
D03*
X-229039Y417131D02*
D03*
X-232188D02*
D03*
X-235338D02*
D03*
X-247936D02*
D03*
X-251086D02*
D03*
X-254235D02*
D03*
X-229039Y413981D02*
D03*
X-232188D02*
D03*
X-235338D02*
D03*
X-247936D02*
D03*
X-251086D02*
D03*
X-254235D02*
D03*
X-229039Y410831D02*
D03*
X-232188D02*
D03*
X-235338D02*
D03*
X-247936D02*
D03*
X-251086D02*
D03*
X-254235D02*
D03*
X-229039Y407682D02*
D03*
X-232188D02*
D03*
X-235338D02*
D03*
X-247936D02*
D03*
X-251086D02*
D03*
X-254235D02*
D03*
X-229039Y404532D02*
D03*
X-232188D02*
D03*
X-235338D02*
D03*
X-247936D02*
D03*
X-251086D02*
D03*
X-254235D02*
D03*
X-229039Y401383D02*
D03*
X-232188D02*
D03*
X-235338D02*
D03*
X-247936D02*
D03*
X-251086D02*
D03*
X-254235D02*
D03*
X-229039Y398233D02*
D03*
X-232188D02*
D03*
X-235338D02*
D03*
X-247936D02*
D03*
X-251086D02*
D03*
X-254235D02*
D03*
X-229039Y395083D02*
D03*
X-232188D02*
D03*
X-235338D02*
D03*
X-247936D02*
D03*
X-251086D02*
D03*
X-254235D02*
D03*
X-229039Y391934D02*
D03*
X-232188D02*
D03*
X-235338D02*
D03*
X-247936D02*
D03*
X-251086D02*
D03*
X-254235D02*
D03*
X-229039Y388784D02*
D03*
X-232188D02*
D03*
X-235338D02*
D03*
X-247936D02*
D03*
X-251086D02*
D03*
X-254235D02*
D03*
X-229039Y385635D02*
D03*
X-232188D02*
D03*
X-235338D02*
D03*
X-247936D02*
D03*
X-251086D02*
D03*
X-254235D02*
D03*
X-229039Y382485D02*
D03*
X-232188D02*
D03*
X-235338D02*
D03*
X-247936D02*
D03*
X-251086D02*
D03*
X-254235D02*
D03*
X-229039Y379335D02*
D03*
X-232188D02*
D03*
X-235338D02*
D03*
X-247936D02*
D03*
X-251086D02*
D03*
X-254235D02*
D03*
D838*
X-374700Y415200D02*
D03*
X-411708D02*
D03*
D839*
X-393204D02*
D03*
D840*
X-157972Y294980D02*
D03*
Y319390D02*
D03*
D841*
X-331239Y50400D02*
D03*
X-356435D02*
D03*
X-276181Y42520D02*
D03*
X-250984D02*
D03*
X-276378Y61614D02*
D03*
X-251181D02*
D03*
X-331239Y31398D02*
D03*
X-356435D02*
D03*
D842*
X-371500Y247800D02*
D03*
X-248000Y78300D02*
D03*
X-400900Y389100D02*
D03*
X-387200Y110600D02*
D03*
X-387100Y247800D02*
D03*
X-307300Y354800D02*
D03*
X-207800Y141500D02*
D03*
M02*
