G04*
G04 #@! TF.GenerationSoftware,Altium Limited,Altium Designer,21.6.1 (37)*
G04*
G04 Layer_Color=8421504*
%FSLAX25Y25*%
%MOIN*%
G70*
G04*
G04 #@! TF.SameCoordinates,5F2E6CC5-E892-4DBC-A3D3-1DAF92D0A98F*
G04*
G04*
G04 #@! TF.FilePolarity,Positive*
G04*
G01*
G75*
%ADD24R,0.02362X0.02362*%
%ADD25R,0.02441X0.02284*%
%ADD26R,0.08465X0.06693*%
%ADD27R,0.05118X0.06083*%
%ADD28R,0.02953X0.07087*%
%ADD29R,0.07677X0.06102*%
%ADD30R,0.02165X0.06102*%
%ADD31R,0.02441X0.02441*%
%ADD32R,0.02284X0.02441*%
%ADD33P,0.03452X4X180.0*%
%ADD34R,0.01181X0.03347*%
G04:AMPARAMS|DCode=35|XSize=33.47mil|YSize=11.81mil|CornerRadius=0mil|HoleSize=0mil|Usage=FLASHONLY|Rotation=225.000|XOffset=0mil|YOffset=0mil|HoleType=Round|Shape=Rectangle|*
%AMROTATEDRECTD35*
4,1,4,0.00766,0.01601,0.01601,0.00766,-0.00766,-0.01601,-0.01601,-0.00766,0.00766,0.01601,0.0*
%
%ADD35ROTATEDRECTD35*%

G04:AMPARAMS|DCode=36|XSize=24.41mil|YSize=22.84mil|CornerRadius=0mil|HoleSize=0mil|Usage=FLASHONLY|Rotation=315.000|XOffset=0mil|YOffset=0mil|HoleType=Round|Shape=Rectangle|*
%AMROTATEDRECTD36*
4,1,4,-0.01670,0.00056,-0.00056,0.01670,0.01670,-0.00056,0.00056,-0.01670,-0.01670,0.00056,0.0*
%
%ADD36ROTATEDRECTD36*%

%ADD37R,0.01811X0.01654*%
%ADD38R,0.01968X0.03543*%
G04:AMPARAMS|DCode=39|XSize=24.41mil|YSize=22.84mil|CornerRadius=0mil|HoleSize=0mil|Usage=FLASHONLY|Rotation=45.000|XOffset=0mil|YOffset=0mil|HoleType=Round|Shape=Rectangle|*
%AMROTATEDRECTD39*
4,1,4,-0.00056,-0.01670,-0.01670,-0.00056,0.00056,0.01670,0.01670,0.00056,-0.00056,-0.01670,0.0*
%
%ADD39ROTATEDRECTD39*%

%ADD40R,0.05709X0.01772*%
%ADD41R,0.03937X0.03543*%
%ADD42R,0.03543X0.03937*%
%ADD43R,0.04134X0.02559*%
%ADD44R,0.01968X0.02953*%
%ADD45R,0.05315X0.01575*%
%ADD46R,0.07480X0.11417*%
%ADD47R,0.05906X0.01181*%
%ADD48R,0.05512X0.04724*%
%ADD49R,0.06693X0.09449*%
%ADD50R,0.07480X0.05118*%
%ADD51C,0.01968*%
%ADD52R,0.23032X0.21654*%
%ADD53R,0.08268X0.03937*%
G04:AMPARAMS|DCode=54|XSize=19.68mil|YSize=15.75mil|CornerRadius=1.97mil|HoleSize=0mil|Usage=FLASHONLY|Rotation=0.000|XOffset=0mil|YOffset=0mil|HoleType=Round|Shape=RoundedRectangle|*
%AMROUNDEDRECTD54*
21,1,0.01968,0.01181,0,0,0.0*
21,1,0.01575,0.01575,0,0,0.0*
1,1,0.00394,0.00787,-0.00591*
1,1,0.00394,-0.00787,-0.00591*
1,1,0.00394,-0.00787,0.00591*
1,1,0.00394,0.00787,0.00591*
%
%ADD54ROUNDEDRECTD54*%
G04:AMPARAMS|DCode=55|XSize=43.31mil|YSize=74.8mil|CornerRadius=1.58mil|HoleSize=0mil|Usage=FLASHONLY|Rotation=0.000|XOffset=0mil|YOffset=0mil|HoleType=Round|Shape=RoundedRectangle|*
%AMROUNDEDRECTD55*
21,1,0.04331,0.07165,0,0,0.0*
21,1,0.04016,0.07480,0,0,0.0*
1,1,0.00315,0.02008,-0.03583*
1,1,0.00315,-0.02008,-0.03583*
1,1,0.00315,-0.02008,0.03583*
1,1,0.00315,0.02008,0.03583*
%
%ADD55ROUNDEDRECTD55*%
%ADD56R,0.00906X0.02854*%
%ADD57R,0.03071X0.01575*%
%ADD58O,0.03347X0.01102*%
%ADD59O,0.01102X0.03347*%
%ADD60R,0.08071X0.15945*%
%ADD61R,0.04134X0.02362*%
%ADD62R,0.04331X0.02362*%
%ADD63R,0.02559X0.04134*%
%ADD64R,0.03937X0.02362*%
%ADD65R,0.03740X0.01575*%
%ADD66R,0.03937X0.03937*%
%ADD67R,0.05118X0.03937*%
%ADD68R,0.05118X0.02362*%
%ADD69R,0.05906X0.01772*%
%ADD70R,0.04331X0.01575*%
%ADD71R,0.09843X0.06890*%
%ADD72R,0.06102X0.02362*%
%ADD73R,0.02362X0.07874*%
%ADD74R,0.07874X0.02362*%
%ADD75R,0.01181X0.05906*%
%ADD76O,0.04134X0.01378*%
%ADD77O,0.01378X0.04134*%
%ADD78R,0.08858X0.08858*%
%ADD79O,0.03347X0.01181*%
%ADD80R,0.24410X0.24410*%
%ADD81O,0.01181X0.03347*%
%ADD82R,0.08661X0.08661*%
%ADD83O,0.01181X0.03543*%
%ADD84O,0.03543X0.01181*%
%ADD85O,0.02953X0.01181*%
%ADD86O,0.01181X0.02953*%
%ADD87R,0.07284X0.07284*%
%ADD88O,0.00787X0.03543*%
%ADD89O,0.00787X0.03150*%
%ADD90O,0.03150X0.00787*%
%ADD91O,0.03543X0.00787*%
%ADD92O,0.00787X0.03347*%
%ADD93O,0.03347X0.00787*%
%ADD94R,0.27165X0.27165*%
%ADD95R,0.06693X0.03150*%
%ADD96R,0.03150X0.03937*%
%ADD97R,0.02559X0.01968*%
%ADD98R,0.02756X0.03150*%
%ADD99R,0.01575X0.01575*%
%ADD100R,0.07087X0.06299*%
%ADD101R,0.05709X0.04528*%
%ADD102R,0.03937X0.03937*%
%ADD103R,0.02362X0.02441*%
%ADD104R,0.06693X0.11811*%
%ADD105P,0.05568X4X360.0*%
%ADD106R,0.08661X0.06102*%
G04:AMPARAMS|DCode=107|XSize=15.75mil|YSize=25.59mil|CornerRadius=1.97mil|HoleSize=0mil|Usage=FLASHONLY|Rotation=0.000|XOffset=0mil|YOffset=0mil|HoleType=Round|Shape=RoundedRectangle|*
%AMROUNDEDRECTD107*
21,1,0.01575,0.02165,0,0,0.0*
21,1,0.01181,0.02559,0,0,0.0*
1,1,0.00394,0.00591,-0.01083*
1,1,0.00394,-0.00591,-0.01083*
1,1,0.00394,-0.00591,0.01083*
1,1,0.00394,0.00591,0.01083*
%
%ADD107ROUNDEDRECTD107*%
%ADD108R,0.09252X0.09646*%
%ADD109R,0.07087X0.04921*%
%ADD110R,0.04528X0.10630*%
%ADD111R,0.04528X0.07087*%
%ADD112R,0.05512X0.04134*%
%ADD113R,0.03740X0.04134*%
%ADD114R,0.03740X0.03937*%
%ADD115R,0.03150X0.03740*%
%ADD116R,0.01772X0.01575*%
%ADD117R,0.04528X0.07087*%
%ADD118R,0.07087X0.04528*%
%ADD119R,0.02362X0.02362*%
%ADD120R,0.01575X0.01772*%
%ADD121R,0.07087X0.04528*%
%ADD122R,0.09016X0.07992*%
%ADD123R,0.05512X0.02992*%
%ADD124R,0.12598X0.02756*%
%ADD125R,0.06693X0.02756*%
%ADD126R,0.02756X0.12598*%
%ADD127R,0.02756X0.06693*%
%ADD128R,0.02441X0.02441*%
%ADD129R,0.03937X0.03740*%
%ADD130R,0.04528X0.05709*%
%ADD131R,0.01772X0.05906*%
%ADD132P,0.03341X4X90.0*%
%ADD133R,0.03150X0.03150*%
G04:AMPARAMS|DCode=134|XSize=17.72mil|YSize=15.75mil|CornerRadius=0mil|HoleSize=0mil|Usage=FLASHONLY|Rotation=315.000|XOffset=0mil|YOffset=0mil|HoleType=Round|Shape=Rectangle|*
%AMROTATEDRECTD134*
4,1,4,-0.01183,0.00070,-0.00070,0.01183,0.01183,-0.00070,0.00070,-0.01183,-0.01183,0.00070,0.0*
%
%ADD134ROTATEDRECTD134*%

%ADD135R,0.04134X0.05512*%
%ADD136R,0.03150X0.03150*%
%ADD137R,0.02362X0.03937*%
%ADD138R,0.02362X0.06102*%
G04:AMPARAMS|DCode=139|XSize=23.62mil|YSize=61.02mil|CornerRadius=0mil|HoleSize=0mil|Usage=FLASHONLY|Rotation=225.000|XOffset=0mil|YOffset=0mil|HoleType=Round|Shape=Rectangle|*
%AMROTATEDRECTD139*
4,1,4,-0.01322,0.02993,0.02993,-0.01322,0.01322,-0.02993,-0.02993,0.01322,-0.01322,0.02993,0.0*
%
%ADD139ROTATEDRECTD139*%

G04:AMPARAMS|DCode=140|XSize=17.72mil|YSize=15.75mil|CornerRadius=0mil|HoleSize=0mil|Usage=FLASHONLY|Rotation=225.000|XOffset=0mil|YOffset=0mil|HoleType=Round|Shape=Rectangle|*
%AMROTATEDRECTD140*
4,1,4,0.00070,0.01183,0.01183,0.00070,-0.00070,-0.01183,-0.01183,-0.00070,0.00070,0.01183,0.0*
%
%ADD140ROTATEDRECTD140*%

G04:AMPARAMS|DCode=141|XSize=17.72mil|YSize=15.75mil|CornerRadius=0mil|HoleSize=0mil|Usage=FLASHONLY|Rotation=80.000|XOffset=0mil|YOffset=0mil|HoleType=Round|Shape=Rectangle|*
%AMROTATEDRECTD141*
4,1,4,0.00622,-0.01009,-0.00929,-0.00736,-0.00622,0.01009,0.00929,0.00736,0.00622,-0.01009,0.0*
%
%ADD141ROTATEDRECTD141*%

G04:AMPARAMS|DCode=142|XSize=17.72mil|YSize=15.75mil|CornerRadius=0mil|HoleSize=0mil|Usage=FLASHONLY|Rotation=290.000|XOffset=0mil|YOffset=0mil|HoleType=Round|Shape=Rectangle|*
%AMROTATEDRECTD142*
4,1,4,-0.01043,0.00563,0.00437,0.01102,0.01043,-0.00563,-0.00437,-0.01102,-0.01043,0.00563,0.0*
%
%ADD142ROTATEDRECTD142*%

%ADD143R,0.03543X0.01968*%
%ADD144R,0.02992X0.05512*%
%ADD145R,0.07992X0.09016*%
%ADD146R,0.10630X0.04528*%
G04:AMPARAMS|DCode=147|XSize=37.4mil|YSize=39.37mil|CornerRadius=0mil|HoleSize=0mil|Usage=FLASHONLY|Rotation=315.000|XOffset=0mil|YOffset=0mil|HoleType=Round|Shape=Rectangle|*
%AMROTATEDRECTD147*
4,1,4,-0.02714,-0.00070,0.00070,0.02714,0.02714,0.00070,-0.00070,-0.02714,-0.02714,-0.00070,0.0*
%
%ADD147ROTATEDRECTD147*%

%ADD148R,0.01654X0.01811*%
%ADD149R,0.03347X0.01181*%
%ADD150R,0.02953X0.01968*%
%ADD151R,0.05906X0.03937*%
%ADD152R,0.03937X0.05906*%
%ADD153R,0.06299X0.07087*%
%ADD154R,0.07284X0.07284*%
%ADD155R,0.04134X0.02362*%
%ADD156R,0.01575X0.04331*%
%ADD157R,0.02441X0.02362*%
%ADD158R,0.05512X0.11614*%
%ADD159R,0.11614X0.05512*%
%ADD160R,0.04134X0.03740*%
G36*
X-140375Y116078D02*
X-147776D01*
Y122771D01*
X-140375D01*
Y116078D01*
D02*
G37*
G36*
X-150532D02*
X-157934D01*
Y122771D01*
X-150532D01*
Y116078D01*
D02*
G37*
G36*
X-140375Y106629D02*
X-147776D01*
Y113322D01*
X-140375D01*
Y106629D01*
D02*
G37*
G36*
X-150532D02*
X-157934D01*
Y113322D01*
X-150532D01*
Y106629D01*
D02*
G37*
G36*
X-569607Y72847D02*
Y66154D01*
X-572363Y63201D01*
X-575119D01*
Y75799D01*
X-572363D01*
X-569607Y72847D01*
D02*
G37*
G36*
X-577481Y63201D02*
X-580237D01*
X-582993Y66154D01*
Y72847D01*
X-580237Y75799D01*
X-577481D01*
Y63201D01*
D02*
G37*
G36*
X-617540Y57847D02*
X-625257D01*
Y65564D01*
X-617540D01*
Y57847D01*
D02*
G37*
G36*
X-628249D02*
X-635965D01*
Y65564D01*
X-628249D01*
Y57847D01*
D02*
G37*
G36*
X-617540Y47139D02*
X-625257D01*
Y54855D01*
X-617540D01*
Y47139D01*
D02*
G37*
G36*
X-628249D02*
X-635965D01*
Y54855D01*
X-628249D01*
Y47139D01*
D02*
G37*
G36*
X-522239Y-14873D02*
X-530821D01*
Y-6290D01*
X-522239D01*
Y-14873D01*
D02*
G37*
G36*
X-534128D02*
X-542711D01*
Y-6290D01*
X-534128D01*
Y-14873D01*
D02*
G37*
G36*
X-674902Y-19390D02*
Y-22146D01*
X-687500D01*
Y-19390D01*
X-684547Y-16634D01*
X-677854D01*
X-674902Y-19390D01*
D02*
G37*
G36*
X-522239Y-26762D02*
X-530821D01*
Y-18180D01*
X-522239D01*
Y-26762D01*
D02*
G37*
G36*
X-534128D02*
X-542711D01*
Y-18180D01*
X-534128D01*
Y-26762D01*
D02*
G37*
G36*
X-674902Y-27264D02*
X-677854Y-30020D01*
X-684547D01*
X-687500Y-27264D01*
Y-24508D01*
X-674902D01*
Y-27264D01*
D02*
G37*
D24*
X-666800Y-43200D02*
D03*
X-670343D02*
D03*
X-493828Y49800D02*
D03*
X-497372D02*
D03*
X-88976Y188386D02*
D03*
X-92520D02*
D03*
X-76328Y169800D02*
D03*
X-79872D02*
D03*
X-555472Y110100D02*
D03*
X-551928D02*
D03*
X-599072Y122300D02*
D03*
X-595528D02*
D03*
X-595428Y74000D02*
D03*
X-598972D02*
D03*
X-623917Y332185D02*
D03*
X-620374D02*
D03*
X-584623Y153283D02*
D03*
X-588166D02*
D03*
X-625928Y-87100D02*
D03*
X-629472D02*
D03*
X-678051Y15551D02*
D03*
X-681595D02*
D03*
X-600141Y318639D02*
D03*
X-603684D02*
D03*
X-418110Y80610D02*
D03*
X-414567D02*
D03*
X-545571Y390551D02*
D03*
X-542028D02*
D03*
X-545669Y386417D02*
D03*
X-542126D02*
D03*
X-545669Y382579D02*
D03*
X-542126D02*
D03*
X-554972Y399300D02*
D03*
X-551428D02*
D03*
X-545669Y378937D02*
D03*
X-542126D02*
D03*
X-545669Y375295D02*
D03*
X-542126D02*
D03*
X-545669Y371358D02*
D03*
X-542126D02*
D03*
X-545669Y367618D02*
D03*
X-542126D02*
D03*
X-545669Y363484D02*
D03*
X-542126D02*
D03*
X-545669Y359646D02*
D03*
X-542126D02*
D03*
X-635729Y384252D02*
D03*
X-639272D02*
D03*
X-635728Y380315D02*
D03*
X-639272D02*
D03*
X-533957Y386614D02*
D03*
X-537500D02*
D03*
X-534154Y382579D02*
D03*
X-537697D02*
D03*
X-534252Y378839D02*
D03*
X-537795D02*
D03*
X-534350Y375295D02*
D03*
X-537894D02*
D03*
X-514528Y365000D02*
D03*
X-518072D02*
D03*
X-498928Y99000D02*
D03*
X-502472D02*
D03*
X-519882Y384744D02*
D03*
X-523425D02*
D03*
X-503839Y78839D02*
D03*
X-500295D02*
D03*
X-334272Y-99000D02*
D03*
X-330728D02*
D03*
X-305772Y17100D02*
D03*
X-302228D02*
D03*
X-299428Y-107900D02*
D03*
X-302972D02*
D03*
X-154228Y-61600D02*
D03*
X-157772D02*
D03*
X-130328Y-74600D02*
D03*
X-133872D02*
D03*
X-367323Y-79823D02*
D03*
X-363779D02*
D03*
X-384429Y400394D02*
D03*
X-387972D02*
D03*
X-250572Y-95100D02*
D03*
X-247028D02*
D03*
X-531172Y324700D02*
D03*
X-527628D02*
D03*
X-647736Y378051D02*
D03*
X-644193D02*
D03*
X-647638Y384449D02*
D03*
X-644095D02*
D03*
X-533465Y359547D02*
D03*
X-537008D02*
D03*
X-533563Y364272D02*
D03*
X-537106D02*
D03*
X-532776Y370768D02*
D03*
X-536319D02*
D03*
X-528772Y358800D02*
D03*
X-525228D02*
D03*
X-374572Y-79700D02*
D03*
X-371028D02*
D03*
X-252928Y19500D02*
D03*
X-256472D02*
D03*
X-195528Y68200D02*
D03*
X-199072D02*
D03*
X-231657Y402512D02*
D03*
X-228114D02*
D03*
X-146358Y402461D02*
D03*
X-142815D02*
D03*
X-633366Y340945D02*
D03*
X-629823D02*
D03*
X-583659Y164968D02*
D03*
X-587202D02*
D03*
X-274606Y402508D02*
D03*
X-271063D02*
D03*
X-189075Y402559D02*
D03*
X-185531D02*
D03*
X-618701Y406201D02*
D03*
X-622244D02*
D03*
X-618602Y401772D02*
D03*
X-622146D02*
D03*
X-639370Y360531D02*
D03*
X-635827D02*
D03*
X-331398Y401327D02*
D03*
X-334941Y401327D02*
D03*
X-331398Y406051D02*
D03*
X-334941D02*
D03*
X-307677Y412350D02*
D03*
X-311221Y412350D02*
D03*
X-331398Y410776D02*
D03*
X-334941Y410775D02*
D03*
X-309646Y415697D02*
D03*
X-313189Y415697D02*
D03*
X-309646Y419043D02*
D03*
X-313189D02*
D03*
X-331398Y420224D02*
D03*
X-334941D02*
D03*
X-331398Y415500D02*
D03*
X-334941D02*
D03*
X-331398Y387153D02*
D03*
X-334941D02*
D03*
X-331398Y396602D02*
D03*
X-334941D02*
D03*
X-331398Y391878D02*
D03*
X-334941Y391878D02*
D03*
X-331398Y377705D02*
D03*
X-334941Y377705D02*
D03*
X-331398Y382429D02*
D03*
X-334941D02*
D03*
X-667028Y-83268D02*
D03*
X-663484D02*
D03*
X-224528Y236500D02*
D03*
X-228072D02*
D03*
X-270177Y246457D02*
D03*
X-273721D02*
D03*
X-645757Y328751D02*
D03*
X-642214D02*
D03*
X-627328Y-90900D02*
D03*
X-630872D02*
D03*
X-679331Y271715D02*
D03*
X-675787D02*
D03*
X-679331Y280315D02*
D03*
X-675787D02*
D03*
X-679331Y288915D02*
D03*
X-675787D02*
D03*
X-354114Y403937D02*
D03*
X-350571D02*
D03*
X-259057Y25278D02*
D03*
X-262600D02*
D03*
X-667224Y-87992D02*
D03*
X-663681D02*
D03*
X-316929Y236417D02*
D03*
X-320472D02*
D03*
X-612372Y-86500D02*
D03*
X-608828D02*
D03*
X-302128Y21800D02*
D03*
X-305672D02*
D03*
X-302228Y25600D02*
D03*
X-305772D02*
D03*
X-260628Y19400D02*
D03*
X-264172D02*
D03*
D25*
X-669587Y1791D02*
D03*
Y5492D02*
D03*
X-680020Y-56161D02*
D03*
Y-52461D02*
D03*
X-676476D02*
D03*
Y-56161D02*
D03*
X-516634Y-65827D02*
D03*
Y-62126D02*
D03*
Y-54843D02*
D03*
Y-58543D02*
D03*
X-642224Y238012D02*
D03*
Y241713D02*
D03*
X-649221Y234154D02*
D03*
Y230453D02*
D03*
X-669587Y9370D02*
D03*
Y13071D02*
D03*
X-394400Y172100D02*
D03*
Y175801D02*
D03*
X-600100Y327150D02*
D03*
Y330850D02*
D03*
X-606000Y81450D02*
D03*
Y85150D02*
D03*
X-620900Y-87750D02*
D03*
Y-84050D02*
D03*
X-645300Y184150D02*
D03*
Y187850D02*
D03*
X-330100Y-26550D02*
D03*
Y-30250D02*
D03*
X-291400Y6950D02*
D03*
Y10650D02*
D03*
X-539300Y235350D02*
D03*
Y239050D02*
D03*
X-527900Y307150D02*
D03*
Y310850D02*
D03*
X-606000Y88850D02*
D03*
Y92550D02*
D03*
Y99050D02*
D03*
Y102750D02*
D03*
X-651900Y194150D02*
D03*
Y190450D02*
D03*
X-629331Y154252D02*
D03*
Y157953D02*
D03*
X-533800Y247350D02*
D03*
Y243650D02*
D03*
X-488700Y-68350D02*
D03*
Y-72050D02*
D03*
X-471100Y-86000D02*
D03*
Y-89701D02*
D03*
Y-82200D02*
D03*
Y-78499D02*
D03*
X-635700Y157850D02*
D03*
Y161550D02*
D03*
X-600800Y132050D02*
D03*
Y128350D02*
D03*
X-646400Y152750D02*
D03*
Y149050D02*
D03*
X-641500Y187850D02*
D03*
Y184150D02*
D03*
X-635800Y173050D02*
D03*
Y169350D02*
D03*
X-632000Y173050D02*
D03*
Y169350D02*
D03*
X-628200Y173050D02*
D03*
Y169350D02*
D03*
X-593500Y148350D02*
D03*
Y144650D02*
D03*
X-379600Y-80650D02*
D03*
Y-76950D02*
D03*
X-529900Y247350D02*
D03*
Y243650D02*
D03*
X-191700Y-14550D02*
D03*
Y-10850D02*
D03*
X-476004Y192000D02*
D03*
Y188299D02*
D03*
X-476000Y195800D02*
D03*
Y199501D02*
D03*
X-518400Y358250D02*
D03*
Y354550D02*
D03*
X-506300Y102650D02*
D03*
Y98950D02*
D03*
X-79900Y166150D02*
D03*
Y162450D02*
D03*
X-643300Y22550D02*
D03*
Y18850D02*
D03*
Y27750D02*
D03*
Y31450D02*
D03*
X-622650Y22700D02*
D03*
Y19000D02*
D03*
X-607600Y-101101D02*
D03*
Y-97400D02*
D03*
X-652398Y91736D02*
D03*
Y88036D02*
D03*
X-647617Y86374D02*
D03*
Y82674D02*
D03*
X-622400Y-29850D02*
D03*
Y-33550D02*
D03*
X-663500Y86350D02*
D03*
Y82650D02*
D03*
X-609800Y85250D02*
D03*
Y81550D02*
D03*
X-613400Y85250D02*
D03*
Y81550D02*
D03*
X-546100Y248550D02*
D03*
Y244850D02*
D03*
X-518900Y283250D02*
D03*
Y279550D02*
D03*
X-513800Y283250D02*
D03*
Y279550D02*
D03*
X-530900Y279050D02*
D03*
Y282750D02*
D03*
X-527100Y281150D02*
D03*
Y284850D02*
D03*
X-524000Y247350D02*
D03*
Y243650D02*
D03*
X-520100Y247350D02*
D03*
Y243650D02*
D03*
X-512900Y249950D02*
D03*
Y246250D02*
D03*
X-509000Y249950D02*
D03*
Y246250D02*
D03*
X-520500Y239750D02*
D03*
Y236050D02*
D03*
X-512300Y239350D02*
D03*
Y235650D02*
D03*
X-532424Y235490D02*
D03*
Y239191D02*
D03*
X-528600Y235450D02*
D03*
Y239150D02*
D03*
X-586721Y160469D02*
D03*
Y156768D02*
D03*
X-116700Y-132350D02*
D03*
Y-128650D02*
D03*
X-636200Y-81250D02*
D03*
Y-84950D02*
D03*
X-513600Y-79050D02*
D03*
Y-82750D02*
D03*
X-575200Y412150D02*
D03*
Y408450D02*
D03*
X-653600Y316750D02*
D03*
Y320450D02*
D03*
X-649800Y316750D02*
D03*
Y320450D02*
D03*
X-549300Y-89350D02*
D03*
Y-93050D02*
D03*
X-558100Y-79950D02*
D03*
Y-83650D02*
D03*
Y-72150D02*
D03*
Y-68450D02*
D03*
X-483600Y343750D02*
D03*
Y340050D02*
D03*
X-471200Y215350D02*
D03*
Y219050D02*
D03*
X-470931Y232980D02*
D03*
Y236681D02*
D03*
X-607600Y-93801D02*
D03*
Y-90100D02*
D03*
X-361800Y-106950D02*
D03*
Y-103250D02*
D03*
X-390600Y167999D02*
D03*
Y171700D02*
D03*
D26*
X-646161Y-13917D02*
D03*
Y-23917D02*
D03*
X-629626Y-33917D02*
D03*
X-646161D02*
D03*
X-629626Y-23917D02*
D03*
Y-13917D02*
D03*
X-646161D02*
D03*
Y-23917D02*
D03*
X-629626Y-33917D02*
D03*
X-646161D02*
D03*
X-629626Y-23917D02*
D03*
Y-13917D02*
D03*
X-641240Y-50443D02*
D03*
Y-60443D02*
D03*
X-624705Y-70443D02*
D03*
X-641240D02*
D03*
X-624705Y-60443D02*
D03*
Y-50443D02*
D03*
D27*
X-637894Y-35148D02*
D03*
Y-12687D02*
D03*
Y-35148D02*
D03*
Y-12687D02*
D03*
X-632972Y-71673D02*
D03*
Y-49213D02*
D03*
D28*
X-637894Y-12008D02*
D03*
Y-35827D02*
D03*
X-632972Y-48533D02*
D03*
Y-72352D02*
D03*
D29*
X-629626Y-13917D02*
D03*
Y-23917D02*
D03*
X-646161Y-33917D02*
D03*
X-629626D02*
D03*
X-646161Y-23917D02*
D03*
Y-13917D02*
D03*
X-624705Y-50443D02*
D03*
Y-60443D02*
D03*
X-641240Y-70443D02*
D03*
X-624705D02*
D03*
X-641240Y-60443D02*
D03*
Y-50443D02*
D03*
D30*
X-630039Y256693D02*
D03*
X-625039D02*
D03*
X-620039D02*
D03*
X-615039D02*
D03*
Y286614D02*
D03*
X-620039D02*
D03*
X-625039D02*
D03*
X-630039D02*
D03*
D31*
X-487244Y-78895D02*
D03*
X-483701D02*
D03*
X-512500Y-54823D02*
D03*
X-508957D02*
D03*
X-518035Y-71100D02*
D03*
X-521578D02*
D03*
X-662706Y221969D02*
D03*
X-659162D02*
D03*
X-394072Y-71700D02*
D03*
X-390528D02*
D03*
X-568898Y-37474D02*
D03*
X-565355D02*
D03*
X-384626Y394291D02*
D03*
X-388169D02*
D03*
X-617832Y412402D02*
D03*
X-621376D02*
D03*
X-273031Y19461D02*
D03*
X-269488D02*
D03*
X-195177Y50886D02*
D03*
X-191634D02*
D03*
X-514572Y341100D02*
D03*
X-511028D02*
D03*
X-509772Y-82600D02*
D03*
X-506228D02*
D03*
X-601445Y47528D02*
D03*
X-604989D02*
D03*
X-662399Y73778D02*
D03*
X-665942D02*
D03*
D32*
X-463071Y-49606D02*
D03*
X-459370D02*
D03*
X-493268Y-78895D02*
D03*
X-496969D02*
D03*
X-613650Y121949D02*
D03*
X-617350D02*
D03*
X-509350Y-62089D02*
D03*
X-513051D02*
D03*
X-509350Y-58448D02*
D03*
X-513051D02*
D03*
X-378720Y-119390D02*
D03*
X-375020D02*
D03*
X-593327Y128543D02*
D03*
X-597028Y128543D02*
D03*
X-654517Y221969D02*
D03*
X-650816D02*
D03*
X-633632Y337213D02*
D03*
X-629931D02*
D03*
X-660453Y4232D02*
D03*
X-664153D02*
D03*
X-640550Y-99200D02*
D03*
X-644250D02*
D03*
X-639450Y192600D02*
D03*
X-635750D02*
D03*
X-643150Y158000D02*
D03*
X-639450D02*
D03*
X-548650Y334800D02*
D03*
X-552350D02*
D03*
Y338600D02*
D03*
X-548650D02*
D03*
X-537850Y336400D02*
D03*
X-534150D02*
D03*
X-530550Y329300D02*
D03*
X-526850D02*
D03*
X-526750Y336400D02*
D03*
X-530450D02*
D03*
X-646350Y135600D02*
D03*
X-650050D02*
D03*
X-611250Y142700D02*
D03*
X-607550D02*
D03*
X-611350Y130700D02*
D03*
X-607650D02*
D03*
X-484950Y-70100D02*
D03*
X-481250D02*
D03*
X-656850Y184600D02*
D03*
X-653150D02*
D03*
X-646250Y144500D02*
D03*
X-649950D02*
D03*
X-632050Y192600D02*
D03*
X-628350D02*
D03*
X-499650Y-37700D02*
D03*
X-503350D02*
D03*
X-495250Y-63600D02*
D03*
X-491550D02*
D03*
X-523450Y32400D02*
D03*
X-527150D02*
D03*
X-471100Y-86000D02*
D03*
X-467399D02*
D03*
X-542050Y32600D02*
D03*
X-538350D02*
D03*
X-611350Y150700D02*
D03*
X-607650D02*
D03*
X-611350Y138900D02*
D03*
X-607650D02*
D03*
X-603950Y150600D02*
D03*
X-600250D02*
D03*
X-583616Y168789D02*
D03*
X-587317D02*
D03*
X-650050Y131800D02*
D03*
X-646350D02*
D03*
X-613650Y125700D02*
D03*
X-617350D02*
D03*
X-597650Y135800D02*
D03*
X-601350D02*
D03*
X-607650Y146900D02*
D03*
X-611350D02*
D03*
X-650050Y139400D02*
D03*
X-646350D02*
D03*
X-574150Y158000D02*
D03*
X-577850D02*
D03*
X-376050Y-84400D02*
D03*
X-379750D02*
D03*
X-567550Y144100D02*
D03*
X-563850D02*
D03*
X-546650Y147200D02*
D03*
X-550350D02*
D03*
X-197050Y3500D02*
D03*
X-200750D02*
D03*
X-471100Y-82200D02*
D03*
X-467399D02*
D03*
X-476000Y195800D02*
D03*
X-472299D02*
D03*
X-495262Y-59827D02*
D03*
X-491561D02*
D03*
X-497050Y-67300D02*
D03*
X-500750D02*
D03*
X-497061Y-71227D02*
D03*
X-500762D02*
D03*
X-633250Y14600D02*
D03*
X-629550D02*
D03*
X-620250Y30000D02*
D03*
X-616550D02*
D03*
X-648196Y58989D02*
D03*
X-651897D02*
D03*
X-648306Y40327D02*
D03*
X-652007D02*
D03*
X-648517Y44346D02*
D03*
X-652218D02*
D03*
X-650230Y98853D02*
D03*
X-646529D02*
D03*
X-643958Y103371D02*
D03*
X-640257D02*
D03*
X-588350Y30200D02*
D03*
X-584650D02*
D03*
X-631450Y-41000D02*
D03*
X-635150D02*
D03*
X-641550Y-5500D02*
D03*
X-637850D02*
D03*
X-656750Y-10045D02*
D03*
X-653050D02*
D03*
X-588350Y34100D02*
D03*
X-584650D02*
D03*
X-602850Y68500D02*
D03*
X-606550D02*
D03*
X-582062Y50173D02*
D03*
X-578361D02*
D03*
X-582050Y54400D02*
D03*
X-578350D02*
D03*
X-542550Y272800D02*
D03*
X-546250D02*
D03*
X-542550Y269000D02*
D03*
X-546250D02*
D03*
X-546150Y264500D02*
D03*
X-549850D02*
D03*
X-546150Y260700D02*
D03*
X-549850D02*
D03*
X-531750Y275300D02*
D03*
X-535450D02*
D03*
X-513650Y273100D02*
D03*
X-509950D02*
D03*
X-542450Y256100D02*
D03*
X-546150D02*
D03*
X-542450Y252400D02*
D03*
X-546150D02*
D03*
X-511350Y256800D02*
D03*
X-507650D02*
D03*
X-511350Y260700D02*
D03*
X-507650D02*
D03*
X-509850Y264600D02*
D03*
X-506150D02*
D03*
X-509850Y268500D02*
D03*
X-506150D02*
D03*
X-513950Y231900D02*
D03*
X-510250D02*
D03*
X-647150Y-40400D02*
D03*
X-650850D02*
D03*
X-658250D02*
D03*
X-654550D02*
D03*
X-476004Y192000D02*
D03*
X-472303D02*
D03*
X-545650Y32400D02*
D03*
X-549350D02*
D03*
X-560850Y32300D02*
D03*
X-557150D02*
D03*
X-536450Y58300D02*
D03*
X-540150D02*
D03*
X-552250D02*
D03*
X-548550D02*
D03*
X-672501Y-15100D02*
D03*
X-668800D02*
D03*
X-555804Y-107471D02*
D03*
X-559505D02*
D03*
X-555804Y-112471D02*
D03*
X-559505D02*
D03*
X-555804Y-117471D02*
D03*
X-559505D02*
D03*
X-98750Y-59500D02*
D03*
X-95050D02*
D03*
Y-85100D02*
D03*
X-98750D02*
D03*
X-221750Y-24400D02*
D03*
X-225450D02*
D03*
X-221450Y300D02*
D03*
X-225150D02*
D03*
X-214350Y-21400D02*
D03*
X-218050D02*
D03*
X-200150Y-22100D02*
D03*
X-203850D02*
D03*
X-661831Y304331D02*
D03*
X-665531D02*
D03*
X-651750Y301300D02*
D03*
X-655450D02*
D03*
X-539450Y-133100D02*
D03*
X-543150D02*
D03*
X-478150Y128400D02*
D03*
X-474450D02*
D03*
X-476250Y205500D02*
D03*
X-472550D02*
D03*
X-471350Y209900D02*
D03*
X-467650D02*
D03*
X-475650Y222800D02*
D03*
X-471950D02*
D03*
X-471050Y227300D02*
D03*
X-467350D02*
D03*
X-503350Y-41300D02*
D03*
X-499650D02*
D03*
X-555750Y309300D02*
D03*
X-559450D02*
D03*
X-555750Y305400D02*
D03*
X-559450D02*
D03*
D33*
X-472513Y-62428D02*
D03*
X-470007Y-64934D02*
D03*
X-487769Y-53964D02*
D03*
X-485263Y-56469D02*
D03*
D34*
X-520633Y-66902D02*
D03*
X-522602D02*
D03*
X-524570D02*
D03*
X-526539D02*
D03*
Y-54698D02*
D03*
X-524570D02*
D03*
X-522602D02*
D03*
X-520633D02*
D03*
X-370748Y401181D02*
D03*
X-368779Y401181D02*
D03*
X-366811D02*
D03*
X-364843D02*
D03*
X-362874Y401181D02*
D03*
Y412992D02*
D03*
X-364843Y412992D02*
D03*
X-366811D02*
D03*
X-368779D02*
D03*
X-370748Y412992D02*
D03*
D35*
X-470369Y-46297D02*
D03*
X-471761Y-44905D02*
D03*
X-473153Y-43513D02*
D03*
X-474544Y-42121D02*
D03*
X-483175Y-50751D02*
D03*
X-481783Y-52143D02*
D03*
X-480391Y-53535D02*
D03*
X-478999Y-54927D02*
D03*
D36*
X-468180Y-49774D02*
D03*
X-470797Y-52391D02*
D03*
X-476702Y-58297D02*
D03*
X-474085Y-55680D02*
D03*
D37*
X-425898Y116700D02*
D03*
X-423300D02*
D03*
D03*
X-420702D02*
D03*
X-531699Y87100D02*
D03*
X-529101D02*
D03*
X-441199Y-67900D02*
D03*
X-438601D02*
D03*
X-392024Y93700D02*
D03*
X-394623D02*
D03*
D03*
X-397221D02*
D03*
X-441099Y-73000D02*
D03*
X-438501D02*
D03*
X-392024Y90600D02*
D03*
X-394623D02*
D03*
D03*
X-397221D02*
D03*
X-420702Y119800D02*
D03*
X-423300D02*
D03*
D03*
X-425898D02*
D03*
X-461399Y-52800D02*
D03*
X-458801D02*
D03*
X-436801Y16900D02*
D03*
X-439399D02*
D03*
X-461399Y-57800D02*
D03*
X-458801D02*
D03*
X-433701Y22300D02*
D03*
X-436299D02*
D03*
X-455099Y-57600D02*
D03*
X-452501D02*
D03*
X-384901Y110600D02*
D03*
X-387499D02*
D03*
X-455899Y-63200D02*
D03*
X-453301D02*
D03*
X-384901Y107600D02*
D03*
X-387499D02*
D03*
X-442499Y-57800D02*
D03*
X-439901D02*
D03*
X-434601Y-53100D02*
D03*
X-437199D02*
D03*
X-436499Y-57800D02*
D03*
X-433901D02*
D03*
X-366700Y116600D02*
D03*
X-369298D02*
D03*
X-436499Y-62900D02*
D03*
X-433901D02*
D03*
X-366700Y119700D02*
D03*
X-369298D02*
D03*
X-460001Y-37400D02*
D03*
X-462599D02*
D03*
X-403984Y53100D02*
D03*
X-406582D02*
D03*
D03*
X-409181D02*
D03*
X-459901Y-42400D02*
D03*
X-462499D02*
D03*
X-403984Y46400D02*
D03*
X-406582D02*
D03*
D03*
X-409181D02*
D03*
X-456299Y-47900D02*
D03*
X-453701D02*
D03*
X-456299Y-42800D02*
D03*
X-453701D02*
D03*
X-430101Y52000D02*
D03*
X-432699D02*
D03*
X-441399Y47800D02*
D03*
X-438801D02*
D03*
X-432401Y-42900D02*
D03*
X-434999D02*
D03*
X-433699Y47100D02*
D03*
X-431101D02*
D03*
X-426601Y-42800D02*
D03*
X-429199D02*
D03*
X-433599Y42000D02*
D03*
X-431001D02*
D03*
X-466599Y-25400D02*
D03*
X-464001D02*
D03*
X-466599Y-30400D02*
D03*
X-464001D02*
D03*
X-466599Y4300D02*
D03*
X-464001D02*
D03*
X-466599Y-500D02*
D03*
X-464001D02*
D03*
X-375001Y102200D02*
D03*
X-377599D02*
D03*
X-377601D02*
D03*
X-380199D02*
D03*
X-375002Y97400D02*
D03*
X-377600D02*
D03*
D03*
X-380198D02*
D03*
X-433399Y91600D02*
D03*
X-430801D02*
D03*
X-432100Y62100D02*
D03*
X-429502D02*
D03*
X-430801Y87200D02*
D03*
X-433399D02*
D03*
X-435301Y62100D02*
D03*
X-437899D02*
D03*
X-79599Y-41400D02*
D03*
X-77001D02*
D03*
X-483372Y-61100D02*
D03*
X-480774D02*
D03*
X-483344Y-64100D02*
D03*
X-480746D02*
D03*
X-508748Y-70336D02*
D03*
X-511346D02*
D03*
X-508748Y-67335D02*
D03*
X-511346D02*
D03*
X-601999Y24500D02*
D03*
X-599401D02*
D03*
X-592001Y24500D02*
D03*
X-594599D02*
D03*
X-595799Y44700D02*
D03*
X-593201D02*
D03*
X-585801Y44700D02*
D03*
X-588399D02*
D03*
X-657401Y88500D02*
D03*
X-659999D02*
D03*
X-615401Y116700D02*
D03*
X-617999D02*
D03*
X-625599Y116800D02*
D03*
X-623001D02*
D03*
X-521901Y87100D02*
D03*
X-524499D02*
D03*
D38*
X-645079Y284154D02*
D03*
Y294390D02*
D03*
X-669095Y347146D02*
D03*
Y336910D02*
D03*
X-537400Y341181D02*
D03*
Y351417D02*
D03*
X-635800Y177582D02*
D03*
Y187818D02*
D03*
X-628088Y177609D02*
D03*
Y187845D02*
D03*
X-385400Y-83318D02*
D03*
Y-73082D02*
D03*
X-558200Y153018D02*
D03*
Y142782D02*
D03*
D39*
X-468967Y-60659D02*
D03*
X-465818Y-57411D02*
D03*
X-471584Y-58042D02*
D03*
X-468434Y-54794D02*
D03*
D40*
X-640400Y149587D02*
D03*
Y147028D02*
D03*
Y144469D02*
D03*
Y141910D02*
D03*
Y139351D02*
D03*
Y136792D02*
D03*
Y134233D02*
D03*
Y131674D02*
D03*
X-617172Y149587D02*
D03*
Y147028D02*
D03*
Y144469D02*
D03*
Y141910D02*
D03*
Y139351D02*
D03*
Y136792D02*
D03*
Y134233D02*
D03*
Y131674D02*
D03*
X-517872Y101141D02*
D03*
Y103700D02*
D03*
Y106259D02*
D03*
Y108818D02*
D03*
Y111377D02*
D03*
Y113936D02*
D03*
Y116495D02*
D03*
X-541100Y101141D02*
D03*
Y103700D02*
D03*
Y106259D02*
D03*
Y108818D02*
D03*
Y111377D02*
D03*
Y113936D02*
D03*
Y116495D02*
D03*
D41*
X-165760Y-123240D02*
D03*
Y-129539D02*
D03*
X-580100Y412250D02*
D03*
Y405950D02*
D03*
X-173819Y-116339D02*
D03*
Y-122638D02*
D03*
X-129429Y-85236D02*
D03*
Y-78937D02*
D03*
X-134055Y-87500D02*
D03*
Y-93799D02*
D03*
X-676575Y-60827D02*
D03*
Y-67126D02*
D03*
X-461122Y401968D02*
D03*
Y408268D02*
D03*
X-257679Y36793D02*
D03*
Y30494D02*
D03*
X-303563Y-121161D02*
D03*
Y-127461D02*
D03*
X-160827Y-87500D02*
D03*
Y-93799D02*
D03*
X-246654Y-117224D02*
D03*
Y-123524D02*
D03*
X-219882Y-117224D02*
D03*
Y-123524D02*
D03*
X-204921Y81201D02*
D03*
Y74902D02*
D03*
X-300527Y36111D02*
D03*
Y29812D02*
D03*
X-641700Y303950D02*
D03*
Y310250D02*
D03*
X-660433Y317126D02*
D03*
Y310827D02*
D03*
D42*
X-123721Y-87106D02*
D03*
X-117421D02*
D03*
X-600394Y-90453D02*
D03*
X-594095D02*
D03*
X-585550Y-72200D02*
D03*
X-591850D02*
D03*
X-138386Y-66437D02*
D03*
X-144685D02*
D03*
X-156496D02*
D03*
X-150197D02*
D03*
X-499311Y66437D02*
D03*
X-505610D02*
D03*
X-324626Y-94095D02*
D03*
X-330925D02*
D03*
X-307894Y-100098D02*
D03*
X-314193D02*
D03*
X-310256Y-94685D02*
D03*
X-303957D02*
D03*
X-284409Y20110D02*
D03*
X-278110D02*
D03*
X-242323Y-96161D02*
D03*
X-236024D02*
D03*
X-240945Y-90158D02*
D03*
X-247244D02*
D03*
X-224213Y-96161D02*
D03*
X-230512D02*
D03*
X-226575Y-90748D02*
D03*
X-220276D02*
D03*
X-319705Y-100098D02*
D03*
X-326004D02*
D03*
X-196457Y59252D02*
D03*
X-190157D02*
D03*
X-187950Y78700D02*
D03*
X-194250D02*
D03*
X-199114Y87303D02*
D03*
X-205413D02*
D03*
X-610250Y-76100D02*
D03*
X-603950D02*
D03*
X-598250Y-78300D02*
D03*
X-591950D02*
D03*
X-586650Y-108300D02*
D03*
X-580350D02*
D03*
X-323410Y18110D02*
D03*
X-317110D02*
D03*
X-515150Y304200D02*
D03*
X-521450D02*
D03*
X-656750Y-1600D02*
D03*
X-663050D02*
D03*
D43*
X-660983Y215846D02*
D03*
Y208366D02*
D03*
X-651928Y212106D02*
D03*
X-654438Y228661D02*
D03*
Y236142D02*
D03*
X-663493Y232402D02*
D03*
X-608672Y316660D02*
D03*
Y324140D02*
D03*
X-617728Y320400D02*
D03*
X-655610Y246435D02*
D03*
Y253915D02*
D03*
X-664665Y250175D02*
D03*
X-655610Y261702D02*
D03*
Y269182D02*
D03*
X-664665Y265442D02*
D03*
X-655610Y276969D02*
D03*
Y284449D02*
D03*
X-664665Y280709D02*
D03*
X-588628Y-94460D02*
D03*
Y-101940D02*
D03*
X-579572Y-98200D02*
D03*
X-374728Y-90760D02*
D03*
Y-98240D02*
D03*
X-365672Y-94500D02*
D03*
X-596172Y10560D02*
D03*
Y18040D02*
D03*
X-605228Y14300D02*
D03*
D44*
X-667430Y209862D02*
D03*
Y215374D02*
D03*
X-362000Y-111044D02*
D03*
Y-116556D02*
D03*
X-527300Y320456D02*
D03*
Y314944D02*
D03*
X-383600Y-67956D02*
D03*
Y-62444D02*
D03*
X-404000Y-99300D02*
D03*
Y-93788D02*
D03*
X-398400Y-99100D02*
D03*
Y-93588D02*
D03*
D45*
X-687076Y104141D02*
D03*
Y106700D02*
D03*
Y101582D02*
D03*
Y109259D02*
D03*
Y111818D02*
D03*
D46*
X-698100Y106700D02*
D03*
D47*
X-70028Y-102424D02*
D03*
Y-100455D02*
D03*
Y-98487D02*
D03*
Y-96518D02*
D03*
Y-94550D02*
D03*
Y-92581D02*
D03*
Y-90613D02*
D03*
Y-88644D02*
D03*
X-40500Y-102424D02*
D03*
Y-100455D02*
D03*
Y-98487D02*
D03*
Y-96518D02*
D03*
Y-94550D02*
D03*
Y-92581D02*
D03*
Y-90613D02*
D03*
Y-88644D02*
D03*
Y-86676D02*
D03*
Y-84707D02*
D03*
Y-82739D02*
D03*
Y-80770D02*
D03*
Y-78802D02*
D03*
Y-76833D02*
D03*
Y-74865D02*
D03*
Y-72896D02*
D03*
Y-70928D02*
D03*
Y-68959D02*
D03*
Y-66991D02*
D03*
Y-65022D02*
D03*
Y-63054D02*
D03*
Y-61085D02*
D03*
Y-59117D02*
D03*
Y-57148D02*
D03*
Y-55180D02*
D03*
Y-53211D02*
D03*
Y-51243D02*
D03*
Y-49274D02*
D03*
Y-47306D02*
D03*
Y-45337D02*
D03*
Y-43369D02*
D03*
Y-41400D02*
D03*
X-70028D02*
D03*
Y-43369D02*
D03*
Y-45337D02*
D03*
Y-47306D02*
D03*
Y-49274D02*
D03*
Y-51243D02*
D03*
Y-53211D02*
D03*
Y-55180D02*
D03*
Y-57148D02*
D03*
Y-59117D02*
D03*
Y-61085D02*
D03*
Y-63054D02*
D03*
Y-65022D02*
D03*
Y-66991D02*
D03*
Y-68959D02*
D03*
Y-70928D02*
D03*
Y-72896D02*
D03*
Y-74865D02*
D03*
Y-76833D02*
D03*
Y-78802D02*
D03*
Y-80770D02*
D03*
Y-82739D02*
D03*
Y-84707D02*
D03*
Y-86676D02*
D03*
X-620315Y392422D02*
D03*
Y390454D02*
D03*
Y388485D02*
D03*
Y386516D02*
D03*
Y384548D02*
D03*
Y382579D02*
D03*
Y380611D02*
D03*
Y378643D02*
D03*
Y376674D02*
D03*
Y374706D02*
D03*
Y372737D02*
D03*
Y370768D02*
D03*
Y368800D02*
D03*
Y366831D02*
D03*
Y364863D02*
D03*
Y362895D02*
D03*
Y360926D02*
D03*
Y358958D02*
D03*
Y356989D02*
D03*
Y355020D02*
D03*
Y353052D02*
D03*
Y351083D02*
D03*
Y349115D02*
D03*
Y347147D02*
D03*
Y345178D02*
D03*
X-559685D02*
D03*
Y347147D02*
D03*
Y349115D02*
D03*
Y351083D02*
D03*
Y353052D02*
D03*
Y355020D02*
D03*
Y356989D02*
D03*
Y358958D02*
D03*
Y360926D02*
D03*
Y362895D02*
D03*
Y364863D02*
D03*
Y366831D02*
D03*
Y368800D02*
D03*
Y370768D02*
D03*
Y372737D02*
D03*
Y374706D02*
D03*
Y376674D02*
D03*
Y378643D02*
D03*
Y380611D02*
D03*
Y382579D02*
D03*
Y384548D02*
D03*
Y386516D02*
D03*
Y388485D02*
D03*
Y390454D02*
D03*
Y392422D02*
D03*
D48*
X-667452Y61354D02*
D03*
X-658790D02*
D03*
X-667452Y68047D02*
D03*
X-658790D02*
D03*
D49*
X-596917Y415200D02*
D03*
X-611484D02*
D03*
D50*
X-686221Y358366D02*
D03*
Y380020D02*
D03*
X-673622D02*
D03*
Y358366D02*
D03*
D51*
X-581300Y30200D02*
D03*
X-573600Y50200D02*
D03*
Y54500D02*
D03*
X-581300Y34100D02*
D03*
D52*
X-149154Y114700D02*
D03*
D53*
X-175926Y105724D02*
D03*
Y123676D02*
D03*
D54*
X-398732Y177159D02*
D03*
Y174600D02*
D03*
Y172041D02*
D03*
Y169482D02*
D03*
X-407000D02*
D03*
Y172041D02*
D03*
Y174600D02*
D03*
Y177159D02*
D03*
D55*
X-402866Y173320D02*
D03*
D56*
X-661024Y-47490D02*
D03*
X-658858Y-47490D02*
D03*
X-661024Y-69439D02*
D03*
X-658858Y-69439D02*
D03*
D57*
X-659941Y-67224D02*
D03*
D03*
X-659941Y-49705D02*
D03*
D58*
X-666732Y-67323D02*
D03*
Y-65354D02*
D03*
Y-63386D02*
D03*
Y-61417D02*
D03*
Y-49606D02*
D03*
Y-51575D02*
D03*
Y-53543D02*
D03*
Y-55512D02*
D03*
Y-57480D02*
D03*
Y-59449D02*
D03*
X-653150Y-53543D02*
D03*
Y-67323D02*
D03*
Y-65354D02*
D03*
Y-63386D02*
D03*
Y-61417D02*
D03*
Y-59449D02*
D03*
Y-57480D02*
D03*
Y-55512D02*
D03*
X-653149Y-49606D02*
D03*
Y-51575D02*
D03*
D59*
X-662893Y-47736D02*
D03*
X-656988D02*
D03*
X-656988Y-69193D02*
D03*
X-662894D02*
D03*
D60*
X-659941Y-58465D02*
D03*
D61*
X-519642Y349273D02*
D03*
Y345532D02*
D03*
Y341792D02*
D03*
X-530272D02*
D03*
Y345532D02*
D03*
Y349273D02*
D03*
D62*
X-666868Y17805D02*
D03*
Y25286D02*
D03*
X-656631D02*
D03*
Y21546D02*
D03*
Y17805D02*
D03*
D63*
X-521640Y310472D02*
D03*
X-514160D02*
D03*
X-517900Y319528D02*
D03*
X-86811Y183169D02*
D03*
X-94291D02*
D03*
X-90551Y174114D02*
D03*
X-518799Y379232D02*
D03*
X-526279D02*
D03*
X-522539Y370177D02*
D03*
X-506102Y84744D02*
D03*
X-498622D02*
D03*
X-502362Y93799D02*
D03*
X-389240Y-98428D02*
D03*
X-381760D02*
D03*
X-385500Y-89372D02*
D03*
X-521640Y326072D02*
D03*
X-514160D02*
D03*
X-517900Y335128D02*
D03*
D64*
X-665928Y194300D02*
D03*
X-656872Y198040D02*
D03*
Y190560D02*
D03*
X-686485Y50999D02*
D03*
X-677430Y58479D02*
D03*
X-686485D02*
D03*
D65*
X-558931Y134159D02*
D03*
Y131600D02*
D03*
Y129041D02*
D03*
X-550269D02*
D03*
Y131600D02*
D03*
Y134159D02*
D03*
X-588519Y144586D02*
D03*
Y142027D02*
D03*
Y139468D02*
D03*
X-579857D02*
D03*
Y142027D02*
D03*
Y144586D02*
D03*
X-573731Y139359D02*
D03*
Y136800D02*
D03*
Y134241D02*
D03*
X-565069D02*
D03*
Y136800D02*
D03*
Y139359D02*
D03*
D66*
X-677430Y51787D02*
D03*
X-650093Y31374D02*
D03*
Y25468D02*
D03*
D67*
X-650979Y328647D02*
D03*
D68*
Y335340D02*
D03*
X-660428D02*
D03*
Y327860D02*
D03*
D69*
X-631102Y310531D02*
D03*
Y307973D02*
D03*
Y305413D02*
D03*
Y302854D02*
D03*
X-608268D02*
D03*
Y305413D02*
D03*
Y307973D02*
D03*
Y310531D02*
D03*
X-617272Y177343D02*
D03*
Y174784D02*
D03*
Y172225D02*
D03*
Y169666D02*
D03*
Y167107D02*
D03*
Y164548D02*
D03*
Y161988D02*
D03*
Y159430D02*
D03*
Y156870D02*
D03*
Y154311D02*
D03*
X-594437D02*
D03*
Y156870D02*
D03*
Y159430D02*
D03*
Y161988D02*
D03*
Y164548D02*
D03*
Y167107D02*
D03*
Y169666D02*
D03*
Y172225D02*
D03*
Y174784D02*
D03*
Y177343D02*
D03*
X-616939Y-107039D02*
D03*
Y-104480D02*
D03*
Y-101920D02*
D03*
Y-99361D02*
D03*
X-634261D02*
D03*
Y-101920D02*
D03*
Y-104480D02*
D03*
Y-107039D02*
D03*
D70*
X-411791Y425394D02*
D03*
Y422835D02*
D03*
Y420276D02*
D03*
Y417717D02*
D03*
X-426752D02*
D03*
Y420276D02*
D03*
Y422835D02*
D03*
Y425394D02*
D03*
X-656280Y-82961D02*
D03*
Y-85520D02*
D03*
Y-88080D02*
D03*
Y-90639D02*
D03*
X-641320D02*
D03*
Y-88080D02*
D03*
Y-85520D02*
D03*
Y-82961D02*
D03*
D71*
X-366811Y407087D02*
D03*
D72*
X-154260Y-103500D02*
D03*
Y-108500D02*
D03*
Y-113500D02*
D03*
Y-118500D02*
D03*
Y-123500D02*
D03*
Y-128500D02*
D03*
Y-133500D02*
D03*
X-133000Y-103500D02*
D03*
Y-108500D02*
D03*
Y-113500D02*
D03*
Y-118500D02*
D03*
Y-123500D02*
D03*
Y-128500D02*
D03*
Y-133500D02*
D03*
X-68681Y169095D02*
D03*
Y164094D02*
D03*
Y159095D02*
D03*
Y154095D02*
D03*
X-47421Y169095D02*
D03*
Y164094D02*
D03*
Y159095D02*
D03*
Y154095D02*
D03*
X-258417Y-2264D02*
D03*
Y2736D02*
D03*
Y7736D02*
D03*
Y12736D02*
D03*
X-279677Y-2264D02*
D03*
Y2736D02*
D03*
Y7736D02*
D03*
Y12736D02*
D03*
X-300937Y-3347D02*
D03*
Y1654D02*
D03*
Y6654D02*
D03*
Y11654D02*
D03*
X-322197Y-3347D02*
D03*
Y1654D02*
D03*
Y6654D02*
D03*
Y11654D02*
D03*
X-508530Y363800D02*
D03*
Y358800D02*
D03*
Y353800D02*
D03*
Y348800D02*
D03*
X-487270Y363800D02*
D03*
Y358800D02*
D03*
Y353800D02*
D03*
Y348800D02*
D03*
X-499300Y120400D02*
D03*
Y115400D02*
D03*
Y110400D02*
D03*
Y105400D02*
D03*
X-478040Y120400D02*
D03*
Y115400D02*
D03*
Y110400D02*
D03*
Y105400D02*
D03*
X-593799Y293425D02*
D03*
Y288425D02*
D03*
Y283425D02*
D03*
Y278425D02*
D03*
X-572539Y293425D02*
D03*
Y288425D02*
D03*
Y283425D02*
D03*
Y278425D02*
D03*
X-117421Y342697D02*
D03*
Y347697D02*
D03*
Y352697D02*
D03*
Y357697D02*
D03*
X-138681Y342697D02*
D03*
Y347697D02*
D03*
Y352697D02*
D03*
Y357697D02*
D03*
X-619312Y82468D02*
D03*
Y87468D02*
D03*
Y92468D02*
D03*
Y97468D02*
D03*
X-640572Y82468D02*
D03*
Y87468D02*
D03*
Y92468D02*
D03*
Y97468D02*
D03*
X-671581Y295880D02*
D03*
Y300880D02*
D03*
Y305880D02*
D03*
Y310880D02*
D03*
X-692841Y295880D02*
D03*
Y300880D02*
D03*
Y305880D02*
D03*
Y310880D02*
D03*
D73*
X-478218Y-126169D02*
D03*
X-483218D02*
D03*
X-488218D02*
D03*
X-493218D02*
D03*
X-498218D02*
D03*
X-503218D02*
D03*
X-508218D02*
D03*
X-513218D02*
D03*
X-518218D02*
D03*
X-523218D02*
D03*
X-528218D02*
D03*
X-533218D02*
D03*
X-538218D02*
D03*
X-543218D02*
D03*
Y-89555D02*
D03*
X-538218D02*
D03*
X-533218D02*
D03*
X-528218D02*
D03*
X-523218D02*
D03*
X-518218D02*
D03*
X-513218D02*
D03*
X-508218D02*
D03*
X-503218D02*
D03*
X-498218D02*
D03*
X-493218D02*
D03*
X-488218D02*
D03*
X-483218D02*
D03*
X-478218D02*
D03*
D74*
X-562393Y115100D02*
D03*
Y110100D02*
D03*
Y105100D02*
D03*
Y100100D02*
D03*
Y95100D02*
D03*
Y90100D02*
D03*
Y85100D02*
D03*
Y80100D02*
D03*
X-599007D02*
D03*
Y85100D02*
D03*
Y90100D02*
D03*
Y95100D02*
D03*
Y100100D02*
D03*
Y105100D02*
D03*
Y110100D02*
D03*
Y115100D02*
D03*
D75*
X-566378Y399115D02*
D03*
X-568347D02*
D03*
X-570315D02*
D03*
X-572284D02*
D03*
X-574252D02*
D03*
X-576221D02*
D03*
X-578189D02*
D03*
X-580158D02*
D03*
X-582126D02*
D03*
X-584094D02*
D03*
X-586063D02*
D03*
X-588031D02*
D03*
X-590000D02*
D03*
X-591968D02*
D03*
X-593937D02*
D03*
X-595905D02*
D03*
X-597874D02*
D03*
X-599843D02*
D03*
X-601811D02*
D03*
X-603780D02*
D03*
X-605748D02*
D03*
X-607717D02*
D03*
X-609685D02*
D03*
X-611654D02*
D03*
X-613622D02*
D03*
Y338485D02*
D03*
X-611654D02*
D03*
X-609685D02*
D03*
X-607717D02*
D03*
X-605748D02*
D03*
X-603780D02*
D03*
X-601811D02*
D03*
X-599843D02*
D03*
X-597874D02*
D03*
X-595905D02*
D03*
X-593937D02*
D03*
X-591968D02*
D03*
X-590000D02*
D03*
X-588031D02*
D03*
X-586063D02*
D03*
X-584094D02*
D03*
X-582126D02*
D03*
X-580158D02*
D03*
X-578189D02*
D03*
X-576221D02*
D03*
X-574252D02*
D03*
X-572284D02*
D03*
X-570315D02*
D03*
X-568347D02*
D03*
X-566378D02*
D03*
D76*
X-239384Y-8261D02*
D03*
Y-10820D02*
D03*
Y-13379D02*
D03*
Y-15939D02*
D03*
X-224816D02*
D03*
Y-13379D02*
D03*
Y-10820D02*
D03*
Y-8261D02*
D03*
X-98445Y-76422D02*
D03*
Y-73863D02*
D03*
Y-71304D02*
D03*
Y-68745D02*
D03*
X-83878D02*
D03*
Y-71304D02*
D03*
Y-73863D02*
D03*
Y-76422D02*
D03*
X-214822Y-5078D02*
D03*
Y-7637D02*
D03*
Y-10196D02*
D03*
Y-12755D02*
D03*
X-200255D02*
D03*
Y-10196D02*
D03*
Y-7637D02*
D03*
Y-5078D02*
D03*
D77*
X-235939Y-19384D02*
D03*
X-233380D02*
D03*
X-230820D02*
D03*
X-228261D02*
D03*
Y-4817D02*
D03*
X-230820D02*
D03*
X-233380D02*
D03*
X-235939D02*
D03*
X-87323Y-79867D02*
D03*
X-89882D02*
D03*
X-92441D02*
D03*
X-95000D02*
D03*
Y-65300D02*
D03*
X-92441D02*
D03*
X-89882D02*
D03*
X-87323D02*
D03*
X-211377Y-16200D02*
D03*
X-208818D02*
D03*
X-206259D02*
D03*
X-203700D02*
D03*
Y-1633D02*
D03*
X-206259D02*
D03*
X-208818D02*
D03*
X-211377D02*
D03*
D78*
X-232100Y-12100D02*
D03*
X-91161Y-72584D02*
D03*
X-207539Y-8917D02*
D03*
D79*
X-642304Y55367D02*
D03*
Y57335D02*
D03*
X-611202Y69147D02*
D03*
Y67178D02*
D03*
Y65210D02*
D03*
Y63241D02*
D03*
Y61272D02*
D03*
Y59304D02*
D03*
Y57335D02*
D03*
Y55367D02*
D03*
Y53398D02*
D03*
Y51430D02*
D03*
Y49461D02*
D03*
Y47493D02*
D03*
Y45524D02*
D03*
Y43556D02*
D03*
X-642304D02*
D03*
Y45524D02*
D03*
Y47493D02*
D03*
Y49461D02*
D03*
Y51430D02*
D03*
Y53398D02*
D03*
Y59304D02*
D03*
Y61272D02*
D03*
Y63241D02*
D03*
Y65210D02*
D03*
Y67178D02*
D03*
Y69147D02*
D03*
D80*
X-626753Y56351D02*
D03*
D81*
X-639548Y71902D02*
D03*
X-637579D02*
D03*
X-635611D02*
D03*
X-633642D02*
D03*
X-631674D02*
D03*
X-629705D02*
D03*
X-627737D02*
D03*
X-625769D02*
D03*
X-623800D02*
D03*
X-621832D02*
D03*
X-619863D02*
D03*
X-617895D02*
D03*
X-615926D02*
D03*
X-613958D02*
D03*
Y40800D02*
D03*
X-615926D02*
D03*
X-617895D02*
D03*
X-619863D02*
D03*
X-621832D02*
D03*
X-623800D02*
D03*
X-625769D02*
D03*
X-627737D02*
D03*
X-629705D02*
D03*
X-631674D02*
D03*
X-633642D02*
D03*
X-635611D02*
D03*
X-637579D02*
D03*
X-639548D02*
D03*
D82*
X-526279Y223177D02*
D03*
X-526127Y262812D02*
D03*
D83*
X-531200Y230854D02*
D03*
X-529232D02*
D03*
X-527263D02*
D03*
X-525294D02*
D03*
X-523326D02*
D03*
X-521357D02*
D03*
Y215500D02*
D03*
X-523326D02*
D03*
X-525294D02*
D03*
X-527263D02*
D03*
X-529232D02*
D03*
X-531200D02*
D03*
X-531048Y270489D02*
D03*
X-529079D02*
D03*
X-527111D02*
D03*
X-525142D02*
D03*
X-523174D02*
D03*
X-521206D02*
D03*
Y255135D02*
D03*
X-523174D02*
D03*
X-525142D02*
D03*
X-527111D02*
D03*
X-529079D02*
D03*
X-531048D02*
D03*
D84*
X-518602Y228098D02*
D03*
Y226130D02*
D03*
Y224161D02*
D03*
Y222193D02*
D03*
Y220224D02*
D03*
Y218256D02*
D03*
X-533956D02*
D03*
Y220224D02*
D03*
Y222193D02*
D03*
Y224161D02*
D03*
Y226130D02*
D03*
Y228098D02*
D03*
X-518450Y267733D02*
D03*
Y265765D02*
D03*
Y263796D02*
D03*
Y261828D02*
D03*
Y259859D02*
D03*
Y257891D02*
D03*
X-533804D02*
D03*
Y259859D02*
D03*
Y261828D02*
D03*
Y263796D02*
D03*
Y265765D02*
D03*
Y267733D02*
D03*
D85*
X-541300Y-78768D02*
D03*
Y-76800D02*
D03*
X-553505Y-72863D02*
D03*
Y-74831D02*
D03*
Y-76800D02*
D03*
Y-78768D02*
D03*
X-541300Y-72863D02*
D03*
Y-74831D02*
D03*
X-526913Y45955D02*
D03*
Y43987D02*
D03*
Y42018D02*
D03*
Y40050D02*
D03*
X-539118D02*
D03*
Y42018D02*
D03*
Y43987D02*
D03*
Y45955D02*
D03*
X-559555D02*
D03*
Y43987D02*
D03*
Y42018D02*
D03*
Y40050D02*
D03*
X-547350D02*
D03*
Y42018D02*
D03*
Y43987D02*
D03*
Y45955D02*
D03*
X-550505Y71905D02*
D03*
Y69937D02*
D03*
Y67968D02*
D03*
Y66000D02*
D03*
X-538300D02*
D03*
Y67968D02*
D03*
Y69937D02*
D03*
Y71905D02*
D03*
D86*
X-544450Y-69713D02*
D03*
X-546418D02*
D03*
X-548387D02*
D03*
X-550355D02*
D03*
Y-81918D02*
D03*
X-548387D02*
D03*
X-546418D02*
D03*
X-544450D02*
D03*
X-530063Y36900D02*
D03*
X-532031D02*
D03*
X-534000D02*
D03*
X-535968D02*
D03*
Y49105D02*
D03*
X-534000D02*
D03*
X-532031D02*
D03*
X-530063D02*
D03*
X-550500D02*
D03*
X-552468D02*
D03*
X-554437D02*
D03*
X-556405D02*
D03*
Y36900D02*
D03*
X-554437D02*
D03*
X-552468D02*
D03*
X-550500D02*
D03*
X-541450Y75055D02*
D03*
X-543418D02*
D03*
X-545387D02*
D03*
X-547355D02*
D03*
Y62850D02*
D03*
X-545387D02*
D03*
X-543418D02*
D03*
X-541450D02*
D03*
D87*
X-547402Y-75816D02*
D03*
D88*
X-615237Y20041D02*
D03*
X-635987Y20041D02*
D03*
X-526856Y82684D02*
D03*
X-597231Y28841D02*
D03*
X-590944Y49016D02*
D03*
X-620525Y112303D02*
D03*
D89*
X-613663Y19844D02*
D03*
Y25356D02*
D03*
X-615237D02*
D03*
X-476700Y234487D02*
D03*
X-478275D02*
D03*
X-479850D02*
D03*
Y227400D02*
D03*
X-478275D02*
D03*
X-476700D02*
D03*
X-634413Y19844D02*
D03*
Y25356D02*
D03*
X-635987D02*
D03*
X-528431Y82881D02*
D03*
Y77369D02*
D03*
X-526856D02*
D03*
X-595656Y28644D02*
D03*
Y34156D02*
D03*
X-597231D02*
D03*
X-589369Y48819D02*
D03*
Y54331D02*
D03*
X-590944D02*
D03*
X-662669Y101031D02*
D03*
X-664244D02*
D03*
X-665819D02*
D03*
Y93944D02*
D03*
X-664244D02*
D03*
X-662669D02*
D03*
X-622100Y112500D02*
D03*
Y106988D02*
D03*
X-620525D02*
D03*
X-476984Y217131D02*
D03*
X-478559D02*
D03*
X-480134D02*
D03*
Y210044D02*
D03*
X-478559D02*
D03*
X-476984D02*
D03*
D90*
X-610907Y21025D02*
D03*
Y22600D02*
D03*
Y24175D02*
D03*
X-617993D02*
D03*
Y22600D02*
D03*
Y21025D02*
D03*
X-475519Y231731D02*
D03*
X-481031D02*
D03*
Y230156D02*
D03*
X-631657Y21025D02*
D03*
Y22600D02*
D03*
Y24175D02*
D03*
X-638743D02*
D03*
Y22600D02*
D03*
Y21025D02*
D03*
X-531187Y81700D02*
D03*
Y80125D02*
D03*
Y78550D02*
D03*
X-524100D02*
D03*
Y80125D02*
D03*
Y81700D02*
D03*
X-592900Y29825D02*
D03*
Y31400D02*
D03*
Y32975D02*
D03*
X-599987D02*
D03*
Y31400D02*
D03*
Y29825D02*
D03*
X-586613Y50000D02*
D03*
Y51575D02*
D03*
Y53150D02*
D03*
X-593700D02*
D03*
Y51575D02*
D03*
Y50000D02*
D03*
X-661488Y98275D02*
D03*
X-667000D02*
D03*
Y96700D02*
D03*
X-624856Y111319D02*
D03*
Y109744D02*
D03*
Y108169D02*
D03*
X-617769D02*
D03*
Y109744D02*
D03*
Y111319D02*
D03*
X-475803Y214375D02*
D03*
X-481315D02*
D03*
Y212800D02*
D03*
D91*
X-475716Y230156D02*
D03*
X-661685Y96700D02*
D03*
X-476000Y212800D02*
D03*
D92*
X-529325Y-39951D02*
D03*
X-527750D02*
D03*
X-551372Y6899D02*
D03*
X-549798D02*
D03*
X-548223D02*
D03*
X-546648D02*
D03*
X-545073D02*
D03*
X-543498D02*
D03*
X-541924D02*
D03*
X-540349D02*
D03*
X-538774D02*
D03*
X-534050D02*
D03*
X-532475D02*
D03*
X-530900D02*
D03*
X-526176D02*
D03*
X-524601D02*
D03*
X-519876D02*
D03*
X-518302D02*
D03*
X-516727D02*
D03*
X-515152D02*
D03*
X-513577D02*
D03*
X-551372Y-39951D02*
D03*
X-549798D02*
D03*
X-548223D02*
D03*
X-546648D02*
D03*
X-545073D02*
D03*
X-543498D02*
D03*
X-541924D02*
D03*
X-540349D02*
D03*
X-538774D02*
D03*
X-534050D02*
D03*
X-532475D02*
D03*
X-530900D02*
D03*
X-526176D02*
D03*
X-524601D02*
D03*
X-523026D02*
D03*
X-521451D02*
D03*
X-519876D02*
D03*
X-518302D02*
D03*
X-516727D02*
D03*
X-515152D02*
D03*
X-513577D02*
D03*
X-535624Y6899D02*
D03*
X-537199D02*
D03*
X-527750D02*
D03*
X-529325D02*
D03*
X-521451D02*
D03*
X-523026D02*
D03*
X-535624Y-39951D02*
D03*
X-537199D02*
D03*
D93*
X-509050Y2372D02*
D03*
Y797D02*
D03*
Y-778D02*
D03*
Y-2353D02*
D03*
Y-3928D02*
D03*
Y-5502D02*
D03*
Y-7077D02*
D03*
Y-8652D02*
D03*
Y-10227D02*
D03*
Y-11802D02*
D03*
Y-13376D02*
D03*
Y-14951D02*
D03*
Y-16526D02*
D03*
Y-18101D02*
D03*
Y-19676D02*
D03*
Y-21250D02*
D03*
Y-22825D02*
D03*
Y-24400D02*
D03*
Y-25975D02*
D03*
Y-27550D02*
D03*
Y-29124D02*
D03*
Y-30699D02*
D03*
Y-32274D02*
D03*
Y-33849D02*
D03*
Y-35424D02*
D03*
X-555900Y2372D02*
D03*
Y797D02*
D03*
Y-778D02*
D03*
Y-2353D02*
D03*
Y-3928D02*
D03*
Y-5502D02*
D03*
Y-7077D02*
D03*
Y-8652D02*
D03*
Y-10227D02*
D03*
Y-11802D02*
D03*
Y-13376D02*
D03*
Y-14951D02*
D03*
Y-16526D02*
D03*
Y-18101D02*
D03*
Y-19676D02*
D03*
Y-21250D02*
D03*
Y-22825D02*
D03*
Y-24400D02*
D03*
Y-25975D02*
D03*
Y-27550D02*
D03*
Y-29124D02*
D03*
Y-30699D02*
D03*
Y-32274D02*
D03*
Y-33849D02*
D03*
Y-35424D02*
D03*
D94*
X-532475Y-16526D02*
D03*
D95*
X-578318Y-75200D02*
D03*
Y-85200D02*
D03*
Y-80200D02*
D03*
X-568082Y-85200D02*
D03*
Y-80200D02*
D03*
Y-75200D02*
D03*
D96*
X-695966Y288580D02*
D03*
Y275981D02*
D03*
D97*
X-694687Y283855D02*
D03*
Y280705D02*
D03*
D98*
X-683858Y430905D02*
D03*
Y423032D02*
D03*
X-660433Y-125295D02*
D03*
Y-133169D02*
D03*
D99*
X-682480Y426968D02*
D03*
X-659055Y-129232D02*
D03*
D100*
X-198300Y236339D02*
D03*
Y253661D02*
D03*
X-353500Y230361D02*
D03*
Y213039D02*
D03*
D101*
X-87300Y-90457D02*
D03*
Y-97543D02*
D03*
X-194300Y-19257D02*
D03*
Y-26343D02*
D03*
D102*
X-668295Y41001D02*
D03*
X-662390D02*
D03*
X-668109Y47278D02*
D03*
X-662204D02*
D03*
D103*
X-566711Y-67300D02*
D03*
X-563089D02*
D03*
X-478577Y-10097D02*
D03*
X-482198D02*
D03*
X-478164Y-4905D02*
D03*
X-481786D02*
D03*
X-478262Y-30514D02*
D03*
X-481884D02*
D03*
X-546772Y-63415D02*
D03*
X-543150D02*
D03*
X-571812Y4383D02*
D03*
X-575434D02*
D03*
X-579265Y-13887D02*
D03*
X-582887D02*
D03*
X-539311Y-63400D02*
D03*
X-535689D02*
D03*
X-582887Y-24399D02*
D03*
X-579265D02*
D03*
X-478321Y-17600D02*
D03*
X-481943D02*
D03*
X-476621Y-38132D02*
D03*
X-480243D02*
D03*
X-489425Y-42183D02*
D03*
X-493047D02*
D03*
D104*
X-79724Y-14567D02*
D03*
X-98622D02*
D03*
D105*
X-689764Y-111417D02*
D03*
X-51575Y-130709D02*
D03*
D106*
X-158271Y91700D02*
D03*
X-142129D02*
D03*
D107*
X-650241Y305065D02*
D03*
X-655359D02*
D03*
Y313135D02*
D03*
X-652800D02*
D03*
X-650241D02*
D03*
D108*
X-242323Y-78543D02*
D03*
X-266732D02*
D03*
X-309764Y-82480D02*
D03*
X-285354D02*
D03*
X-350413D02*
D03*
X-326004D02*
D03*
X-140256Y-48819D02*
D03*
X-115847D02*
D03*
X-180905D02*
D03*
X-156496D02*
D03*
X-226083Y-78543D02*
D03*
X-201673D02*
D03*
D109*
X-686414Y42594D02*
D03*
X-676178D02*
D03*
D110*
X-324606Y217126D02*
D03*
X-336417D02*
D03*
X-198721Y359842D02*
D03*
X-186909Y359842D02*
D03*
X-198721Y345276D02*
D03*
X-186909Y345276D02*
D03*
X-328543Y318996D02*
D03*
X-340354D02*
D03*
X-256791Y344882D02*
D03*
X-268602D02*
D03*
X-328518Y291665D02*
D03*
X-340329D02*
D03*
X-324606Y198031D02*
D03*
X-336417D02*
D03*
D111*
X-414972Y161820D02*
D03*
X-403161D02*
D03*
X-389154Y386417D02*
D03*
X-377343D02*
D03*
X-459449Y390945D02*
D03*
X-447638D02*
D03*
X-196064Y25787D02*
D03*
X-207876D02*
D03*
X-196065Y43504D02*
D03*
X-207876D02*
D03*
X-196065Y34646D02*
D03*
X-207876D02*
D03*
D112*
X-413366Y169677D02*
D03*
Y176764D02*
D03*
X-287913Y-110335D02*
D03*
Y-103248D02*
D03*
X-317047Y-116437D02*
D03*
Y-123524D02*
D03*
X-340768Y-112205D02*
D03*
Y-105118D02*
D03*
X-147539Y-82776D02*
D03*
Y-89862D02*
D03*
X-171260Y-78543D02*
D03*
Y-71457D02*
D03*
X-471600Y391357D02*
D03*
Y398443D02*
D03*
X-118405Y-76673D02*
D03*
Y-69587D02*
D03*
X-233366Y-112500D02*
D03*
Y-119587D02*
D03*
X-257087Y-108268D02*
D03*
Y-101181D02*
D03*
X-204232Y-106398D02*
D03*
Y-99311D02*
D03*
D113*
X-371499Y231500D02*
D03*
X-365200D02*
D03*
D114*
X-488152Y-4446D02*
D03*
X-494451D02*
D03*
X-371929Y419587D02*
D03*
X-365630D02*
D03*
X-310827Y258169D02*
D03*
X-304528D02*
D03*
X-323794Y258200D02*
D03*
X-317495D02*
D03*
X-228150Y258169D02*
D03*
X-234449D02*
D03*
X-213090Y45276D02*
D03*
X-219390D02*
D03*
X-411319Y373917D02*
D03*
X-417618D02*
D03*
X-411221Y384055D02*
D03*
X-417520D02*
D03*
X-457579Y380610D02*
D03*
X-451279D02*
D03*
X-277756Y424457D02*
D03*
X-271457D02*
D03*
X-234807Y424461D02*
D03*
X-228508D02*
D03*
X-313090Y424260D02*
D03*
X-319390D02*
D03*
X-205807Y424508D02*
D03*
X-212106D02*
D03*
X-163091D02*
D03*
X-169390D02*
D03*
X-291339Y424457D02*
D03*
X-297638D02*
D03*
X-248390Y424461D02*
D03*
X-254689D02*
D03*
X-192224Y424508D02*
D03*
X-185925D02*
D03*
X-149508D02*
D03*
X-143209D02*
D03*
X-291850Y246400D02*
D03*
X-298150D02*
D03*
X-259055Y246358D02*
D03*
X-252756D02*
D03*
X-210630Y262402D02*
D03*
X-204331D02*
D03*
X-199550Y303200D02*
D03*
X-193250D02*
D03*
X-200250Y293700D02*
D03*
X-193950D02*
D03*
X-200394Y318996D02*
D03*
X-194095D02*
D03*
X-195472Y370177D02*
D03*
X-189173D02*
D03*
X-200787Y198622D02*
D03*
X-194488D02*
D03*
X-329306Y207019D02*
D03*
X-335605Y207019D02*
D03*
X-253642Y329921D02*
D03*
X-259941Y329921D02*
D03*
X-323031Y331496D02*
D03*
X-329331D02*
D03*
X-168950Y99300D02*
D03*
X-175250D02*
D03*
X-662286Y53520D02*
D03*
X-668585D02*
D03*
X-648066Y53064D02*
D03*
X-654365D02*
D03*
X-630450Y-5100D02*
D03*
X-624150D02*
D03*
X-576800Y-8861D02*
D03*
X-570501D02*
D03*
X-486685Y-19255D02*
D03*
X-492984D02*
D03*
X-577535Y-992D02*
D03*
X-571236D02*
D03*
X-489189Y-46725D02*
D03*
X-495488D02*
D03*
X-486386Y-35585D02*
D03*
X-492686D02*
D03*
X-518110Y-49508D02*
D03*
X-511811D02*
D03*
X-487949Y-10813D02*
D03*
X-494249D02*
D03*
X-568143Y-28917D02*
D03*
X-561843D02*
D03*
X-583572Y-19496D02*
D03*
X-577273D02*
D03*
X-487174Y-28766D02*
D03*
X-493473D02*
D03*
D115*
X-397550Y183200D02*
D03*
X-391250D02*
D03*
D116*
X-179232Y232480D02*
D03*
X-181988D02*
D03*
X-355315Y271063D02*
D03*
X-358071D02*
D03*
X-355315Y266634D02*
D03*
X-358071D02*
D03*
X-354528Y273819D02*
D03*
X-357283D02*
D03*
X-354528Y277953D02*
D03*
X-357283D02*
D03*
X-352953Y282677D02*
D03*
X-355709D02*
D03*
X-352953Y286811D02*
D03*
X-355709D02*
D03*
X-617678Y-73900D02*
D03*
X-614922D02*
D03*
X-185039Y376181D02*
D03*
X-187795D02*
D03*
X-123228Y337402D02*
D03*
X-120472D02*
D03*
X-312179Y248358D02*
D03*
X-309424D02*
D03*
X-320079Y244390D02*
D03*
X-317323D02*
D03*
X-281865Y283790D02*
D03*
X-284620D02*
D03*
X-298721Y275984D02*
D03*
X-295965D02*
D03*
X-325984Y275886D02*
D03*
X-323228D02*
D03*
X-332480Y271949D02*
D03*
X-335236D02*
D03*
X-209817Y244421D02*
D03*
X-207061D02*
D03*
X-325984Y271949D02*
D03*
X-323228D02*
D03*
X-221628Y256231D02*
D03*
X-218872D02*
D03*
X-234620Y268042D02*
D03*
X-237376D02*
D03*
X-225590Y267717D02*
D03*
X-222835D02*
D03*
X-318504Y252264D02*
D03*
X-315748D02*
D03*
X-217717Y276181D02*
D03*
X-214961D02*
D03*
X-261319Y252067D02*
D03*
X-258563D02*
D03*
X-241339Y271654D02*
D03*
X-238583Y271654D02*
D03*
X-38386Y82677D02*
D03*
X-35630D02*
D03*
X-39978Y80000D02*
D03*
X-37222D02*
D03*
X-39978Y77300D02*
D03*
X-37222D02*
D03*
X-40978Y72300D02*
D03*
X-38222D02*
D03*
X-40978Y69500D02*
D03*
X-38222D02*
D03*
X-40378Y63400D02*
D03*
X-37622D02*
D03*
X-40378Y60600D02*
D03*
X-37622D02*
D03*
X-181595Y262697D02*
D03*
X-178839D02*
D03*
X-181595Y265256D02*
D03*
X-178839D02*
D03*
X-172933Y234547D02*
D03*
X-175689D02*
D03*
X-149016Y257579D02*
D03*
X-151772D02*
D03*
X-149016Y260138D02*
D03*
X-151772D02*
D03*
X-175787Y252362D02*
D03*
X-178543D02*
D03*
X-175787Y254921D02*
D03*
X-178543D02*
D03*
X-155217Y267323D02*
D03*
X-157972D02*
D03*
X-155217Y269882D02*
D03*
X-157972D02*
D03*
X-361319Y283465D02*
D03*
X-358563D02*
D03*
X-361319Y286024D02*
D03*
X-358563D02*
D03*
X-387933Y213917D02*
D03*
X-385177D02*
D03*
X-387933Y211358D02*
D03*
X-385177D02*
D03*
X-362894Y274606D02*
D03*
X-360138D02*
D03*
X-362894Y277067D02*
D03*
X-360138D02*
D03*
X-402736Y208917D02*
D03*
X-399980D02*
D03*
X-402736Y206358D02*
D03*
X-399980D02*
D03*
X-395869Y193799D02*
D03*
X-393113D02*
D03*
X-395869Y191437D02*
D03*
X-393113D02*
D03*
X-363681Y269980D02*
D03*
X-360925D02*
D03*
X-363681Y267421D02*
D03*
X-360925D02*
D03*
X-403346Y282480D02*
D03*
X-406102D02*
D03*
X-403346Y285039D02*
D03*
X-406102D02*
D03*
X-397736Y218917D02*
D03*
X-394980D02*
D03*
X-397736Y216358D02*
D03*
X-394980D02*
D03*
X-397736Y196457D02*
D03*
X-394980D02*
D03*
X-397736Y198819D02*
D03*
X-394980D02*
D03*
X-427362Y383366D02*
D03*
X-430118D02*
D03*
X-420276Y361811D02*
D03*
X-417520D02*
D03*
X-420276Y368504D02*
D03*
X-417520D02*
D03*
X-628642Y386221D02*
D03*
X-625886D02*
D03*
X-571850Y332874D02*
D03*
X-574606D02*
D03*
X-596457Y404921D02*
D03*
X-599213D02*
D03*
X-250295Y232972D02*
D03*
X-253051D02*
D03*
X-246457Y236910D02*
D03*
X-249213D02*
D03*
X-305512Y252658D02*
D03*
X-308268D02*
D03*
X-296431Y240483D02*
D03*
X-293676D02*
D03*
X-242520Y263779D02*
D03*
X-245276D02*
D03*
X-79778Y-58700D02*
D03*
X-77022D02*
D03*
X-34778Y-58900D02*
D03*
X-32022D02*
D03*
X-31922Y72300D02*
D03*
X-34678D02*
D03*
X-31922Y69600D02*
D03*
X-34678D02*
D03*
X-31322Y63400D02*
D03*
X-34078D02*
D03*
X-31322Y60600D02*
D03*
X-34078D02*
D03*
X-29422Y85400D02*
D03*
X-32178D02*
D03*
X-29422Y82700D02*
D03*
X-32178D02*
D03*
X-33678Y80000D02*
D03*
X-30922D02*
D03*
X-33678Y77300D02*
D03*
X-30922D02*
D03*
X-44980Y102264D02*
D03*
X-42224D02*
D03*
X-44980Y99803D02*
D03*
X-42224D02*
D03*
X-39567Y93996D02*
D03*
X-36811D02*
D03*
X-39567Y91535D02*
D03*
X-36811D02*
D03*
X-51181Y113386D02*
D03*
X-53937D02*
D03*
X-51181Y110925D02*
D03*
X-53937D02*
D03*
X-46850Y108071D02*
D03*
X-49606D02*
D03*
X-46850Y105512D02*
D03*
X-49606D02*
D03*
X-270571Y376130D02*
D03*
X-273327D02*
D03*
X-295768D02*
D03*
X-298524D02*
D03*
X-142323Y376083D02*
D03*
X-145079D02*
D03*
X-167520Y376181D02*
D03*
X-170276D02*
D03*
X-165650Y390453D02*
D03*
X-162894D02*
D03*
X-338878Y382429D02*
D03*
X-341634D02*
D03*
X-338878Y410776D02*
D03*
X-341634D02*
D03*
X-338878Y396602D02*
D03*
X-341634D02*
D03*
X-146653Y406299D02*
D03*
X-143898D02*
D03*
X-274902Y406248D02*
D03*
X-272146D02*
D03*
X-189370Y406201D02*
D03*
X-186614D02*
D03*
X-231953Y406153D02*
D03*
X-229197D02*
D03*
X-247799Y390405D02*
D03*
X-245043D02*
D03*
X-210236Y376181D02*
D03*
X-212992D02*
D03*
X-252819Y376134D02*
D03*
X-255575D02*
D03*
X-230771Y375838D02*
D03*
X-233527D02*
D03*
X-224803Y287697D02*
D03*
X-227559D02*
D03*
X-266043Y303150D02*
D03*
X-268799D02*
D03*
X-309055Y291634D02*
D03*
X-311811D02*
D03*
X-79278Y-93300D02*
D03*
X-76522D02*
D03*
X-31822Y-83900D02*
D03*
X-34578D02*
D03*
X-654878Y-73900D02*
D03*
X-652122D02*
D03*
X-665158Y-73425D02*
D03*
X-667913D02*
D03*
X-642478Y-78000D02*
D03*
X-639722D02*
D03*
X-656878Y-78200D02*
D03*
X-654122D02*
D03*
X-675678Y-3700D02*
D03*
X-672922D02*
D03*
X-640945Y-44055D02*
D03*
X-638189D02*
D03*
X-624016Y-42618D02*
D03*
X-621260D02*
D03*
X-172933Y231988D02*
D03*
X-175689D02*
D03*
X-679724Y316929D02*
D03*
X-682480D02*
D03*
X-688386Y351181D02*
D03*
X-691142D02*
D03*
X-296457Y267717D02*
D03*
X-293701D02*
D03*
X-300394Y263779D02*
D03*
X-297638D02*
D03*
X-254331Y267717D02*
D03*
X-257087D02*
D03*
X-303543Y248327D02*
D03*
X-306299D02*
D03*
X-264961Y255906D02*
D03*
X-262205D02*
D03*
X-246457Y267717D02*
D03*
X-249213D02*
D03*
X-333071Y264469D02*
D03*
X-335827D02*
D03*
X-216313Y268042D02*
D03*
X-219069D02*
D03*
X-317618Y267913D02*
D03*
X-320374D02*
D03*
X-312179Y264106D02*
D03*
X-309424D02*
D03*
X-320079Y275886D02*
D03*
X-317323D02*
D03*
X-304823Y279528D02*
D03*
X-307579D02*
D03*
X-38378Y85400D02*
D03*
X-35622D02*
D03*
X-172933Y221752D02*
D03*
X-175689D02*
D03*
X-160335Y227067D02*
D03*
X-163091D02*
D03*
X-172933Y224311D02*
D03*
X-175689D02*
D03*
X-160335Y229331D02*
D03*
X-163091D02*
D03*
X-173901Y245100D02*
D03*
X-171145D02*
D03*
X-151117Y249606D02*
D03*
X-153872D02*
D03*
X-173901Y242541D02*
D03*
X-171145D02*
D03*
X-151117Y247047D02*
D03*
X-153872D02*
D03*
X-244488Y311319D02*
D03*
X-247244D02*
D03*
X-236614Y295669D02*
D03*
X-239370D02*
D03*
X-220768D02*
D03*
X-218012D02*
D03*
X-228922Y319200D02*
D03*
X-231678D02*
D03*
X-232677Y307382D02*
D03*
X-235433D02*
D03*
X-212992Y287697D02*
D03*
X-215748D02*
D03*
Y303445D02*
D03*
X-212992D02*
D03*
X-239370Y212894D02*
D03*
X-236614D02*
D03*
X-290551Y228642D02*
D03*
X-287795D02*
D03*
X-282677Y212894D02*
D03*
X-279921D02*
D03*
X-294488Y216831D02*
D03*
X-291732D02*
D03*
X-252362Y224705D02*
D03*
X-255118D02*
D03*
X-209055Y197146D02*
D03*
X-211811D02*
D03*
X-220250Y193239D02*
D03*
X-217495D02*
D03*
X-231496Y197146D02*
D03*
X-228740D02*
D03*
X-310236Y311319D02*
D03*
X-307480D02*
D03*
X-294488Y319193D02*
D03*
X-291732D02*
D03*
X-302362Y232579D02*
D03*
X-299606D02*
D03*
X-272047Y319193D02*
D03*
X-274803Y319193D02*
D03*
X-306299Y220768D02*
D03*
X-303543Y220768D02*
D03*
X-298425Y205020D02*
D03*
X-295669D02*
D03*
X-268110Y291634D02*
D03*
X-270866D02*
D03*
X-302362Y193209D02*
D03*
X-299606Y193209D02*
D03*
X-283858Y323130D02*
D03*
X-286614D02*
D03*
X-310236Y208957D02*
D03*
X-307480Y208957D02*
D03*
X-314173Y197146D02*
D03*
X-311417D02*
D03*
X-279921Y193209D02*
D03*
X-282677D02*
D03*
X-283858Y220768D02*
D03*
X-286614D02*
D03*
X-251083Y319291D02*
D03*
X-248327D02*
D03*
X-225556Y240400D02*
D03*
X-222800D02*
D03*
X-336910Y259744D02*
D03*
X-339665D02*
D03*
X-336713Y236910D02*
D03*
X-339469D02*
D03*
X-209817Y240483D02*
D03*
X-207061D02*
D03*
X-206522Y272000D02*
D03*
X-209278D02*
D03*
X-331890Y248524D02*
D03*
X-329134D02*
D03*
X-327165Y240354D02*
D03*
X-329921D02*
D03*
X-209817Y252294D02*
D03*
X-207061D02*
D03*
X-225565D02*
D03*
X-222810D02*
D03*
X-234620Y244421D02*
D03*
X-237376Y244421D02*
D03*
X-312179Y268042D02*
D03*
X-309424D02*
D03*
X-312205Y240748D02*
D03*
X-309449Y240748D02*
D03*
X-234620Y264106D02*
D03*
X-237376D02*
D03*
X-226772Y271949D02*
D03*
X-229528Y271949D02*
D03*
X-225565Y248358D02*
D03*
X-222810D02*
D03*
X-234620Y248358D02*
D03*
X-237376D02*
D03*
X-422522Y82700D02*
D03*
X-425278D02*
D03*
X-425197Y107874D02*
D03*
X-422441D02*
D03*
X-292520Y263779D02*
D03*
X-289764D02*
D03*
X-288583Y267717D02*
D03*
X-285827D02*
D03*
X-289469Y260138D02*
D03*
X-286713D02*
D03*
X-284646Y263779D02*
D03*
X-281890D02*
D03*
X-249803Y260531D02*
D03*
X-247047D02*
D03*
X-296850Y259842D02*
D03*
X-299606D02*
D03*
X-251969Y257874D02*
D03*
X-249213D02*
D03*
X-257087Y263779D02*
D03*
X-254331D02*
D03*
X-48422Y99800D02*
D03*
X-51178D02*
D03*
X-48522Y102300D02*
D03*
X-51278D02*
D03*
X-42913Y93898D02*
D03*
X-45669D02*
D03*
X-42913Y91437D02*
D03*
X-45669D02*
D03*
X-57284Y110925D02*
D03*
X-60039D02*
D03*
X-57284Y113484D02*
D03*
X-60039D02*
D03*
X-53122Y107900D02*
D03*
X-55878D02*
D03*
X-53022Y105500D02*
D03*
X-55778D02*
D03*
X-596063Y-85925D02*
D03*
X-598819D02*
D03*
X-599322Y-82700D02*
D03*
X-602078D02*
D03*
X-164272Y270079D02*
D03*
X-161516D02*
D03*
X-164173Y267323D02*
D03*
X-161417D02*
D03*
X-184778Y254800D02*
D03*
X-182022D02*
D03*
X-184778Y252500D02*
D03*
X-182022D02*
D03*
X-179232Y234842D02*
D03*
X-181988D02*
D03*
X-187878Y265200D02*
D03*
X-185122D02*
D03*
X-187838Y262810D02*
D03*
X-185082D02*
D03*
X-153971Y227027D02*
D03*
X-156727D02*
D03*
X-153971Y229351D02*
D03*
X-156727D02*
D03*
X-157622Y249600D02*
D03*
X-160378D02*
D03*
X-157622Y247200D02*
D03*
X-160378D02*
D03*
X-155217Y237205D02*
D03*
X-157972D02*
D03*
X-155217Y239665D02*
D03*
X-157972D02*
D03*
X-44822Y69500D02*
D03*
X-47578D02*
D03*
X-44822Y72200D02*
D03*
X-47578D02*
D03*
X-44022Y63300D02*
D03*
X-46778D02*
D03*
X-44022Y60500D02*
D03*
X-46778D02*
D03*
X-611078Y-106900D02*
D03*
X-608322D02*
D03*
X-640378Y128000D02*
D03*
X-637622D02*
D03*
X-538322Y96300D02*
D03*
X-541078D02*
D03*
X-472378Y-20000D02*
D03*
X-469622D02*
D03*
X-472366Y-17073D02*
D03*
X-469610D02*
D03*
X-486128Y-61100D02*
D03*
X-483372D02*
D03*
X-486100Y-64100D02*
D03*
X-483344D02*
D03*
X-557478Y138500D02*
D03*
X-554722D02*
D03*
X-157822Y260200D02*
D03*
X-160578D02*
D03*
X-157922Y257600D02*
D03*
X-160678D02*
D03*
X-672478Y-11700D02*
D03*
X-669722D02*
D03*
X-505992Y-70336D02*
D03*
X-508748D02*
D03*
X-505992Y-67335D02*
D03*
X-508748D02*
D03*
X-522578Y40100D02*
D03*
X-519822D02*
D03*
X-520578Y96300D02*
D03*
X-517822D02*
D03*
X-673819Y315748D02*
D03*
X-671063D02*
D03*
X-501478Y-63900D02*
D03*
X-498722D02*
D03*
X-604687Y43453D02*
D03*
X-601931D02*
D03*
X-647975Y67040D02*
D03*
X-650731D02*
D03*
X-616114Y76458D02*
D03*
X-618870D02*
D03*
X-605585Y57195D02*
D03*
X-602829D02*
D03*
X-627661Y76262D02*
D03*
X-624905D02*
D03*
X-648092Y70793D02*
D03*
X-650848D02*
D03*
X-605272Y71948D02*
D03*
X-602516D02*
D03*
X-605578Y60993D02*
D03*
X-602822D02*
D03*
X-631778Y29500D02*
D03*
X-629022D02*
D03*
X-612678D02*
D03*
X-609922D02*
D03*
X-649533Y36020D02*
D03*
X-652289D02*
D03*
X-598122Y38300D02*
D03*
X-600878D02*
D03*
X-648360Y62197D02*
D03*
X-651116D02*
D03*
X-650421Y48118D02*
D03*
X-653176D02*
D03*
X-594778Y38300D02*
D03*
X-592022D02*
D03*
X-565859Y8873D02*
D03*
X-563103D02*
D03*
X-500778Y-10541D02*
D03*
X-503534D02*
D03*
X-500780Y2740D02*
D03*
X-503536D02*
D03*
X-499521Y-20417D02*
D03*
X-502277D02*
D03*
X-565917Y4259D02*
D03*
X-563161D02*
D03*
X-499170Y-25830D02*
D03*
X-501926D02*
D03*
X-499324Y-34468D02*
D03*
X-502080D02*
D03*
X-564998Y-16121D02*
D03*
X-562242D02*
D03*
X-538458Y12406D02*
D03*
X-541214D02*
D03*
X-565830Y-8640D02*
D03*
X-563074D02*
D03*
X-565940Y-1990D02*
D03*
X-563184D02*
D03*
X-500390Y-15250D02*
D03*
X-503146D02*
D03*
X-564829Y-24254D02*
D03*
X-562073D02*
D03*
X-662922Y-40000D02*
D03*
X-665678D02*
D03*
X-64003Y-32156D02*
D03*
X-66759D02*
D03*
X-588478Y58500D02*
D03*
X-585722D02*
D03*
X-591822D02*
D03*
X-594578D02*
D03*
X-523022Y73200D02*
D03*
X-525778D02*
D03*
X-531878D02*
D03*
X-529122D02*
D03*
X-549122Y-86100D02*
D03*
X-551878D02*
D03*
X-469541Y-14103D02*
D03*
X-472297D02*
D03*
X-469541Y-11741D02*
D03*
X-472297D02*
D03*
X-521078Y-132700D02*
D03*
X-518322D02*
D03*
X-623022Y102800D02*
D03*
X-625778D02*
D03*
X-619378D02*
D03*
X-616622D02*
D03*
D117*
X-133071Y423228D02*
D03*
X-121653D02*
D03*
D118*
X-131299Y403740D02*
D03*
Y415158D02*
D03*
X-181100Y51691D02*
D03*
Y63109D02*
D03*
D119*
X-563700Y121228D02*
D03*
Y124772D02*
D03*
X-555500Y80028D02*
D03*
Y83572D02*
D03*
X-377244Y398917D02*
D03*
Y395374D02*
D03*
X-686000Y-56072D02*
D03*
Y-52528D02*
D03*
X-295669Y415205D02*
D03*
Y418748D02*
D03*
X-607518Y115231D02*
D03*
Y118774D02*
D03*
X-549600Y80928D02*
D03*
Y84472D02*
D03*
X-301700Y275828D02*
D03*
Y279372D02*
D03*
X-630200Y326172D02*
D03*
Y322628D02*
D03*
X-548900Y356072D02*
D03*
Y352528D02*
D03*
X-566299Y413875D02*
D03*
Y410331D02*
D03*
X-562600Y413872D02*
D03*
Y410328D02*
D03*
X-570000D02*
D03*
Y413872D02*
D03*
X-551500Y394972D02*
D03*
Y391428D02*
D03*
X-330335Y-122539D02*
D03*
Y-126083D02*
D03*
X-287106Y7677D02*
D03*
Y4134D02*
D03*
X-219500Y-95328D02*
D03*
Y-98872D02*
D03*
X-330906Y6496D02*
D03*
Y2953D02*
D03*
X-637598Y390846D02*
D03*
Y394390D02*
D03*
X-210433Y79823D02*
D03*
Y76279D02*
D03*
X-608563Y293209D02*
D03*
Y296752D02*
D03*
X-603740Y327264D02*
D03*
Y330807D02*
D03*
X-575900Y222028D02*
D03*
Y225572D02*
D03*
X-669200Y323872D02*
D03*
Y320328D02*
D03*
X-332500Y156628D02*
D03*
Y160172D02*
D03*
X-650538Y246303D02*
D03*
Y249847D02*
D03*
Y261341D02*
D03*
Y264884D02*
D03*
Y276378D02*
D03*
Y279921D02*
D03*
X-669193Y329035D02*
D03*
Y332579D02*
D03*
X-286910Y-1280D02*
D03*
Y-4823D02*
D03*
X-329626Y-3347D02*
D03*
Y-6890D02*
D03*
X-611811Y-13583D02*
D03*
Y-10039D02*
D03*
X-616043Y-10531D02*
D03*
Y-6988D02*
D03*
X-473500Y335716D02*
D03*
Y332172D02*
D03*
D120*
X-606936Y110053D02*
D03*
Y107297D02*
D03*
X-665256Y323425D02*
D03*
Y320669D02*
D03*
X-357756Y409744D02*
D03*
Y412500D02*
D03*
X-161260Y-127268D02*
D03*
Y-124512D02*
D03*
X-172146Y390158D02*
D03*
Y387402D02*
D03*
X-187992Y398031D02*
D03*
Y395276D02*
D03*
X-597600Y-78D02*
D03*
Y2678D02*
D03*
X-598819Y292421D02*
D03*
Y289665D02*
D03*
X-291142Y279232D02*
D03*
Y276476D02*
D03*
X-287205Y235925D02*
D03*
Y233169D02*
D03*
X-255709Y235925D02*
D03*
Y233169D02*
D03*
X-295079Y235925D02*
D03*
Y233169D02*
D03*
X-259620Y241861D02*
D03*
Y239106D02*
D03*
X-287179Y241861D02*
D03*
Y239106D02*
D03*
X-287205Y248917D02*
D03*
Y251673D02*
D03*
X-255683Y250917D02*
D03*
Y253672D02*
D03*
X-295079Y252559D02*
D03*
Y255315D02*
D03*
X-267520Y248917D02*
D03*
Y251673D02*
D03*
X-283268Y248917D02*
D03*
Y251673D02*
D03*
X-279306Y241861D02*
D03*
Y239106D02*
D03*
X-267495Y241861D02*
D03*
Y239106D02*
D03*
X-247441Y253642D02*
D03*
Y250886D02*
D03*
X-259350Y270571D02*
D03*
Y273327D02*
D03*
X-263878Y269390D02*
D03*
Y266634D02*
D03*
X-251378Y270571D02*
D03*
Y273327D02*
D03*
X-302559Y269390D02*
D03*
Y266634D02*
D03*
X-298622Y273327D02*
D03*
Y270571D02*
D03*
X-243602Y241929D02*
D03*
X-243602Y239173D02*
D03*
X-247441Y273327D02*
D03*
X-247441Y270571D02*
D03*
X-247441Y245768D02*
D03*
Y243012D02*
D03*
X-434000Y380222D02*
D03*
Y382978D02*
D03*
X-428445Y365748D02*
D03*
Y368504D02*
D03*
X-553839Y358563D02*
D03*
Y361319D02*
D03*
X-553937Y386910D02*
D03*
Y384154D02*
D03*
X-607677Y329134D02*
D03*
Y331890D02*
D03*
X-625787Y363189D02*
D03*
Y360433D02*
D03*
X-585925Y408465D02*
D03*
Y405709D02*
D03*
X-251772Y279232D02*
D03*
Y276476D02*
D03*
X-263583Y235925D02*
D03*
Y233169D02*
D03*
X-279331Y279232D02*
D03*
Y276476D02*
D03*
Y236221D02*
D03*
Y233465D02*
D03*
X-259646Y280315D02*
D03*
Y283071D02*
D03*
X-306496Y273327D02*
D03*
Y270571D02*
D03*
Y265453D02*
D03*
Y262697D02*
D03*
X-267520Y267421D02*
D03*
Y264665D02*
D03*
X-290748Y273327D02*
D03*
Y270571D02*
D03*
X-243504Y249705D02*
D03*
Y246949D02*
D03*
X-282874Y273721D02*
D03*
Y276476D02*
D03*
X-291437Y254823D02*
D03*
Y257579D02*
D03*
X-278937Y270571D02*
D03*
Y273327D02*
D03*
X-76600Y-48478D02*
D03*
Y-45722D02*
D03*
X-300394Y384004D02*
D03*
Y381248D02*
D03*
X-273524Y397980D02*
D03*
Y395224D02*
D03*
X-268799Y409299D02*
D03*
Y406543D02*
D03*
X-300394Y409102D02*
D03*
Y406346D02*
D03*
X-268799Y393256D02*
D03*
Y390500D02*
D03*
Y415795D02*
D03*
Y418551D02*
D03*
X-295571Y397980D02*
D03*
Y395224D02*
D03*
X-172146Y415846D02*
D03*
Y418602D02*
D03*
Y409154D02*
D03*
Y406398D02*
D03*
X-145276Y398130D02*
D03*
Y395374D02*
D03*
X-140551Y415846D02*
D03*
Y418602D02*
D03*
X-140256Y390158D02*
D03*
Y387402D02*
D03*
X-140551Y409154D02*
D03*
Y406398D02*
D03*
X-167224Y398031D02*
D03*
Y395276D02*
D03*
X-172146Y383858D02*
D03*
Y381102D02*
D03*
X-208465Y307874D02*
D03*
Y310630D02*
D03*
X-300394Y390401D02*
D03*
Y387646D02*
D03*
X-214862Y390256D02*
D03*
Y387500D02*
D03*
X-257445Y390110D02*
D03*
Y387354D02*
D03*
X-300394Y415598D02*
D03*
Y418354D02*
D03*
X-225850Y409106D02*
D03*
Y406350D02*
D03*
X-225752Y390110D02*
D03*
Y387354D02*
D03*
X-183268Y390256D02*
D03*
Y387500D02*
D03*
X-214862Y383760D02*
D03*
Y381004D02*
D03*
Y415846D02*
D03*
Y418602D02*
D03*
X-257445Y415799D02*
D03*
Y418555D02*
D03*
X-252622Y398083D02*
D03*
Y395327D02*
D03*
X-225752Y415799D02*
D03*
Y418555D02*
D03*
X-214862Y409154D02*
D03*
Y406398D02*
D03*
X-210039Y398031D02*
D03*
Y395276D02*
D03*
X-257445Y383811D02*
D03*
Y381055D02*
D03*
X-230575Y397984D02*
D03*
Y395228D02*
D03*
X-257445Y409106D02*
D03*
Y406350D02*
D03*
X-183268Y409154D02*
D03*
Y406398D02*
D03*
Y415846D02*
D03*
Y418602D02*
D03*
X-220250Y316665D02*
D03*
Y313909D02*
D03*
X-224187Y316665D02*
D03*
Y313909D02*
D03*
X-232087Y294980D02*
D03*
Y292224D02*
D03*
X-239800Y199622D02*
D03*
Y202378D02*
D03*
X-251476Y210335D02*
D03*
Y207579D02*
D03*
X-231900Y222822D02*
D03*
Y225578D02*
D03*
X-259941Y218209D02*
D03*
Y215453D02*
D03*
X-302854Y316634D02*
D03*
Y313878D02*
D03*
X-283268Y300098D02*
D03*
Y302854D02*
D03*
X-291116Y301870D02*
D03*
Y304626D02*
D03*
X-602658Y310728D02*
D03*
Y307972D02*
D03*
X-76400Y-96522D02*
D03*
Y-99278D02*
D03*
X-34200Y-98522D02*
D03*
Y-101278D02*
D03*
X-76200Y-85078D02*
D03*
Y-82322D02*
D03*
X-76400Y-73478D02*
D03*
Y-70722D02*
D03*
X-291142Y224114D02*
D03*
Y221358D02*
D03*
X-529172Y55387D02*
D03*
Y58142D02*
D03*
X-531731Y55387D02*
D03*
Y58142D02*
D03*
X-676575Y11713D02*
D03*
Y8957D02*
D03*
X-430886Y422638D02*
D03*
Y425394D02*
D03*
X-299311Y250886D02*
D03*
Y253642D02*
D03*
X-263287Y273721D02*
D03*
Y276476D02*
D03*
X-255315Y273327D02*
D03*
Y270571D02*
D03*
X-259941Y265453D02*
D03*
Y262697D02*
D03*
X-267815Y273327D02*
D03*
Y270571D02*
D03*
X-259252Y254823D02*
D03*
Y257579D02*
D03*
X-286811Y254429D02*
D03*
Y257185D02*
D03*
Y270571D02*
D03*
Y273327D02*
D03*
X-251378Y250886D02*
D03*
Y253642D02*
D03*
X-279035Y253642D02*
D03*
Y250886D02*
D03*
X-279331Y264665D02*
D03*
Y267421D02*
D03*
X-294685Y270571D02*
D03*
Y273327D02*
D03*
X-282874Y257579D02*
D03*
Y254823D02*
D03*
X-243872Y302098D02*
D03*
Y304854D02*
D03*
X-212402Y314764D02*
D03*
Y312008D02*
D03*
X-239961Y283169D02*
D03*
Y280413D02*
D03*
X-232087Y209547D02*
D03*
Y212303D02*
D03*
X-216339Y217421D02*
D03*
Y220177D02*
D03*
X-243898Y225295D02*
D03*
Y228051D02*
D03*
X-267520Y221358D02*
D03*
Y224114D02*
D03*
X-228150Y221358D02*
D03*
Y224114D02*
D03*
X-267520Y204429D02*
D03*
Y201673D02*
D03*
X-259620Y231231D02*
D03*
Y233987D02*
D03*
X-259646Y205610D02*
D03*
Y208366D02*
D03*
X-263583Y193799D02*
D03*
Y196555D02*
D03*
X-220276Y205610D02*
D03*
Y208366D02*
D03*
X-212376Y227294D02*
D03*
Y230050D02*
D03*
X-247835Y201673D02*
D03*
Y204429D02*
D03*
X-306890Y318602D02*
D03*
Y315846D02*
D03*
X-310802Y281231D02*
D03*
Y278476D02*
D03*
X-299016Y302854D02*
D03*
X-299016Y300098D02*
D03*
X-251772Y292323D02*
D03*
Y295079D02*
D03*
X-306890Y296161D02*
D03*
Y298917D02*
D03*
X-299016Y291437D02*
D03*
Y288681D02*
D03*
X-279306Y298161D02*
D03*
Y300917D02*
D03*
X-261713Y307677D02*
D03*
Y310433D02*
D03*
X-283268Y310728D02*
D03*
Y307972D02*
D03*
X-291142Y201673D02*
D03*
Y204429D02*
D03*
X-287008Y296850D02*
D03*
Y294094D02*
D03*
X-314764Y294980D02*
D03*
Y292224D02*
D03*
X-419600Y93378D02*
D03*
Y90622D02*
D03*
X-438976Y101575D02*
D03*
Y98819D02*
D03*
X-424200Y93378D02*
D03*
Y90622D02*
D03*
X-267520Y279232D02*
D03*
Y276476D02*
D03*
X-248031Y279134D02*
D03*
Y281890D02*
D03*
X-263189Y258760D02*
D03*
Y261516D02*
D03*
X-676575Y4232D02*
D03*
Y1476D02*
D03*
X-614600Y-80244D02*
D03*
Y-83000D02*
D03*
X-399800Y279622D02*
D03*
Y282378D02*
D03*
X-397300Y279622D02*
D03*
Y282378D02*
D03*
X-620200Y-80578D02*
D03*
Y-77822D02*
D03*
X-589002Y177346D02*
D03*
Y174590D02*
D03*
X-575100Y144522D02*
D03*
Y147278D02*
D03*
X-545700Y131578D02*
D03*
Y128822D02*
D03*
X-543200Y40578D02*
D03*
Y37822D02*
D03*
X-493700Y-71478D02*
D03*
Y-68722D02*
D03*
X-665500Y-15378D02*
D03*
Y-12622D02*
D03*
X-632800Y-85078D02*
D03*
Y-82322D02*
D03*
X-498600Y-58022D02*
D03*
Y-60778D02*
D03*
X-244100Y-13322D02*
D03*
Y-16078D02*
D03*
X-637500Y36278D02*
D03*
Y33522D02*
D03*
X-219500Y-17978D02*
D03*
Y-15222D02*
D03*
X-79100Y-63322D02*
D03*
Y-66078D02*
D03*
X-671100Y95878D02*
D03*
Y93122D02*
D03*
X-525100Y277778D02*
D03*
Y275022D02*
D03*
X-525300Y238078D02*
D03*
Y235322D02*
D03*
X-533900Y68378D02*
D03*
Y65622D02*
D03*
X-652900Y-18478D02*
D03*
Y-15722D02*
D03*
X-622800Y-9722D02*
D03*
Y-12478D02*
D03*
X-485131Y235509D02*
D03*
Y232753D02*
D03*
Y226653D02*
D03*
Y229409D02*
D03*
X-552663Y17151D02*
D03*
Y14395D02*
D03*
X-545508Y-48490D02*
D03*
Y-45734D02*
D03*
X-549243Y-47863D02*
D03*
Y-45107D02*
D03*
X-531400Y-47878D02*
D03*
Y-45122D02*
D03*
X-561466Y-39750D02*
D03*
Y-36994D02*
D03*
X-524312Y-47639D02*
D03*
Y-44883D02*
D03*
X-514032Y15348D02*
D03*
Y12592D02*
D03*
X-534203Y14811D02*
D03*
Y12055D02*
D03*
X-504232Y-47469D02*
D03*
Y-44713D02*
D03*
X-526711Y15257D02*
D03*
Y12501D02*
D03*
X-501021Y-47469D02*
D03*
Y-44713D02*
D03*
X-539412Y-47863D02*
D03*
Y-45107D02*
D03*
X-548582Y17221D02*
D03*
Y14465D02*
D03*
X-518909Y15366D02*
D03*
Y12610D02*
D03*
X-671100Y99222D02*
D03*
Y101978D02*
D03*
X-485500Y208822D02*
D03*
Y211578D02*
D03*
Y217678D02*
D03*
Y214922D02*
D03*
X-570100Y-67578D02*
D03*
Y-64822D02*
D03*
X-646400Y307978D02*
D03*
Y305222D02*
D03*
D121*
X-685700Y-33494D02*
D03*
Y-45305D02*
D03*
X-677500Y-33595D02*
D03*
Y-45406D02*
D03*
X-298150Y-68601D02*
D03*
Y-56790D02*
D03*
X-280433Y-68601D02*
D03*
Y-56790D02*
D03*
X-289291Y-68602D02*
D03*
Y-56791D02*
D03*
X-359823Y393996D02*
D03*
Y382185D02*
D03*
X-338799Y-68896D02*
D03*
Y-57085D02*
D03*
X-321083Y-68898D02*
D03*
Y-57087D02*
D03*
X-329941Y-68899D02*
D03*
Y-57088D02*
D03*
X-143996Y-16535D02*
D03*
Y-4724D02*
D03*
X-123721Y-35432D02*
D03*
Y-23620D02*
D03*
X-114862Y-35432D02*
D03*
Y-23620D02*
D03*
X-563200Y67305D02*
D03*
Y55494D02*
D03*
X-679626Y-91043D02*
D03*
Y-79232D02*
D03*
X-416929Y403839D02*
D03*
Y392028D02*
D03*
X-155413Y-35236D02*
D03*
Y-23425D02*
D03*
X-164272Y-35238D02*
D03*
Y-23427D02*
D03*
X-185236Y-16732D02*
D03*
Y-4921D02*
D03*
X-250098Y-64962D02*
D03*
Y-53151D02*
D03*
X-241240Y-64961D02*
D03*
Y-53150D02*
D03*
X-271161Y-46455D02*
D03*
Y-34644D02*
D03*
X-200689Y-65156D02*
D03*
Y-53345D02*
D03*
X-209547Y-65158D02*
D03*
Y-53347D02*
D03*
X-229823Y-46260D02*
D03*
Y-34449D02*
D03*
X-427559Y403740D02*
D03*
Y391929D02*
D03*
X-135433Y28739D02*
D03*
Y16928D02*
D03*
X-188583Y28739D02*
D03*
Y16928D02*
D03*
X-153150Y17128D02*
D03*
Y28939D02*
D03*
X-162008Y17128D02*
D03*
Y28939D02*
D03*
X-144291Y17128D02*
D03*
Y28939D02*
D03*
X-170866Y17128D02*
D03*
Y28939D02*
D03*
X-179724Y17128D02*
D03*
Y28939D02*
D03*
X-451476Y113089D02*
D03*
Y101278D02*
D03*
X-397047Y117224D02*
D03*
Y105413D02*
D03*
X-410138Y117223D02*
D03*
Y105412D02*
D03*
D122*
X-111575Y-11555D02*
D03*
X-135079Y-6555D02*
D03*
X-152815Y-11850D02*
D03*
X-176319Y-6850D02*
D03*
X-238642Y-41575D02*
D03*
X-262146Y-36575D02*
D03*
X-197402Y-41280D02*
D03*
X-220905Y-36279D02*
D03*
X-49748Y177900D02*
D03*
X-73252Y182900D02*
D03*
D123*
X-109823Y-4055D02*
D03*
X-136831Y-14055D02*
D03*
X-151063Y-4350D02*
D03*
X-178071Y-14350D02*
D03*
X-236890Y-34075D02*
D03*
X-263898Y-44075D02*
D03*
X-195650Y-33779D02*
D03*
X-222657Y-43780D02*
D03*
X-47996Y185400D02*
D03*
X-75004Y175400D02*
D03*
D124*
X-681201Y-25886D02*
D03*
Y-20768D02*
D03*
D125*
Y-28642D02*
D03*
Y-18012D02*
D03*
D126*
X-573741Y69500D02*
D03*
X-578859D02*
D03*
D127*
X-570985D02*
D03*
X-581615D02*
D03*
D128*
X-309267Y-105037D02*
D03*
Y-108580D02*
D03*
X-324621Y-105037D02*
D03*
Y-108580D02*
D03*
X-139759Y-71376D02*
D03*
Y-74919D02*
D03*
X-357658Y403839D02*
D03*
Y400295D02*
D03*
X-590650Y412992D02*
D03*
Y409449D02*
D03*
X-313760Y29882D02*
D03*
Y26339D02*
D03*
X-155113Y-71376D02*
D03*
Y-74919D02*
D03*
X-240940Y-101100D02*
D03*
Y-104643D02*
D03*
X-225586Y-101100D02*
D03*
Y-104643D02*
D03*
X-199508Y76181D02*
D03*
Y72638D02*
D03*
X-693110Y359350D02*
D03*
Y362894D02*
D03*
X-667323Y354823D02*
D03*
Y358366D02*
D03*
X-179727Y75612D02*
D03*
Y72069D02*
D03*
X-175200Y75672D02*
D03*
Y72128D02*
D03*
X-514500Y353572D02*
D03*
Y350028D02*
D03*
X-507800Y106428D02*
D03*
Y109972D02*
D03*
X-76100Y166072D02*
D03*
Y162528D02*
D03*
X-112900Y-132272D02*
D03*
Y-128728D02*
D03*
X-673739Y62254D02*
D03*
Y65797D02*
D03*
D129*
X-356693Y-103543D02*
D03*
Y-97244D02*
D03*
X-125984Y-124508D02*
D03*
Y-130807D02*
D03*
X-614370Y-50886D02*
D03*
X-614370Y-44587D02*
D03*
X-442028Y396063D02*
D03*
Y389764D02*
D03*
X-478051Y398524D02*
D03*
Y392224D02*
D03*
X-484547Y398524D02*
D03*
Y392224D02*
D03*
X-466240Y336319D02*
D03*
Y342618D02*
D03*
X-460335Y336319D02*
D03*
Y342618D02*
D03*
X-292717Y2165D02*
D03*
Y-4134D02*
D03*
X-263880Y30396D02*
D03*
Y36695D02*
D03*
X-250787Y3543D02*
D03*
Y-2756D02*
D03*
X-216142Y62402D02*
D03*
Y68701D02*
D03*
X-190300Y91350D02*
D03*
Y85050D02*
D03*
X-273425Y258957D02*
D03*
Y252658D02*
D03*
Y235039D02*
D03*
Y241339D02*
D03*
Y228346D02*
D03*
Y222047D02*
D03*
Y271949D02*
D03*
Y265650D02*
D03*
X-241437Y331201D02*
D03*
Y337500D02*
D03*
X-234547Y331201D02*
D03*
Y337500D02*
D03*
X-273425Y195768D02*
D03*
X-273425Y202067D02*
D03*
X-231594Y186909D02*
D03*
X-231594Y180610D02*
D03*
X-261024Y186122D02*
D03*
Y179823D02*
D03*
X-285236Y186319D02*
D03*
X-285236Y180020D02*
D03*
X-169980Y182382D02*
D03*
X-169980Y176083D02*
D03*
X-274410Y187106D02*
D03*
Y180807D02*
D03*
X-222146Y187008D02*
D03*
Y180709D02*
D03*
X-261614Y318012D02*
D03*
X-261614Y324311D02*
D03*
X-301279Y333071D02*
D03*
Y339370D02*
D03*
X-305217Y183563D02*
D03*
X-305217Y177264D02*
D03*
X-312008Y183760D02*
D03*
X-312008Y177461D02*
D03*
X-269094Y329724D02*
D03*
Y336024D02*
D03*
X-282972Y333760D02*
D03*
Y340059D02*
D03*
X-299410Y183563D02*
D03*
Y177264D02*
D03*
X-291535Y333071D02*
D03*
Y339370D02*
D03*
X-320669Y290256D02*
D03*
Y296555D02*
D03*
X-311221Y332972D02*
D03*
Y339272D02*
D03*
X-485827Y31201D02*
D03*
Y37500D02*
D03*
X-478937Y31201D02*
D03*
Y37500D02*
D03*
X-476870Y55413D02*
D03*
Y61713D02*
D03*
X-484547Y55413D02*
D03*
Y61713D02*
D03*
X-432087Y97342D02*
D03*
Y103642D02*
D03*
X-414567Y88484D02*
D03*
Y94784D02*
D03*
X-406791Y88386D02*
D03*
Y94685D02*
D03*
X-306728Y29713D02*
D03*
Y36013D02*
D03*
X-186400Y123350D02*
D03*
Y117050D02*
D03*
X-649938Y18521D02*
D03*
Y12222D02*
D03*
X-653999Y81837D02*
D03*
Y75537D02*
D03*
X-544100Y354850D02*
D03*
Y348550D02*
D03*
X-534024Y-57895D02*
D03*
Y-51596D02*
D03*
X-542861Y23018D02*
D03*
Y16718D02*
D03*
X-540788Y-58387D02*
D03*
Y-52088D02*
D03*
X-532628Y26576D02*
D03*
Y20277D02*
D03*
X-526805Y26829D02*
D03*
Y20530D02*
D03*
X-547676Y-59125D02*
D03*
Y-52826D02*
D03*
X-516866Y26562D02*
D03*
Y20263D02*
D03*
D130*
X-607579Y-58071D02*
D03*
X-614665Y-58071D02*
D03*
X-580957Y421000D02*
D03*
X-588043D02*
D03*
X-623557Y2100D02*
D03*
X-630643D02*
D03*
D131*
X-681201Y-8661D02*
D03*
X-683760D02*
D03*
X-686319D02*
D03*
X-688878D02*
D03*
Y8661D02*
D03*
X-686319D02*
D03*
X-683760D02*
D03*
X-681201D02*
D03*
D132*
X-311024Y385972D02*
D03*
X-313529Y383467D02*
D03*
X-307677Y409004D02*
D03*
X-310183Y406498D02*
D03*
X-308366Y383315D02*
D03*
X-310872Y380809D02*
D03*
D133*
X-623600Y316852D02*
D03*
Y323348D02*
D03*
X-462008Y423228D02*
D03*
Y416732D02*
D03*
D134*
X-194380Y-99715D02*
D03*
X-192431Y-101663D02*
D03*
X-275394Y388334D02*
D03*
X-273445Y386386D02*
D03*
X-296850Y391582D02*
D03*
X-298799Y393531D02*
D03*
X-149409Y388189D02*
D03*
X-147461Y386240D02*
D03*
X-191634Y388583D02*
D03*
X-189685Y386634D02*
D03*
X-211319Y391732D02*
D03*
X-213268Y393681D02*
D03*
D135*
X-263583Y-12500D02*
D03*
X-270669D02*
D03*
X-302362Y-13189D02*
D03*
X-309449D02*
D03*
X-222643Y28500D02*
D03*
X-215557D02*
D03*
X-215457Y37900D02*
D03*
X-222543D02*
D03*
X-215757Y19500D02*
D03*
X-222843D02*
D03*
X-212957Y52600D02*
D03*
X-220043D02*
D03*
X-496258Y57972D02*
D03*
X-503345D02*
D03*
D136*
X-495768Y73032D02*
D03*
X-502264D02*
D03*
D137*
X-369600Y-70400D02*
D03*
X-373340Y-61345D02*
D03*
X-365860D02*
D03*
D138*
X-591800Y-5970D02*
D03*
X-596800Y-5970D02*
D03*
X-601800D02*
D03*
X-606800Y-5970D02*
D03*
X-591800Y-27230D02*
D03*
X-596800Y-27230D02*
D03*
X-601800Y-27230D02*
D03*
X-606800D02*
D03*
X-677200Y344230D02*
D03*
X-682200D02*
D03*
X-687200D02*
D03*
X-692200D02*
D03*
X-677200Y322970D02*
D03*
X-682200D02*
D03*
X-687200D02*
D03*
X-692200D02*
D03*
D139*
X-184103Y-81865D02*
D03*
X-187638Y-85401D02*
D03*
X-191174Y-88936D02*
D03*
X-194710Y-92472D02*
D03*
X-169070Y-96898D02*
D03*
X-172606Y-100434D02*
D03*
X-176141Y-103969D02*
D03*
X-179677Y-107505D02*
D03*
D140*
X-313484Y378098D02*
D03*
X-315433Y376150D02*
D03*
X-316831Y381248D02*
D03*
X-318779Y379299D02*
D03*
X-313779Y404181D02*
D03*
X-315728Y402232D02*
D03*
X-314774Y410864D02*
D03*
X-316722Y408915D02*
D03*
X-233704Y384028D02*
D03*
X-231756Y385976D02*
D03*
D141*
X-283409Y199332D02*
D03*
X-282930Y202046D02*
D03*
D142*
X-255983Y300212D02*
D03*
X-255041Y297622D02*
D03*
D143*
X-634842Y320866D02*
D03*
X-645079D02*
D03*
X-567382Y152500D02*
D03*
X-577618D02*
D03*
X-539982Y141500D02*
D03*
X-550218D02*
D03*
X-97882Y-128500D02*
D03*
X-108118D02*
D03*
X-490982Y340200D02*
D03*
X-501218D02*
D03*
X-485082Y128400D02*
D03*
X-495318D02*
D03*
D144*
X-477100Y380904D02*
D03*
X-467100Y353896D02*
D03*
X-486700Y95656D02*
D03*
X-476700Y68648D02*
D03*
D145*
X-469600Y379152D02*
D03*
X-474600Y355648D02*
D03*
X-479200Y93904D02*
D03*
X-484200Y70400D02*
D03*
D146*
X-193799Y188681D02*
D03*
Y176870D02*
D03*
D147*
X-439247Y92888D02*
D03*
X-443701Y97342D02*
D03*
D148*
X-220200Y304001D02*
D03*
Y306599D02*
D03*
X-224200Y304101D02*
D03*
Y306699D02*
D03*
X-255700Y205701D02*
D03*
Y208299D02*
D03*
X-263500Y212099D02*
D03*
Y209501D02*
D03*
X-433800Y-79201D02*
D03*
Y-81799D02*
D03*
X-428900Y-79301D02*
D03*
Y-81899D02*
D03*
X-384901Y113199D02*
D03*
Y110600D02*
D03*
Y105002D02*
D03*
Y107600D02*
D03*
X-366700Y114001D02*
D03*
Y116599D02*
D03*
X-366701Y122298D02*
D03*
Y119700D02*
D03*
X-453600Y48699D02*
D03*
Y46101D02*
D03*
X-448800Y47599D02*
D03*
Y45001D02*
D03*
X-443500Y-42999D02*
D03*
Y-40401D02*
D03*
X-438100Y-45599D02*
D03*
Y-43001D02*
D03*
X-463300Y67499D02*
D03*
Y64901D02*
D03*
X-454100Y64499D02*
D03*
Y61901D02*
D03*
X-453800Y54501D02*
D03*
Y57099D02*
D03*
X-449200Y62099D02*
D03*
Y59501D02*
D03*
X-454400Y96399D02*
D03*
Y93801D02*
D03*
X-463200Y96899D02*
D03*
Y94301D02*
D03*
X-456400Y4599D02*
D03*
Y2001D02*
D03*
X-453389Y4626D02*
D03*
Y2028D02*
D03*
X-604200Y27601D02*
D03*
Y30199D02*
D03*
X-597900Y47801D02*
D03*
Y50399D02*
D03*
X-657300Y91601D02*
D03*
Y94199D02*
D03*
X-657300Y102099D02*
D03*
Y99501D02*
D03*
X-612300Y115198D02*
D03*
Y112600D02*
D03*
X-519900Y83999D02*
D03*
Y81401D02*
D03*
D149*
X-604198Y-70153D02*
D03*
Y-68184D02*
D03*
Y-66216D02*
D03*
Y-64247D02*
D03*
X-616402D02*
D03*
Y-66216D02*
D03*
Y-68184D02*
D03*
Y-70153D02*
D03*
D150*
X-552356Y342800D02*
D03*
X-546844D02*
D03*
X-67744Y-132900D02*
D03*
X-73256D02*
D03*
X-373000Y-107100D02*
D03*
X-367488D02*
D03*
X-372156Y-115000D02*
D03*
X-366644D02*
D03*
D151*
X-479300Y326069D02*
D03*
Y334731D02*
D03*
D152*
X-493669Y43900D02*
D03*
X-502330D02*
D03*
D153*
X-178339Y273500D02*
D03*
X-195661D02*
D03*
X-345139Y256900D02*
D03*
X-362461D02*
D03*
D154*
X-533016Y43002D02*
D03*
X-553453D02*
D03*
X-544402Y68953D02*
D03*
D155*
X-692355Y-66140D02*
D03*
X-683300Y-62400D02*
D03*
Y-69880D02*
D03*
D156*
X-665439Y-35280D02*
D03*
X-662880D02*
D03*
X-660321D02*
D03*
X-657761D02*
D03*
Y-20320D02*
D03*
X-660321D02*
D03*
X-662880D02*
D03*
X-665439D02*
D03*
D157*
X-521927Y23791D02*
D03*
Y20169D02*
D03*
X-553503Y-59058D02*
D03*
Y-55436D02*
D03*
X-503543Y-60472D02*
D03*
Y-56850D02*
D03*
X-537706Y23948D02*
D03*
Y20326D02*
D03*
X-548011Y24255D02*
D03*
Y20633D02*
D03*
X-511793Y23371D02*
D03*
Y19749D02*
D03*
X-573463Y-36921D02*
D03*
Y-33299D02*
D03*
D158*
X-398100Y257000D02*
D03*
X-241600Y30700D02*
D03*
X-132185Y386713D02*
D03*
X-485500Y15600D02*
D03*
X-548900Y166000D02*
D03*
X-627900Y207900D02*
D03*
X-615700Y-34100D02*
D03*
X-552400Y410700D02*
D03*
D159*
X-156600Y172900D02*
D03*
X-274016Y-127953D02*
D03*
X-418400Y147900D02*
D03*
X-72700Y-114700D02*
D03*
X-633600Y407400D02*
D03*
D160*
X-193400Y288050D02*
D03*
Y281750D02*
D03*
M02*
