G04*
G04 #@! TF.GenerationSoftware,Altium Limited,Altium Designer,26.3.0 (6)*
G04*
G04 Layer_Physical_Order=6*
G04 Layer_Color=8388736*
%FSLAX25Y25*%
%MOIN*%
G70*
G04*
G04 #@! TF.SameCoordinates,DE9DF24F-1C00-4116-8AEF-8D11D6D1349B*
G04*
G04*
G04 #@! TF.FilePolarity,Negative*
G04*
G01*
G75*
%ADD290C,0.07874*%
%ADD313C,0.06299*%
%ADD534C,0.07087*%
%ADD545C,0.03465*%
G04:AMPARAMS|DCode=554|XSize=165.354mil|YSize=165.354mil|CornerRadius=0mil|HoleSize=0mil|Usage=FLASHONLY|Rotation=0.000|XOffset=0mil|YOffset=0mil|HoleType=Round|Shape=Relief|Width=29.53mil|Gap=9.84mil|Entries=4|*
%AMTHD554*
7,0,0,0.16535,0.14567,0.02953,45*
%
%ADD554THD554*%
%AMTHOVALD555*
21,1,0.35433,0.12205,0,0,0.0*
1,1,0.12205,-0.17717,0.00000*
1,1,0.12205,0.17717,0.00000*
21,0,0.35433,0.10236,0,0,0.0*
1,0,0.10236,-0.17717,0.00000*
1,0,0.10236,0.17717,0.00000*
4,0,4,-0.16673,-0.01044,-0.20988,-0.05359,-0.23076,-0.03271,-0.18761,0.01044,-0.16673,-0.01044,0.0*
4,0,4,0.18761,-0.01044,0.23076,0.03271,0.20988,0.05359,0.16673,0.01044,0.18761,-0.01044,0.0*
4,0,4,-0.18761,-0.01044,-0.23076,0.03271,-0.20988,0.05359,-0.16673,0.01044,-0.18761,-0.01044,0.0*
4,0,4,0.16673,-0.01044,0.20988,-0.05359,0.23076,-0.03271,0.18761,0.01044,0.16673,-0.01044,0.0*
%
%ADD555THOVALD555*%

G04:AMPARAMS|DCode=556|XSize=110.236mil|YSize=110.236mil|CornerRadius=0mil|HoleSize=0mil|Usage=FLASHONLY|Rotation=0.000|XOffset=0mil|YOffset=0mil|HoleType=Round|Shape=Relief|Width=29.53mil|Gap=9.84mil|Entries=4|*
%AMTHD556*
7,0,0,0.11024,0.09055,0.02953,45*
%
%ADD556THD556*%
%AMTHOVALD557*
21,1,0.01968,0.09055,0,0,360.0*
1,1,0.09055,-0.00984,0.00000*
1,1,0.09055,0.00984,0.00000*
21,0,0.01968,0.07087,0,0,360.0*
1,0,0.07087,-0.00984,0.00000*
1,0,0.07087,0.00984,0.00000*
4,0,4,0.00060,-0.01044,-0.03142,-0.04245,-0.05230,-0.02158,-0.02028,0.01044,0.00060,-0.01044,0.0*
4,0,4,0.02028,-0.01044,0.05230,0.02158,0.03142,0.04245,-0.00060,0.01044,0.02028,-0.01044,0.0*
4,0,4,-0.02028,-0.01044,-0.05230,0.02158,-0.03142,0.04245,0.00060,0.01044,-0.02028,-0.01044,0.0*
4,0,4,-0.00060,-0.01044,0.03142,-0.04245,0.05230,-0.02158,0.02028,0.01044,-0.00060,-0.01044,0.0*
%
%ADD557THOVALD557*%

%AMTHOVALD558*
21,1,0.00787,0.08465,0,0,360.0*
1,1,0.08465,-0.00394,0.00000*
1,1,0.08465,0.00394,0.00000*
21,0,0.00787,0.06496,0,0,360.0*
1,0,0.06496,-0.00394,0.00000*
1,0,0.06496,0.00394,0.00000*
4,0,4,0.00650,-0.01044,-0.02342,-0.04037,-0.04430,-0.01949,-0.01438,0.01044,0.00650,-0.01044,0.0*
4,0,4,0.01438,-0.01044,0.04430,0.01949,0.02342,0.04037,-0.00650,0.01044,0.01438,-0.01044,0.0*
4,0,4,-0.01438,-0.01044,-0.04430,0.01949,-0.02342,0.04037,0.00650,0.01044,-0.01438,-0.01044,0.0*
4,0,4,-0.00650,-0.01044,0.02342,-0.04037,0.04430,-0.01949,0.01438,0.01044,-0.00650,-0.01044,0.0*
%
%ADD558THOVALD558*%

G04:AMPARAMS|DCode=559|XSize=114.173mil|YSize=114.173mil|CornerRadius=0mil|HoleSize=0mil|Usage=FLASHONLY|Rotation=0.000|XOffset=0mil|YOffset=0mil|HoleType=Round|Shape=Relief|Width=29.53mil|Gap=9.84mil|Entries=4|*
%AMTHD559*
7,0,0,0.11417,0.09449,0.02953,45*
%
%ADD559THD559*%
G04:AMPARAMS|DCode=560|XSize=102.362mil|YSize=102.362mil|CornerRadius=0mil|HoleSize=0mil|Usage=FLASHONLY|Rotation=0.000|XOffset=0mil|YOffset=0mil|HoleType=Round|Shape=Relief|Width=29.53mil|Gap=9.84mil|Entries=4|*
%AMTHD560*
7,0,0,0.10236,0.08268,0.02953,45*
%
%ADD560THD560*%
G04:AMPARAMS|DCode=561|XSize=118.11mil|YSize=118.11mil|CornerRadius=0mil|HoleSize=0mil|Usage=FLASHONLY|Rotation=0.000|XOffset=0mil|YOffset=0mil|HoleType=Round|Shape=Relief|Width=29.53mil|Gap=9.84mil|Entries=4|*
%AMTHD561*
7,0,0,0.11811,0.09843,0.02953,45*
%
%ADD561THD561*%
G04:AMPARAMS|DCode=562|XSize=82.677mil|YSize=82.677mil|CornerRadius=0mil|HoleSize=0mil|Usage=FLASHONLY|Rotation=0.000|XOffset=0mil|YOffset=0mil|HoleType=Round|Shape=Relief|Width=29.53mil|Gap=9.84mil|Entries=4|*
%AMTHD562*
7,0,0,0.08268,0.06299,0.02953,45*
%
%ADD562THD562*%
%ADD563C,0.04606*%
%ADD564C,0.05906*%
%ADD565C,0.04331*%
%ADD566C,0.13386*%
%ADD567C,0.14567*%
%ADD568C,0.04528*%
%ADD569C,0.05315*%
%ADD570C,0.02756*%
%ADD571C,0.03150*%
%ADD572C,0.03032*%
%ADD573C,0.03543*%
%ADD574C,0.02953*%
%ADD575C,0.02677*%
%ADD576C,0.04724*%
%ADD577C,0.02769*%
G36*
X-696276Y117604D02*
X-696055Y117382D01*
X-695935Y117093D01*
Y116936D01*
Y115164D01*
Y115008D01*
X-696055Y114718D01*
X-696276Y114497D01*
X-696565Y114377D01*
X-703317D01*
Y117724D01*
X-696565D01*
X-696276Y117604D01*
D02*
G37*
G36*
Y98903D02*
X-696055Y98681D01*
X-695935Y98392D01*
Y98235D01*
Y96464D01*
Y96307D01*
X-696055Y96018D01*
X-696276Y95796D01*
X-696565Y95676D01*
X-703317D01*
Y99023D01*
X-696565D01*
X-696276Y98903D01*
D02*
G37*
D290*
X-100787Y-119587D02*
D03*
X-117323D02*
D03*
D313*
X-689469Y153849D02*
D03*
D534*
X-424360Y-97480D02*
D03*
X-436368Y116614D02*
D03*
X-424360Y178111D02*
D03*
X-436368Y392205D02*
D03*
D545*
X-44882Y440061D02*
X-44825Y440045D01*
X-657500Y440061D02*
X-44882D01*
X-657565Y440017D02*
X-657500Y440061D01*
X-657580Y439961D02*
X-657565Y440017D01*
X-657580Y436124D02*
Y439961D01*
X-687422Y436124D02*
X-657580D01*
X-687486Y436080D02*
X-687422Y436124D01*
X-687501Y436024D02*
X-687486Y436080D01*
X-687501Y419588D02*
Y436024D01*
X-711044Y419588D02*
X-687501D01*
X-711108Y419545D02*
X-711044Y419588D01*
X-711124Y419488D02*
X-711108Y419545D01*
X-711124Y404665D02*
Y419488D01*
Y404665D02*
X-711080Y404601D01*
X-711024Y404585D01*
X-703250D01*
Y117724D02*
Y404585D01*
Y117724D02*
X-696565D01*
X-696276Y117604D01*
X-696055Y117382D01*
X-695935Y117093D01*
Y116936D02*
Y117093D01*
Y115164D02*
Y116936D01*
Y115008D02*
Y115164D01*
X-696055Y114718D02*
X-695935Y115008D01*
X-696276Y114497D02*
X-696055Y114718D01*
X-696565Y114377D02*
X-696276Y114497D01*
X-703250Y114377D02*
X-696565D01*
X-703250Y99023D02*
Y114377D01*
Y99023D02*
X-696565D01*
X-696276Y98903D01*
X-696055Y98681D01*
X-695935Y98392D01*
Y98235D02*
Y98392D01*
Y96464D02*
Y98235D01*
Y96307D02*
Y96464D01*
X-696055Y96018D02*
X-695935Y96307D01*
X-696276Y95796D02*
X-696055Y96018D01*
X-696565Y95676D02*
X-696276Y95796D01*
X-703250Y95676D02*
X-696565D01*
X-703250Y-120668D02*
Y95676D01*
X-711044Y-120668D02*
X-703250D01*
X-711108Y-120711D02*
X-711044Y-120668D01*
X-711124Y-120768D02*
X-711108Y-120711D01*
X-711124Y-140374D02*
Y-120768D01*
Y-140374D02*
X-711080Y-140439D01*
X-711024Y-140454D01*
X-654468D01*
X-654403Y-140411D01*
X-654388Y-140354D01*
Y-138486D01*
X-622147D01*
Y-144705D02*
Y-138486D01*
Y-144705D02*
X-622104Y-144770D01*
X-622047Y-144785D01*
X-44077D01*
X-43317Y-144470D01*
X-42735Y-143889D01*
X-42420Y-143129D01*
X-42420Y-142717D01*
X-42420Y-131888D02*
X-42420Y-142717D01*
X-42420Y-131888D02*
X-42401Y-131512D01*
X-42254Y-130775D01*
X-41966Y-130080D01*
X-41548Y-129455D01*
X-41016Y-128923D01*
X-40391Y-128506D01*
X-39696Y-128218D01*
X-38959Y-128071D01*
X-38583Y-128053D01*
X-2352D01*
X-2292Y-128024D01*
X78Y-125654D01*
X100Y-125591D01*
Y125600D01*
X77Y125654D02*
X100Y125600D01*
X77Y125654D02*
X100Y125591D01*
X71Y125660D02*
X100Y125591D01*
X-2299Y128030D02*
X71Y125660D01*
X-2362Y128053D02*
X-2299Y128030D01*
X-38583Y128053D02*
X-2362D01*
X-38959Y128071D02*
X-38583Y128053D01*
X-39696Y128218D02*
X-38959Y128071D01*
X-40391Y128506D02*
X-39696Y128218D01*
X-41016Y128923D02*
X-40391Y128506D01*
X-41548Y129455D02*
X-41016Y128923D01*
X-41966Y130080D02*
X-41548Y129455D01*
X-42254Y130775D02*
X-41966Y130080D01*
X-42401Y131512D02*
X-42254Y130775D01*
X-42420Y131890D02*
X-42401Y131512D01*
X-42420Y131890D02*
Y187754D01*
X-39722Y190451D01*
X-26358D01*
X-26293Y190495D01*
X-26278Y190551D01*
Y423005D01*
X-26321Y423070D02*
X-26278Y423005D01*
X-26378Y423085D02*
X-26321Y423070D01*
X-35763Y423085D02*
X-26378D01*
X-35763D02*
Y433241D01*
X-35807Y433306D02*
X-35763Y433241D01*
X-35863Y433321D02*
X-35807Y433306D01*
X-44782Y433325D02*
X-35863Y433321D01*
X-44782Y433325D02*
Y439981D01*
X-44825Y440045D02*
X-44782Y439981D01*
D554*
X-696260Y-131890D02*
D03*
X-660325Y-104468D02*
D03*
Y118169D02*
D03*
Y171122D02*
D03*
X-444183Y-114311D02*
D03*
X-445364Y161280D02*
D03*
Y133721D02*
D03*
X-660325Y393760D02*
D03*
X-629921Y430709D02*
D03*
X-445364Y409311D02*
D03*
D555*
X-625197Y-125787D02*
D03*
D556*
X-689961Y25591D02*
D03*
X-372300Y143300D02*
D03*
X-575984Y311319D02*
D03*
X-242400Y11000D02*
D03*
D557*
X-698100Y90608D02*
D03*
Y122792D02*
D03*
D558*
X-685797Y97940D02*
D03*
Y115460D02*
D03*
D559*
X-679626Y131211D02*
D03*
Y158770D02*
D03*
D560*
X-689469Y136132D02*
D03*
D561*
X-117323Y-97933D02*
D03*
X-100787Y-97933D02*
D03*
D562*
X-79528Y235630D02*
D03*
Y206102D02*
D03*
Y196260D02*
D03*
Y225787D02*
D03*
Y215945D02*
D03*
X-61811Y235630D02*
D03*
Y206102D02*
D03*
Y196260D02*
D03*
Y225787D02*
D03*
Y215945D02*
D03*
X-44094D02*
D03*
Y235630D02*
D03*
Y225787D02*
D03*
Y206102D02*
D03*
Y196260D02*
D03*
X-79528Y245472D02*
D03*
X-61811D02*
D03*
X-44094D02*
D03*
X-61811Y255315D02*
D03*
X-44094D02*
D03*
X-79528D02*
D03*
X-44094Y265158D02*
D03*
X-79528D02*
D03*
X-61811D02*
D03*
X-44094Y275000D02*
D03*
X-79528D02*
D03*
X-61811D02*
D03*
X-44094Y284842D02*
D03*
X-79528D02*
D03*
X-61811D02*
D03*
X-44094Y294685D02*
D03*
X-79528D02*
D03*
X-61811D02*
D03*
X-44094Y304528D02*
D03*
X-79528D02*
D03*
X-61811D02*
D03*
X-79528Y324213D02*
D03*
Y314370D02*
D03*
X-61811D02*
D03*
X-44094D02*
D03*
X-61811Y324213D02*
D03*
X-44094D02*
D03*
X-79528Y334055D02*
D03*
Y343898D02*
D03*
X-61811D02*
D03*
Y334055D02*
D03*
X-44094D02*
D03*
Y353740D02*
D03*
Y343898D02*
D03*
X-79528Y353740D02*
D03*
Y363583D02*
D03*
X-61811Y373425D02*
D03*
Y353740D02*
D03*
X-44094Y363583D02*
D03*
X-61811D02*
D03*
X-44094Y373425D02*
D03*
X-79528D02*
D03*
X-44094Y383268D02*
D03*
X-79528D02*
D03*
X-61811D02*
D03*
D563*
X-38189Y275000D02*
D03*
X-32283D02*
D03*
X-50000Y245472D02*
D03*
X-55905D02*
D03*
X-32283Y284842D02*
D03*
X-38189Y284842D02*
D03*
X-32283Y294685D02*
D03*
X-38189D02*
D03*
X-32283Y324213D02*
D03*
X-38189D02*
D03*
X-32283Y363583D02*
D03*
X-38189D02*
D03*
X-50000Y275000D02*
D03*
Y265158D02*
D03*
Y255315D02*
D03*
Y235630D02*
D03*
Y225787D02*
D03*
X-55905Y275000D02*
D03*
Y265158D02*
D03*
Y255315D02*
D03*
Y235630D02*
D03*
Y225787D02*
D03*
X-67716Y275000D02*
D03*
Y265158D02*
D03*
Y255315D02*
D03*
Y245472D02*
D03*
Y235630D02*
D03*
Y225787D02*
D03*
Y215945D02*
D03*
X-73622Y275000D02*
D03*
Y265158D02*
D03*
Y255315D02*
D03*
Y245472D02*
D03*
Y235630D02*
D03*
Y225787D02*
D03*
Y215945D02*
D03*
X-38189Y265158D02*
D03*
Y255315D02*
D03*
Y245472D02*
D03*
Y235630D02*
D03*
X-32283D02*
D03*
Y245472D02*
D03*
Y255315D02*
D03*
Y265158D02*
D03*
X-67716Y284842D02*
D03*
X-73622D02*
D03*
X-50000D02*
D03*
X-55905D02*
D03*
X-32283Y373425D02*
D03*
Y353740D02*
D03*
Y334055D02*
D03*
Y314370D02*
D03*
X-38189Y314370D02*
D03*
Y334055D02*
D03*
Y353740D02*
D03*
Y373425D02*
D03*
X-73622Y294685D02*
D03*
Y304528D02*
D03*
Y314370D02*
D03*
Y324213D02*
D03*
Y334055D02*
D03*
Y353740D02*
D03*
Y373425D02*
D03*
Y383268D02*
D03*
X-67716Y294685D02*
D03*
Y304528D02*
D03*
Y314370D02*
D03*
Y324213D02*
D03*
Y334055D02*
D03*
Y353740D02*
D03*
Y373425D02*
D03*
Y383268D02*
D03*
X-55905Y304528D02*
D03*
Y324213D02*
D03*
Y334055D02*
D03*
Y343898D02*
D03*
Y353740D02*
D03*
Y363583D02*
D03*
Y373425D02*
D03*
X-50000Y304528D02*
D03*
Y324213D02*
D03*
Y334055D02*
D03*
Y343898D02*
D03*
Y353740D02*
D03*
Y363583D02*
D03*
Y373425D02*
D03*
Y294685D02*
D03*
X-55905D02*
D03*
X-32283Y304528D02*
D03*
X-38189D02*
D03*
X-67716Y343898D02*
D03*
X-73622D02*
D03*
X-50000Y314370D02*
D03*
X-55905D02*
D03*
X-50000Y383268D02*
D03*
X-55905D02*
D03*
X-67716Y363583D02*
D03*
X-73622D02*
D03*
D564*
X-378346Y-111221D02*
D03*
Y-71850D02*
D03*
D565*
X-32283Y225787D02*
D03*
X-38189D02*
D03*
X-32283Y383268D02*
D03*
X-38189Y383268D02*
D03*
X-32283Y215945D02*
D03*
X-50000Y206102D02*
D03*
Y196260D02*
D03*
X-55905Y206102D02*
D03*
Y196260D02*
D03*
X-67716Y206102D02*
D03*
Y196260D02*
D03*
X-73622Y206102D02*
D03*
Y196260D02*
D03*
X-38189Y215945D02*
D03*
Y206102D02*
D03*
Y196260D02*
D03*
X-32283D02*
D03*
Y206102D02*
D03*
X-50000Y215945D02*
D03*
X-55905D02*
D03*
X-32283Y343898D02*
D03*
X-38189D02*
D03*
D566*
X-108268Y409449D02*
D03*
X-78740D02*
D03*
D567*
X-49213D02*
D03*
D568*
X-584646Y-126181D02*
D03*
D569*
X-591338D02*
D03*
D570*
X-286910Y-11220D02*
D03*
X-629429Y353346D02*
D03*
X-565945Y14272D02*
D03*
X-380906Y-64468D02*
D03*
X-325787Y-2953D02*
D03*
X-555118Y-6890D02*
D03*
X-426181Y163878D02*
D03*
X-32403Y118273D02*
D03*
X-32480Y113189D02*
D03*
X-642214Y331703D02*
D03*
X-631890Y78248D02*
D03*
X-628200Y166900D02*
D03*
X-552165Y-6890D02*
D03*
X-558071D02*
D03*
X-431102Y170276D02*
D03*
X-417323Y151575D02*
D03*
X-416831Y146161D02*
D03*
Y149606D02*
D03*
X-420276Y151575D02*
D03*
X-426673Y152067D02*
D03*
X-427165Y166339D02*
D03*
X-424213D02*
D03*
X-423228Y151575D02*
D03*
X-423721Y148622D02*
D03*
X-414370Y150591D02*
D03*
X-411417D02*
D03*
X-591400Y-96900D02*
D03*
X-597441Y65945D02*
D03*
X-658465Y88583D02*
D03*
X-633809Y83711D02*
D03*
X-322047Y-22343D02*
D03*
X-287000Y-18300D02*
D03*
X-330200Y-19200D02*
D03*
X-575787Y-53150D02*
D03*
X-607225Y240126D02*
D03*
Y243426D02*
D03*
Y246826D02*
D03*
X-315945Y43799D02*
D03*
X-320866Y44291D02*
D03*
X-317913Y41831D02*
D03*
X-321850Y37894D02*
D03*
X-323819Y35925D02*
D03*
X-324311Y40846D02*
D03*
X-326279Y38878D02*
D03*
X-327264Y43307D02*
D03*
X-330217Y40354D02*
D03*
X-591400Y4900D02*
D03*
X-576300Y77200D02*
D03*
X-569500Y75000D02*
D03*
X-596457Y186024D02*
D03*
X-597441Y68898D02*
D03*
X-610728Y4429D02*
D03*
X-99410Y203903D02*
D03*
Y206953D02*
D03*
X-97441Y200787D02*
D03*
Y210630D02*
D03*
X-658465Y-32480D02*
D03*
X-661417Y-40354D02*
D03*
X-650300Y5900D02*
D03*
X-570700Y15500D02*
D03*
X-573800Y14600D02*
D03*
X-578700Y7600D02*
D03*
X-601100Y2700D02*
D03*
X-600000Y8300D02*
D03*
X-401575Y139764D02*
D03*
X-405512Y130905D02*
D03*
X-280512Y-2953D02*
D03*
X-524606Y-24606D02*
D03*
X-521161Y-30020D02*
D03*
X-522638Y-27067D02*
D03*
X-531988Y-22146D02*
D03*
X-528543Y-25098D02*
D03*
Y-22146D02*
D03*
X-531988Y-25098D02*
D03*
X-644685Y350394D02*
D03*
X-513779Y-71358D02*
D03*
Y-66437D02*
D03*
X-503445Y-40354D02*
D03*
Y-38386D02*
D03*
X-565021Y826D02*
D03*
Y2914D02*
D03*
X-546260Y5413D02*
D03*
Y2461D02*
D03*
X-480807Y-36417D02*
D03*
Y-34449D02*
D03*
Y-32480D02*
D03*
Y-30512D02*
D03*
X-496063Y-28543D02*
D03*
X-490650Y-24606D02*
D03*
X-493602D02*
D03*
X-489173Y-42815D02*
D03*
X-491634D02*
D03*
X-483372Y-66400D02*
D03*
X-26698Y106274D02*
D03*
X-28285Y104687D02*
D03*
X-483372Y-58800D02*
D03*
X-467520Y-83661D02*
D03*
X-470472Y-84153D02*
D03*
X-441260Y-75390D02*
D03*
X-466232Y-78499D02*
D03*
X-518209Y-42323D02*
D03*
X-451260Y-80390D02*
D03*
X-518209Y-44783D02*
D03*
X-689961Y84153D02*
D03*
X-681102Y81693D02*
D03*
X-616546Y107143D02*
D03*
X-626147D02*
D03*
X-629419Y96729D02*
D03*
X-629563Y93676D02*
D03*
X-611502Y89794D02*
D03*
X-652559Y379381D02*
D03*
X-584160Y-27481D02*
D03*
X-588772D02*
D03*
X-591989Y-27559D02*
D03*
X-532419Y68419D02*
D03*
X-526575Y-64468D02*
D03*
X-530512D02*
D03*
X-547736Y-47736D02*
D03*
Y-44783D02*
D03*
X-527559Y-33957D02*
D03*
X-530020D02*
D03*
X-531004Y-31988D02*
D03*
X-533957D02*
D03*
X-524114Y-31004D02*
D03*
X-547736Y-54134D02*
D03*
X-514272Y-55118D02*
D03*
X-533465Y-61024D02*
D03*
X-536417D02*
D03*
X-517717Y-51181D02*
D03*
Y-48720D02*
D03*
X-545276D02*
D03*
Y-51181D02*
D03*
X-672835Y-55512D02*
D03*
X-682483Y-50295D02*
D03*
X-641831Y-55610D02*
D03*
X-464764Y-60728D02*
D03*
X-466156Y-62120D02*
D03*
X-611516Y293110D02*
D03*
X-606594Y296764D02*
D03*
X-633465Y265551D02*
D03*
X-627756Y295571D02*
D03*
X-629921Y334055D02*
D03*
X-26247Y96173D02*
D03*
Y98633D02*
D03*
X-590846Y128248D02*
D03*
X-451260Y-75390D02*
D03*
Y-70390D02*
D03*
X-92618Y-82677D02*
D03*
X-93504Y-87894D02*
D03*
X-89862Y-85630D02*
D03*
X-87205Y-86811D02*
D03*
X-123524Y334842D02*
D03*
X-651673Y219094D02*
D03*
X-646063Y230512D02*
D03*
X-629528Y246654D02*
D03*
X-20572Y-27167D02*
D03*
X-18505Y-28938D02*
D03*
X-475700Y-17591D02*
D03*
X-538200Y-72800D02*
D03*
X-475700Y-19700D02*
D03*
X-538200Y-74900D02*
D03*
X-425197Y-124902D02*
D03*
X-138681Y-122539D02*
D03*
X-505263Y-118851D02*
D03*
X-381063Y-119390D02*
D03*
X-645866Y212008D02*
D03*
X-398622Y-85138D02*
D03*
X-667520Y218504D02*
D03*
X-500886Y125492D02*
D03*
X-84547Y-86910D02*
D03*
X-83878Y-78819D02*
D03*
X-104921Y-83661D02*
D03*
X-110424Y-69971D02*
D03*
X-89882Y-83108D02*
D03*
X-101686Y-76422D02*
D03*
Y-73863D02*
D03*
X-195089Y-10705D02*
D03*
X-194685Y-6004D02*
D03*
X-223130Y2756D02*
D03*
X-225197Y4528D02*
D03*
X-213386Y-1870D02*
D03*
X-201673Y-295D02*
D03*
X-199508Y-984D02*
D03*
X-226469Y-19783D02*
D03*
X-221576Y-10820D02*
D03*
X-197014Y-7637D02*
D03*
Y-5078D02*
D03*
X-218063Y-7637D02*
D03*
X-206259Y1608D02*
D03*
X-208818D02*
D03*
X-218063Y-5078D02*
D03*
X-221555Y-8268D02*
D03*
X-238681Y-304D02*
D03*
X-232382Y259D02*
D03*
X-233380Y-1576D02*
D03*
X-230820D02*
D03*
X-236614Y-1476D02*
D03*
X-239998Y-3964D02*
D03*
X-241142Y-2362D02*
D03*
X-242624Y-10820D02*
D03*
Y-8261D02*
D03*
X-627658Y160630D02*
D03*
X-655610Y243602D02*
D03*
Y274311D02*
D03*
X-655709Y259252D02*
D03*
X-662598Y300590D02*
D03*
X-695866Y263484D02*
D03*
X-695768Y266929D02*
D03*
X-695276Y270276D02*
D03*
X-686716Y275981D02*
D03*
X-660344Y307087D02*
D03*
X-669095Y315748D02*
D03*
X-679511Y314567D02*
D03*
X-127165Y-72736D02*
D03*
X-201300Y287300D02*
D03*
X-187400Y288600D02*
D03*
X-184000Y289100D02*
D03*
X-226156Y254263D02*
D03*
X-476700Y408827D02*
D03*
X-182947Y277874D02*
D03*
Y273839D02*
D03*
Y281910D02*
D03*
X-497600Y358600D02*
D03*
X-522500Y345500D02*
D03*
Y349100D02*
D03*
X-120400Y-132700D02*
D03*
X-109700Y-132800D02*
D03*
X-146000Y-133100D02*
D03*
X-180700Y-117400D02*
D03*
X-29700Y-119900D02*
D03*
X-191100Y-104000D02*
D03*
X-555621Y-83652D02*
D03*
Y-68451D02*
D03*
X-389240Y-103260D02*
D03*
X-482353Y207847D02*
D03*
X-479000Y206200D02*
D03*
X-478300Y224000D02*
D03*
X-481400Y227400D02*
D03*
X-514800Y98000D02*
D03*
X-473001Y188299D02*
D03*
X-473101Y199501D02*
D03*
X-466432Y-89701D02*
D03*
X-99800Y314499D02*
D03*
X-387800Y118000D02*
D03*
X-545300Y77700D02*
D03*
X-99800Y312412D02*
D03*
X-386345Y116445D02*
D03*
X-547400Y77700D02*
D03*
X-478272Y-61655D02*
D03*
X-478300Y-63700D02*
D03*
X-90000Y204400D02*
D03*
X-82400Y-110600D02*
D03*
X-90000Y206600D02*
D03*
X-80300Y-110600D02*
D03*
X-554400Y52600D02*
D03*
X-556602Y52600D02*
D03*
X-543300Y59600D02*
D03*
X-545400D02*
D03*
X-466500Y-19100D02*
D03*
X-466500Y-17066D02*
D03*
X-503700Y-69900D02*
D03*
X-533970Y32800D02*
D03*
X-531882D02*
D03*
X-554398Y33100D02*
D03*
X-552311D02*
D03*
X-488700Y-63600D02*
D03*
Y-61500D02*
D03*
X-503662Y-67876D02*
D03*
X-230118Y238515D02*
D03*
X-226000Y238500D02*
D03*
X-257652Y277885D02*
D03*
X-253715Y281822D02*
D03*
X-31496Y-32077D02*
D03*
X-31464Y-29818D02*
D03*
X-371100Y89600D02*
D03*
X-619291Y-65394D02*
D03*
Y-63228D02*
D03*
X-253715Y317255D02*
D03*
X-451760Y-85738D02*
D03*
X-441368Y200158D02*
D03*
Y195158D02*
D03*
X-222219Y301507D02*
D03*
X-218282D02*
D03*
X-261589Y207019D02*
D03*
Y210956D02*
D03*
X-518400Y66600D02*
D03*
X-520000Y65000D02*
D03*
X-451260Y205110D02*
D03*
X-451368Y200158D02*
D03*
X-257652Y207019D02*
D03*
X-253715D02*
D03*
X-508734Y-72650D02*
D03*
Y-65050D02*
D03*
X-319700Y329900D02*
D03*
X-308833Y309381D02*
D03*
X-308858Y305610D02*
D03*
X-269200Y164100D02*
D03*
X-237967Y199311D02*
D03*
X-143900Y150500D02*
D03*
X-144500Y144900D02*
D03*
X-114800Y384200D02*
D03*
X-116300Y386500D02*
D03*
X-257652Y170000D02*
D03*
X-218000Y305400D02*
D03*
X-309000Y151700D02*
D03*
X-237798Y230641D02*
D03*
X-189100Y191800D02*
D03*
X-172600Y186900D02*
D03*
X-205020Y160236D02*
D03*
X-272715Y160447D02*
D03*
X-193000Y184300D02*
D03*
X-500900Y358000D02*
D03*
X-276800Y-24400D02*
D03*
X-191400Y-123700D02*
D03*
X-660500Y-91700D02*
D03*
X-666800Y382900D02*
D03*
X-323313Y-99824D02*
D03*
X-680600Y4300D02*
D03*
X-319175Y354945D02*
D03*
X-560500Y302000D02*
D03*
X-561900Y309400D02*
D03*
X-575800Y218700D02*
D03*
X-513209Y-105509D02*
D03*
X-561800Y141000D02*
D03*
X-558900Y156235D02*
D03*
X-543189Y43300D02*
D03*
X-469300Y349400D02*
D03*
X-613600Y127800D02*
D03*
X-221557Y-13398D02*
D03*
X-158000Y289500D02*
D03*
X-615200Y335700D02*
D03*
X-604400Y305400D02*
D03*
X-524400Y60600D02*
D03*
X-489700Y89600D02*
D03*
X-473725Y65009D02*
D03*
X-142000Y-127600D02*
D03*
X-649000Y418100D02*
D03*
X-649508Y429626D02*
D03*
X-240400Y-23200D02*
D03*
X-112000Y-800D02*
D03*
X-135300Y-16341D02*
D03*
X-154300Y-1700D02*
D03*
X-178071Y-17229D02*
D03*
X-137700Y-133800D02*
D03*
X-474475Y131075D02*
D03*
X-517723Y240500D02*
D03*
X-487900Y240900D02*
D03*
X-500700Y258800D02*
D03*
X-452505Y176500D02*
D03*
X-466200Y349300D02*
D03*
X-516500Y-79100D02*
D03*
X-363000Y-88200D02*
D03*
X-217207Y-15151D02*
D03*
X-246230Y-15986D02*
D03*
X-194500Y2900D02*
D03*
X-218900Y-100D02*
D03*
X-588200Y16600D02*
D03*
X-591200Y383700D02*
D03*
X-611000Y9900D02*
D03*
X-592300Y386700D02*
D03*
X-615700Y12800D02*
D03*
X-627000Y389100D02*
D03*
X-582171Y395054D02*
D03*
X-605800Y403900D02*
D03*
X-608500Y388100D02*
D03*
X-593600Y209200D02*
D03*
X-543800Y-97000D02*
D03*
X-550000Y-96900D02*
D03*
X-588000Y6300D02*
D03*
X-584300Y7900D02*
D03*
X-404900Y-85800D02*
D03*
X-426300Y-90500D02*
D03*
X-206900Y-21100D02*
D03*
X-407200Y-75400D02*
D03*
X-438900D02*
D03*
X-522600Y38100D02*
D03*
X-523187Y42822D02*
D03*
X-523763Y45955D02*
D03*
X-543289Y46000D02*
D03*
X-566689Y-71100D02*
D03*
X-573189Y-75200D02*
D03*
X-570089Y-72300D02*
D03*
X-545889Y-85600D02*
D03*
X-561089Y-70700D02*
D03*
X-564789Y-64000D02*
D03*
X-141700Y-133200D02*
D03*
X-85700Y-101600D02*
D03*
X-88800D02*
D03*
X-194894Y-103216D02*
D03*
X-510700Y283300D02*
D03*
X-517700Y286100D02*
D03*
X-535500Y278100D02*
D03*
X-478100Y125400D02*
D03*
X-473200Y89600D02*
D03*
X-370472Y-54134D02*
D03*
X-177100Y-98700D02*
D03*
X-78800Y-70700D02*
D03*
X-98600Y-62200D02*
D03*
X-67400Y-24300D02*
D03*
X-65600Y-29800D02*
D03*
X-347900Y74500D02*
D03*
X-525827Y71232D02*
D03*
X-529122D02*
D03*
X-64700Y-132900D02*
D03*
X-51400Y-112900D02*
D03*
X-99800Y-34200D02*
D03*
Y-37500D02*
D03*
X-92500Y-53500D02*
D03*
X-98000Y-48100D02*
D03*
X-65900Y-43600D02*
D03*
X-65700Y-40300D02*
D03*
X-45500Y-69000D02*
D03*
X-79300Y-82700D02*
D03*
X-66136Y-96500D02*
D03*
X-44764Y-93700D02*
D03*
X-44664Y-82700D02*
D03*
Y-59100D02*
D03*
X-66164Y-71400D02*
D03*
X-74264Y-59100D02*
D03*
X-83878Y-66481D02*
D03*
X-98700Y-82736D02*
D03*
X-654300Y-37100D02*
D03*
X-600800Y292400D02*
D03*
X-84100Y165265D02*
D03*
X-688019Y310870D02*
D03*
X-652300Y305000D02*
D03*
X-629600Y300000D02*
D03*
X-616322Y355096D02*
D03*
X-78300Y191900D02*
D03*
X-612000Y389200D02*
D03*
X-616322Y359033D02*
D03*
X-615300Y392600D02*
D03*
X-524001Y394999D02*
D03*
X-83950Y181150D02*
D03*
X-79900Y185900D02*
D03*
X-90300Y192000D02*
D03*
X-89300Y168585D02*
D03*
X-47244Y188976D02*
D03*
X-80300Y177400D02*
D03*
X-98233Y-79844D02*
D03*
X-101678Y-71281D02*
D03*
Y-68722D02*
D03*
X-95000Y-62100D02*
D03*
X-546500Y-89600D02*
D03*
X-522700Y89600D02*
D03*
X-606500Y95900D02*
D03*
X-543000Y132200D02*
D03*
X-583600Y162200D02*
D03*
X-582400Y159100D02*
D03*
X-584612Y150911D02*
D03*
X-572800Y142000D02*
D03*
X-572300Y131200D02*
D03*
X-653125Y181925D02*
D03*
X-353212Y430342D02*
D03*
X-412000Y427800D02*
D03*
X-418900Y422000D02*
D03*
X-421077Y425586D02*
D03*
X-416700Y417600D02*
D03*
X-53700Y-47000D02*
D03*
X-57637D02*
D03*
X-55637Y-45230D02*
D03*
X-51700D02*
D03*
X-47763D02*
D03*
X-59574D02*
D03*
X-47500Y-48000D02*
D03*
X-502200Y344700D02*
D03*
X-487000Y343500D02*
D03*
X-528300Y-94800D02*
D03*
X-538200D02*
D03*
X-569700Y157400D02*
D03*
X-506425Y235675D02*
D03*
X-517800Y237400D02*
D03*
X-501900Y352400D02*
D03*
X-506400Y273100D02*
D03*
Y231900D02*
D03*
X-535995Y239195D02*
D03*
X-536100Y235200D02*
D03*
X-530900Y285000D02*
D03*
X-530700Y355800D02*
D03*
X-420213Y182613D02*
D03*
X-561800Y187900D02*
D03*
X-544100Y159800D02*
D03*
X-544200Y141500D02*
D03*
X-569700Y140400D02*
D03*
X-494050Y331450D02*
D03*
X-491700Y346200D02*
D03*
X-491400Y343200D02*
D03*
X-487400Y336600D02*
D03*
X-479400Y344500D02*
D03*
X-483900Y150400D02*
D03*
X-487200Y147800D02*
D03*
X-493800Y132500D02*
D03*
X-490750Y134700D02*
D03*
X-487400Y137400D02*
D03*
X-667800Y378000D02*
D03*
X-563767Y388460D02*
D03*
X-670683Y374635D02*
D03*
X-633700Y328000D02*
D03*
X-646800Y313100D02*
D03*
X-656499Y316750D02*
D03*
X-577312Y422800D02*
D03*
X-570700Y405300D02*
D03*
X-566400Y406700D02*
D03*
X-559800Y414100D02*
D03*
X-605723Y395033D02*
D03*
X-570500Y143600D02*
D03*
X-495400Y130800D02*
D03*
X-510200Y417700D02*
D03*
X-513000Y415000D02*
D03*
X-523500Y289400D02*
D03*
X-512700Y330200D02*
D03*
X-508200Y81300D02*
D03*
X-514800Y90300D02*
D03*
X-513400Y423700D02*
D03*
X-516700Y421600D02*
D03*
X-94100Y-55500D02*
D03*
X-666000Y293900D02*
D03*
X-666100Y298800D02*
D03*
X-592300Y224562D02*
D03*
X-586000Y231762D02*
D03*
X-529232Y211486D02*
D03*
X-532576Y211441D02*
D03*
X-524152Y210765D02*
D03*
X-520252Y210265D02*
D03*
X-517319Y212933D02*
D03*
X-515152Y213765D02*
D03*
X-514068Y217881D02*
D03*
X-514052Y221065D02*
D03*
X-512452Y224965D02*
D03*
X-512352Y228865D02*
D03*
X-534804Y213613D02*
D03*
X-540227Y216465D02*
D03*
X-543352Y224865D02*
D03*
X-543452Y221065D02*
D03*
X-540140Y228653D02*
D03*
X-535654Y231467D02*
D03*
X-535502Y271102D02*
D03*
X-539988Y268288D02*
D03*
X-543300Y260700D02*
D03*
X-543200Y264500D02*
D03*
X-540075Y256100D02*
D03*
X-534652Y253248D02*
D03*
X-518900Y276900D02*
D03*
X-513800Y277100D02*
D03*
X-512200Y268500D02*
D03*
X-512300Y264600D02*
D03*
X-513900Y260700D02*
D03*
X-513916Y257516D02*
D03*
X-515000Y253400D02*
D03*
X-517167Y252567D02*
D03*
X-520100Y249900D02*
D03*
X-524000Y250400D02*
D03*
X-532424Y251076D02*
D03*
X-529079Y251120D02*
D03*
X-523551Y235425D02*
D03*
X-523372Y275103D02*
D03*
X-681270Y331130D02*
D03*
X-621400Y-93700D02*
D03*
X-575600Y-115600D02*
D03*
X-554612Y-91200D02*
D03*
X-563767Y349190D02*
D03*
X-555603Y347071D02*
D03*
X-563767Y353127D02*
D03*
X-567700Y351800D02*
D03*
X-555603Y351008D02*
D03*
X-416368Y-90429D02*
D03*
X-540200Y349600D02*
D03*
X-607022Y112411D02*
D03*
X-641200Y403100D02*
D03*
X-645300Y190300D02*
D03*
X-595100Y131900D02*
D03*
X-562100Y130300D02*
D03*
X-401500Y-96300D02*
D03*
X-607700Y153100D02*
D03*
X-603350Y128350D02*
D03*
X-583616Y171738D02*
D03*
X-398436Y-101900D02*
D03*
X-569500Y128100D02*
D03*
X-621222Y144469D02*
D03*
X-640353Y125525D02*
D03*
X-652525Y131775D02*
D03*
X-644400Y128400D02*
D03*
X-578200Y132600D02*
D03*
X-362900Y-97400D02*
D03*
X-502800Y-104646D02*
D03*
X-493200Y-105231D02*
D03*
X-594900Y-81600D02*
D03*
X-359728Y-111072D02*
D03*
X-361900Y-100600D02*
D03*
X-369990Y-87368D02*
D03*
Y-95242D02*
D03*
Y-103116D02*
D03*
X-370000Y-111000D02*
D03*
X-631300Y-65800D02*
D03*
X-608700Y-83300D02*
D03*
X-608800Y-80200D02*
D03*
X-604322Y-90160D02*
D03*
X-635822Y195540D02*
D03*
X-599800Y-109500D02*
D03*
X-652700Y-93900D02*
D03*
X-516915Y139200D02*
D03*
X-520122Y76840D02*
D03*
X-410500Y345100D02*
D03*
X-355700Y311500D02*
D03*
X-697000Y343200D02*
D03*
X-696900Y336500D02*
D03*
X-689600Y348400D02*
D03*
X-611962Y344500D02*
D03*
X-546600Y338692D02*
D03*
X-611708Y386508D02*
D03*
X-551200Y150700D02*
D03*
X-546600Y334892D02*
D03*
X-551200Y345800D02*
D03*
X-596400Y359900D02*
D03*
X-589400Y365100D02*
D03*
X-565400Y371800D02*
D03*
X-589500Y331100D02*
D03*
X-588510Y146691D02*
D03*
X-592100Y348300D02*
D03*
X-588200Y343700D02*
D03*
X-596100Y329200D02*
D03*
X-597817Y349717D02*
D03*
X-532600Y329300D02*
D03*
X-539900Y336308D02*
D03*
X-508900Y335800D02*
D03*
X-524656Y320456D02*
D03*
X-628350Y194950D02*
D03*
X-625639Y187845D02*
D03*
X-632000Y166900D02*
D03*
X-595000Y135800D02*
D03*
X-604700Y138900D02*
D03*
X-604600Y142700D02*
D03*
X-635700Y163900D02*
D03*
X-694800Y356800D02*
D03*
X-699200Y354400D02*
D03*
X-599284Y316648D02*
D03*
X-467000Y170100D02*
D03*
X-475700Y157100D02*
D03*
X-597900Y263200D02*
D03*
X-594800Y151100D02*
D03*
X-603800Y261100D02*
D03*
X-605100Y130700D02*
D03*
X-626100Y150600D02*
D03*
X-546600Y-96700D02*
D03*
X-621222Y147028D02*
D03*
Y139351D02*
D03*
X-636350Y149587D02*
D03*
Y141910D02*
D03*
X-596500Y77000D02*
D03*
X-605200Y-101100D02*
D03*
X-613300Y-95300D02*
D03*
X-639600Y155200D02*
D03*
X-568392Y395054D02*
D03*
X-594400Y393900D02*
D03*
X-603085Y406485D02*
D03*
X-643300Y407400D02*
D03*
X-646700Y404500D02*
D03*
X-649350Y152750D02*
D03*
X-604700Y146900D02*
D03*
X-652900Y144500D02*
D03*
X-653000Y135600D02*
D03*
X-598487Y156870D02*
D03*
X-590387Y159430D02*
D03*
X-598487Y161988D02*
D03*
X-590387Y164548D02*
D03*
X-598487Y167107D02*
D03*
Y172225D02*
D03*
X-562000Y134200D02*
D03*
X-576800Y139500D02*
D03*
X-550260Y126983D02*
D03*
X-558921D02*
D03*
X-588500Y137400D02*
D03*
X-611400Y-99700D02*
D03*
X-545600Y-133100D02*
D03*
X-541100Y-84100D02*
D03*
X-483300Y-83700D02*
D03*
X-537241Y-133105D02*
D03*
X-516100Y-132700D02*
D03*
X-505550Y427350D02*
D03*
X-508236Y-95024D02*
D03*
X-494300Y368600D02*
D03*
X-498200Y-84086D02*
D03*
Y-120700D02*
D03*
X-491100Y-118700D02*
D03*
X-496900Y-95500D02*
D03*
X-488209Y-116991D02*
D03*
X-83100Y-132800D02*
D03*
X-483200Y-98100D02*
D03*
X-245900Y-97600D02*
D03*
X-478200Y-104000D02*
D03*
X-533300Y-84182D02*
D03*
X-488200Y-120700D02*
D03*
X-219400Y-101100D02*
D03*
X-51150Y140150D02*
D03*
X-534800Y77700D02*
D03*
X-616322Y351159D02*
D03*
Y347222D02*
D03*
X-624307Y349040D02*
D03*
X-330600Y-101700D02*
D03*
X-692600Y353700D02*
D03*
X-696800Y370700D02*
D03*
X-574500Y151100D02*
D03*
X-578800Y176900D02*
D03*
X-653000Y139400D02*
D03*
X-546900Y85400D02*
D03*
X-585200Y142800D02*
D03*
X-583200Y147900D02*
D03*
X-646034Y179000D02*
D03*
X-637700Y209300D02*
D03*
X-560978Y-67300D02*
D03*
X-542627Y-69713D02*
D03*
Y-81918D02*
D03*
X-538300Y64178D02*
D03*
Y73728D02*
D03*
X-535479Y116480D02*
D03*
X-513400Y101100D02*
D03*
X-545500D02*
D03*
X-234030Y207019D02*
D03*
Y210956D02*
D03*
X-230093D02*
D03*
Y214893D02*
D03*
X-661735Y84105D02*
D03*
X-665480Y96655D02*
D03*
X-666954Y94098D02*
D03*
X-645301Y100988D02*
D03*
X-643826Y103545D02*
D03*
X-657563Y94679D02*
D03*
X-590500Y154320D02*
D03*
X-590387Y169666D02*
D03*
X-586494Y178927D02*
D03*
X-612012Y159404D02*
D03*
X-612131Y171806D02*
D03*
X-295980Y-36943D02*
D03*
X-300980D02*
D03*
X-305980D02*
D03*
X-310980D02*
D03*
X-315980D02*
D03*
X-235819Y-24160D02*
D03*
X-233398Y-22643D02*
D03*
X-230819Y-24160D02*
D03*
X-228280Y-22643D02*
D03*
X-224800Y-18500D02*
D03*
X-194500Y-12900D02*
D03*
X-203681Y3260D02*
D03*
X-228243Y-1557D02*
D03*
X-203718Y-19459D02*
D03*
X-208837D02*
D03*
X-196996Y-10215D02*
D03*
X-456229Y195110D02*
D03*
X-456260Y205110D02*
D03*
X-467800Y212800D02*
D03*
X-487743Y211596D02*
D03*
X-487769Y214869D02*
D03*
X-487400Y232700D02*
D03*
Y229400D02*
D03*
X-326100Y328300D02*
D03*
X-333268Y325984D02*
D03*
X-606000Y-54000D02*
D03*
X-609200D02*
D03*
X-613700Y-68178D02*
D03*
X-618110Y-85138D02*
D03*
X-637205Y-76968D02*
D03*
X-674900Y-75400D02*
D03*
X-622539Y-77854D02*
D03*
X-451260Y190110D02*
D03*
Y195110D02*
D03*
X-441260Y-80390D02*
D03*
X-40600Y-39300D02*
D03*
X-65900Y-92700D02*
D03*
Y-86800D02*
D03*
Y-80900D02*
D03*
Y-75000D02*
D03*
Y-69000D02*
D03*
Y-63100D02*
D03*
Y-57200D02*
D03*
Y-51300D02*
D03*
X-74230Y-65000D02*
D03*
X-76403Y-55200D02*
D03*
Y-67000D02*
D03*
Y-78800D02*
D03*
X-74230Y-88600D02*
D03*
X-76403Y-90600D02*
D03*
X-74230Y-76800D02*
D03*
Y-53200D02*
D03*
X-46500Y-96300D02*
D03*
X-222244Y-47638D02*
D03*
X-196039Y-31393D02*
D03*
X-480217Y378346D02*
D03*
X-687106Y339885D02*
D03*
X-611700Y395000D02*
D03*
X-563700Y362900D02*
D03*
X-563500Y357000D02*
D03*
X-566300Y342300D02*
D03*
X-570300D02*
D03*
X-576200D02*
D03*
X-580100D02*
D03*
X-584000Y342400D02*
D03*
X-591900Y342600D02*
D03*
X-595900D02*
D03*
X-616188Y364805D02*
D03*
X-210408Y273948D02*
D03*
X-426260Y89520D02*
D03*
X-170511Y384103D02*
D03*
X-142162Y415603D02*
D03*
Y409303D02*
D03*
X-167213Y399793D02*
D03*
X-148461Y403003D02*
D03*
X-145311Y399853D02*
D03*
X-141929Y380906D02*
D03*
X-167361Y390403D02*
D03*
X-148461Y406153D02*
D03*
X-148461Y390403D02*
D03*
X-170511Y409303D02*
D03*
X-142162Y390403D02*
D03*
X-170511Y415603D02*
D03*
X-141929Y377756D02*
D03*
X-170511Y390403D02*
D03*
X-191177Y406154D02*
D03*
X-213227Y390405D02*
D03*
X-191177Y390404D02*
D03*
X-210077Y399854D02*
D03*
X-213227Y409304D02*
D03*
Y415604D02*
D03*
X-184877Y380955D02*
D03*
X-188027Y399854D02*
D03*
X-210077Y390405D02*
D03*
X-191177Y403004D02*
D03*
X-213227Y384105D02*
D03*
X-184877Y415604D02*
D03*
Y390405D02*
D03*
Y409304D02*
D03*
X-233760Y406106D02*
D03*
X-227819Y380858D02*
D03*
X-230611Y399805D02*
D03*
X-227461Y390356D02*
D03*
X-252660Y399805D02*
D03*
X-255810Y409256D02*
D03*
X-233761Y387206D02*
D03*
X-255810Y415555D02*
D03*
Y390356D02*
D03*
X-233760Y402955D02*
D03*
X-227461Y409256D02*
D03*
X-249511Y390356D02*
D03*
X-255810Y384056D02*
D03*
X-227461Y415555D02*
D03*
X-270410Y380902D02*
D03*
Y393502D02*
D03*
X-295609Y390352D02*
D03*
X-298759Y409252D02*
D03*
X-276709Y406102D02*
D03*
X-298759Y415552D02*
D03*
X-295609Y377752D02*
D03*
Y399802D02*
D03*
X-298759Y384052D02*
D03*
X-270410Y415552D02*
D03*
X-276710Y390352D02*
D03*
X-273560Y399802D02*
D03*
X-298759Y390352D02*
D03*
X-276709Y402952D02*
D03*
X-270410Y409252D02*
D03*
X-613579Y403373D02*
D03*
X-624307Y356914D02*
D03*
X-568301Y334472D02*
D03*
X-574207Y403176D02*
D03*
X-624307Y392348D02*
D03*
X-589955Y334472D02*
D03*
X-624307Y353173D02*
D03*
X-555603Y354945D02*
D03*
X-566234Y403176D02*
D03*
X-624307Y345102D02*
D03*
X-611610Y334472D02*
D03*
X-582081D02*
D03*
X-555603Y390478D02*
D03*
X-614764Y388484D02*
D03*
X-597835Y394488D02*
D03*
X-614370Y370374D02*
D03*
X-618300Y-81200D02*
D03*
X-642300Y-102000D02*
D03*
X-640000Y-103100D02*
D03*
X-672771Y-52271D02*
D03*
X-648900Y-71500D02*
D03*
X-599500Y-94900D02*
D03*
X-611100Y-103100D02*
D03*
X-210400Y301400D02*
D03*
X-210800Y298000D02*
D03*
X-25886Y-2953D02*
D03*
X-107283Y386122D02*
D03*
X-113287Y386417D02*
D03*
X-435900Y182400D02*
D03*
X-428900Y182600D02*
D03*
X-514600Y85600D02*
D03*
X-281398Y305413D02*
D03*
X-285211Y305444D02*
D03*
X-683400Y-52700D02*
D03*
X-230118Y222835D02*
D03*
X-523400Y356000D02*
D03*
X-426368Y74567D02*
D03*
X-431476Y64615D02*
D03*
X-679576Y417800D02*
D03*
X-245908Y198357D02*
D03*
X-241904Y199213D02*
D03*
X-273400Y249600D02*
D03*
X-331300Y163700D02*
D03*
X-327100Y158000D02*
D03*
X-422600Y420400D02*
D03*
X-422700Y416600D02*
D03*
X-660500Y-118400D02*
D03*
X-156000Y179200D02*
D03*
X-244700Y84500D02*
D03*
X-348900Y-37900D02*
D03*
X-499286Y365220D02*
D03*
X-493800Y99000D02*
D03*
X-504500Y108600D02*
D03*
X-493461Y120660D02*
D03*
X-491500Y108000D02*
D03*
X-506500Y116200D02*
D03*
X-105700Y390600D02*
D03*
X-26700Y34500D02*
D03*
X-144800Y191500D02*
D03*
X-145600Y189300D02*
D03*
X-144800Y184400D02*
D03*
X-145900Y150600D02*
D03*
X-123600Y332600D02*
D03*
X-118700Y332500D02*
D03*
X-114400Y334200D02*
D03*
X-18400Y124700D02*
D03*
X-17900Y122600D02*
D03*
X-20200Y120100D02*
D03*
X-28600Y119800D02*
D03*
X-27500Y121700D02*
D03*
X-25700Y119800D02*
D03*
X-24000Y122000D02*
D03*
X-22400Y120100D02*
D03*
X-63600Y170200D02*
D03*
X-63300Y149800D02*
D03*
X-59900Y150300D02*
D03*
X-62800Y152900D02*
D03*
X-63500Y161800D02*
D03*
X-62400Y157000D02*
D03*
X-59700Y158800D02*
D03*
X-59900Y163000D02*
D03*
X-62500Y165300D02*
D03*
X-60400Y168000D02*
D03*
X-241904Y210956D02*
D03*
X-253715Y214862D02*
D03*
X-301162Y170586D02*
D03*
X-312383Y173834D02*
D03*
X-237992Y222933D02*
D03*
X-332480Y269882D02*
D03*
X-249323Y343619D02*
D03*
X-360000Y248600D02*
D03*
X-357562Y254940D02*
D03*
X-364945Y247361D02*
D03*
X-176260Y-94390D02*
D03*
X-555390Y57891D02*
D03*
X-451476Y104615D02*
D03*
X-426260Y109520D02*
D03*
X-421260Y104520D02*
D03*
X-436321Y104675D02*
D03*
X-441476Y104615D02*
D03*
X-446321Y104675D02*
D03*
X-426260Y99520D02*
D03*
X-421260Y94520D02*
D03*
Y84520D02*
D03*
X-456260Y-85480D02*
D03*
X-451476Y-90385D02*
D03*
X-426260Y385110D02*
D03*
X-441321Y385266D02*
D03*
X-451321D02*
D03*
X-446321Y380266D02*
D03*
X-436321D02*
D03*
X-426321D02*
D03*
X-426260Y375110D02*
D03*
X-421260Y370110D02*
D03*
X-426260Y365110D02*
D03*
X-421260Y360110D02*
D03*
X-426260Y345110D02*
D03*
X-451368Y185158D02*
D03*
X-456760Y189766D02*
D03*
X-411368Y79567D02*
D03*
X-421368D02*
D03*
X-532275Y380438D02*
D03*
X-531456Y367693D02*
D03*
X-539764Y390551D02*
D03*
Y386417D02*
D03*
X-539911Y382579D02*
D03*
X-598327Y278543D02*
D03*
X-567913Y283071D02*
D03*
X-200763Y325219D02*
D03*
X-195276Y-22736D02*
D03*
X-204246Y359320D02*
D03*
X-249880Y347661D02*
D03*
X-521161Y379528D02*
D03*
X-20768Y38484D02*
D03*
X-26673Y90650D02*
D03*
X-32283Y-60925D02*
D03*
Y-81102D02*
D03*
X-20144Y122060D02*
D03*
X-205094Y165369D02*
D03*
X-249778Y210956D02*
D03*
X-241904Y277885D02*
D03*
X-277337Y254263D02*
D03*
X-297022Y214893D02*
D03*
X-360925Y316831D02*
D03*
X-357579Y251575D02*
D03*
X-376476Y172343D02*
D03*
X-182185Y230315D02*
D03*
X-245841Y238515D02*
D03*
X-241904Y242452D02*
D03*
X-249585Y285749D02*
D03*
X-624803Y406496D02*
D03*
X-669200Y326234D02*
D03*
X-300886Y238681D02*
D03*
X-630020Y414567D02*
D03*
X-665453Y325590D02*
D03*
X-664272Y327854D02*
D03*
X-635170Y323177D02*
D03*
X-644193Y380315D02*
D03*
X-641533Y384474D02*
D03*
X-668701Y-79724D02*
D03*
X-676968Y-73188D02*
D03*
X-643597Y-44980D02*
D03*
X-304896Y293633D02*
D03*
X-194882Y72835D02*
D03*
X-312795Y305610D02*
D03*
X-165351Y182211D02*
D03*
X-189100Y181400D02*
D03*
X-173597Y180625D02*
D03*
X-210508Y160250D02*
D03*
X-205882Y177279D02*
D03*
X-204996Y173637D02*
D03*
X-206372Y169577D02*
D03*
X-210508Y165467D02*
D03*
X-214345Y156707D02*
D03*
Y163302D02*
D03*
Y168799D02*
D03*
Y174424D02*
D03*
X-218282Y174818D02*
D03*
Y170487D02*
D03*
X-222244Y170669D02*
D03*
X-304804Y167239D02*
D03*
Y172554D02*
D03*
X-320158Y151524D02*
D03*
X-229899Y175113D02*
D03*
Y152081D02*
D03*
X-233900Y155000D02*
D03*
X-233934Y160433D02*
D03*
Y165650D02*
D03*
X-229899Y169700D02*
D03*
X-233934Y171190D02*
D03*
X-242005Y168617D02*
D03*
X-242000Y157800D02*
D03*
X-253715Y157736D02*
D03*
Y174095D02*
D03*
Y168633D02*
D03*
X-261691Y166300D02*
D03*
X-278523Y160152D02*
D03*
X-277337Y174311D02*
D03*
X-281274Y175999D02*
D03*
X-292987Y179528D02*
D03*
X-269400Y169000D02*
D03*
X-308800Y146500D02*
D03*
X-314173Y146457D02*
D03*
X-316221Y155461D02*
D03*
X-378823Y178165D02*
D03*
X-373311Y172357D02*
D03*
X-369882Y172343D02*
D03*
X-365043Y289784D02*
D03*
X-365240Y186334D02*
D03*
X-361614Y191240D02*
D03*
X-353920Y199213D02*
D03*
X-357480Y195276D02*
D03*
X-366142Y195177D02*
D03*
X-362697Y199213D02*
D03*
X-358957Y202953D02*
D03*
X-366043Y203051D02*
D03*
X-381791Y250394D02*
D03*
X-360531Y306398D02*
D03*
X-360433Y299902D02*
D03*
X-361024Y293701D02*
D03*
X-366437Y300492D02*
D03*
X-375000Y285335D02*
D03*
X-371654Y282874D02*
D03*
X-371835Y274626D02*
D03*
X-376378Y271752D02*
D03*
X-375083Y257992D02*
D03*
X-376575Y264961D02*
D03*
X-173327Y273819D02*
D03*
Y277953D02*
D03*
Y281890D02*
D03*
X-176156Y287324D02*
D03*
X-182677Y285728D02*
D03*
X-253054Y350602D02*
D03*
X-259427Y355536D02*
D03*
X-261494Y351008D02*
D03*
X-193819Y242284D02*
D03*
X-193578Y230529D02*
D03*
X-193701Y225098D02*
D03*
X-253642Y289665D02*
D03*
X-320669Y206988D02*
D03*
X-285216Y183578D02*
D03*
X-315040Y186334D02*
D03*
X-309036Y183578D02*
D03*
X-302244Y183381D02*
D03*
X-322736Y354921D02*
D03*
X-312973Y354847D02*
D03*
X-367697Y427559D02*
D03*
X-365945Y374213D02*
D03*
X-373031Y372933D02*
D03*
X-377461Y373524D02*
D03*
X-381594Y373819D02*
D03*
X-330020Y326476D02*
D03*
X-337106Y326083D02*
D03*
X-304896Y242452D02*
D03*
Y246389D02*
D03*
X-300959Y242452D02*
D03*
X-296991Y242328D02*
D03*
X-289148Y246420D02*
D03*
X-570374Y154232D02*
D03*
X-571161Y165256D02*
D03*
X-517815Y154232D02*
D03*
X-515748Y159744D02*
D03*
X-515354Y165256D02*
D03*
X-269463Y218830D02*
D03*
X-430204Y395107D02*
D03*
X-424888D02*
D03*
X-430100Y388700D02*
D03*
X-425184Y388720D02*
D03*
X-419574Y395206D02*
D03*
X-414258D02*
D03*
X-419475Y388757D02*
D03*
X-414554Y388818D02*
D03*
X-30413Y-109252D02*
D03*
X-25492D02*
D03*
X-23425Y-115748D02*
D03*
X-34055Y-111417D02*
D03*
X-186860Y-79159D02*
D03*
X-184881Y-88107D02*
D03*
X-191952Y-95178D02*
D03*
X-686319Y-14665D02*
D03*
X-683756Y-12405D02*
D03*
X-648917Y-63976D02*
D03*
X-647342Y-61417D02*
D03*
X-649902Y-59252D02*
D03*
X-647244Y-57677D02*
D03*
X-647736Y-54232D02*
D03*
X-649409Y-51673D02*
D03*
X-669685Y-63386D02*
D03*
X-671555Y-61516D02*
D03*
X-669488Y-59449D02*
D03*
X-671555Y-57382D02*
D03*
X-649114Y-67323D02*
D03*
X-667220Y-68708D02*
D03*
X-652653D02*
D03*
X-655606Y-69298D02*
D03*
X-664366Y-69397D02*
D03*
X-192126Y54626D02*
D03*
X-192224Y70177D02*
D03*
Y66339D02*
D03*
X-277337Y187303D02*
D03*
X-257652Y186122D02*
D03*
X-201059Y195784D02*
D03*
X-273405Y190847D02*
D03*
X-218282Y187008D02*
D03*
X-261589Y218830D02*
D03*
X-304896Y191271D02*
D03*
X-336417Y246161D02*
D03*
X-269463Y250326D02*
D03*
X-261589D02*
D03*
X-253715D02*
D03*
X-265526Y258200D02*
D03*
Y254263D02*
D03*
X-257652D02*
D03*
X-261589Y258200D02*
D03*
X-253715D02*
D03*
X-241904Y273948D02*
D03*
X-245841Y277885D02*
D03*
X-234030Y242452D02*
D03*
X-265526Y230641D02*
D03*
X-269463D02*
D03*
X-245841Y234578D02*
D03*
X-265526Y262137D02*
D03*
X-206471Y199145D02*
D03*
X-218282Y203082D02*
D03*
X-214345Y214893D02*
D03*
X-222219Y191271D02*
D03*
X-234030Y195208D02*
D03*
X-249778Y234578D02*
D03*
Y226704D02*
D03*
X-253715Y238515D02*
D03*
X-249778Y242452D02*
D03*
X-257652D02*
D03*
Y234578D02*
D03*
Y203082D02*
D03*
X-245841Y246389D02*
D03*
X-261589Y238515D02*
D03*
Y230641D02*
D03*
Y191271D02*
D03*
X-234030Y250326D02*
D03*
X-241904D02*
D03*
X-249778D02*
D03*
X-265526Y242452D02*
D03*
Y234578D02*
D03*
X-269463Y207019D02*
D03*
Y238515D02*
D03*
X-245841Y254263D02*
D03*
X-218282Y277885D02*
D03*
Y270011D02*
D03*
X-226156Y273948D02*
D03*
X-234030Y270011D02*
D03*
X-241904D02*
D03*
X-245841Y273948D02*
D03*
X-249778Y270011D02*
D03*
Y277885D02*
D03*
X-253715Y273948D02*
D03*
X-257652Y270011D02*
D03*
X-261589Y273948D02*
D03*
X-265526Y277885D02*
D03*
Y270011D02*
D03*
X-261589Y266074D02*
D03*
X-253715D02*
D03*
X-245841D02*
D03*
X-226156D02*
D03*
X-234030Y262137D02*
D03*
X-241904D02*
D03*
X-249778D02*
D03*
X-257652D02*
D03*
X-269463Y266074D02*
D03*
Y273948D02*
D03*
X-328518Y277885D02*
D03*
X-320644Y273948D02*
D03*
X-304896D02*
D03*
X-297022D02*
D03*
X-293085Y277885D02*
D03*
X-289148Y273948D02*
D03*
X-285211Y277885D02*
D03*
X-281274Y273948D02*
D03*
X-277337Y277885D02*
D03*
X-316707Y238515D02*
D03*
X-320644D02*
D03*
X-285138Y199114D02*
D03*
X-289272D02*
D03*
X-332455Y266074D02*
D03*
X-316707D02*
D03*
X-277337Y270011D02*
D03*
X-281274Y266074D02*
D03*
X-285211Y262137D02*
D03*
X-293085D02*
D03*
X-300959D02*
D03*
X-312770D02*
D03*
X-304896Y266074D02*
D03*
X-297022D02*
D03*
X-289148D02*
D03*
X-285211Y270011D02*
D03*
X-293085D02*
D03*
X-300959D02*
D03*
X-312770D02*
D03*
X-328543Y269882D02*
D03*
X-320644Y254263D02*
D03*
X-304896D02*
D03*
X-277337Y242452D02*
D03*
Y234578D02*
D03*
Y195208D02*
D03*
X-281274Y222767D02*
D03*
Y238515D02*
D03*
X-285335Y242520D02*
D03*
X-285211Y234578D02*
D03*
Y210956D02*
D03*
X-289148Y226704D02*
D03*
Y238515D02*
D03*
X-293085Y234578D02*
D03*
Y226704D02*
D03*
X-297022Y238515D02*
D03*
X-300959Y250326D02*
D03*
Y203082D02*
D03*
X-304896Y230641D02*
D03*
X-308833Y218830D02*
D03*
X-316634Y195177D02*
D03*
X-312770Y207019D02*
D03*
Y242452D02*
D03*
Y250326D02*
D03*
X-320768Y222736D02*
D03*
X-320644Y246389D02*
D03*
X-324581Y210956D02*
D03*
X-328518Y199145D02*
D03*
X-328543Y242224D02*
D03*
X-340329Y203082D02*
D03*
X-336392Y238515D02*
D03*
X-281274Y230641D02*
D03*
X-277337D02*
D03*
X-293085Y254263D02*
D03*
X-289148Y258200D02*
D03*
X-285211Y254263D02*
D03*
X-281274Y258200D02*
D03*
X-289148Y250326D02*
D03*
X-297022Y258200D02*
D03*
Y250326D02*
D03*
X-281274D02*
D03*
X-328518Y226704D02*
D03*
X-332455Y214893D02*
D03*
X-277337Y262137D02*
D03*
X-336319Y258071D02*
D03*
X-328389Y258273D02*
D03*
X-324556Y254490D02*
D03*
X-210408Y254263D02*
D03*
X-218282Y250326D02*
D03*
X-226156Y246389D02*
D03*
X-210408D02*
D03*
X-218282Y242452D02*
D03*
X-210408Y238515D02*
D03*
Y226704D02*
D03*
X-226156Y218830D02*
D03*
X-226156Y230641D02*
D03*
X-218282D02*
D03*
X-265526Y293633D02*
D03*
X-261589Y305444D02*
D03*
X-265526Y301507D02*
D03*
X-200197Y308957D02*
D03*
X-273400Y309381D02*
D03*
X-269463Y321192D02*
D03*
X-270410Y377752D02*
D03*
X-308833Y321192D02*
D03*
X-324606Y313484D02*
D03*
X-312770Y309381D02*
D03*
X-300959Y317255D02*
D03*
X-297047Y317323D02*
D03*
X-281274Y285759D02*
D03*
Y281822D02*
D03*
X-285211Y313318D02*
D03*
X-289148Y281822D02*
D03*
X-320644Y285759D02*
D03*
X-293110Y289665D02*
D03*
X-300959Y305444D02*
D03*
X-308833Y289696D02*
D03*
X-316707Y297570D02*
D03*
X-332455Y289696D02*
D03*
X-269463Y281822D02*
D03*
X-261589D02*
D03*
X-257677Y301378D02*
D03*
X-249778Y289598D02*
D03*
X-245841Y281822D02*
D03*
X-241904Y313318D02*
D03*
X-237967Y285759D02*
D03*
X-238189Y325197D02*
D03*
X-233931Y297570D02*
D03*
X-230093D02*
D03*
Y309381D02*
D03*
X-222219Y289696D02*
D03*
Y293633D02*
D03*
X-210408Y289696D02*
D03*
X-214345Y317255D02*
D03*
X-218282D02*
D03*
X-241904Y281822D02*
D03*
X-297022D02*
D03*
X-252660Y377756D02*
D03*
X-184877Y377805D02*
D03*
X-210077D02*
D03*
X-167361Y377803D02*
D03*
X-230610Y377756D02*
D03*
X-245669Y301575D02*
D03*
X-336910Y403689D02*
D03*
X-336910Y396602D02*
D03*
Y389516D02*
D03*
Y382429D02*
D03*
Y417862D02*
D03*
X-332480Y313484D02*
D03*
X-285211Y301507D02*
D03*
X-289148Y301507D02*
D03*
X-320644Y325129D02*
D03*
X-324581Y297570D02*
D03*
X-336417Y301378D02*
D03*
X-225984Y317323D02*
D03*
Y321260D02*
D03*
X-21309Y115157D02*
D03*
X-233957Y222835D02*
D03*
X-364843Y415846D02*
D03*
X-362579Y385433D02*
D03*
X-358642Y385335D02*
D03*
X-346831Y385433D02*
D03*
X-346634Y379134D02*
D03*
X-350571Y379035D02*
D03*
X-354508D02*
D03*
X-358445D02*
D03*
X-362579D02*
D03*
X-354705Y385433D02*
D03*
X-350768D02*
D03*
X-336910Y410776D02*
D03*
X-203248Y364075D02*
D03*
X-199311Y366831D02*
D03*
X-205020Y353642D02*
D03*
X-210630Y345276D02*
D03*
X-206791Y341535D02*
D03*
X-202756Y313484D02*
D03*
X-198622Y313583D02*
D03*
X-206496Y301476D02*
D03*
X-324588Y321161D02*
D03*
X-324508Y325689D02*
D03*
X-332480Y317421D02*
D03*
Y321161D02*
D03*
X-332561Y297462D02*
D03*
X-328543Y301378D02*
D03*
X-324606Y293602D02*
D03*
Y285827D02*
D03*
Y289665D02*
D03*
X-403642Y94980D02*
D03*
X-406890Y99016D02*
D03*
X-403937Y104626D02*
D03*
X-397244Y109153D02*
D03*
X-390551Y104626D02*
D03*
X-397146Y99705D02*
D03*
X-450874Y393333D02*
D03*
X-451083Y388878D02*
D03*
X-140748Y-82087D02*
D03*
X-154232Y-81791D02*
D03*
X-137072Y-71281D02*
D03*
X-137205Y-75000D02*
D03*
X-157677Y-75098D02*
D03*
X-157841Y-71281D02*
D03*
X-151378Y-63287D02*
D03*
X-141108Y-66360D02*
D03*
X-153805Y-66163D02*
D03*
X-143495Y-63287D02*
D03*
X-133563Y-71260D02*
D03*
X-160827Y-62205D02*
D03*
X-243668Y-101005D02*
D03*
X-243504Y-104823D02*
D03*
X-223031Y-104724D02*
D03*
X-222899Y-101005D02*
D03*
X-240059Y-111516D02*
D03*
X-226575Y-111811D02*
D03*
X-229322Y-93012D02*
D03*
X-239632Y-95887D02*
D03*
X-226935Y-96084D02*
D03*
X-237205Y-93012D02*
D03*
X-320886Y-96949D02*
D03*
X-310616Y-100021D02*
D03*
X-313003Y-96949D02*
D03*
X-310256Y-115748D02*
D03*
X-323740Y-115453D02*
D03*
X-306580Y-104943D02*
D03*
X-306713Y-108661D02*
D03*
X-327185Y-108760D02*
D03*
X-327349Y-104943D02*
D03*
X-303071Y-104921D02*
D03*
X-346752Y319882D02*
D03*
X-360925Y313878D02*
D03*
X-192224Y62992D02*
D03*
X-289148Y305444D02*
D03*
X-285211Y285759D02*
D03*
X-348819Y327067D02*
D03*
X-344193Y323130D02*
D03*
X-149467Y-132874D02*
D03*
X-222219Y258200D02*
D03*
X-214345Y266074D02*
D03*
X-552257Y361343D02*
D03*
X-552355Y384080D02*
D03*
X-599208Y406522D02*
D03*
X-548032Y372249D02*
D03*
X-540150Y371876D02*
D03*
X-536221Y368602D02*
D03*
Y361910D02*
D03*
X-540150Y365183D02*
D03*
X-574699Y331223D02*
D03*
X-578144Y334472D02*
D03*
X-627457Y360359D02*
D03*
X-607673Y334472D02*
D03*
X-300984Y273622D02*
D03*
X-607501Y120752D02*
D03*
X-351046Y412527D02*
D03*
X-357051Y422468D02*
D03*
X-355098Y426378D02*
D03*
X-601078Y310750D02*
D03*
X-604523Y302777D02*
D03*
X-640450Y389494D02*
D03*
X-591634Y-130413D02*
D03*
X-432645Y422665D02*
D03*
X-430590Y420472D02*
D03*
X-635430Y341362D02*
D03*
X-629342Y328163D02*
D03*
X-550889Y355976D02*
D03*
X-71328Y-119783D02*
D03*
X-345522Y330463D02*
D03*
X-193012Y206496D02*
D03*
X-374587Y427559D02*
D03*
X-165551Y-106496D02*
D03*
X-532374Y375418D02*
D03*
X-689764Y248524D02*
D03*
X-626772Y339075D02*
D03*
X-639272Y338287D02*
D03*
X-406496Y355118D02*
D03*
X-402362Y355217D02*
D03*
X-357579Y257972D02*
D03*
X-348999Y235648D02*
D03*
X-355217Y241339D02*
D03*
X-355904Y236207D02*
D03*
X-358836Y239138D02*
D03*
X-366142Y218110D02*
D03*
X-364075Y215650D02*
D03*
X-362598Y207579D02*
D03*
X-354626Y206988D02*
D03*
X-346555Y206890D02*
D03*
X-345866Y214961D02*
D03*
X-350000Y218898D02*
D03*
X-354528D02*
D03*
X-364665Y209252D02*
D03*
X-324606Y206988D02*
D03*
X-320669Y195177D02*
D03*
Y199114D02*
D03*
X-328543Y214862D02*
D03*
X-320669Y210925D02*
D03*
Y214862D02*
D03*
Y218799D02*
D03*
X-230064Y184239D02*
D03*
X-196949Y184547D02*
D03*
X-139835Y286142D02*
D03*
X-146725D02*
D03*
X-153615D02*
D03*
X-160504D02*
D03*
X-167099D02*
D03*
X-163779Y281890D02*
D03*
X-156988D02*
D03*
X-150098D02*
D03*
X-143209D02*
D03*
X-169955Y281910D02*
D03*
X-143307Y292224D02*
D03*
X-150197Y292323D02*
D03*
X-146824Y289587D02*
D03*
X-139835D02*
D03*
X-154035Y289567D02*
D03*
X-161909D02*
D03*
X-163753Y297462D02*
D03*
X-163779Y292323D02*
D03*
X-152237Y297363D02*
D03*
X-162008Y301476D02*
D03*
X-157972D02*
D03*
X-153937Y301575D02*
D03*
X-167986Y292737D02*
D03*
X-174114Y297638D02*
D03*
X-170348Y289587D02*
D03*
X-220866Y62500D02*
D03*
X-289148Y309381D02*
D03*
X-337008Y375342D02*
D03*
Y372390D02*
D03*
X-307776Y391189D02*
D03*
X-623819Y-91043D02*
D03*
X-683760Y3347D02*
D03*
X-242028Y174409D02*
D03*
X-230093Y207019D02*
D03*
X-200960Y201394D02*
D03*
X-265526Y222767D02*
D03*
X-304896Y277885D02*
D03*
X-308833Y281822D02*
D03*
X-285315Y309372D02*
D03*
X-281201Y325197D02*
D03*
X-285211Y297570D02*
D03*
X-277264Y297539D02*
D03*
X-108661Y384154D02*
D03*
X-110236Y386024D02*
D03*
X-111909Y384154D02*
D03*
X-421368Y340158D02*
D03*
Y335158D02*
D03*
X-410714Y350220D02*
D03*
X-426368Y59567D02*
D03*
X-426260Y64610D02*
D03*
X-431260Y54610D02*
D03*
X-426368Y79567D02*
D03*
X-421260Y59610D02*
D03*
Y64610D02*
D03*
X-426368Y-85433D02*
D03*
X-436260Y-90390D02*
D03*
X-446368Y-85433D02*
D03*
X-426260Y355110D02*
D03*
Y350110D02*
D03*
Y340110D02*
D03*
Y335110D02*
D03*
X-426760Y330110D02*
D03*
X-273425Y172300D02*
D03*
X-201191Y206998D02*
D03*
X-419862Y418701D02*
D03*
X-667800Y-118300D02*
D03*
X-183000Y237800D02*
D03*
X-493400Y-99100D02*
D03*
X-494600Y-96300D02*
D03*
X-241904Y203051D02*
D03*
X-245908D02*
D03*
X-296949Y293504D02*
D03*
X-639200Y-95100D02*
D03*
X-673600Y-89200D02*
D03*
D571*
X-281496Y19193D02*
D03*
X-279035Y22638D02*
D03*
X-276083Y26083D02*
D03*
X-272638Y29035D02*
D03*
Y37402D02*
D03*
X-280512Y29528D02*
D03*
X-278051Y32480D02*
D03*
X-551829Y16432D02*
D03*
X-554206Y25765D02*
D03*
X-551361Y19988D02*
D03*
X-554049Y13101D02*
D03*
X-563430Y20034D02*
D03*
X-570866Y20177D02*
D03*
X-564961Y29528D02*
D03*
X-570374D02*
D03*
X-586614Y31496D02*
D03*
X-638779Y-9843D02*
D03*
X-659449Y47244D02*
D03*
X-692913D02*
D03*
X-691006Y44179D02*
D03*
X-690945Y40354D02*
D03*
X-121555Y-125098D02*
D03*
X-275098Y34941D02*
D03*
X-189445Y-97475D02*
D03*
X-379100Y115500D02*
D03*
X-149400Y87700D02*
D03*
X-647801Y97488D02*
D03*
X-67800Y188300D02*
D03*
X-58600Y154800D02*
D03*
X-55667Y149800D02*
D03*
X-55200Y153800D02*
D03*
X-675454Y85548D02*
D03*
X-675154Y89348D02*
D03*
X-648901Y90688D02*
D03*
X-640154Y90742D02*
D03*
X-132283Y437008D02*
D03*
X-478900Y286500D02*
D03*
X-479000Y290600D02*
D03*
X-513600Y81100D02*
D03*
X-516300Y82500D02*
D03*
X-101969Y437008D02*
D03*
X-153937D02*
D03*
X-50591Y437008D02*
D03*
X-503400Y367000D02*
D03*
X-499100Y362700D02*
D03*
X-497000Y366700D02*
D03*
X-497900Y351400D02*
D03*
D572*
X-87883Y238900D02*
D03*
X-89971D02*
D03*
X-500243Y9155D02*
D03*
X-502461Y7382D02*
D03*
X-92900Y225100D02*
D03*
X-464000Y161400D02*
D03*
X-545768Y-40846D02*
D03*
X-404035Y44291D02*
D03*
Y51673D02*
D03*
X-416339Y49213D02*
D03*
Y44783D02*
D03*
X-456260Y54610D02*
D03*
X-408465Y51673D02*
D03*
X-285211Y207019D02*
D03*
X-408465Y44291D02*
D03*
X-281274Y207019D02*
D03*
X-456260Y49610D02*
D03*
X-88700Y277100D02*
D03*
X-88700Y274898D02*
D03*
X-411368Y44567D02*
D03*
X-433800Y19600D02*
D03*
X-496900Y1400D02*
D03*
X-495400Y2900D02*
D03*
X-545768Y-43307D02*
D03*
X-293085Y230641D02*
D03*
X-456260Y44675D02*
D03*
X-289148Y230641D02*
D03*
X-451260Y44610D02*
D03*
X-462992Y-56398D02*
D03*
X-463386Y-54212D02*
D03*
X-400618Y79400D02*
D03*
X-402903D02*
D03*
X-380200Y104100D02*
D03*
X-380300Y99800D02*
D03*
X-402400Y-30600D02*
D03*
X-402500Y-35000D02*
D03*
X-89400Y246799D02*
D03*
X-385600Y-14800D02*
D03*
X-99800Y300712D02*
D03*
X-372400Y99400D02*
D03*
X-99800Y302800D02*
D03*
X-373700Y104500D02*
D03*
X-433800Y64500D02*
D03*
X-433900Y59600D02*
D03*
X-433800Y24600D02*
D03*
X-100000Y297199D02*
D03*
X-433564Y84724D02*
D03*
X-100000Y295112D02*
D03*
X-433600Y89700D02*
D03*
X-88100Y285000D02*
D03*
X-451400Y62100D02*
D03*
X-90291Y285000D02*
D03*
X-451400Y57000D02*
D03*
X-389600Y94200D02*
D03*
Y90100D02*
D03*
X-436400Y43361D02*
D03*
Y45449D02*
D03*
X-170801Y286200D02*
D03*
X-461600Y67500D02*
D03*
X-172888Y286200D02*
D03*
X-456400Y62100D02*
D03*
X-471000Y954D02*
D03*
Y3042D02*
D03*
X-461900Y8600D02*
D03*
X-461900Y10700D02*
D03*
X-376000Y204800D02*
D03*
X-378100Y204800D02*
D03*
X-441400Y-46900D02*
D03*
X-97361Y242439D02*
D03*
X-441400Y-44400D02*
D03*
X-123500Y293026D02*
D03*
X-386300Y79800D02*
D03*
X-123500Y290938D02*
D03*
X-386400Y74300D02*
D03*
X-95600Y254112D02*
D03*
X-470406Y-29776D02*
D03*
X-95600Y256199D02*
D03*
X-470406Y-27688D02*
D03*
X-446400Y52100D02*
D03*
X-384700Y-30200D02*
D03*
X-383700Y-35200D02*
D03*
X-468406Y-39499D02*
D03*
X-467000Y-41043D02*
D03*
X-432100Y-40400D02*
D03*
X-428900D02*
D03*
X-463576Y-45524D02*
D03*
X-462100Y-47000D02*
D03*
X-434600Y-55400D02*
D03*
X-442300D02*
D03*
X-98837Y240963D02*
D03*
X-451400Y52100D02*
D03*
X-456400Y-61346D02*
D03*
Y-59258D02*
D03*
X-418800Y119392D02*
D03*
X-114700Y322212D02*
D03*
X-418800Y117305D02*
D03*
X-114700Y324300D02*
D03*
X-535700Y-78800D02*
D03*
X-73200Y130600D02*
D03*
X-535700Y-76700D02*
D03*
X-75300Y130600D02*
D03*
X-539000Y80100D02*
D03*
X-539000Y78009D02*
D03*
X-377600Y99700D02*
D03*
X-377400Y104600D02*
D03*
X-411500Y-29903D02*
D03*
Y-26003D02*
D03*
X-550400Y54500D02*
D03*
X-552600D02*
D03*
X-462500Y159800D02*
D03*
X-475900Y-11800D02*
D03*
Y-14000D02*
D03*
X-461500Y99200D02*
D03*
X-104800Y320399D02*
D03*
X-457100Y99700D02*
D03*
X-104800Y318312D02*
D03*
X-529558Y60300D02*
D03*
X-531843D02*
D03*
X-466400Y-14100D02*
D03*
X-466400Y-11899D02*
D03*
X-535988Y52900D02*
D03*
X-533704D02*
D03*
X-400491Y90344D02*
D03*
X-400500Y94270D02*
D03*
X-394590Y88843D02*
D03*
Y95416D02*
D03*
X-423300Y114800D02*
D03*
Y121800D02*
D03*
X-92900Y223012D02*
D03*
X-445642Y-71219D02*
D03*
X-447037Y-69666D02*
D03*
X-430208Y-75500D02*
D03*
X-432296D02*
D03*
X-390000Y-35700D02*
D03*
X-390100Y-30500D02*
D03*
X-390600Y-25500D02*
D03*
X-391000Y-20400D02*
D03*
X-429100Y117900D02*
D03*
X-391800Y74300D02*
D03*
X-391900Y79700D02*
D03*
X-429100Y120185D02*
D03*
X-382600Y105100D02*
D03*
X-382500Y113300D02*
D03*
X-364000Y121500D02*
D03*
X-363500Y115200D02*
D03*
X-89400Y244712D02*
D03*
X-385300Y-20200D02*
D03*
X-328518Y262137D02*
D03*
X-391142Y191535D02*
D03*
X-332455Y262137D02*
D03*
X-391142Y193701D02*
D03*
X-33858Y82776D02*
D03*
X-226181Y269882D02*
D03*
X-33858Y85138D02*
D03*
X-222219Y270011D02*
D03*
X-26773Y-9646D02*
D03*
X-29026Y-9646D02*
D03*
X-62700Y105000D02*
D03*
X-63600Y103100D02*
D03*
X-353543Y271161D02*
D03*
X-353445Y266634D02*
D03*
X-416260Y285110D02*
D03*
X-421368Y285158D02*
D03*
X-429000Y49600D02*
D03*
X-441353Y51391D02*
D03*
X-214345Y270011D02*
D03*
X-210408Y270011D02*
D03*
X-436260Y-65390D02*
D03*
Y-60390D02*
D03*
X-352756Y277953D02*
D03*
Y273819D02*
D03*
X-386910Y196555D02*
D03*
Y198917D02*
D03*
X-384842Y193504D02*
D03*
X-384827Y191354D02*
D03*
X-351181Y286811D02*
D03*
Y282677D02*
D03*
X-388976Y238583D02*
D03*
Y236122D02*
D03*
X-377100Y213900D02*
D03*
X-377067Y211516D02*
D03*
X-163787Y220385D02*
D03*
X-411325Y39610D02*
D03*
X-166347Y220385D02*
D03*
X-51279Y105807D02*
D03*
X-214345Y258200D02*
D03*
X-51378Y107973D02*
D03*
X-210408Y258200D02*
D03*
X-167922Y224125D02*
D03*
X-411368Y64567D02*
D03*
X-167888Y221769D02*
D03*
X-411368Y59567D02*
D03*
X-340329Y262137D02*
D03*
X-393209Y196555D02*
D03*
X-336392Y262137D02*
D03*
X-393209Y198721D02*
D03*
X-163100Y260800D02*
D03*
Y257000D02*
D03*
X-293085Y203082D02*
D03*
X-441260Y64610D02*
D03*
X-297022Y199145D02*
D03*
X-436260Y64610D02*
D03*
X-23268Y-53051D02*
D03*
X-40256Y82884D02*
D03*
X-21024Y-53051D02*
D03*
X-40256Y85030D02*
D03*
X-214345Y273948D02*
D03*
X-35433Y79921D02*
D03*
X-218307Y273819D02*
D03*
X-35433Y77658D02*
D03*
X-146063Y259941D02*
D03*
X-426260Y-65390D02*
D03*
X-146036Y257696D02*
D03*
X-426260Y-70390D02*
D03*
X-148721Y235827D02*
D03*
X-146555D02*
D03*
X-297022Y203082D02*
D03*
X-436260Y74610D02*
D03*
X-297022Y207019D02*
D03*
X-431260Y74610D02*
D03*
X-293085Y210956D02*
D03*
X-297022D02*
D03*
X-218282Y214893D02*
D03*
X-431368Y-85433D02*
D03*
X-218282Y210956D02*
D03*
X-431368Y-80433D02*
D03*
X-440760Y-25390D02*
D03*
X-436760D02*
D03*
X-169685Y252658D02*
D03*
X-421367Y-60434D02*
D03*
X-169685Y254823D02*
D03*
X-421260Y-65390D02*
D03*
X-332455Y273948D02*
D03*
X-328518D02*
D03*
X-241904Y234578D02*
D03*
X-425760Y-44890D02*
D03*
X-237967Y234578D02*
D03*
X-425760Y-40390D02*
D03*
X-421364Y-85429D02*
D03*
X-421368Y-80433D02*
D03*
X-146063Y269685D02*
D03*
Y267520D02*
D03*
X-173031Y265098D02*
D03*
X-411368Y-80433D02*
D03*
X-173031Y262854D02*
D03*
X-411368Y-75433D02*
D03*
X-146063Y249410D02*
D03*
X-411368Y-60433D02*
D03*
X-146036Y247164D02*
D03*
X-411368Y-55433D02*
D03*
X-166716Y244942D02*
D03*
X-411368Y-40433D02*
D03*
X-166716Y242699D02*
D03*
X-411368Y-35433D02*
D03*
X-144144Y239469D02*
D03*
X-416368Y9567D02*
D03*
X-144144Y237303D02*
D03*
X-416368Y14567D02*
D03*
X-411365Y19571D02*
D03*
X-171100Y234600D02*
D03*
X-411368Y24567D02*
D03*
X-171063Y232579D02*
D03*
X-407600Y270500D02*
D03*
X-409746D02*
D03*
X-336392Y254263D02*
D03*
X-340329D02*
D03*
X-360138Y149213D02*
D03*
X-360121Y146962D02*
D03*
X-340354Y242224D02*
D03*
X-336417D02*
D03*
X-324581Y238515D02*
D03*
X-328543Y238386D02*
D03*
X-359488Y143701D02*
D03*
X-358000Y145400D02*
D03*
X-367405Y134560D02*
D03*
X-365043D02*
D03*
X-364862Y274606D02*
D03*
X-364961Y277067D02*
D03*
X-411368Y315158D02*
D03*
X-411367Y320157D02*
D03*
X-411260Y295110D02*
D03*
X-411368Y300158D02*
D03*
X-365453Y269783D02*
D03*
Y267618D02*
D03*
X-363090Y283661D02*
D03*
Y285827D02*
D03*
X-406535Y205100D02*
D03*
X-408700D02*
D03*
X-436260Y330110D02*
D03*
Y325110D02*
D03*
X-269463Y317255D02*
D03*
X-312770Y199145D02*
D03*
X-461260Y250110D02*
D03*
X-316707Y199145D02*
D03*
X-456260Y250110D02*
D03*
X-22736Y-61910D02*
D03*
X-24323Y-60323D02*
D03*
X-41732Y77716D02*
D03*
Y79862D02*
D03*
X-42224Y63081D02*
D03*
X-42226Y60338D02*
D03*
X-25728Y-88484D02*
D03*
X-23484D02*
D03*
X-22894Y-79527D02*
D03*
X-25138D02*
D03*
X-43014Y69196D02*
D03*
X-43012Y71939D02*
D03*
X-26575Y-36909D02*
D03*
X-26476Y-34646D02*
D03*
X-50790Y2658D02*
D03*
X-48231D02*
D03*
X-54403Y-7185D02*
D03*
X-56647D02*
D03*
X-56496Y95472D02*
D03*
X-54331Y95571D02*
D03*
X-226156Y250326D02*
D03*
X-222219D02*
D03*
X-183366Y262894D02*
D03*
Y265059D02*
D03*
X-180315Y254724D02*
D03*
X-218282Y254263D02*
D03*
X-214345D02*
D03*
X-180315Y252559D02*
D03*
X-155841Y249410D02*
D03*
Y247244D02*
D03*
X-175672Y244903D02*
D03*
Y242738D02*
D03*
X-67913Y109153D02*
D03*
X-65847D02*
D03*
X-37615Y-5832D02*
D03*
X-37615Y-3285D02*
D03*
X-226156Y277885D02*
D03*
X-222219D02*
D03*
X-36417Y69784D02*
D03*
Y72244D02*
D03*
X-35827Y60925D02*
D03*
X-35900Y63100D02*
D03*
X-210408Y277885D02*
D03*
X-206471D02*
D03*
X-218282Y262137D02*
D03*
X-46654Y99803D02*
D03*
X-214345Y262137D02*
D03*
X-46752Y102264D02*
D03*
X-41240Y91437D02*
D03*
Y93898D02*
D03*
X-206471Y266074D02*
D03*
X-210408D02*
D03*
X-55610Y111122D02*
D03*
Y113386D02*
D03*
X-222219Y262137D02*
D03*
X-226156D02*
D03*
X-75400Y122000D02*
D03*
X-73700Y119700D02*
D03*
X-70000Y118500D02*
D03*
X-64300Y117700D02*
D03*
X-48428Y91442D02*
D03*
Y93804D02*
D03*
X-158743Y209842D02*
D03*
X-156499D02*
D03*
X-149518Y205896D02*
D03*
X-151104Y204309D02*
D03*
X-336417Y269882D02*
D03*
X-340354D02*
D03*
X-234030Y254263D02*
D03*
X-230093D02*
D03*
X-167100Y240200D02*
D03*
X-164836Y240471D02*
D03*
X-265526Y214893D02*
D03*
X-451260Y64610D02*
D03*
X-265526Y210956D02*
D03*
X-446260Y64610D02*
D03*
X-450760Y74610D02*
D03*
X-451260Y79610D02*
D03*
X-210408Y250326D02*
D03*
X-206471D02*
D03*
X-159744Y267520D02*
D03*
Y269685D02*
D03*
X-177461Y232185D02*
D03*
Y234350D02*
D03*
X-158563Y227067D02*
D03*
Y229232D02*
D03*
X-177461Y221949D02*
D03*
Y224114D02*
D03*
X-210408Y234578D02*
D03*
X-206471D02*
D03*
X-230093Y246389D02*
D03*
X-234030D02*
D03*
X-332455Y234578D02*
D03*
X-336392D02*
D03*
X-320669Y242323D02*
D03*
X-324581Y242452D02*
D03*
X-362600Y136800D02*
D03*
X-360400D02*
D03*
X-332455Y246389D02*
D03*
X-352421Y141634D02*
D03*
X-328518Y246389D02*
D03*
X-354665Y141634D02*
D03*
X-324581Y250326D02*
D03*
X-320644D02*
D03*
X-354331Y154902D02*
D03*
Y152657D02*
D03*
X-332455Y254263D02*
D03*
X-328518D02*
D03*
X-364351Y168189D02*
D03*
X-362764Y166603D02*
D03*
X-316707Y254263D02*
D03*
X-322835Y177165D02*
D03*
X-312770Y254263D02*
D03*
X-320669Y177165D02*
D03*
X-155800Y260200D02*
D03*
Y257800D02*
D03*
X-206471Y242452D02*
D03*
X-210408D02*
D03*
X-395768Y236516D02*
D03*
Y238681D02*
D03*
X-324581Y277885D02*
D03*
X-320644D02*
D03*
X-383405Y211555D02*
D03*
Y213720D02*
D03*
X-320669Y269882D02*
D03*
X-324606D02*
D03*
X-393209Y216555D02*
D03*
Y218721D02*
D03*
X-320644Y262137D02*
D03*
X-324581D02*
D03*
X-421260Y215110D02*
D03*
X-421368Y220158D02*
D03*
X-411368Y215158D02*
D03*
Y210158D02*
D03*
X-398209Y206555D02*
D03*
Y208720D02*
D03*
X-308833Y266074D02*
D03*
X-312770D02*
D03*
X-426368Y205158D02*
D03*
X-426260Y210110D02*
D03*
X-421368Y199626D02*
D03*
Y195158D02*
D03*
X-411368Y190158D02*
D03*
Y195158D02*
D03*
X-234030Y266074D02*
D03*
X-230093D02*
D03*
X-234030Y273948D02*
D03*
X-230093D02*
D03*
X-325600Y174100D02*
D03*
X-328100Y173900D02*
D03*
X-316707Y246389D02*
D03*
X-312770D02*
D03*
X-320532Y169322D02*
D03*
X-322677D02*
D03*
X-316707Y207019D02*
D03*
Y210956D02*
D03*
X-437000Y264000D02*
D03*
Y266300D02*
D03*
X-218282Y199145D02*
D03*
X-461260Y-39890D02*
D03*
X-214345Y199145D02*
D03*
X-457260Y-39890D02*
D03*
X-253715Y218830D02*
D03*
X-446260Y19610D02*
D03*
X-253715Y222767D02*
D03*
X-451260Y19610D02*
D03*
X-257579Y321161D02*
D03*
X-436260Y374610D02*
D03*
X-257579Y317224D02*
D03*
X-436260Y370110D02*
D03*
X-257652Y313318D02*
D03*
X-456260Y370110D02*
D03*
X-257652Y309381D02*
D03*
X-456321Y365110D02*
D03*
X-253839Y305413D02*
D03*
Y301575D02*
D03*
X-451760Y365110D02*
D03*
Y360110D02*
D03*
Y350110D02*
D03*
X-456260D02*
D03*
X-249778Y293535D02*
D03*
X-249803Y297441D02*
D03*
X-273400Y305444D02*
D03*
Y301507D02*
D03*
X-456260Y340110D02*
D03*
Y345110D02*
D03*
X-277264Y305512D02*
D03*
Y301575D02*
D03*
X-441260Y350110D02*
D03*
Y345110D02*
D03*
X-281274Y293633D02*
D03*
X-446260Y340110D02*
D03*
X-281274Y297570D02*
D03*
X-446260Y345110D02*
D03*
X-289148Y293633D02*
D03*
Y297570D02*
D03*
X-446260Y335050D02*
D03*
X-441260Y335110D02*
D03*
X-431260Y-30390D02*
D03*
X-435760D02*
D03*
X-461260Y34459D02*
D03*
X-461368Y39567D02*
D03*
X-226156Y226704D02*
D03*
X-437260Y-55390D02*
D03*
X-222219Y226704D02*
D03*
X-439760Y-55390D02*
D03*
X-230093Y191271D02*
D03*
X-230095Y195095D02*
D03*
X-430760Y-35390D02*
D03*
X-426760D02*
D03*
X-237967Y210956D02*
D03*
Y207019D02*
D03*
X-431260Y-50390D02*
D03*
X-426260D02*
D03*
X-237967Y214893D02*
D03*
X-442760Y-60390D02*
D03*
X-241904Y214893D02*
D03*
X-445760Y-60390D02*
D03*
X-277337Y210956D02*
D03*
X-281274D02*
D03*
Y218830D02*
D03*
X-285211D02*
D03*
X-451760Y59610D02*
D03*
X-455260D02*
D03*
X-281274Y226704D02*
D03*
X-277337D02*
D03*
X-456260Y64610D02*
D03*
X-461260Y64675D02*
D03*
X-293085Y222767D02*
D03*
X-297022Y218830D02*
D03*
X-269463Y325129D02*
D03*
X-265526D02*
D03*
X-451368Y335158D02*
D03*
Y340158D02*
D03*
X-273400Y317255D02*
D03*
Y325129D02*
D03*
X-431112Y325414D02*
D03*
X-273400Y321192D02*
D03*
X-431760Y319766D02*
D03*
X-265526Y289696D02*
D03*
X-431260Y295110D02*
D03*
X-269463Y289696D02*
D03*
X-431260Y290110D02*
D03*
X-281398Y321260D02*
D03*
X-426260Y315610D02*
D03*
X-281398Y317224D02*
D03*
X-426260Y310610D02*
D03*
X-304896Y317255D02*
D03*
X-446260Y250266D02*
D03*
X-304896Y321192D02*
D03*
X-446416Y255110D02*
D03*
X-289148Y317255D02*
D03*
X-421260Y300110D02*
D03*
X-289148Y313318D02*
D03*
X-421260Y295110D02*
D03*
X-297022Y321192D02*
D03*
X-451260Y265110D02*
D03*
X-300959Y321192D02*
D03*
X-446760Y265110D02*
D03*
X-285211Y321192D02*
D03*
X-421760Y315110D02*
D03*
X-285335Y317224D02*
D03*
X-421260Y310110D02*
D03*
X-293085Y317255D02*
D03*
X-430760Y300110D02*
D03*
X-293085Y321192D02*
D03*
X-426760Y300550D02*
D03*
X-304921Y297539D02*
D03*
X-300984D02*
D03*
X-441260Y260610D02*
D03*
X-446260Y260110D02*
D03*
X-300959Y309381D02*
D03*
X-304921Y309350D02*
D03*
X-426260Y235110D02*
D03*
X-421321D02*
D03*
X-316707Y309381D02*
D03*
X-426416Y225110D02*
D03*
X-316732Y313386D02*
D03*
X-426416Y230110D02*
D03*
X-316732Y301378D02*
D03*
X-446416Y220110D02*
D03*
X-316732Y305610D02*
D03*
X-446260Y225110D02*
D03*
X-304823Y301378D02*
D03*
X-441416Y215110D02*
D03*
X-304921Y305512D02*
D03*
X-446260Y215110D02*
D03*
X-308858Y313484D02*
D03*
X-426416Y255110D02*
D03*
X-308833Y317255D02*
D03*
X-426260Y259610D02*
D03*
X-312770Y321192D02*
D03*
X-421260Y255110D02*
D03*
X-316707Y321192D02*
D03*
X-421416Y260110D02*
D03*
X-320644Y321192D02*
D03*
X-441416Y250110D02*
D03*
X-320644Y317255D02*
D03*
X-441416Y245110D02*
D03*
X-426260Y245266D02*
D03*
X-426416Y240110D02*
D03*
X-312795Y313287D02*
D03*
X-312770Y317255D02*
D03*
X-249705Y301575D02*
D03*
Y305512D02*
D03*
X-436260Y345110D02*
D03*
Y340110D02*
D03*
X-431260Y350110D02*
D03*
Y355110D02*
D03*
X-253839Y309252D02*
D03*
Y313318D02*
D03*
Y321161D02*
D03*
Y325098D02*
D03*
X-436260Y355110D02*
D03*
Y360110D02*
D03*
X-460760Y355610D02*
D03*
X-456760Y355110D02*
D03*
X-249705Y325098D02*
D03*
Y321161D02*
D03*
Y313386D02*
D03*
Y317323D02*
D03*
X-435260Y365110D02*
D03*
X-432260D02*
D03*
X-269438Y313287D02*
D03*
X-460760Y325110D02*
D03*
X-273400Y313318D02*
D03*
X-456260Y325110D02*
D03*
X-265551Y305512D02*
D03*
X-456760Y310110D02*
D03*
X-265501Y309313D02*
D03*
X-460760Y310110D02*
D03*
X-431112Y340414D02*
D03*
X-431034Y335414D02*
D03*
X-265526Y321192D02*
D03*
Y317255D02*
D03*
X-297022Y289696D02*
D03*
Y285759D02*
D03*
X-445760Y325110D02*
D03*
X-448414Y325021D02*
D03*
X-441260Y319610D02*
D03*
X-445760D02*
D03*
X-293085Y297570D02*
D03*
X-293209Y301476D02*
D03*
X-297022Y301507D02*
D03*
Y305444D02*
D03*
X-446260Y310110D02*
D03*
X-451260D02*
D03*
X-293085Y309381D02*
D03*
X-441260Y310110D02*
D03*
X-297022Y309381D02*
D03*
X-441260Y305110D02*
D03*
X-304896Y234578D02*
D03*
X-308833D02*
D03*
X-460260Y295110D02*
D03*
X-457760Y295215D02*
D03*
X-455760Y290610D02*
D03*
X-451760D02*
D03*
X-312770Y230641D02*
D03*
X-308833D02*
D03*
X-316707D02*
D03*
Y226704D02*
D03*
X-460260Y280110D02*
D03*
X-457260D02*
D03*
X-312770Y222767D02*
D03*
X-316707D02*
D03*
X-441260Y280110D02*
D03*
X-436260Y280610D02*
D03*
X-312770Y218830D02*
D03*
X-316707D02*
D03*
X-456260Y275110D02*
D03*
X-451260D02*
D03*
X-304896Y222767D02*
D03*
X-308833D02*
D03*
X-431700Y275200D02*
D03*
X-435600Y274700D02*
D03*
X-312770Y214893D02*
D03*
X-308833D02*
D03*
X-456260Y265110D02*
D03*
Y270110D02*
D03*
X-316707Y203082D02*
D03*
X-312770D02*
D03*
X-431260Y260110D02*
D03*
X-435760D02*
D03*
X-316707Y191271D02*
D03*
X-312770Y195208D02*
D03*
X-436260Y250110D02*
D03*
Y245110D02*
D03*
X-312770Y210956D02*
D03*
X-308833D02*
D03*
X-436321Y205110D02*
D03*
X-436260Y200110D02*
D03*
X-308833Y207019D02*
D03*
X-304896D02*
D03*
X-451260Y215110D02*
D03*
X-456260D02*
D03*
X-304896Y214893D02*
D03*
X-300959D02*
D03*
X-431260Y195110D02*
D03*
Y190110D02*
D03*
X-257776Y289665D02*
D03*
Y293602D02*
D03*
X-451260Y320110D02*
D03*
Y315110D02*
D03*
X-261713Y301476D02*
D03*
X-436260Y315110D02*
D03*
X-261589Y297669D02*
D03*
X-436260Y310110D02*
D03*
X-261589Y289696D02*
D03*
X-430760Y305110D02*
D03*
X-261761Y293701D02*
D03*
X-430760Y310110D02*
D03*
X-269463Y293633D02*
D03*
Y297570D02*
D03*
X-451260Y305110D02*
D03*
Y300110D02*
D03*
X-441260Y295110D02*
D03*
Y300110D02*
D03*
X-273400Y297570D02*
D03*
Y293633D02*
D03*
X-277264Y309372D02*
D03*
X-277337Y313318D02*
D03*
X-446760Y295110D02*
D03*
X-451000Y295000D02*
D03*
X-426260Y285110D02*
D03*
Y290110D02*
D03*
X-281398Y313287D02*
D03*
X-281279Y309274D02*
D03*
X-285236Y289665D02*
D03*
X-289173D02*
D03*
X-441260Y290110D02*
D03*
X-446260D02*
D03*
X-312770Y297570D02*
D03*
X-421260Y280110D02*
D03*
X-312770Y293633D02*
D03*
X-421260Y275110D02*
D03*
X-426260D02*
D03*
Y270110D02*
D03*
X-316732Y289567D02*
D03*
X-316812Y293623D02*
D03*
X-300787Y293406D02*
D03*
X-445760Y274610D02*
D03*
X-300984Y289469D02*
D03*
X-446260Y270610D02*
D03*
X-308833Y285759D02*
D03*
X-304896D02*
D03*
X-451760Y280110D02*
D03*
X-446260D02*
D03*
X-300959Y230641D02*
D03*
X-297022D02*
D03*
X-451760Y259610D02*
D03*
X-456260D02*
D03*
X-297022Y226704D02*
D03*
X-300959D02*
D03*
X-455760Y245110D02*
D03*
X-451760D02*
D03*
X-304896Y226704D02*
D03*
X-308833D02*
D03*
X-431260Y245110D02*
D03*
Y240110D02*
D03*
X-304896Y218830D02*
D03*
X-300959D02*
D03*
X-460760Y235110D02*
D03*
X-457760D02*
D03*
X-436760D02*
D03*
X-440976Y235205D02*
D03*
X-300959Y207019D02*
D03*
X-301083Y211122D02*
D03*
X-308833Y203082D02*
D03*
X-304896D02*
D03*
X-435760Y230110D02*
D03*
X-432260D02*
D03*
X-304896Y199145D02*
D03*
X-300959D02*
D03*
X-455760Y230110D02*
D03*
X-451760D02*
D03*
X-440760Y220110D02*
D03*
X-437260D02*
D03*
X-300959Y191271D02*
D03*
Y195208D02*
D03*
X-308833D02*
D03*
X-312770Y191271D02*
D03*
X-431760Y215110D02*
D03*
X-435260D02*
D03*
X-308833Y191271D02*
D03*
X-304896Y195208D02*
D03*
X-456760Y221610D02*
D03*
Y219110D02*
D03*
X-277337Y321192D02*
D03*
Y325129D02*
D03*
X-446146Y365132D02*
D03*
X-441368Y365158D02*
D03*
X-285211Y325129D02*
D03*
X-289148D02*
D03*
X-451368Y370158D02*
D03*
X-446368D02*
D03*
X-297022Y325129D02*
D03*
X-293110Y325197D02*
D03*
X-451368Y355158D02*
D03*
X-446260Y355110D02*
D03*
X-304896Y325129D02*
D03*
X-308833D02*
D03*
X-446760Y235110D02*
D03*
X-451260D02*
D03*
X-445760Y230110D02*
D03*
X-442260D02*
D03*
X-440760Y-70390D02*
D03*
X-437260Y-70890D02*
D03*
X-210408Y203082D02*
D03*
X-460366Y-55390D02*
D03*
X-206471Y203082D02*
D03*
X-456760Y-55390D02*
D03*
X-214345Y203082D02*
D03*
X-210408Y199145D02*
D03*
X-455760Y-45390D02*
D03*
X-451760D02*
D03*
X-218282Y195208D02*
D03*
X-455760Y-30390D02*
D03*
X-222219Y195208D02*
D03*
X-451260Y-30390D02*
D03*
X-461260Y-10390D02*
D03*
X-456760D02*
D03*
X-234030Y218830D02*
D03*
X-230095Y218718D02*
D03*
X-446368Y-25433D02*
D03*
Y-20433D02*
D03*
X-424260Y-20390D02*
D03*
X-421586Y-20215D02*
D03*
X-234030Y199145D02*
D03*
X-230093D02*
D03*
X-431260Y-20390D02*
D03*
X-426760Y-19890D02*
D03*
X-445760Y-15390D02*
D03*
X-441760D02*
D03*
X-451260Y-10390D02*
D03*
X-446760D02*
D03*
X-245841Y214893D02*
D03*
X-446760Y4610D02*
D03*
X-245841Y210956D02*
D03*
X-451260Y4610D02*
D03*
X-253715Y226704D02*
D03*
Y230641D02*
D03*
X-441260Y14610D02*
D03*
Y9610D02*
D03*
X-253715Y199145D02*
D03*
Y203082D02*
D03*
X-431260Y9610D02*
D03*
X-426260D02*
D03*
X-265526Y207019D02*
D03*
Y203082D02*
D03*
X-421760Y24110D02*
D03*
X-421368Y19567D02*
D03*
X-265526Y226704D02*
D03*
X-261589D02*
D03*
X-431260Y24610D02*
D03*
X-426760Y25110D02*
D03*
X-445760Y29110D02*
D03*
X-441760D02*
D03*
X-257652Y226704D02*
D03*
Y230641D02*
D03*
X-277337Y218830D02*
D03*
X-441260Y39459D02*
D03*
X-277337Y222767D02*
D03*
X-440760Y34610D02*
D03*
X-277337Y214893D02*
D03*
X-281274D02*
D03*
X-431260Y44610D02*
D03*
Y40110D02*
D03*
X-285211Y222767D02*
D03*
X-289148D02*
D03*
X-436260Y49610D02*
D03*
Y54110D02*
D03*
X-293085Y214893D02*
D03*
X-431260Y59610D02*
D03*
X-293085Y218830D02*
D03*
X-436260Y59610D02*
D03*
X-218282Y226704D02*
D03*
X-214345D02*
D03*
X-431260Y-65390D02*
D03*
Y-60390D02*
D03*
X-452260Y-59541D02*
D03*
X-451000Y-61600D02*
D03*
X-214345Y222767D02*
D03*
X-210408D02*
D03*
X-226156D02*
D03*
X-222219D02*
D03*
X-435260Y-45390D02*
D03*
X-432760D02*
D03*
X-210408Y218830D02*
D03*
X-214345D02*
D03*
X-440760Y-40390D02*
D03*
X-436760D02*
D03*
X-206471Y214893D02*
D03*
X-210408D02*
D03*
X-214345Y210956D02*
D03*
X-210408D02*
D03*
X-218282Y218830D02*
D03*
X-222219D02*
D03*
X-431760Y-14890D02*
D03*
Y-10890D02*
D03*
X-226156Y210956D02*
D03*
X-222219Y207019D02*
D03*
X-436260Y-10890D02*
D03*
Y-5390D02*
D03*
X-226156Y203082D02*
D03*
X-222219Y199145D02*
D03*
X-431260Y4110D02*
D03*
Y-390D02*
D03*
X-222219Y203082D02*
D03*
X-226156Y207019D02*
D03*
X-436260Y-390D02*
D03*
Y4110D02*
D03*
X-233957Y203248D02*
D03*
X-230020D02*
D03*
X-447260Y-55390D02*
D03*
X-449760D02*
D03*
X-446760Y-44890D02*
D03*
X-446260Y-40390D02*
D03*
X-234030Y230641D02*
D03*
X-230093D02*
D03*
X-245841Y226704D02*
D03*
X-241904D02*
D03*
X-446260Y-35390D02*
D03*
Y-30390D02*
D03*
X-249778Y222767D02*
D03*
Y218830D02*
D03*
X-451260Y-40390D02*
D03*
Y-35390D02*
D03*
X-257652Y218830D02*
D03*
Y214893D02*
D03*
X-421260Y39610D02*
D03*
Y44610D02*
D03*
X-249778Y203082D02*
D03*
Y199145D02*
D03*
X-426260Y34610D02*
D03*
Y39610D02*
D03*
X-253715Y210956D02*
D03*
X-441500Y44600D02*
D03*
X-257652Y210956D02*
D03*
X-445800Y44400D02*
D03*
X-257652Y199145D02*
D03*
Y195208D02*
D03*
X-446260Y34610D02*
D03*
X-451260D02*
D03*
X-261589Y199145D02*
D03*
Y195208D02*
D03*
X-446760Y49610D02*
D03*
X-450760D02*
D03*
X-445760Y74610D02*
D03*
X-441260D02*
D03*
X-273400Y207019D02*
D03*
X-277337D02*
D03*
X-441275Y79625D02*
D03*
X-436260Y79610D02*
D03*
X-430760Y85110D02*
D03*
X-281274Y195208D02*
D03*
X-430760Y89610D02*
D03*
X-285211Y195208D02*
D03*
X-456260Y79610D02*
D03*
X-456292Y84610D02*
D03*
X-289148Y203082D02*
D03*
X-285211D02*
D03*
X-293085Y199114D02*
D03*
X-435760Y94610D02*
D03*
X-293085Y195177D02*
D03*
X-436260Y99610D02*
D03*
X-289148Y214893D02*
D03*
Y210956D02*
D03*
X-461260Y94110D02*
D03*
X-456760D02*
D03*
X-451760Y29610D02*
D03*
X-456325D02*
D03*
X-431368Y14567D02*
D03*
Y19567D02*
D03*
X-431260Y29610D02*
D03*
X-431368Y34567D02*
D03*
X-461368Y-25433D02*
D03*
X-461260Y-30390D02*
D03*
X-461197Y4396D02*
D03*
X-461368Y-433D02*
D03*
X-206471Y195208D02*
D03*
X-451760Y-390D02*
D03*
X-210409Y195095D02*
D03*
X-455760Y-390D02*
D03*
X-451760Y-14890D02*
D03*
X-455760D02*
D03*
X-210408Y191271D02*
D03*
X-206471D02*
D03*
X-456260Y14610D02*
D03*
X-451260D02*
D03*
X-226156Y191271D02*
D03*
Y195208D02*
D03*
X-455760Y19610D02*
D03*
X-461260D02*
D03*
X-237967Y191240D02*
D03*
X-234055D02*
D03*
X-430760Y-5390D02*
D03*
X-426260D02*
D03*
Y-390D02*
D03*
X-421760D02*
D03*
X-245841Y195208D02*
D03*
X-441368Y-433D02*
D03*
X-245841Y191271D02*
D03*
X-441760Y4610D02*
D03*
X-446760Y58610D02*
D03*
X-441260Y59610D02*
D03*
X-253715Y191271D02*
D03*
X-257652D02*
D03*
X-446368Y94567D02*
D03*
X-446411Y89610D02*
D03*
X-446427Y84676D02*
D03*
X-446260Y79528D02*
D03*
X-441362Y89740D02*
D03*
X-441370Y84319D02*
D03*
X-269463Y191271D02*
D03*
Y195208D02*
D03*
X-289148Y191271D02*
D03*
Y195208D02*
D03*
X-293085Y191271D02*
D03*
X-297022D02*
D03*
X-436260Y19610D02*
D03*
X-441260Y19110D02*
D03*
X-237967Y226704D02*
D03*
X-234030D02*
D03*
X-269463Y199145D02*
D03*
Y203082D02*
D03*
X-277337Y199145D02*
D03*
Y203082D02*
D03*
X-456260Y89610D02*
D03*
X-451760D02*
D03*
X-226125Y242421D02*
D03*
X-222342Y242520D02*
D03*
X-401575Y284842D02*
D03*
X-401600Y282500D02*
D03*
X-265526Y195208D02*
D03*
Y191271D02*
D03*
X-249778Y195208D02*
D03*
Y191271D02*
D03*
X-206471Y207019D02*
D03*
Y210956D02*
D03*
X-241904Y195208D02*
D03*
X-237967D02*
D03*
X-277337Y191271D02*
D03*
X-281274D02*
D03*
X-214345Y191271D02*
D03*
X-218282D02*
D03*
X-312770Y325129D02*
D03*
X-316707D02*
D03*
X-214345Y238515D02*
D03*
X-218282D02*
D03*
X-214345Y246389D02*
D03*
X-218282D02*
D03*
X-370059Y158937D02*
D03*
X-368473Y157351D02*
D03*
X-218282Y207019D02*
D03*
X-214345D02*
D03*
X-206471Y222767D02*
D03*
Y226704D02*
D03*
X-312770Y273948D02*
D03*
X-316732Y273819D02*
D03*
X-411367Y335157D02*
D03*
Y330159D02*
D03*
X-245841Y207019D02*
D03*
X-241904D02*
D03*
Y218830D02*
D03*
X-237967D02*
D03*
X-340329Y277885D02*
D03*
X-336392D02*
D03*
X-222219Y214893D02*
D03*
X-226156D02*
D03*
D573*
X-406496Y170276D02*
D03*
X-396654D02*
D03*
X-408465Y162894D02*
D03*
X-405020D02*
D03*
X-407480Y159941D02*
D03*
X-411909Y162894D02*
D03*
X-401575D02*
D03*
X-190400Y100D02*
D03*
X-127800Y-8300D02*
D03*
X-290800Y-38800D02*
D03*
X-689370Y-28887D02*
D03*
X-227500Y-38764D02*
D03*
X-268500Y-38900D02*
D03*
X-182600Y-9100D02*
D03*
X-141400Y-8900D02*
D03*
X-673100Y-19300D02*
D03*
X-187200Y-46900D02*
D03*
X-356800Y-81300D02*
D03*
X-273000Y-76600D02*
D03*
X-260401Y-77185D02*
D03*
X-688500Y-38000D02*
D03*
X-681600D02*
D03*
X-674800Y-38100D02*
D03*
X-673300Y-28800D02*
D03*
X-199600Y-17500D02*
D03*
X-511500Y36900D02*
D03*
X-501400Y37200D02*
D03*
X-479400Y322000D02*
D03*
X-184449Y75000D02*
D03*
X-477200Y-72000D02*
D03*
X-387795Y375984D02*
D03*
X-380506Y419606D02*
D03*
X-507606Y42347D02*
D03*
X-264469Y-28642D02*
D03*
X-273111Y-38598D02*
D03*
X-475100Y37500D02*
D03*
X-518218Y-120076D02*
D03*
X-356594Y-74311D02*
D03*
X-317618Y-61122D02*
D03*
X-347435Y-66744D02*
D03*
X-345591Y-75098D02*
D03*
X-342022Y-61035D02*
D03*
X-333163D02*
D03*
X-325689Y-61024D02*
D03*
X-344091Y-84755D02*
D03*
X-584050Y-81691D02*
D03*
X-229134Y-28346D02*
D03*
X-689173Y-19384D02*
D03*
X-189300Y-26300D02*
D03*
X-21424Y6D02*
D03*
X-348819Y-102362D02*
D03*
X-370456Y-119684D02*
D03*
X-496447Y403471D02*
D03*
X-271358Y-28642D02*
D03*
X-257579D02*
D03*
X-250689D02*
D03*
X-251969Y-38189D02*
D03*
X-161811Y-71653D02*
D03*
X-182067Y-76181D02*
D03*
X-267894Y-105905D02*
D03*
X-247835Y-100886D02*
D03*
X-331319Y-105315D02*
D03*
X-351575Y-109843D02*
D03*
X-43078Y-121259D02*
D03*
X-20768Y-112303D02*
D03*
Y-97441D02*
D03*
Y-70866D02*
D03*
Y-44291D02*
D03*
Y44291D02*
D03*
Y88583D02*
D03*
X-352805Y314518D02*
D03*
X-353839Y322244D02*
D03*
X-169390Y428150D02*
D03*
X-185925D02*
D03*
X-143209D02*
D03*
X-212106D02*
D03*
X-228508Y428102D02*
D03*
X-254689D02*
D03*
X-271457Y428098D02*
D03*
X-297638D02*
D03*
X-381279Y386417D02*
D03*
X-377426Y381226D02*
D03*
X-373488Y386344D02*
D03*
X-182055Y-65080D02*
D03*
X-177133D02*
D03*
X-128902Y-62915D02*
D03*
X-123784D02*
D03*
X-127657Y-68799D02*
D03*
X-182677Y-71358D02*
D03*
X-164300Y-19500D02*
D03*
X-155400Y-19300D02*
D03*
X-161614Y-27461D02*
D03*
X-152362D02*
D03*
X-150262Y-23739D02*
D03*
X-169456D02*
D03*
X-174574Y-47461D02*
D03*
X-131757Y-46378D02*
D03*
X-142618Y-42126D02*
D03*
X-134808Y-32795D02*
D03*
X-140123D02*
D03*
X-131757Y-38504D02*
D03*
X-176543Y-39094D02*
D03*
X-186976Y-38307D02*
D03*
X-181366Y-33779D02*
D03*
X-181102Y-27264D02*
D03*
X-174311Y-21752D02*
D03*
X-134941Y-25787D02*
D03*
X-128904Y-23935D02*
D03*
X-109711D02*
D03*
X-111811Y-27656D02*
D03*
X-121063D02*
D03*
X-114900Y-19500D02*
D03*
X-123900D02*
D03*
X-145746Y-8677D02*
D03*
X-187284Y-8874D02*
D03*
X-144291Y394D02*
D03*
X-137402D02*
D03*
X-130512D02*
D03*
X-123622D02*
D03*
X-123622Y-5512D02*
D03*
X-163484Y-6693D02*
D03*
X-164862Y98D02*
D03*
X-171752D02*
D03*
X-178642D02*
D03*
X-185531Y100D02*
D03*
X-208465Y-28346D02*
D03*
X-215354D02*
D03*
X-222244D02*
D03*
X-231573Y-38401D02*
D03*
X-209600Y-49300D02*
D03*
X-200700Y-49100D02*
D03*
X-206890Y-57380D02*
D03*
X-197638D02*
D03*
X-195537Y-53659D02*
D03*
X-214731D02*
D03*
X-220768Y-55512D02*
D03*
X-260138Y-51476D02*
D03*
X-266929Y-56988D02*
D03*
X-267192Y-63504D02*
D03*
X-272803Y-68032D02*
D03*
X-262369Y-68819D02*
D03*
X-217584Y-68228D02*
D03*
X-225950Y-62519D02*
D03*
X-220635D02*
D03*
X-228445Y-71850D02*
D03*
X-255282Y-53464D02*
D03*
X-236088D02*
D03*
X-238189Y-57185D02*
D03*
X-247441D02*
D03*
X-241100Y-49100D02*
D03*
X-250200Y-49200D02*
D03*
X-268504Y-101083D02*
D03*
X-213484Y-98524D02*
D03*
X-209611Y-92639D02*
D03*
X-214729D02*
D03*
X-262960Y-94804D02*
D03*
X-267881D02*
D03*
X-156004Y-90354D02*
D03*
X-146720Y-96076D02*
D03*
X-233228Y-125801D02*
D03*
X-241732Y-119980D02*
D03*
X-324980Y-123930D02*
D03*
X-351562Y-98741D02*
D03*
X-346641D02*
D03*
X-298410Y-96576D02*
D03*
X-293292D02*
D03*
X-297165Y-102461D02*
D03*
X-352185Y-105020D02*
D03*
X-282277Y-60738D02*
D03*
X-292513D02*
D03*
X-301372D02*
D03*
X-312298Y-75897D02*
D03*
X-306786Y-66447D02*
D03*
X-306496Y-59744D02*
D03*
X-312303Y-65059D02*
D03*
X-303439Y-83082D02*
D03*
X-223100Y45200D02*
D03*
X-223300Y33400D02*
D03*
X-233366Y20374D02*
D03*
X-229398Y8580D02*
D03*
X-222600Y15100D02*
D03*
X-200300Y45400D02*
D03*
X-200400Y36400D02*
D03*
X-200200Y27600D02*
D03*
X-191400Y32900D02*
D03*
X-179000Y33200D02*
D03*
X-182776Y38583D02*
D03*
X-170100Y33200D02*
D03*
X-173917Y38583D02*
D03*
X-161000Y33500D02*
D03*
X-165059Y38583D02*
D03*
X-152300Y33600D02*
D03*
X-156201Y37598D02*
D03*
X-143300Y33300D02*
D03*
X-147343Y37598D02*
D03*
X-138484D02*
D03*
X-191800Y39200D02*
D03*
X-229429Y24311D02*
D03*
X-228800Y35700D02*
D03*
X-222800Y24100D02*
D03*
X-185531Y32874D02*
D03*
X-157153Y46476D02*
D03*
Y55334D02*
D03*
X-152264Y51378D02*
D03*
X-157153Y64193D02*
D03*
X-152264Y60236D02*
D03*
Y69095D02*
D03*
X-163091Y51378D02*
D03*
X-163091Y60236D02*
D03*
X-163091Y69095D02*
D03*
Y77953D02*
D03*
X-152264Y77953D02*
D03*
X-157153Y73051D02*
D03*
Y81909D02*
D03*
X-146326Y81909D02*
D03*
X-141437Y77953D02*
D03*
X-135500Y81909D02*
D03*
X-313662Y-129823D02*
D03*
X-347602Y411739D02*
D03*
X-542709Y403569D02*
D03*
X-480610Y61614D02*
D03*
X-490147Y57982D02*
D03*
X-495295Y65602D02*
D03*
X-353425Y409547D02*
D03*
X-217584Y-76103D02*
D03*
X-233366Y12500D02*
D03*
D574*
X-556102Y162894D02*
D03*
X-465700Y324900D02*
D03*
X-594200Y235300D02*
D03*
X-596200Y332500D02*
D03*
X-625200Y241200D02*
D03*
X-613100Y237000D02*
D03*
X-517800Y243600D02*
D03*
X-506200Y246000D02*
D03*
X-549050Y248550D02*
D03*
X-549100Y244900D02*
D03*
X-595000Y139600D02*
D03*
D575*
X-501968Y310039D02*
D03*
X-242126Y309449D02*
D03*
X-398130Y360433D02*
D03*
X-566929Y257382D02*
D03*
X-230315Y321260D02*
D03*
X-225984Y325197D02*
D03*
X-160335Y388336D02*
D03*
X-478275Y237415D02*
D03*
X-481746Y234487D02*
D03*
X-482031Y217131D02*
D03*
X-478559Y220059D02*
D03*
X-218282Y309381D02*
D03*
X-152362Y395620D02*
D03*
X-195078Y395622D02*
D03*
X-237661Y395573D02*
D03*
X-280610Y395569D02*
D03*
X-325492Y372586D02*
D03*
X-214345Y309381D02*
D03*
X-152362Y397786D02*
D03*
X-195078Y397787D02*
D03*
X-237661Y397738D02*
D03*
X-280610Y397735D02*
D03*
X-325492Y374752D02*
D03*
X-160335Y386170D02*
D03*
X-288583Y388285D02*
D03*
X-234030Y293633D02*
D03*
X-288583Y386119D02*
D03*
X-233957Y289665D02*
D03*
X-245634Y386123D02*
D03*
X-245841Y293731D02*
D03*
X-245634Y388288D02*
D03*
X-245841Y297570D02*
D03*
X-203050Y388337D02*
D03*
Y386172D02*
D03*
X-226156Y313318D02*
D03*
X-230093D02*
D03*
X-317500Y330000D02*
D03*
X-189100Y200600D02*
D03*
X-510800Y111300D02*
D03*
X-575800Y228200D02*
D03*
X-68700Y-8600D02*
D03*
X-49731Y-24987D02*
D03*
X-55637Y-21444D02*
D03*
X-43100Y-23000D02*
D03*
X-61542Y-24987D02*
D03*
X-57605Y-24987D02*
D03*
X-59574Y-21473D02*
D03*
X-53668Y-24987D02*
D03*
X-51700Y-21444D02*
D03*
X-488300Y376200D02*
D03*
X-484700Y371800D02*
D03*
X-479100Y370100D02*
D03*
X-616233Y368825D02*
D03*
X-624397Y370744D02*
D03*
Y376649D02*
D03*
X-616233Y374730D02*
D03*
X-481773Y372973D02*
D03*
X-518022Y78140D02*
D03*
X-606600Y229700D02*
D03*
X-561900Y221900D02*
D03*
X-545501Y106240D02*
D03*
X-545500Y111400D02*
D03*
X-578100Y122200D02*
D03*
X-545520Y108780D02*
D03*
X-552800Y83600D02*
D03*
X-592700Y74000D02*
D03*
X-563700Y127200D02*
D03*
X-513300Y108818D02*
D03*
Y103700D02*
D03*
X-510700Y106200D02*
D03*
X-99800Y11300D02*
D03*
X-103800Y16826D02*
D03*
X-59400Y-90328D02*
D03*
Y-84428D02*
D03*
Y-78528D02*
D03*
Y-72628D02*
D03*
Y-66628D02*
D03*
Y-60728D02*
D03*
Y-48928D02*
D03*
Y-54828D02*
D03*
X-78426Y-23444D02*
D03*
X-82363Y-23444D02*
D03*
X-86300D02*
D03*
X-90237Y-23473D02*
D03*
X-80395Y-26987D02*
D03*
X-84332D02*
D03*
X-92206D02*
D03*
X-88269Y-26987D02*
D03*
X-193000Y203900D02*
D03*
X-301083Y281791D02*
D03*
X-304921Y281918D02*
D03*
X-167361Y387253D02*
D03*
X-151611Y380953D02*
D03*
X-142162Y399853D02*
D03*
X-161062Y418753D02*
D03*
X-151611Y415603D02*
D03*
X-148461Y412453D02*
D03*
X-161062Y415603D02*
D03*
X-151611Y418753D02*
D03*
Y406153D02*
D03*
X-164211D02*
D03*
X-164211Y393553D02*
D03*
X-145311Y390403D02*
D03*
Y384103D02*
D03*
X-164211Y412453D02*
D03*
X-161062Y409303D02*
D03*
X-151611D02*
D03*
X-161062Y393553D02*
D03*
Y403003D02*
D03*
X-151611Y390403D02*
D03*
X-167361Y384103D02*
D03*
X-161062Y380953D02*
D03*
X-170511Y399853D02*
D03*
X-161062Y412453D02*
D03*
X-148461Y409303D02*
D03*
X-161062Y406153D02*
D03*
X-151611Y412453D02*
D03*
X-161062Y399853D02*
D03*
X-151611Y384103D02*
D03*
X-164211Y409303D02*
D03*
X-151611Y403003D02*
D03*
X-148461Y418753D02*
D03*
X-164211D02*
D03*
Y403003D02*
D03*
X-148461Y415603D02*
D03*
X-164211D02*
D03*
X-203777Y403004D02*
D03*
X-184877Y399854D02*
D03*
X-213227D02*
D03*
X-188027Y384105D02*
D03*
X-194327Y418754D02*
D03*
X-203777D02*
D03*
X-194327Y384105D02*
D03*
Y415604D02*
D03*
X-203777D02*
D03*
X-191177Y412454D02*
D03*
X-203777Y409304D02*
D03*
X-194327D02*
D03*
X-206927Y406154D02*
D03*
X-203777Y380955D02*
D03*
X-210077Y384105D02*
D03*
X-194327Y406154D02*
D03*
X-206927Y412454D02*
D03*
X-203777Y399854D02*
D03*
X-188027Y390405D02*
D03*
X-206927Y418754D02*
D03*
X-210077Y387255D02*
D03*
X-194327Y380955D02*
D03*
X-203777Y412454D02*
D03*
X-206928Y390404D02*
D03*
X-191177Y415604D02*
D03*
Y409304D02*
D03*
X-203777Y406154D02*
D03*
X-206927Y403004D02*
D03*
X-194327D02*
D03*
X-206927Y393555D02*
D03*
X-206927Y409304D02*
D03*
X-194327Y412454D02*
D03*
Y390405D02*
D03*
X-206927Y415604D02*
D03*
X-191177Y418754D02*
D03*
X-249511Y402955D02*
D03*
X-227461Y399805D02*
D03*
X-246361Y393506D02*
D03*
X-252660Y387206D02*
D03*
X-233761Y380906D02*
D03*
X-236910Y418706D02*
D03*
Y384056D02*
D03*
X-233760Y412405D02*
D03*
X-246361D02*
D03*
X-236910Y409256D02*
D03*
X-246361Y406106D02*
D03*
X-236910Y415555D02*
D03*
X-249511D02*
D03*
Y409256D02*
D03*
X-236910Y406106D02*
D03*
X-246361Y399805D02*
D03*
X-230611Y384056D02*
D03*
X-246361Y402955D02*
D03*
X-230611Y390356D02*
D03*
X-255810Y399805D02*
D03*
X-249511Y418706D02*
D03*
X-246361Y380906D02*
D03*
X-252660Y384056D02*
D03*
X-246361Y415555D02*
D03*
X-233760D02*
D03*
Y409256D02*
D03*
X-246361D02*
D03*
Y418706D02*
D03*
X-236910Y390356D02*
D03*
X-233760Y418706D02*
D03*
X-236910Y402955D02*
D03*
X-249510Y393506D02*
D03*
X-249511Y412405D02*
D03*
X-236910D02*
D03*
X-249511Y406106D02*
D03*
X-276709Y384052D02*
D03*
X-292460Y409252D02*
D03*
X-279859Y402952D02*
D03*
X-289310Y406102D02*
D03*
X-279859Y412402D02*
D03*
X-273560Y390352D02*
D03*
X-279859D02*
D03*
X-292459Y393502D02*
D03*
X-292460Y402952D02*
D03*
X-289310Y412402D02*
D03*
X-276709Y409252D02*
D03*
X-279859Y418702D02*
D03*
X-279823Y415598D02*
D03*
X-279859Y380902D02*
D03*
X-289310Y399802D02*
D03*
X-295609Y384052D02*
D03*
X-276709Y415552D02*
D03*
X-292460D02*
D03*
X-295609Y387202D02*
D03*
X-292460Y418702D02*
D03*
X-289310Y402952D02*
D03*
Y418702D02*
D03*
X-279859Y406102D02*
D03*
X-292460D02*
D03*
X-292459Y380902D02*
D03*
X-276709Y412402D02*
D03*
X-289310Y415552D02*
D03*
Y393502D02*
D03*
X-292460Y412402D02*
D03*
X-270410Y399802D02*
D03*
X-276709Y418702D02*
D03*
X-279859Y384052D02*
D03*
X-298759Y399802D02*
D03*
X-289310Y409252D02*
D03*
X-279859D02*
D03*
X-600200Y321900D02*
D03*
X-206300Y297500D02*
D03*
X-202800Y297600D02*
D03*
X-234030Y281822D02*
D03*
X-237967D02*
D03*
X-269463Y214893D02*
D03*
X-312795Y301378D02*
D03*
X-324606Y266043D02*
D03*
X-356890Y373721D02*
D03*
X-265526Y218830D02*
D03*
X-206496Y309252D02*
D03*
X-222219Y325129D02*
D03*
Y321192D02*
D03*
X-218282D02*
D03*
X-222219Y317255D02*
D03*
Y309381D02*
D03*
X-214345Y321192D02*
D03*
X-269463Y210956D02*
D03*
X-269463Y222767D02*
D03*
X-306594Y384791D02*
D03*
X-309842Y387941D02*
D03*
X-305512Y412350D02*
D03*
X-303543Y409201D02*
D03*
X-305512Y415697D02*
D03*
X-307480Y418748D02*
D03*
X-210408Y293633D02*
D03*
X-206471D02*
D03*
Y289696D02*
D03*
Y285759D02*
D03*
X-210408D02*
D03*
X-226156D02*
D03*
X-222219D02*
D03*
X-226156Y289696D02*
D03*
X-218282D02*
D03*
X-214345D02*
D03*
Y285759D02*
D03*
Y293633D02*
D03*
X-218282D02*
D03*
X-218307Y297638D02*
D03*
X-265551Y285531D02*
D03*
X-289148Y285759D02*
D03*
X-293085D02*
D03*
X-222244Y297638D02*
D03*
X-269488Y285531D02*
D03*
X-329429Y420224D02*
D03*
X-321555Y417862D02*
D03*
X-325492Y415500D02*
D03*
X-325394Y408413D02*
D03*
X-321457Y410776D02*
D03*
X-329331Y413138D02*
D03*
X-325394Y401327D02*
D03*
X-321457Y403689D02*
D03*
X-329331Y406051D02*
D03*
X-325394Y394240D02*
D03*
X-321457Y396602D02*
D03*
X-329331Y398964D02*
D03*
X-325492Y387153D02*
D03*
X-321555Y389516D02*
D03*
X-329429Y391878D02*
D03*
X-325492Y380067D02*
D03*
X-321555Y382429D02*
D03*
X-329429Y384791D02*
D03*
X-329429Y377705D02*
D03*
X-305118Y289665D02*
D03*
X-230315Y325394D02*
D03*
X-233931Y325129D02*
D03*
X-238189Y321260D02*
D03*
X-233931Y321192D02*
D03*
X-230315Y317323D02*
D03*
X-238189D02*
D03*
Y313386D02*
D03*
X-233931Y313318D02*
D03*
X-218282D02*
D03*
X-226156Y309381D02*
D03*
X-233931D02*
D03*
X-238189Y309449D02*
D03*
X-233931Y305444D02*
D03*
X-230093D02*
D03*
X-226156D02*
D03*
X-222219D02*
D03*
X-214345D02*
D03*
X-214370Y313386D02*
D03*
X-214345Y325129D02*
D03*
X-206471D02*
D03*
X-210408D02*
D03*
Y321192D02*
D03*
Y317255D02*
D03*
X-210433Y313386D02*
D03*
X-206471Y317255D02*
D03*
X-206496Y313386D02*
D03*
X-206471Y305444D02*
D03*
X-214345Y301507D02*
D03*
X-230093D02*
D03*
X-233931D02*
D03*
X-238189Y301575D02*
D03*
Y297638D02*
D03*
X-226156Y297570D02*
D03*
Y293633D02*
D03*
X-230093D02*
D03*
X-238189Y293701D02*
D03*
X-241904Y297570D02*
D03*
Y301507D02*
D03*
Y317255D02*
D03*
Y321192D02*
D03*
Y325129D02*
D03*
X-245841D02*
D03*
Y317255D02*
D03*
Y313318D02*
D03*
Y309381D02*
D03*
Y305444D02*
D03*
X-241904Y289598D02*
D03*
X-230093Y285759D02*
D03*
X-234030D02*
D03*
X-241904D02*
D03*
X-245669Y285728D02*
D03*
X-245841Y289598D02*
D03*
X-312770Y281822D02*
D03*
X-603740Y325295D02*
D03*
X-353212Y418432D02*
D03*
X-273400Y218830D02*
D03*
X-308833Y297570D02*
D03*
Y293633D02*
D03*
X-300959Y301507D02*
D03*
D576*
X-160694Y-116636D02*
D03*
X-142800Y-113800D02*
D03*
X-185600Y-98600D02*
D03*
X-191900Y-108300D02*
D03*
X-175400Y-90600D02*
D03*
X-186400Y-92500D02*
D03*
X-180964Y-98464D02*
D03*
X-189800Y-113300D02*
D03*
X-200500Y-119700D02*
D03*
X-195200Y-119800D02*
D03*
X-189900Y-119900D02*
D03*
X-184600Y-120000D02*
D03*
X-184500Y-113400D02*
D03*
X-179200Y-113500D02*
D03*
X-111700Y-102700D02*
D03*
Y-108900D02*
D03*
Y-114700D02*
D03*
X-125900Y-94900D02*
D03*
Y-100500D02*
D03*
X-160800Y-111800D02*
D03*
X-139000Y-104000D02*
D03*
X-142952Y-108048D02*
D03*
X-141417Y-119447D02*
D03*
D577*
X-681890Y1476D02*
D03*
M02*
