G04*
G04 #@! TF.GenerationSoftware,Altium Limited,Altium Designer,26.9.1 (10)*
G04*
G04 Layer_Color=128*
G04 Board_Origin=228582677|171948819*
%FSLAX25Y25*%
%MOIN*%
G70*
G04*
G04 #@! TF.SameCoordinates,ED57C980-2DDC-4A83-B708-2B3B4A8BE11F*
G04*
G04*
G04 #@! TF.FilePolarity,Positive*
G04*
G01*
G75*
%ADD26O,0.05906X0.02362*%
%ADD30O,0.03347X0.01102*%
%ADD31O,0.01102X0.03347*%
%ADD39R,0.03937X0.02362*%
%ADD54R,0.01968X0.03543*%
%ADD57R,0.02362X0.02362*%
%ADD58R,0.02441X0.02284*%
%ADD59R,0.01811X0.01654*%
%ADD60R,0.03150X0.00984*%
%ADD61C,0.01329*%
%ADD62R,0.01181X0.02165*%
%ADD63C,0.01063*%
%ADD64C,0.00100*%
%ADD69O,0.03543X0.01181*%
%ADD70O,0.01181X0.03543*%
%ADD106R,0.08661X0.06102*%
%ADD108R,0.09252X0.09646*%
%ADD110R,0.04528X0.10630*%
%ADD111R,0.07087X0.04528*%
%ADD112R,0.05512X0.04134*%
%ADD114R,0.03740X0.03937*%
%ADD115R,0.02441X0.02441*%
%ADD116R,0.01575X0.01772*%
%ADD117R,0.10630X0.03937*%
%ADD118R,0.04528X0.07087*%
%ADD120R,0.02559X0.04134*%
%ADD121R,0.01772X0.01575*%
%ADD122R,0.03543X0.03937*%
%ADD123R,0.02362X0.02362*%
%ADD126R,0.04528X0.07087*%
%ADD127R,0.02441X0.02441*%
%ADD128R,0.03937X0.03740*%
%ADD129R,0.04134X0.05512*%
%ADD133R,0.03150X0.03150*%
%ADD135R,0.03150X0.03150*%
%ADD143R,0.07992X0.09016*%
%ADD144R,0.02992X0.05512*%
%ADD145R,0.10630X0.04528*%
%ADD148R,0.04134X0.03937*%
%ADD149R,0.08661X0.04134*%
%ADD150R,0.02284X0.02441*%
%ADD151R,0.02953X0.01968*%
%ADD152R,0.05906X0.03937*%
%ADD158R,0.05512X0.11614*%
%ADD159R,0.11614X0.05512*%
%ADD161R,0.03937X0.10630*%
%ADD533C,0.01968*%
%ADD542C,0.01575*%
%ADD709R,0.02854X0.00906*%
%ADD710R,0.01575X0.03071*%
%ADD711R,0.15945X0.08071*%
%ADD712R,0.03740X0.02165*%
%ADD713R,0.04528X0.01968*%
%ADD714R,0.02362X0.04134*%
%ADD715R,0.02953X0.01772*%
%ADD716R,0.06299X0.09449*%
%ADD717R,0.03740X0.01181*%
%ADD718R,0.12992X0.21850*%
%ADD719R,0.02913X0.10984*%
%ADD720C,0.02520*%
%ADD721R,0.10039X0.10039*%
%ADD722R,0.10827X0.03937*%
%ADD723R,0.07284X0.13386*%
%ADD724R,0.14094X0.30000*%
%ADD725R,0.02559X0.06890*%
%ADD726R,0.06102X0.08661*%
%ADD727R,0.09449X0.11024*%
%ADD728R,0.07087X0.20079*%
%ADD732R,0.09646X0.09252*%
%ADD733P,0.05568X4X270.0*%
G04:AMPARAMS|DCode=734|XSize=24.41mil|YSize=22.84mil|CornerRadius=0mil|HoleSize=0mil|Usage=FLASHONLY|Rotation=50.000|XOffset=0mil|YOffset=0mil|HoleType=Round|Shape=Rectangle|*
%AMROTATEDRECTD734*
4,1,4,0.00090,-0.01669,-0.01659,-0.00201,-0.00090,0.01669,0.01659,0.00201,0.00090,-0.01669,0.0*
%
%ADD734ROTATEDRECTD734*%

G04:AMPARAMS|DCode=735|XSize=24.41mil|YSize=22.84mil|CornerRadius=0mil|HoleSize=0mil|Usage=FLASHONLY|Rotation=130.000|XOffset=0mil|YOffset=0mil|HoleType=Round|Shape=Rectangle|*
%AMROTATEDRECTD735*
4,1,4,0.01659,-0.00201,-0.00090,-0.01669,-0.01659,0.00201,0.00090,0.01669,0.01659,-0.00201,0.0*
%
%ADD735ROTATEDRECTD735*%

G04:AMPARAMS|DCode=737|XSize=24.41mil|YSize=22.84mil|CornerRadius=0mil|HoleSize=0mil|Usage=FLASHONLY|Rotation=340.000|XOffset=0mil|YOffset=0mil|HoleType=Round|Shape=Rectangle|*
%AMROTATEDRECTD737*
4,1,4,-0.01537,-0.00655,-0.00756,0.01490,0.01537,0.00655,0.00756,-0.01490,-0.01537,-0.00655,0.0*
%
%ADD737ROTATEDRECTD737*%

G04:AMPARAMS|DCode=738|XSize=24.41mil|YSize=22.84mil|CornerRadius=0mil|HoleSize=0mil|Usage=FLASHONLY|Rotation=200.000|XOffset=0mil|YOffset=0mil|HoleType=Round|Shape=Rectangle|*
%AMROTATEDRECTD738*
4,1,4,0.00756,0.01490,0.01537,-0.00655,-0.00756,-0.01490,-0.01537,0.00655,0.00756,0.01490,0.0*
%
%ADD738ROTATEDRECTD738*%

G36*
X-203150Y61516D02*
X-210236D01*
Y69468D01*
X-203150D01*
Y61516D01*
D02*
G37*
G36*
Y51595D02*
X-210236D01*
Y59547D01*
X-203150D01*
Y51595D01*
D02*
G37*
G36*
X-272244Y14724D02*
Y14134D01*
X-272441Y13937D01*
X-273819D01*
X-274016Y14134D01*
Y14724D01*
X-273819Y14921D01*
X-272441D01*
X-272244Y14724D01*
D02*
G37*
G36*
X-285039D02*
Y14134D01*
X-285236Y13937D01*
X-286614D01*
X-286811Y14134D01*
Y14724D01*
X-286614Y14921D01*
X-285236D01*
X-285039Y14724D01*
D02*
G37*
G36*
X-319488D02*
Y14134D01*
X-319685Y13937D01*
X-321063D01*
X-321260Y14134D01*
Y14724D01*
X-321063Y14921D01*
X-319685D01*
X-319488Y14724D01*
D02*
G37*
G36*
X-332283D02*
Y14134D01*
X-332480Y13937D01*
X-333858D01*
X-334055Y14134D01*
Y14724D01*
X-333858Y14921D01*
X-332480D01*
X-332283Y14724D01*
D02*
G37*
G36*
X-272244Y12756D02*
Y12165D01*
X-272441Y11969D01*
X-273819D01*
X-274016Y12165D01*
Y12756D01*
X-273819Y12953D01*
X-272441D01*
X-272244Y12756D01*
D02*
G37*
G36*
X-285039D02*
Y12165D01*
X-285236Y11969D01*
X-286614D01*
X-286811Y12165D01*
Y12756D01*
X-286614Y12953D01*
X-285236D01*
X-285039Y12756D01*
D02*
G37*
G36*
X-319488D02*
Y12165D01*
X-319685Y11969D01*
X-321063D01*
X-321260Y12165D01*
Y12756D01*
X-321063Y12953D01*
X-319685D01*
X-319488Y12756D01*
D02*
G37*
G36*
X-332283D02*
Y12165D01*
X-332480Y11969D01*
X-333858D01*
X-334055Y12165D01*
Y12756D01*
X-333858Y12953D01*
X-332480D01*
X-332283Y12756D01*
D02*
G37*
G36*
X-272244Y10787D02*
Y10197D01*
X-272441Y10000D01*
X-273819D01*
X-274016Y10197D01*
Y10787D01*
X-273819Y10984D01*
X-272441D01*
X-272244Y10787D01*
D02*
G37*
G36*
X-285039D02*
Y10197D01*
X-285236Y10000D01*
X-286614D01*
X-286811Y10197D01*
Y10787D01*
X-286614Y10984D01*
X-285236D01*
X-285039Y10787D01*
D02*
G37*
G36*
X-319488D02*
Y10197D01*
X-319685Y10000D01*
X-321063D01*
X-321260Y10197D01*
Y10787D01*
X-321063Y10984D01*
X-319685D01*
X-319488Y10787D01*
D02*
G37*
G36*
X-332283D02*
Y10197D01*
X-332480Y10000D01*
X-333858D01*
X-334055Y10197D01*
Y10787D01*
X-333858Y10984D01*
X-332480D01*
X-332283Y10787D01*
D02*
G37*
G36*
X-274801Y15642D02*
Y8673D01*
X-274998Y8476D01*
X-277459D01*
X-277656Y8673D01*
Y15642D01*
X-277459Y15839D01*
X-274998D01*
X-274801Y15642D01*
D02*
G37*
G36*
X-281400D02*
Y8673D01*
X-281596Y8476D01*
X-284057D01*
X-284254Y8673D01*
Y15642D01*
X-284057Y15839D01*
X-281596D01*
X-281400Y15642D01*
D02*
G37*
G36*
X-322045D02*
Y8673D01*
X-322242Y8476D01*
X-324703D01*
X-324900Y8673D01*
Y15642D01*
X-324703Y15839D01*
X-322242D01*
X-322045Y15642D01*
D02*
G37*
G36*
X-328644D02*
Y8673D01*
X-328840Y8476D01*
X-331301D01*
X-331498Y8673D01*
Y15642D01*
X-331301Y15839D01*
X-328840D01*
X-328644Y15642D01*
D02*
G37*
G36*
X-281793Y6396D02*
Y5707D01*
X-281990Y5510D01*
X-286616D01*
X-286813Y5707D01*
Y6396D01*
X-286616Y6593D01*
X-281990D01*
X-281793Y6396D01*
D02*
G37*
G36*
X-329037D02*
Y5707D01*
X-329234Y5510D01*
X-333860D01*
X-334057Y5707D01*
Y6396D01*
X-333860Y6593D01*
X-329234D01*
X-329037Y6396D01*
D02*
G37*
G36*
X-272244Y4331D02*
Y3740D01*
X-272441Y3543D01*
X-273622D01*
X-273819Y3347D01*
Y2756D01*
X-273622Y2559D01*
X-272441D01*
X-272244Y2362D01*
Y1772D01*
X-272441Y1575D01*
X-276772D01*
X-276969Y1772D01*
Y4331D01*
X-276772Y4528D01*
X-272441D01*
X-272244Y4331D01*
D02*
G37*
G36*
X-319488D02*
Y3740D01*
X-319685Y3543D01*
X-320866D01*
X-321063Y3347D01*
Y2756D01*
X-320866Y2559D01*
X-319685D01*
X-319488Y2362D01*
Y1772D01*
X-319685Y1575D01*
X-324016D01*
X-324213Y1772D01*
Y4331D01*
X-324016Y4528D01*
X-319685D01*
X-319488Y4331D01*
D02*
G37*
G36*
X-280020Y6396D02*
Y1573D01*
X-280217Y1376D01*
X-280807D01*
X-281004Y1573D01*
Y6396D01*
X-280807Y6593D01*
X-280217D01*
X-280020Y6396D01*
D02*
G37*
G36*
X-327264D02*
Y1573D01*
X-327461Y1376D01*
X-328051D01*
X-328248Y1573D01*
Y6396D01*
X-328051Y6593D01*
X-327461D01*
X-327264Y6396D01*
D02*
G37*
G36*
X-272441Y591D02*
X-272244Y394D01*
Y-197D01*
X-272441Y-394D01*
X-275295D01*
X-275689Y-787D01*
Y-1575D01*
X-275886Y-1772D01*
X-276870D01*
X-277067Y-1575D01*
Y394D01*
X-276870Y591D01*
X-272441Y591D01*
D02*
G37*
G36*
X-281988Y394D02*
Y-1575D01*
X-282185Y-1772D01*
X-283169D01*
X-283366Y-1575D01*
Y-787D01*
X-283760Y-394D01*
X-286614D01*
X-286811Y-197D01*
Y394D01*
X-286614Y591D01*
X-282185Y591D01*
X-281988Y394D01*
D02*
G37*
G36*
X-319685Y591D02*
X-319488Y394D01*
Y-197D01*
X-319685Y-394D01*
X-322539D01*
X-322933Y-787D01*
Y-1575D01*
X-323130Y-1772D01*
X-324114D01*
X-324311Y-1575D01*
Y394D01*
X-324114Y591D01*
X-319685Y591D01*
D02*
G37*
G36*
X-329232Y394D02*
Y-1575D01*
X-329429Y-1772D01*
X-330413D01*
X-330610Y-1575D01*
Y-787D01*
X-331004Y-394D01*
X-333858D01*
X-334055Y-197D01*
Y394D01*
X-333858Y591D01*
X-329429Y591D01*
X-329232Y394D01*
D02*
G37*
G36*
X-144424Y-77143D02*
X-150448D01*
Y-71120D01*
X-144424D01*
Y-77143D01*
D02*
G37*
G36*
X-230251Y-106868D02*
X-236275D01*
Y-100844D01*
X-230251D01*
Y-106868D01*
D02*
G37*
G36*
X-313932Y-110805D02*
X-319956D01*
Y-104781D01*
X-313932D01*
Y-110805D01*
D02*
G37*
D26*
X-149161Y-115000D02*
D03*
Y-120000D02*
D03*
Y-125000D02*
D03*
Y-130000D02*
D03*
X-169239Y-115000D02*
D03*
Y-120000D02*
D03*
Y-125000D02*
D03*
Y-130000D02*
D03*
D30*
X-65381Y-32156D02*
D03*
Y-38062D02*
D03*
X-43924Y-32156D02*
D03*
Y-38061D02*
D03*
X-96044Y-40062D02*
D03*
Y-34156D02*
D03*
X-74587Y-34156D02*
D03*
Y-40061D02*
D03*
D31*
X-63511Y-41900D02*
D03*
X-59574D02*
D03*
X-57605D02*
D03*
X-45794D02*
D03*
X-47763D02*
D03*
X-49731D02*
D03*
X-51700D02*
D03*
X-53668D02*
D03*
X-55637D02*
D03*
X-49731Y-28317D02*
D03*
X-63511D02*
D03*
X-61542D02*
D03*
X-59574D02*
D03*
X-57605D02*
D03*
X-55637D02*
D03*
X-53668D02*
D03*
X-51700D02*
D03*
X-47763Y-28317D02*
D03*
X-45794D02*
D03*
X-61542Y-41900D02*
D03*
X-78426Y-30317D02*
D03*
X-82363Y-30318D02*
D03*
X-84332D02*
D03*
X-86300D02*
D03*
X-88269D02*
D03*
X-90237D02*
D03*
X-92206D02*
D03*
X-94174D02*
D03*
X-80395D02*
D03*
X-86300Y-43900D02*
D03*
X-84332D02*
D03*
X-82363D02*
D03*
X-80395D02*
D03*
X-78426D02*
D03*
X-76458D02*
D03*
X-88269D02*
D03*
X-90237D02*
D03*
X-94174D02*
D03*
X-76458Y-30317D02*
D03*
X-92206Y-43900D02*
D03*
D39*
X-314988Y83700D02*
D03*
X-324043Y79960D02*
D03*
X-314988Y76220D02*
D03*
X-329102Y70276D02*
D03*
X-338157Y66536D02*
D03*
X-329102Y62795D02*
D03*
D54*
X-64400Y-22718D02*
D03*
Y-12482D02*
D03*
X-95400Y-23918D02*
D03*
Y-13682D02*
D03*
D57*
X-297728Y83800D02*
D03*
X-301272D02*
D03*
X-313583Y70473D02*
D03*
X-317126D02*
D03*
X-334941Y380067D02*
D03*
X-331398D02*
D03*
X-347618Y414567D02*
D03*
X-351161D02*
D03*
X-347618Y418504D02*
D03*
X-351161D02*
D03*
X-359035Y430315D02*
D03*
X-362579D02*
D03*
X-359035Y426378D02*
D03*
X-362579D02*
D03*
X-359035Y422441D02*
D03*
X-362579D02*
D03*
X-345472Y82874D02*
D03*
X-341929D02*
D03*
X-344980Y76772D02*
D03*
X-341437D02*
D03*
X-225886Y70374D02*
D03*
X-229429D02*
D03*
X-334941Y398964D02*
D03*
X-331398D02*
D03*
X-334941Y403689D02*
D03*
X-331398Y403689D02*
D03*
X-334941Y417862D02*
D03*
X-331398D02*
D03*
X-334941Y413138D02*
D03*
X-331398Y413138D02*
D03*
X-334941Y408413D02*
D03*
X-331398D02*
D03*
X-334941Y394240D02*
D03*
X-331398D02*
D03*
X-334941Y384791D02*
D03*
X-331398Y384791D02*
D03*
X-334941Y389516D02*
D03*
X-331398Y389516D02*
D03*
X-334941Y372291D02*
D03*
X-331398D02*
D03*
X-334941Y375539D02*
D03*
X-331398D02*
D03*
X-347618Y422441D02*
D03*
X-351161D02*
D03*
X-347618Y426378D02*
D03*
X-351161D02*
D03*
X-347618Y430315D02*
D03*
X-351161D02*
D03*
X-424784Y418602D02*
D03*
X-428327D02*
D03*
X-424784Y422539D02*
D03*
X-428327D02*
D03*
D58*
X-321850Y-6024D02*
D03*
Y-9724D02*
D03*
X-336614D02*
D03*
Y-6024D02*
D03*
X-331693D02*
D03*
Y-9724D02*
D03*
X-47800Y157350D02*
D03*
Y161050D02*
D03*
X-279528Y-9724D02*
D03*
Y-6024D02*
D03*
X-274606Y-6024D02*
D03*
Y-9724D02*
D03*
X-203150Y-17106D02*
D03*
Y-13406D02*
D03*
X-96161Y-77559D02*
D03*
Y-73858D02*
D03*
X-98600Y-65050D02*
D03*
Y-68750D02*
D03*
X-221752Y-19272D02*
D03*
Y-15571D02*
D03*
X-70000Y-18700D02*
D03*
Y-22401D02*
D03*
X-101200Y-20750D02*
D03*
Y-24450D02*
D03*
X-104921Y-77087D02*
D03*
Y-80787D02*
D03*
Y-73602D02*
D03*
Y-69902D02*
D03*
X-86614Y-83937D02*
D03*
Y-80236D02*
D03*
X-226575Y-5335D02*
D03*
Y-9035D02*
D03*
Y-12618D02*
D03*
Y-16319D02*
D03*
X-234744Y709D02*
D03*
Y4409D02*
D03*
X-229921Y610D02*
D03*
Y4311D02*
D03*
D59*
X-386463Y-22863D02*
D03*
X-389062D02*
D03*
D03*
X-391660D02*
D03*
X-386482Y-17881D02*
D03*
X-389081D02*
D03*
D03*
X-391679D02*
D03*
X-386302Y-33000D02*
D03*
X-388901D02*
D03*
X-391499D02*
D03*
X-388901D02*
D03*
X-387202Y-28100D02*
D03*
X-389801D02*
D03*
D03*
X-392399D02*
D03*
X-388902Y82200D02*
D03*
X-391501D02*
D03*
D03*
X-394099D02*
D03*
X-388902Y76900D02*
D03*
X-391501D02*
D03*
D03*
X-394099D02*
D03*
D60*
X-332480Y2067D02*
D03*
Y4035D02*
D03*
X-285236Y2067D02*
D03*
Y4035D02*
D03*
D61*
X-323573Y-148D02*
D03*
X-276329D02*
D03*
D62*
X-327658Y-689D02*
D03*
X-280413D02*
D03*
D63*
X-329921Y-1181D02*
D03*
X-282677D02*
D03*
D64*
X-328026Y5778D02*
D03*
X-280782D02*
D03*
D69*
X-225586Y-98935D02*
D03*
Y-100903D02*
D03*
Y-102872D02*
D03*
Y-104840D02*
D03*
Y-106809D02*
D03*
X-240940D02*
D03*
Y-104840D02*
D03*
Y-102872D02*
D03*
Y-100903D02*
D03*
Y-98935D02*
D03*
X-225586Y-108777D02*
D03*
X-240940D02*
D03*
X-309267Y-102872D02*
D03*
Y-104840D02*
D03*
Y-106809D02*
D03*
Y-108777D02*
D03*
Y-110746D02*
D03*
X-324621D02*
D03*
Y-108777D02*
D03*
Y-106809D02*
D03*
Y-104840D02*
D03*
Y-102872D02*
D03*
X-309267Y-112714D02*
D03*
X-324621D02*
D03*
X-139759Y-69210D02*
D03*
Y-71179D02*
D03*
Y-75116D02*
D03*
Y-77084D02*
D03*
X-155113D02*
D03*
Y-75116D02*
D03*
Y-73147D02*
D03*
Y-71179D02*
D03*
Y-69210D02*
D03*
Y-79053D02*
D03*
X-139759D02*
D03*
Y-73147D02*
D03*
D70*
X-238184Y-96179D02*
D03*
X-236216D02*
D03*
X-230310D02*
D03*
X-228342D02*
D03*
Y-111533D02*
D03*
X-230310D02*
D03*
X-232279D02*
D03*
X-234247D02*
D03*
X-236216D02*
D03*
X-238184D02*
D03*
X-232279Y-96179D02*
D03*
X-234247D02*
D03*
X-321866Y-100116D02*
D03*
X-319897D02*
D03*
X-313991D02*
D03*
X-312023D02*
D03*
Y-115470D02*
D03*
X-313991D02*
D03*
X-315960D02*
D03*
X-317929D02*
D03*
X-319897D02*
D03*
X-321866D02*
D03*
X-315960Y-100116D02*
D03*
X-317929D02*
D03*
X-152358Y-66454D02*
D03*
X-150389D02*
D03*
X-144484D02*
D03*
X-142515D02*
D03*
Y-81809D02*
D03*
X-144484D02*
D03*
X-146452D02*
D03*
X-148421D02*
D03*
X-150389D02*
D03*
X-152358D02*
D03*
X-146452Y-66454D02*
D03*
X-148421D02*
D03*
D106*
X-78071Y-122000D02*
D03*
X-61929D02*
D03*
D108*
X-373228Y178150D02*
D03*
X-397638D02*
D03*
X-280136Y66435D02*
D03*
X-304545D02*
D03*
D110*
X-374902Y278543D02*
D03*
X-386713D02*
D03*
X-316043Y354823D02*
D03*
X-327854D02*
D03*
D111*
X-350768Y382185D02*
D03*
Y393996D02*
D03*
X-145571Y-90848D02*
D03*
Y-102659D02*
D03*
X-270768Y-34646D02*
D03*
Y-46457D02*
D03*
X-231398Y-120572D02*
D03*
Y-132383D02*
D03*
X-229528Y-34449D02*
D03*
Y-46260D02*
D03*
X-135433Y28739D02*
D03*
Y16928D02*
D03*
X-144291Y28739D02*
D03*
Y16928D02*
D03*
X-153150Y28739D02*
D03*
Y16928D02*
D03*
X-162008Y28739D02*
D03*
Y16928D02*
D03*
X-188583Y28939D02*
D03*
Y17128D02*
D03*
X-170866Y28939D02*
D03*
Y17128D02*
D03*
X-179724Y28739D02*
D03*
Y16928D02*
D03*
D112*
X-313976Y-10236D02*
D03*
Y-17323D02*
D03*
D114*
X-324016Y-120374D02*
D03*
X-330315D02*
D03*
X-316929Y146850D02*
D03*
X-323228D02*
D03*
X-219390Y45276D02*
D03*
X-213090D02*
D03*
X-339370Y14764D02*
D03*
X-345669D02*
D03*
X-292126D02*
D03*
X-298425D02*
D03*
X-379921Y264961D02*
D03*
X-386221D02*
D03*
X-305315Y145571D02*
D03*
X-299016D02*
D03*
X-377756Y257579D02*
D03*
X-384055Y257579D02*
D03*
X-366142Y198917D02*
D03*
X-372441D02*
D03*
X-223721Y148130D02*
D03*
X-230020D02*
D03*
X-366929Y190453D02*
D03*
X-373228D02*
D03*
X-365479Y304921D02*
D03*
X-371779D02*
D03*
X-366240Y296260D02*
D03*
X-372539D02*
D03*
X-367815Y289862D02*
D03*
X-374114D02*
D03*
X-207776Y150591D02*
D03*
X-201476Y150591D02*
D03*
X-207776Y165354D02*
D03*
X-201476Y165354D02*
D03*
X-207776Y157480D02*
D03*
X-201476Y157480D02*
D03*
D115*
X-55172Y161000D02*
D03*
X-51628D02*
D03*
X-195428Y-124600D02*
D03*
X-198972D02*
D03*
D116*
X-100300Y-40222D02*
D03*
Y-42978D02*
D03*
X-322000Y174578D02*
D03*
Y171822D02*
D03*
X-48000Y-69122D02*
D03*
Y-71878D02*
D03*
X-63900Y-96622D02*
D03*
Y-99378D02*
D03*
X-100300Y-31478D02*
D03*
Y-28722D02*
D03*
X-103500Y-31522D02*
D03*
Y-34278D02*
D03*
X-69500Y-38578D02*
D03*
Y-35822D02*
D03*
Y-41922D02*
D03*
Y-44678D02*
D03*
X-69600Y-29578D02*
D03*
Y-26822D02*
D03*
X-99410Y-73917D02*
D03*
Y-76673D02*
D03*
X-199409Y-7677D02*
D03*
Y-4921D02*
D03*
X-220374Y-3150D02*
D03*
Y-5906D02*
D03*
X-223228Y-10827D02*
D03*
Y-8071D02*
D03*
X-240748Y-7972D02*
D03*
Y-10728D02*
D03*
X-35724Y114400D02*
D03*
Y111644D02*
D03*
X-35734Y117427D02*
D03*
Y120183D02*
D03*
D117*
X-303150Y163779D02*
D03*
Y155118D02*
D03*
D118*
X-158691Y-101900D02*
D03*
X-170109D02*
D03*
D120*
X-48320Y140200D02*
D03*
X-52060Y149255D02*
D03*
X-55800Y140200D02*
D03*
D121*
X-173901Y242541D02*
D03*
X-171145D02*
D03*
X-173901Y245100D02*
D03*
X-171145D02*
D03*
X-172933Y224311D02*
D03*
X-175689D02*
D03*
X-172933Y221752D02*
D03*
X-175689D02*
D03*
X-153872Y247047D02*
D03*
X-151117D02*
D03*
X-153971Y249606D02*
D03*
X-151215D02*
D03*
X-153937Y229331D02*
D03*
X-156693D02*
D03*
X-153937Y226870D02*
D03*
X-156693D02*
D03*
X-181595Y262697D02*
D03*
X-178839D02*
D03*
X-181595Y265256D02*
D03*
X-178839D02*
D03*
X-182087Y232579D02*
D03*
X-179331D02*
D03*
X-182087Y235039D02*
D03*
X-179331D02*
D03*
X-180900Y250900D02*
D03*
X-178144D02*
D03*
X-402783Y208839D02*
D03*
X-400027D02*
D03*
X-180700Y256400D02*
D03*
X-177944D02*
D03*
X-402756Y206400D02*
D03*
X-400000D02*
D03*
X-157972Y267323D02*
D03*
X-155217D02*
D03*
X-157972Y269882D02*
D03*
X-155217D02*
D03*
X-153472Y257579D02*
D03*
X-150716D02*
D03*
X-391535Y218898D02*
D03*
X-388779D02*
D03*
X-150716Y260138D02*
D03*
X-153472D02*
D03*
X-391535Y216437D02*
D03*
X-388779D02*
D03*
X-391437Y196555D02*
D03*
X-388681D02*
D03*
X-391437Y199016D02*
D03*
X-388681D02*
D03*
X-389370Y193799D02*
D03*
X-386614D02*
D03*
X-389370Y191437D02*
D03*
X-386614D02*
D03*
X-381693Y213976D02*
D03*
X-378937D02*
D03*
X-381693Y211614D02*
D03*
X-378937D02*
D03*
X-393504Y238681D02*
D03*
X-390748D02*
D03*
X-393504Y236221D02*
D03*
X-390748D02*
D03*
X-157972Y239665D02*
D03*
X-155217D02*
D03*
X-95178Y-48100D02*
D03*
X-92422D02*
D03*
X-327878Y171400D02*
D03*
X-325122D02*
D03*
X-33661Y29626D02*
D03*
X-30906D02*
D03*
X-157973Y237106D02*
D03*
X-155217D02*
D03*
X-397539Y238878D02*
D03*
X-400295D02*
D03*
X-397539Y236319D02*
D03*
X-400295D02*
D03*
X-64478Y-46100D02*
D03*
X-61722D02*
D03*
X-159498Y183229D02*
D03*
X-156743D02*
D03*
X-33760Y23327D02*
D03*
X-31004D02*
D03*
X-33760Y20768D02*
D03*
X-31004D02*
D03*
X-33760Y58760D02*
D03*
X-31004D02*
D03*
X-33760Y56201D02*
D03*
X-31004D02*
D03*
X-30709Y50787D02*
D03*
X-27953D02*
D03*
X-30709Y48228D02*
D03*
X-27953D02*
D03*
X-33378Y76500D02*
D03*
X-30622D02*
D03*
X-33378Y74000D02*
D03*
X-30622D02*
D03*
X-34252Y67815D02*
D03*
X-31496D02*
D03*
X-34252Y65256D02*
D03*
X-31496D02*
D03*
X-33661Y32185D02*
D03*
X-30906D02*
D03*
X-31004Y14567D02*
D03*
X-33760D02*
D03*
X-31004Y12008D02*
D03*
X-33760D02*
D03*
X-33760Y5610D02*
D03*
X-31004D02*
D03*
X-33760Y3051D02*
D03*
X-31004D02*
D03*
X-338878Y417862D02*
D03*
X-341634D02*
D03*
X-338878Y373768D02*
D03*
X-341634D02*
D03*
X-338878Y403689D02*
D03*
X-341634D02*
D03*
X-338878Y389516D02*
D03*
X-341634D02*
D03*
X-422922Y428700D02*
D03*
X-425678D02*
D03*
X-422922Y425800D02*
D03*
X-425678D02*
D03*
X-179134Y221752D02*
D03*
X-181890D02*
D03*
X-179134Y224213D02*
D03*
X-181890D02*
D03*
X-178144Y245100D02*
D03*
X-180900D02*
D03*
X-178144Y242639D02*
D03*
X-180900D02*
D03*
X-38578Y114400D02*
D03*
X-35822D02*
D03*
X-38490Y117427D02*
D03*
X-35734D02*
D03*
X-92520Y-80709D02*
D03*
X-89764D02*
D03*
X-206299Y-689D02*
D03*
X-209055D02*
D03*
X-230610Y-3937D02*
D03*
X-233366D02*
D03*
D122*
X-224508Y82185D02*
D03*
X-230807D02*
D03*
X-224508Y76279D02*
D03*
X-230807D02*
D03*
X-231250Y55500D02*
D03*
X-224950D02*
D03*
X-231750Y49000D02*
D03*
X-225450D02*
D03*
D123*
X-310400Y84072D02*
D03*
Y80528D02*
D03*
X-130807Y-89764D02*
D03*
Y-93307D02*
D03*
X-151100Y-2572D02*
D03*
Y972D02*
D03*
X-134449Y-89764D02*
D03*
Y-93307D02*
D03*
X-323900Y68372D02*
D03*
Y64828D02*
D03*
X-165300Y192072D02*
D03*
Y188528D02*
D03*
X-304035Y-123425D02*
D03*
Y-126969D02*
D03*
X-326772Y-9646D02*
D03*
Y-6102D02*
D03*
X-289370Y-6102D02*
D03*
Y-9646D02*
D03*
X-277165Y-64764D02*
D03*
Y-61221D02*
D03*
X-300394Y-123425D02*
D03*
Y-126969D02*
D03*
X-159100Y-2772D02*
D03*
Y772D02*
D03*
X-354724Y-47441D02*
D03*
Y-50984D02*
D03*
X-219882Y-119291D02*
D03*
Y-122835D02*
D03*
X-214961Y-119291D02*
D03*
Y-122835D02*
D03*
X-244882Y-32087D02*
D03*
Y-28543D02*
D03*
X-237008Y-32087D02*
D03*
Y-28543D02*
D03*
X-284449Y-6102D02*
D03*
Y-9646D02*
D03*
X-295276Y5709D02*
D03*
Y2165D02*
D03*
X-236713Y71653D02*
D03*
Y75197D02*
D03*
X-418900Y428072D02*
D03*
Y424528D02*
D03*
X-338583Y5709D02*
D03*
Y2165D02*
D03*
X-295276Y-6102D02*
D03*
Y-9646D02*
D03*
D126*
X-319094Y-127756D02*
D03*
X-330906D02*
D03*
X-330709Y22638D02*
D03*
X-342520D02*
D03*
X-285433Y33465D02*
D03*
X-297244D02*
D03*
X-285433Y23622D02*
D03*
X-297244D02*
D03*
X-195865Y43504D02*
D03*
X-207676D02*
D03*
X-195865Y34646D02*
D03*
X-207676D02*
D03*
X-195865Y25787D02*
D03*
X-207676D02*
D03*
X-180705Y-92600D02*
D03*
X-168895D02*
D03*
X-330709Y32480D02*
D03*
X-342520D02*
D03*
D127*
X-342520Y5709D02*
D03*
Y2165D02*
D03*
X-291339D02*
D03*
Y5709D02*
D03*
D128*
X-304600Y-99450D02*
D03*
Y-93150D02*
D03*
X-308583Y-124114D02*
D03*
Y-130413D02*
D03*
X-134600Y-65350D02*
D03*
Y-59050D02*
D03*
X-315551Y158268D02*
D03*
Y164567D02*
D03*
X-313976Y3150D02*
D03*
Y-3150D02*
D03*
X-266732Y3150D02*
D03*
Y-3150D02*
D03*
X-188400Y-65550D02*
D03*
Y-59250D02*
D03*
X-152300Y-89850D02*
D03*
Y-96150D02*
D03*
X-138779Y-90453D02*
D03*
Y-96752D02*
D03*
X-220700Y-95250D02*
D03*
Y-88950D02*
D03*
X-238000Y-119650D02*
D03*
Y-125950D02*
D03*
X-224606Y-120177D02*
D03*
Y-126476D02*
D03*
X-274500Y-95750D02*
D03*
Y-89450D02*
D03*
X-146752Y283169D02*
D03*
Y276870D02*
D03*
X-139862Y283169D02*
D03*
Y276870D02*
D03*
Y292323D02*
D03*
Y298622D02*
D03*
X-167126Y283071D02*
D03*
Y276772D02*
D03*
X-153642Y283071D02*
D03*
Y276772D02*
D03*
X-266339Y162889D02*
D03*
Y156590D02*
D03*
X-160531Y283071D02*
D03*
Y276772D02*
D03*
X-146752Y292323D02*
D03*
Y298622D02*
D03*
D129*
X-313583Y21161D02*
D03*
X-306496D02*
D03*
X-266339Y10827D02*
D03*
X-259252D02*
D03*
X-266339Y19685D02*
D03*
X-259252D02*
D03*
X-266339Y28543D02*
D03*
X-259252D02*
D03*
X-313090Y13287D02*
D03*
X-306004D02*
D03*
X-226957Y64400D02*
D03*
X-234043D02*
D03*
X-222743Y38000D02*
D03*
X-215657D02*
D03*
X-222743Y28500D02*
D03*
X-215657D02*
D03*
X-222743Y19500D02*
D03*
X-215657D02*
D03*
X-222743Y10100D02*
D03*
X-215657D02*
D03*
D133*
X-652100Y429748D02*
D03*
Y423252D02*
D03*
X-159028Y-8098D02*
D03*
Y-14594D02*
D03*
X-151091Y-8161D02*
D03*
Y-14657D02*
D03*
X-277200Y-70552D02*
D03*
Y-77048D02*
D03*
X-244900Y-37352D02*
D03*
Y-43848D02*
D03*
X-237000Y-37352D02*
D03*
Y-43848D02*
D03*
D135*
X-335520Y83465D02*
D03*
X-329024D02*
D03*
X-360051Y-54134D02*
D03*
X-366547D02*
D03*
X-336024Y76575D02*
D03*
X-329528D02*
D03*
D143*
X-184900Y-105548D02*
D03*
X-179900Y-129052D02*
D03*
D144*
X-177400Y-103796D02*
D03*
X-187400Y-130804D02*
D03*
D145*
X-126200Y422152D02*
D03*
Y403648D02*
D03*
X-275372Y155507D02*
D03*
Y143696D02*
D03*
X-288779Y155507D02*
D03*
Y143696D02*
D03*
X-240551Y160925D02*
D03*
Y149114D02*
D03*
X-253937Y161024D02*
D03*
Y149213D02*
D03*
X-174114Y292717D02*
D03*
Y304528D02*
D03*
X-174705Y183760D02*
D03*
Y171949D02*
D03*
D148*
X-659154Y144095D02*
D03*
X-80500Y173600D02*
D03*
X-79600Y154900D02*
D03*
X-115600Y169500D02*
D03*
X-115700Y151000D02*
D03*
D149*
X-665158Y149902D02*
D03*
Y138287D02*
D03*
X-74496Y167793D02*
D03*
Y179407D02*
D03*
X-73596Y160707D02*
D03*
Y149093D02*
D03*
X-121604Y175307D02*
D03*
Y163693D02*
D03*
X-121704Y156807D02*
D03*
Y145193D02*
D03*
D150*
X-338701Y-1969D02*
D03*
X-342402D02*
D03*
X-55250Y157300D02*
D03*
X-51550D02*
D03*
X-48250Y135000D02*
D03*
X-51950D02*
D03*
X-295158Y-1969D02*
D03*
X-291457D02*
D03*
X-93458Y203608D02*
D03*
X-97159D02*
D03*
X-93458Y207408D02*
D03*
X-97159D02*
D03*
X-59350Y-92600D02*
D03*
X-63050D02*
D03*
X-55750D02*
D03*
X-52050D02*
D03*
X-59350Y-86700D02*
D03*
X-63050D02*
D03*
X-55750D02*
D03*
X-52050D02*
D03*
X-59350Y-80800D02*
D03*
X-63050D02*
D03*
X-55750D02*
D03*
X-52050D02*
D03*
X-59350Y-74900D02*
D03*
X-63050D02*
D03*
X-55750D02*
D03*
X-52050D02*
D03*
X-59350Y-68900D02*
D03*
X-63050D02*
D03*
X-55750D02*
D03*
X-52050D02*
D03*
X-59350Y-63000D02*
D03*
X-63050D02*
D03*
X-55750D02*
D03*
X-52050D02*
D03*
X-59350Y-57100D02*
D03*
X-63050D02*
D03*
X-55750D02*
D03*
X-52050D02*
D03*
X-59350Y-51200D02*
D03*
X-63050D02*
D03*
X-55750D02*
D03*
X-52050D02*
D03*
X-93622Y-85236D02*
D03*
X-97323D02*
D03*
X-195059Y-3248D02*
D03*
X-191358D02*
D03*
X-194567Y-8366D02*
D03*
X-190866D02*
D03*
X-212126Y591D02*
D03*
X-215827D02*
D03*
X-212126Y4134D02*
D03*
X-215827D02*
D03*
X-215630Y-8957D02*
D03*
X-211929D02*
D03*
X-215630Y-4232D02*
D03*
X-211929D02*
D03*
X-244705Y-10827D02*
D03*
X-248406D02*
D03*
X-244705Y-7776D02*
D03*
X-248406D02*
D03*
D151*
X-55200Y-113200D02*
D03*
X-60712D02*
D03*
X-34844Y-115100D02*
D03*
X-40356D02*
D03*
X-35044Y-108300D02*
D03*
X-40556D02*
D03*
X-45244Y-109900D02*
D03*
X-50756D02*
D03*
D152*
X-62600Y175769D02*
D03*
Y184431D02*
D03*
D158*
X-395866Y-5906D02*
D03*
X-105600Y-4400D02*
D03*
X-394783Y317913D02*
D03*
X-200800Y-28900D02*
D03*
D159*
X-152735Y334646D02*
D03*
X-208711Y-128937D02*
D03*
X-274000Y-128000D02*
D03*
D161*
X-228740Y159449D02*
D03*
X-220079D02*
D03*
D533*
X-228124Y193239D02*
D03*
Y197176D02*
D03*
X-208439Y193239D02*
D03*
Y197176D02*
D03*
Y201113D02*
D03*
Y205050D02*
D03*
Y208987D02*
D03*
Y212924D02*
D03*
Y216861D02*
D03*
Y224735D02*
D03*
Y228672D02*
D03*
Y236546D02*
D03*
Y244421D02*
D03*
Y252294D02*
D03*
Y260169D02*
D03*
Y268042D02*
D03*
Y275917D02*
D03*
Y283790D02*
D03*
Y287728D02*
D03*
Y291665D02*
D03*
Y295602D02*
D03*
Y299539D02*
D03*
Y303476D02*
D03*
Y307413D02*
D03*
Y311350D02*
D03*
Y315287D02*
D03*
Y323161D02*
D03*
X-212376Y193239D02*
D03*
Y197176D02*
D03*
Y201113D02*
D03*
Y205050D02*
D03*
Y212924D02*
D03*
Y216861D02*
D03*
Y220798D02*
D03*
Y224735D02*
D03*
Y228672D02*
D03*
Y236546D02*
D03*
Y240483D02*
D03*
Y244421D02*
D03*
Y248358D02*
D03*
Y252294D02*
D03*
Y256231D02*
D03*
Y260169D02*
D03*
Y264106D02*
D03*
Y268042D02*
D03*
Y271979D02*
D03*
Y275917D02*
D03*
Y283790D02*
D03*
Y287728D02*
D03*
Y291665D02*
D03*
Y295602D02*
D03*
Y299539D02*
D03*
Y303476D02*
D03*
Y311350D02*
D03*
Y315287D02*
D03*
Y319224D02*
D03*
Y323161D02*
D03*
X-216313Y193239D02*
D03*
Y201113D02*
D03*
Y205050D02*
D03*
Y208987D02*
D03*
Y212924D02*
D03*
Y216861D02*
D03*
Y220798D02*
D03*
Y224735D02*
D03*
Y228672D02*
D03*
Y240483D02*
D03*
Y248358D02*
D03*
Y256231D02*
D03*
Y264106D02*
D03*
Y271979D02*
D03*
Y283790D02*
D03*
Y287728D02*
D03*
Y291665D02*
D03*
Y299539D02*
D03*
Y303476D02*
D03*
Y307413D02*
D03*
Y311350D02*
D03*
Y315287D02*
D03*
Y319224D02*
D03*
Y323161D02*
D03*
X-220250Y193239D02*
D03*
Y197176D02*
D03*
Y201113D02*
D03*
Y205050D02*
D03*
Y208987D02*
D03*
Y212924D02*
D03*
Y216861D02*
D03*
Y220798D02*
D03*
Y228672D02*
D03*
Y232610D02*
D03*
Y240483D02*
D03*
Y244421D02*
D03*
Y248358D02*
D03*
Y252294D02*
D03*
Y256231D02*
D03*
Y260169D02*
D03*
Y264106D02*
D03*
Y268042D02*
D03*
Y271979D02*
D03*
Y275917D02*
D03*
Y287728D02*
D03*
Y291665D02*
D03*
Y295602D02*
D03*
Y299539D02*
D03*
Y303476D02*
D03*
Y307413D02*
D03*
Y311350D02*
D03*
Y315287D02*
D03*
Y319224D02*
D03*
X-224187Y193239D02*
D03*
Y197176D02*
D03*
Y201113D02*
D03*
Y205050D02*
D03*
Y208987D02*
D03*
Y216861D02*
D03*
Y220798D02*
D03*
Y224735D02*
D03*
Y228672D02*
D03*
Y244421D02*
D03*
Y252294D02*
D03*
Y260169D02*
D03*
Y268042D02*
D03*
Y275917D02*
D03*
Y283790D02*
D03*
Y287728D02*
D03*
Y291665D02*
D03*
Y295602D02*
D03*
Y299539D02*
D03*
Y303476D02*
D03*
Y307413D02*
D03*
Y315287D02*
D03*
Y319224D02*
D03*
Y323161D02*
D03*
X-228124Y205050D02*
D03*
Y208987D02*
D03*
Y212924D02*
D03*
Y216861D02*
D03*
Y220798D02*
D03*
Y224735D02*
D03*
Y228672D02*
D03*
Y232610D02*
D03*
Y240483D02*
D03*
Y244421D02*
D03*
Y248358D02*
D03*
Y252294D02*
D03*
Y256231D02*
D03*
Y260169D02*
D03*
Y264106D02*
D03*
Y268042D02*
D03*
Y271979D02*
D03*
Y275917D02*
D03*
Y283790D02*
D03*
Y287728D02*
D03*
Y291665D02*
D03*
Y295602D02*
D03*
Y303476D02*
D03*
Y307413D02*
D03*
Y311350D02*
D03*
Y315287D02*
D03*
Y319224D02*
D03*
Y323161D02*
D03*
X-232061Y193239D02*
D03*
Y197176D02*
D03*
Y201113D02*
D03*
Y205050D02*
D03*
Y208987D02*
D03*
Y212924D02*
D03*
Y216861D02*
D03*
Y220798D02*
D03*
Y224735D02*
D03*
Y232610D02*
D03*
Y240483D02*
D03*
Y248358D02*
D03*
Y256231D02*
D03*
Y264106D02*
D03*
Y271979D02*
D03*
Y283790D02*
D03*
Y291665D02*
D03*
Y295602D02*
D03*
Y299539D02*
D03*
Y303476D02*
D03*
Y307413D02*
D03*
Y311350D02*
D03*
Y315287D02*
D03*
Y319224D02*
D03*
Y323161D02*
D03*
X-235998Y193239D02*
D03*
Y197176D02*
D03*
Y201113D02*
D03*
Y205050D02*
D03*
Y208987D02*
D03*
Y212924D02*
D03*
Y220798D02*
D03*
Y224735D02*
D03*
Y228672D02*
D03*
Y232610D02*
D03*
Y244421D02*
D03*
Y248358D02*
D03*
Y252294D02*
D03*
Y256231D02*
D03*
Y260169D02*
D03*
Y264106D02*
D03*
Y268042D02*
D03*
Y271979D02*
D03*
Y279854D02*
D03*
Y283790D02*
D03*
Y287728D02*
D03*
Y291665D02*
D03*
Y295602D02*
D03*
Y299539D02*
D03*
Y303476D02*
D03*
Y307413D02*
D03*
Y311350D02*
D03*
Y319224D02*
D03*
Y323161D02*
D03*
X-239935Y193239D02*
D03*
Y197176D02*
D03*
Y201113D02*
D03*
Y208987D02*
D03*
Y212924D02*
D03*
Y216861D02*
D03*
Y220798D02*
D03*
Y224735D02*
D03*
Y228672D02*
D03*
Y232610D02*
D03*
Y236546D02*
D03*
Y279854D02*
D03*
Y283790D02*
D03*
Y287728D02*
D03*
Y291665D02*
D03*
Y295602D02*
D03*
Y299539D02*
D03*
Y307413D02*
D03*
Y311350D02*
D03*
Y315287D02*
D03*
Y319224D02*
D03*
Y323161D02*
D03*
X-243872Y197176D02*
D03*
Y201113D02*
D03*
Y205050D02*
D03*
Y208987D02*
D03*
Y212924D02*
D03*
Y216861D02*
D03*
Y220798D02*
D03*
Y224735D02*
D03*
Y228672D02*
D03*
Y236546D02*
D03*
Y244421D02*
D03*
Y252294D02*
D03*
Y260169D02*
D03*
Y268042D02*
D03*
Y271979D02*
D03*
Y275917D02*
D03*
Y279854D02*
D03*
Y283790D02*
D03*
Y287728D02*
D03*
Y295602D02*
D03*
Y299539D02*
D03*
Y303476D02*
D03*
Y311350D02*
D03*
Y315287D02*
D03*
Y319224D02*
D03*
Y323161D02*
D03*
X-247810Y193239D02*
D03*
Y197176D02*
D03*
Y201113D02*
D03*
Y205050D02*
D03*
Y208987D02*
D03*
Y212924D02*
D03*
Y216861D02*
D03*
Y224735D02*
D03*
Y228672D02*
D03*
Y232610D02*
D03*
Y236546D02*
D03*
Y240483D02*
D03*
Y248358D02*
D03*
Y256231D02*
D03*
Y264106D02*
D03*
Y271979D02*
D03*
Y275917D02*
D03*
Y279854D02*
D03*
Y283790D02*
D03*
Y287728D02*
D03*
Y291665D02*
D03*
Y295602D02*
D03*
Y299539D02*
D03*
Y303476D02*
D03*
Y307413D02*
D03*
Y311350D02*
D03*
Y315287D02*
D03*
Y323161D02*
D03*
X-251747Y193239D02*
D03*
Y197176D02*
D03*
Y201113D02*
D03*
Y205050D02*
D03*
Y212924D02*
D03*
Y216861D02*
D03*
Y220798D02*
D03*
Y224735D02*
D03*
Y228672D02*
D03*
Y232610D02*
D03*
Y236546D02*
D03*
Y244421D02*
D03*
Y252294D02*
D03*
Y260169D02*
D03*
Y268042D02*
D03*
Y275917D02*
D03*
Y283790D02*
D03*
Y287728D02*
D03*
Y291665D02*
D03*
Y295602D02*
D03*
Y299539D02*
D03*
Y303476D02*
D03*
Y311350D02*
D03*
Y315287D02*
D03*
Y319224D02*
D03*
Y323161D02*
D03*
X-255683Y193239D02*
D03*
Y201113D02*
D03*
Y205050D02*
D03*
Y208987D02*
D03*
Y212924D02*
D03*
Y216861D02*
D03*
Y220798D02*
D03*
Y224735D02*
D03*
Y228672D02*
D03*
Y232610D02*
D03*
Y240483D02*
D03*
Y248358D02*
D03*
Y256231D02*
D03*
Y264106D02*
D03*
Y271979D02*
D03*
Y279854D02*
D03*
Y283790D02*
D03*
Y287728D02*
D03*
Y291665D02*
D03*
Y299539D02*
D03*
Y303476D02*
D03*
Y307413D02*
D03*
Y311350D02*
D03*
Y315287D02*
D03*
Y319224D02*
D03*
Y323161D02*
D03*
X-259620Y193239D02*
D03*
Y197176D02*
D03*
Y201113D02*
D03*
Y205050D02*
D03*
Y208987D02*
D03*
Y212924D02*
D03*
Y216861D02*
D03*
Y220798D02*
D03*
Y228672D02*
D03*
Y232610D02*
D03*
Y236546D02*
D03*
Y244421D02*
D03*
Y252294D02*
D03*
Y260169D02*
D03*
Y268042D02*
D03*
Y275917D02*
D03*
Y287728D02*
D03*
Y291665D02*
D03*
Y295602D02*
D03*
Y299539D02*
D03*
Y303476D02*
D03*
Y307413D02*
D03*
Y311350D02*
D03*
Y315287D02*
D03*
Y319224D02*
D03*
X-263558Y193239D02*
D03*
Y197176D02*
D03*
Y201113D02*
D03*
Y205050D02*
D03*
Y208987D02*
D03*
Y216861D02*
D03*
Y220798D02*
D03*
Y224735D02*
D03*
Y228672D02*
D03*
Y232610D02*
D03*
Y240483D02*
D03*
Y248358D02*
D03*
Y256231D02*
D03*
Y264106D02*
D03*
Y271979D02*
D03*
Y279854D02*
D03*
Y283790D02*
D03*
Y287728D02*
D03*
Y291665D02*
D03*
Y295602D02*
D03*
Y299539D02*
D03*
Y303476D02*
D03*
Y307413D02*
D03*
Y315287D02*
D03*
Y319224D02*
D03*
Y323161D02*
D03*
X-267495Y193239D02*
D03*
Y197176D02*
D03*
Y205050D02*
D03*
Y208987D02*
D03*
Y212924D02*
D03*
Y216861D02*
D03*
Y220798D02*
D03*
Y224735D02*
D03*
Y228672D02*
D03*
Y232610D02*
D03*
Y236546D02*
D03*
Y244421D02*
D03*
Y252294D02*
D03*
Y256231D02*
D03*
Y260169D02*
D03*
Y268042D02*
D03*
Y275917D02*
D03*
Y283790D02*
D03*
Y287728D02*
D03*
Y291665D02*
D03*
Y295602D02*
D03*
Y303476D02*
D03*
Y307413D02*
D03*
Y311350D02*
D03*
Y315287D02*
D03*
Y319224D02*
D03*
Y323161D02*
D03*
X-271431Y193239D02*
D03*
Y197176D02*
D03*
Y201113D02*
D03*
Y205050D02*
D03*
Y208987D02*
D03*
Y212924D02*
D03*
Y216861D02*
D03*
Y220798D02*
D03*
Y224735D02*
D03*
Y232610D02*
D03*
Y240483D02*
D03*
Y248358D02*
D03*
Y260169D02*
D03*
Y264106D02*
D03*
Y271979D02*
D03*
Y279854D02*
D03*
Y283790D02*
D03*
Y291665D02*
D03*
Y295602D02*
D03*
Y299539D02*
D03*
Y303476D02*
D03*
Y307413D02*
D03*
Y311350D02*
D03*
Y315287D02*
D03*
Y319224D02*
D03*
Y323161D02*
D03*
X-275368Y193239D02*
D03*
Y197176D02*
D03*
Y201113D02*
D03*
Y205050D02*
D03*
Y208987D02*
D03*
Y212924D02*
D03*
Y220798D02*
D03*
Y224735D02*
D03*
Y228672D02*
D03*
Y232610D02*
D03*
Y236546D02*
D03*
Y244421D02*
D03*
Y252294D02*
D03*
Y256231D02*
D03*
Y268042D02*
D03*
Y275917D02*
D03*
Y283790D02*
D03*
Y287728D02*
D03*
Y291665D02*
D03*
Y295602D02*
D03*
Y299539D02*
D03*
Y303476D02*
D03*
Y307413D02*
D03*
Y311350D02*
D03*
Y319224D02*
D03*
Y323161D02*
D03*
X-279306Y193239D02*
D03*
Y197176D02*
D03*
Y201113D02*
D03*
Y208987D02*
D03*
Y212924D02*
D03*
Y216861D02*
D03*
Y220798D02*
D03*
Y224735D02*
D03*
Y228672D02*
D03*
Y232610D02*
D03*
Y240483D02*
D03*
Y248358D02*
D03*
Y256231D02*
D03*
Y264106D02*
D03*
Y271979D02*
D03*
Y279854D02*
D03*
Y283790D02*
D03*
Y287728D02*
D03*
Y291665D02*
D03*
Y295602D02*
D03*
Y299539D02*
D03*
Y307413D02*
D03*
Y311350D02*
D03*
Y315287D02*
D03*
Y319224D02*
D03*
Y323161D02*
D03*
X-283243Y197176D02*
D03*
Y201113D02*
D03*
Y205050D02*
D03*
Y212924D02*
D03*
Y216861D02*
D03*
Y220798D02*
D03*
Y224735D02*
D03*
Y228672D02*
D03*
Y236546D02*
D03*
Y244421D02*
D03*
Y252294D02*
D03*
Y260169D02*
D03*
Y268042D02*
D03*
Y275917D02*
D03*
Y283790D02*
D03*
Y287728D02*
D03*
Y295602D02*
D03*
Y299539D02*
D03*
Y303476D02*
D03*
Y307413D02*
D03*
Y311350D02*
D03*
Y315287D02*
D03*
Y319224D02*
D03*
Y323161D02*
D03*
X-287179Y193239D02*
D03*
Y197176D02*
D03*
Y201113D02*
D03*
Y205050D02*
D03*
Y212924D02*
D03*
Y216861D02*
D03*
Y224735D02*
D03*
Y228672D02*
D03*
Y232610D02*
D03*
Y240483D02*
D03*
Y248358D02*
D03*
Y256231D02*
D03*
Y264106D02*
D03*
Y271979D02*
D03*
Y279854D02*
D03*
Y283790D02*
D03*
Y287728D02*
D03*
Y291665D02*
D03*
Y295602D02*
D03*
Y299539D02*
D03*
Y303476D02*
D03*
Y307413D02*
D03*
Y311350D02*
D03*
Y315287D02*
D03*
Y323161D02*
D03*
X-291116Y193239D02*
D03*
Y197176D02*
D03*
Y201113D02*
D03*
Y205050D02*
D03*
Y212924D02*
D03*
Y216861D02*
D03*
Y220798D02*
D03*
Y224735D02*
D03*
Y228672D02*
D03*
Y232610D02*
D03*
Y236546D02*
D03*
Y244421D02*
D03*
Y252294D02*
D03*
Y260169D02*
D03*
Y268042D02*
D03*
Y275917D02*
D03*
Y283790D02*
D03*
Y287728D02*
D03*
Y291665D02*
D03*
Y295602D02*
D03*
Y299539D02*
D03*
Y303476D02*
D03*
Y311350D02*
D03*
Y315287D02*
D03*
Y319224D02*
D03*
Y323161D02*
D03*
X-295054Y193239D02*
D03*
Y201113D02*
D03*
Y205050D02*
D03*
Y208987D02*
D03*
Y212924D02*
D03*
Y216861D02*
D03*
Y220798D02*
D03*
Y224735D02*
D03*
Y228672D02*
D03*
Y232610D02*
D03*
Y240483D02*
D03*
Y248358D02*
D03*
Y256231D02*
D03*
Y264106D02*
D03*
Y271979D02*
D03*
Y279854D02*
D03*
Y283790D02*
D03*
Y287728D02*
D03*
Y291665D02*
D03*
Y299539D02*
D03*
Y303476D02*
D03*
Y307413D02*
D03*
Y311350D02*
D03*
Y315287D02*
D03*
Y319224D02*
D03*
Y323161D02*
D03*
X-298991Y193239D02*
D03*
Y197176D02*
D03*
Y201113D02*
D03*
Y205050D02*
D03*
Y208987D02*
D03*
Y212924D02*
D03*
Y216861D02*
D03*
Y220798D02*
D03*
Y228672D02*
D03*
Y232610D02*
D03*
Y236546D02*
D03*
Y240483D02*
D03*
Y244421D02*
D03*
Y252294D02*
D03*
Y260169D02*
D03*
Y268042D02*
D03*
Y275917D02*
D03*
Y279854D02*
D03*
Y287728D02*
D03*
Y291665D02*
D03*
Y295602D02*
D03*
Y299539D02*
D03*
Y303476D02*
D03*
Y307413D02*
D03*
Y311350D02*
D03*
Y315287D02*
D03*
Y319224D02*
D03*
X-302928Y193239D02*
D03*
Y197176D02*
D03*
Y201113D02*
D03*
Y205050D02*
D03*
Y208987D02*
D03*
Y216861D02*
D03*
Y220798D02*
D03*
Y224735D02*
D03*
Y228672D02*
D03*
Y232610D02*
D03*
Y236546D02*
D03*
Y240483D02*
D03*
Y244421D02*
D03*
Y248358D02*
D03*
Y256231D02*
D03*
Y264106D02*
D03*
Y271979D02*
D03*
Y275917D02*
D03*
Y279854D02*
D03*
Y283790D02*
D03*
Y287728D02*
D03*
Y291665D02*
D03*
Y295602D02*
D03*
Y299539D02*
D03*
Y303476D02*
D03*
Y307413D02*
D03*
Y315287D02*
D03*
Y319224D02*
D03*
Y323161D02*
D03*
X-306865Y193239D02*
D03*
Y197176D02*
D03*
Y205050D02*
D03*
Y208987D02*
D03*
Y212924D02*
D03*
Y216861D02*
D03*
Y220798D02*
D03*
Y224735D02*
D03*
Y228672D02*
D03*
Y232610D02*
D03*
Y236546D02*
D03*
Y279854D02*
D03*
Y283790D02*
D03*
Y287728D02*
D03*
Y291665D02*
D03*
Y295602D02*
D03*
Y303476D02*
D03*
Y307413D02*
D03*
Y311350D02*
D03*
Y315287D02*
D03*
Y319224D02*
D03*
Y323161D02*
D03*
X-310802Y193239D02*
D03*
Y197176D02*
D03*
Y201113D02*
D03*
Y205050D02*
D03*
Y208987D02*
D03*
Y212924D02*
D03*
Y216861D02*
D03*
Y220798D02*
D03*
Y224735D02*
D03*
Y232610D02*
D03*
Y244421D02*
D03*
Y248358D02*
D03*
Y252294D02*
D03*
Y256231D02*
D03*
Y260169D02*
D03*
Y264106D02*
D03*
Y268042D02*
D03*
Y271979D02*
D03*
Y279854D02*
D03*
Y283790D02*
D03*
Y291665D02*
D03*
Y295602D02*
D03*
Y299539D02*
D03*
Y303476D02*
D03*
Y307413D02*
D03*
Y311350D02*
D03*
Y315287D02*
D03*
Y319224D02*
D03*
Y323161D02*
D03*
X-314739Y193239D02*
D03*
Y197176D02*
D03*
Y201113D02*
D03*
Y205050D02*
D03*
Y208987D02*
D03*
Y212924D02*
D03*
Y220798D02*
D03*
Y224735D02*
D03*
Y228672D02*
D03*
Y232610D02*
D03*
Y240483D02*
D03*
Y248358D02*
D03*
Y256231D02*
D03*
Y264106D02*
D03*
Y271979D02*
D03*
Y283790D02*
D03*
Y287728D02*
D03*
Y291665D02*
D03*
Y295602D02*
D03*
Y299539D02*
D03*
Y303476D02*
D03*
Y307413D02*
D03*
Y311350D02*
D03*
Y319224D02*
D03*
Y323161D02*
D03*
X-318676Y193239D02*
D03*
Y197176D02*
D03*
Y201113D02*
D03*
Y208987D02*
D03*
Y212924D02*
D03*
Y216861D02*
D03*
Y220798D02*
D03*
Y224735D02*
D03*
Y228672D02*
D03*
Y232610D02*
D03*
Y240483D02*
D03*
Y244421D02*
D03*
Y248358D02*
D03*
Y252294D02*
D03*
Y256231D02*
D03*
Y260169D02*
D03*
Y264106D02*
D03*
Y268042D02*
D03*
Y271979D02*
D03*
Y275917D02*
D03*
Y283790D02*
D03*
Y287728D02*
D03*
Y291665D02*
D03*
Y295602D02*
D03*
Y299539D02*
D03*
Y307413D02*
D03*
Y311350D02*
D03*
Y315287D02*
D03*
Y319224D02*
D03*
Y323161D02*
D03*
X-322613Y197176D02*
D03*
Y201113D02*
D03*
Y205050D02*
D03*
Y208987D02*
D03*
Y212924D02*
D03*
Y216861D02*
D03*
Y220798D02*
D03*
Y224735D02*
D03*
Y228672D02*
D03*
Y244421D02*
D03*
Y252294D02*
D03*
Y260169D02*
D03*
Y268042D02*
D03*
Y275917D02*
D03*
Y283790D02*
D03*
Y287728D02*
D03*
Y295602D02*
D03*
Y299539D02*
D03*
Y303476D02*
D03*
Y307413D02*
D03*
Y311350D02*
D03*
Y315287D02*
D03*
Y319224D02*
D03*
Y323161D02*
D03*
X-326550Y193239D02*
D03*
Y197176D02*
D03*
Y201113D02*
D03*
Y205050D02*
D03*
Y208987D02*
D03*
Y212924D02*
D03*
Y216861D02*
D03*
Y224735D02*
D03*
Y228672D02*
D03*
Y232610D02*
D03*
Y240483D02*
D03*
Y244421D02*
D03*
Y248358D02*
D03*
Y252294D02*
D03*
Y256231D02*
D03*
Y260169D02*
D03*
Y264106D02*
D03*
Y268042D02*
D03*
Y271979D02*
D03*
Y275917D02*
D03*
Y283790D02*
D03*
Y287728D02*
D03*
Y291665D02*
D03*
Y295602D02*
D03*
Y299539D02*
D03*
Y303476D02*
D03*
Y307413D02*
D03*
Y311350D02*
D03*
Y315287D02*
D03*
Y323161D02*
D03*
X-330487Y193239D02*
D03*
Y197176D02*
D03*
Y201113D02*
D03*
Y205050D02*
D03*
Y212924D02*
D03*
Y216861D02*
D03*
Y220798D02*
D03*
Y224735D02*
D03*
Y228672D02*
D03*
Y240483D02*
D03*
Y248358D02*
D03*
Y256231D02*
D03*
Y264106D02*
D03*
Y271979D02*
D03*
Y283790D02*
D03*
Y287728D02*
D03*
Y291665D02*
D03*
Y295602D02*
D03*
Y299539D02*
D03*
Y303476D02*
D03*
Y311350D02*
D03*
Y315287D02*
D03*
Y319224D02*
D03*
Y323161D02*
D03*
X-334424Y193239D02*
D03*
Y201113D02*
D03*
Y205050D02*
D03*
Y208987D02*
D03*
Y212924D02*
D03*
Y216861D02*
D03*
Y220798D02*
D03*
Y224735D02*
D03*
Y228672D02*
D03*
Y236546D02*
D03*
Y240483D02*
D03*
Y244421D02*
D03*
Y248358D02*
D03*
Y252294D02*
D03*
Y256231D02*
D03*
Y260169D02*
D03*
Y264106D02*
D03*
Y268042D02*
D03*
Y271979D02*
D03*
Y275917D02*
D03*
Y283790D02*
D03*
Y287728D02*
D03*
Y291665D02*
D03*
Y299539D02*
D03*
Y303476D02*
D03*
Y307413D02*
D03*
Y311350D02*
D03*
Y315287D02*
D03*
Y319224D02*
D03*
Y323161D02*
D03*
X-338361Y193239D02*
D03*
Y197176D02*
D03*
Y201113D02*
D03*
Y205050D02*
D03*
Y208987D02*
D03*
Y212924D02*
D03*
Y216861D02*
D03*
Y220798D02*
D03*
Y228672D02*
D03*
Y236546D02*
D03*
Y244421D02*
D03*
Y252294D02*
D03*
Y260169D02*
D03*
Y268042D02*
D03*
Y275917D02*
D03*
Y287728D02*
D03*
Y291665D02*
D03*
Y295602D02*
D03*
Y299539D02*
D03*
Y303476D02*
D03*
Y307413D02*
D03*
Y311350D02*
D03*
Y315287D02*
D03*
Y319224D02*
D03*
X-243872Y307413D02*
D03*
X-283243Y208987D02*
D03*
X-287179D02*
D03*
X-208439Y319224D02*
D03*
X-220250Y323161D02*
D03*
X-235998Y315287D02*
D03*
X-212376Y307413D02*
D03*
X-208439Y279854D02*
D03*
X-212376D02*
D03*
X-208439Y271979D02*
D03*
Y256231D02*
D03*
Y264106D02*
D03*
Y248358D02*
D03*
Y240483D02*
D03*
X-216313Y295602D02*
D03*
X-224187Y311350D02*
D03*
X-220250Y283790D02*
D03*
X-216313Y279854D02*
D03*
Y275917D02*
D03*
X-220250Y279854D02*
D03*
X-224187D02*
D03*
Y271979D02*
D03*
X-228124Y299539D02*
D03*
Y279854D02*
D03*
X-232061D02*
D03*
Y287728D02*
D03*
Y275917D02*
D03*
X-235998D02*
D03*
X-216313Y268042D02*
D03*
Y260169D02*
D03*
X-232061Y268042D02*
D03*
X-224187Y264106D02*
D03*
Y256231D02*
D03*
X-232061Y260169D02*
D03*
X-216313Y252294D02*
D03*
Y244421D02*
D03*
X-232061Y252294D02*
D03*
X-224187Y248358D02*
D03*
Y240483D02*
D03*
X-232061Y244421D02*
D03*
X-239935Y268042D02*
D03*
Y264106D02*
D03*
Y256231D02*
D03*
X-235998Y240483D02*
D03*
X-239935Y252294D02*
D03*
Y244421D02*
D03*
Y240483D02*
D03*
X-247810Y319224D02*
D03*
X-239935Y303476D02*
D03*
X-251747Y307413D02*
D03*
X-255683Y295602D02*
D03*
X-243872Y291665D02*
D03*
X-239935Y275917D02*
D03*
X-251747Y279854D02*
D03*
X-255683Y275917D02*
D03*
X-259620Y323161D02*
D03*
Y283790D02*
D03*
X-263558Y311350D02*
D03*
X-267495Y299539D02*
D03*
X-259620Y279854D02*
D03*
X-267495D02*
D03*
X-263558Y275917D02*
D03*
X-275368Y315287D02*
D03*
X-271431Y287728D02*
D03*
X-279306Y303476D02*
D03*
X-283243Y291665D02*
D03*
X-275368Y279854D02*
D03*
X-271431Y275917D02*
D03*
X-279306D02*
D03*
X-283243Y279854D02*
D03*
X-287179Y319224D02*
D03*
X-291116Y307413D02*
D03*
X-295054Y295602D02*
D03*
X-291116Y279854D02*
D03*
X-287179Y275917D02*
D03*
X-295054D02*
D03*
X-239935Y271979D02*
D03*
X-247810Y268042D02*
D03*
X-251747Y271979D02*
D03*
X-243872Y264106D02*
D03*
X-239935Y260169D02*
D03*
X-251747Y264106D02*
D03*
X-247810Y260169D02*
D03*
X-255683Y268042D02*
D03*
X-259620Y271979D02*
D03*
X-263558Y268042D02*
D03*
X-259620Y264106D02*
D03*
X-255683Y260169D02*
D03*
X-263558D02*
D03*
X-243872Y256231D02*
D03*
X-239935Y248358D02*
D03*
X-243872D02*
D03*
X-247810Y252294D02*
D03*
X-243872Y240483D02*
D03*
X-247810Y244421D02*
D03*
X-251747Y256231D02*
D03*
X-255683Y252294D02*
D03*
X-259620Y256231D02*
D03*
X-263558Y252294D02*
D03*
X-251747Y248358D02*
D03*
X-255683Y244421D02*
D03*
X-251747Y240483D02*
D03*
X-259620Y248358D02*
D03*
Y240483D02*
D03*
X-263558Y244421D02*
D03*
X-275368Y271979D02*
D03*
X-267495D02*
D03*
X-283243D02*
D03*
X-287179Y268042D02*
D03*
X-271431D02*
D03*
X-267495Y264106D02*
D03*
X-275368D02*
D03*
X-279306Y268042D02*
D03*
X-283243Y264106D02*
D03*
X-291116Y271979D02*
D03*
X-295054Y268042D02*
D03*
X-291116Y264106D02*
D03*
X-271431Y256231D02*
D03*
X-275368Y260169D02*
D03*
X-271431Y252294D02*
D03*
X-279306Y260169D02*
D03*
X-283243Y256231D02*
D03*
X-279306Y252294D02*
D03*
X-267495Y248358D02*
D03*
X-271431Y244421D02*
D03*
X-275368Y248358D02*
D03*
X-267495Y240483D02*
D03*
X-279306Y244421D02*
D03*
X-283243Y248358D02*
D03*
Y240483D02*
D03*
X-287179Y260169D02*
D03*
X-295054D02*
D03*
X-291116Y256231D02*
D03*
X-287179Y252294D02*
D03*
Y244421D02*
D03*
X-291116Y248358D02*
D03*
Y240483D02*
D03*
X-295054Y252294D02*
D03*
Y244421D02*
D03*
X-216313Y236546D02*
D03*
X-220250D02*
D03*
X-224187D02*
D03*
X-208439Y232610D02*
D03*
X-212376D02*
D03*
X-216313D02*
D03*
X-224187D02*
D03*
X-232061Y236546D02*
D03*
X-228124D02*
D03*
X-235998D02*
D03*
X-243872Y232610D02*
D03*
X-232061Y228672D02*
D03*
X-208439Y220798D02*
D03*
X-212376Y208987D02*
D03*
X-216313Y197176D02*
D03*
X-220250Y224735D02*
D03*
X-224187Y212924D02*
D03*
X-235998Y216861D02*
D03*
X-247810Y220798D02*
D03*
X-239935Y205050D02*
D03*
X-228124Y201113D02*
D03*
X-243872Y193239D02*
D03*
X-255683Y236546D02*
D03*
X-263558D02*
D03*
X-259620Y224735D02*
D03*
X-275368Y240483D02*
D03*
X-271431Y236546D02*
D03*
X-279306D02*
D03*
X-287179D02*
D03*
X-295054D02*
D03*
X-283243Y232610D02*
D03*
X-271431Y228672D02*
D03*
X-287179Y220798D02*
D03*
X-251747Y208987D02*
D03*
X-263558Y212924D02*
D03*
X-267495Y201113D02*
D03*
X-255683Y197176D02*
D03*
X-275368Y216861D02*
D03*
X-279306Y205050D02*
D03*
X-291116Y208987D02*
D03*
X-295054Y197176D02*
D03*
X-283243Y193239D02*
D03*
X-298991Y323161D02*
D03*
X-302928Y311350D02*
D03*
X-314739Y315287D02*
D03*
X-318676Y303476D02*
D03*
X-326550Y319224D02*
D03*
X-330487Y307413D02*
D03*
X-306865Y299539D02*
D03*
X-310802Y287728D02*
D03*
X-298991Y283790D02*
D03*
X-314739Y279854D02*
D03*
X-306865Y275917D02*
D03*
X-310802D02*
D03*
X-314739D02*
D03*
X-322613Y291665D02*
D03*
X-334424Y295602D02*
D03*
X-318676Y279854D02*
D03*
X-322613D02*
D03*
X-330487D02*
D03*
X-326550D02*
D03*
X-334424D02*
D03*
X-330487Y275917D02*
D03*
X-338361Y323161D02*
D03*
Y283790D02*
D03*
Y279854D02*
D03*
X-298991Y271979D02*
D03*
X-302928Y268042D02*
D03*
X-298991Y264106D02*
D03*
X-306865Y268042D02*
D03*
X-298991Y256231D02*
D03*
X-302928Y260169D02*
D03*
Y252294D02*
D03*
X-306865Y260169D02*
D03*
Y271979D02*
D03*
Y264106D02*
D03*
X-314739Y268042D02*
D03*
X-306865Y256231D02*
D03*
Y252294D02*
D03*
X-314739Y260169D02*
D03*
X-298991Y248358D02*
D03*
X-306865D02*
D03*
Y244421D02*
D03*
X-298991Y224735D02*
D03*
X-302928Y212924D02*
D03*
X-306865Y240483D02*
D03*
X-314739Y244421D02*
D03*
X-310802Y240483D02*
D03*
X-314739Y252294D02*
D03*
X-310802Y236546D02*
D03*
Y228672D02*
D03*
X-314739Y236546D02*
D03*
X-318676D02*
D03*
X-314739Y216861D02*
D03*
X-322613Y271979D02*
D03*
X-330487Y268042D02*
D03*
X-322613Y264106D02*
D03*
X-330487Y260169D02*
D03*
X-338361Y271979D02*
D03*
Y264106D02*
D03*
X-322613Y256231D02*
D03*
Y248358D02*
D03*
Y240483D02*
D03*
X-330487Y252294D02*
D03*
Y244421D02*
D03*
X-338361Y248358D02*
D03*
Y256231D02*
D03*
Y240483D02*
D03*
X-322613Y236546D02*
D03*
X-326550D02*
D03*
X-322613Y232610D02*
D03*
X-330487Y236546D02*
D03*
Y232610D02*
D03*
X-326550Y220798D02*
D03*
X-330487Y208987D02*
D03*
X-334424Y232610D02*
D03*
X-338361D02*
D03*
Y224735D02*
D03*
X-318676Y205050D02*
D03*
X-306865Y201113D02*
D03*
X-334424Y197176D02*
D03*
X-322613Y193239D02*
D03*
D542*
X-294035Y379332D02*
D03*
X-290885D02*
D03*
X-278287D02*
D03*
X-271988D02*
D03*
X-290885Y382481D02*
D03*
X-278287D02*
D03*
X-271988D02*
D03*
X-297184Y385631D02*
D03*
X-294035D02*
D03*
X-290885D02*
D03*
X-278287D02*
D03*
X-275137D02*
D03*
X-294035Y388781D02*
D03*
X-290885D02*
D03*
X-278287D02*
D03*
X-297184Y391930D02*
D03*
X-294035D02*
D03*
X-290885D02*
D03*
X-278287D02*
D03*
X-275137D02*
D03*
X-271988D02*
D03*
X-297184Y395080D02*
D03*
X-290885D02*
D03*
X-278287D02*
D03*
X-271988D02*
D03*
X-297184Y398230D02*
D03*
X-294035D02*
D03*
X-290885D02*
D03*
X-278287D02*
D03*
X-275137D02*
D03*
X-271988D02*
D03*
X-297184Y401379D02*
D03*
X-294035D02*
D03*
X-290885D02*
D03*
X-278287D02*
D03*
X-275137D02*
D03*
X-271988D02*
D03*
X-294035Y404529D02*
D03*
X-290885D02*
D03*
X-278287D02*
D03*
X-275137D02*
D03*
X-297184Y407678D02*
D03*
X-294035D02*
D03*
X-290885D02*
D03*
X-278287D02*
D03*
X-275137D02*
D03*
X-271988D02*
D03*
X-294035Y410828D02*
D03*
X-290885D02*
D03*
X-278287D02*
D03*
X-275137D02*
D03*
X-297184Y413977D02*
D03*
X-294035D02*
D03*
X-290885D02*
D03*
X-278287D02*
D03*
X-275137D02*
D03*
X-271988D02*
D03*
X-294035Y417127D02*
D03*
X-290885D02*
D03*
X-278287D02*
D03*
X-275137D02*
D03*
X-271988Y404529D02*
D03*
Y388781D02*
D03*
Y410828D02*
D03*
Y417127D02*
D03*
X-275137Y395080D02*
D03*
Y388781D02*
D03*
X-271988Y385631D02*
D03*
X-294035Y395080D02*
D03*
X-297184Y417127D02*
D03*
Y404529D02*
D03*
Y410828D02*
D03*
Y388781D02*
D03*
X-275137Y379332D02*
D03*
Y382481D02*
D03*
X-294035D02*
D03*
X-297184D02*
D03*
Y379332D02*
D03*
X-165787Y379383D02*
D03*
X-162637D02*
D03*
X-150039D02*
D03*
X-143739D02*
D03*
X-162637Y382532D02*
D03*
X-150039D02*
D03*
X-143739D02*
D03*
X-168936Y385682D02*
D03*
X-165787D02*
D03*
X-162637D02*
D03*
X-150039D02*
D03*
X-146889D02*
D03*
X-165787Y388832D02*
D03*
X-162637D02*
D03*
X-150039D02*
D03*
X-168936Y391981D02*
D03*
X-165787D02*
D03*
X-162637D02*
D03*
X-150039D02*
D03*
X-146889D02*
D03*
X-143739D02*
D03*
X-168936Y395131D02*
D03*
X-162637D02*
D03*
X-150039D02*
D03*
X-143739D02*
D03*
X-168936Y398280D02*
D03*
X-165787D02*
D03*
X-162637D02*
D03*
X-150039D02*
D03*
X-146889D02*
D03*
X-143739D02*
D03*
X-168936Y401430D02*
D03*
X-165787D02*
D03*
X-162637D02*
D03*
X-150039D02*
D03*
X-146889D02*
D03*
X-143739D02*
D03*
X-165787Y404580D02*
D03*
X-162637D02*
D03*
X-150039D02*
D03*
X-146889D02*
D03*
X-168936Y407729D02*
D03*
X-165787D02*
D03*
X-162637D02*
D03*
X-150039D02*
D03*
X-146889D02*
D03*
X-143739D02*
D03*
X-165787Y410879D02*
D03*
X-162637D02*
D03*
X-150039D02*
D03*
X-146889D02*
D03*
X-168936Y414028D02*
D03*
X-165787D02*
D03*
X-162637D02*
D03*
X-150039D02*
D03*
X-146889D02*
D03*
X-143739D02*
D03*
X-165787Y417178D02*
D03*
X-162637D02*
D03*
X-150039D02*
D03*
X-146889D02*
D03*
X-143739D02*
D03*
Y410879D02*
D03*
Y404580D02*
D03*
Y388832D02*
D03*
X-168936Y410879D02*
D03*
Y417178D02*
D03*
X-165787Y395131D02*
D03*
X-146889D02*
D03*
Y388832D02*
D03*
X-168936D02*
D03*
Y404580D02*
D03*
X-143739Y385682D02*
D03*
X-146889Y382532D02*
D03*
X-165787D02*
D03*
X-168936D02*
D03*
X-146889Y379383D02*
D03*
X-168936D02*
D03*
X-208503Y379384D02*
D03*
X-205353D02*
D03*
X-192754D02*
D03*
X-186455D02*
D03*
X-205353Y382534D02*
D03*
X-192754D02*
D03*
X-186455D02*
D03*
X-211652Y385683D02*
D03*
X-208503D02*
D03*
X-205353D02*
D03*
X-192754D02*
D03*
X-189605D02*
D03*
X-208503Y388833D02*
D03*
X-205353D02*
D03*
X-192754D02*
D03*
X-211652Y391983D02*
D03*
X-208503D02*
D03*
X-205353D02*
D03*
X-192754D02*
D03*
X-189605D02*
D03*
X-186455D02*
D03*
X-211652Y395132D02*
D03*
X-205353D02*
D03*
X-192754D02*
D03*
X-186455D02*
D03*
X-211652Y398282D02*
D03*
X-208503D02*
D03*
X-205353D02*
D03*
X-192754D02*
D03*
X-189605D02*
D03*
X-186455D02*
D03*
X-211652Y401432D02*
D03*
X-208503D02*
D03*
X-205353D02*
D03*
X-192754D02*
D03*
X-189605D02*
D03*
X-186455D02*
D03*
X-208503Y404581D02*
D03*
X-205353D02*
D03*
X-192754D02*
D03*
X-189605D02*
D03*
X-211652Y407731D02*
D03*
X-208503D02*
D03*
X-205353D02*
D03*
X-192754D02*
D03*
X-189605D02*
D03*
X-186455D02*
D03*
X-208503Y410880D02*
D03*
X-205353D02*
D03*
X-192754D02*
D03*
X-189605D02*
D03*
X-211652Y414030D02*
D03*
X-208503D02*
D03*
X-205353D02*
D03*
X-192754D02*
D03*
X-189605D02*
D03*
X-186455D02*
D03*
X-208503Y417180D02*
D03*
X-205353D02*
D03*
X-192754D02*
D03*
X-189605D02*
D03*
X-186455D02*
D03*
Y404581D02*
D03*
Y410880D02*
D03*
X-211652Y417180D02*
D03*
Y404581D02*
D03*
Y410880D02*
D03*
X-186455Y388833D02*
D03*
X-208503Y395132D02*
D03*
X-189605D02*
D03*
Y388833D02*
D03*
X-211652D02*
D03*
X-186455Y385683D02*
D03*
X-189605Y379384D02*
D03*
X-208503Y382534D02*
D03*
X-189605D02*
D03*
X-211652D02*
D03*
Y379384D02*
D03*
X-251086Y379335D02*
D03*
X-247936D02*
D03*
X-235338D02*
D03*
X-229039D02*
D03*
X-247936Y382485D02*
D03*
X-235338D02*
D03*
X-229039D02*
D03*
X-254235Y385635D02*
D03*
X-251086D02*
D03*
X-247936D02*
D03*
X-235338D02*
D03*
X-232188D02*
D03*
X-251086Y388784D02*
D03*
X-247936D02*
D03*
X-235338D02*
D03*
X-254235Y391934D02*
D03*
X-251086D02*
D03*
X-247936D02*
D03*
X-235338D02*
D03*
X-232188D02*
D03*
X-229039D02*
D03*
X-254235Y395083D02*
D03*
X-247936D02*
D03*
X-235338D02*
D03*
X-229039D02*
D03*
X-254235Y398233D02*
D03*
X-251086D02*
D03*
X-247936D02*
D03*
X-235338D02*
D03*
X-232188D02*
D03*
X-229039D02*
D03*
X-254235Y401383D02*
D03*
X-251086D02*
D03*
X-247936D02*
D03*
X-235338D02*
D03*
X-232188D02*
D03*
X-229039D02*
D03*
X-251086Y404532D02*
D03*
X-247936D02*
D03*
X-235338D02*
D03*
X-232188D02*
D03*
X-254235Y407682D02*
D03*
X-251086D02*
D03*
X-247936D02*
D03*
X-235338D02*
D03*
X-232188D02*
D03*
X-229039D02*
D03*
X-251086Y410831D02*
D03*
X-247936D02*
D03*
X-235338D02*
D03*
X-232188D02*
D03*
X-254235Y413981D02*
D03*
X-251086D02*
D03*
X-247936D02*
D03*
X-235338D02*
D03*
X-232188D02*
D03*
X-229039D02*
D03*
X-251086Y417131D02*
D03*
X-247936D02*
D03*
X-235338D02*
D03*
X-232188D02*
D03*
X-229039Y410831D02*
D03*
Y417131D02*
D03*
Y404532D02*
D03*
X-232188Y395083D02*
D03*
X-229039Y388784D02*
D03*
X-232188D02*
D03*
X-229039Y385635D02*
D03*
X-232188Y382485D02*
D03*
Y379335D02*
D03*
X-251086Y395083D02*
D03*
X-254235Y417131D02*
D03*
Y410831D02*
D03*
Y404532D02*
D03*
Y388784D02*
D03*
X-251086Y382485D02*
D03*
X-254235D02*
D03*
Y379335D02*
D03*
D709*
X-43678Y-36191D02*
D03*
X-43678Y-34026D02*
D03*
X-65627Y-36191D02*
D03*
X-65627Y-34026D02*
D03*
X-96290Y-36026D02*
D03*
X-96290Y-38191D02*
D03*
X-74341Y-36026D02*
D03*
X-74341Y-38191D02*
D03*
D710*
X-63413Y-35109D02*
D03*
D03*
X-45893Y-35109D02*
D03*
X-76556Y-37109D02*
D03*
X-94076Y-37108D02*
D03*
D03*
D711*
X-54653Y-35109D02*
D03*
X-85316Y-37109D02*
D03*
D712*
X-584350Y-132382D02*
D03*
X-591634D02*
D03*
Y-119980D02*
D03*
X-584350D02*
D03*
D713*
X-42717Y-71358D02*
D03*
Y-78839D02*
D03*
X-32480D02*
D03*
Y-71358D02*
D03*
Y-75098D02*
D03*
X-42717D02*
D03*
X-26282Y36760D02*
D03*
Y44240D02*
D03*
X-36518D02*
D03*
Y36760D02*
D03*
X-26282Y40500D02*
D03*
X-36518D02*
D03*
D714*
X-47660Y166272D02*
D03*
X-55140D02*
D03*
X-51400Y175328D02*
D03*
D715*
X-159700Y187160D02*
D03*
Y194640D02*
D03*
X-147889D02*
D03*
Y190900D02*
D03*
Y187160D02*
D03*
X-159700Y190900D02*
D03*
D716*
X-153795D02*
D03*
D717*
X-216142Y70374D02*
D03*
Y68405D02*
D03*
Y66437D02*
D03*
Y64468D02*
D03*
Y62500D02*
D03*
Y60532D02*
D03*
Y58563D02*
D03*
Y56595D02*
D03*
Y54626D02*
D03*
Y52658D02*
D03*
Y50689D02*
D03*
X-197244D02*
D03*
Y52658D02*
D03*
Y54626D02*
D03*
Y56595D02*
D03*
Y58563D02*
D03*
Y60532D02*
D03*
Y62500D02*
D03*
Y64468D02*
D03*
Y66437D02*
D03*
Y68405D02*
D03*
Y70374D02*
D03*
D718*
X-206693Y60532D02*
D03*
D719*
X-295800Y-46412D02*
D03*
Y-30412D02*
D03*
X-300800D02*
D03*
X-305800D02*
D03*
X-310800Y-46412D02*
D03*
Y-30412D02*
D03*
X-315800D02*
D03*
X-320800D02*
D03*
X-325800D02*
D03*
X-330800D02*
D03*
X-335800D02*
D03*
X-340800Y-46412D02*
D03*
Y-30412D02*
D03*
X-300800Y-46412D02*
D03*
X-305800D02*
D03*
X-315800D02*
D03*
X-320800D02*
D03*
X-325800D02*
D03*
X-330800D02*
D03*
X-335800D02*
D03*
D720*
X-458868Y107067D02*
D03*
Y97067D02*
D03*
Y92067D02*
D03*
Y82067D02*
D03*
Y77067D02*
D03*
Y67067D02*
D03*
Y62067D02*
D03*
Y37067D02*
D03*
Y32067D02*
D03*
Y22067D02*
D03*
Y17067D02*
D03*
Y7067D02*
D03*
Y2067D02*
D03*
Y-7933D02*
D03*
Y-12933D02*
D03*
Y-22933D02*
D03*
Y-27933D02*
D03*
Y-37933D02*
D03*
Y-42933D02*
D03*
Y-52933D02*
D03*
Y-57933D02*
D03*
Y-67933D02*
D03*
Y-72933D02*
D03*
Y-87933D02*
D03*
X-453868Y102067D02*
D03*
Y92067D02*
D03*
Y87067D02*
D03*
Y77067D02*
D03*
Y72067D02*
D03*
Y62067D02*
D03*
Y57067D02*
D03*
Y47067D02*
D03*
Y42067D02*
D03*
Y32067D02*
D03*
Y27067D02*
D03*
Y17067D02*
D03*
Y12067D02*
D03*
Y2067D02*
D03*
Y-2933D02*
D03*
Y-12933D02*
D03*
Y-17933D02*
D03*
Y-27933D02*
D03*
Y-32933D02*
D03*
Y-42933D02*
D03*
Y-47933D02*
D03*
Y-57933D02*
D03*
Y-62933D02*
D03*
Y-82933D02*
D03*
X-448868Y107067D02*
D03*
Y97067D02*
D03*
Y92067D02*
D03*
Y82067D02*
D03*
Y77067D02*
D03*
Y67067D02*
D03*
Y62067D02*
D03*
Y52067D02*
D03*
Y47067D02*
D03*
Y37067D02*
D03*
Y32067D02*
D03*
Y22067D02*
D03*
Y17067D02*
D03*
Y7067D02*
D03*
Y2067D02*
D03*
Y-7933D02*
D03*
Y-12933D02*
D03*
Y-22933D02*
D03*
Y-27933D02*
D03*
Y-37933D02*
D03*
Y-42933D02*
D03*
Y-52933D02*
D03*
Y-57933D02*
D03*
Y-67933D02*
D03*
Y-72933D02*
D03*
Y-82933D02*
D03*
Y-87933D02*
D03*
X-443868Y102067D02*
D03*
Y92067D02*
D03*
Y87067D02*
D03*
Y77067D02*
D03*
Y72067D02*
D03*
Y62067D02*
D03*
Y57067D02*
D03*
Y47067D02*
D03*
Y42067D02*
D03*
Y32067D02*
D03*
Y27067D02*
D03*
Y17067D02*
D03*
Y12067D02*
D03*
Y2067D02*
D03*
Y-2933D02*
D03*
Y-12933D02*
D03*
Y-17933D02*
D03*
Y-27933D02*
D03*
Y-32933D02*
D03*
Y-42933D02*
D03*
Y-47933D02*
D03*
Y-57933D02*
D03*
Y-62933D02*
D03*
Y-82933D02*
D03*
X-438868Y107067D02*
D03*
Y97067D02*
D03*
Y92067D02*
D03*
Y82067D02*
D03*
Y77067D02*
D03*
Y67067D02*
D03*
Y62067D02*
D03*
Y52067D02*
D03*
Y47067D02*
D03*
Y37067D02*
D03*
Y32067D02*
D03*
Y22067D02*
D03*
Y17067D02*
D03*
Y7067D02*
D03*
Y2067D02*
D03*
Y-7933D02*
D03*
Y-12933D02*
D03*
Y-22933D02*
D03*
Y-27933D02*
D03*
Y-37933D02*
D03*
Y-42933D02*
D03*
Y-52933D02*
D03*
Y-57933D02*
D03*
Y-67933D02*
D03*
Y-72933D02*
D03*
Y-87933D02*
D03*
X-433868Y102067D02*
D03*
Y92067D02*
D03*
Y87067D02*
D03*
Y77067D02*
D03*
Y72067D02*
D03*
Y62067D02*
D03*
Y57067D02*
D03*
Y47067D02*
D03*
Y42067D02*
D03*
Y32067D02*
D03*
Y27067D02*
D03*
Y17067D02*
D03*
Y12067D02*
D03*
Y2067D02*
D03*
Y-2933D02*
D03*
Y-12933D02*
D03*
Y-17933D02*
D03*
Y-27933D02*
D03*
Y-32933D02*
D03*
Y-42933D02*
D03*
Y-47933D02*
D03*
Y-57933D02*
D03*
Y-62933D02*
D03*
Y-77933D02*
D03*
Y-82933D02*
D03*
X-428868Y107067D02*
D03*
Y97067D02*
D03*
Y87067D02*
D03*
Y77067D02*
D03*
Y72067D02*
D03*
Y67067D02*
D03*
Y62067D02*
D03*
Y57067D02*
D03*
Y52067D02*
D03*
Y42067D02*
D03*
Y37067D02*
D03*
Y27067D02*
D03*
Y22067D02*
D03*
Y12067D02*
D03*
Y7067D02*
D03*
Y-2933D02*
D03*
Y-7933D02*
D03*
Y-17933D02*
D03*
Y-22933D02*
D03*
Y-32933D02*
D03*
Y-37933D02*
D03*
Y-47933D02*
D03*
Y-52933D02*
D03*
Y-67933D02*
D03*
Y-72933D02*
D03*
Y-87933D02*
D03*
X-423868Y102067D02*
D03*
Y92067D02*
D03*
Y82067D02*
D03*
Y77067D02*
D03*
Y62067D02*
D03*
Y57067D02*
D03*
Y42067D02*
D03*
Y37067D02*
D03*
Y22067D02*
D03*
Y17067D02*
D03*
Y2067D02*
D03*
Y-2933D02*
D03*
Y-17933D02*
D03*
Y-22933D02*
D03*
Y-37933D02*
D03*
Y-42933D02*
D03*
Y-57933D02*
D03*
Y-62933D02*
D03*
Y-77933D02*
D03*
Y-82933D02*
D03*
X-413868Y102067D02*
D03*
Y97067D02*
D03*
Y82067D02*
D03*
Y77067D02*
D03*
Y62067D02*
D03*
Y57067D02*
D03*
Y42067D02*
D03*
Y37067D02*
D03*
Y22067D02*
D03*
Y17067D02*
D03*
Y2067D02*
D03*
Y-2933D02*
D03*
Y-17933D02*
D03*
Y-22933D02*
D03*
Y-37933D02*
D03*
Y-42933D02*
D03*
Y-57933D02*
D03*
Y-62933D02*
D03*
Y-77933D02*
D03*
Y-82933D02*
D03*
X-418868Y-87933D02*
D03*
Y-72933D02*
D03*
Y-67933D02*
D03*
Y-52933D02*
D03*
Y-47933D02*
D03*
Y-32933D02*
D03*
Y-27933D02*
D03*
Y-12933D02*
D03*
Y-7933D02*
D03*
Y7067D02*
D03*
Y12067D02*
D03*
Y27067D02*
D03*
Y32067D02*
D03*
Y47067D02*
D03*
Y52067D02*
D03*
Y67067D02*
D03*
Y72067D02*
D03*
Y87067D02*
D03*
Y92067D02*
D03*
Y107067D02*
D03*
X-453868Y-77933D02*
D03*
X-443868D02*
D03*
X-458868Y47067D02*
D03*
Y52067D02*
D03*
X-413868Y107067D02*
D03*
Y92067D02*
D03*
Y87067D02*
D03*
Y67067D02*
D03*
Y52067D02*
D03*
Y27067D02*
D03*
Y47067D02*
D03*
Y32067D02*
D03*
Y72067D02*
D03*
X-418868Y102067D02*
D03*
Y97067D02*
D03*
X-423868Y107067D02*
D03*
Y97067D02*
D03*
X-428868Y102067D02*
D03*
X-433868Y107067D02*
D03*
X-438868Y102067D02*
D03*
X-433868Y97067D02*
D03*
X-443868Y107067D02*
D03*
Y97067D02*
D03*
X-418868Y62067D02*
D03*
Y77067D02*
D03*
Y82067D02*
D03*
X-423868Y87067D02*
D03*
X-428868Y92067D02*
D03*
X-423868Y72067D02*
D03*
Y67067D02*
D03*
X-418868Y57067D02*
D03*
Y42067D02*
D03*
Y37067D02*
D03*
X-423868Y52067D02*
D03*
Y47067D02*
D03*
X-428868D02*
D03*
X-423868Y32067D02*
D03*
Y27067D02*
D03*
X-428868Y82067D02*
D03*
X-433868D02*
D03*
X-438868Y87067D02*
D03*
X-433868Y67067D02*
D03*
X-438868Y72067D02*
D03*
Y57067D02*
D03*
X-443868Y67067D02*
D03*
Y82067D02*
D03*
X-433868Y52067D02*
D03*
X-438868Y42067D02*
D03*
X-433868Y37067D02*
D03*
X-428868Y32067D02*
D03*
X-438868Y27067D02*
D03*
X-443868Y52067D02*
D03*
Y37067D02*
D03*
X-413868Y12067D02*
D03*
Y7067D02*
D03*
X-418868Y22067D02*
D03*
Y17067D02*
D03*
Y2067D02*
D03*
Y-2933D02*
D03*
X-423868Y7067D02*
D03*
X-413868Y-12933D02*
D03*
Y-7933D02*
D03*
Y-27933D02*
D03*
Y-32933D02*
D03*
X-418868Y-17933D02*
D03*
Y-22933D02*
D03*
X-423868Y-12933D02*
D03*
Y-27933D02*
D03*
X-428868Y17067D02*
D03*
X-423868Y12067D02*
D03*
X-433868Y22067D02*
D03*
Y7067D02*
D03*
X-423868Y-7933D02*
D03*
X-428868Y2067D02*
D03*
X-433868Y-7933D02*
D03*
X-443868Y22067D02*
D03*
X-438868Y12067D02*
D03*
Y-2933D02*
D03*
X-443868Y7067D02*
D03*
Y-7933D02*
D03*
X-428868Y-12933D02*
D03*
X-423868Y-32933D02*
D03*
X-428868Y-27933D02*
D03*
X-433868Y-22933D02*
D03*
X-438868Y-17933D02*
D03*
X-443868Y-22933D02*
D03*
X-438868Y-32933D02*
D03*
X-413868Y-47933D02*
D03*
Y-52933D02*
D03*
X-418868Y-42933D02*
D03*
Y-37933D02*
D03*
X-423868Y-52933D02*
D03*
Y-47933D02*
D03*
X-418868Y-57933D02*
D03*
Y-62933D02*
D03*
X-428868Y-57933D02*
D03*
X-413868Y-67933D02*
D03*
Y-72933D02*
D03*
X-418868Y-77933D02*
D03*
X-413868Y-87933D02*
D03*
X-418868Y-82933D02*
D03*
X-423868Y-72933D02*
D03*
Y-67933D02*
D03*
Y-87933D02*
D03*
X-428868Y-82933D02*
D03*
Y-42933D02*
D03*
X-433868Y-37933D02*
D03*
X-428868Y-62933D02*
D03*
X-433868Y-52933D02*
D03*
Y-67933D02*
D03*
X-438868Y-47933D02*
D03*
X-443868Y-37933D02*
D03*
X-438868Y-62933D02*
D03*
X-443868Y-52933D02*
D03*
X-428868Y-77933D02*
D03*
X-433868Y-72933D02*
D03*
Y-87933D02*
D03*
X-443868Y-72933D02*
D03*
Y-67933D02*
D03*
X-438868Y-77933D02*
D03*
Y-82933D02*
D03*
X-443868Y-87933D02*
D03*
X-448868Y102067D02*
D03*
X-453868Y107067D02*
D03*
Y97067D02*
D03*
X-448868Y87067D02*
D03*
Y72067D02*
D03*
X-453868Y82067D02*
D03*
X-458868Y102067D02*
D03*
Y87067D02*
D03*
Y72067D02*
D03*
X-453868Y67067D02*
D03*
X-448868Y57067D02*
D03*
X-458868D02*
D03*
X-453868Y52067D02*
D03*
X-448868Y42067D02*
D03*
X-458868D02*
D03*
X-448868Y27067D02*
D03*
X-453868Y37067D02*
D03*
Y22067D02*
D03*
X-448868Y-2933D02*
D03*
Y12067D02*
D03*
X-453868Y7067D02*
D03*
X-458868Y12067D02*
D03*
Y27067D02*
D03*
Y-2933D02*
D03*
X-448868Y-17933D02*
D03*
X-453868Y-7933D02*
D03*
Y-22933D02*
D03*
X-448868Y-47933D02*
D03*
Y-32933D02*
D03*
X-453868Y-37933D02*
D03*
X-458868Y-17933D02*
D03*
Y-32933D02*
D03*
Y-47933D02*
D03*
X-448868Y-62933D02*
D03*
X-453868Y-52933D02*
D03*
X-458868Y-62933D02*
D03*
X-453868Y-67933D02*
D03*
Y-72933D02*
D03*
X-458868Y-77933D02*
D03*
X-448868D02*
D03*
X-453868Y-87933D02*
D03*
X-458868Y-82933D02*
D03*
X-458868Y202658D02*
D03*
Y207658D02*
D03*
Y382658D02*
D03*
Y372658D02*
D03*
Y367658D02*
D03*
Y357658D02*
D03*
Y352658D02*
D03*
Y342658D02*
D03*
Y337658D02*
D03*
Y327658D02*
D03*
Y322658D02*
D03*
Y312658D02*
D03*
Y307658D02*
D03*
Y297658D02*
D03*
Y292658D02*
D03*
Y282658D02*
D03*
Y277658D02*
D03*
Y267658D02*
D03*
Y262658D02*
D03*
Y252658D02*
D03*
Y247658D02*
D03*
Y237658D02*
D03*
Y232658D02*
D03*
Y222658D02*
D03*
Y217658D02*
D03*
Y187658D02*
D03*
X-453868Y377658D02*
D03*
Y367658D02*
D03*
Y362658D02*
D03*
Y352658D02*
D03*
Y347658D02*
D03*
Y337658D02*
D03*
Y332658D02*
D03*
Y322658D02*
D03*
Y317658D02*
D03*
Y307658D02*
D03*
Y302658D02*
D03*
Y292658D02*
D03*
Y287658D02*
D03*
Y277658D02*
D03*
Y272658D02*
D03*
Y262658D02*
D03*
Y257658D02*
D03*
Y247658D02*
D03*
Y242658D02*
D03*
Y232658D02*
D03*
Y227658D02*
D03*
Y217658D02*
D03*
Y212658D02*
D03*
Y197658D02*
D03*
Y192658D02*
D03*
X-448868Y382658D02*
D03*
Y372658D02*
D03*
Y367658D02*
D03*
Y357658D02*
D03*
Y352658D02*
D03*
Y342658D02*
D03*
Y337658D02*
D03*
Y327658D02*
D03*
Y322658D02*
D03*
Y312658D02*
D03*
Y307658D02*
D03*
Y297658D02*
D03*
Y292658D02*
D03*
Y282658D02*
D03*
Y277658D02*
D03*
Y267658D02*
D03*
Y262658D02*
D03*
Y252658D02*
D03*
Y247658D02*
D03*
Y237658D02*
D03*
Y232658D02*
D03*
Y222658D02*
D03*
Y217658D02*
D03*
Y207658D02*
D03*
Y202658D02*
D03*
Y192658D02*
D03*
Y187658D02*
D03*
X-443868Y377658D02*
D03*
Y367658D02*
D03*
Y362658D02*
D03*
Y352658D02*
D03*
Y347658D02*
D03*
Y337658D02*
D03*
Y332658D02*
D03*
Y322658D02*
D03*
Y317658D02*
D03*
Y307658D02*
D03*
Y302658D02*
D03*
Y292658D02*
D03*
Y287658D02*
D03*
Y277658D02*
D03*
Y272658D02*
D03*
Y262658D02*
D03*
Y257658D02*
D03*
Y247658D02*
D03*
Y242658D02*
D03*
Y232658D02*
D03*
Y227658D02*
D03*
Y217658D02*
D03*
Y212658D02*
D03*
Y197658D02*
D03*
Y192658D02*
D03*
X-438868Y382658D02*
D03*
Y372658D02*
D03*
Y367658D02*
D03*
Y357658D02*
D03*
Y352658D02*
D03*
Y342658D02*
D03*
Y337658D02*
D03*
Y327658D02*
D03*
Y322658D02*
D03*
Y312658D02*
D03*
Y307658D02*
D03*
Y297658D02*
D03*
Y292658D02*
D03*
Y282658D02*
D03*
Y277658D02*
D03*
Y267658D02*
D03*
Y262658D02*
D03*
Y252658D02*
D03*
Y247658D02*
D03*
Y237658D02*
D03*
Y232658D02*
D03*
Y222658D02*
D03*
Y217658D02*
D03*
Y207658D02*
D03*
Y202658D02*
D03*
Y187658D02*
D03*
X-433868Y377658D02*
D03*
Y367658D02*
D03*
Y362658D02*
D03*
Y352658D02*
D03*
Y347658D02*
D03*
Y337658D02*
D03*
Y332658D02*
D03*
Y322658D02*
D03*
Y317658D02*
D03*
Y307658D02*
D03*
Y302658D02*
D03*
Y292658D02*
D03*
Y287658D02*
D03*
Y277658D02*
D03*
Y272658D02*
D03*
Y262658D02*
D03*
Y257658D02*
D03*
Y247658D02*
D03*
Y242658D02*
D03*
Y232658D02*
D03*
Y227658D02*
D03*
Y217658D02*
D03*
Y212658D02*
D03*
Y197658D02*
D03*
Y192658D02*
D03*
X-428868Y382658D02*
D03*
Y372658D02*
D03*
Y362658D02*
D03*
Y352658D02*
D03*
Y347658D02*
D03*
Y342658D02*
D03*
Y337658D02*
D03*
Y332658D02*
D03*
Y327658D02*
D03*
Y317658D02*
D03*
Y312658D02*
D03*
Y302658D02*
D03*
Y297658D02*
D03*
Y287658D02*
D03*
Y282658D02*
D03*
Y272658D02*
D03*
Y267658D02*
D03*
Y257658D02*
D03*
Y252658D02*
D03*
Y242658D02*
D03*
Y237658D02*
D03*
Y227658D02*
D03*
Y222658D02*
D03*
Y207658D02*
D03*
Y202658D02*
D03*
Y187658D02*
D03*
X-423868Y377658D02*
D03*
Y367658D02*
D03*
Y357658D02*
D03*
Y337658D02*
D03*
Y332658D02*
D03*
Y317658D02*
D03*
Y312658D02*
D03*
Y297658D02*
D03*
Y292658D02*
D03*
Y277658D02*
D03*
Y272658D02*
D03*
Y257658D02*
D03*
Y252658D02*
D03*
Y237658D02*
D03*
Y232658D02*
D03*
Y217658D02*
D03*
Y212658D02*
D03*
Y197658D02*
D03*
Y192658D02*
D03*
X-413868Y377658D02*
D03*
Y372658D02*
D03*
Y357658D02*
D03*
Y352658D02*
D03*
Y337658D02*
D03*
Y332658D02*
D03*
Y317658D02*
D03*
Y312658D02*
D03*
Y297658D02*
D03*
Y292658D02*
D03*
Y277658D02*
D03*
Y272658D02*
D03*
Y257658D02*
D03*
Y252658D02*
D03*
Y237658D02*
D03*
Y232658D02*
D03*
Y217658D02*
D03*
Y212658D02*
D03*
Y197658D02*
D03*
Y192658D02*
D03*
X-418868Y187658D02*
D03*
Y202658D02*
D03*
Y207658D02*
D03*
Y222658D02*
D03*
Y227658D02*
D03*
Y242658D02*
D03*
Y247658D02*
D03*
Y262658D02*
D03*
Y267658D02*
D03*
Y282658D02*
D03*
Y287658D02*
D03*
Y302658D02*
D03*
Y307658D02*
D03*
Y322658D02*
D03*
Y327658D02*
D03*
Y342658D02*
D03*
Y347658D02*
D03*
Y362658D02*
D03*
Y367658D02*
D03*
Y382658D02*
D03*
X-413868D02*
D03*
Y342658D02*
D03*
Y327658D02*
D03*
Y367658D02*
D03*
Y362658D02*
D03*
Y347658D02*
D03*
Y322658D02*
D03*
Y307658D02*
D03*
Y287658D02*
D03*
Y282658D02*
D03*
Y302658D02*
D03*
Y267658D02*
D03*
Y262658D02*
D03*
Y242658D02*
D03*
Y247658D02*
D03*
Y227658D02*
D03*
Y222658D02*
D03*
Y207658D02*
D03*
X-418868Y377658D02*
D03*
X-423868Y382658D02*
D03*
X-418868Y372658D02*
D03*
X-423868D02*
D03*
X-428868Y377658D02*
D03*
Y367658D02*
D03*
X-433868Y382658D02*
D03*
Y372658D02*
D03*
X-438868Y377658D02*
D03*
X-443868Y382658D02*
D03*
X-453868D02*
D03*
X-448868Y377658D02*
D03*
X-458868D02*
D03*
X-443868Y372658D02*
D03*
X-453868D02*
D03*
X-418868Y357658D02*
D03*
Y352658D02*
D03*
X-423868Y362658D02*
D03*
X-433868Y357658D02*
D03*
X-428868D02*
D03*
X-423868Y347658D02*
D03*
Y352658D02*
D03*
X-433868Y342658D02*
D03*
X-418868Y337658D02*
D03*
Y332658D02*
D03*
Y317658D02*
D03*
Y312658D02*
D03*
X-423868Y327658D02*
D03*
Y342658D02*
D03*
Y322658D02*
D03*
X-428868D02*
D03*
X-433868Y327658D02*
D03*
Y312658D02*
D03*
X-438868Y362658D02*
D03*
X-443868Y357658D02*
D03*
X-438868Y347658D02*
D03*
X-443868Y342658D02*
D03*
X-448868Y347658D02*
D03*
Y362658D02*
D03*
X-453868Y357658D02*
D03*
X-458868Y362658D02*
D03*
X-453868Y342658D02*
D03*
X-458868Y347658D02*
D03*
X-438868Y332658D02*
D03*
X-443868Y327658D02*
D03*
X-448868Y317658D02*
D03*
X-438868D02*
D03*
X-443868Y312658D02*
D03*
X-448868Y332658D02*
D03*
X-458868D02*
D03*
X-453868Y327658D02*
D03*
Y312658D02*
D03*
X-458868Y317658D02*
D03*
X-418868Y297658D02*
D03*
Y292658D02*
D03*
X-423868Y287658D02*
D03*
Y282658D02*
D03*
Y307658D02*
D03*
X-428868D02*
D03*
X-423868Y302658D02*
D03*
X-428868Y292658D02*
D03*
X-418868Y272658D02*
D03*
Y277658D02*
D03*
Y257658D02*
D03*
Y252658D02*
D03*
X-428868Y277658D02*
D03*
X-423868Y267658D02*
D03*
Y262658D02*
D03*
X-428868D02*
D03*
X-433868Y297658D02*
D03*
X-438868Y302658D02*
D03*
X-433868Y282658D02*
D03*
X-438868Y272658D02*
D03*
Y287658D02*
D03*
X-443868Y297658D02*
D03*
X-448868Y302658D02*
D03*
X-453868Y297658D02*
D03*
X-448868Y287658D02*
D03*
X-443868Y282658D02*
D03*
X-453868D02*
D03*
X-433868Y267658D02*
D03*
X-438868Y257658D02*
D03*
X-433868Y252658D02*
D03*
X-448868Y272658D02*
D03*
X-443868Y267658D02*
D03*
X-448868Y257658D02*
D03*
X-453868Y267658D02*
D03*
X-443868Y252658D02*
D03*
X-453868D02*
D03*
X-418868Y237658D02*
D03*
Y232658D02*
D03*
X-428868Y247658D02*
D03*
X-423868D02*
D03*
Y242658D02*
D03*
X-428868Y232658D02*
D03*
X-418868Y217658D02*
D03*
Y212658D02*
D03*
X-423868Y227658D02*
D03*
Y222658D02*
D03*
Y207658D02*
D03*
X-428868Y217658D02*
D03*
Y212658D02*
D03*
X-438868Y242658D02*
D03*
X-443868Y237658D02*
D03*
X-433868D02*
D03*
X-438868Y227658D02*
D03*
X-448868Y242658D02*
D03*
Y227658D02*
D03*
X-453868Y237658D02*
D03*
X-433868Y222658D02*
D03*
X-438868Y212658D02*
D03*
X-433868Y207658D02*
D03*
X-443868Y222658D02*
D03*
X-448868Y212658D02*
D03*
X-453868Y222658D02*
D03*
X-443868Y207658D02*
D03*
X-453868D02*
D03*
X-458868Y302658D02*
D03*
Y287658D02*
D03*
Y272658D02*
D03*
Y257658D02*
D03*
Y242658D02*
D03*
Y227658D02*
D03*
Y212658D02*
D03*
X-413868Y202658D02*
D03*
Y187658D02*
D03*
X-418868Y197658D02*
D03*
Y192658D02*
D03*
X-423868Y202658D02*
D03*
X-428868Y197658D02*
D03*
X-423868Y187658D02*
D03*
X-428868Y192658D02*
D03*
X-433868Y202658D02*
D03*
Y187658D02*
D03*
X-438868Y197658D02*
D03*
X-443868Y202658D02*
D03*
X-438868Y192658D02*
D03*
X-443868Y187658D02*
D03*
X-453868Y202658D02*
D03*
X-448868Y197658D02*
D03*
X-453868Y187658D02*
D03*
X-458868Y197658D02*
D03*
Y192658D02*
D03*
D721*
X-233263Y-103856D02*
D03*
X-316944Y-107793D02*
D03*
X-147436Y-74131D02*
D03*
D722*
X-369980Y-91535D02*
D03*
Y-67913D02*
D03*
Y-75787D02*
D03*
Y-83661D02*
D03*
Y-99410D02*
D03*
Y-107283D02*
D03*
Y-115157D02*
D03*
X-386713Y-67913D02*
D03*
Y-75787D02*
D03*
Y-83661D02*
D03*
Y-91535D02*
D03*
Y-99410D02*
D03*
Y-115157D02*
D03*
Y-107283D02*
D03*
D723*
X-200984Y-70866D02*
D03*
X-222835D02*
D03*
X-115157Y-41142D02*
D03*
X-137008D02*
D03*
X-284665Y-74803D02*
D03*
X-306516D02*
D03*
X-351267Y-75740D02*
D03*
X-329417D02*
D03*
X-159909Y-42079D02*
D03*
X-181759D02*
D03*
X-245736Y-71803D02*
D03*
X-267586D02*
D03*
D724*
X-141405Y58366D02*
D03*
X-183492D02*
D03*
D725*
X-283367Y-92153D02*
D03*
X-288367D02*
D03*
X-293367D02*
D03*
X-298367D02*
D03*
Y-114200D02*
D03*
X-293367D02*
D03*
X-288367D02*
D03*
X-283367D02*
D03*
X-172165Y-82087D02*
D03*
X-177165D02*
D03*
X-182165D02*
D03*
Y-60039D02*
D03*
X-177165D02*
D03*
X-172165D02*
D03*
X-167165D02*
D03*
Y-82087D02*
D03*
X-257992Y-111811D02*
D03*
X-262992D02*
D03*
X-267992D02*
D03*
Y-89764D02*
D03*
X-262992D02*
D03*
X-257992D02*
D03*
X-252992D02*
D03*
Y-111811D02*
D03*
X-204686Y-110263D02*
D03*
X-209686D02*
D03*
X-214686D02*
D03*
Y-88216D02*
D03*
X-209686D02*
D03*
X-204686D02*
D03*
X-199686D02*
D03*
Y-110263D02*
D03*
X-113859Y-58491D02*
D03*
X-118859D02*
D03*
X-123859D02*
D03*
X-128859D02*
D03*
X-123859Y-80538D02*
D03*
X-118859D02*
D03*
X-113859D02*
D03*
X-128859D02*
D03*
X-336667Y-92523D02*
D03*
X-341667D02*
D03*
X-346667D02*
D03*
X-351667D02*
D03*
Y-114570D02*
D03*
X-346667D02*
D03*
X-341667D02*
D03*
X-336667D02*
D03*
D726*
X-137300Y-112029D02*
D03*
Y-128171D02*
D03*
D727*
X-331239Y50400D02*
D03*
X-356435D02*
D03*
D728*
X-411708Y415200D02*
D03*
X-374700D02*
D03*
D732*
X-157972Y294980D02*
D03*
Y319390D02*
D03*
D733*
X-51575Y-129921D02*
D03*
X-689764Y-111417D02*
D03*
D734*
X-93261Y203412D02*
D03*
X-90426Y201033D02*
D03*
D735*
X-90426Y209984D02*
D03*
X-93261Y207605D02*
D03*
D737*
X-94724Y200131D02*
D03*
X-93458Y203608D02*
D03*
D738*
X-94724Y210886D02*
D03*
X-93458Y207408D02*
D03*
M02*
