G04*
G04 #@! TF.GenerationSoftware,Altium Limited,Altium Designer,26.9.1 (10)*
G04*
G04 Layer_Color=16711935*
G04 Board_Origin=228582677|171948819*
%FSLAX25Y25*%
%MOIN*%
G70*
G04*
G04 #@! TF.SameCoordinates,84DC684C-EFC5-4BD7-A683-AFA0F3D4E0F6*
G04*
G04*
G04 #@! TF.FilePolarity,Negative*
G04*
G01*
G75*
%ADD167O,0.03847X0.01602*%
%ADD168O,0.01602X0.03847*%
%ADD177R,0.04437X0.02862*%
%ADD192R,0.02468X0.04043*%
%ADD195R,0.02862X0.02862*%
%ADD196R,0.02941X0.02784*%
%ADD197R,0.02311X0.02153*%
%ADD198C,0.00072*%
%ADD199C,0.00063*%
%ADD200C,0.00129*%
%ADD236R,0.09161X0.06602*%
%ADD238R,0.09752X0.10146*%
%ADD240R,0.05028X0.11130*%
%ADD241R,0.07587X0.05028*%
%ADD242R,0.06012X0.04634*%
%ADD244R,0.04240X0.04437*%
%ADD245R,0.02941X0.02941*%
%ADD246R,0.02075X0.02272*%
%ADD247C,0.04437*%
%ADD248R,0.11130X0.04437*%
%ADD249R,0.12705X0.02390*%
%ADD250R,0.07193X0.02390*%
%ADD251R,0.05224X0.02390*%
%ADD252R,0.06701X0.02390*%
%ADD253R,0.05717X0.02390*%
%ADD254R,0.05028X0.07587*%
%ADD256R,0.03059X0.04634*%
%ADD257O,0.06406X0.02862*%
%ADD258R,0.02272X0.02075*%
%ADD259R,0.04043X0.04437*%
%ADD260R,0.02862X0.02862*%
%ADD263R,0.05028X0.07587*%
%ADD264R,0.02941X0.02941*%
%ADD265R,0.04437X0.04240*%
%ADD266R,0.04634X0.06012*%
%ADD270R,0.03650X0.03650*%
%ADD272R,0.03650X0.03650*%
%ADD276C,0.07874*%
%ADD281R,0.03492X0.06012*%
%ADD282R,0.08492X0.09516*%
%ADD283R,0.11130X0.05028*%
%ADD286R,0.09161X0.04634*%
%ADD287R,0.04634X0.04437*%
%ADD288R,0.02784X0.02941*%
%ADD289R,0.03453X0.02468*%
%ADD290R,0.06406X0.04437*%
%ADD296R,0.06012X0.12114*%
%ADD297R,0.12114X0.06012*%
%ADD299R,0.04437X0.11130*%
%ADD300C,0.08374*%
%ADD301C,0.04831*%
%ADD302C,0.20972*%
%ADD303C,0.15854*%
%ADD304C,0.02559*%
%ADD305C,0.03347*%
%ADD306C,0.06299*%
%ADD307C,0.08768*%
%ADD308C,0.07587*%
%ADD309C,0.20185*%
%ADD310C,0.02468*%
%ADD311C,0.09161*%
G04:AMPARAMS|DCode=312|XSize=53.23mil|YSize=79.8mil|CornerRadius=21.79mil|HoleSize=0mil|Usage=FLASHONLY|Rotation=270.000|XOffset=0mil|YOffset=0mil|HoleType=Round|Shape=RoundedRectangle|*
%AMROUNDEDRECTD312*
21,1,0.05323,0.03622,0,0,270.0*
21,1,0.00965,0.07980,0,0,270.0*
1,1,0.04358,-0.01811,-0.00482*
1,1,0.04358,-0.01811,0.00482*
1,1,0.04358,0.01811,0.00482*
1,1,0.04358,0.01811,-0.00482*
%
%ADD312ROUNDEDRECTD312*%
G04:AMPARAMS|DCode=313|XSize=46.34mil|YSize=54.21mil|CornerRadius=19.04mil|HoleSize=0mil|Usage=FLASHONLY|Rotation=270.000|XOffset=0mil|YOffset=0mil|HoleType=Round|Shape=RoundedRectangle|*
%AMROUNDEDRECTD313*
21,1,0.04634,0.01614,0,0,270.0*
21,1,0.00827,0.05421,0,0,270.0*
1,1,0.03807,-0.00807,-0.00413*
1,1,0.03807,-0.00807,0.00413*
1,1,0.03807,0.00807,0.00413*
1,1,0.03807,0.00807,-0.00413*
%
%ADD313ROUNDEDRECTD313*%
%ADD314C,0.13098*%
%ADD315O,0.44594X0.09161*%
%ADD725R,0.02559X0.06890*%
%ADD733P,0.05568X4X270.0*%
%ADD786C,0.00197*%
%ADD787R,5.82677X0.03969*%
%ADD788R,0.05500X0.05500*%
%ADD789R,0.16445X0.08571*%
%ADD790R,0.02075X0.03571*%
%ADD791R,0.03354X0.01406*%
%ADD792R,0.04240X0.02665*%
%ADD793R,0.05028X0.02468*%
%ADD794R,0.02862X0.04634*%
%ADD795R,0.06799X0.09949*%
%ADD796R,0.03453X0.02272*%
%ADD797R,0.13492X0.22350*%
%ADD798R,0.04240X0.01681*%
%ADD799R,0.03413X0.11484*%
%ADD800C,0.03020*%
%ADD801O,0.04095X0.01732*%
%ADD802R,0.10591X0.10591*%
%ADD803O,0.01732X0.04095*%
%ADD804R,0.11327X0.04437*%
%ADD805R,0.07783X0.13886*%
%ADD806R,0.14595X0.30500*%
%ADD807R,0.06602X0.09161*%
%ADD808R,0.09949X0.11524*%
%ADD809C,0.02075*%
G04:AMPARAMS|DCode=810|XSize=205.79mil|YSize=205.79mil|CornerRadius=52.7mil|HoleSize=0mil|Usage=FLASHONLY|Rotation=180.000|XOffset=0mil|YOffset=0mil|HoleType=Round|Shape=RoundedRectangle|*
%AMROUNDEDRECTD810*
21,1,0.20579,0.10039,0,0,180.0*
21,1,0.10039,0.20579,0,0,180.0*
1,1,0.10539,-0.05020,0.05020*
1,1,0.10539,0.05020,0.05020*
1,1,0.10539,0.05020,-0.05020*
1,1,0.10539,-0.05020,-0.05020*
%
%ADD810ROUNDEDRECTD810*%
%ADD811R,0.07587X0.20579*%
%ADD812R,0.08374X0.02390*%
%ADD813R,0.04043X0.02390*%
%ADD814R,0.10146X0.09752*%
G04:AMPARAMS|DCode=815|XSize=29.41mil|YSize=27.84mil|CornerRadius=0mil|HoleSize=0mil|Usage=FLASHONLY|Rotation=50.000|XOffset=0mil|YOffset=0mil|HoleType=Round|Shape=Rectangle|*
%AMROTATEDRECTD815*
4,1,4,0.00121,-0.02021,-0.02011,-0.00232,-0.00121,0.02021,0.02011,0.00232,0.00121,-0.02021,0.0*
%
%ADD815ROTATEDRECTD815*%

G04:AMPARAMS|DCode=816|XSize=29.41mil|YSize=27.84mil|CornerRadius=0mil|HoleSize=0mil|Usage=FLASHONLY|Rotation=130.000|XOffset=0mil|YOffset=0mil|HoleType=Round|Shape=Rectangle|*
%AMROTATEDRECTD816*
4,1,4,0.02011,-0.00232,-0.00121,-0.02021,-0.02011,0.00232,0.00121,0.02021,0.02011,-0.00232,0.0*
%
%ADD816ROTATEDRECTD816*%

%ADD817R,0.05500X0.05500*%
G04:AMPARAMS|DCode=818|XSize=29.41mil|YSize=27.84mil|CornerRadius=0mil|HoleSize=0mil|Usage=FLASHONLY|Rotation=340.000|XOffset=0mil|YOffset=0mil|HoleType=Round|Shape=Rectangle|*
%AMROTATEDRECTD818*
4,1,4,-0.01858,-0.00805,-0.00906,0.01811,0.01858,0.00805,0.00906,-0.01811,-0.01858,-0.00805,0.0*
%
%ADD818ROTATEDRECTD818*%

G04:AMPARAMS|DCode=819|XSize=29.41mil|YSize=27.84mil|CornerRadius=0mil|HoleSize=0mil|Usage=FLASHONLY|Rotation=200.000|XOffset=0mil|YOffset=0mil|HoleType=Round|Shape=Rectangle|*
%AMROTATEDRECTD819*
4,1,4,0.00906,0.01811,0.01858,-0.00805,-0.00906,-0.01811,-0.01858,0.00805,0.00906,0.01811,0.0*
%
%ADD819ROTATEDRECTD819*%

G36*
X-328543Y15748D02*
X-328543Y8563D01*
X-328740Y8366D01*
X-332283Y8366D01*
X-332480Y8563D01*
Y9803D01*
X-332677Y10000D01*
X-333858D01*
X-334055Y10197D01*
Y10787D01*
X-333858Y10984D01*
X-332677D01*
X-332480Y11181D01*
Y11772D01*
X-332677Y11969D01*
X-333858D01*
X-334055Y12165D01*
Y12756D01*
X-333858Y12953D01*
X-332677D01*
X-332480Y13150D01*
Y13740D01*
X-332677Y13937D01*
X-333858D01*
X-334055Y14134D01*
Y14724D01*
X-333858Y14921D01*
X-332677D01*
X-332480Y15118D01*
Y15748D01*
X-332283Y15945D01*
X-328740D01*
X-328543Y15748D01*
D02*
G37*
G36*
X-321063D02*
Y15118D01*
X-320866Y14921D01*
X-319685Y14921D01*
X-319488Y14724D01*
Y14134D01*
X-319685Y13937D01*
X-320866D01*
X-321063Y13740D01*
Y13150D01*
X-320866Y12953D01*
X-319685D01*
X-319488Y12756D01*
Y12165D01*
X-319685Y11969D01*
X-320866D01*
X-321063Y11772D01*
Y11181D01*
X-320866Y10984D01*
X-319685Y10984D01*
X-319488Y10787D01*
Y10197D01*
X-319685Y10000D01*
X-320866D01*
X-321063Y9803D01*
Y8563D01*
X-321260Y8366D01*
X-324803Y8366D01*
X-325000Y8563D01*
Y15748D01*
X-324803Y15945D01*
X-321260D01*
X-321063Y15748D01*
D02*
G37*
G36*
X-330709Y4331D02*
Y3740D01*
X-331102Y3347D01*
X-333858D01*
X-334252Y3740D01*
Y4331D01*
X-333858Y4724D01*
X-331102D01*
X-330709Y4331D01*
D02*
G37*
G36*
X-319488D02*
Y3740D01*
X-319685Y3543D01*
X-320866D01*
X-321063Y3347D01*
Y2756D01*
X-320866Y2559D01*
X-319685D01*
X-319488Y2362D01*
Y1772D01*
X-319685Y1575D01*
X-324016D01*
X-324213Y1772D01*
Y4331D01*
X-324016Y4528D01*
X-319685D01*
X-319488Y4331D01*
D02*
G37*
G36*
X-330709Y2362D02*
Y1772D01*
X-331102Y1378D01*
X-333858D01*
X-334252Y1772D01*
Y2362D01*
X-333858Y2756D01*
X-331102D01*
X-330709Y2362D01*
D02*
G37*
G36*
X-327461Y6789D02*
X-327067Y6396D01*
Y1575D01*
X-327461Y1181D01*
X-328051D01*
X-328445Y1575D01*
Y4598D01*
X-328504Y4736D01*
X-329020Y5256D01*
X-329157Y5313D01*
X-333858D01*
X-334252Y5707D01*
X-334252Y6396D01*
X-333858Y6789D01*
X-327461Y6789D01*
D02*
G37*
G36*
X-319291Y394D02*
X-319291Y-197D01*
X-319685Y-591D01*
X-322539D01*
X-322736Y-787D01*
Y-1575D01*
X-323130Y-1969D01*
X-324114D01*
X-324508Y-1575D01*
Y394D01*
X-324114Y787D01*
X-319685D01*
X-319291Y394D01*
D02*
G37*
G36*
X-326870Y197D02*
Y-1575D01*
X-327264Y-1969D01*
X-328051D01*
X-328445Y-1575D01*
Y197D01*
X-328051Y591D01*
X-327264D01*
X-326870Y197D01*
D02*
G37*
G36*
X-329035Y394D02*
Y-1575D01*
X-329429Y-1969D01*
X-330413D01*
X-330807Y-1575D01*
Y-787D01*
X-331004Y-591D01*
X-333858D01*
X-334252Y-197D01*
Y394D01*
X-333858Y787D01*
X-329429D01*
X-329035Y394D01*
D02*
G37*
G36*
X-281299Y15748D02*
X-281299Y8563D01*
X-281496Y8366D01*
X-285039Y8366D01*
X-285236Y8563D01*
Y9803D01*
X-285433Y10000D01*
X-286614D01*
X-286811Y10197D01*
Y10787D01*
X-286614Y10984D01*
X-285433D01*
X-285236Y11181D01*
Y11772D01*
X-285433Y11969D01*
X-286614D01*
X-286811Y12165D01*
Y12756D01*
X-286614Y12953D01*
X-285433D01*
X-285236Y13150D01*
Y13740D01*
X-285433Y13937D01*
X-286614D01*
X-286811Y14134D01*
Y14724D01*
X-286614Y14921D01*
X-285433D01*
X-285236Y15118D01*
Y15748D01*
X-285039Y15945D01*
X-281496D01*
X-281299Y15748D01*
D02*
G37*
G36*
X-273819D02*
Y15118D01*
X-273622Y14921D01*
X-272441Y14921D01*
X-272244Y14724D01*
Y14134D01*
X-272441Y13937D01*
X-273622D01*
X-273819Y13740D01*
Y13150D01*
X-273622Y12953D01*
X-272441D01*
X-272244Y12756D01*
Y12165D01*
X-272441Y11969D01*
X-273622D01*
X-273819Y11772D01*
Y11181D01*
X-273622Y10984D01*
X-272441Y10984D01*
X-272244Y10787D01*
Y10197D01*
X-272441Y10000D01*
X-273622D01*
X-273819Y9803D01*
Y8563D01*
X-274016Y8366D01*
X-277559Y8366D01*
X-277756Y8563D01*
Y15748D01*
X-277559Y15945D01*
X-274016D01*
X-273819Y15748D01*
D02*
G37*
G36*
X-283465Y4331D02*
Y3740D01*
X-283858Y3347D01*
X-286614D01*
X-287008Y3740D01*
Y4331D01*
X-286614Y4724D01*
X-283858D01*
X-283465Y4331D01*
D02*
G37*
G36*
X-272244D02*
Y3740D01*
X-272441Y3543D01*
X-273622D01*
X-273819Y3347D01*
Y2756D01*
X-273622Y2559D01*
X-272441D01*
X-272244Y2362D01*
Y1772D01*
X-272441Y1575D01*
X-276772D01*
X-276969Y1772D01*
Y4331D01*
X-276772Y4528D01*
X-272441D01*
X-272244Y4331D01*
D02*
G37*
G36*
X-283465Y2362D02*
Y1772D01*
X-283858Y1378D01*
X-286614D01*
X-287008Y1772D01*
Y2362D01*
X-286614Y2756D01*
X-283858D01*
X-283465Y2362D01*
D02*
G37*
G36*
X-280217Y6789D02*
X-279823Y6396D01*
Y1575D01*
X-280217Y1181D01*
X-280807D01*
X-281201Y1575D01*
Y4598D01*
X-281260Y4736D01*
X-281776Y5256D01*
X-281913Y5313D01*
X-286614D01*
X-287008Y5707D01*
X-287008Y6396D01*
X-286614Y6789D01*
X-280217Y6789D01*
D02*
G37*
G36*
X-272047Y394D02*
X-272047Y-197D01*
X-272441Y-591D01*
X-275295D01*
X-275492Y-787D01*
Y-1575D01*
X-275886Y-1969D01*
X-276870D01*
X-277264Y-1575D01*
Y394D01*
X-276870Y787D01*
X-272441D01*
X-272047Y394D01*
D02*
G37*
G36*
X-279626Y197D02*
Y-1575D01*
X-280020Y-1969D01*
X-280807D01*
X-281201Y-1575D01*
Y197D01*
X-280807Y591D01*
X-280020D01*
X-279626Y197D01*
D02*
G37*
G36*
X-281791Y394D02*
Y-1575D01*
X-282185Y-1969D01*
X-283169D01*
X-283563Y-1575D01*
Y-787D01*
X-283760Y-591D01*
X-286614D01*
X-287008Y-197D01*
Y394D01*
X-286614Y787D01*
X-282185D01*
X-281791Y394D01*
D02*
G37*
G36*
X984Y-129134D02*
X-18701D01*
Y129134D01*
X984D01*
Y-129134D01*
D02*
G37*
D167*
X-43924Y-38061D02*
D03*
Y-32156D02*
D03*
X-65381Y-38062D02*
D03*
Y-32156D02*
D03*
X-74587Y-40061D02*
D03*
Y-34156D02*
D03*
X-96044Y-34156D02*
D03*
Y-40062D02*
D03*
D168*
X-61542Y-41900D02*
D03*
X-45794Y-28317D02*
D03*
X-47763D02*
D03*
X-51700Y-28317D02*
D03*
X-53668D02*
D03*
X-55637D02*
D03*
X-57605D02*
D03*
X-59574D02*
D03*
X-61542D02*
D03*
X-63511D02*
D03*
X-49731D02*
D03*
X-55637Y-41900D02*
D03*
X-53668D02*
D03*
X-51700D02*
D03*
X-49731D02*
D03*
X-47763D02*
D03*
X-45794D02*
D03*
X-57605D02*
D03*
X-59574D02*
D03*
X-63511D02*
D03*
X-92206Y-43900D02*
D03*
X-76458Y-30317D02*
D03*
X-94174Y-43900D02*
D03*
X-90237D02*
D03*
X-88269D02*
D03*
X-76458D02*
D03*
X-78426D02*
D03*
X-80395D02*
D03*
X-82363D02*
D03*
X-84332D02*
D03*
X-86300D02*
D03*
X-80395Y-30318D02*
D03*
X-94174D02*
D03*
X-92206D02*
D03*
X-90237D02*
D03*
X-88269D02*
D03*
X-86300D02*
D03*
X-84332D02*
D03*
X-82363D02*
D03*
X-78426Y-30317D02*
D03*
D177*
X-314988Y76220D02*
D03*
X-324043Y79960D02*
D03*
X-314988Y83700D02*
D03*
X-329102Y62795D02*
D03*
X-338157Y66536D02*
D03*
X-329102Y70276D02*
D03*
D192*
X-64400Y-12482D02*
D03*
Y-22718D02*
D03*
X-95400Y-13682D02*
D03*
Y-23918D02*
D03*
D195*
X-301272Y83800D02*
D03*
X-297728D02*
D03*
X-317126Y70473D02*
D03*
X-313583D02*
D03*
X-331398Y380067D02*
D03*
X-334941D02*
D03*
X-351161Y414567D02*
D03*
X-347618D02*
D03*
X-351161Y418504D02*
D03*
X-347618D02*
D03*
X-362579Y430315D02*
D03*
X-359035D02*
D03*
X-362579Y426378D02*
D03*
X-359035D02*
D03*
X-362579Y422441D02*
D03*
X-359035D02*
D03*
X-341929Y82874D02*
D03*
X-345472D02*
D03*
X-341437Y76772D02*
D03*
X-344980D02*
D03*
X-229429Y70374D02*
D03*
X-225886D02*
D03*
X-331398Y398964D02*
D03*
X-334941D02*
D03*
X-331398Y403689D02*
D03*
X-334941Y403689D02*
D03*
X-331398Y417862D02*
D03*
X-334941D02*
D03*
X-331398Y413138D02*
D03*
X-334941Y413138D02*
D03*
X-331398Y408413D02*
D03*
X-334941D02*
D03*
X-331398Y394240D02*
D03*
X-334941D02*
D03*
X-331398Y384791D02*
D03*
X-334941Y384791D02*
D03*
X-331398Y389516D02*
D03*
X-334941Y389516D02*
D03*
X-331398Y372291D02*
D03*
X-334941D02*
D03*
X-331398Y375539D02*
D03*
X-334941D02*
D03*
X-351161Y422441D02*
D03*
X-347618D02*
D03*
X-351161Y426378D02*
D03*
X-347618D02*
D03*
X-351161Y430315D02*
D03*
X-347618D02*
D03*
X-428327Y418602D02*
D03*
X-424784D02*
D03*
X-428327Y422539D02*
D03*
X-424784D02*
D03*
D196*
X-321850Y-9724D02*
D03*
Y-6024D02*
D03*
X-336614D02*
D03*
Y-9724D02*
D03*
X-331693D02*
D03*
Y-6024D02*
D03*
X-47800Y161050D02*
D03*
Y157350D02*
D03*
X-279528Y-6024D02*
D03*
Y-9724D02*
D03*
X-274606Y-9724D02*
D03*
Y-6024D02*
D03*
X-203150Y-13406D02*
D03*
Y-17106D02*
D03*
X-96161Y-73858D02*
D03*
Y-77559D02*
D03*
X-98600Y-68750D02*
D03*
Y-65050D02*
D03*
X-221752Y-15571D02*
D03*
Y-19272D02*
D03*
X-70000Y-22401D02*
D03*
Y-18700D02*
D03*
X-101200Y-24450D02*
D03*
Y-20750D02*
D03*
X-104921Y-80787D02*
D03*
Y-77087D02*
D03*
Y-69902D02*
D03*
Y-73602D02*
D03*
X-86614Y-80236D02*
D03*
Y-83937D02*
D03*
X-226575Y-9035D02*
D03*
Y-5335D02*
D03*
Y-16319D02*
D03*
Y-12618D02*
D03*
X-234744Y4409D02*
D03*
Y709D02*
D03*
X-229921Y4311D02*
D03*
Y610D02*
D03*
D197*
X-389062Y-22863D02*
D03*
X-386463D02*
D03*
X-391660D02*
D03*
X-389062D02*
D03*
X-389081Y-17881D02*
D03*
X-386482D02*
D03*
X-391679D02*
D03*
X-389081D02*
D03*
X-388901Y-33000D02*
D03*
X-386302D02*
D03*
X-388901D02*
D03*
X-391499D02*
D03*
X-389801Y-28100D02*
D03*
X-387202D02*
D03*
X-392399D02*
D03*
X-389801D02*
D03*
X-391501Y82200D02*
D03*
X-388902D02*
D03*
X-394099D02*
D03*
X-391501D02*
D03*
Y76900D02*
D03*
X-388902D02*
D03*
X-394099D02*
D03*
X-391501D02*
D03*
D198*
X-328026Y5778D02*
D03*
X-280782D02*
D03*
D199*
X-329921Y-1181D02*
D03*
X-282677D02*
D03*
D200*
X-323573Y-148D02*
D03*
X-276329D02*
D03*
D236*
X-61929Y-122000D02*
D03*
X-78071D02*
D03*
D238*
X-397638Y178150D02*
D03*
X-373228D02*
D03*
X-304545Y66435D02*
D03*
X-280136D02*
D03*
D240*
X-386713Y278543D02*
D03*
X-374902D02*
D03*
X-327854Y354823D02*
D03*
X-316043D02*
D03*
D241*
X-350768Y393996D02*
D03*
Y382185D02*
D03*
X-145571Y-102659D02*
D03*
Y-90848D02*
D03*
X-270768Y-46457D02*
D03*
Y-34646D02*
D03*
X-231398Y-132383D02*
D03*
Y-120572D02*
D03*
X-229528Y-46260D02*
D03*
Y-34449D02*
D03*
X-135433Y16928D02*
D03*
Y28739D02*
D03*
X-144291Y16928D02*
D03*
Y28739D02*
D03*
X-153150Y16928D02*
D03*
Y28739D02*
D03*
X-162008Y16928D02*
D03*
Y28739D02*
D03*
X-188583Y17128D02*
D03*
Y28939D02*
D03*
X-170866Y17128D02*
D03*
Y28939D02*
D03*
X-179724Y16928D02*
D03*
Y28739D02*
D03*
D242*
X-313976Y-17323D02*
D03*
Y-10236D02*
D03*
D244*
X-330315Y-120374D02*
D03*
X-324016D02*
D03*
X-323228Y146850D02*
D03*
X-316929D02*
D03*
X-213090Y45276D02*
D03*
X-219390D02*
D03*
X-345669Y14764D02*
D03*
X-339370D02*
D03*
X-298425D02*
D03*
X-292126D02*
D03*
X-386221Y264961D02*
D03*
X-379921D02*
D03*
X-299016Y145571D02*
D03*
X-305315D02*
D03*
X-384055Y257579D02*
D03*
X-377756Y257579D02*
D03*
X-372441Y198917D02*
D03*
X-366142D02*
D03*
X-230020Y148130D02*
D03*
X-223721D02*
D03*
X-373228Y190453D02*
D03*
X-366929D02*
D03*
X-371779Y304921D02*
D03*
X-365479D02*
D03*
X-372539Y296260D02*
D03*
X-366240D02*
D03*
X-374114Y289862D02*
D03*
X-367815D02*
D03*
X-201476Y150591D02*
D03*
X-207776Y150591D02*
D03*
X-201476Y165354D02*
D03*
X-207776Y165354D02*
D03*
X-201476Y157480D02*
D03*
X-207776Y157480D02*
D03*
D245*
X-51628Y161000D02*
D03*
X-55172D02*
D03*
X-198972Y-124600D02*
D03*
X-195428D02*
D03*
D246*
X-100300Y-42978D02*
D03*
Y-40222D02*
D03*
X-322000Y171822D02*
D03*
Y174578D02*
D03*
X-48000Y-71878D02*
D03*
Y-69122D02*
D03*
X-63900Y-99378D02*
D03*
Y-96622D02*
D03*
X-100300Y-28722D02*
D03*
Y-31478D02*
D03*
X-103500Y-34278D02*
D03*
Y-31522D02*
D03*
X-69500Y-35822D02*
D03*
Y-38578D02*
D03*
Y-44678D02*
D03*
Y-41922D02*
D03*
X-69600Y-26822D02*
D03*
Y-29578D02*
D03*
X-99410Y-76673D02*
D03*
Y-73917D02*
D03*
X-199409Y-4921D02*
D03*
Y-7677D02*
D03*
X-220374Y-5906D02*
D03*
Y-3150D02*
D03*
X-223228Y-8071D02*
D03*
Y-10827D02*
D03*
X-240748Y-10728D02*
D03*
Y-7972D02*
D03*
X-35724Y111644D02*
D03*
Y114400D02*
D03*
X-35734Y120183D02*
D03*
Y117427D02*
D03*
D247*
X-32283Y225787D02*
D03*
X-38189D02*
D03*
D248*
X-303150Y155118D02*
D03*
Y163779D02*
D03*
D249*
X-8858Y-124016D02*
D03*
Y-106299D02*
D03*
Y-97441D02*
D03*
Y-88583D02*
D03*
Y-79724D02*
D03*
Y-70866D02*
D03*
Y-62008D02*
D03*
Y-53150D02*
D03*
Y-44291D02*
D03*
Y-35433D02*
D03*
Y-26575D02*
D03*
Y8858D02*
D03*
Y0D02*
D03*
Y-8858D02*
D03*
Y-17717D02*
D03*
Y26575D02*
D03*
Y17717D02*
D03*
Y53150D02*
D03*
Y35433D02*
D03*
Y44291D02*
D03*
Y62008D02*
D03*
Y70866D02*
D03*
Y79724D02*
D03*
Y88583D02*
D03*
Y97441D02*
D03*
Y106299D02*
D03*
Y115157D02*
D03*
Y124016D02*
D03*
Y85630D02*
D03*
Y121063D02*
D03*
Y41339D02*
D03*
Y-2953D02*
D03*
Y-121063D02*
D03*
Y-100394D02*
D03*
Y-47244D02*
D03*
Y-115157D02*
D03*
Y-73819D02*
D03*
D250*
X-6102Y94488D02*
D03*
Y29528D02*
D03*
Y59055D02*
D03*
Y112205D02*
D03*
Y103347D02*
D03*
Y50197D02*
D03*
Y73819D02*
D03*
Y32480D02*
D03*
Y100394D02*
D03*
Y109252D02*
D03*
Y76772D02*
D03*
Y67913D02*
D03*
Y47244D02*
D03*
Y64961D02*
D03*
Y56102D02*
D03*
Y91535D02*
D03*
Y-41339D02*
D03*
Y2953D02*
D03*
Y-94488D02*
D03*
Y14764D02*
D03*
Y-29528D02*
D03*
Y23622D02*
D03*
Y-14764D02*
D03*
Y-32480D02*
D03*
Y-85630D02*
D03*
Y20669D02*
D03*
Y-20669D02*
D03*
Y11811D02*
D03*
Y-23622D02*
D03*
Y5906D02*
D03*
Y-59055D02*
D03*
Y-67913D02*
D03*
Y-64961D02*
D03*
Y-56102D02*
D03*
Y-91535D02*
D03*
Y-11811D02*
D03*
Y-82677D02*
D03*
Y-38386D02*
D03*
D251*
X-12598Y103347D02*
D03*
Y100394D02*
D03*
Y59055D02*
D03*
Y14764D02*
D03*
Y-11811D02*
D03*
Y112205D02*
D03*
Y56102D02*
D03*
Y109252D02*
D03*
Y11811D02*
D03*
Y-59055D02*
D03*
Y-32480D02*
D03*
Y-56102D02*
D03*
Y-29528D02*
D03*
Y-14764D02*
D03*
Y94488D02*
D03*
Y91535D02*
D03*
Y76772D02*
D03*
Y73819D02*
D03*
Y67913D02*
D03*
Y64961D02*
D03*
Y50197D02*
D03*
Y47244D02*
D03*
Y32480D02*
D03*
Y29528D02*
D03*
Y23622D02*
D03*
Y20669D02*
D03*
Y5906D02*
D03*
Y2953D02*
D03*
Y-20669D02*
D03*
Y-23622D02*
D03*
Y-38386D02*
D03*
Y-41339D02*
D03*
Y-64961D02*
D03*
Y-67913D02*
D03*
Y-82677D02*
D03*
Y-85630D02*
D03*
Y-91535D02*
D03*
Y-94488D02*
D03*
D252*
X-11860Y38386D02*
D03*
Y-76772D02*
D03*
Y-112205D02*
D03*
Y-103347D02*
D03*
Y82677D02*
D03*
Y-5906D02*
D03*
Y-50197D02*
D03*
Y-109252D02*
D03*
D253*
X-5364Y38386D02*
D03*
Y82677D02*
D03*
Y-76772D02*
D03*
Y-103347D02*
D03*
Y-5906D02*
D03*
Y-109252D02*
D03*
Y-50197D02*
D03*
Y-112205D02*
D03*
D254*
X-170109Y-101900D02*
D03*
X-158691D02*
D03*
D256*
X-55800Y140200D02*
D03*
X-52060Y149255D02*
D03*
X-48320Y140200D02*
D03*
D257*
X-169239Y-130000D02*
D03*
Y-125000D02*
D03*
Y-120000D02*
D03*
Y-115000D02*
D03*
X-149161Y-130000D02*
D03*
Y-125000D02*
D03*
Y-120000D02*
D03*
Y-115000D02*
D03*
D258*
X-171145Y242541D02*
D03*
X-173901D02*
D03*
X-171145Y245100D02*
D03*
X-173901D02*
D03*
X-175689Y224311D02*
D03*
X-172933D02*
D03*
X-175689Y221752D02*
D03*
X-172933D02*
D03*
X-151117Y247047D02*
D03*
X-153872D02*
D03*
X-151215Y249606D02*
D03*
X-153971D02*
D03*
X-156693Y229331D02*
D03*
X-153937D02*
D03*
X-156693Y226870D02*
D03*
X-153937D02*
D03*
X-178839Y262697D02*
D03*
X-181595D02*
D03*
X-178839Y265256D02*
D03*
X-181595D02*
D03*
X-179331Y232579D02*
D03*
X-182087D02*
D03*
X-179331Y235039D02*
D03*
X-182087D02*
D03*
X-178144Y250900D02*
D03*
X-180900D02*
D03*
X-400027Y208839D02*
D03*
X-402783D02*
D03*
X-177944Y256400D02*
D03*
X-180700D02*
D03*
X-400000Y206400D02*
D03*
X-402756D02*
D03*
X-155217Y267323D02*
D03*
X-157972D02*
D03*
X-155217Y269882D02*
D03*
X-157972D02*
D03*
X-150716Y257579D02*
D03*
X-153472D02*
D03*
X-388779Y218898D02*
D03*
X-391535D02*
D03*
X-153472Y260138D02*
D03*
X-150716D02*
D03*
X-388779Y216437D02*
D03*
X-391535D02*
D03*
X-388681Y196555D02*
D03*
X-391437D02*
D03*
X-388681Y199016D02*
D03*
X-391437D02*
D03*
X-386614Y193799D02*
D03*
X-389370D02*
D03*
X-386614Y191437D02*
D03*
X-389370D02*
D03*
X-378937Y213976D02*
D03*
X-381693D02*
D03*
X-378937Y211614D02*
D03*
X-381693D02*
D03*
X-390748Y238681D02*
D03*
X-393504D02*
D03*
X-390748Y236221D02*
D03*
X-393504D02*
D03*
X-155217Y239665D02*
D03*
X-157972D02*
D03*
X-92422Y-48100D02*
D03*
X-95178D02*
D03*
X-325122Y171400D02*
D03*
X-327878D02*
D03*
X-30906Y29626D02*
D03*
X-33661D02*
D03*
X-155217Y237106D02*
D03*
X-157973D02*
D03*
X-400295Y238878D02*
D03*
X-397539D02*
D03*
X-400295Y236319D02*
D03*
X-397539D02*
D03*
X-61722Y-46100D02*
D03*
X-64478D02*
D03*
X-156743Y183229D02*
D03*
X-159498D02*
D03*
X-31004Y23327D02*
D03*
X-33760D02*
D03*
X-31004Y20768D02*
D03*
X-33760D02*
D03*
X-31004Y58760D02*
D03*
X-33760D02*
D03*
X-31004Y56201D02*
D03*
X-33760D02*
D03*
X-27953Y50787D02*
D03*
X-30709D02*
D03*
X-27953Y48228D02*
D03*
X-30709D02*
D03*
X-30622Y76500D02*
D03*
X-33378D02*
D03*
X-30622Y74000D02*
D03*
X-33378D02*
D03*
X-31496Y67815D02*
D03*
X-34252D02*
D03*
X-31496Y65256D02*
D03*
X-34252D02*
D03*
X-30906Y32185D02*
D03*
X-33661D02*
D03*
X-33760Y14567D02*
D03*
X-31004D02*
D03*
X-33760Y12008D02*
D03*
X-31004D02*
D03*
X-31004Y5610D02*
D03*
X-33760D02*
D03*
X-31004Y3051D02*
D03*
X-33760D02*
D03*
X-341634Y417862D02*
D03*
X-338878D02*
D03*
X-341634Y373768D02*
D03*
X-338878D02*
D03*
X-341634Y403689D02*
D03*
X-338878D02*
D03*
X-341634Y389516D02*
D03*
X-338878D02*
D03*
X-425678Y428700D02*
D03*
X-422922D02*
D03*
X-425678Y425800D02*
D03*
X-422922D02*
D03*
X-181890Y221752D02*
D03*
X-179134D02*
D03*
X-181890Y224213D02*
D03*
X-179134D02*
D03*
X-180900Y245100D02*
D03*
X-178144D02*
D03*
X-180900Y242639D02*
D03*
X-178144D02*
D03*
X-35822Y114400D02*
D03*
X-38578D02*
D03*
X-35734Y117427D02*
D03*
X-38490D02*
D03*
X-89764Y-80709D02*
D03*
X-92520D02*
D03*
X-209055Y-689D02*
D03*
X-206299D02*
D03*
X-233366Y-3937D02*
D03*
X-230610D02*
D03*
D259*
X-230807Y82185D02*
D03*
X-224508D02*
D03*
X-230807Y76279D02*
D03*
X-224508D02*
D03*
X-224950Y55500D02*
D03*
X-231250D02*
D03*
X-225450Y49000D02*
D03*
X-231750D02*
D03*
D260*
X-310400Y80528D02*
D03*
Y84072D02*
D03*
X-130807Y-93307D02*
D03*
Y-89764D02*
D03*
X-151100Y972D02*
D03*
Y-2572D02*
D03*
X-134449Y-93307D02*
D03*
Y-89764D02*
D03*
X-323900Y64828D02*
D03*
Y68372D02*
D03*
X-165300Y188528D02*
D03*
Y192072D02*
D03*
X-304035Y-126969D02*
D03*
Y-123425D02*
D03*
X-326772Y-6102D02*
D03*
Y-9646D02*
D03*
X-289370Y-9646D02*
D03*
Y-6102D02*
D03*
X-277165Y-61221D02*
D03*
Y-64764D02*
D03*
X-300394Y-126969D02*
D03*
Y-123425D02*
D03*
X-159100Y772D02*
D03*
Y-2772D02*
D03*
X-354724Y-50984D02*
D03*
Y-47441D02*
D03*
X-219882Y-122835D02*
D03*
Y-119291D02*
D03*
X-214961Y-122835D02*
D03*
Y-119291D02*
D03*
X-244882Y-28543D02*
D03*
Y-32087D02*
D03*
X-237008Y-28543D02*
D03*
Y-32087D02*
D03*
X-284449Y-9646D02*
D03*
Y-6102D02*
D03*
X-295276Y2165D02*
D03*
Y5709D02*
D03*
X-236713Y75197D02*
D03*
Y71653D02*
D03*
X-418900Y424528D02*
D03*
Y428072D02*
D03*
X-338583Y2165D02*
D03*
Y5709D02*
D03*
X-295276Y-9646D02*
D03*
Y-6102D02*
D03*
D263*
X-330906Y-127756D02*
D03*
X-319094D02*
D03*
X-342520Y22638D02*
D03*
X-330709D02*
D03*
X-297244Y33465D02*
D03*
X-285433D02*
D03*
X-297244Y23622D02*
D03*
X-285433D02*
D03*
X-207676Y43504D02*
D03*
X-195865D02*
D03*
X-207676Y34646D02*
D03*
X-195865D02*
D03*
X-207676Y25787D02*
D03*
X-195865D02*
D03*
X-168895Y-92600D02*
D03*
X-180705D02*
D03*
X-342520Y32480D02*
D03*
X-330709D02*
D03*
D264*
X-342520Y2165D02*
D03*
Y5709D02*
D03*
X-291339D02*
D03*
Y2165D02*
D03*
D265*
X-304600Y-93150D02*
D03*
Y-99450D02*
D03*
X-308583Y-130413D02*
D03*
Y-124114D02*
D03*
X-134600Y-59050D02*
D03*
Y-65350D02*
D03*
X-315551Y164567D02*
D03*
Y158268D02*
D03*
X-313976Y-3150D02*
D03*
Y3150D02*
D03*
X-266732Y-3150D02*
D03*
Y3150D02*
D03*
X-188400Y-59250D02*
D03*
Y-65550D02*
D03*
X-152300Y-96150D02*
D03*
Y-89850D02*
D03*
X-138779Y-96752D02*
D03*
Y-90453D02*
D03*
X-220700Y-88950D02*
D03*
Y-95250D02*
D03*
X-238000Y-125950D02*
D03*
Y-119650D02*
D03*
X-224606Y-126476D02*
D03*
Y-120177D02*
D03*
X-274500Y-89450D02*
D03*
Y-95750D02*
D03*
X-146752Y276870D02*
D03*
Y283169D02*
D03*
X-139862Y276870D02*
D03*
Y283169D02*
D03*
Y298622D02*
D03*
Y292323D02*
D03*
X-167126Y276772D02*
D03*
Y283071D02*
D03*
X-153642Y276772D02*
D03*
Y283071D02*
D03*
X-266339Y156590D02*
D03*
Y162889D02*
D03*
X-160531Y276772D02*
D03*
Y283071D02*
D03*
X-146752Y298622D02*
D03*
Y292323D02*
D03*
D266*
X-306496Y21161D02*
D03*
X-313583D02*
D03*
X-259252Y10827D02*
D03*
X-266339D02*
D03*
X-259252Y19685D02*
D03*
X-266339D02*
D03*
X-259252Y28543D02*
D03*
X-266339D02*
D03*
X-306004Y13287D02*
D03*
X-313090D02*
D03*
X-234043Y64400D02*
D03*
X-226957D02*
D03*
X-215657Y38000D02*
D03*
X-222743D02*
D03*
X-215657Y28500D02*
D03*
X-222743D02*
D03*
X-215657Y19500D02*
D03*
X-222743D02*
D03*
X-215657Y10100D02*
D03*
X-222743D02*
D03*
D270*
X-652100Y423252D02*
D03*
Y429748D02*
D03*
X-159028Y-14594D02*
D03*
Y-8098D02*
D03*
X-151091Y-14657D02*
D03*
Y-8161D02*
D03*
X-277200Y-77048D02*
D03*
Y-70552D02*
D03*
X-244900Y-43848D02*
D03*
Y-37352D02*
D03*
X-237000Y-43848D02*
D03*
Y-37352D02*
D03*
D272*
X-329024Y83465D02*
D03*
X-335520D02*
D03*
X-366547Y-54134D02*
D03*
X-360051D02*
D03*
X-329528Y76575D02*
D03*
X-336024D02*
D03*
D276*
X-692520Y407480D02*
D03*
X-201156Y330444D02*
D03*
X-345644Y185956D02*
D03*
X-124600Y395700D02*
D03*
D281*
X-187400Y-130804D02*
D03*
X-177400Y-103796D02*
D03*
D282*
X-179900Y-129052D02*
D03*
X-184900Y-105548D02*
D03*
D283*
X-126200Y403648D02*
D03*
Y422152D02*
D03*
X-275372Y143696D02*
D03*
Y155507D02*
D03*
X-288779Y143696D02*
D03*
Y155507D02*
D03*
X-240551Y149114D02*
D03*
Y160925D02*
D03*
X-253937Y149213D02*
D03*
Y161024D02*
D03*
X-174114Y304528D02*
D03*
Y292717D02*
D03*
X-174705Y171949D02*
D03*
Y183760D02*
D03*
D286*
X-665158Y138287D02*
D03*
Y149902D02*
D03*
X-74496Y179407D02*
D03*
Y167793D02*
D03*
X-73596Y149093D02*
D03*
Y160707D02*
D03*
X-121604Y163693D02*
D03*
Y175307D02*
D03*
X-121704Y145193D02*
D03*
Y156807D02*
D03*
D287*
X-659154Y144095D02*
D03*
X-80500Y173600D02*
D03*
X-79600Y154900D02*
D03*
X-115600Y169500D02*
D03*
X-115700Y151000D02*
D03*
D288*
X-342402Y-1969D02*
D03*
X-338701D02*
D03*
X-51550Y157300D02*
D03*
X-55250D02*
D03*
X-51950Y135000D02*
D03*
X-48250D02*
D03*
X-291457Y-1969D02*
D03*
X-295158D02*
D03*
X-97159Y203608D02*
D03*
X-93458D02*
D03*
X-97159Y207408D02*
D03*
X-93458D02*
D03*
X-63050Y-92600D02*
D03*
X-59350D02*
D03*
X-52050D02*
D03*
X-55750D02*
D03*
X-63050Y-86700D02*
D03*
X-59350D02*
D03*
X-52050D02*
D03*
X-55750D02*
D03*
X-63050Y-80800D02*
D03*
X-59350D02*
D03*
X-52050D02*
D03*
X-55750D02*
D03*
X-63050Y-74900D02*
D03*
X-59350D02*
D03*
X-52050D02*
D03*
X-55750D02*
D03*
X-63050Y-68900D02*
D03*
X-59350D02*
D03*
X-52050D02*
D03*
X-55750D02*
D03*
X-63050Y-63000D02*
D03*
X-59350D02*
D03*
X-52050D02*
D03*
X-55750D02*
D03*
X-63050Y-57100D02*
D03*
X-59350D02*
D03*
X-52050D02*
D03*
X-55750D02*
D03*
X-63050Y-51200D02*
D03*
X-59350D02*
D03*
X-52050D02*
D03*
X-55750D02*
D03*
X-97323Y-85236D02*
D03*
X-93622D02*
D03*
X-191358Y-3248D02*
D03*
X-195059D02*
D03*
X-190866Y-8366D02*
D03*
X-194567D02*
D03*
X-215827Y591D02*
D03*
X-212126D02*
D03*
X-215827Y4134D02*
D03*
X-212126D02*
D03*
X-211929Y-8957D02*
D03*
X-215630D02*
D03*
X-211929Y-4232D02*
D03*
X-215630D02*
D03*
X-248406Y-10827D02*
D03*
X-244705D02*
D03*
X-248406Y-7776D02*
D03*
X-244705D02*
D03*
D289*
X-60712Y-113200D02*
D03*
X-55200D02*
D03*
X-40356Y-115100D02*
D03*
X-34844D02*
D03*
X-40556Y-108300D02*
D03*
X-35044D02*
D03*
X-50756Y-109900D02*
D03*
X-45244D02*
D03*
D290*
X-62600Y184431D02*
D03*
Y175769D02*
D03*
D296*
X-395866Y-5906D02*
D03*
X-105600Y-4400D02*
D03*
X-394783Y317913D02*
D03*
X-200800Y-28900D02*
D03*
D297*
X-152735Y334646D02*
D03*
X-208711Y-128937D02*
D03*
X-274000Y-128000D02*
D03*
D299*
X-220079Y159449D02*
D03*
X-228740D02*
D03*
D300*
X-689961Y25591D02*
D03*
X-242400Y11000D02*
D03*
X-372300Y143300D02*
D03*
X-575984Y311319D02*
D03*
D301*
X-79528Y235630D02*
D03*
Y206102D02*
D03*
Y196260D02*
D03*
Y225787D02*
D03*
Y215945D02*
D03*
X-61811Y235630D02*
D03*
Y206102D02*
D03*
Y196260D02*
D03*
Y225787D02*
D03*
Y215945D02*
D03*
X-44094D02*
D03*
Y235630D02*
D03*
Y225787D02*
D03*
Y206102D02*
D03*
Y196260D02*
D03*
X-79528Y245472D02*
D03*
X-61811D02*
D03*
X-44094D02*
D03*
X-61811Y255315D02*
D03*
X-44094D02*
D03*
X-79528D02*
D03*
X-44094Y265158D02*
D03*
X-79528D02*
D03*
X-61811D02*
D03*
X-44094Y275000D02*
D03*
X-79528D02*
D03*
X-61811D02*
D03*
X-44094Y284842D02*
D03*
X-79528D02*
D03*
X-61811D02*
D03*
X-38189Y275000D02*
D03*
X-32283D02*
D03*
X-50000Y245472D02*
D03*
X-55905D02*
D03*
X-32283Y284842D02*
D03*
X-38189Y284842D02*
D03*
X-32283Y215945D02*
D03*
X-50000Y275000D02*
D03*
Y265158D02*
D03*
Y255315D02*
D03*
Y235630D02*
D03*
Y225787D02*
D03*
Y206102D02*
D03*
Y196260D02*
D03*
X-55905Y275000D02*
D03*
Y265158D02*
D03*
Y255315D02*
D03*
Y235630D02*
D03*
Y225787D02*
D03*
Y206102D02*
D03*
Y196260D02*
D03*
X-67716Y275000D02*
D03*
Y265158D02*
D03*
Y255315D02*
D03*
Y245472D02*
D03*
Y235630D02*
D03*
Y225787D02*
D03*
Y215945D02*
D03*
Y206102D02*
D03*
Y196260D02*
D03*
X-73622Y275000D02*
D03*
Y265158D02*
D03*
Y255315D02*
D03*
Y245472D02*
D03*
Y235630D02*
D03*
Y225787D02*
D03*
Y215945D02*
D03*
Y206102D02*
D03*
Y196260D02*
D03*
X-38189Y265158D02*
D03*
Y255315D02*
D03*
Y245472D02*
D03*
Y235630D02*
D03*
Y215945D02*
D03*
Y206102D02*
D03*
Y196260D02*
D03*
X-32283D02*
D03*
Y206102D02*
D03*
Y235630D02*
D03*
Y245472D02*
D03*
Y255315D02*
D03*
Y265158D02*
D03*
X-67716Y284842D02*
D03*
X-73622D02*
D03*
X-50000D02*
D03*
X-55905D02*
D03*
X-50000Y215945D02*
D03*
X-55905D02*
D03*
X-44094Y294685D02*
D03*
X-79528D02*
D03*
X-61811D02*
D03*
X-44094Y304528D02*
D03*
X-79528D02*
D03*
X-61811D02*
D03*
X-79528Y324213D02*
D03*
Y314370D02*
D03*
X-61811D02*
D03*
X-44094D02*
D03*
X-61811Y324213D02*
D03*
X-44094D02*
D03*
X-79528Y334055D02*
D03*
Y343898D02*
D03*
X-61811D02*
D03*
Y334055D02*
D03*
X-44094D02*
D03*
Y353740D02*
D03*
Y343898D02*
D03*
X-79528Y353740D02*
D03*
Y363583D02*
D03*
X-61811Y373425D02*
D03*
Y353740D02*
D03*
X-44094Y363583D02*
D03*
X-61811D02*
D03*
X-44094Y373425D02*
D03*
X-79528D02*
D03*
X-44094Y383268D02*
D03*
X-79528D02*
D03*
X-61811D02*
D03*
X-32283Y294685D02*
D03*
X-38189D02*
D03*
X-32283Y324213D02*
D03*
X-38189D02*
D03*
X-32283Y363583D02*
D03*
X-38189D02*
D03*
X-32283Y383268D02*
D03*
X-38189Y383268D02*
D03*
X-32283Y373425D02*
D03*
Y353740D02*
D03*
Y343898D02*
D03*
Y334055D02*
D03*
Y314370D02*
D03*
X-38189Y314370D02*
D03*
Y334055D02*
D03*
Y343898D02*
D03*
Y353740D02*
D03*
Y373425D02*
D03*
X-73622Y294685D02*
D03*
Y304528D02*
D03*
Y314370D02*
D03*
Y324213D02*
D03*
Y334055D02*
D03*
Y353740D02*
D03*
Y373425D02*
D03*
Y383268D02*
D03*
X-67716Y294685D02*
D03*
Y304528D02*
D03*
Y314370D02*
D03*
Y324213D02*
D03*
Y334055D02*
D03*
Y353740D02*
D03*
Y373425D02*
D03*
Y383268D02*
D03*
X-55905Y304528D02*
D03*
Y324213D02*
D03*
Y334055D02*
D03*
Y343898D02*
D03*
Y353740D02*
D03*
Y363583D02*
D03*
Y373425D02*
D03*
X-50000Y304528D02*
D03*
Y324213D02*
D03*
Y334055D02*
D03*
Y343898D02*
D03*
Y353740D02*
D03*
Y363583D02*
D03*
Y373425D02*
D03*
Y294685D02*
D03*
X-55905D02*
D03*
X-32283Y304528D02*
D03*
X-38189D02*
D03*
X-67716Y343898D02*
D03*
X-73622D02*
D03*
X-50000Y314370D02*
D03*
X-55905D02*
D03*
X-50000Y383268D02*
D03*
X-55905D02*
D03*
X-67716Y363583D02*
D03*
X-73622D02*
D03*
D302*
X-108268Y409449D02*
D03*
X-78740D02*
D03*
D303*
X-49213D02*
D03*
D304*
X-584646Y-126181D02*
D03*
D305*
X-591338D02*
D03*
D306*
X-424360Y-97480D02*
D03*
X-436368Y116614D02*
D03*
X-424360Y178111D02*
D03*
X-436368Y392205D02*
D03*
D307*
X-679626Y131211D02*
D03*
Y158770D02*
D03*
D308*
X-689469Y136132D02*
D03*
Y153849D02*
D03*
D309*
X-444183Y-114311D02*
D03*
X-445364Y161280D02*
D03*
X-660325Y171122D02*
D03*
X-445364Y409311D02*
D03*
X-660325Y393760D02*
D03*
Y118169D02*
D03*
X-445364Y133721D02*
D03*
X-660325Y-104468D02*
D03*
D310*
X-322613Y193239D02*
D03*
X-334424Y197176D02*
D03*
X-306865Y201113D02*
D03*
X-318676Y205050D02*
D03*
X-338361Y224735D02*
D03*
Y232610D02*
D03*
X-334424D02*
D03*
X-330487Y208987D02*
D03*
X-326550Y220798D02*
D03*
X-330487Y232610D02*
D03*
Y236546D02*
D03*
X-322613Y232610D02*
D03*
X-326550Y236546D02*
D03*
X-322613D02*
D03*
X-338361Y240483D02*
D03*
Y256231D02*
D03*
Y248358D02*
D03*
X-330487Y244421D02*
D03*
Y252294D02*
D03*
X-322613Y240483D02*
D03*
Y248358D02*
D03*
Y256231D02*
D03*
X-338361Y264106D02*
D03*
Y271979D02*
D03*
X-330487Y260169D02*
D03*
X-322613Y264106D02*
D03*
X-330487Y268042D02*
D03*
X-322613Y271979D02*
D03*
X-314739Y216861D02*
D03*
X-318676Y236546D02*
D03*
X-314739D02*
D03*
X-310802Y228672D02*
D03*
Y236546D02*
D03*
X-314739Y252294D02*
D03*
X-310802Y240483D02*
D03*
X-314739Y244421D02*
D03*
X-306865Y240483D02*
D03*
X-302928Y212924D02*
D03*
X-298991Y224735D02*
D03*
X-306865Y244421D02*
D03*
Y248358D02*
D03*
X-298991D02*
D03*
X-314739Y260169D02*
D03*
X-306865Y252294D02*
D03*
Y256231D02*
D03*
X-314739Y268042D02*
D03*
X-306865Y264106D02*
D03*
Y271979D02*
D03*
Y260169D02*
D03*
X-302928Y252294D02*
D03*
Y260169D02*
D03*
X-298991Y256231D02*
D03*
X-306865Y268042D02*
D03*
X-298991Y264106D02*
D03*
X-302928Y268042D02*
D03*
X-298991Y271979D02*
D03*
X-338361Y279854D02*
D03*
Y283790D02*
D03*
Y323161D02*
D03*
X-330487Y275917D02*
D03*
X-334424Y279854D02*
D03*
X-326550D02*
D03*
X-330487D02*
D03*
X-322613D02*
D03*
X-318676D02*
D03*
X-334424Y295602D02*
D03*
X-322613Y291665D02*
D03*
X-314739Y275917D02*
D03*
X-310802D02*
D03*
X-306865D02*
D03*
X-314739Y279854D02*
D03*
X-298991Y283790D02*
D03*
X-310802Y287728D02*
D03*
X-306865Y299539D02*
D03*
X-330487Y307413D02*
D03*
X-326550Y319224D02*
D03*
X-318676Y303476D02*
D03*
X-314739Y315287D02*
D03*
X-302928Y311350D02*
D03*
X-298991Y323161D02*
D03*
X-283243Y193239D02*
D03*
X-295054Y197176D02*
D03*
X-291116Y208987D02*
D03*
X-279306Y205050D02*
D03*
X-275368Y216861D02*
D03*
X-255683Y197176D02*
D03*
X-267495Y201113D02*
D03*
X-263558Y212924D02*
D03*
X-251747Y208987D02*
D03*
X-287179Y220798D02*
D03*
X-271431Y228672D02*
D03*
X-283243Y232610D02*
D03*
X-295054Y236546D02*
D03*
X-287179D02*
D03*
X-279306D02*
D03*
X-271431D02*
D03*
X-275368Y240483D02*
D03*
X-259620Y224735D02*
D03*
X-263558Y236546D02*
D03*
X-255683D02*
D03*
X-243872Y193239D02*
D03*
X-228124Y201113D02*
D03*
X-239935Y205050D02*
D03*
X-247810Y220798D02*
D03*
X-235998Y216861D02*
D03*
X-224187Y212924D02*
D03*
X-220250Y224735D02*
D03*
X-216313Y197176D02*
D03*
X-212376Y208987D02*
D03*
X-208439Y220798D02*
D03*
X-232061Y228672D02*
D03*
X-243872Y232610D02*
D03*
X-235998Y236546D02*
D03*
X-228124D02*
D03*
X-232061D02*
D03*
X-224187Y232610D02*
D03*
X-216313D02*
D03*
X-212376D02*
D03*
X-208439D02*
D03*
X-224187Y236546D02*
D03*
X-220250D02*
D03*
X-216313D02*
D03*
X-295054Y244421D02*
D03*
Y252294D02*
D03*
X-291116Y240483D02*
D03*
Y248358D02*
D03*
X-287179Y244421D02*
D03*
Y252294D02*
D03*
X-291116Y256231D02*
D03*
X-295054Y260169D02*
D03*
X-287179D02*
D03*
X-283243Y240483D02*
D03*
Y248358D02*
D03*
X-279306Y244421D02*
D03*
X-267495Y240483D02*
D03*
X-275368Y248358D02*
D03*
X-271431Y244421D02*
D03*
X-267495Y248358D02*
D03*
X-279306Y252294D02*
D03*
X-283243Y256231D02*
D03*
X-279306Y260169D02*
D03*
X-271431Y252294D02*
D03*
X-275368Y260169D02*
D03*
X-271431Y256231D02*
D03*
X-291116Y264106D02*
D03*
X-295054Y268042D02*
D03*
X-291116Y271979D02*
D03*
X-283243Y264106D02*
D03*
X-279306Y268042D02*
D03*
X-275368Y264106D02*
D03*
X-267495D02*
D03*
X-271431Y268042D02*
D03*
X-287179D02*
D03*
X-283243Y271979D02*
D03*
X-267495D02*
D03*
X-275368D02*
D03*
X-263558Y244421D02*
D03*
X-259620Y240483D02*
D03*
Y248358D02*
D03*
X-251747Y240483D02*
D03*
X-255683Y244421D02*
D03*
X-251747Y248358D02*
D03*
X-263558Y252294D02*
D03*
X-259620Y256231D02*
D03*
X-255683Y252294D02*
D03*
X-251747Y256231D02*
D03*
X-247810Y244421D02*
D03*
X-243872Y240483D02*
D03*
X-247810Y252294D02*
D03*
X-243872Y248358D02*
D03*
X-239935D02*
D03*
X-243872Y256231D02*
D03*
X-263558Y260169D02*
D03*
X-255683D02*
D03*
X-259620Y264106D02*
D03*
X-263558Y268042D02*
D03*
X-259620Y271979D02*
D03*
X-255683Y268042D02*
D03*
X-247810Y260169D02*
D03*
X-251747Y264106D02*
D03*
X-239935Y260169D02*
D03*
X-243872Y264106D02*
D03*
X-251747Y271979D02*
D03*
X-247810Y268042D02*
D03*
X-239935Y271979D02*
D03*
X-295054Y275917D02*
D03*
X-287179D02*
D03*
X-291116Y279854D02*
D03*
X-295054Y295602D02*
D03*
X-291116Y307413D02*
D03*
X-287179Y319224D02*
D03*
X-283243Y279854D02*
D03*
X-279306Y275917D02*
D03*
X-271431D02*
D03*
X-275368Y279854D02*
D03*
X-283243Y291665D02*
D03*
X-279306Y303476D02*
D03*
X-271431Y287728D02*
D03*
X-275368Y315287D02*
D03*
X-263558Y275917D02*
D03*
X-267495Y279854D02*
D03*
X-259620D02*
D03*
X-267495Y299539D02*
D03*
X-263558Y311350D02*
D03*
X-259620Y283790D02*
D03*
Y323161D02*
D03*
X-255683Y275917D02*
D03*
X-251747Y279854D02*
D03*
X-239935Y275917D02*
D03*
X-243872Y291665D02*
D03*
X-255683Y295602D02*
D03*
X-251747Y307413D02*
D03*
X-239935Y303476D02*
D03*
X-247810Y319224D02*
D03*
X-239935Y240483D02*
D03*
Y244421D02*
D03*
Y252294D02*
D03*
X-235998Y240483D02*
D03*
X-239935Y256231D02*
D03*
Y264106D02*
D03*
Y268042D02*
D03*
X-232061Y244421D02*
D03*
X-224187Y240483D02*
D03*
Y248358D02*
D03*
X-232061Y252294D02*
D03*
X-216313Y244421D02*
D03*
Y252294D02*
D03*
X-232061Y260169D02*
D03*
X-224187Y256231D02*
D03*
Y264106D02*
D03*
X-232061Y268042D02*
D03*
X-216313Y260169D02*
D03*
Y268042D02*
D03*
X-235998Y275917D02*
D03*
X-232061D02*
D03*
Y287728D02*
D03*
Y279854D02*
D03*
X-228124D02*
D03*
Y299539D02*
D03*
X-224187Y271979D02*
D03*
Y279854D02*
D03*
X-220250D02*
D03*
X-216313Y275917D02*
D03*
Y279854D02*
D03*
X-220250Y283790D02*
D03*
X-224187Y311350D02*
D03*
X-216313Y295602D02*
D03*
X-208439Y240483D02*
D03*
Y248358D02*
D03*
Y264106D02*
D03*
Y256231D02*
D03*
Y271979D02*
D03*
X-212376Y279854D02*
D03*
X-208439D02*
D03*
X-212376Y307413D02*
D03*
X-235998Y315287D02*
D03*
X-220250Y323161D02*
D03*
X-208439Y319224D02*
D03*
X-287179Y208987D02*
D03*
X-283243D02*
D03*
X-243872Y307413D02*
D03*
X-338361Y319224D02*
D03*
Y315287D02*
D03*
Y311350D02*
D03*
Y307413D02*
D03*
Y303476D02*
D03*
Y299539D02*
D03*
Y295602D02*
D03*
Y291665D02*
D03*
Y287728D02*
D03*
Y275917D02*
D03*
Y268042D02*
D03*
Y260169D02*
D03*
Y252294D02*
D03*
Y244421D02*
D03*
Y236546D02*
D03*
Y228672D02*
D03*
Y220798D02*
D03*
Y216861D02*
D03*
Y212924D02*
D03*
Y208987D02*
D03*
Y205050D02*
D03*
Y201113D02*
D03*
Y197176D02*
D03*
Y193239D02*
D03*
X-334424Y323161D02*
D03*
Y319224D02*
D03*
Y315287D02*
D03*
Y311350D02*
D03*
Y307413D02*
D03*
Y303476D02*
D03*
Y299539D02*
D03*
Y291665D02*
D03*
Y287728D02*
D03*
Y283790D02*
D03*
Y275917D02*
D03*
Y271979D02*
D03*
Y268042D02*
D03*
Y264106D02*
D03*
Y260169D02*
D03*
Y256231D02*
D03*
Y252294D02*
D03*
Y248358D02*
D03*
Y244421D02*
D03*
Y240483D02*
D03*
Y236546D02*
D03*
Y228672D02*
D03*
Y224735D02*
D03*
Y220798D02*
D03*
Y216861D02*
D03*
Y212924D02*
D03*
Y208987D02*
D03*
Y205050D02*
D03*
Y201113D02*
D03*
Y193239D02*
D03*
X-330487Y323161D02*
D03*
Y319224D02*
D03*
Y315287D02*
D03*
Y311350D02*
D03*
Y303476D02*
D03*
Y299539D02*
D03*
Y295602D02*
D03*
Y291665D02*
D03*
Y287728D02*
D03*
Y283790D02*
D03*
Y271979D02*
D03*
Y264106D02*
D03*
Y256231D02*
D03*
Y248358D02*
D03*
Y240483D02*
D03*
Y228672D02*
D03*
Y224735D02*
D03*
Y220798D02*
D03*
Y216861D02*
D03*
Y212924D02*
D03*
Y205050D02*
D03*
Y201113D02*
D03*
Y197176D02*
D03*
Y193239D02*
D03*
X-326550Y323161D02*
D03*
Y315287D02*
D03*
Y311350D02*
D03*
Y307413D02*
D03*
Y303476D02*
D03*
Y299539D02*
D03*
Y295602D02*
D03*
Y291665D02*
D03*
Y287728D02*
D03*
Y283790D02*
D03*
Y275917D02*
D03*
Y271979D02*
D03*
Y268042D02*
D03*
Y264106D02*
D03*
Y260169D02*
D03*
Y256231D02*
D03*
Y252294D02*
D03*
Y248358D02*
D03*
Y244421D02*
D03*
Y240483D02*
D03*
Y232610D02*
D03*
Y228672D02*
D03*
Y224735D02*
D03*
Y216861D02*
D03*
Y212924D02*
D03*
Y208987D02*
D03*
Y205050D02*
D03*
Y201113D02*
D03*
Y197176D02*
D03*
Y193239D02*
D03*
X-322613Y323161D02*
D03*
Y319224D02*
D03*
Y315287D02*
D03*
Y311350D02*
D03*
Y307413D02*
D03*
Y303476D02*
D03*
Y299539D02*
D03*
Y295602D02*
D03*
Y287728D02*
D03*
Y283790D02*
D03*
Y275917D02*
D03*
Y268042D02*
D03*
Y260169D02*
D03*
Y252294D02*
D03*
Y244421D02*
D03*
Y228672D02*
D03*
Y224735D02*
D03*
Y220798D02*
D03*
Y216861D02*
D03*
Y212924D02*
D03*
Y208987D02*
D03*
Y205050D02*
D03*
Y201113D02*
D03*
Y197176D02*
D03*
X-318676Y323161D02*
D03*
Y319224D02*
D03*
Y315287D02*
D03*
Y311350D02*
D03*
Y307413D02*
D03*
Y299539D02*
D03*
Y295602D02*
D03*
Y291665D02*
D03*
Y287728D02*
D03*
Y283790D02*
D03*
Y275917D02*
D03*
Y271979D02*
D03*
Y268042D02*
D03*
Y264106D02*
D03*
Y260169D02*
D03*
Y256231D02*
D03*
Y252294D02*
D03*
Y248358D02*
D03*
Y244421D02*
D03*
Y240483D02*
D03*
Y232610D02*
D03*
Y228672D02*
D03*
Y224735D02*
D03*
Y220798D02*
D03*
Y216861D02*
D03*
Y212924D02*
D03*
Y208987D02*
D03*
Y201113D02*
D03*
Y197176D02*
D03*
Y193239D02*
D03*
X-314739Y323161D02*
D03*
Y319224D02*
D03*
Y311350D02*
D03*
Y307413D02*
D03*
Y303476D02*
D03*
Y299539D02*
D03*
Y295602D02*
D03*
Y291665D02*
D03*
Y287728D02*
D03*
Y283790D02*
D03*
Y271979D02*
D03*
Y264106D02*
D03*
Y256231D02*
D03*
Y248358D02*
D03*
Y240483D02*
D03*
Y232610D02*
D03*
Y228672D02*
D03*
Y224735D02*
D03*
Y220798D02*
D03*
Y212924D02*
D03*
Y208987D02*
D03*
Y205050D02*
D03*
Y201113D02*
D03*
Y197176D02*
D03*
Y193239D02*
D03*
X-310802Y323161D02*
D03*
Y319224D02*
D03*
Y315287D02*
D03*
Y311350D02*
D03*
Y307413D02*
D03*
Y303476D02*
D03*
Y299539D02*
D03*
Y295602D02*
D03*
Y291665D02*
D03*
Y283790D02*
D03*
Y279854D02*
D03*
Y271979D02*
D03*
Y268042D02*
D03*
Y264106D02*
D03*
Y260169D02*
D03*
Y256231D02*
D03*
Y252294D02*
D03*
Y248358D02*
D03*
Y244421D02*
D03*
Y232610D02*
D03*
Y224735D02*
D03*
Y220798D02*
D03*
Y216861D02*
D03*
Y212924D02*
D03*
Y208987D02*
D03*
Y205050D02*
D03*
Y201113D02*
D03*
Y197176D02*
D03*
Y193239D02*
D03*
X-306865Y323161D02*
D03*
Y319224D02*
D03*
Y315287D02*
D03*
Y311350D02*
D03*
Y307413D02*
D03*
Y303476D02*
D03*
Y295602D02*
D03*
Y291665D02*
D03*
Y287728D02*
D03*
Y283790D02*
D03*
Y279854D02*
D03*
Y236546D02*
D03*
Y232610D02*
D03*
Y228672D02*
D03*
Y224735D02*
D03*
Y220798D02*
D03*
Y216861D02*
D03*
Y212924D02*
D03*
Y208987D02*
D03*
Y205050D02*
D03*
Y197176D02*
D03*
Y193239D02*
D03*
X-302928Y323161D02*
D03*
Y319224D02*
D03*
Y315287D02*
D03*
Y307413D02*
D03*
Y303476D02*
D03*
Y299539D02*
D03*
Y295602D02*
D03*
Y291665D02*
D03*
Y287728D02*
D03*
Y283790D02*
D03*
Y279854D02*
D03*
Y275917D02*
D03*
Y271979D02*
D03*
Y264106D02*
D03*
Y256231D02*
D03*
Y248358D02*
D03*
Y244421D02*
D03*
Y240483D02*
D03*
Y236546D02*
D03*
Y232610D02*
D03*
Y228672D02*
D03*
Y224735D02*
D03*
Y220798D02*
D03*
Y216861D02*
D03*
Y208987D02*
D03*
Y205050D02*
D03*
Y201113D02*
D03*
Y197176D02*
D03*
Y193239D02*
D03*
X-298991Y319224D02*
D03*
Y315287D02*
D03*
Y311350D02*
D03*
Y307413D02*
D03*
Y303476D02*
D03*
Y299539D02*
D03*
Y295602D02*
D03*
Y291665D02*
D03*
Y287728D02*
D03*
Y279854D02*
D03*
Y275917D02*
D03*
Y268042D02*
D03*
Y260169D02*
D03*
Y252294D02*
D03*
Y244421D02*
D03*
Y240483D02*
D03*
Y236546D02*
D03*
Y232610D02*
D03*
Y228672D02*
D03*
Y220798D02*
D03*
Y216861D02*
D03*
Y212924D02*
D03*
Y208987D02*
D03*
Y205050D02*
D03*
Y201113D02*
D03*
Y197176D02*
D03*
Y193239D02*
D03*
X-295054Y323161D02*
D03*
Y319224D02*
D03*
Y315287D02*
D03*
Y311350D02*
D03*
Y307413D02*
D03*
Y303476D02*
D03*
Y299539D02*
D03*
Y291665D02*
D03*
Y287728D02*
D03*
Y283790D02*
D03*
Y279854D02*
D03*
Y271979D02*
D03*
Y264106D02*
D03*
Y256231D02*
D03*
Y248358D02*
D03*
Y240483D02*
D03*
Y232610D02*
D03*
Y228672D02*
D03*
Y224735D02*
D03*
Y220798D02*
D03*
Y216861D02*
D03*
Y212924D02*
D03*
Y208987D02*
D03*
Y205050D02*
D03*
Y201113D02*
D03*
Y193239D02*
D03*
X-291116Y323161D02*
D03*
Y319224D02*
D03*
Y315287D02*
D03*
Y311350D02*
D03*
Y303476D02*
D03*
Y299539D02*
D03*
Y295602D02*
D03*
Y291665D02*
D03*
Y287728D02*
D03*
Y283790D02*
D03*
Y275917D02*
D03*
Y268042D02*
D03*
Y260169D02*
D03*
Y252294D02*
D03*
Y244421D02*
D03*
Y236546D02*
D03*
Y232610D02*
D03*
Y228672D02*
D03*
Y224735D02*
D03*
Y220798D02*
D03*
Y216861D02*
D03*
Y212924D02*
D03*
Y205050D02*
D03*
Y201113D02*
D03*
Y197176D02*
D03*
Y193239D02*
D03*
X-287179Y323161D02*
D03*
Y315287D02*
D03*
Y311350D02*
D03*
Y307413D02*
D03*
Y303476D02*
D03*
Y299539D02*
D03*
Y295602D02*
D03*
Y291665D02*
D03*
Y287728D02*
D03*
Y283790D02*
D03*
Y279854D02*
D03*
Y271979D02*
D03*
Y264106D02*
D03*
Y256231D02*
D03*
Y248358D02*
D03*
Y240483D02*
D03*
Y232610D02*
D03*
Y228672D02*
D03*
Y224735D02*
D03*
Y216861D02*
D03*
Y212924D02*
D03*
Y205050D02*
D03*
Y201113D02*
D03*
Y197176D02*
D03*
Y193239D02*
D03*
X-283243Y323161D02*
D03*
Y319224D02*
D03*
Y315287D02*
D03*
Y311350D02*
D03*
Y307413D02*
D03*
Y303476D02*
D03*
Y299539D02*
D03*
Y295602D02*
D03*
Y287728D02*
D03*
Y283790D02*
D03*
Y275917D02*
D03*
Y268042D02*
D03*
Y260169D02*
D03*
Y252294D02*
D03*
Y244421D02*
D03*
Y236546D02*
D03*
Y228672D02*
D03*
Y224735D02*
D03*
Y220798D02*
D03*
Y216861D02*
D03*
Y212924D02*
D03*
Y205050D02*
D03*
Y201113D02*
D03*
Y197176D02*
D03*
X-279306Y323161D02*
D03*
Y319224D02*
D03*
Y315287D02*
D03*
Y311350D02*
D03*
Y307413D02*
D03*
Y299539D02*
D03*
Y295602D02*
D03*
Y291665D02*
D03*
Y287728D02*
D03*
Y283790D02*
D03*
Y279854D02*
D03*
Y271979D02*
D03*
Y264106D02*
D03*
Y256231D02*
D03*
Y248358D02*
D03*
Y240483D02*
D03*
Y232610D02*
D03*
Y228672D02*
D03*
Y224735D02*
D03*
Y220798D02*
D03*
Y216861D02*
D03*
Y212924D02*
D03*
Y208987D02*
D03*
Y201113D02*
D03*
Y197176D02*
D03*
Y193239D02*
D03*
X-275368Y323161D02*
D03*
Y319224D02*
D03*
Y311350D02*
D03*
Y307413D02*
D03*
Y303476D02*
D03*
Y299539D02*
D03*
Y295602D02*
D03*
Y291665D02*
D03*
Y287728D02*
D03*
Y283790D02*
D03*
Y275917D02*
D03*
Y268042D02*
D03*
Y256231D02*
D03*
Y252294D02*
D03*
Y244421D02*
D03*
Y236546D02*
D03*
Y232610D02*
D03*
Y228672D02*
D03*
Y224735D02*
D03*
Y220798D02*
D03*
Y212924D02*
D03*
Y208987D02*
D03*
Y205050D02*
D03*
Y201113D02*
D03*
Y197176D02*
D03*
Y193239D02*
D03*
X-271431Y323161D02*
D03*
Y319224D02*
D03*
Y315287D02*
D03*
Y311350D02*
D03*
Y307413D02*
D03*
Y303476D02*
D03*
Y299539D02*
D03*
Y295602D02*
D03*
Y291665D02*
D03*
Y283790D02*
D03*
Y279854D02*
D03*
Y271979D02*
D03*
Y264106D02*
D03*
Y260169D02*
D03*
Y248358D02*
D03*
Y240483D02*
D03*
Y232610D02*
D03*
Y224735D02*
D03*
Y220798D02*
D03*
Y216861D02*
D03*
Y212924D02*
D03*
Y208987D02*
D03*
Y205050D02*
D03*
Y201113D02*
D03*
Y197176D02*
D03*
Y193239D02*
D03*
X-267495Y323161D02*
D03*
Y319224D02*
D03*
Y315287D02*
D03*
Y311350D02*
D03*
Y307413D02*
D03*
Y303476D02*
D03*
Y295602D02*
D03*
Y291665D02*
D03*
Y287728D02*
D03*
Y283790D02*
D03*
Y275917D02*
D03*
Y268042D02*
D03*
Y260169D02*
D03*
Y256231D02*
D03*
Y252294D02*
D03*
Y244421D02*
D03*
Y236546D02*
D03*
Y232610D02*
D03*
Y228672D02*
D03*
Y224735D02*
D03*
Y220798D02*
D03*
Y216861D02*
D03*
Y212924D02*
D03*
Y208987D02*
D03*
Y205050D02*
D03*
Y197176D02*
D03*
Y193239D02*
D03*
X-263558Y323161D02*
D03*
Y319224D02*
D03*
Y315287D02*
D03*
Y307413D02*
D03*
Y303476D02*
D03*
Y299539D02*
D03*
Y295602D02*
D03*
Y291665D02*
D03*
Y287728D02*
D03*
Y283790D02*
D03*
Y279854D02*
D03*
Y271979D02*
D03*
Y264106D02*
D03*
Y256231D02*
D03*
Y248358D02*
D03*
Y240483D02*
D03*
Y232610D02*
D03*
Y228672D02*
D03*
Y224735D02*
D03*
Y220798D02*
D03*
Y216861D02*
D03*
Y208987D02*
D03*
Y205050D02*
D03*
Y201113D02*
D03*
Y197176D02*
D03*
Y193239D02*
D03*
X-259620Y319224D02*
D03*
Y315287D02*
D03*
Y311350D02*
D03*
Y307413D02*
D03*
Y303476D02*
D03*
Y299539D02*
D03*
Y295602D02*
D03*
Y291665D02*
D03*
Y287728D02*
D03*
Y275917D02*
D03*
Y268042D02*
D03*
Y260169D02*
D03*
Y252294D02*
D03*
Y244421D02*
D03*
Y236546D02*
D03*
Y232610D02*
D03*
Y228672D02*
D03*
Y220798D02*
D03*
Y216861D02*
D03*
Y212924D02*
D03*
Y208987D02*
D03*
Y205050D02*
D03*
Y201113D02*
D03*
Y197176D02*
D03*
Y193239D02*
D03*
X-255683Y323161D02*
D03*
Y319224D02*
D03*
Y315287D02*
D03*
Y311350D02*
D03*
Y307413D02*
D03*
Y303476D02*
D03*
Y299539D02*
D03*
Y291665D02*
D03*
Y287728D02*
D03*
Y283790D02*
D03*
Y279854D02*
D03*
Y271979D02*
D03*
Y264106D02*
D03*
Y256231D02*
D03*
Y248358D02*
D03*
Y240483D02*
D03*
Y232610D02*
D03*
Y228672D02*
D03*
Y224735D02*
D03*
Y220798D02*
D03*
Y216861D02*
D03*
Y212924D02*
D03*
Y208987D02*
D03*
Y205050D02*
D03*
Y201113D02*
D03*
Y193239D02*
D03*
X-251747Y323161D02*
D03*
Y319224D02*
D03*
Y315287D02*
D03*
Y311350D02*
D03*
Y303476D02*
D03*
Y299539D02*
D03*
Y295602D02*
D03*
Y291665D02*
D03*
Y287728D02*
D03*
Y283790D02*
D03*
Y275917D02*
D03*
Y268042D02*
D03*
Y260169D02*
D03*
Y252294D02*
D03*
Y244421D02*
D03*
Y236546D02*
D03*
Y232610D02*
D03*
Y228672D02*
D03*
Y224735D02*
D03*
Y220798D02*
D03*
Y216861D02*
D03*
Y212924D02*
D03*
Y205050D02*
D03*
Y201113D02*
D03*
Y197176D02*
D03*
Y193239D02*
D03*
X-247810Y323161D02*
D03*
Y315287D02*
D03*
Y311350D02*
D03*
Y307413D02*
D03*
Y303476D02*
D03*
Y299539D02*
D03*
Y295602D02*
D03*
Y291665D02*
D03*
Y287728D02*
D03*
Y283790D02*
D03*
Y279854D02*
D03*
Y275917D02*
D03*
Y271979D02*
D03*
Y264106D02*
D03*
Y256231D02*
D03*
Y248358D02*
D03*
Y240483D02*
D03*
Y236546D02*
D03*
Y232610D02*
D03*
Y228672D02*
D03*
Y224735D02*
D03*
Y216861D02*
D03*
Y212924D02*
D03*
Y208987D02*
D03*
Y205050D02*
D03*
Y201113D02*
D03*
Y197176D02*
D03*
Y193239D02*
D03*
X-243872Y323161D02*
D03*
Y319224D02*
D03*
Y315287D02*
D03*
Y311350D02*
D03*
Y303476D02*
D03*
Y299539D02*
D03*
Y295602D02*
D03*
Y287728D02*
D03*
Y283790D02*
D03*
Y279854D02*
D03*
Y275917D02*
D03*
Y271979D02*
D03*
Y268042D02*
D03*
Y260169D02*
D03*
Y252294D02*
D03*
Y244421D02*
D03*
Y236546D02*
D03*
Y228672D02*
D03*
Y224735D02*
D03*
Y220798D02*
D03*
Y216861D02*
D03*
Y212924D02*
D03*
Y208987D02*
D03*
Y205050D02*
D03*
Y201113D02*
D03*
Y197176D02*
D03*
X-239935Y323161D02*
D03*
Y319224D02*
D03*
Y315287D02*
D03*
Y311350D02*
D03*
Y307413D02*
D03*
Y299539D02*
D03*
Y295602D02*
D03*
Y291665D02*
D03*
Y287728D02*
D03*
Y283790D02*
D03*
Y279854D02*
D03*
Y236546D02*
D03*
Y232610D02*
D03*
Y228672D02*
D03*
Y224735D02*
D03*
Y220798D02*
D03*
Y216861D02*
D03*
Y212924D02*
D03*
Y208987D02*
D03*
Y201113D02*
D03*
Y197176D02*
D03*
Y193239D02*
D03*
X-235998Y323161D02*
D03*
Y319224D02*
D03*
Y311350D02*
D03*
Y307413D02*
D03*
Y303476D02*
D03*
Y299539D02*
D03*
Y295602D02*
D03*
Y291665D02*
D03*
Y287728D02*
D03*
Y283790D02*
D03*
Y279854D02*
D03*
Y271979D02*
D03*
Y268042D02*
D03*
Y264106D02*
D03*
Y260169D02*
D03*
Y256231D02*
D03*
Y252294D02*
D03*
Y248358D02*
D03*
Y244421D02*
D03*
Y232610D02*
D03*
Y228672D02*
D03*
Y224735D02*
D03*
Y220798D02*
D03*
Y212924D02*
D03*
Y208987D02*
D03*
Y205050D02*
D03*
Y201113D02*
D03*
Y197176D02*
D03*
Y193239D02*
D03*
X-232061Y323161D02*
D03*
Y319224D02*
D03*
Y315287D02*
D03*
Y311350D02*
D03*
Y307413D02*
D03*
Y303476D02*
D03*
Y299539D02*
D03*
Y295602D02*
D03*
Y291665D02*
D03*
Y283790D02*
D03*
Y271979D02*
D03*
Y264106D02*
D03*
Y256231D02*
D03*
Y248358D02*
D03*
Y240483D02*
D03*
Y232610D02*
D03*
Y224735D02*
D03*
Y220798D02*
D03*
Y216861D02*
D03*
Y212924D02*
D03*
Y208987D02*
D03*
Y205050D02*
D03*
Y201113D02*
D03*
Y197176D02*
D03*
Y193239D02*
D03*
X-228124Y323161D02*
D03*
Y319224D02*
D03*
Y315287D02*
D03*
Y311350D02*
D03*
Y307413D02*
D03*
Y303476D02*
D03*
Y295602D02*
D03*
Y291665D02*
D03*
Y287728D02*
D03*
Y283790D02*
D03*
Y275917D02*
D03*
Y271979D02*
D03*
Y268042D02*
D03*
Y264106D02*
D03*
Y260169D02*
D03*
Y256231D02*
D03*
Y252294D02*
D03*
Y248358D02*
D03*
Y244421D02*
D03*
Y240483D02*
D03*
Y232610D02*
D03*
Y228672D02*
D03*
Y224735D02*
D03*
Y220798D02*
D03*
Y216861D02*
D03*
Y212924D02*
D03*
Y208987D02*
D03*
Y205050D02*
D03*
X-224187Y323161D02*
D03*
Y319224D02*
D03*
Y315287D02*
D03*
Y307413D02*
D03*
Y303476D02*
D03*
Y299539D02*
D03*
Y295602D02*
D03*
Y291665D02*
D03*
Y287728D02*
D03*
Y283790D02*
D03*
Y275917D02*
D03*
Y268042D02*
D03*
Y260169D02*
D03*
Y252294D02*
D03*
Y244421D02*
D03*
Y228672D02*
D03*
Y224735D02*
D03*
Y220798D02*
D03*
Y216861D02*
D03*
Y208987D02*
D03*
Y205050D02*
D03*
Y201113D02*
D03*
Y197176D02*
D03*
Y193239D02*
D03*
X-220250Y319224D02*
D03*
Y315287D02*
D03*
Y311350D02*
D03*
Y307413D02*
D03*
Y303476D02*
D03*
Y299539D02*
D03*
Y295602D02*
D03*
Y291665D02*
D03*
Y287728D02*
D03*
Y275917D02*
D03*
Y271979D02*
D03*
Y268042D02*
D03*
Y264106D02*
D03*
Y260169D02*
D03*
Y256231D02*
D03*
Y252294D02*
D03*
Y248358D02*
D03*
Y244421D02*
D03*
Y240483D02*
D03*
Y232610D02*
D03*
Y228672D02*
D03*
Y220798D02*
D03*
Y216861D02*
D03*
Y212924D02*
D03*
Y208987D02*
D03*
Y205050D02*
D03*
Y201113D02*
D03*
Y197176D02*
D03*
Y193239D02*
D03*
X-216313Y323161D02*
D03*
Y319224D02*
D03*
Y315287D02*
D03*
Y311350D02*
D03*
Y307413D02*
D03*
Y303476D02*
D03*
Y299539D02*
D03*
Y291665D02*
D03*
Y287728D02*
D03*
Y283790D02*
D03*
Y271979D02*
D03*
Y264106D02*
D03*
Y256231D02*
D03*
Y248358D02*
D03*
Y240483D02*
D03*
Y228672D02*
D03*
Y224735D02*
D03*
Y220798D02*
D03*
Y216861D02*
D03*
Y212924D02*
D03*
Y208987D02*
D03*
Y205050D02*
D03*
Y201113D02*
D03*
Y193239D02*
D03*
X-212376Y323161D02*
D03*
Y319224D02*
D03*
Y315287D02*
D03*
Y311350D02*
D03*
Y303476D02*
D03*
Y299539D02*
D03*
Y295602D02*
D03*
Y291665D02*
D03*
Y287728D02*
D03*
Y283790D02*
D03*
Y275917D02*
D03*
Y271979D02*
D03*
Y268042D02*
D03*
Y264106D02*
D03*
Y260169D02*
D03*
Y256231D02*
D03*
Y252294D02*
D03*
Y248358D02*
D03*
Y244421D02*
D03*
Y240483D02*
D03*
Y236546D02*
D03*
Y228672D02*
D03*
Y224735D02*
D03*
Y220798D02*
D03*
Y216861D02*
D03*
Y212924D02*
D03*
Y205050D02*
D03*
Y201113D02*
D03*
Y197176D02*
D03*
Y193239D02*
D03*
X-208439Y323161D02*
D03*
Y315287D02*
D03*
Y311350D02*
D03*
Y307413D02*
D03*
Y303476D02*
D03*
Y299539D02*
D03*
Y295602D02*
D03*
Y291665D02*
D03*
Y287728D02*
D03*
Y283790D02*
D03*
Y275917D02*
D03*
Y268042D02*
D03*
Y260169D02*
D03*
Y252294D02*
D03*
Y244421D02*
D03*
Y236546D02*
D03*
Y228672D02*
D03*
Y224735D02*
D03*
Y216861D02*
D03*
Y212924D02*
D03*
Y208987D02*
D03*
Y205050D02*
D03*
Y201113D02*
D03*
Y197176D02*
D03*
Y193239D02*
D03*
X-228124Y197176D02*
D03*
Y193239D02*
D03*
X-378346Y-111221D02*
D03*
Y-71850D02*
D03*
D311*
X-117323Y-97933D02*
D03*
X-100787Y-97933D02*
D03*
Y-119587D02*
D03*
X-117323D02*
D03*
D312*
X-698100Y90608D02*
D03*
Y122792D02*
D03*
D313*
X-685797Y97940D02*
D03*
Y115460D02*
D03*
D314*
X-696260Y-131890D02*
D03*
X-629921Y430709D02*
D03*
D315*
X-625197Y-125787D02*
D03*
D725*
X-283367Y-114200D02*
D03*
X-288367D02*
D03*
X-293367D02*
D03*
X-298367D02*
D03*
Y-92153D02*
D03*
X-293367D02*
D03*
X-288367D02*
D03*
X-283367D02*
D03*
X-167165Y-82087D02*
D03*
Y-60039D02*
D03*
X-172165D02*
D03*
X-177165D02*
D03*
X-182165D02*
D03*
Y-82087D02*
D03*
X-177165D02*
D03*
X-172165D02*
D03*
X-252992Y-111811D02*
D03*
Y-89764D02*
D03*
X-257992D02*
D03*
X-262992D02*
D03*
X-267992D02*
D03*
Y-111811D02*
D03*
X-262992D02*
D03*
X-257992D02*
D03*
X-199686Y-110263D02*
D03*
Y-88216D02*
D03*
X-204686D02*
D03*
X-209686D02*
D03*
X-214686D02*
D03*
Y-110263D02*
D03*
X-209686D02*
D03*
X-204686D02*
D03*
X-128859Y-80538D02*
D03*
X-113859D02*
D03*
X-118859D02*
D03*
X-123859D02*
D03*
X-128859Y-58491D02*
D03*
X-123859D02*
D03*
X-118859D02*
D03*
X-113859D02*
D03*
X-336667Y-114570D02*
D03*
X-341667D02*
D03*
X-346667D02*
D03*
X-351667D02*
D03*
Y-92523D02*
D03*
X-346667D02*
D03*
X-341667D02*
D03*
X-336667D02*
D03*
D733*
X-51575Y-129921D02*
D03*
X-689764Y-111417D02*
D03*
D786*
X-205315Y60532D02*
G03*
X-205315Y60532I-1378J0D01*
G01*
X-206693Y58563D02*
Y62500D01*
X-208661Y60532D02*
X-204724D01*
D787*
X-339961Y436992D02*
D03*
D788*
X-350100Y372600D02*
D03*
X-371400Y380800D02*
D03*
X-341400Y423600D02*
D03*
D789*
X-54653Y-35109D02*
D03*
X-85316Y-37109D02*
D03*
D790*
X-45893Y-35109D02*
D03*
X-63413Y-35109D02*
D03*
D03*
X-94076Y-37108D02*
D03*
D03*
X-76556Y-37109D02*
D03*
D791*
X-65627Y-34026D02*
D03*
X-65627Y-36191D02*
D03*
X-43678Y-34026D02*
D03*
X-43678Y-36191D02*
D03*
X-74341Y-38191D02*
D03*
X-74341Y-36026D02*
D03*
X-96290Y-38191D02*
D03*
X-96290Y-36026D02*
D03*
D792*
X-584350Y-119980D02*
D03*
X-591634D02*
D03*
Y-132382D02*
D03*
X-584350D02*
D03*
D793*
X-42717Y-75098D02*
D03*
X-32480D02*
D03*
Y-71358D02*
D03*
Y-78839D02*
D03*
X-42717D02*
D03*
Y-71358D02*
D03*
X-36518Y40500D02*
D03*
X-26282D02*
D03*
X-36518Y36760D02*
D03*
Y44240D02*
D03*
X-26282D02*
D03*
Y36760D02*
D03*
D794*
X-51400Y175328D02*
D03*
X-55140Y166272D02*
D03*
X-47660D02*
D03*
D795*
X-153795Y190900D02*
D03*
D796*
X-159700D02*
D03*
X-147889Y187160D02*
D03*
Y190900D02*
D03*
Y194640D02*
D03*
X-159700D02*
D03*
Y187160D02*
D03*
D797*
X-206693Y60532D02*
D03*
D798*
X-197244Y70374D02*
D03*
Y68405D02*
D03*
Y66437D02*
D03*
Y64468D02*
D03*
Y62500D02*
D03*
Y60532D02*
D03*
Y58563D02*
D03*
Y56595D02*
D03*
Y54626D02*
D03*
Y52658D02*
D03*
Y50689D02*
D03*
X-216142D02*
D03*
Y52658D02*
D03*
Y54626D02*
D03*
Y56595D02*
D03*
Y58563D02*
D03*
Y60532D02*
D03*
Y62500D02*
D03*
Y64468D02*
D03*
Y66437D02*
D03*
Y68405D02*
D03*
Y70374D02*
D03*
D799*
X-335800Y-46412D02*
D03*
X-330800D02*
D03*
X-325800D02*
D03*
X-320800D02*
D03*
X-315800D02*
D03*
X-305800D02*
D03*
X-300800D02*
D03*
X-340800Y-30412D02*
D03*
Y-46412D02*
D03*
X-335800Y-30412D02*
D03*
X-330800D02*
D03*
X-325800D02*
D03*
X-320800D02*
D03*
X-315800D02*
D03*
X-310800D02*
D03*
Y-46412D02*
D03*
X-305800Y-30412D02*
D03*
X-300800D02*
D03*
X-295800D02*
D03*
Y-46412D02*
D03*
D800*
X-458868Y-82933D02*
D03*
X-453868Y-87933D02*
D03*
X-448868Y-77933D02*
D03*
X-458868D02*
D03*
X-453868Y-72933D02*
D03*
Y-67933D02*
D03*
X-458868Y-62933D02*
D03*
X-453868Y-52933D02*
D03*
X-448868Y-62933D02*
D03*
X-458868Y-47933D02*
D03*
Y-32933D02*
D03*
Y-17933D02*
D03*
X-453868Y-37933D02*
D03*
X-448868Y-32933D02*
D03*
Y-47933D02*
D03*
X-453868Y-22933D02*
D03*
Y-7933D02*
D03*
X-448868Y-17933D02*
D03*
X-458868Y-2933D02*
D03*
Y27067D02*
D03*
Y12067D02*
D03*
X-453868Y7067D02*
D03*
X-448868Y12067D02*
D03*
Y-2933D02*
D03*
X-453868Y22067D02*
D03*
Y37067D02*
D03*
X-448868Y27067D02*
D03*
X-458868Y42067D02*
D03*
X-448868D02*
D03*
X-453868Y52067D02*
D03*
X-458868Y57067D02*
D03*
X-448868D02*
D03*
X-453868Y67067D02*
D03*
X-458868Y72067D02*
D03*
Y87067D02*
D03*
Y102067D02*
D03*
X-453868Y82067D02*
D03*
X-448868Y72067D02*
D03*
Y87067D02*
D03*
X-453868Y97067D02*
D03*
Y107067D02*
D03*
X-448868Y102067D02*
D03*
X-443868Y-87933D02*
D03*
X-438868Y-82933D02*
D03*
Y-77933D02*
D03*
X-443868Y-67933D02*
D03*
Y-72933D02*
D03*
X-433868Y-87933D02*
D03*
Y-72933D02*
D03*
X-428868Y-77933D02*
D03*
X-443868Y-52933D02*
D03*
X-438868Y-62933D02*
D03*
X-443868Y-37933D02*
D03*
X-438868Y-47933D02*
D03*
X-433868Y-67933D02*
D03*
Y-52933D02*
D03*
X-428868Y-62933D02*
D03*
X-433868Y-37933D02*
D03*
X-428868Y-42933D02*
D03*
Y-82933D02*
D03*
X-423868Y-87933D02*
D03*
Y-67933D02*
D03*
Y-72933D02*
D03*
X-418868Y-82933D02*
D03*
X-413868Y-87933D02*
D03*
X-418868Y-77933D02*
D03*
X-413868Y-72933D02*
D03*
Y-67933D02*
D03*
X-428868Y-57933D02*
D03*
X-418868Y-62933D02*
D03*
Y-57933D02*
D03*
X-423868Y-47933D02*
D03*
Y-52933D02*
D03*
X-418868Y-37933D02*
D03*
Y-42933D02*
D03*
X-413868Y-52933D02*
D03*
Y-47933D02*
D03*
X-438868Y-32933D02*
D03*
X-443868Y-22933D02*
D03*
X-438868Y-17933D02*
D03*
X-433868Y-22933D02*
D03*
X-428868Y-27933D02*
D03*
X-423868Y-32933D02*
D03*
X-428868Y-12933D02*
D03*
X-443868Y-7933D02*
D03*
Y7067D02*
D03*
X-438868Y-2933D02*
D03*
Y12067D02*
D03*
X-443868Y22067D02*
D03*
X-433868Y-7933D02*
D03*
X-428868Y2067D02*
D03*
X-423868Y-7933D02*
D03*
X-433868Y7067D02*
D03*
Y22067D02*
D03*
X-423868Y12067D02*
D03*
X-428868Y17067D02*
D03*
X-423868Y-27933D02*
D03*
Y-12933D02*
D03*
X-418868Y-22933D02*
D03*
Y-17933D02*
D03*
X-413868Y-32933D02*
D03*
Y-27933D02*
D03*
Y-7933D02*
D03*
Y-12933D02*
D03*
X-423868Y7067D02*
D03*
X-418868Y-2933D02*
D03*
Y2067D02*
D03*
Y17067D02*
D03*
Y22067D02*
D03*
X-413868Y7067D02*
D03*
Y12067D02*
D03*
X-443868Y37067D02*
D03*
Y52067D02*
D03*
X-438868Y27067D02*
D03*
X-428868Y32067D02*
D03*
X-433868Y37067D02*
D03*
X-438868Y42067D02*
D03*
X-433868Y52067D02*
D03*
X-443868Y82067D02*
D03*
Y67067D02*
D03*
X-438868Y57067D02*
D03*
Y72067D02*
D03*
X-433868Y67067D02*
D03*
X-438868Y87067D02*
D03*
X-433868Y82067D02*
D03*
X-428868D02*
D03*
X-423868Y27067D02*
D03*
Y32067D02*
D03*
X-428868Y47067D02*
D03*
X-423868D02*
D03*
Y52067D02*
D03*
X-418868Y37067D02*
D03*
Y42067D02*
D03*
Y57067D02*
D03*
X-423868Y67067D02*
D03*
Y72067D02*
D03*
X-428868Y92067D02*
D03*
X-423868Y87067D02*
D03*
X-418868Y82067D02*
D03*
Y77067D02*
D03*
Y62067D02*
D03*
X-443868Y97067D02*
D03*
Y107067D02*
D03*
X-433868Y97067D02*
D03*
X-438868Y102067D02*
D03*
X-433868Y107067D02*
D03*
X-428868Y102067D02*
D03*
X-423868Y97067D02*
D03*
Y107067D02*
D03*
X-418868Y97067D02*
D03*
Y102067D02*
D03*
X-413868Y72067D02*
D03*
Y32067D02*
D03*
Y47067D02*
D03*
Y27067D02*
D03*
Y52067D02*
D03*
Y67067D02*
D03*
Y87067D02*
D03*
Y92067D02*
D03*
Y107067D02*
D03*
X-458868Y52067D02*
D03*
Y47067D02*
D03*
X-443868Y-77933D02*
D03*
X-453868D02*
D03*
X-418868Y107067D02*
D03*
Y92067D02*
D03*
Y87067D02*
D03*
Y72067D02*
D03*
Y67067D02*
D03*
Y52067D02*
D03*
Y47067D02*
D03*
Y32067D02*
D03*
Y27067D02*
D03*
Y12067D02*
D03*
Y7067D02*
D03*
Y-7933D02*
D03*
Y-12933D02*
D03*
Y-27933D02*
D03*
Y-32933D02*
D03*
Y-47933D02*
D03*
Y-52933D02*
D03*
Y-67933D02*
D03*
Y-72933D02*
D03*
Y-87933D02*
D03*
X-413868Y-82933D02*
D03*
Y-77933D02*
D03*
Y-62933D02*
D03*
Y-57933D02*
D03*
Y-42933D02*
D03*
Y-37933D02*
D03*
Y-22933D02*
D03*
Y-17933D02*
D03*
Y-2933D02*
D03*
Y2067D02*
D03*
Y17067D02*
D03*
Y22067D02*
D03*
Y37067D02*
D03*
Y42067D02*
D03*
Y57067D02*
D03*
Y62067D02*
D03*
Y77067D02*
D03*
Y82067D02*
D03*
Y97067D02*
D03*
Y102067D02*
D03*
X-423868Y-82933D02*
D03*
Y-77933D02*
D03*
Y-62933D02*
D03*
Y-57933D02*
D03*
Y-42933D02*
D03*
Y-37933D02*
D03*
Y-22933D02*
D03*
Y-17933D02*
D03*
Y-2933D02*
D03*
Y2067D02*
D03*
Y17067D02*
D03*
Y22067D02*
D03*
Y37067D02*
D03*
Y42067D02*
D03*
Y57067D02*
D03*
Y62067D02*
D03*
Y77067D02*
D03*
Y82067D02*
D03*
Y92067D02*
D03*
Y102067D02*
D03*
X-428868Y-87933D02*
D03*
Y-72933D02*
D03*
Y-67933D02*
D03*
Y-52933D02*
D03*
Y-47933D02*
D03*
Y-37933D02*
D03*
Y-32933D02*
D03*
Y-22933D02*
D03*
Y-17933D02*
D03*
Y-7933D02*
D03*
Y-2933D02*
D03*
Y7067D02*
D03*
Y12067D02*
D03*
Y22067D02*
D03*
Y27067D02*
D03*
Y37067D02*
D03*
Y42067D02*
D03*
Y52067D02*
D03*
Y57067D02*
D03*
Y62067D02*
D03*
Y67067D02*
D03*
Y72067D02*
D03*
Y77067D02*
D03*
Y87067D02*
D03*
Y97067D02*
D03*
Y107067D02*
D03*
X-433868Y-82933D02*
D03*
Y-77933D02*
D03*
Y-62933D02*
D03*
Y-57933D02*
D03*
Y-47933D02*
D03*
Y-42933D02*
D03*
Y-32933D02*
D03*
Y-27933D02*
D03*
Y-17933D02*
D03*
Y-12933D02*
D03*
Y-2933D02*
D03*
Y2067D02*
D03*
Y12067D02*
D03*
Y17067D02*
D03*
Y27067D02*
D03*
Y32067D02*
D03*
Y42067D02*
D03*
Y47067D02*
D03*
Y57067D02*
D03*
Y62067D02*
D03*
Y72067D02*
D03*
Y77067D02*
D03*
Y87067D02*
D03*
Y92067D02*
D03*
Y102067D02*
D03*
X-438868Y-87933D02*
D03*
Y-72933D02*
D03*
Y-67933D02*
D03*
Y-57933D02*
D03*
Y-52933D02*
D03*
Y-42933D02*
D03*
Y-37933D02*
D03*
Y-27933D02*
D03*
Y-22933D02*
D03*
Y-12933D02*
D03*
Y-7933D02*
D03*
Y2067D02*
D03*
Y7067D02*
D03*
Y17067D02*
D03*
Y22067D02*
D03*
Y32067D02*
D03*
Y37067D02*
D03*
Y47067D02*
D03*
Y52067D02*
D03*
Y62067D02*
D03*
Y67067D02*
D03*
Y77067D02*
D03*
Y82067D02*
D03*
Y92067D02*
D03*
Y97067D02*
D03*
Y107067D02*
D03*
X-443868Y-82933D02*
D03*
Y-62933D02*
D03*
Y-57933D02*
D03*
Y-47933D02*
D03*
Y-42933D02*
D03*
Y-32933D02*
D03*
Y-27933D02*
D03*
Y-17933D02*
D03*
Y-12933D02*
D03*
Y-2933D02*
D03*
Y2067D02*
D03*
Y12067D02*
D03*
Y17067D02*
D03*
Y27067D02*
D03*
Y32067D02*
D03*
Y42067D02*
D03*
Y47067D02*
D03*
Y57067D02*
D03*
Y62067D02*
D03*
Y72067D02*
D03*
Y77067D02*
D03*
Y87067D02*
D03*
Y92067D02*
D03*
Y102067D02*
D03*
X-448868Y-87933D02*
D03*
Y-82933D02*
D03*
Y-72933D02*
D03*
Y-67933D02*
D03*
Y-57933D02*
D03*
Y-52933D02*
D03*
Y-42933D02*
D03*
Y-37933D02*
D03*
Y-27933D02*
D03*
Y-22933D02*
D03*
Y-12933D02*
D03*
Y-7933D02*
D03*
Y2067D02*
D03*
Y7067D02*
D03*
Y17067D02*
D03*
Y22067D02*
D03*
Y32067D02*
D03*
Y37067D02*
D03*
Y47067D02*
D03*
Y52067D02*
D03*
Y62067D02*
D03*
Y67067D02*
D03*
Y77067D02*
D03*
Y82067D02*
D03*
Y92067D02*
D03*
Y97067D02*
D03*
Y107067D02*
D03*
X-453868Y-82933D02*
D03*
Y-62933D02*
D03*
Y-57933D02*
D03*
Y-47933D02*
D03*
Y-42933D02*
D03*
Y-32933D02*
D03*
Y-27933D02*
D03*
Y-17933D02*
D03*
Y-12933D02*
D03*
Y-2933D02*
D03*
Y2067D02*
D03*
Y12067D02*
D03*
Y17067D02*
D03*
Y27067D02*
D03*
Y32067D02*
D03*
Y42067D02*
D03*
Y47067D02*
D03*
Y57067D02*
D03*
Y62067D02*
D03*
Y72067D02*
D03*
Y77067D02*
D03*
Y87067D02*
D03*
Y92067D02*
D03*
Y102067D02*
D03*
X-458868Y-87933D02*
D03*
Y-72933D02*
D03*
Y-67933D02*
D03*
Y-57933D02*
D03*
Y-52933D02*
D03*
Y-42933D02*
D03*
Y-37933D02*
D03*
Y-27933D02*
D03*
Y-22933D02*
D03*
Y-12933D02*
D03*
Y-7933D02*
D03*
Y2067D02*
D03*
Y7067D02*
D03*
Y17067D02*
D03*
Y22067D02*
D03*
Y32067D02*
D03*
Y37067D02*
D03*
Y62067D02*
D03*
Y67067D02*
D03*
Y77067D02*
D03*
Y82067D02*
D03*
Y92067D02*
D03*
Y97067D02*
D03*
Y107067D02*
D03*
X-458868Y192658D02*
D03*
Y197658D02*
D03*
X-453868Y187658D02*
D03*
X-448868Y197658D02*
D03*
X-453868Y202658D02*
D03*
X-443868Y187658D02*
D03*
X-438868Y192658D02*
D03*
X-443868Y202658D02*
D03*
X-438868Y197658D02*
D03*
X-433868Y187658D02*
D03*
Y202658D02*
D03*
X-428868Y192658D02*
D03*
X-423868Y187658D02*
D03*
X-428868Y197658D02*
D03*
X-423868Y202658D02*
D03*
X-418868Y192658D02*
D03*
Y197658D02*
D03*
X-413868Y187658D02*
D03*
Y202658D02*
D03*
X-458868Y212658D02*
D03*
Y227658D02*
D03*
Y242658D02*
D03*
Y257658D02*
D03*
Y272658D02*
D03*
Y287658D02*
D03*
Y302658D02*
D03*
X-453868Y207658D02*
D03*
X-443868D02*
D03*
X-453868Y222658D02*
D03*
X-448868Y212658D02*
D03*
X-443868Y222658D02*
D03*
X-433868Y207658D02*
D03*
X-438868Y212658D02*
D03*
X-433868Y222658D02*
D03*
X-453868Y237658D02*
D03*
X-448868Y227658D02*
D03*
Y242658D02*
D03*
X-438868Y227658D02*
D03*
X-433868Y237658D02*
D03*
X-443868D02*
D03*
X-438868Y242658D02*
D03*
X-428868Y212658D02*
D03*
Y217658D02*
D03*
X-423868Y207658D02*
D03*
Y222658D02*
D03*
Y227658D02*
D03*
X-418868Y212658D02*
D03*
Y217658D02*
D03*
X-428868Y232658D02*
D03*
X-423868Y242658D02*
D03*
Y247658D02*
D03*
X-428868D02*
D03*
X-418868Y232658D02*
D03*
Y237658D02*
D03*
X-453868Y252658D02*
D03*
X-443868D02*
D03*
X-453868Y267658D02*
D03*
X-448868Y257658D02*
D03*
X-443868Y267658D02*
D03*
X-448868Y272658D02*
D03*
X-433868Y252658D02*
D03*
X-438868Y257658D02*
D03*
X-433868Y267658D02*
D03*
X-453868Y282658D02*
D03*
X-443868D02*
D03*
X-448868Y287658D02*
D03*
X-453868Y297658D02*
D03*
X-448868Y302658D02*
D03*
X-443868Y297658D02*
D03*
X-438868Y287658D02*
D03*
Y272658D02*
D03*
X-433868Y282658D02*
D03*
X-438868Y302658D02*
D03*
X-433868Y297658D02*
D03*
X-428868Y262658D02*
D03*
X-423868D02*
D03*
Y267658D02*
D03*
X-428868Y277658D02*
D03*
X-418868Y252658D02*
D03*
Y257658D02*
D03*
Y277658D02*
D03*
Y272658D02*
D03*
X-428868Y292658D02*
D03*
X-423868Y302658D02*
D03*
X-428868Y307658D02*
D03*
X-423868D02*
D03*
Y282658D02*
D03*
Y287658D02*
D03*
X-418868Y292658D02*
D03*
Y297658D02*
D03*
X-458868Y317658D02*
D03*
X-453868Y312658D02*
D03*
Y327658D02*
D03*
X-458868Y332658D02*
D03*
X-448868D02*
D03*
X-443868Y312658D02*
D03*
X-438868Y317658D02*
D03*
X-448868D02*
D03*
X-443868Y327658D02*
D03*
X-438868Y332658D02*
D03*
X-458868Y347658D02*
D03*
X-453868Y342658D02*
D03*
X-458868Y362658D02*
D03*
X-453868Y357658D02*
D03*
X-448868Y362658D02*
D03*
Y347658D02*
D03*
X-443868Y342658D02*
D03*
X-438868Y347658D02*
D03*
X-443868Y357658D02*
D03*
X-438868Y362658D02*
D03*
X-433868Y312658D02*
D03*
Y327658D02*
D03*
X-428868Y322658D02*
D03*
X-423868D02*
D03*
Y342658D02*
D03*
Y327658D02*
D03*
X-418868Y312658D02*
D03*
Y317658D02*
D03*
Y332658D02*
D03*
Y337658D02*
D03*
X-433868Y342658D02*
D03*
X-423868Y352658D02*
D03*
Y347658D02*
D03*
X-428868Y357658D02*
D03*
X-433868D02*
D03*
X-423868Y362658D02*
D03*
X-418868Y352658D02*
D03*
Y357658D02*
D03*
X-453868Y372658D02*
D03*
X-443868D02*
D03*
X-458868Y377658D02*
D03*
X-448868D02*
D03*
X-453868Y382658D02*
D03*
X-443868D02*
D03*
X-438868Y377658D02*
D03*
X-433868Y372658D02*
D03*
Y382658D02*
D03*
X-428868Y367658D02*
D03*
Y377658D02*
D03*
X-423868Y372658D02*
D03*
X-418868D02*
D03*
X-423868Y382658D02*
D03*
X-418868Y377658D02*
D03*
X-413868Y207658D02*
D03*
Y222658D02*
D03*
Y227658D02*
D03*
Y247658D02*
D03*
Y242658D02*
D03*
Y262658D02*
D03*
Y267658D02*
D03*
Y302658D02*
D03*
Y282658D02*
D03*
Y287658D02*
D03*
Y307658D02*
D03*
Y322658D02*
D03*
Y347658D02*
D03*
Y362658D02*
D03*
Y367658D02*
D03*
Y327658D02*
D03*
Y342658D02*
D03*
Y382658D02*
D03*
X-418868D02*
D03*
Y367658D02*
D03*
Y362658D02*
D03*
Y347658D02*
D03*
Y342658D02*
D03*
Y327658D02*
D03*
Y322658D02*
D03*
Y307658D02*
D03*
Y302658D02*
D03*
Y287658D02*
D03*
Y282658D02*
D03*
Y267658D02*
D03*
Y262658D02*
D03*
Y247658D02*
D03*
Y242658D02*
D03*
Y227658D02*
D03*
Y222658D02*
D03*
Y207658D02*
D03*
Y202658D02*
D03*
Y187658D02*
D03*
X-413868Y192658D02*
D03*
Y197658D02*
D03*
Y212658D02*
D03*
Y217658D02*
D03*
Y232658D02*
D03*
Y237658D02*
D03*
Y252658D02*
D03*
Y257658D02*
D03*
Y272658D02*
D03*
Y277658D02*
D03*
Y292658D02*
D03*
Y297658D02*
D03*
Y312658D02*
D03*
Y317658D02*
D03*
Y332658D02*
D03*
Y337658D02*
D03*
Y352658D02*
D03*
Y357658D02*
D03*
Y372658D02*
D03*
Y377658D02*
D03*
X-423868Y192658D02*
D03*
Y197658D02*
D03*
Y212658D02*
D03*
Y217658D02*
D03*
Y232658D02*
D03*
Y237658D02*
D03*
Y252658D02*
D03*
Y257658D02*
D03*
Y272658D02*
D03*
Y277658D02*
D03*
Y292658D02*
D03*
Y297658D02*
D03*
Y312658D02*
D03*
Y317658D02*
D03*
Y332658D02*
D03*
Y337658D02*
D03*
Y357658D02*
D03*
Y367658D02*
D03*
Y377658D02*
D03*
X-428868Y187658D02*
D03*
Y202658D02*
D03*
Y207658D02*
D03*
Y222658D02*
D03*
Y227658D02*
D03*
Y237658D02*
D03*
Y242658D02*
D03*
Y252658D02*
D03*
Y257658D02*
D03*
Y267658D02*
D03*
Y272658D02*
D03*
Y282658D02*
D03*
Y287658D02*
D03*
Y297658D02*
D03*
Y302658D02*
D03*
Y312658D02*
D03*
Y317658D02*
D03*
Y327658D02*
D03*
Y332658D02*
D03*
Y337658D02*
D03*
Y342658D02*
D03*
Y347658D02*
D03*
Y352658D02*
D03*
Y362658D02*
D03*
Y372658D02*
D03*
Y382658D02*
D03*
X-433868Y192658D02*
D03*
Y197658D02*
D03*
Y212658D02*
D03*
Y217658D02*
D03*
Y227658D02*
D03*
Y232658D02*
D03*
Y242658D02*
D03*
Y247658D02*
D03*
Y257658D02*
D03*
Y262658D02*
D03*
Y272658D02*
D03*
Y277658D02*
D03*
Y287658D02*
D03*
Y292658D02*
D03*
Y302658D02*
D03*
Y307658D02*
D03*
Y317658D02*
D03*
Y322658D02*
D03*
Y332658D02*
D03*
Y337658D02*
D03*
Y347658D02*
D03*
Y352658D02*
D03*
Y362658D02*
D03*
Y367658D02*
D03*
Y377658D02*
D03*
X-438868Y187658D02*
D03*
Y202658D02*
D03*
Y207658D02*
D03*
Y217658D02*
D03*
Y222658D02*
D03*
Y232658D02*
D03*
Y237658D02*
D03*
Y247658D02*
D03*
Y252658D02*
D03*
Y262658D02*
D03*
Y267658D02*
D03*
Y277658D02*
D03*
Y282658D02*
D03*
Y292658D02*
D03*
Y297658D02*
D03*
Y307658D02*
D03*
Y312658D02*
D03*
Y322658D02*
D03*
Y327658D02*
D03*
Y337658D02*
D03*
Y342658D02*
D03*
Y352658D02*
D03*
Y357658D02*
D03*
Y367658D02*
D03*
Y372658D02*
D03*
Y382658D02*
D03*
X-443868Y192658D02*
D03*
Y197658D02*
D03*
Y212658D02*
D03*
Y217658D02*
D03*
Y227658D02*
D03*
Y232658D02*
D03*
Y242658D02*
D03*
Y247658D02*
D03*
Y257658D02*
D03*
Y262658D02*
D03*
Y272658D02*
D03*
Y277658D02*
D03*
Y287658D02*
D03*
Y292658D02*
D03*
Y302658D02*
D03*
Y307658D02*
D03*
Y317658D02*
D03*
Y322658D02*
D03*
Y332658D02*
D03*
Y337658D02*
D03*
Y347658D02*
D03*
Y352658D02*
D03*
Y362658D02*
D03*
Y367658D02*
D03*
Y377658D02*
D03*
X-448868Y187658D02*
D03*
Y192658D02*
D03*
Y202658D02*
D03*
Y207658D02*
D03*
Y217658D02*
D03*
Y222658D02*
D03*
Y232658D02*
D03*
Y237658D02*
D03*
Y247658D02*
D03*
Y252658D02*
D03*
Y262658D02*
D03*
Y267658D02*
D03*
Y277658D02*
D03*
Y282658D02*
D03*
Y292658D02*
D03*
Y297658D02*
D03*
Y307658D02*
D03*
Y312658D02*
D03*
Y322658D02*
D03*
Y327658D02*
D03*
Y337658D02*
D03*
Y342658D02*
D03*
Y352658D02*
D03*
Y357658D02*
D03*
Y367658D02*
D03*
Y372658D02*
D03*
Y382658D02*
D03*
X-453868Y192658D02*
D03*
Y197658D02*
D03*
Y212658D02*
D03*
Y217658D02*
D03*
Y227658D02*
D03*
Y232658D02*
D03*
Y242658D02*
D03*
Y247658D02*
D03*
Y257658D02*
D03*
Y262658D02*
D03*
Y272658D02*
D03*
Y277658D02*
D03*
Y287658D02*
D03*
Y292658D02*
D03*
Y302658D02*
D03*
Y307658D02*
D03*
Y317658D02*
D03*
Y322658D02*
D03*
Y332658D02*
D03*
Y337658D02*
D03*
Y347658D02*
D03*
Y352658D02*
D03*
Y362658D02*
D03*
Y367658D02*
D03*
Y377658D02*
D03*
X-458868Y187658D02*
D03*
Y217658D02*
D03*
Y222658D02*
D03*
Y232658D02*
D03*
Y237658D02*
D03*
Y247658D02*
D03*
Y252658D02*
D03*
Y262658D02*
D03*
Y267658D02*
D03*
Y277658D02*
D03*
Y282658D02*
D03*
Y292658D02*
D03*
Y297658D02*
D03*
Y307658D02*
D03*
Y312658D02*
D03*
Y322658D02*
D03*
Y327658D02*
D03*
Y337658D02*
D03*
Y342658D02*
D03*
Y352658D02*
D03*
Y357658D02*
D03*
Y367658D02*
D03*
Y372658D02*
D03*
Y382658D02*
D03*
Y207658D02*
D03*
Y202658D02*
D03*
D801*
X-240940Y-108777D02*
D03*
X-225586D02*
D03*
X-240940Y-98935D02*
D03*
Y-100903D02*
D03*
Y-102872D02*
D03*
Y-104840D02*
D03*
Y-106809D02*
D03*
X-225586D02*
D03*
Y-104840D02*
D03*
Y-102872D02*
D03*
Y-100903D02*
D03*
Y-98935D02*
D03*
X-324621Y-112714D02*
D03*
X-309267D02*
D03*
X-324621Y-102872D02*
D03*
Y-104840D02*
D03*
Y-106809D02*
D03*
Y-108777D02*
D03*
Y-110746D02*
D03*
X-309267D02*
D03*
Y-108777D02*
D03*
Y-106809D02*
D03*
Y-104840D02*
D03*
Y-102872D02*
D03*
X-139759Y-73147D02*
D03*
Y-79053D02*
D03*
X-155113D02*
D03*
Y-69210D02*
D03*
Y-71179D02*
D03*
Y-73147D02*
D03*
Y-75116D02*
D03*
Y-77084D02*
D03*
X-139759D02*
D03*
Y-75116D02*
D03*
Y-71179D02*
D03*
Y-69210D02*
D03*
D802*
X-233263Y-103856D02*
D03*
X-316944Y-107793D02*
D03*
X-147436Y-74131D02*
D03*
D803*
X-234247Y-96179D02*
D03*
X-232279D02*
D03*
X-238184Y-111533D02*
D03*
X-236216D02*
D03*
X-234247D02*
D03*
X-232279D02*
D03*
X-230310D02*
D03*
X-228342D02*
D03*
Y-96179D02*
D03*
X-230310D02*
D03*
X-236216D02*
D03*
X-238184D02*
D03*
X-317929Y-100116D02*
D03*
X-315960D02*
D03*
X-321866Y-115470D02*
D03*
X-319897D02*
D03*
X-317929D02*
D03*
X-315960D02*
D03*
X-313991D02*
D03*
X-312023D02*
D03*
Y-100116D02*
D03*
X-313991D02*
D03*
X-319897D02*
D03*
X-321866D02*
D03*
X-148421Y-66454D02*
D03*
X-146452D02*
D03*
X-152358Y-81809D02*
D03*
X-150389D02*
D03*
X-148421D02*
D03*
X-146452D02*
D03*
X-144484D02*
D03*
X-142515D02*
D03*
Y-66454D02*
D03*
X-144484D02*
D03*
X-150389D02*
D03*
X-152358D02*
D03*
D804*
X-386713Y-107283D02*
D03*
Y-115157D02*
D03*
Y-99410D02*
D03*
Y-91535D02*
D03*
Y-83661D02*
D03*
Y-75787D02*
D03*
Y-67913D02*
D03*
X-369980Y-115157D02*
D03*
Y-107283D02*
D03*
Y-99410D02*
D03*
Y-83661D02*
D03*
Y-75787D02*
D03*
Y-67913D02*
D03*
Y-91535D02*
D03*
D805*
X-222835Y-70866D02*
D03*
X-200984D02*
D03*
X-137008Y-41142D02*
D03*
X-115157D02*
D03*
X-306516Y-74803D02*
D03*
X-284665D02*
D03*
X-329417Y-75740D02*
D03*
X-351267D02*
D03*
X-181759Y-42079D02*
D03*
X-159909D02*
D03*
X-267586Y-71803D02*
D03*
X-245736D02*
D03*
D806*
X-183492Y58366D02*
D03*
X-141405D02*
D03*
D807*
X-137300Y-128171D02*
D03*
Y-112029D02*
D03*
D808*
X-356435Y50400D02*
D03*
X-331239D02*
D03*
D809*
X-297184Y379332D02*
D03*
Y382481D02*
D03*
X-294035D02*
D03*
X-275137D02*
D03*
Y379332D02*
D03*
X-297184Y388781D02*
D03*
Y410828D02*
D03*
Y404529D02*
D03*
Y417127D02*
D03*
X-294035Y395080D02*
D03*
X-271988Y385631D02*
D03*
X-275137Y388781D02*
D03*
Y395080D02*
D03*
X-271988Y417127D02*
D03*
Y410828D02*
D03*
Y388781D02*
D03*
Y404529D02*
D03*
X-275137Y417127D02*
D03*
X-278287D02*
D03*
X-290885D02*
D03*
X-294035D02*
D03*
X-271988Y413977D02*
D03*
X-275137D02*
D03*
X-278287D02*
D03*
X-290885D02*
D03*
X-294035D02*
D03*
X-297184D02*
D03*
X-275137Y410828D02*
D03*
X-278287D02*
D03*
X-290885D02*
D03*
X-294035D02*
D03*
X-271988Y407678D02*
D03*
X-275137D02*
D03*
X-278287D02*
D03*
X-290885D02*
D03*
X-294035D02*
D03*
X-297184D02*
D03*
X-275137Y404529D02*
D03*
X-278287D02*
D03*
X-290885D02*
D03*
X-294035D02*
D03*
X-271988Y401379D02*
D03*
X-275137D02*
D03*
X-278287D02*
D03*
X-290885D02*
D03*
X-294035D02*
D03*
X-297184D02*
D03*
X-271988Y398230D02*
D03*
X-275137D02*
D03*
X-278287D02*
D03*
X-290885D02*
D03*
X-294035D02*
D03*
X-297184D02*
D03*
X-271988Y395080D02*
D03*
X-278287D02*
D03*
X-290885D02*
D03*
X-297184D02*
D03*
X-271988Y391930D02*
D03*
X-275137D02*
D03*
X-278287D02*
D03*
X-290885D02*
D03*
X-294035D02*
D03*
X-297184D02*
D03*
X-278287Y388781D02*
D03*
X-290885D02*
D03*
X-294035D02*
D03*
X-275137Y385631D02*
D03*
X-278287D02*
D03*
X-290885D02*
D03*
X-294035D02*
D03*
X-297184D02*
D03*
X-271988Y382481D02*
D03*
X-278287D02*
D03*
X-290885D02*
D03*
X-271988Y379332D02*
D03*
X-278287D02*
D03*
X-290885D02*
D03*
X-294035D02*
D03*
X-168936Y379383D02*
D03*
X-146889D02*
D03*
X-168936Y382532D02*
D03*
X-165787D02*
D03*
X-146889D02*
D03*
X-143739Y385682D02*
D03*
X-168936Y404580D02*
D03*
Y388832D02*
D03*
X-146889D02*
D03*
Y395131D02*
D03*
X-165787D02*
D03*
X-168936Y417178D02*
D03*
Y410879D02*
D03*
X-143739Y388832D02*
D03*
Y404580D02*
D03*
Y410879D02*
D03*
Y417178D02*
D03*
X-146889D02*
D03*
X-150039D02*
D03*
X-162637D02*
D03*
X-165787D02*
D03*
X-143739Y414028D02*
D03*
X-146889D02*
D03*
X-150039D02*
D03*
X-162637D02*
D03*
X-165787D02*
D03*
X-168936D02*
D03*
X-146889Y410879D02*
D03*
X-150039D02*
D03*
X-162637D02*
D03*
X-165787D02*
D03*
X-143739Y407729D02*
D03*
X-146889D02*
D03*
X-150039D02*
D03*
X-162637D02*
D03*
X-165787D02*
D03*
X-168936D02*
D03*
X-146889Y404580D02*
D03*
X-150039D02*
D03*
X-162637D02*
D03*
X-165787D02*
D03*
X-143739Y401430D02*
D03*
X-146889D02*
D03*
X-150039D02*
D03*
X-162637D02*
D03*
X-165787D02*
D03*
X-168936D02*
D03*
X-143739Y398280D02*
D03*
X-146889D02*
D03*
X-150039D02*
D03*
X-162637D02*
D03*
X-165787D02*
D03*
X-168936D02*
D03*
X-143739Y395131D02*
D03*
X-150039D02*
D03*
X-162637D02*
D03*
X-168936D02*
D03*
X-143739Y391981D02*
D03*
X-146889D02*
D03*
X-150039D02*
D03*
X-162637D02*
D03*
X-165787D02*
D03*
X-168936D02*
D03*
X-150039Y388832D02*
D03*
X-162637D02*
D03*
X-165787D02*
D03*
X-146889Y385682D02*
D03*
X-150039D02*
D03*
X-162637D02*
D03*
X-165787D02*
D03*
X-168936D02*
D03*
X-143739Y382532D02*
D03*
X-150039D02*
D03*
X-162637D02*
D03*
X-143739Y379383D02*
D03*
X-150039D02*
D03*
X-162637D02*
D03*
X-165787D02*
D03*
X-211652Y379384D02*
D03*
Y382534D02*
D03*
X-189605D02*
D03*
X-208503D02*
D03*
X-189605Y379384D02*
D03*
X-186455Y385683D02*
D03*
X-211652Y388833D02*
D03*
X-189605D02*
D03*
Y395132D02*
D03*
X-208503D02*
D03*
X-186455Y388833D02*
D03*
X-211652Y410880D02*
D03*
Y404581D02*
D03*
Y417180D02*
D03*
X-186455Y410880D02*
D03*
Y404581D02*
D03*
Y417180D02*
D03*
X-189605D02*
D03*
X-192754D02*
D03*
X-205353D02*
D03*
X-208503D02*
D03*
X-186455Y414030D02*
D03*
X-189605D02*
D03*
X-192754D02*
D03*
X-205353D02*
D03*
X-208503D02*
D03*
X-211652D02*
D03*
X-189605Y410880D02*
D03*
X-192754D02*
D03*
X-205353D02*
D03*
X-208503D02*
D03*
X-186455Y407731D02*
D03*
X-189605D02*
D03*
X-192754D02*
D03*
X-205353D02*
D03*
X-208503D02*
D03*
X-211652D02*
D03*
X-189605Y404581D02*
D03*
X-192754D02*
D03*
X-205353D02*
D03*
X-208503D02*
D03*
X-186455Y401432D02*
D03*
X-189605D02*
D03*
X-192754D02*
D03*
X-205353D02*
D03*
X-208503D02*
D03*
X-211652D02*
D03*
X-186455Y398282D02*
D03*
X-189605D02*
D03*
X-192754D02*
D03*
X-205353D02*
D03*
X-208503D02*
D03*
X-211652D02*
D03*
X-186455Y395132D02*
D03*
X-192754D02*
D03*
X-205353D02*
D03*
X-211652D02*
D03*
X-186455Y391983D02*
D03*
X-189605D02*
D03*
X-192754D02*
D03*
X-205353D02*
D03*
X-208503D02*
D03*
X-211652D02*
D03*
X-192754Y388833D02*
D03*
X-205353D02*
D03*
X-208503D02*
D03*
X-189605Y385683D02*
D03*
X-192754D02*
D03*
X-205353D02*
D03*
X-208503D02*
D03*
X-211652D02*
D03*
X-186455Y382534D02*
D03*
X-192754D02*
D03*
X-205353D02*
D03*
X-186455Y379384D02*
D03*
X-192754D02*
D03*
X-205353D02*
D03*
X-208503D02*
D03*
X-254235Y379335D02*
D03*
Y382485D02*
D03*
X-251086D02*
D03*
X-254235Y388784D02*
D03*
Y404532D02*
D03*
Y410831D02*
D03*
Y417131D02*
D03*
X-251086Y395083D02*
D03*
X-232188Y379335D02*
D03*
Y382485D02*
D03*
X-229039Y385635D02*
D03*
X-232188Y388784D02*
D03*
X-229039D02*
D03*
X-232188Y395083D02*
D03*
X-229039Y404532D02*
D03*
Y417131D02*
D03*
Y410831D02*
D03*
X-232188Y417131D02*
D03*
X-235338D02*
D03*
X-247936D02*
D03*
X-251086D02*
D03*
X-229039Y413981D02*
D03*
X-232188D02*
D03*
X-235338D02*
D03*
X-247936D02*
D03*
X-251086D02*
D03*
X-254235D02*
D03*
X-232188Y410831D02*
D03*
X-235338D02*
D03*
X-247936D02*
D03*
X-251086D02*
D03*
X-229039Y407682D02*
D03*
X-232188D02*
D03*
X-235338D02*
D03*
X-247936D02*
D03*
X-251086D02*
D03*
X-254235D02*
D03*
X-232188Y404532D02*
D03*
X-235338D02*
D03*
X-247936D02*
D03*
X-251086D02*
D03*
X-229039Y401383D02*
D03*
X-232188D02*
D03*
X-235338D02*
D03*
X-247936D02*
D03*
X-251086D02*
D03*
X-254235D02*
D03*
X-229039Y398233D02*
D03*
X-232188D02*
D03*
X-235338D02*
D03*
X-247936D02*
D03*
X-251086D02*
D03*
X-254235D02*
D03*
X-229039Y395083D02*
D03*
X-235338D02*
D03*
X-247936D02*
D03*
X-254235D02*
D03*
X-229039Y391934D02*
D03*
X-232188D02*
D03*
X-235338D02*
D03*
X-247936D02*
D03*
X-251086D02*
D03*
X-254235D02*
D03*
X-235338Y388784D02*
D03*
X-247936D02*
D03*
X-251086D02*
D03*
X-232188Y385635D02*
D03*
X-235338D02*
D03*
X-247936D02*
D03*
X-251086D02*
D03*
X-254235D02*
D03*
X-229039Y382485D02*
D03*
X-235338D02*
D03*
X-247936D02*
D03*
X-229039Y379335D02*
D03*
X-235338D02*
D03*
X-247936D02*
D03*
X-251086D02*
D03*
D810*
X-393204Y415200D02*
D03*
D811*
X-374700D02*
D03*
X-411708D02*
D03*
D812*
X-6693Y118110D02*
D03*
Y-118110D02*
D03*
D813*
X-13189Y118110D02*
D03*
Y-118110D02*
D03*
D814*
X-157972Y319390D02*
D03*
Y294980D02*
D03*
D815*
X-90426Y201033D02*
D03*
X-93261Y203412D02*
D03*
D816*
Y207605D02*
D03*
X-90426Y209984D02*
D03*
D817*
X-371500Y247800D02*
D03*
X-248000Y78300D02*
D03*
X-400900Y389100D02*
D03*
X-387200Y110600D02*
D03*
X-387100Y247800D02*
D03*
X-307300Y354800D02*
D03*
X-207800Y141500D02*
D03*
D818*
X-93458Y203608D02*
D03*
X-94724Y200131D02*
D03*
D819*
X-93458Y207408D02*
D03*
X-94724Y210886D02*
D03*
M02*
