G04*
G04 #@! TF.GenerationSoftware,Altium Limited,Altium Designer,26.9.1 (10)*
G04*
G04 Layer_Color=8388736*
G04 Board_Origin=228582677|171948819*
%FSLAX25Y25*%
%MOIN*%
G70*
G04*
G04 #@! TF.SameCoordinates,E3EC17CC-C219-4159-93A9-5CFFCA6C23C4*
G04*
G04*
G04 #@! TF.FilePolarity,Negative*
G04*
G01*
G75*
%ADD77R,0.03703X0.08268*%
%ADD78R,0.08268X0.03703*%
%ADD100R,0.01181X0.03898*%
%ADD101R,0.10984X0.02913*%
%ADD102R,0.02559X0.03347*%
%ADD103P,0.05568X4X360.0*%
%ADD161R,4.66535X0.03969*%
%ADD162R,1.18110X0.03969*%
%ADD163R,0.07980X0.05618*%
%ADD164R,0.08768X0.04437*%
%ADD165R,0.23532X0.22154*%
%ADD166O,0.03847X0.01602*%
%ADD167O,0.01602X0.03847*%
%ADD168R,0.08571X0.16445*%
%ADD169R,0.03571X0.02075*%
%ADD170R,0.01406X0.03354*%
G04:AMPARAMS|DCode=171|XSize=34.53mil|YSize=34.53mil|CornerRadius=9.88mil|HoleSize=0mil|Usage=FLASHONLY|Rotation=90.000|XOffset=0mil|YOffset=0mil|HoleType=Round|Shape=RoundedRectangle|*
%AMROUNDEDRECTD171*
21,1,0.03453,0.01476,0,0,90.0*
21,1,0.01476,0.03453,0,0,90.0*
1,1,0.01976,0.00738,0.00738*
1,1,0.01976,0.00738,-0.00738*
1,1,0.01976,-0.00738,-0.00738*
1,1,0.01976,-0.00738,0.00738*
%
%ADD171ROUNDEDRECTD171*%
%ADD172R,0.02665X0.06602*%
%ADD173R,0.04634X0.02862*%
%ADD174R,0.02862X0.04831*%
%ADD175R,0.04634X0.03059*%
%ADD176R,0.04437X0.02862*%
%ADD177R,0.04240X0.02075*%
%ADD178R,0.05618X0.02862*%
%ADD179R,0.05618X0.04437*%
%ADD180R,0.06406X0.02272*%
%ADD181R,0.06209X0.02272*%
%ADD182R,0.04831X0.02075*%
%ADD183R,0.06406X0.01681*%
%ADD184R,0.03847X0.01681*%
%ADD185R,0.01681X0.03847*%
%ADD186R,0.10343X0.07390*%
%ADD187R,0.06602X0.02862*%
%ADD188R,0.02862X0.08374*%
%ADD189R,0.08374X0.02862*%
%ADD190R,0.02468X0.03453*%
%ADD191R,0.02468X0.04043*%
%ADD192R,0.05500X0.13020*%
%ADD193R,0.04437X0.04043*%
%ADD194R,0.02862X0.02862*%
%ADD195R,0.02941X0.02784*%
%ADD196R,0.02311X0.02153*%
%ADD197C,0.00129*%
%ADD198C,0.00063*%
%ADD199C,0.00072*%
%ADD200R,0.01681X0.06406*%
%ADD201O,0.01878X0.04634*%
%ADD202O,0.04634X0.01878*%
%ADD203R,0.09358X0.09358*%
%ADD204O,0.04043X0.01681*%
%ADD205O,0.01681X0.04043*%
%ADD206R,0.09161X0.09161*%
%ADD207O,0.03453X0.01681*%
%ADD208O,0.01681X0.03453*%
%ADD209R,0.07783X0.07783*%
%ADD210O,0.01287X0.03650*%
%ADD211O,0.03650X0.01287*%
%ADD212O,0.04043X0.01287*%
%ADD213R,0.05618X0.06583*%
%ADD214R,0.08965X0.07193*%
%ADD215R,0.08177X0.06602*%
%ADD216R,0.03453X0.07587*%
%ADD217R,0.07193X0.03650*%
G04:AMPARAMS|DCode=218|XSize=14.45mil|YSize=40.43mil|CornerRadius=4.86mil|HoleSize=0mil|Usage=FLASHONLY|Rotation=180.000|XOffset=0mil|YOffset=0mil|HoleType=Round|Shape=RoundedRectangle|*
%AMROUNDEDRECTD218*
21,1,0.01445,0.03071,0,0,180.0*
21,1,0.00472,0.04043,0,0,180.0*
1,1,0.00972,-0.00236,0.01535*
1,1,0.00972,0.00236,0.01535*
1,1,0.00972,0.00236,-0.01535*
1,1,0.00972,-0.00236,-0.01535*
%
%ADD218ROUNDEDRECTD218*%
G04:AMPARAMS|DCode=219|XSize=14.45mil|YSize=40.43mil|CornerRadius=4.86mil|HoleSize=0mil|Usage=FLASHONLY|Rotation=90.000|XOffset=0mil|YOffset=0mil|HoleType=Round|Shape=RoundedRectangle|*
%AMROUNDEDRECTD219*
21,1,0.01445,0.03071,0,0,90.0*
21,1,0.00472,0.04043,0,0,90.0*
1,1,0.00972,0.01535,0.00236*
1,1,0.00972,0.01535,-0.00236*
1,1,0.00972,-0.01535,-0.00236*
1,1,0.00972,-0.01535,0.00236*
%
%ADD219ROUNDEDRECTD219*%
G04:AMPARAMS|DCode=220|XSize=129.02mil|YSize=129.02mil|CornerRadius=5.6mil|HoleSize=0mil|Usage=FLASHONLY|Rotation=90.000|XOffset=0mil|YOffset=0mil|HoleType=Round|Shape=RoundedRectangle|*
%AMROUNDEDRECTD220*
21,1,0.12902,0.11782,0,0,90.0*
21,1,0.11782,0.12902,0,0,90.0*
1,1,0.01120,0.05891,0.05891*
1,1,0.01120,0.05891,-0.05891*
1,1,0.01120,-0.05891,-0.05891*
1,1,0.01120,-0.05891,0.05891*
%
%ADD220ROUNDEDRECTD220*%
%ADD221R,0.03059X0.02468*%
%ADD222R,0.03650X0.04437*%
%ADD223R,0.02075X0.02075*%
%ADD224R,0.03256X0.03650*%
%ADD225R,0.07587X0.06799*%
%ADD226R,0.06209X0.05028*%
%ADD227R,0.04437X0.04437*%
%ADD228R,0.02862X0.02941*%
%ADD229R,0.07980X0.11917*%
%ADD230R,0.05815X0.02075*%
%ADD231R,0.04437X0.04634*%
%ADD232R,0.04634X0.09161*%
%ADD233R,0.07193X0.12311*%
%ADD234R,0.07980X0.09949*%
%ADD235R,0.09161X0.06602*%
G04:AMPARAMS|DCode=236|XSize=20.75mil|YSize=30.59mil|CornerRadius=4.47mil|HoleSize=0mil|Usage=FLASHONLY|Rotation=0.000|XOffset=0mil|YOffset=0mil|HoleType=Round|Shape=RoundedRectangle|*
%AMROUNDEDRECTD236*
21,1,0.02075,0.02165,0,0,0.0*
21,1,0.01181,0.03059,0,0,0.0*
1,1,0.00894,0.00591,-0.01083*
1,1,0.00894,-0.00591,-0.01083*
1,1,0.00894,-0.00591,0.01083*
1,1,0.00894,0.00591,0.01083*
%
%ADD236ROUNDEDRECTD236*%
%ADD237R,0.09752X0.10146*%
%ADD238R,0.07587X0.05421*%
%ADD239R,0.05028X0.11130*%
%ADD240R,0.07587X0.05028*%
%ADD241R,0.06012X0.04634*%
%ADD242R,0.04240X0.04634*%
%ADD243R,0.04240X0.04437*%
%ADD244R,0.02941X0.02941*%
%ADD245R,0.02075X0.02272*%
%ADD246C,0.04437*%
%ADD247R,0.11130X0.04437*%
%ADD248R,0.05224X0.02390*%
%ADD249R,0.07193X0.02390*%
%ADD250R,0.05717X0.02390*%
%ADD251R,0.06701X0.02390*%
%ADD252R,0.12705X0.02390*%
%ADD253R,0.05028X0.07587*%
%ADD254R,0.07587X0.05028*%
%ADD255R,0.03059X0.04634*%
%ADD256R,0.02272X0.02075*%
%ADD257R,0.04043X0.04437*%
%ADD258R,0.02862X0.02862*%
%ADD259R,0.06012X0.03492*%
%ADD260R,0.09516X0.08492*%
%ADD261R,0.05028X0.07587*%
%ADD262R,0.02941X0.02941*%
%ADD263R,0.04437X0.04240*%
%ADD264R,0.04634X0.06012*%
%ADD265R,0.05028X0.06209*%
%ADD266R,0.02272X0.06406*%
%ADD267P,0.04048X4X90.0*%
%ADD268R,0.03650X0.03650*%
G04:AMPARAMS|DCode=269|XSize=22.72mil|YSize=20.75mil|CornerRadius=0mil|HoleSize=0mil|Usage=FLASHONLY|Rotation=315.000|XOffset=0mil|YOffset=0mil|HoleType=Round|Shape=Rectangle|*
%AMROTATEDRECTD269*
4,1,4,-0.01537,0.00070,-0.00070,0.01537,0.01537,-0.00070,0.00070,-0.01537,-0.01537,0.00070,0.0*
%
%ADD269ROTATEDRECTD269*%

%ADD270R,0.03650X0.03650*%
%ADD271R,0.02862X0.04437*%
%ADD272R,0.02862X0.06602*%
G04:AMPARAMS|DCode=273|XSize=28.62mil|YSize=66.02mil|CornerRadius=0mil|HoleSize=0mil|Usage=FLASHONLY|Rotation=225.000|XOffset=0mil|YOffset=0mil|HoleType=Round|Shape=Rectangle|*
%AMROTATEDRECTD273*
4,1,4,-0.01322,0.03346,0.03346,-0.01322,0.01322,-0.03346,-0.03346,0.01322,-0.01322,0.03346,0.0*
%
%ADD273ROTATEDRECTD273*%

%ADD274C,0.07874*%
G04:AMPARAMS|DCode=275|XSize=22.72mil|YSize=20.75mil|CornerRadius=0mil|HoleSize=0mil|Usage=FLASHONLY|Rotation=225.000|XOffset=0mil|YOffset=0mil|HoleType=Round|Shape=Rectangle|*
%AMROTATEDRECTD275*
4,1,4,0.00070,0.01537,0.01537,0.00070,-0.00070,-0.01537,-0.01537,-0.00070,0.00070,0.01537,0.0*
%
%ADD275ROTATEDRECTD275*%

G04:AMPARAMS|DCode=276|XSize=22.72mil|YSize=20.75mil|CornerRadius=0mil|HoleSize=0mil|Usage=FLASHONLY|Rotation=80.000|XOffset=0mil|YOffset=0mil|HoleType=Round|Shape=Rectangle|*
%AMROTATEDRECTD276*
4,1,4,0.00824,-0.01299,-0.01219,-0.00938,-0.00824,0.01299,0.01219,0.00938,0.00824,-0.01299,0.0*
%
%ADD276ROTATEDRECTD276*%

G04:AMPARAMS|DCode=277|XSize=22.72mil|YSize=20.75mil|CornerRadius=0mil|HoleSize=0mil|Usage=FLASHONLY|Rotation=290.000|XOffset=0mil|YOffset=0mil|HoleType=Round|Shape=Rectangle|*
%AMROTATEDRECTD277*
4,1,4,-0.01363,0.00713,0.00586,0.01422,0.01363,-0.00713,-0.00586,-0.01422,-0.01363,0.00713,0.0*
%
%ADD277ROTATEDRECTD277*%

%ADD278R,0.04043X0.02468*%
%ADD279R,0.08492X0.09516*%
%ADD280R,0.03492X0.06012*%
%ADD281R,0.11130X0.05028*%
G04:AMPARAMS|DCode=282|XSize=42.4mil|YSize=44.37mil|CornerRadius=0mil|HoleSize=0mil|Usage=FLASHONLY|Rotation=315.000|XOffset=0mil|YOffset=0mil|HoleType=Round|Shape=Rectangle|*
%AMROTATEDRECTD282*
4,1,4,-0.03068,-0.00070,0.00070,0.03068,0.03068,0.00070,-0.00070,-0.03068,-0.03068,-0.00070,0.0*
%
%ADD282ROTATEDRECTD282*%

%ADD283R,0.02153X0.02311*%
%ADD284R,0.04634X0.04437*%
%ADD285R,0.09161X0.04634*%
%ADD286R,0.02784X0.02941*%
%ADD287R,0.03453X0.02468*%
%ADD288R,0.06406X0.04437*%
%ADD289R,0.04437X0.06406*%
%ADD290R,0.06799X0.07587*%
%ADD291R,0.07783X0.07783*%
%ADD292R,0.04634X0.02862*%
%ADD293O,0.01287X0.04043*%
%ADD294R,0.06012X0.12114*%
%ADD295R,0.12114X0.06012*%
%ADD296R,0.04634X0.04240*%
%ADD297R,0.04437X0.11130*%
%ADD298C,0.08374*%
%ADD299C,0.04831*%
%ADD300C,0.15854*%
%ADD301C,0.20972*%
%ADD302C,0.03347*%
%ADD303C,0.02559*%
%ADD304C,0.06299*%
%ADD305C,0.07587*%
%ADD306C,0.08768*%
%ADD307C,0.20185*%
%ADD308C,0.02468*%
%ADD309C,0.09161*%
G04:AMPARAMS|DCode=310|XSize=46.34mil|YSize=54.21mil|CornerRadius=19.04mil|HoleSize=0mil|Usage=FLASHONLY|Rotation=270.000|XOffset=0mil|YOffset=0mil|HoleType=Round|Shape=RoundedRectangle|*
%AMROUNDEDRECTD310*
21,1,0.04634,0.01614,0,0,270.0*
21,1,0.00827,0.05421,0,0,270.0*
1,1,0.03807,-0.00807,-0.00413*
1,1,0.03807,-0.00807,0.00413*
1,1,0.03807,0.00807,0.00413*
1,1,0.03807,0.00807,-0.00413*
%
%ADD310ROUNDEDRECTD310*%
G04:AMPARAMS|DCode=311|XSize=53.23mil|YSize=79.8mil|CornerRadius=21.79mil|HoleSize=0mil|Usage=FLASHONLY|Rotation=270.000|XOffset=0mil|YOffset=0mil|HoleType=Round|Shape=RoundedRectangle|*
%AMROUNDEDRECTD311*
21,1,0.05323,0.03622,0,0,270.0*
21,1,0.00965,0.07980,0,0,270.0*
1,1,0.04358,-0.01811,-0.00482*
1,1,0.04358,-0.01811,0.00482*
1,1,0.04358,0.01811,0.00482*
1,1,0.04358,0.01811,-0.00482*
%
%ADD311ROUNDEDRECTD311*%
%ADD312C,0.13098*%
%ADD313O,0.44594X0.09161*%
G36*
X-409252Y160433D02*
Y153248D01*
X-409449Y153051D01*
X-412992Y153051D01*
X-413189Y153248D01*
Y154488D01*
X-413386Y154685D01*
X-414567D01*
X-414764Y154882D01*
Y155472D01*
X-414567Y155669D01*
X-413386Y155669D01*
X-413189Y155866D01*
Y156457D01*
X-413386Y156653D01*
X-414567D01*
X-414764Y156850D01*
Y157441D01*
X-414567Y157638D01*
X-413386D01*
X-413189Y157835D01*
Y158425D01*
X-413386Y158622D01*
X-414567D01*
X-414764Y158819D01*
Y159409D01*
X-414567Y159606D01*
X-413386Y159606D01*
X-413189Y159803D01*
Y160433D01*
X-412992Y160630D01*
X-409449D01*
X-409252Y160433D01*
D02*
G37*
G36*
X-401772Y160433D02*
Y159803D01*
X-401575Y159606D01*
X-400394D01*
X-400197Y159409D01*
Y158819D01*
X-400394Y158622D01*
X-401575D01*
X-401772Y158425D01*
Y157835D01*
X-401575Y157638D01*
X-400394D01*
X-400197Y157441D01*
Y156850D01*
X-400394Y156653D01*
X-401575D01*
X-401772Y156457D01*
Y155866D01*
X-401575Y155669D01*
X-400394D01*
X-400197Y155473D01*
Y154882D01*
X-400394Y154685D01*
X-401575D01*
X-401772Y154488D01*
Y153248D01*
X-401968Y153051D01*
X-405512Y153051D01*
X-405709Y153248D01*
X-405709Y160433D01*
X-405512Y160630D01*
X-401968D01*
X-401772Y160433D01*
D02*
G37*
G36*
X-400000Y149016D02*
Y148425D01*
X-400394Y148031D01*
X-403150D01*
X-403543Y148425D01*
Y149016D01*
X-403150Y149409D01*
X-400394D01*
X-400000Y149016D01*
D02*
G37*
G36*
X-410039D02*
Y146457D01*
X-410236Y146260D01*
X-414567D01*
X-414764Y146457D01*
Y147047D01*
X-414567Y147244D01*
X-413386D01*
X-413189Y147441D01*
Y148031D01*
X-413386Y148228D01*
X-414567D01*
X-414764Y148425D01*
Y149016D01*
X-414567Y149213D01*
X-410236D01*
X-410039Y149016D01*
D02*
G37*
G36*
X-400000Y147047D02*
Y146457D01*
X-400394Y146063D01*
X-403150D01*
X-403543Y146457D01*
Y147047D01*
X-403150Y147441D01*
X-400394D01*
X-400000Y147047D01*
D02*
G37*
G36*
Y151081D02*
X-400000Y150392D01*
X-400394Y149998D01*
X-405094D01*
X-405232Y149941D01*
X-405748Y149421D01*
X-405807Y149284D01*
Y146260D01*
X-406201Y145866D01*
X-406791D01*
X-407185Y146260D01*
Y151081D01*
X-406791Y151474D01*
X-400394Y151474D01*
X-400000Y151081D01*
D02*
G37*
G36*
Y145079D02*
Y144488D01*
X-400394Y144095D01*
X-403248D01*
X-403445Y143898D01*
Y143110D01*
X-403839Y142717D01*
X-404823D01*
X-405217Y143110D01*
Y145079D01*
X-404823Y145473D01*
X-400394D01*
X-400000Y145079D01*
D02*
G37*
G36*
X-405807Y144882D02*
Y143110D01*
X-406201Y142717D01*
X-406988D01*
X-407382Y143110D01*
Y144882D01*
X-406988Y145276D01*
X-406201D01*
X-405807Y144882D01*
D02*
G37*
G36*
X-409744Y145079D02*
Y143110D01*
X-410138Y142717D01*
X-411122D01*
X-411516Y143110D01*
Y143898D01*
X-411713Y144095D01*
X-414567D01*
X-414961Y144488D01*
X-414961Y145079D01*
X-414567Y145473D01*
X-410138D01*
X-409744Y145079D01*
D02*
G37*
G36*
X984Y-129134D02*
X-18701D01*
Y129134D01*
X984D01*
Y-129134D01*
D02*
G37*
D77*
X-638779Y-15725D02*
D03*
X-623032D02*
D03*
X-607283D02*
D03*
X-591535D02*
D03*
Y62969D02*
D03*
X-607283D02*
D03*
X-623032D02*
D03*
X-638779D02*
D03*
X-654528D02*
D03*
Y-15725D02*
D03*
D78*
X-581184Y0D02*
D03*
Y31496D02*
D03*
Y47244D02*
D03*
X-664879Y47244D02*
D03*
Y31496D02*
D03*
Y15748D02*
D03*
Y0D02*
D03*
X-581184Y15748D02*
D03*
D100*
X-683071Y72618D02*
D03*
X-679134D02*
D03*
Y78957D02*
D03*
X-681102D02*
D03*
X-683071D02*
D03*
X-681102Y72618D02*
D03*
D101*
X-637165Y347776D02*
D03*
Y352776D02*
D03*
Y357776D02*
D03*
Y362776D02*
D03*
Y367776D02*
D03*
X-653189Y347776D02*
D03*
Y367776D02*
D03*
Y362776D02*
D03*
Y357776D02*
D03*
Y352776D02*
D03*
D102*
X-585925Y246949D02*
D03*
X-579429Y253051D02*
D03*
X-585925D02*
D03*
X-579429Y246949D02*
D03*
D103*
X-689764Y-111417D02*
D03*
X-51575Y-130709D02*
D03*
D161*
X-398031Y436992D02*
D03*
D162*
X-107677D02*
D03*
D163*
X-673622Y358366D02*
D03*
Y380020D02*
D03*
X-686221D02*
D03*
Y358366D02*
D03*
D164*
X-175926Y105724D02*
D03*
Y123676D02*
D03*
D165*
X-149154Y114700D02*
D03*
D166*
X-653149Y-51575D02*
D03*
X-653150Y-55512D02*
D03*
Y-57480D02*
D03*
Y-59449D02*
D03*
Y-61417D02*
D03*
Y-63386D02*
D03*
Y-65354D02*
D03*
Y-67323D02*
D03*
Y-53543D02*
D03*
X-666732Y-59449D02*
D03*
Y-57480D02*
D03*
Y-55512D02*
D03*
Y-53543D02*
D03*
Y-51575D02*
D03*
Y-49606D02*
D03*
Y-61417D02*
D03*
Y-63386D02*
D03*
Y-67323D02*
D03*
X-653149Y-49606D02*
D03*
X-666732Y-65354D02*
D03*
D167*
X-662894Y-69193D02*
D03*
X-656988D02*
D03*
X-656988Y-47736D02*
D03*
X-662893D02*
D03*
D168*
X-659941Y-58465D02*
D03*
D169*
X-659941Y-49705D02*
D03*
X-659941Y-67224D02*
D03*
D03*
D170*
X-658858Y-69439D02*
D03*
X-661024Y-69439D02*
D03*
X-658858Y-47490D02*
D03*
X-661024Y-47490D02*
D03*
D171*
X-618110Y112205D02*
D03*
X-481299Y191437D02*
D03*
Y196358D02*
D03*
X-486221Y193898D02*
D03*
X-448868Y207580D02*
D03*
X-448819Y202756D02*
D03*
X-443898Y205217D02*
D03*
X-453740Y-67913D02*
D03*
Y-72835D02*
D03*
X-459154Y-70374D02*
D03*
X-624016Y112205D02*
D03*
D172*
X-630039Y286614D02*
D03*
X-625039D02*
D03*
X-620039D02*
D03*
X-615039D02*
D03*
Y256693D02*
D03*
X-620039D02*
D03*
X-625039D02*
D03*
X-630039D02*
D03*
D173*
X-530272Y349273D02*
D03*
Y341792D02*
D03*
X-519642D02*
D03*
Y345532D02*
D03*
Y349273D02*
D03*
X-530272Y345532D02*
D03*
D174*
X-689173Y58268D02*
D03*
X-696654D02*
D03*
Y48031D02*
D03*
X-689173D02*
D03*
X-692913Y58268D02*
D03*
D175*
X-663493Y232402D02*
D03*
X-654438Y228661D02*
D03*
Y236142D02*
D03*
X-617728Y320400D02*
D03*
X-608672Y316660D02*
D03*
Y324140D02*
D03*
X-664665Y250175D02*
D03*
X-655610Y246435D02*
D03*
Y253915D02*
D03*
X-664665Y265442D02*
D03*
X-655610Y261702D02*
D03*
Y269182D02*
D03*
X-664665Y280709D02*
D03*
X-655610Y276969D02*
D03*
Y284449D02*
D03*
X-579572Y-98200D02*
D03*
X-588628Y-94460D02*
D03*
Y-101940D02*
D03*
X-365672Y-94500D02*
D03*
X-374728Y-90760D02*
D03*
Y-98240D02*
D03*
X-636417Y81693D02*
D03*
X-627362Y77953D02*
D03*
Y85433D02*
D03*
X-651928Y212106D02*
D03*
X-660983Y215846D02*
D03*
Y208366D02*
D03*
D176*
X-656872Y190560D02*
D03*
X-665928Y194300D02*
D03*
X-656872Y198040D02*
D03*
D177*
X-550269Y134159D02*
D03*
Y131600D02*
D03*
Y129041D02*
D03*
X-558931D02*
D03*
Y134159D02*
D03*
Y131600D02*
D03*
X-579857Y144586D02*
D03*
Y142027D02*
D03*
Y139468D02*
D03*
X-588519D02*
D03*
Y144586D02*
D03*
Y142027D02*
D03*
X-565069Y139359D02*
D03*
Y136800D02*
D03*
Y134241D02*
D03*
X-573731D02*
D03*
Y139359D02*
D03*
Y136800D02*
D03*
D178*
X-660428Y327860D02*
D03*
Y335340D02*
D03*
X-650979D02*
D03*
D179*
Y328647D02*
D03*
D180*
X-608268Y310531D02*
D03*
Y305413D02*
D03*
Y302854D02*
D03*
X-631102Y310531D02*
D03*
X-608268Y307973D02*
D03*
X-631102D02*
D03*
Y305413D02*
D03*
Y302854D02*
D03*
X-594437Y177343D02*
D03*
Y172225D02*
D03*
Y169666D02*
D03*
Y167107D02*
D03*
Y164548D02*
D03*
Y161988D02*
D03*
Y159430D02*
D03*
Y156870D02*
D03*
Y154311D02*
D03*
X-617272Y156870D02*
D03*
Y159430D02*
D03*
Y161988D02*
D03*
Y164548D02*
D03*
Y167107D02*
D03*
Y169666D02*
D03*
Y172225D02*
D03*
Y174784D02*
D03*
X-594437D02*
D03*
X-617272Y177343D02*
D03*
Y154311D02*
D03*
X-634261Y-104480D02*
D03*
Y-101920D02*
D03*
Y-99361D02*
D03*
X-616939D02*
D03*
Y-101920D02*
D03*
Y-104480D02*
D03*
Y-107039D02*
D03*
X-634261D02*
D03*
D181*
X-617172Y131674D02*
D03*
Y134233D02*
D03*
Y136792D02*
D03*
Y139351D02*
D03*
Y141910D02*
D03*
Y144469D02*
D03*
Y147028D02*
D03*
X-640400Y131674D02*
D03*
Y134233D02*
D03*
Y136792D02*
D03*
Y139351D02*
D03*
Y141910D02*
D03*
Y144469D02*
D03*
Y147028D02*
D03*
Y149587D02*
D03*
X-617172D02*
D03*
X-541100Y116495D02*
D03*
Y113936D02*
D03*
Y111377D02*
D03*
Y108818D02*
D03*
Y106259D02*
D03*
Y103700D02*
D03*
Y101141D02*
D03*
X-517872Y113936D02*
D03*
Y111377D02*
D03*
Y108818D02*
D03*
Y106259D02*
D03*
Y103700D02*
D03*
Y101141D02*
D03*
Y116495D02*
D03*
D182*
X-426752Y422835D02*
D03*
Y420276D02*
D03*
Y417717D02*
D03*
X-411791D02*
D03*
Y420276D02*
D03*
Y422835D02*
D03*
Y425394D02*
D03*
X-426752D02*
D03*
X-641320Y-82961D02*
D03*
Y-85520D02*
D03*
Y-88080D02*
D03*
Y-90639D02*
D03*
X-656280D02*
D03*
Y-88080D02*
D03*
Y-85520D02*
D03*
Y-82961D02*
D03*
D183*
X-70028Y-86676D02*
D03*
Y-82739D02*
D03*
Y-80770D02*
D03*
Y-78802D02*
D03*
Y-76833D02*
D03*
Y-74865D02*
D03*
Y-70928D02*
D03*
Y-68959D02*
D03*
Y-66991D02*
D03*
Y-65022D02*
D03*
Y-63054D02*
D03*
Y-59117D02*
D03*
Y-57148D02*
D03*
Y-55180D02*
D03*
Y-53211D02*
D03*
Y-51243D02*
D03*
Y-45337D02*
D03*
Y-43369D02*
D03*
Y-41400D02*
D03*
X-40500D02*
D03*
Y-43369D02*
D03*
Y-45337D02*
D03*
Y-47306D02*
D03*
Y-51243D02*
D03*
Y-53211D02*
D03*
Y-55180D02*
D03*
Y-57148D02*
D03*
Y-59117D02*
D03*
Y-63054D02*
D03*
Y-65022D02*
D03*
Y-66991D02*
D03*
Y-68959D02*
D03*
Y-70928D02*
D03*
Y-74865D02*
D03*
Y-76833D02*
D03*
Y-78802D02*
D03*
Y-80770D02*
D03*
Y-82739D02*
D03*
Y-86676D02*
D03*
Y-88644D02*
D03*
Y-90613D02*
D03*
Y-92581D02*
D03*
Y-94550D02*
D03*
Y-96518D02*
D03*
Y-98487D02*
D03*
Y-100455D02*
D03*
Y-102424D02*
D03*
X-70028Y-88644D02*
D03*
Y-90613D02*
D03*
Y-92581D02*
D03*
Y-94550D02*
D03*
Y-96518D02*
D03*
X-40500Y-49274D02*
D03*
Y-61085D02*
D03*
Y-72896D02*
D03*
X-70028Y-47306D02*
D03*
Y-49274D02*
D03*
Y-61085D02*
D03*
Y-72896D02*
D03*
X-40500Y-84707D02*
D03*
X-70028D02*
D03*
Y-98487D02*
D03*
Y-100455D02*
D03*
Y-102424D02*
D03*
X-559685Y392422D02*
D03*
Y390454D02*
D03*
Y388485D02*
D03*
Y384548D02*
D03*
Y382579D02*
D03*
Y380611D02*
D03*
Y378643D02*
D03*
Y376674D02*
D03*
Y374706D02*
D03*
Y372737D02*
D03*
Y370768D02*
D03*
Y368800D02*
D03*
Y366831D02*
D03*
Y364863D02*
D03*
Y362895D02*
D03*
Y360926D02*
D03*
Y356989D02*
D03*
Y355020D02*
D03*
Y353052D02*
D03*
Y351083D02*
D03*
Y349115D02*
D03*
Y347147D02*
D03*
Y345178D02*
D03*
X-620315D02*
D03*
Y347147D02*
D03*
Y349115D02*
D03*
Y351083D02*
D03*
Y353052D02*
D03*
Y355020D02*
D03*
Y356989D02*
D03*
Y358958D02*
D03*
Y360926D02*
D03*
Y364863D02*
D03*
Y366831D02*
D03*
Y368800D02*
D03*
Y370768D02*
D03*
Y372737D02*
D03*
Y374706D02*
D03*
Y376674D02*
D03*
Y378643D02*
D03*
Y380611D02*
D03*
Y384548D02*
D03*
Y386516D02*
D03*
Y388485D02*
D03*
Y390454D02*
D03*
Y392422D02*
D03*
X-559685Y386516D02*
D03*
Y358958D02*
D03*
X-620315Y382579D02*
D03*
Y362895D02*
D03*
D184*
X-616402Y-70153D02*
D03*
Y-68184D02*
D03*
Y-66216D02*
D03*
Y-64247D02*
D03*
X-604198Y-66216D02*
D03*
Y-70153D02*
D03*
Y-64247D02*
D03*
Y-68184D02*
D03*
D185*
X-370748Y412992D02*
D03*
X-368779Y412992D02*
D03*
X-364843D02*
D03*
X-362874Y412992D02*
D03*
Y401181D02*
D03*
X-366811Y401181D02*
D03*
X-368779D02*
D03*
X-370748Y401181D02*
D03*
X-366811Y412992D02*
D03*
X-364843Y401181D02*
D03*
D186*
X-366811Y407087D02*
D03*
D187*
X-692841Y310880D02*
D03*
X-671581D02*
D03*
Y305880D02*
D03*
Y300880D02*
D03*
Y295880D02*
D03*
X-692841Y300880D02*
D03*
Y305880D02*
D03*
Y295880D02*
D03*
X-133000Y-133500D02*
D03*
Y-128500D02*
D03*
Y-123500D02*
D03*
Y-118500D02*
D03*
Y-113500D02*
D03*
Y-108500D02*
D03*
X-154260Y-133500D02*
D03*
Y-128500D02*
D03*
Y-118500D02*
D03*
Y-113500D02*
D03*
X-133000Y-103500D02*
D03*
X-154260Y-108500D02*
D03*
Y-123500D02*
D03*
Y-103500D02*
D03*
X-47421Y154095D02*
D03*
Y159095D02*
D03*
Y164094D02*
D03*
Y169095D02*
D03*
X-68681Y154095D02*
D03*
Y159095D02*
D03*
Y164094D02*
D03*
Y169095D02*
D03*
X-487270Y348800D02*
D03*
Y353800D02*
D03*
Y358800D02*
D03*
Y363800D02*
D03*
X-508530Y348800D02*
D03*
Y353800D02*
D03*
Y358800D02*
D03*
Y363800D02*
D03*
X-478040Y105400D02*
D03*
Y110400D02*
D03*
Y115400D02*
D03*
Y120400D02*
D03*
X-499300Y105400D02*
D03*
Y110400D02*
D03*
Y115400D02*
D03*
Y120400D02*
D03*
X-572539Y278425D02*
D03*
Y283425D02*
D03*
Y288425D02*
D03*
X-593799Y278425D02*
D03*
Y293425D02*
D03*
X-572539Y293425D02*
D03*
X-593799Y288425D02*
D03*
Y283425D02*
D03*
X-138681Y357697D02*
D03*
Y352697D02*
D03*
Y347697D02*
D03*
X-117421Y357697D02*
D03*
Y352697D02*
D03*
Y347697D02*
D03*
Y342697D02*
D03*
X-138681Y342697D02*
D03*
D188*
X-478218Y-126169D02*
D03*
X-483218D02*
D03*
X-488218D02*
D03*
X-493218D02*
D03*
X-498218D02*
D03*
X-503218D02*
D03*
X-508218D02*
D03*
X-513218D02*
D03*
X-518218D02*
D03*
X-528218D02*
D03*
X-533218D02*
D03*
X-538218D02*
D03*
X-543218D02*
D03*
Y-89555D02*
D03*
X-538218D02*
D03*
X-533218D02*
D03*
X-528218D02*
D03*
X-523218D02*
D03*
X-518218D02*
D03*
X-508218D02*
D03*
X-503218D02*
D03*
X-498218D02*
D03*
X-493218D02*
D03*
X-488218D02*
D03*
X-483218D02*
D03*
X-478218D02*
D03*
X-513218D02*
D03*
X-523218Y-126169D02*
D03*
D189*
X-599007Y115100D02*
D03*
Y110100D02*
D03*
Y105100D02*
D03*
Y100100D02*
D03*
Y95100D02*
D03*
Y90100D02*
D03*
Y85100D02*
D03*
Y80100D02*
D03*
X-562393D02*
D03*
Y90100D02*
D03*
Y95100D02*
D03*
Y100100D02*
D03*
Y105100D02*
D03*
Y110100D02*
D03*
Y115100D02*
D03*
Y85100D02*
D03*
D190*
X-667430Y215374D02*
D03*
Y209862D02*
D03*
X-527300Y320456D02*
D03*
Y314944D02*
D03*
X-383600Y-67956D02*
D03*
Y-62444D02*
D03*
X-404000Y-99300D02*
D03*
Y-93788D02*
D03*
X-398400Y-99100D02*
D03*
Y-93588D02*
D03*
X-362000Y-111044D02*
D03*
Y-116556D02*
D03*
D191*
X-645079Y294390D02*
D03*
Y284154D02*
D03*
X-669095Y336910D02*
D03*
Y347146D02*
D03*
X-537400Y351417D02*
D03*
Y341181D02*
D03*
X-635800Y187818D02*
D03*
Y177582D02*
D03*
X-628088Y187845D02*
D03*
Y177609D02*
D03*
X-385400Y-83318D02*
D03*
Y-73082D02*
D03*
X-558200Y142782D02*
D03*
Y153018D02*
D03*
D192*
X-521654Y134724D02*
D03*
X-531653D02*
D03*
X-511654D02*
D03*
X-557992Y174094D02*
D03*
X-567992D02*
D03*
D193*
X-580100Y405950D02*
D03*
Y412250D02*
D03*
X-173819Y-122638D02*
D03*
Y-116339D02*
D03*
X-129429Y-78937D02*
D03*
Y-85236D02*
D03*
X-165760Y-123240D02*
D03*
Y-129539D02*
D03*
X-135827Y-87402D02*
D03*
Y-93701D02*
D03*
X-676575Y-67126D02*
D03*
Y-60827D02*
D03*
X-461122Y408268D02*
D03*
Y401968D02*
D03*
X-303563Y-121161D02*
D03*
Y-127461D02*
D03*
X-160827Y-87500D02*
D03*
Y-93799D02*
D03*
X-246654Y-117224D02*
D03*
Y-123524D02*
D03*
X-219882Y-117224D02*
D03*
Y-123524D02*
D03*
X-204921Y74902D02*
D03*
Y81201D02*
D03*
D194*
X-497372Y49800D02*
D03*
X-493828D02*
D03*
X-88976Y188386D02*
D03*
X-92520D02*
D03*
X-79872Y169800D02*
D03*
X-76328D02*
D03*
X-551928Y110100D02*
D03*
X-555472D02*
D03*
X-595528Y122300D02*
D03*
X-599072D02*
D03*
X-598972Y74000D02*
D03*
X-595428D02*
D03*
X-620374Y332185D02*
D03*
X-623917D02*
D03*
X-588166Y153283D02*
D03*
X-584623D02*
D03*
X-670343Y-43200D02*
D03*
X-666800D02*
D03*
X-629472Y-87100D02*
D03*
X-625928D02*
D03*
X-681595Y15551D02*
D03*
X-678051D02*
D03*
X-603684Y318639D02*
D03*
X-600141D02*
D03*
X-414567Y80610D02*
D03*
X-418110D02*
D03*
X-542028Y390551D02*
D03*
X-545571D02*
D03*
X-542126Y386417D02*
D03*
X-545669D02*
D03*
X-542126Y382579D02*
D03*
X-545669D02*
D03*
X-551428Y399300D02*
D03*
X-554972D02*
D03*
X-542126Y378937D02*
D03*
X-545669D02*
D03*
X-542126Y375295D02*
D03*
X-545669D02*
D03*
X-542126Y371358D02*
D03*
X-545669D02*
D03*
X-542126Y367618D02*
D03*
X-545669D02*
D03*
X-542126Y363484D02*
D03*
X-545669D02*
D03*
X-542126Y359646D02*
D03*
X-545669D02*
D03*
X-639272Y384252D02*
D03*
X-635729D02*
D03*
X-639272Y380315D02*
D03*
X-635728D02*
D03*
X-537500Y386614D02*
D03*
X-533957D02*
D03*
X-537697Y382579D02*
D03*
X-534154D02*
D03*
X-537795Y378839D02*
D03*
X-534252D02*
D03*
X-537894Y375295D02*
D03*
X-534350D02*
D03*
X-518072Y365000D02*
D03*
X-514528D02*
D03*
X-502472Y99000D02*
D03*
X-498928D02*
D03*
X-519882Y384744D02*
D03*
X-523425D02*
D03*
X-503839Y78839D02*
D03*
X-500295D02*
D03*
X-330728Y-99000D02*
D03*
X-334272D02*
D03*
X-302972Y-107900D02*
D03*
X-299428D02*
D03*
X-157772Y-61600D02*
D03*
X-154228D02*
D03*
X-133872Y-74600D02*
D03*
X-130328D02*
D03*
X-363779Y-79823D02*
D03*
X-367323D02*
D03*
X-384429Y400394D02*
D03*
X-387972D02*
D03*
X-247028Y-95100D02*
D03*
X-250572D02*
D03*
X-527628Y324700D02*
D03*
X-531172D02*
D03*
X-644193Y378051D02*
D03*
X-647736D02*
D03*
X-644095Y384449D02*
D03*
X-647638D02*
D03*
X-537008Y359547D02*
D03*
X-533465D02*
D03*
X-537106Y364272D02*
D03*
X-533563D02*
D03*
X-536319Y370768D02*
D03*
X-532776D02*
D03*
X-525228Y358800D02*
D03*
X-528772D02*
D03*
X-371028Y-79700D02*
D03*
X-374572D02*
D03*
X-195528Y68200D02*
D03*
X-199072D02*
D03*
X-231657Y402512D02*
D03*
X-228114D02*
D03*
X-146358Y402461D02*
D03*
X-142815D02*
D03*
X-629823Y340945D02*
D03*
X-633366D02*
D03*
X-587202Y164968D02*
D03*
X-583659D02*
D03*
X-274606Y402508D02*
D03*
X-271063D02*
D03*
X-189075Y402559D02*
D03*
X-185531D02*
D03*
X-622244Y406201D02*
D03*
X-618701D02*
D03*
X-622146Y401772D02*
D03*
X-618602D02*
D03*
X-635532Y375492D02*
D03*
X-639075D02*
D03*
X-334941Y401327D02*
D03*
X-331398Y401327D02*
D03*
X-334941Y406051D02*
D03*
X-331398D02*
D03*
X-311221Y412350D02*
D03*
X-307677Y412350D02*
D03*
X-334941Y410775D02*
D03*
X-331398Y410776D02*
D03*
X-313189Y415697D02*
D03*
X-309646Y415697D02*
D03*
X-313189Y419043D02*
D03*
X-309646D02*
D03*
X-334941Y420224D02*
D03*
X-331398D02*
D03*
X-334941Y415500D02*
D03*
X-331398D02*
D03*
X-334941Y387153D02*
D03*
X-331398D02*
D03*
X-334941Y396602D02*
D03*
X-331398D02*
D03*
X-334941Y391878D02*
D03*
X-331398Y391878D02*
D03*
X-334941Y377705D02*
D03*
X-331398Y377705D02*
D03*
X-334941Y382429D02*
D03*
X-331398D02*
D03*
X-663484Y-83268D02*
D03*
X-667028D02*
D03*
X-228072Y236500D02*
D03*
X-224528D02*
D03*
X-274606Y246457D02*
D03*
X-271063D02*
D03*
X-642214Y328751D02*
D03*
X-645757D02*
D03*
X-630872Y-90900D02*
D03*
X-627328D02*
D03*
X-675787Y271715D02*
D03*
X-679331D02*
D03*
X-675787Y280315D02*
D03*
X-679331D02*
D03*
X-675787Y288915D02*
D03*
X-679331D02*
D03*
X-350571Y403937D02*
D03*
X-354114D02*
D03*
X-663681Y-87992D02*
D03*
X-667224D02*
D03*
X-320472Y236417D02*
D03*
X-316929D02*
D03*
X-612372Y-86500D02*
D03*
X-608828D02*
D03*
X-391437Y138779D02*
D03*
X-394980D02*
D03*
D195*
X-494095Y-48110D02*
D03*
Y-44409D02*
D03*
X-600100Y330850D02*
D03*
Y327150D02*
D03*
X-606000Y85150D02*
D03*
Y81450D02*
D03*
X-620900Y-84050D02*
D03*
Y-87750D02*
D03*
X-645300Y187850D02*
D03*
Y184150D02*
D03*
X-539300Y239050D02*
D03*
Y235350D02*
D03*
X-527900Y310850D02*
D03*
Y307150D02*
D03*
X-606000Y92550D02*
D03*
Y88850D02*
D03*
Y102750D02*
D03*
Y99050D02*
D03*
X-651900Y190450D02*
D03*
Y194150D02*
D03*
X-535433Y1850D02*
D03*
Y-1850D02*
D03*
X-629331Y157953D02*
D03*
Y154252D02*
D03*
X-533800Y243650D02*
D03*
Y247350D02*
D03*
X-488700Y-68350D02*
D03*
Y-72050D02*
D03*
X-469132Y-90193D02*
D03*
Y-86492D02*
D03*
X-468996Y-81201D02*
D03*
Y-77500D02*
D03*
X-635700Y161550D02*
D03*
Y157850D02*
D03*
X-600800Y128350D02*
D03*
Y132050D02*
D03*
X-646400Y149050D02*
D03*
Y152750D02*
D03*
X-641500Y184150D02*
D03*
Y187850D02*
D03*
X-635800Y169350D02*
D03*
Y173050D02*
D03*
X-632000Y169350D02*
D03*
Y173050D02*
D03*
X-628200Y169350D02*
D03*
Y173050D02*
D03*
X-593500Y144650D02*
D03*
Y148350D02*
D03*
X-379600Y-80650D02*
D03*
Y-76950D02*
D03*
X-529900Y243650D02*
D03*
Y247350D02*
D03*
X-191700Y-10850D02*
D03*
Y-14550D02*
D03*
X-476004Y188299D02*
D03*
Y192000D02*
D03*
X-476000Y199501D02*
D03*
Y195800D02*
D03*
X-518400Y354550D02*
D03*
Y358250D02*
D03*
X-506300Y98950D02*
D03*
Y102650D02*
D03*
X-79900Y162450D02*
D03*
Y166150D02*
D03*
X-635701Y96438D02*
D03*
Y100139D02*
D03*
X-672754Y85499D02*
D03*
Y81798D02*
D03*
X-607600Y-97400D02*
D03*
Y-101101D02*
D03*
X-684055Y61890D02*
D03*
Y58189D02*
D03*
Y52047D02*
D03*
Y48346D02*
D03*
X-619246Y103393D02*
D03*
Y107094D02*
D03*
X-410433Y138661D02*
D03*
Y134961D02*
D03*
X-574803Y249626D02*
D03*
Y253327D02*
D03*
X-623146Y103393D02*
D03*
Y107094D02*
D03*
X-546100Y244850D02*
D03*
Y248550D02*
D03*
X-518900Y279550D02*
D03*
Y283250D02*
D03*
X-513800Y279550D02*
D03*
Y283250D02*
D03*
X-530900Y282750D02*
D03*
Y279050D02*
D03*
X-527100Y281150D02*
D03*
Y284850D02*
D03*
X-524000Y243650D02*
D03*
Y247350D02*
D03*
X-520100Y243650D02*
D03*
Y247350D02*
D03*
X-512900Y246250D02*
D03*
Y249950D02*
D03*
X-509000Y246250D02*
D03*
Y249950D02*
D03*
X-520500Y236050D02*
D03*
Y239750D02*
D03*
X-512300Y235650D02*
D03*
Y239350D02*
D03*
X-532424Y239191D02*
D03*
Y235490D02*
D03*
X-528600Y239150D02*
D03*
Y235450D02*
D03*
X-586721Y156768D02*
D03*
Y160469D02*
D03*
X-116700Y-128650D02*
D03*
Y-132350D02*
D03*
X-636200Y-84950D02*
D03*
Y-81250D02*
D03*
X-513600Y-82750D02*
D03*
Y-79050D02*
D03*
X-575200Y408450D02*
D03*
Y412150D02*
D03*
X-653600Y316750D02*
D03*
Y320450D02*
D03*
X-649800Y316750D02*
D03*
Y320450D02*
D03*
X-549300Y-93050D02*
D03*
Y-89350D02*
D03*
X-558100Y-83650D02*
D03*
Y-79950D02*
D03*
Y-68450D02*
D03*
Y-72150D02*
D03*
X-483600Y340050D02*
D03*
Y343750D02*
D03*
X-471200Y215350D02*
D03*
Y219050D02*
D03*
X-470931Y232980D02*
D03*
Y236681D02*
D03*
X-607600Y-93801D02*
D03*
Y-90100D02*
D03*
X-565721Y-5835D02*
D03*
Y-2134D02*
D03*
X-361800Y-103250D02*
D03*
Y-106950D02*
D03*
X-649221Y230453D02*
D03*
Y234154D02*
D03*
X-565821Y9366D02*
D03*
Y5665D02*
D03*
X-642224Y241713D02*
D03*
Y238012D02*
D03*
X-554134Y-34567D02*
D03*
Y-38268D02*
D03*
X-509449Y-1752D02*
D03*
Y1949D02*
D03*
X-486221Y-48110D02*
D03*
Y-44409D02*
D03*
X-680020Y-52461D02*
D03*
Y-56161D02*
D03*
X-676476D02*
D03*
Y-52461D02*
D03*
D196*
X-403583Y46752D02*
D03*
X-406181D02*
D03*
X-438601Y-67900D02*
D03*
X-441199D02*
D03*
X-394623Y93700D02*
D03*
X-392024D02*
D03*
X-397221D02*
D03*
X-394623D02*
D03*
X-438501Y-73000D02*
D03*
X-441099D02*
D03*
X-394623Y90600D02*
D03*
X-392024D02*
D03*
X-397221D02*
D03*
X-394623D02*
D03*
X-423300Y119800D02*
D03*
X-420702D02*
D03*
X-425898D02*
D03*
X-423300D02*
D03*
X-420702Y116700D02*
D03*
X-423300D02*
D03*
D03*
X-425898D02*
D03*
X-458801Y-52800D02*
D03*
X-461399D02*
D03*
X-439399Y16900D02*
D03*
X-436801D02*
D03*
X-458801Y-57800D02*
D03*
X-461399D02*
D03*
X-436299Y22300D02*
D03*
X-433701D02*
D03*
X-452501Y-57600D02*
D03*
X-455099D02*
D03*
X-387499Y110600D02*
D03*
X-384901D02*
D03*
X-453301Y-63200D02*
D03*
X-455899D02*
D03*
X-387499Y107600D02*
D03*
X-384901D02*
D03*
X-439901Y-57800D02*
D03*
X-442499D02*
D03*
X-437199Y-53100D02*
D03*
X-434601D02*
D03*
X-433901Y-57800D02*
D03*
X-436499D02*
D03*
X-369298Y116600D02*
D03*
X-366700D02*
D03*
X-433901Y-62900D02*
D03*
X-436499D02*
D03*
X-369298Y119700D02*
D03*
X-366700D02*
D03*
X-462599Y-37400D02*
D03*
X-460001D02*
D03*
X-406181Y49213D02*
D03*
X-408779D02*
D03*
X-462499Y-42400D02*
D03*
X-459901D02*
D03*
X-406181Y46752D02*
D03*
X-408779D02*
D03*
X-453701Y-47900D02*
D03*
X-456299D02*
D03*
X-453701Y-42800D02*
D03*
X-456299D02*
D03*
X-432699Y52000D02*
D03*
X-430101D02*
D03*
X-438801Y47800D02*
D03*
X-441399D02*
D03*
X-434999Y-42900D02*
D03*
X-432401D02*
D03*
X-431101Y47100D02*
D03*
X-433699D02*
D03*
X-429199Y-42800D02*
D03*
X-426601D02*
D03*
X-431001Y42000D02*
D03*
X-433599D02*
D03*
X-464001Y-25400D02*
D03*
X-466599D02*
D03*
X-464001Y-30400D02*
D03*
X-466599D02*
D03*
X-464001Y4300D02*
D03*
X-466599D02*
D03*
X-464001Y-500D02*
D03*
X-466599D02*
D03*
X-377599Y102200D02*
D03*
X-375001D02*
D03*
X-380199D02*
D03*
X-377601D02*
D03*
X-377600Y97400D02*
D03*
X-375002D02*
D03*
X-380198D02*
D03*
X-377600D02*
D03*
X-430801Y91600D02*
D03*
X-433399D02*
D03*
X-429502Y62100D02*
D03*
X-432100D02*
D03*
X-433399Y87200D02*
D03*
X-430801D02*
D03*
X-437899Y62100D02*
D03*
X-435301D02*
D03*
X-77001Y-41400D02*
D03*
X-79599D02*
D03*
X-480774Y-61100D02*
D03*
X-483372D02*
D03*
X-480746Y-64100D02*
D03*
X-483344D02*
D03*
X-511346Y-70336D02*
D03*
X-508748D02*
D03*
X-511346Y-67335D02*
D03*
X-508748D02*
D03*
X-619246Y87544D02*
D03*
X-616647D02*
D03*
X-524499Y87100D02*
D03*
X-521901D02*
D03*
X-529101Y87100D02*
D03*
X-531699D02*
D03*
X-403583Y49213D02*
D03*
X-406181D02*
D03*
D197*
X-410679Y144537D02*
D03*
D198*
X-404331Y143504D02*
D03*
D199*
X-406226Y150463D02*
D03*
D200*
X-566378Y338485D02*
D03*
X-568347D02*
D03*
X-570315D02*
D03*
X-574252D02*
D03*
X-576221D02*
D03*
X-578189D02*
D03*
X-580158D02*
D03*
X-582126D02*
D03*
X-584094D02*
D03*
X-586063D02*
D03*
X-588031D02*
D03*
X-590000D02*
D03*
X-591968D02*
D03*
X-593937D02*
D03*
X-595905D02*
D03*
X-597874D02*
D03*
X-599843D02*
D03*
X-601811D02*
D03*
X-603780D02*
D03*
X-607717D02*
D03*
X-609685D02*
D03*
X-611654D02*
D03*
X-613622D02*
D03*
Y399115D02*
D03*
X-611654D02*
D03*
X-609685D02*
D03*
X-607717D02*
D03*
X-605748D02*
D03*
X-603780D02*
D03*
X-601811D02*
D03*
X-599843D02*
D03*
X-597874D02*
D03*
X-595905D02*
D03*
X-591968D02*
D03*
X-590000D02*
D03*
X-588031D02*
D03*
X-584094D02*
D03*
X-582126D02*
D03*
X-580158D02*
D03*
X-578189D02*
D03*
X-576221D02*
D03*
X-574252D02*
D03*
X-572284D02*
D03*
X-570315D02*
D03*
X-568347D02*
D03*
X-566378D02*
D03*
X-586063D02*
D03*
X-593937D02*
D03*
X-572284Y338485D02*
D03*
X-605748D02*
D03*
D201*
X-235939Y-4817D02*
D03*
X-233380D02*
D03*
X-230820D02*
D03*
X-228261D02*
D03*
Y-19384D02*
D03*
X-230820D02*
D03*
X-233380D02*
D03*
X-235939D02*
D03*
X-89882Y-65300D02*
D03*
X-92441D02*
D03*
X-95000D02*
D03*
Y-79867D02*
D03*
X-92441D02*
D03*
X-89882D02*
D03*
X-87323D02*
D03*
Y-65300D02*
D03*
X-211377Y-1633D02*
D03*
X-208818D02*
D03*
X-206259D02*
D03*
X-203700D02*
D03*
Y-16200D02*
D03*
X-206259D02*
D03*
X-208818D02*
D03*
X-211377D02*
D03*
D202*
X-224816Y-8261D02*
D03*
Y-10820D02*
D03*
Y-13379D02*
D03*
Y-15939D02*
D03*
X-239384D02*
D03*
Y-10820D02*
D03*
Y-8261D02*
D03*
Y-13379D02*
D03*
X-83878Y-76422D02*
D03*
Y-73863D02*
D03*
Y-68745D02*
D03*
X-98445D02*
D03*
Y-71304D02*
D03*
Y-73863D02*
D03*
Y-76422D02*
D03*
X-83878Y-71304D02*
D03*
X-200255Y-5078D02*
D03*
Y-7637D02*
D03*
Y-10196D02*
D03*
Y-12755D02*
D03*
X-214822D02*
D03*
Y-7637D02*
D03*
Y-5078D02*
D03*
Y-10196D02*
D03*
D203*
X-232100Y-12100D02*
D03*
X-91161Y-72584D02*
D03*
X-207539Y-8917D02*
D03*
D204*
X-533956Y228098D02*
D03*
Y226130D02*
D03*
Y224161D02*
D03*
Y222193D02*
D03*
Y220224D02*
D03*
Y218256D02*
D03*
X-518602D02*
D03*
Y220224D02*
D03*
Y222193D02*
D03*
Y224161D02*
D03*
Y226130D02*
D03*
Y228098D02*
D03*
X-533804Y267733D02*
D03*
Y265765D02*
D03*
Y263796D02*
D03*
Y261828D02*
D03*
Y259859D02*
D03*
Y257891D02*
D03*
X-518450D02*
D03*
Y259859D02*
D03*
Y261828D02*
D03*
Y263796D02*
D03*
Y265765D02*
D03*
Y267733D02*
D03*
D205*
X-531200Y215500D02*
D03*
X-529232D02*
D03*
X-525294D02*
D03*
X-523326D02*
D03*
X-521357D02*
D03*
Y230854D02*
D03*
X-523326D02*
D03*
X-525294D02*
D03*
X-527263D02*
D03*
X-529232D02*
D03*
X-531200D02*
D03*
X-527263Y215500D02*
D03*
X-531048Y255135D02*
D03*
X-529079D02*
D03*
X-525142D02*
D03*
X-523174D02*
D03*
X-521206D02*
D03*
Y270489D02*
D03*
X-523174D02*
D03*
X-525142D02*
D03*
X-527111D02*
D03*
X-529079D02*
D03*
X-531048D02*
D03*
X-527111Y255135D02*
D03*
D206*
X-526279Y223177D02*
D03*
X-526127Y262812D02*
D03*
D207*
X-549016Y-984D02*
D03*
Y984D02*
D03*
Y2953D02*
D03*
Y4921D02*
D03*
X-561221D02*
D03*
Y2953D02*
D03*
Y984D02*
D03*
Y-984D02*
D03*
X-484055Y-30512D02*
D03*
Y-32480D02*
D03*
Y-34449D02*
D03*
Y-36417D02*
D03*
X-496260Y-32480D02*
D03*
Y-30512D02*
D03*
Y-36417D02*
D03*
Y-34449D02*
D03*
X-539118Y45955D02*
D03*
Y43987D02*
D03*
X-526913Y40050D02*
D03*
Y42018D02*
D03*
Y43987D02*
D03*
Y45955D02*
D03*
X-539118Y42018D02*
D03*
Y40050D02*
D03*
X-559555Y42018D02*
D03*
Y40050D02*
D03*
Y45955D02*
D03*
Y43987D02*
D03*
X-547350Y40050D02*
D03*
Y42018D02*
D03*
Y43987D02*
D03*
Y45955D02*
D03*
X-538300Y71905D02*
D03*
Y69937D02*
D03*
Y67968D02*
D03*
Y66000D02*
D03*
X-550505Y69937D02*
D03*
Y71905D02*
D03*
Y67968D02*
D03*
Y66000D02*
D03*
X-541300Y-74831D02*
D03*
Y-72863D02*
D03*
X-553505Y-78768D02*
D03*
Y-76800D02*
D03*
Y-74831D02*
D03*
Y-72863D02*
D03*
X-541300Y-76800D02*
D03*
Y-78768D02*
D03*
D208*
X-552165Y8071D02*
D03*
X-554134D02*
D03*
X-558071Y-4134D02*
D03*
X-556102D02*
D03*
X-554134D02*
D03*
X-552165D02*
D03*
X-558071Y8071D02*
D03*
X-556102D02*
D03*
X-487205Y-39567D02*
D03*
X-489173D02*
D03*
X-491142D02*
D03*
X-493110D02*
D03*
Y-27362D02*
D03*
X-491142D02*
D03*
X-489173D02*
D03*
X-487205D02*
D03*
X-530063Y49105D02*
D03*
X-532031D02*
D03*
X-534000D02*
D03*
X-535968D02*
D03*
Y36900D02*
D03*
X-534000D02*
D03*
X-532031D02*
D03*
X-530063D02*
D03*
X-550500Y49105D02*
D03*
X-552468D02*
D03*
X-554437D02*
D03*
X-556405D02*
D03*
Y36900D02*
D03*
X-554437D02*
D03*
X-552468D02*
D03*
X-550500D02*
D03*
X-541450Y62850D02*
D03*
X-543418D02*
D03*
X-545387D02*
D03*
X-547355D02*
D03*
Y75055D02*
D03*
X-545387D02*
D03*
X-543418D02*
D03*
X-541450D02*
D03*
X-544450Y-81918D02*
D03*
X-546418D02*
D03*
X-548387D02*
D03*
X-550355D02*
D03*
X-546418Y-69713D02*
D03*
X-544450D02*
D03*
X-548387D02*
D03*
X-550355D02*
D03*
D209*
X-555118Y1969D02*
D03*
X-547402Y-75816D02*
D03*
D210*
X-663779Y84055D02*
D03*
X-665354D02*
D03*
X-666929D02*
D03*
Y91142D02*
D03*
X-665354D02*
D03*
X-663779D02*
D03*
X-476700Y227400D02*
D03*
X-478275D02*
D03*
X-479850D02*
D03*
Y234487D02*
D03*
X-478275D02*
D03*
X-476700D02*
D03*
X-642126Y90945D02*
D03*
X-643701D02*
D03*
X-645276D02*
D03*
Y98032D02*
D03*
X-643701D02*
D03*
X-642126D02*
D03*
X-526856Y77369D02*
D03*
X-528431D02*
D03*
Y82881D02*
D03*
X-620446Y98843D02*
D03*
X-622021D02*
D03*
Y91757D02*
D03*
X-620446D02*
D03*
X-618872D02*
D03*
Y98843D02*
D03*
X-476984Y210044D02*
D03*
X-478559D02*
D03*
X-480134D02*
D03*
Y217131D02*
D03*
X-478559D02*
D03*
X-476984D02*
D03*
D211*
X-668110Y86811D02*
D03*
Y88386D02*
D03*
X-662598D02*
D03*
X-481031Y230156D02*
D03*
Y231731D02*
D03*
X-475519D02*
D03*
X-646457Y93701D02*
D03*
Y95276D02*
D03*
X-640945D02*
D03*
X-524100Y81700D02*
D03*
Y80125D02*
D03*
Y78550D02*
D03*
X-531187D02*
D03*
Y80125D02*
D03*
Y81700D02*
D03*
X-617691Y96087D02*
D03*
X-623202D02*
D03*
Y94513D02*
D03*
X-481315Y212800D02*
D03*
Y214375D02*
D03*
X-475803D02*
D03*
D212*
X-662795Y86811D02*
D03*
X-475716Y230156D02*
D03*
X-641142Y93701D02*
D03*
X-617887Y94513D02*
D03*
X-476000Y212800D02*
D03*
D213*
X-632972Y-49213D02*
D03*
Y-71673D02*
D03*
D214*
X-624705Y-50443D02*
D03*
Y-60443D02*
D03*
Y-70443D02*
D03*
X-641240Y-60443D02*
D03*
Y-50443D02*
D03*
Y-70443D02*
D03*
D215*
Y-50443D02*
D03*
Y-60443D02*
D03*
X-624705Y-70443D02*
D03*
Y-60443D02*
D03*
Y-50443D02*
D03*
X-641240Y-70443D02*
D03*
D216*
X-632972Y-72352D02*
D03*
Y-48533D02*
D03*
D217*
X-568082Y-75200D02*
D03*
Y-80200D02*
D03*
Y-85200D02*
D03*
X-578318Y-80200D02*
D03*
Y-75200D02*
D03*
Y-85200D02*
D03*
D218*
X-535433Y-56988D02*
D03*
X-533465D02*
D03*
X-531496D02*
D03*
X-529528D02*
D03*
X-527559D02*
D03*
X-525591D02*
D03*
Y-37500D02*
D03*
X-527559D02*
D03*
X-529528D02*
D03*
X-531496D02*
D03*
X-533465D02*
D03*
X-535433D02*
D03*
X-537402D02*
D03*
Y-56988D02*
D03*
D219*
X-521752Y-53150D02*
D03*
Y-51181D02*
D03*
Y-49213D02*
D03*
Y-47244D02*
D03*
X-541240Y-41339D02*
D03*
Y-43307D02*
D03*
Y-45276D02*
D03*
Y-47244D02*
D03*
Y-49213D02*
D03*
Y-51181D02*
D03*
Y-53150D02*
D03*
X-521752Y-45276D02*
D03*
Y-43307D02*
D03*
Y-41339D02*
D03*
D220*
X-531496Y-47244D02*
D03*
D221*
X-694687Y280705D02*
D03*
Y283855D02*
D03*
D222*
X-695966Y275981D02*
D03*
Y288580D02*
D03*
D223*
X-682480Y426968D02*
D03*
X-659055Y-129232D02*
D03*
D224*
X-683858Y423032D02*
D03*
Y430905D02*
D03*
X-660433Y-133169D02*
D03*
Y-125295D02*
D03*
D225*
X-198300Y253661D02*
D03*
Y236339D02*
D03*
X-353500Y213039D02*
D03*
Y230361D02*
D03*
D226*
X-87300Y-97543D02*
D03*
Y-90457D02*
D03*
X-194300Y-26343D02*
D03*
Y-19257D02*
D03*
D227*
X-696850Y73819D02*
D03*
Y79724D02*
D03*
D228*
X-563089Y-67300D02*
D03*
X-566711D02*
D03*
X-529370Y-27559D02*
D03*
X-525748D02*
D03*
D229*
X-698100Y106700D02*
D03*
D230*
X-687076Y109259D02*
D03*
Y101582D02*
D03*
Y106700D02*
D03*
Y104141D02*
D03*
Y111818D02*
D03*
D231*
X-535433Y-9744D02*
D03*
X-505905D02*
D03*
X-535433Y11713D02*
D03*
X-505905D02*
D03*
D232*
X-541240Y-15748D02*
D03*
X-529626D02*
D03*
X-500098D02*
D03*
X-511713D02*
D03*
X-529626Y17717D02*
D03*
X-541240D02*
D03*
X-511713D02*
D03*
X-500098D02*
D03*
D233*
X-98622Y-14567D02*
D03*
X-79724D02*
D03*
D234*
X-596129Y415200D02*
D03*
X-612271D02*
D03*
D235*
X-142129Y91700D02*
D03*
X-158271D02*
D03*
D236*
X-650241Y313135D02*
D03*
X-652800D02*
D03*
X-655359Y305065D02*
D03*
X-650241D02*
D03*
X-655359Y313135D02*
D03*
D237*
X-266732Y-78543D02*
D03*
X-242323D02*
D03*
X-309764Y-82480D02*
D03*
X-285354D02*
D03*
X-350413D02*
D03*
X-326004D02*
D03*
X-140256Y-48819D02*
D03*
X-115847D02*
D03*
X-180905D02*
D03*
X-156496D02*
D03*
X-226083Y-78543D02*
D03*
X-201673D02*
D03*
D238*
X-696063Y36417D02*
D03*
X-685827D02*
D03*
D239*
X-324606Y217126D02*
D03*
X-336417D02*
D03*
X-198721Y359842D02*
D03*
X-186909Y359842D02*
D03*
X-198721Y345276D02*
D03*
X-186909Y345276D02*
D03*
X-328543Y318996D02*
D03*
X-340354D02*
D03*
X-256791Y344882D02*
D03*
X-268602D02*
D03*
X-328518Y291665D02*
D03*
X-340329D02*
D03*
X-324606Y198031D02*
D03*
X-336417D02*
D03*
D240*
X-401575Y167323D02*
D03*
Y179134D02*
D03*
X-685700Y-33494D02*
D03*
Y-45305D02*
D03*
X-677500Y-33595D02*
D03*
Y-45406D02*
D03*
X-298150Y-56790D02*
D03*
Y-68601D02*
D03*
X-280433Y-56790D02*
D03*
Y-68601D02*
D03*
X-289291Y-56791D02*
D03*
Y-68602D02*
D03*
X-359823Y382185D02*
D03*
Y393996D02*
D03*
X-338799Y-57085D02*
D03*
Y-68896D02*
D03*
X-321083Y-57087D02*
D03*
Y-68898D02*
D03*
X-329941Y-57088D02*
D03*
Y-68899D02*
D03*
X-143996Y-4724D02*
D03*
Y-16535D02*
D03*
X-123721Y-23620D02*
D03*
Y-35432D02*
D03*
X-114862Y-23620D02*
D03*
Y-35432D02*
D03*
X-563200Y67305D02*
D03*
Y55494D02*
D03*
X-679626Y-79232D02*
D03*
Y-91043D02*
D03*
X-416929Y392028D02*
D03*
Y403839D02*
D03*
X-155413Y-23425D02*
D03*
Y-35236D02*
D03*
X-164272Y-23427D02*
D03*
Y-35238D02*
D03*
X-185236Y-4921D02*
D03*
Y-16732D02*
D03*
X-250098Y-53151D02*
D03*
Y-64962D02*
D03*
X-241240Y-53150D02*
D03*
Y-64961D02*
D03*
X-271161Y-34644D02*
D03*
Y-46455D02*
D03*
X-200689Y-53345D02*
D03*
Y-65156D02*
D03*
X-209547Y-53347D02*
D03*
Y-65158D02*
D03*
X-229823Y-34449D02*
D03*
Y-46260D02*
D03*
X-427559Y391929D02*
D03*
Y403740D02*
D03*
X-135433Y28739D02*
D03*
Y16928D02*
D03*
X-188583Y28739D02*
D03*
Y16928D02*
D03*
X-153150Y28939D02*
D03*
Y17128D02*
D03*
X-162008Y28939D02*
D03*
Y17128D02*
D03*
X-144291Y28939D02*
D03*
Y17128D02*
D03*
X-170866Y28939D02*
D03*
Y17128D02*
D03*
X-179724Y28939D02*
D03*
Y17128D02*
D03*
X-451476Y101278D02*
D03*
Y113089D02*
D03*
X-397047Y105413D02*
D03*
Y117224D02*
D03*
X-410138Y105412D02*
D03*
Y117223D02*
D03*
X-391732Y167323D02*
D03*
Y179134D02*
D03*
X-411417Y167323D02*
D03*
Y179134D02*
D03*
D241*
X-428150Y148228D02*
D03*
Y141142D02*
D03*
X-287913Y-103248D02*
D03*
Y-110335D02*
D03*
X-317047Y-123524D02*
D03*
Y-116437D02*
D03*
X-340768Y-105118D02*
D03*
Y-112205D02*
D03*
X-147539Y-89862D02*
D03*
Y-82776D02*
D03*
X-171260Y-71457D02*
D03*
Y-78543D02*
D03*
X-471600Y391357D02*
D03*
Y398443D02*
D03*
X-118405Y-69587D02*
D03*
Y-76673D02*
D03*
X-233366Y-119587D02*
D03*
Y-112500D02*
D03*
X-257087Y-101181D02*
D03*
Y-108268D02*
D03*
X-204232Y-99311D02*
D03*
Y-106398D02*
D03*
X-421260Y154921D02*
D03*
Y162008D02*
D03*
D242*
X-365200Y231500D02*
D03*
X-371499D02*
D03*
D243*
X-517913Y-27559D02*
D03*
X-511614D02*
D03*
X-371929Y419587D02*
D03*
X-365630D02*
D03*
X-310827Y258169D02*
D03*
X-304528D02*
D03*
X-323794Y258200D02*
D03*
X-317495D02*
D03*
X-228150Y258169D02*
D03*
X-234449D02*
D03*
X-219390Y45276D02*
D03*
X-213090D02*
D03*
X-417618Y373917D02*
D03*
X-411319D02*
D03*
X-417520Y384055D02*
D03*
X-411221D02*
D03*
X-451279Y380610D02*
D03*
X-457579D02*
D03*
X-271457Y424457D02*
D03*
X-277756D02*
D03*
X-228508Y424461D02*
D03*
X-234807D02*
D03*
X-319390Y424260D02*
D03*
X-313090D02*
D03*
X-212106Y424508D02*
D03*
X-205807D02*
D03*
X-169390D02*
D03*
X-163091D02*
D03*
X-297638Y424457D02*
D03*
X-291339D02*
D03*
X-254689Y424461D02*
D03*
X-248390D02*
D03*
X-185925Y424508D02*
D03*
X-192224D02*
D03*
X-143209D02*
D03*
X-149508D02*
D03*
X-291850Y246400D02*
D03*
X-298150D02*
D03*
X-259055Y246358D02*
D03*
X-252756D02*
D03*
X-210630Y262402D02*
D03*
X-204331D02*
D03*
X-199550Y303200D02*
D03*
X-193250D02*
D03*
X-200250Y293700D02*
D03*
X-193950D02*
D03*
X-200394Y318996D02*
D03*
X-194095D02*
D03*
X-195472Y370177D02*
D03*
X-189173D02*
D03*
X-200787Y198622D02*
D03*
X-194488D02*
D03*
X-329306Y207019D02*
D03*
X-335605Y207019D02*
D03*
X-253642Y329921D02*
D03*
X-259941Y329921D02*
D03*
X-323031Y331496D02*
D03*
X-329331D02*
D03*
X-175250Y99300D02*
D03*
X-168950D02*
D03*
X-696063Y66929D02*
D03*
X-689764D02*
D03*
X-595076Y249326D02*
D03*
X-601375D02*
D03*
X-394882Y159449D02*
D03*
X-388583D02*
D03*
D244*
X-394980Y149114D02*
D03*
X-391437D02*
D03*
X-384626Y394291D02*
D03*
X-388169D02*
D03*
X-595669Y426181D02*
D03*
X-599213D02*
D03*
X-619291Y412402D02*
D03*
X-622835D02*
D03*
X-191634Y50886D02*
D03*
X-195177D02*
D03*
X-390528Y-71700D02*
D03*
X-394072D02*
D03*
X-514572Y341100D02*
D03*
X-511028D02*
D03*
X-509772Y-82600D02*
D03*
X-506228D02*
D03*
X-659162Y221969D02*
D03*
X-662706D02*
D03*
D245*
X-534449Y67323D02*
D03*
Y64567D02*
D03*
X-606936Y110053D02*
D03*
Y107297D02*
D03*
X-665256Y323425D02*
D03*
Y320669D02*
D03*
X-357756Y412500D02*
D03*
Y409744D02*
D03*
X-161260Y-127268D02*
D03*
Y-124512D02*
D03*
X-172146Y390158D02*
D03*
Y387402D02*
D03*
X-187992Y398031D02*
D03*
Y395276D02*
D03*
X-577756Y-53248D02*
D03*
Y-56004D02*
D03*
X-598819Y292421D02*
D03*
Y289665D02*
D03*
X-291142Y279232D02*
D03*
Y276476D02*
D03*
X-287205Y235925D02*
D03*
Y233169D02*
D03*
X-255709Y235925D02*
D03*
Y233169D02*
D03*
X-295079Y235925D02*
D03*
Y233169D02*
D03*
X-259620Y241861D02*
D03*
Y239106D02*
D03*
X-287179Y241861D02*
D03*
Y239106D02*
D03*
X-287205Y248917D02*
D03*
Y251673D02*
D03*
X-255683Y250917D02*
D03*
Y253672D02*
D03*
X-295079Y252559D02*
D03*
Y255315D02*
D03*
X-267520Y248917D02*
D03*
Y251673D02*
D03*
X-283268Y248917D02*
D03*
Y251673D02*
D03*
X-279306Y241861D02*
D03*
Y239106D02*
D03*
X-267495Y241861D02*
D03*
Y239106D02*
D03*
X-247441Y253642D02*
D03*
Y250886D02*
D03*
X-259350Y270571D02*
D03*
Y273327D02*
D03*
X-263878Y269390D02*
D03*
Y266634D02*
D03*
X-251378Y270571D02*
D03*
Y273327D02*
D03*
X-302559Y269390D02*
D03*
Y266634D02*
D03*
X-298622Y273327D02*
D03*
Y270571D02*
D03*
X-243602Y241929D02*
D03*
X-243602Y239173D02*
D03*
X-247441Y273327D02*
D03*
X-247441Y270571D02*
D03*
X-247441Y245768D02*
D03*
Y243012D02*
D03*
X-434000Y380222D02*
D03*
Y382978D02*
D03*
X-428445Y365748D02*
D03*
Y368504D02*
D03*
X-553839Y361319D02*
D03*
Y358563D02*
D03*
X-553937Y384154D02*
D03*
Y386910D02*
D03*
X-607677Y331890D02*
D03*
Y329134D02*
D03*
X-625787Y360433D02*
D03*
Y363189D02*
D03*
X-585925Y408465D02*
D03*
Y405709D02*
D03*
X-251772Y279232D02*
D03*
Y276476D02*
D03*
X-263583Y235925D02*
D03*
Y233169D02*
D03*
X-279331Y279232D02*
D03*
Y276476D02*
D03*
Y236221D02*
D03*
Y233465D02*
D03*
X-259646Y280315D02*
D03*
Y283071D02*
D03*
X-306496Y273327D02*
D03*
Y270571D02*
D03*
Y265453D02*
D03*
Y262697D02*
D03*
X-267520Y267421D02*
D03*
Y264665D02*
D03*
X-290748Y273327D02*
D03*
Y270571D02*
D03*
X-243504Y249705D02*
D03*
Y246949D02*
D03*
X-282874Y273721D02*
D03*
Y276476D02*
D03*
X-291437Y254823D02*
D03*
Y257579D02*
D03*
X-278937Y270571D02*
D03*
Y273327D02*
D03*
X-76600Y-45722D02*
D03*
Y-48478D02*
D03*
X-300394Y384004D02*
D03*
Y381248D02*
D03*
X-273524Y397980D02*
D03*
Y395224D02*
D03*
X-268799Y409299D02*
D03*
Y406543D02*
D03*
X-300394Y409102D02*
D03*
Y406346D02*
D03*
X-268799Y393256D02*
D03*
Y390500D02*
D03*
Y415795D02*
D03*
Y418551D02*
D03*
X-295571Y397980D02*
D03*
Y395224D02*
D03*
X-172146Y415846D02*
D03*
Y418602D02*
D03*
Y409154D02*
D03*
Y406398D02*
D03*
X-145276Y398130D02*
D03*
Y395374D02*
D03*
X-140551Y415846D02*
D03*
Y418602D02*
D03*
X-140256Y390158D02*
D03*
Y387402D02*
D03*
X-140551Y409154D02*
D03*
Y406398D02*
D03*
X-167224Y398031D02*
D03*
Y395276D02*
D03*
X-172146Y383858D02*
D03*
Y381102D02*
D03*
X-208465Y307874D02*
D03*
Y310630D02*
D03*
X-300394Y390401D02*
D03*
Y387646D02*
D03*
X-214862Y390256D02*
D03*
Y387500D02*
D03*
X-257445Y390110D02*
D03*
Y387354D02*
D03*
X-300394Y415598D02*
D03*
Y418354D02*
D03*
X-225850Y409106D02*
D03*
Y406350D02*
D03*
X-225752Y390110D02*
D03*
Y387354D02*
D03*
X-183268Y390256D02*
D03*
Y387500D02*
D03*
X-214862Y383760D02*
D03*
Y381004D02*
D03*
Y415846D02*
D03*
Y418602D02*
D03*
X-257445Y415799D02*
D03*
Y418555D02*
D03*
X-252622Y398083D02*
D03*
Y395327D02*
D03*
X-225752Y415799D02*
D03*
Y418555D02*
D03*
X-214862Y409154D02*
D03*
Y406398D02*
D03*
X-210039Y398031D02*
D03*
Y395276D02*
D03*
X-257445Y383811D02*
D03*
Y381055D02*
D03*
X-230575Y397984D02*
D03*
Y395228D02*
D03*
X-257445Y409106D02*
D03*
Y406350D02*
D03*
X-183268Y409154D02*
D03*
Y406398D02*
D03*
Y415846D02*
D03*
Y418602D02*
D03*
X-220250Y316665D02*
D03*
Y313909D02*
D03*
X-224187Y316665D02*
D03*
Y313909D02*
D03*
X-232087Y294980D02*
D03*
Y292224D02*
D03*
X-239800Y199622D02*
D03*
Y202378D02*
D03*
X-251476Y210335D02*
D03*
Y207579D02*
D03*
X-231900Y222822D02*
D03*
Y225578D02*
D03*
X-259941Y218209D02*
D03*
Y215453D02*
D03*
X-302854Y316634D02*
D03*
Y313878D02*
D03*
X-283268Y300098D02*
D03*
Y302854D02*
D03*
X-291116Y301870D02*
D03*
Y304626D02*
D03*
X-602658Y310728D02*
D03*
Y307972D02*
D03*
X-76400Y-96522D02*
D03*
Y-99278D02*
D03*
X-34200Y-98522D02*
D03*
Y-101278D02*
D03*
X-76200Y-82322D02*
D03*
Y-85078D02*
D03*
X-76400Y-70722D02*
D03*
Y-73478D02*
D03*
X-291142Y224114D02*
D03*
Y221358D02*
D03*
X-529172Y58142D02*
D03*
Y55387D02*
D03*
X-531731Y58142D02*
D03*
Y55387D02*
D03*
X-676575Y11713D02*
D03*
Y8957D02*
D03*
X-430886Y422638D02*
D03*
Y425394D02*
D03*
X-299311Y250886D02*
D03*
Y253642D02*
D03*
X-263287Y273721D02*
D03*
Y276476D02*
D03*
X-255315Y273327D02*
D03*
Y270571D02*
D03*
X-259941Y265453D02*
D03*
Y262697D02*
D03*
X-267815Y273327D02*
D03*
Y270571D02*
D03*
X-259252Y254823D02*
D03*
Y257579D02*
D03*
X-286811Y254429D02*
D03*
Y257185D02*
D03*
Y270571D02*
D03*
Y273327D02*
D03*
X-251378Y250886D02*
D03*
Y253642D02*
D03*
X-279035Y253642D02*
D03*
Y250886D02*
D03*
X-279331Y264665D02*
D03*
Y267421D02*
D03*
X-294685Y270571D02*
D03*
Y273327D02*
D03*
X-282874Y257579D02*
D03*
Y254823D02*
D03*
X-243872Y302098D02*
D03*
Y304854D02*
D03*
X-212402Y314764D02*
D03*
Y312008D02*
D03*
X-239961Y283169D02*
D03*
Y280413D02*
D03*
X-232087Y209547D02*
D03*
Y212303D02*
D03*
X-216339Y217421D02*
D03*
Y220177D02*
D03*
X-243898Y225295D02*
D03*
Y228051D02*
D03*
X-267520Y221358D02*
D03*
Y224114D02*
D03*
X-228150Y221358D02*
D03*
Y224114D02*
D03*
X-267520Y204429D02*
D03*
Y201673D02*
D03*
X-259620Y231231D02*
D03*
Y233987D02*
D03*
X-259646Y205610D02*
D03*
Y208366D02*
D03*
X-263583Y193799D02*
D03*
Y196555D02*
D03*
X-220276Y205610D02*
D03*
Y208366D02*
D03*
X-212376Y227294D02*
D03*
Y230050D02*
D03*
X-247835Y201673D02*
D03*
Y204429D02*
D03*
X-306890Y318602D02*
D03*
Y315846D02*
D03*
X-310802Y281231D02*
D03*
Y278476D02*
D03*
X-299016Y302854D02*
D03*
X-299016Y300098D02*
D03*
X-251772Y292323D02*
D03*
Y295079D02*
D03*
X-306890Y296161D02*
D03*
Y298917D02*
D03*
X-299016Y291437D02*
D03*
Y288681D02*
D03*
X-279306Y298161D02*
D03*
Y300917D02*
D03*
X-261713Y307677D02*
D03*
Y310433D02*
D03*
X-283268Y310728D02*
D03*
Y307972D02*
D03*
X-291142Y201673D02*
D03*
Y204429D02*
D03*
X-287008Y296850D02*
D03*
Y294094D02*
D03*
X-314764Y294980D02*
D03*
Y292224D02*
D03*
X-419600Y93378D02*
D03*
Y90622D02*
D03*
X-438976Y101575D02*
D03*
Y98819D02*
D03*
X-424200Y90622D02*
D03*
Y93378D02*
D03*
X-267520Y279232D02*
D03*
Y276476D02*
D03*
X-248031Y279134D02*
D03*
Y281890D02*
D03*
X-263189Y258760D02*
D03*
Y261516D02*
D03*
X-676575Y4232D02*
D03*
Y1476D02*
D03*
X-614600Y-83000D02*
D03*
Y-80244D02*
D03*
X-399800Y282378D02*
D03*
Y279622D02*
D03*
X-397300Y282378D02*
D03*
Y279622D02*
D03*
X-620200Y-80578D02*
D03*
Y-77822D02*
D03*
X-589002Y177346D02*
D03*
Y174590D02*
D03*
X-575100Y144522D02*
D03*
Y147278D02*
D03*
X-545700Y131578D02*
D03*
Y128822D02*
D03*
X-540846Y48819D02*
D03*
Y51575D02*
D03*
X-493700Y-68722D02*
D03*
Y-71478D02*
D03*
X-632800Y-85078D02*
D03*
Y-82322D02*
D03*
X-498600Y-60778D02*
D03*
Y-58022D02*
D03*
X-244100Y-16078D02*
D03*
Y-13322D02*
D03*
X-676181Y82087D02*
D03*
Y79331D02*
D03*
X-636811Y89961D02*
D03*
Y87205D02*
D03*
X-650601Y97910D02*
D03*
Y100666D02*
D03*
X-672254Y89371D02*
D03*
Y92126D02*
D03*
X-627347Y93621D02*
D03*
Y90865D02*
D03*
X-219500Y-15222D02*
D03*
Y-17978D02*
D03*
X-79100Y-66078D02*
D03*
Y-63322D02*
D03*
X-525100Y275022D02*
D03*
Y277778D02*
D03*
X-525300Y235322D02*
D03*
Y238078D02*
D03*
X-587598Y257480D02*
D03*
Y260236D02*
D03*
X-627347Y96965D02*
D03*
Y99721D02*
D03*
X-485131Y232753D02*
D03*
Y235509D02*
D03*
Y229409D02*
D03*
Y226653D02*
D03*
X-545768Y-54232D02*
D03*
Y-56988D02*
D03*
X-547244Y50295D02*
D03*
Y53051D02*
D03*
X-506398Y-48819D02*
D03*
Y-51575D02*
D03*
X-517224Y-54232D02*
D03*
Y-56988D02*
D03*
X-552165Y-9449D02*
D03*
Y-12205D02*
D03*
X-558071Y-9449D02*
D03*
Y-12205D02*
D03*
X-555118Y-9449D02*
D03*
Y-12205D02*
D03*
X-485500Y211578D02*
D03*
Y208822D02*
D03*
Y214922D02*
D03*
Y217678D02*
D03*
X-570100Y-67578D02*
D03*
Y-64822D02*
D03*
X-646400Y305222D02*
D03*
Y307978D02*
D03*
X-543799Y48819D02*
D03*
Y51575D02*
D03*
X-477362Y-35039D02*
D03*
Y-37795D02*
D03*
X-481299Y-38976D02*
D03*
Y-41732D02*
D03*
X-534449Y70472D02*
D03*
Y73228D02*
D03*
D246*
X-392323Y-78740D02*
D03*
X-518519Y291542D02*
D03*
X-513119D02*
D03*
X-625098Y236910D02*
D03*
X-613189Y232776D02*
D03*
D247*
X-681293Y-19390D02*
D03*
Y-28051D02*
D03*
D248*
X-12598Y-23622D02*
D03*
Y-20669D02*
D03*
Y-5906D02*
D03*
Y-2953D02*
D03*
Y29528D02*
D03*
Y32480D02*
D03*
Y20669D02*
D03*
Y23622D02*
D03*
Y2953D02*
D03*
Y5906D02*
D03*
Y-94488D02*
D03*
Y-91535D02*
D03*
Y73819D02*
D03*
Y76772D02*
D03*
Y91535D02*
D03*
Y94488D02*
D03*
Y64961D02*
D03*
Y67913D02*
D03*
Y109252D02*
D03*
Y112205D02*
D03*
Y118110D02*
D03*
Y121063D02*
D03*
Y-41339D02*
D03*
Y-38386D02*
D03*
Y-50197D02*
D03*
Y-47244D02*
D03*
Y-67913D02*
D03*
Y-64961D02*
D03*
Y-85630D02*
D03*
Y-82677D02*
D03*
Y100394D02*
D03*
Y85630D02*
D03*
Y38386D02*
D03*
Y-76772D02*
D03*
Y-59055D02*
D03*
Y-32480D02*
D03*
Y14764D02*
D03*
Y56102D02*
D03*
Y47244D02*
D03*
Y41339D02*
D03*
Y-29528D02*
D03*
Y50197D02*
D03*
Y-73819D02*
D03*
Y-56102D02*
D03*
Y82677D02*
D03*
Y103347D02*
D03*
Y-14764D02*
D03*
Y11811D02*
D03*
Y59055D02*
D03*
Y-11811D02*
D03*
Y-100394D02*
D03*
Y-103347D02*
D03*
D249*
X-6102D02*
D03*
Y118110D02*
D03*
Y-100394D02*
D03*
Y112205D02*
D03*
Y-32480D02*
D03*
Y76772D02*
D03*
Y-11811D02*
D03*
Y-56102D02*
D03*
Y5906D02*
D03*
Y-29528D02*
D03*
Y11811D02*
D03*
Y91535D02*
D03*
Y32480D02*
D03*
Y59055D02*
D03*
Y38386D02*
D03*
Y85630D02*
D03*
Y-23622D02*
D03*
Y-20669D02*
D03*
Y94488D02*
D03*
Y67913D02*
D03*
Y23622D02*
D03*
Y-94488D02*
D03*
Y121063D02*
D03*
Y-47244D02*
D03*
Y41339D02*
D03*
Y14764D02*
D03*
Y73819D02*
D03*
Y29528D02*
D03*
Y103347D02*
D03*
Y-73819D02*
D03*
Y82677D02*
D03*
Y-38386D02*
D03*
Y-67913D02*
D03*
Y100394D02*
D03*
Y64961D02*
D03*
Y2953D02*
D03*
Y109252D02*
D03*
Y-76772D02*
D03*
Y-64961D02*
D03*
Y20669D02*
D03*
Y-91535D02*
D03*
Y-59055D02*
D03*
Y-41339D02*
D03*
Y-2953D02*
D03*
Y56102D02*
D03*
Y-14764D02*
D03*
Y-50197D02*
D03*
Y-5906D02*
D03*
Y-85630D02*
D03*
Y-82677D02*
D03*
Y50197D02*
D03*
D250*
X-5364Y-109252D02*
D03*
Y-112205D02*
D03*
Y-115157D02*
D03*
Y-118110D02*
D03*
Y-121063D02*
D03*
D251*
X-11860Y-118110D02*
D03*
Y-115157D02*
D03*
Y-112205D02*
D03*
Y-109252D02*
D03*
Y-121063D02*
D03*
D252*
X-8858Y124016D02*
D03*
Y115157D02*
D03*
Y106299D02*
D03*
Y97441D02*
D03*
Y88583D02*
D03*
Y79724D02*
D03*
Y70866D02*
D03*
Y62008D02*
D03*
Y44291D02*
D03*
Y35433D02*
D03*
Y53150D02*
D03*
Y26575D02*
D03*
Y8858D02*
D03*
Y17717D02*
D03*
Y-8858D02*
D03*
Y0D02*
D03*
Y-26575D02*
D03*
Y-35433D02*
D03*
Y-17717D02*
D03*
Y-44291D02*
D03*
Y-53150D02*
D03*
Y-62008D02*
D03*
Y-70866D02*
D03*
Y-79724D02*
D03*
Y-88583D02*
D03*
Y-97441D02*
D03*
Y-106299D02*
D03*
Y-124016D02*
D03*
D253*
X-121653Y423228D02*
D03*
X-133071D02*
D03*
D254*
X-131299Y415158D02*
D03*
Y403740D02*
D03*
X-181100Y63109D02*
D03*
Y51691D02*
D03*
D255*
X-90551Y174114D02*
D03*
X-86811Y183169D02*
D03*
X-94291D02*
D03*
X-522539Y370177D02*
D03*
X-518799Y379232D02*
D03*
X-526279D02*
D03*
X-502362Y93799D02*
D03*
X-506102Y84744D02*
D03*
X-498622D02*
D03*
X-385500Y-89372D02*
D03*
X-389240Y-98428D02*
D03*
X-381760D02*
D03*
X-517900Y335128D02*
D03*
X-521640Y326072D02*
D03*
X-514160D02*
D03*
X-517900Y319528D02*
D03*
X-521640Y310472D02*
D03*
X-514160D02*
D03*
D256*
X-358071Y271063D02*
D03*
X-355315D02*
D03*
X-358071Y266634D02*
D03*
X-355315D02*
D03*
X-357283Y273819D02*
D03*
X-354528D02*
D03*
X-357283Y277953D02*
D03*
X-354528D02*
D03*
X-355709Y282677D02*
D03*
X-352953D02*
D03*
X-355709Y286811D02*
D03*
X-352953D02*
D03*
X-617678Y-73900D02*
D03*
X-614922D02*
D03*
X-185039Y376181D02*
D03*
X-187795D02*
D03*
X-123228Y337402D02*
D03*
X-120472D02*
D03*
X-312179Y248358D02*
D03*
X-309424D02*
D03*
X-320079Y244390D02*
D03*
X-317323D02*
D03*
X-281865Y283790D02*
D03*
X-284620D02*
D03*
X-298721Y275984D02*
D03*
X-295965D02*
D03*
X-325984Y275886D02*
D03*
X-323228D02*
D03*
X-332480Y271949D02*
D03*
X-335236D02*
D03*
X-209817Y244421D02*
D03*
X-207061D02*
D03*
X-325984Y271949D02*
D03*
X-323228D02*
D03*
X-221628Y256231D02*
D03*
X-218872D02*
D03*
X-234620Y268042D02*
D03*
X-237376D02*
D03*
X-225590Y267717D02*
D03*
X-222835D02*
D03*
X-318504Y252264D02*
D03*
X-315748D02*
D03*
X-217717Y276181D02*
D03*
X-214961D02*
D03*
X-261319Y252067D02*
D03*
X-258563D02*
D03*
X-241339Y271654D02*
D03*
X-238583Y271654D02*
D03*
X-35630Y82677D02*
D03*
X-38386D02*
D03*
X-37222Y80000D02*
D03*
X-39978D02*
D03*
X-37222Y77300D02*
D03*
X-39978D02*
D03*
X-38222Y72300D02*
D03*
X-40978D02*
D03*
X-38222Y69500D02*
D03*
X-40978D02*
D03*
X-37622Y63400D02*
D03*
X-40378D02*
D03*
X-37622Y60600D02*
D03*
X-40378D02*
D03*
X-178839Y262697D02*
D03*
X-181595D02*
D03*
X-178839Y265256D02*
D03*
X-181595D02*
D03*
X-175689Y234547D02*
D03*
X-172933D02*
D03*
X-151772Y257579D02*
D03*
X-149016D02*
D03*
X-151772Y260138D02*
D03*
X-149016D02*
D03*
X-178543Y252362D02*
D03*
X-175787D02*
D03*
X-178543Y254921D02*
D03*
X-175787D02*
D03*
X-157972Y267323D02*
D03*
X-155217D02*
D03*
X-157972Y269882D02*
D03*
X-155217D02*
D03*
X-358563Y283465D02*
D03*
X-361319D02*
D03*
X-358563Y286024D02*
D03*
X-361319D02*
D03*
X-385177Y213917D02*
D03*
X-387933D02*
D03*
X-385177Y211358D02*
D03*
X-387933D02*
D03*
X-360138Y274606D02*
D03*
X-362894D02*
D03*
X-360138Y277067D02*
D03*
X-362894D02*
D03*
X-399980Y208917D02*
D03*
X-402736D02*
D03*
X-399980Y206358D02*
D03*
X-402736D02*
D03*
X-393113Y193799D02*
D03*
X-395869D02*
D03*
X-393113Y191437D02*
D03*
X-395869D02*
D03*
X-360925Y269980D02*
D03*
X-363681D02*
D03*
X-360925Y267421D02*
D03*
X-363681D02*
D03*
X-406102Y282480D02*
D03*
X-403346D02*
D03*
X-406102Y285039D02*
D03*
X-403346D02*
D03*
X-394980Y218917D02*
D03*
X-397736D02*
D03*
X-394980Y216358D02*
D03*
X-397736D02*
D03*
X-394980Y196457D02*
D03*
X-397736D02*
D03*
X-394980Y198819D02*
D03*
X-397736D02*
D03*
X-427362Y383366D02*
D03*
X-430118D02*
D03*
X-420276Y361811D02*
D03*
X-417520D02*
D03*
X-420276Y368504D02*
D03*
X-417520D02*
D03*
X-625886Y386221D02*
D03*
X-628642D02*
D03*
X-574606Y332874D02*
D03*
X-571850D02*
D03*
X-599213Y404921D02*
D03*
X-596457D02*
D03*
X-250295Y232972D02*
D03*
X-253051D02*
D03*
X-246457Y236910D02*
D03*
X-249213D02*
D03*
X-305512Y252658D02*
D03*
X-308268D02*
D03*
X-296431Y240483D02*
D03*
X-293676D02*
D03*
X-242520Y263779D02*
D03*
X-245276D02*
D03*
X-77022Y-58700D02*
D03*
X-79778D02*
D03*
X-34778Y-58900D02*
D03*
X-32022D02*
D03*
X-34678Y72300D02*
D03*
X-31922D02*
D03*
X-34678Y69600D02*
D03*
X-31922D02*
D03*
X-34078Y63400D02*
D03*
X-31322D02*
D03*
X-34078Y60600D02*
D03*
X-31322D02*
D03*
X-32178Y85400D02*
D03*
X-29422D02*
D03*
X-32178Y82700D02*
D03*
X-29422D02*
D03*
X-30922Y80000D02*
D03*
X-33678D02*
D03*
X-30922Y77300D02*
D03*
X-33678D02*
D03*
X-42224Y102264D02*
D03*
X-44980D02*
D03*
X-42224Y99803D02*
D03*
X-44980D02*
D03*
X-36811Y93996D02*
D03*
X-39567D02*
D03*
X-36811Y91535D02*
D03*
X-39567D02*
D03*
X-53937Y113386D02*
D03*
X-51181D02*
D03*
X-53937Y110925D02*
D03*
X-51181D02*
D03*
X-49606Y108071D02*
D03*
X-46850D02*
D03*
X-49606Y105512D02*
D03*
X-46850D02*
D03*
X-270571Y376130D02*
D03*
X-273327D02*
D03*
X-295768D02*
D03*
X-298524D02*
D03*
X-142323Y376083D02*
D03*
X-145079D02*
D03*
X-167520Y376181D02*
D03*
X-170276D02*
D03*
X-165650Y390453D02*
D03*
X-162894D02*
D03*
X-338878Y382429D02*
D03*
X-341634D02*
D03*
X-338878Y410776D02*
D03*
X-341634D02*
D03*
X-338878Y396602D02*
D03*
X-341634D02*
D03*
X-146653Y406299D02*
D03*
X-143898D02*
D03*
X-274902Y406248D02*
D03*
X-272146D02*
D03*
X-189370Y406201D02*
D03*
X-186614D02*
D03*
X-231953Y406153D02*
D03*
X-229197D02*
D03*
X-247799Y390405D02*
D03*
X-245043D02*
D03*
X-210236Y376181D02*
D03*
X-212992D02*
D03*
X-252819Y376134D02*
D03*
X-255575D02*
D03*
X-230771Y375838D02*
D03*
X-233527D02*
D03*
X-224803Y287697D02*
D03*
X-227559D02*
D03*
X-266043Y303150D02*
D03*
X-268799D02*
D03*
X-309055Y291634D02*
D03*
X-311811D02*
D03*
X-76522Y-93300D02*
D03*
X-79278D02*
D03*
X-34578Y-83900D02*
D03*
X-31822D02*
D03*
X-652122Y-73900D02*
D03*
X-654878D02*
D03*
X-667913Y-73425D02*
D03*
X-665158D02*
D03*
X-639722Y-78000D02*
D03*
X-642478D02*
D03*
X-654122Y-78200D02*
D03*
X-656878D02*
D03*
X-675678Y-3700D02*
D03*
X-672922D02*
D03*
X-640945Y-44055D02*
D03*
X-638189D02*
D03*
X-624016Y-42618D02*
D03*
X-621260D02*
D03*
X-175689Y231988D02*
D03*
X-172933D02*
D03*
X-679724Y316929D02*
D03*
X-682480D02*
D03*
X-688386Y351181D02*
D03*
X-691142D02*
D03*
X-296457Y267717D02*
D03*
X-293701D02*
D03*
X-300394Y263779D02*
D03*
X-297638D02*
D03*
X-254331Y267717D02*
D03*
X-257087D02*
D03*
X-303543Y248327D02*
D03*
X-306299D02*
D03*
X-264961Y255906D02*
D03*
X-262205D02*
D03*
X-246457Y267717D02*
D03*
X-249213D02*
D03*
X-333071Y264469D02*
D03*
X-335827D02*
D03*
X-216313Y268042D02*
D03*
X-219069D02*
D03*
X-317618Y267913D02*
D03*
X-320374D02*
D03*
X-312179Y264106D02*
D03*
X-309424D02*
D03*
X-320079Y275886D02*
D03*
X-317323D02*
D03*
X-304823Y279528D02*
D03*
X-307579D02*
D03*
X-35622Y85400D02*
D03*
X-38378D02*
D03*
X-175689Y221752D02*
D03*
X-172933D02*
D03*
X-163091Y227067D02*
D03*
X-160335D02*
D03*
X-175689Y224311D02*
D03*
X-172933D02*
D03*
X-163091Y229331D02*
D03*
X-160335D02*
D03*
X-171145Y245100D02*
D03*
X-173901D02*
D03*
X-153872Y249606D02*
D03*
X-151117D02*
D03*
X-171145Y242541D02*
D03*
X-173901D02*
D03*
X-153872Y247047D02*
D03*
X-151117D02*
D03*
X-244488Y311319D02*
D03*
X-247244D02*
D03*
X-236614Y295669D02*
D03*
X-239370D02*
D03*
X-220768D02*
D03*
X-218012D02*
D03*
X-228922Y319200D02*
D03*
X-231678D02*
D03*
X-232677Y307382D02*
D03*
X-235433D02*
D03*
X-212992Y287697D02*
D03*
X-215748D02*
D03*
Y303445D02*
D03*
X-212992D02*
D03*
X-239370Y212894D02*
D03*
X-236614D02*
D03*
X-290551Y228642D02*
D03*
X-287795D02*
D03*
X-282677Y212894D02*
D03*
X-279921D02*
D03*
X-294488Y216831D02*
D03*
X-291732D02*
D03*
X-252362Y224705D02*
D03*
X-255118D02*
D03*
X-209055Y197146D02*
D03*
X-211811D02*
D03*
X-220250Y193239D02*
D03*
X-217495D02*
D03*
X-231496Y197146D02*
D03*
X-228740D02*
D03*
X-310236Y311319D02*
D03*
X-307480D02*
D03*
X-294488Y319193D02*
D03*
X-291732D02*
D03*
X-302362Y232579D02*
D03*
X-299606D02*
D03*
X-272047Y319193D02*
D03*
X-274803Y319193D02*
D03*
X-306299Y220768D02*
D03*
X-303543Y220768D02*
D03*
X-298425Y205020D02*
D03*
X-295669D02*
D03*
X-268110Y291634D02*
D03*
X-270866D02*
D03*
X-302362Y193209D02*
D03*
X-299606Y193209D02*
D03*
X-283858Y323130D02*
D03*
X-286614D02*
D03*
X-310236Y208957D02*
D03*
X-307480Y208957D02*
D03*
X-314173Y197146D02*
D03*
X-311417D02*
D03*
X-279921Y193209D02*
D03*
X-282677D02*
D03*
X-283858Y220768D02*
D03*
X-286614D02*
D03*
X-251083Y319291D02*
D03*
X-248327D02*
D03*
X-225556Y240400D02*
D03*
X-222800D02*
D03*
X-336910Y259744D02*
D03*
X-339665D02*
D03*
X-336713Y236910D02*
D03*
X-339469D02*
D03*
X-209817Y240483D02*
D03*
X-207061D02*
D03*
X-209278Y272000D02*
D03*
X-206522D02*
D03*
X-331890Y248524D02*
D03*
X-329134D02*
D03*
X-327165Y240354D02*
D03*
X-329921D02*
D03*
X-209817Y252294D02*
D03*
X-207061D02*
D03*
X-225565D02*
D03*
X-222810D02*
D03*
X-234620Y244421D02*
D03*
X-237376Y244421D02*
D03*
X-312179Y268042D02*
D03*
X-309424D02*
D03*
X-312205Y240748D02*
D03*
X-309449Y240748D02*
D03*
X-234620Y264106D02*
D03*
X-237376D02*
D03*
X-226772Y271949D02*
D03*
X-229528Y271949D02*
D03*
X-225565Y248358D02*
D03*
X-222810D02*
D03*
X-234620Y248358D02*
D03*
X-237376D02*
D03*
X-422522Y82700D02*
D03*
X-425278D02*
D03*
X-425197Y107874D02*
D03*
X-422441D02*
D03*
X-292520Y263779D02*
D03*
X-289764D02*
D03*
X-288583Y267717D02*
D03*
X-285827D02*
D03*
X-289469Y260138D02*
D03*
X-286713D02*
D03*
X-284646Y263779D02*
D03*
X-281890D02*
D03*
X-249803Y260531D02*
D03*
X-247047D02*
D03*
X-296850Y259842D02*
D03*
X-299606D02*
D03*
X-251969Y257874D02*
D03*
X-249213D02*
D03*
X-257087Y263779D02*
D03*
X-254331D02*
D03*
X-51178Y99800D02*
D03*
X-48422D02*
D03*
X-51278Y102300D02*
D03*
X-48522D02*
D03*
X-45669Y93898D02*
D03*
X-42913D02*
D03*
X-45669Y91437D02*
D03*
X-42913D02*
D03*
X-60039Y110925D02*
D03*
X-57284D02*
D03*
X-60039Y113484D02*
D03*
X-57284D02*
D03*
X-55878Y107900D02*
D03*
X-53122D02*
D03*
X-55778Y105500D02*
D03*
X-53022D02*
D03*
X-596063Y-85925D02*
D03*
X-598819D02*
D03*
X-602078Y-82700D02*
D03*
X-599322D02*
D03*
X-161516Y270079D02*
D03*
X-164272D02*
D03*
X-161417Y267323D02*
D03*
X-164173D02*
D03*
X-182022Y254800D02*
D03*
X-184778D02*
D03*
X-182022Y252500D02*
D03*
X-184778D02*
D03*
X-181988Y234842D02*
D03*
X-179232D02*
D03*
X-185122Y265200D02*
D03*
X-187878D02*
D03*
X-185082Y262810D02*
D03*
X-187838D02*
D03*
X-156727Y227027D02*
D03*
X-153971D02*
D03*
X-156727Y229351D02*
D03*
X-153971D02*
D03*
X-160378Y249600D02*
D03*
X-157622D02*
D03*
X-160378Y247200D02*
D03*
X-157622D02*
D03*
X-157972Y237205D02*
D03*
X-155217D02*
D03*
X-157972Y239665D02*
D03*
X-155217D02*
D03*
X-47578Y69500D02*
D03*
X-44822D02*
D03*
X-47578Y72200D02*
D03*
X-44822D02*
D03*
X-46778Y63300D02*
D03*
X-44022D02*
D03*
X-46778Y60500D02*
D03*
X-44022D02*
D03*
X-611078Y-106900D02*
D03*
X-608322D02*
D03*
X-640378Y128000D02*
D03*
X-637622D02*
D03*
X-541078Y96300D02*
D03*
X-538322D02*
D03*
X-542717Y1969D02*
D03*
X-539961D02*
D03*
X-469622Y-20000D02*
D03*
X-472378D02*
D03*
X-469610Y-17073D02*
D03*
X-472366D02*
D03*
X-486128Y-61100D02*
D03*
X-483372D02*
D03*
X-486100Y-64100D02*
D03*
X-483344D02*
D03*
X-557478Y138500D02*
D03*
X-554722D02*
D03*
X-160578Y260200D02*
D03*
X-157822D02*
D03*
X-160678Y257600D02*
D03*
X-157922D02*
D03*
X-508748Y-70336D02*
D03*
X-505992D02*
D03*
X-508748Y-67335D02*
D03*
X-505992D02*
D03*
X-522578Y40100D02*
D03*
X-519822D02*
D03*
X-542717Y-1969D02*
D03*
X-539961D02*
D03*
X-517822Y96300D02*
D03*
X-520578D02*
D03*
X-671063Y315748D02*
D03*
X-673819D02*
D03*
X-498722Y-63900D02*
D03*
X-501478D02*
D03*
X-657379Y92188D02*
D03*
X-654623D02*
D03*
X-694488Y42323D02*
D03*
X-697244D02*
D03*
X-687402D02*
D03*
X-684646D02*
D03*
X-690354Y81693D02*
D03*
X-687598D02*
D03*
X-549606Y-34449D02*
D03*
X-546850D02*
D03*
X-504921Y2067D02*
D03*
X-502165D02*
D03*
X-524016Y-32972D02*
D03*
X-521260D02*
D03*
X-549606Y-38386D02*
D03*
X-546850D02*
D03*
X-504921Y-1870D02*
D03*
X-502165D02*
D03*
X-64003Y-32156D02*
D03*
X-66759D02*
D03*
X-522047Y44291D02*
D03*
X-519291D02*
D03*
X-525778Y73200D02*
D03*
X-523022D02*
D03*
X-529122D02*
D03*
X-531878D02*
D03*
X-549122Y-86100D02*
D03*
X-551878D02*
D03*
X-472297Y-14103D02*
D03*
X-469541D02*
D03*
X-472297Y-11741D02*
D03*
X-469541D02*
D03*
X-518322Y-132700D02*
D03*
X-521078D02*
D03*
X-181988Y232480D02*
D03*
X-179232D02*
D03*
X-563583Y46260D02*
D03*
X-566339D02*
D03*
X-554232Y72342D02*
D03*
X-556988D02*
D03*
D257*
X-594095Y-90453D02*
D03*
X-600394D02*
D03*
X-591850Y-72200D02*
D03*
X-585550D02*
D03*
X-123721Y-87106D02*
D03*
X-117421D02*
D03*
X-144685Y-66437D02*
D03*
X-138386D02*
D03*
X-150197D02*
D03*
X-156496D02*
D03*
X-505610Y66437D02*
D03*
X-499311D02*
D03*
X-324626Y-94095D02*
D03*
X-330925D02*
D03*
X-314193Y-100098D02*
D03*
X-307894D02*
D03*
X-310256Y-94685D02*
D03*
X-303957D02*
D03*
X-236024Y-96161D02*
D03*
X-242323D02*
D03*
X-240945Y-90158D02*
D03*
X-247244D02*
D03*
X-230512Y-96161D02*
D03*
X-224213D02*
D03*
X-226575Y-90748D02*
D03*
X-220276D02*
D03*
X-326004Y-100098D02*
D03*
X-319705D02*
D03*
X-190157Y59252D02*
D03*
X-196457D02*
D03*
X-194250Y78700D02*
D03*
X-187950D02*
D03*
X-205413Y87303D02*
D03*
X-199114D02*
D03*
X-603950Y-76100D02*
D03*
X-610250D02*
D03*
X-591950Y-78300D02*
D03*
X-598250D02*
D03*
X-580350Y-108300D02*
D03*
X-586650D02*
D03*
X-521450Y304200D02*
D03*
X-515150D02*
D03*
D258*
X-563700Y124772D02*
D03*
Y121228D02*
D03*
X-555500Y83572D02*
D03*
Y80028D02*
D03*
X-377244Y395374D02*
D03*
Y398917D02*
D03*
X-686000Y-52528D02*
D03*
Y-56072D02*
D03*
X-295669Y418748D02*
D03*
Y415205D02*
D03*
X-607518Y118774D02*
D03*
Y115231D02*
D03*
X-549600Y84472D02*
D03*
Y80928D02*
D03*
X-301700Y279372D02*
D03*
Y275828D02*
D03*
X-630200Y322628D02*
D03*
Y326172D02*
D03*
X-548900Y352528D02*
D03*
Y356072D02*
D03*
X-566299Y410331D02*
D03*
Y413875D02*
D03*
X-562600Y410328D02*
D03*
Y413872D02*
D03*
X-570000Y410328D02*
D03*
Y413872D02*
D03*
X-551500Y391428D02*
D03*
Y394972D02*
D03*
X-330335Y-122539D02*
D03*
Y-126083D02*
D03*
X-219500Y-98872D02*
D03*
Y-95328D02*
D03*
X-637598Y394390D02*
D03*
Y390846D02*
D03*
X-210433Y76279D02*
D03*
Y79823D02*
D03*
X-608563Y296752D02*
D03*
Y293209D02*
D03*
X-603740Y330807D02*
D03*
Y327264D02*
D03*
X-575900Y225572D02*
D03*
Y222028D02*
D03*
X-669200Y320328D02*
D03*
Y323872D02*
D03*
X-332500Y160172D02*
D03*
Y156628D02*
D03*
X-650538Y246303D02*
D03*
Y249847D02*
D03*
Y261341D02*
D03*
Y264884D02*
D03*
Y276378D02*
D03*
Y279921D02*
D03*
X-669193Y332579D02*
D03*
Y329035D02*
D03*
X-404528Y138583D02*
D03*
Y135039D02*
D03*
X-280512Y-8661D02*
D03*
Y-5118D02*
D03*
X-327756Y-9646D02*
D03*
Y-6102D02*
D03*
X-570866Y249705D02*
D03*
Y253248D02*
D03*
X-566929D02*
D03*
Y249705D02*
D03*
X-473500Y332172D02*
D03*
Y335716D02*
D03*
D259*
X-136831Y-14055D02*
D03*
X-109823Y-4055D02*
D03*
X-178071Y-14350D02*
D03*
X-151063Y-4350D02*
D03*
X-263898Y-44075D02*
D03*
X-236890Y-34075D02*
D03*
X-222657Y-43780D02*
D03*
X-195650Y-33779D02*
D03*
X-75004Y175400D02*
D03*
X-47996Y185400D02*
D03*
D260*
X-135079Y-6555D02*
D03*
X-111575Y-11555D02*
D03*
X-176319Y-6850D02*
D03*
X-152815Y-11850D02*
D03*
X-262146Y-36575D02*
D03*
X-238642Y-41575D02*
D03*
X-220905Y-36279D02*
D03*
X-197402Y-41280D02*
D03*
X-73252Y182900D02*
D03*
X-49748Y177900D02*
D03*
D261*
X-377343Y386417D02*
D03*
X-389154D02*
D03*
X-447638Y390945D02*
D03*
X-459449D02*
D03*
X-196064Y25787D02*
D03*
X-207876D02*
D03*
X-196065Y43504D02*
D03*
X-207876D02*
D03*
X-196065Y34646D02*
D03*
X-207876D02*
D03*
D262*
X-309267Y-108580D02*
D03*
Y-105037D02*
D03*
X-324621Y-108580D02*
D03*
Y-105037D02*
D03*
X-139759Y-74919D02*
D03*
Y-71376D02*
D03*
X-357658Y403839D02*
D03*
Y400295D02*
D03*
X-155113Y-74919D02*
D03*
Y-71376D02*
D03*
X-240940Y-104643D02*
D03*
Y-101100D02*
D03*
X-225586Y-104643D02*
D03*
Y-101100D02*
D03*
X-199508Y72638D02*
D03*
Y76181D02*
D03*
X-693110Y359350D02*
D03*
Y362894D02*
D03*
X-667323Y354823D02*
D03*
Y358366D02*
D03*
X-179727Y72069D02*
D03*
Y75612D02*
D03*
X-175200Y72128D02*
D03*
Y75672D02*
D03*
X-514500Y350028D02*
D03*
Y353572D02*
D03*
X-507800Y109972D02*
D03*
Y106428D02*
D03*
X-76100Y162528D02*
D03*
Y166072D02*
D03*
X-112900Y-128728D02*
D03*
Y-132272D02*
D03*
D263*
X-356693Y-103543D02*
D03*
Y-97244D02*
D03*
X-125984Y-124508D02*
D03*
Y-130807D02*
D03*
X-614370Y-50886D02*
D03*
X-614370Y-44587D02*
D03*
X-442028Y389764D02*
D03*
Y396063D02*
D03*
X-478051Y392224D02*
D03*
Y398524D02*
D03*
X-484547Y392224D02*
D03*
Y398524D02*
D03*
X-466240Y342618D02*
D03*
Y336319D02*
D03*
X-460335Y342618D02*
D03*
Y336319D02*
D03*
X-216142Y62402D02*
D03*
Y68701D02*
D03*
X-190300Y85050D02*
D03*
Y91350D02*
D03*
X-273425Y258957D02*
D03*
Y252658D02*
D03*
Y235039D02*
D03*
Y241339D02*
D03*
Y228346D02*
D03*
Y222047D02*
D03*
Y271949D02*
D03*
Y265650D02*
D03*
X-241437Y331201D02*
D03*
Y337500D02*
D03*
X-234547Y331201D02*
D03*
Y337500D02*
D03*
X-273425Y195768D02*
D03*
X-273425Y202067D02*
D03*
X-231594Y186909D02*
D03*
X-231594Y180610D02*
D03*
X-261024Y186122D02*
D03*
Y179823D02*
D03*
X-285236Y186319D02*
D03*
X-285236Y180020D02*
D03*
X-169980Y182382D02*
D03*
X-169980Y176083D02*
D03*
X-274410Y187106D02*
D03*
Y180807D02*
D03*
X-222146Y187008D02*
D03*
Y180709D02*
D03*
X-261614Y318012D02*
D03*
X-261614Y324311D02*
D03*
X-301279Y333071D02*
D03*
Y339370D02*
D03*
X-305217Y183563D02*
D03*
X-305217Y177264D02*
D03*
X-312008Y183760D02*
D03*
X-312008Y177461D02*
D03*
X-269094Y329724D02*
D03*
Y336024D02*
D03*
X-282972Y333760D02*
D03*
Y340059D02*
D03*
X-299410Y183563D02*
D03*
Y177264D02*
D03*
X-291535Y333071D02*
D03*
Y339370D02*
D03*
X-320669Y290256D02*
D03*
Y296555D02*
D03*
X-311221Y332972D02*
D03*
Y339272D02*
D03*
X-485827Y37500D02*
D03*
Y31201D02*
D03*
X-478937Y37500D02*
D03*
Y31201D02*
D03*
X-476870Y61713D02*
D03*
Y55413D02*
D03*
X-484547Y61713D02*
D03*
Y55413D02*
D03*
X-432087Y103642D02*
D03*
Y97342D02*
D03*
X-414567Y94784D02*
D03*
Y88484D02*
D03*
X-406791Y94685D02*
D03*
Y88386D02*
D03*
X-186400Y117050D02*
D03*
Y123350D02*
D03*
X-420276Y147835D02*
D03*
Y141535D02*
D03*
X-544100Y348550D02*
D03*
Y354850D02*
D03*
D264*
X-426772Y171260D02*
D03*
X-419685D02*
D03*
X-222643Y28500D02*
D03*
X-215557D02*
D03*
X-222543Y37900D02*
D03*
X-215457D02*
D03*
X-222843Y19500D02*
D03*
X-215757D02*
D03*
X-220043Y52600D02*
D03*
X-212957D02*
D03*
X-496258Y57972D02*
D03*
X-503345D02*
D03*
D265*
X-614665Y-58071D02*
D03*
X-607579Y-58071D02*
D03*
X-588043Y421000D02*
D03*
X-580957D02*
D03*
X-594882Y242126D02*
D03*
X-601968D02*
D03*
D266*
X-681201Y8661D02*
D03*
X-683760D02*
D03*
X-686319D02*
D03*
X-688878D02*
D03*
Y-8661D02*
D03*
X-686319D02*
D03*
X-683760D02*
D03*
X-681201D02*
D03*
D267*
X-313529Y383467D02*
D03*
X-311024Y385972D02*
D03*
X-310183Y406498D02*
D03*
X-307677Y409004D02*
D03*
X-310872Y380809D02*
D03*
X-308366Y383315D02*
D03*
D268*
X-623600Y323348D02*
D03*
Y316852D02*
D03*
X-462008Y416732D02*
D03*
Y423228D02*
D03*
D269*
X-194380Y-99715D02*
D03*
X-192431Y-101663D02*
D03*
X-275394Y388334D02*
D03*
X-273445Y386386D02*
D03*
X-296850Y391582D02*
D03*
X-298799Y393531D02*
D03*
X-149409Y388189D02*
D03*
X-147461Y386240D02*
D03*
X-191634Y388583D02*
D03*
X-189685Y386634D02*
D03*
X-211319Y391732D02*
D03*
X-213268Y393681D02*
D03*
X-477352Y-30522D02*
D03*
X-475404Y-32470D02*
D03*
D270*
X-502264Y73032D02*
D03*
X-495768D02*
D03*
D271*
X-365860Y-61345D02*
D03*
X-369600Y-70400D02*
D03*
X-373340Y-61345D02*
D03*
D272*
X-583051Y-32677D02*
D03*
X-588051D02*
D03*
X-593051Y-32677D02*
D03*
X-583051Y-53937D02*
D03*
X-588051Y-53937D02*
D03*
X-598051Y-53937D02*
D03*
Y-32677D02*
D03*
X-593051Y-53937D02*
D03*
X-692200Y322970D02*
D03*
X-687200D02*
D03*
X-682200D02*
D03*
X-677200D02*
D03*
X-687200Y344230D02*
D03*
X-682200D02*
D03*
X-677200D02*
D03*
X-692200D02*
D03*
D273*
X-179677Y-107505D02*
D03*
X-176141Y-103969D02*
D03*
X-172606Y-100434D02*
D03*
X-194710Y-92472D02*
D03*
X-187638Y-85401D02*
D03*
X-184103Y-81865D02*
D03*
X-169070Y-96898D02*
D03*
X-191174Y-88936D02*
D03*
D274*
X-692520Y407480D02*
D03*
X-137800Y397000D02*
D03*
D275*
X-313484Y378098D02*
D03*
X-315433Y376150D02*
D03*
X-316831Y381248D02*
D03*
X-318779Y379299D02*
D03*
X-313779Y404181D02*
D03*
X-315728Y402232D02*
D03*
X-314774Y410864D02*
D03*
X-316722Y408915D02*
D03*
X-233704Y384028D02*
D03*
X-231756Y385976D02*
D03*
D276*
X-283409Y199332D02*
D03*
X-282930Y202046D02*
D03*
D277*
X-255983Y300212D02*
D03*
X-255041Y297622D02*
D03*
D278*
X-645079Y320866D02*
D03*
X-634842D02*
D03*
X-577618Y152500D02*
D03*
X-567382D02*
D03*
X-550218Y141500D02*
D03*
X-539982D02*
D03*
X-108118Y-128500D02*
D03*
X-97882D02*
D03*
X-501218Y340200D02*
D03*
X-490982D02*
D03*
X-495318Y128400D02*
D03*
X-485082D02*
D03*
D279*
X-474600Y355648D02*
D03*
X-469600Y379152D02*
D03*
X-484200Y70400D02*
D03*
X-479200Y93904D02*
D03*
D280*
X-467100Y353896D02*
D03*
X-477100Y380904D02*
D03*
X-476700Y68648D02*
D03*
X-486700Y95656D02*
D03*
D281*
X-193799Y188681D02*
D03*
Y176870D02*
D03*
D282*
X-443701Y97342D02*
D03*
X-439247Y92888D02*
D03*
D283*
X-220200Y306599D02*
D03*
Y304001D02*
D03*
X-224200Y306699D02*
D03*
Y304101D02*
D03*
X-255700Y208299D02*
D03*
Y205701D02*
D03*
X-263500Y209501D02*
D03*
Y212099D02*
D03*
X-433800Y-81799D02*
D03*
Y-79201D02*
D03*
X-428900Y-81899D02*
D03*
Y-79301D02*
D03*
X-384901Y110600D02*
D03*
Y113199D02*
D03*
Y107600D02*
D03*
Y105002D02*
D03*
X-366700Y116599D02*
D03*
Y114001D02*
D03*
X-366701Y119700D02*
D03*
Y122298D02*
D03*
X-406181Y51811D02*
D03*
Y49213D02*
D03*
Y44154D02*
D03*
Y46752D02*
D03*
X-453600Y46101D02*
D03*
Y48699D02*
D03*
X-448800Y45001D02*
D03*
Y47599D02*
D03*
X-443500Y-40401D02*
D03*
Y-42999D02*
D03*
X-438100Y-43001D02*
D03*
Y-45599D02*
D03*
X-463300Y64901D02*
D03*
Y67499D02*
D03*
X-454100Y61901D02*
D03*
Y64499D02*
D03*
X-453800Y57099D02*
D03*
Y54501D02*
D03*
X-449200Y59501D02*
D03*
Y62099D02*
D03*
X-454400Y93801D02*
D03*
Y96399D02*
D03*
X-463200Y94301D02*
D03*
Y96899D02*
D03*
X-456400Y2001D02*
D03*
Y4599D02*
D03*
X-453389Y2028D02*
D03*
Y4626D02*
D03*
X-613546Y89744D02*
D03*
Y92343D02*
D03*
X-613547Y97144D02*
D03*
Y99743D02*
D03*
X-519900Y81401D02*
D03*
Y83999D02*
D03*
D284*
X-560925Y-27559D02*
D03*
Y-47244D02*
D03*
D285*
X-566929Y-33366D02*
D03*
Y-21752D02*
D03*
Y-41437D02*
D03*
Y-53051D02*
D03*
D286*
X-644250Y-99200D02*
D03*
X-640550D02*
D03*
X-635750Y192600D02*
D03*
X-639450D02*
D03*
X-639450Y158000D02*
D03*
X-643150D02*
D03*
X-552350Y334800D02*
D03*
X-548650D02*
D03*
Y338600D02*
D03*
X-552350D02*
D03*
X-534150Y336400D02*
D03*
X-537850D02*
D03*
X-526850Y329300D02*
D03*
X-530550D02*
D03*
X-530450Y336400D02*
D03*
X-526750D02*
D03*
X-650050Y135600D02*
D03*
X-646350D02*
D03*
X-607550Y142700D02*
D03*
X-611250D02*
D03*
X-607650Y130700D02*
D03*
X-611350D02*
D03*
X-481250Y-70100D02*
D03*
X-484950D02*
D03*
X-653150Y184600D02*
D03*
X-656850D02*
D03*
X-649950Y144500D02*
D03*
X-646250D02*
D03*
X-628350Y192600D02*
D03*
X-632050D02*
D03*
X-491550Y-63600D02*
D03*
X-495250D02*
D03*
X-527150Y32400D02*
D03*
X-523450D02*
D03*
X-465431Y-86492D02*
D03*
X-469132D02*
D03*
X-538350Y32600D02*
D03*
X-542050D02*
D03*
X-607650Y150700D02*
D03*
X-611350D02*
D03*
X-607650Y138900D02*
D03*
X-611350D02*
D03*
X-600250Y150600D02*
D03*
X-603950D02*
D03*
X-587317Y168789D02*
D03*
X-583616D02*
D03*
X-646350Y131800D02*
D03*
X-650050D02*
D03*
X-617350Y125700D02*
D03*
X-613650D02*
D03*
X-601350Y135800D02*
D03*
X-597650D02*
D03*
X-611350Y146900D02*
D03*
X-607650D02*
D03*
X-646350Y139400D02*
D03*
X-650050D02*
D03*
X-577850Y158000D02*
D03*
X-574150D02*
D03*
X-379750Y-84400D02*
D03*
X-376050D02*
D03*
X-563850Y144100D02*
D03*
X-567550D02*
D03*
X-550350Y147200D02*
D03*
X-546650D02*
D03*
X-200750Y3500D02*
D03*
X-197050D02*
D03*
X-468996Y-81201D02*
D03*
X-465295D02*
D03*
X-472299Y195800D02*
D03*
X-476000D02*
D03*
X-491561Y-59827D02*
D03*
X-495262D02*
D03*
X-500750Y-67300D02*
D03*
X-497050D02*
D03*
X-500762Y-71227D02*
D03*
X-497061D02*
D03*
X-640866Y84646D02*
D03*
X-644567D02*
D03*
X-652551Y86388D02*
D03*
X-648850D02*
D03*
X-661754Y79398D02*
D03*
X-665455D02*
D03*
X-391358Y142197D02*
D03*
X-395059D02*
D03*
X-391358Y145669D02*
D03*
X-395059D02*
D03*
X-546250Y272800D02*
D03*
X-542550D02*
D03*
X-546250Y269000D02*
D03*
X-542550D02*
D03*
X-549850Y264500D02*
D03*
X-546150D02*
D03*
X-549850Y260700D02*
D03*
X-546150D02*
D03*
X-535450Y275300D02*
D03*
X-531750D02*
D03*
X-509950Y273100D02*
D03*
X-513650D02*
D03*
X-546150Y256100D02*
D03*
X-542450D02*
D03*
X-546150Y252400D02*
D03*
X-542450D02*
D03*
X-507650Y256800D02*
D03*
X-511350D02*
D03*
X-507650Y260700D02*
D03*
X-511350D02*
D03*
X-506150Y264600D02*
D03*
X-509850D02*
D03*
X-506150Y268500D02*
D03*
X-509850D02*
D03*
X-510250Y231900D02*
D03*
X-513950D02*
D03*
X-650850Y-40400D02*
D03*
X-647150D02*
D03*
X-654550D02*
D03*
X-658250D02*
D03*
X-472303Y192000D02*
D03*
X-476004D02*
D03*
X-549350Y32400D02*
D03*
X-545650D02*
D03*
X-557150Y32300D02*
D03*
X-560850D02*
D03*
X-540150Y58300D02*
D03*
X-536450D02*
D03*
X-548550D02*
D03*
X-552250D02*
D03*
X-555804Y-107471D02*
D03*
X-559505D02*
D03*
X-555804Y-112471D02*
D03*
X-559505D02*
D03*
X-555804Y-117471D02*
D03*
X-559505D02*
D03*
X-95050Y-59500D02*
D03*
X-98750D02*
D03*
Y-85100D02*
D03*
X-95050D02*
D03*
X-225450Y-24400D02*
D03*
X-221750D02*
D03*
X-225150Y300D02*
D03*
X-221450D02*
D03*
X-218050Y-21400D02*
D03*
X-214350D02*
D03*
X-203850Y-22100D02*
D03*
X-200150D02*
D03*
X-665531Y304331D02*
D03*
X-661831D02*
D03*
X-655450Y301300D02*
D03*
X-651750D02*
D03*
X-543150Y-133100D02*
D03*
X-539450D02*
D03*
X-474450Y128400D02*
D03*
X-478150D02*
D03*
X-476250Y205500D02*
D03*
X-472550D02*
D03*
X-467650Y209900D02*
D03*
X-471350D02*
D03*
X-475650Y222800D02*
D03*
X-471950D02*
D03*
X-471050Y227300D02*
D03*
X-467350D02*
D03*
X-559450Y309300D02*
D03*
X-555750D02*
D03*
X-559450Y305400D02*
D03*
X-555750D02*
D03*
X-650816Y221969D02*
D03*
X-654517D02*
D03*
X-597028Y128543D02*
D03*
X-593327Y128543D02*
D03*
X-375020Y-119390D02*
D03*
X-378720D02*
D03*
X-629931Y337213D02*
D03*
X-633632D02*
D03*
X-513661Y-51673D02*
D03*
X-509961Y-51673D02*
D03*
X-513661Y-47736D02*
D03*
X-509961Y-47736D02*
D03*
X-617350Y121949D02*
D03*
X-613650D02*
D03*
X-530394Y-62008D02*
D03*
X-526693D02*
D03*
X-469132Y-86492D02*
D03*
X-472832D02*
D03*
X-468996Y-81201D02*
D03*
X-472697D02*
D03*
D287*
X-552356Y342800D02*
D03*
X-546844D02*
D03*
X-67744Y-132900D02*
D03*
X-73256D02*
D03*
X-373000Y-107100D02*
D03*
X-367488D02*
D03*
X-372156Y-115000D02*
D03*
X-366644D02*
D03*
D288*
X-479300Y334731D02*
D03*
Y326069D02*
D03*
D289*
X-502330Y43900D02*
D03*
X-493669D02*
D03*
D290*
X-195661Y273500D02*
D03*
X-178339D02*
D03*
X-362461Y256900D02*
D03*
X-345139D02*
D03*
D291*
X-490158Y-33465D02*
D03*
X-533016Y43002D02*
D03*
X-553453D02*
D03*
X-544402Y68953D02*
D03*
D292*
X-683300Y-69880D02*
D03*
Y-62400D02*
D03*
X-692355Y-66140D02*
D03*
D293*
X-526856Y82684D02*
D03*
D294*
X-398100Y257000D02*
D03*
X-241600Y30700D02*
D03*
X-132185Y386713D02*
D03*
X-485500Y15600D02*
D03*
X-548900Y166000D02*
D03*
X-627900Y207900D02*
D03*
X-606791Y-45768D02*
D03*
X-552400Y410700D02*
D03*
D295*
X-156600Y172900D02*
D03*
X-274016Y-127953D02*
D03*
X-342520Y149606D02*
D03*
X-72700Y-114700D02*
D03*
X-633600Y407400D02*
D03*
D296*
X-193400Y281750D02*
D03*
Y288050D02*
D03*
D297*
X-558661Y21654D02*
D03*
X-567323D02*
D03*
D298*
X-689961Y25591D02*
D03*
X-242400Y11000D02*
D03*
X-372300Y143300D02*
D03*
X-575984Y311319D02*
D03*
D299*
X-55905Y215945D02*
D03*
X-50000D02*
D03*
X-55905Y284842D02*
D03*
X-50000D02*
D03*
X-73622D02*
D03*
X-67716D02*
D03*
X-32283Y265158D02*
D03*
Y255315D02*
D03*
Y245472D02*
D03*
Y235630D02*
D03*
Y206102D02*
D03*
Y196260D02*
D03*
X-38189D02*
D03*
Y206102D02*
D03*
Y215945D02*
D03*
Y235630D02*
D03*
Y245472D02*
D03*
Y255315D02*
D03*
Y265158D02*
D03*
X-73622Y196260D02*
D03*
Y206102D02*
D03*
Y215945D02*
D03*
Y225787D02*
D03*
Y235630D02*
D03*
Y245472D02*
D03*
Y255315D02*
D03*
Y265158D02*
D03*
Y275000D02*
D03*
X-67716Y196260D02*
D03*
Y206102D02*
D03*
Y215945D02*
D03*
Y225787D02*
D03*
Y235630D02*
D03*
Y245472D02*
D03*
Y255315D02*
D03*
Y265158D02*
D03*
Y275000D02*
D03*
X-55905Y196260D02*
D03*
Y206102D02*
D03*
Y225787D02*
D03*
Y235630D02*
D03*
Y255315D02*
D03*
Y265158D02*
D03*
Y275000D02*
D03*
X-50000Y196260D02*
D03*
Y206102D02*
D03*
Y225787D02*
D03*
Y235630D02*
D03*
Y255315D02*
D03*
Y265158D02*
D03*
Y275000D02*
D03*
X-32283Y215945D02*
D03*
X-38189Y284842D02*
D03*
X-32283Y284842D02*
D03*
X-55905Y245472D02*
D03*
X-50000D02*
D03*
X-38189Y225787D02*
D03*
X-32283D02*
D03*
Y275000D02*
D03*
X-38189D02*
D03*
X-61811Y284842D02*
D03*
X-79528D02*
D03*
X-44094D02*
D03*
X-61811Y275000D02*
D03*
X-79528D02*
D03*
X-44094D02*
D03*
X-61811Y265158D02*
D03*
X-79528D02*
D03*
X-44094D02*
D03*
X-79528Y255315D02*
D03*
X-44094D02*
D03*
X-61811D02*
D03*
X-44094Y245472D02*
D03*
X-61811D02*
D03*
X-79528D02*
D03*
X-44094Y196260D02*
D03*
Y206102D02*
D03*
Y225787D02*
D03*
Y235630D02*
D03*
Y215945D02*
D03*
X-61811D02*
D03*
Y225787D02*
D03*
Y196260D02*
D03*
Y206102D02*
D03*
Y235630D02*
D03*
X-79528Y215945D02*
D03*
Y225787D02*
D03*
Y196260D02*
D03*
Y206102D02*
D03*
Y235630D02*
D03*
X-73622Y363583D02*
D03*
X-67716D02*
D03*
X-55905Y383268D02*
D03*
X-50000D02*
D03*
X-55905Y314370D02*
D03*
X-50000D02*
D03*
X-73622Y343898D02*
D03*
X-67716D02*
D03*
X-38189Y304528D02*
D03*
X-32283D02*
D03*
X-55905Y294685D02*
D03*
X-50000D02*
D03*
Y373425D02*
D03*
Y363583D02*
D03*
Y353740D02*
D03*
Y343898D02*
D03*
Y334055D02*
D03*
Y324213D02*
D03*
Y304528D02*
D03*
X-55905Y373425D02*
D03*
Y363583D02*
D03*
Y353740D02*
D03*
Y343898D02*
D03*
Y334055D02*
D03*
Y324213D02*
D03*
Y304528D02*
D03*
X-67716Y383268D02*
D03*
Y373425D02*
D03*
Y353740D02*
D03*
Y334055D02*
D03*
Y324213D02*
D03*
Y314370D02*
D03*
Y304528D02*
D03*
Y294685D02*
D03*
X-73622Y383268D02*
D03*
Y373425D02*
D03*
Y353740D02*
D03*
Y334055D02*
D03*
Y324213D02*
D03*
Y314370D02*
D03*
Y304528D02*
D03*
Y294685D02*
D03*
X-38189Y373425D02*
D03*
Y353740D02*
D03*
Y343898D02*
D03*
Y334055D02*
D03*
Y314370D02*
D03*
X-32283Y314370D02*
D03*
Y334055D02*
D03*
Y343898D02*
D03*
Y353740D02*
D03*
Y373425D02*
D03*
X-38189Y383268D02*
D03*
X-32283Y383268D02*
D03*
X-38189Y363583D02*
D03*
X-32283D02*
D03*
X-38189Y324213D02*
D03*
X-32283D02*
D03*
X-38189Y294685D02*
D03*
X-32283D02*
D03*
X-61811Y383268D02*
D03*
X-79528D02*
D03*
X-44094D02*
D03*
X-79528Y373425D02*
D03*
X-44094D02*
D03*
X-61811Y363583D02*
D03*
X-44094D02*
D03*
X-61811Y353740D02*
D03*
Y373425D02*
D03*
X-79528Y363583D02*
D03*
Y353740D02*
D03*
X-44094Y343898D02*
D03*
Y353740D02*
D03*
Y334055D02*
D03*
X-61811D02*
D03*
Y343898D02*
D03*
X-79528D02*
D03*
Y334055D02*
D03*
X-44094Y324213D02*
D03*
X-61811D02*
D03*
X-44094Y314370D02*
D03*
X-61811D02*
D03*
X-79528D02*
D03*
Y324213D02*
D03*
X-61811Y304528D02*
D03*
X-79528D02*
D03*
X-44094D02*
D03*
X-61811Y294685D02*
D03*
X-79528D02*
D03*
X-44094D02*
D03*
D300*
X-49213Y409449D02*
D03*
D301*
X-78740D02*
D03*
X-108268D02*
D03*
D302*
X-591338Y-126181D02*
D03*
D303*
X-584646D02*
D03*
D304*
X-436368Y116614D02*
D03*
X-424360Y-97480D02*
D03*
X-436368Y392205D02*
D03*
X-424360Y178111D02*
D03*
D305*
X-689469Y153849D02*
D03*
Y136132D02*
D03*
D306*
X-679626Y158770D02*
D03*
Y131211D02*
D03*
D307*
X-444183Y-114311D02*
D03*
X-445364Y161280D02*
D03*
X-660325Y171122D02*
D03*
X-445364Y409311D02*
D03*
X-660325Y393760D02*
D03*
Y118169D02*
D03*
X-445364Y133721D02*
D03*
X-660325Y-104468D02*
D03*
D308*
X-378346Y-71850D02*
D03*
Y-111221D02*
D03*
D309*
X-117323Y-119587D02*
D03*
X-100787D02*
D03*
Y-97933D02*
D03*
X-117323Y-97933D02*
D03*
D310*
X-685797Y115460D02*
D03*
Y97940D02*
D03*
D311*
X-698100Y122792D02*
D03*
Y90608D02*
D03*
D312*
X-696260Y-131890D02*
D03*
X-629921Y430709D02*
D03*
D313*
X-625197Y-125787D02*
D03*
M02*
