G04*
G04 #@! TF.GenerationSoftware,Altium Limited,Altium Designer,26.9.1 (10)*
G04*
G04 Layer_Color=8421504*
G04 Board_Origin=228582677|171948819*
%FSLAX25Y25*%
%MOIN*%
G70*
G04*
G04 #@! TF.SameCoordinates,ED57C980-2DDC-4A83-B708-2B3B4A8BE11F*
G04*
G04*
G04 #@! TF.FilePolarity,Positive*
G04*
G01*
G75*
%ADD26O,0.05906X0.02362*%
%ADD27R,0.07480X0.05118*%
%ADD28R,0.08268X0.03937*%
%ADD29R,0.23032X0.21654*%
%ADD30O,0.03347X0.01102*%
%ADD31O,0.01102X0.03347*%
%ADD32R,0.08071X0.15945*%
%ADD33R,0.03071X0.01575*%
%ADD34R,0.00906X0.02854*%
%ADD35R,0.02165X0.06102*%
%ADD36R,0.04134X0.02362*%
%ADD37R,0.02362X0.04331*%
%ADD38R,0.04134X0.02559*%
%ADD39R,0.03937X0.02362*%
%ADD40R,0.03740X0.01575*%
%ADD41R,0.05118X0.02362*%
%ADD42R,0.05118X0.03937*%
%ADD43R,0.05906X0.01772*%
%ADD44R,0.05709X0.01772*%
%ADD45R,0.04331X0.01575*%
%ADD46R,0.05906X0.01181*%
%ADD47R,0.03347X0.01181*%
%ADD48R,0.01181X0.03347*%
%ADD49R,0.09843X0.06890*%
%ADD50R,0.06102X0.02362*%
%ADD51R,0.02362X0.07874*%
%ADD52R,0.07874X0.02362*%
%ADD53R,0.01968X0.02953*%
%ADD54R,0.01968X0.03543*%
%ADD55R,0.05000X0.12520*%
%ADD56R,0.03937X0.03543*%
%ADD57R,0.02362X0.02362*%
%ADD58R,0.02441X0.02284*%
%ADD59R,0.01811X0.01654*%
%ADD60R,0.03150X0.00984*%
%ADD61C,0.01329*%
%ADD62R,0.01181X0.02165*%
%ADD63C,0.01063*%
%ADD64C,0.00100*%
%ADD65R,0.01181X0.05906*%
%ADD66O,0.01378X0.04134*%
%ADD67O,0.04134X0.01378*%
%ADD68R,0.08858X0.08858*%
%ADD69O,0.03543X0.01181*%
%ADD70O,0.01181X0.03543*%
%ADD71R,0.08661X0.08661*%
%ADD72O,0.02953X0.01181*%
%ADD73O,0.01181X0.02953*%
%ADD74R,0.07284X0.07284*%
%ADD75O,0.00787X0.03150*%
%ADD76O,0.03150X0.00787*%
%ADD77O,0.03543X0.00787*%
%ADD78R,0.03703X0.08268*%
%ADD79R,0.08268X0.03703*%
%ADD80R,0.05118X0.06083*%
%ADD81R,0.08465X0.06693*%
%ADD82R,0.07677X0.06102*%
%ADD83R,0.02953X0.07087*%
%ADD84R,0.06693X0.03150*%
G04:AMPARAMS|DCode=85|XSize=9.45mil|YSize=35.43mil|CornerRadius=2.36mil|HoleSize=0mil|Usage=FLASHONLY|Rotation=180.000|XOffset=0mil|YOffset=0mil|HoleType=Round|Shape=RoundedRectangle|*
%AMROUNDEDRECTD85*
21,1,0.00945,0.03071,0,0,180.0*
21,1,0.00472,0.03543,0,0,180.0*
1,1,0.00472,-0.00236,0.01535*
1,1,0.00472,0.00236,0.01535*
1,1,0.00472,0.00236,-0.01535*
1,1,0.00472,-0.00236,-0.01535*
%
%ADD85ROUNDEDRECTD85*%
G04:AMPARAMS|DCode=86|XSize=9.45mil|YSize=35.43mil|CornerRadius=2.36mil|HoleSize=0mil|Usage=FLASHONLY|Rotation=90.000|XOffset=0mil|YOffset=0mil|HoleType=Round|Shape=RoundedRectangle|*
%AMROUNDEDRECTD86*
21,1,0.00945,0.03071,0,0,90.0*
21,1,0.00472,0.03543,0,0,90.0*
1,1,0.00472,0.01535,0.00236*
1,1,0.00472,0.01535,-0.00236*
1,1,0.00472,-0.01535,-0.00236*
1,1,0.00472,-0.01535,0.00236*
%
%ADD86ROUNDEDRECTD86*%
G04:AMPARAMS|DCode=87|XSize=124.02mil|YSize=124.02mil|CornerRadius=3.1mil|HoleSize=0mil|Usage=FLASHONLY|Rotation=90.000|XOffset=0mil|YOffset=0mil|HoleType=Round|Shape=RoundedRectangle|*
%AMROUNDEDRECTD87*
21,1,0.12402,0.11782,0,0,90.0*
21,1,0.11782,0.12402,0,0,90.0*
1,1,0.00620,0.05891,0.05891*
1,1,0.00620,0.05891,-0.05891*
1,1,0.00620,-0.05891,-0.05891*
1,1,0.00620,-0.05891,0.05891*
%
%ADD87ROUNDEDRECTD87*%
%ADD88R,0.02559X0.01968*%
%ADD89R,0.03150X0.03937*%
%ADD90R,0.01575X0.01575*%
%ADD91R,0.02756X0.03150*%
%ADD92R,0.07087X0.06299*%
%ADD93R,0.05709X0.04528*%
%ADD94R,0.03937X0.03937*%
%ADD95R,0.02362X0.02441*%
%ADD96R,0.07480X0.11417*%
%ADD97R,0.05315X0.01575*%
%ADD98R,0.03937X0.04134*%
%ADD99R,0.04134X0.08661*%
%ADD100R,0.06693X0.11811*%
%ADD101R,0.01181X0.03898*%
%ADD102R,0.10984X0.02913*%
%ADD103R,0.02559X0.03347*%
%ADD104P,0.05568X4X360.0*%
%ADD105R,0.07480X0.09449*%
%ADD106R,0.08661X0.06102*%
G04:AMPARAMS|DCode=107|XSize=15.75mil|YSize=25.59mil|CornerRadius=1.97mil|HoleSize=0mil|Usage=FLASHONLY|Rotation=0.000|XOffset=0mil|YOffset=0mil|HoleType=Round|Shape=RoundedRectangle|*
%AMROUNDEDRECTD107*
21,1,0.01575,0.02165,0,0,0.0*
21,1,0.01181,0.02559,0,0,0.0*
1,1,0.00394,0.00591,-0.01083*
1,1,0.00394,-0.00591,-0.01083*
1,1,0.00394,-0.00591,0.01083*
1,1,0.00394,0.00591,0.01083*
%
%ADD107ROUNDEDRECTD107*%
%ADD108R,0.09252X0.09646*%
%ADD109R,0.07087X0.04921*%
%ADD110R,0.04528X0.10630*%
%ADD111R,0.07087X0.04528*%
%ADD112R,0.05512X0.04134*%
%ADD113R,0.03740X0.04134*%
%ADD114R,0.03740X0.03937*%
%ADD115R,0.02441X0.02441*%
%ADD116R,0.01575X0.01772*%
%ADD117R,0.10630X0.03937*%
%ADD118R,0.04528X0.07087*%
%ADD119R,0.07087X0.04528*%
%ADD120R,0.02559X0.04134*%
%ADD121R,0.01772X0.01575*%
%ADD122R,0.03543X0.03937*%
%ADD123R,0.02362X0.02362*%
%ADD124R,0.05512X0.02992*%
%ADD125R,0.09016X0.07992*%
%ADD126R,0.04528X0.07087*%
%ADD127R,0.02441X0.02441*%
%ADD128R,0.03937X0.03740*%
%ADD129R,0.04134X0.05512*%
%ADD130R,0.04528X0.05709*%
%ADD131R,0.01772X0.05906*%
%ADD132P,0.03341X4X90.0*%
%ADD133R,0.03150X0.03150*%
G04:AMPARAMS|DCode=134|XSize=17.72mil|YSize=15.75mil|CornerRadius=0mil|HoleSize=0mil|Usage=FLASHONLY|Rotation=315.000|XOffset=0mil|YOffset=0mil|HoleType=Round|Shape=Rectangle|*
%AMROTATEDRECTD134*
4,1,4,-0.01183,0.00070,-0.00070,0.01183,0.01183,-0.00070,0.00070,-0.01183,-0.01183,0.00070,0.0*
%
%ADD134ROTATEDRECTD134*%

%ADD135R,0.03150X0.03150*%
%ADD136R,0.02362X0.03937*%
%ADD137R,0.02362X0.06102*%
G04:AMPARAMS|DCode=138|XSize=23.62mil|YSize=61.02mil|CornerRadius=0mil|HoleSize=0mil|Usage=FLASHONLY|Rotation=225.000|XOffset=0mil|YOffset=0mil|HoleType=Round|Shape=Rectangle|*
%AMROTATEDRECTD138*
4,1,4,-0.01322,0.02993,0.02993,-0.01322,0.01322,-0.02993,-0.02993,0.01322,-0.01322,0.02993,0.0*
%
%ADD138ROTATEDRECTD138*%

G04:AMPARAMS|DCode=139|XSize=17.72mil|YSize=15.75mil|CornerRadius=0mil|HoleSize=0mil|Usage=FLASHONLY|Rotation=225.000|XOffset=0mil|YOffset=0mil|HoleType=Round|Shape=Rectangle|*
%AMROTATEDRECTD139*
4,1,4,0.00070,0.01183,0.01183,0.00070,-0.00070,-0.01183,-0.01183,-0.00070,0.00070,0.01183,0.0*
%
%ADD139ROTATEDRECTD139*%

G04:AMPARAMS|DCode=140|XSize=17.72mil|YSize=15.75mil|CornerRadius=0mil|HoleSize=0mil|Usage=FLASHONLY|Rotation=80.000|XOffset=0mil|YOffset=0mil|HoleType=Round|Shape=Rectangle|*
%AMROTATEDRECTD140*
4,1,4,0.00622,-0.01009,-0.00929,-0.00736,-0.00622,0.01009,0.00929,0.00736,0.00622,-0.01009,0.0*
%
%ADD140ROTATEDRECTD140*%

G04:AMPARAMS|DCode=141|XSize=17.72mil|YSize=15.75mil|CornerRadius=0mil|HoleSize=0mil|Usage=FLASHONLY|Rotation=290.000|XOffset=0mil|YOffset=0mil|HoleType=Round|Shape=Rectangle|*
%AMROTATEDRECTD141*
4,1,4,-0.01043,0.00563,0.00437,0.01102,0.01043,-0.00563,-0.00437,-0.01102,-0.01043,0.00563,0.0*
%
%ADD141ROTATEDRECTD141*%

%ADD142R,0.03543X0.01968*%
%ADD143R,0.07992X0.09016*%
%ADD144R,0.02992X0.05512*%
%ADD145R,0.10630X0.04528*%
G04:AMPARAMS|DCode=146|XSize=37.4mil|YSize=39.37mil|CornerRadius=0mil|HoleSize=0mil|Usage=FLASHONLY|Rotation=315.000|XOffset=0mil|YOffset=0mil|HoleType=Round|Shape=Rectangle|*
%AMROTATEDRECTD146*
4,1,4,-0.02714,-0.00070,0.00070,0.02714,0.02714,0.00070,-0.00070,-0.02714,-0.02714,-0.00070,0.0*
%
%ADD146ROTATEDRECTD146*%

%ADD147R,0.01654X0.01811*%
%ADD148R,0.04134X0.03937*%
%ADD149R,0.08661X0.04134*%
%ADD150R,0.02284X0.02441*%
%ADD151R,0.02953X0.01968*%
%ADD152R,0.05906X0.03937*%
%ADD153R,0.03937X0.05906*%
%ADD154R,0.06299X0.07087*%
%ADD155R,0.07284X0.07284*%
%ADD156R,0.04134X0.02362*%
%ADD157O,0.00787X0.03543*%
%ADD158R,0.05512X0.11614*%
%ADD159R,0.11614X0.05512*%
%ADD160R,0.04134X0.03740*%
%ADD161R,0.03937X0.10630*%
G36*
X-400197Y159409D02*
Y158819D01*
X-400394Y158622D01*
X-401772D01*
X-401968Y158819D01*
Y159409D01*
X-401772Y159606D01*
X-400394D01*
X-400197Y159409D01*
D02*
G37*
G36*
X-412992D02*
Y158819D01*
X-413189Y158622D01*
X-414567D01*
X-414764Y158819D01*
Y159409D01*
X-414567Y159606D01*
X-413189D01*
X-412992Y159409D01*
D02*
G37*
G36*
X-400197Y157441D02*
Y156850D01*
X-400394Y156653D01*
X-401772D01*
X-401968Y156850D01*
Y157441D01*
X-401772Y157638D01*
X-400394D01*
X-400197Y157441D01*
D02*
G37*
G36*
X-412992D02*
Y156850D01*
X-413189Y156653D01*
X-414567D01*
X-414764Y156850D01*
Y157441D01*
X-414567Y157638D01*
X-413189D01*
X-412992Y157441D01*
D02*
G37*
G36*
X-400197Y155473D02*
Y154882D01*
X-400394Y154685D01*
X-401772D01*
X-401968Y154882D01*
Y155473D01*
X-401772Y155669D01*
X-400394D01*
X-400197Y155473D01*
D02*
G37*
G36*
X-412992D02*
Y154882D01*
X-413189Y154685D01*
X-414567D01*
X-414764Y154882D01*
Y155473D01*
X-414567Y155669D01*
X-413189D01*
X-412992Y155473D01*
D02*
G37*
G36*
X-402754Y160327D02*
Y153358D01*
X-402951Y153161D01*
X-405411D01*
X-405608Y153358D01*
Y160327D01*
X-405411Y160524D01*
X-402951D01*
X-402754Y160327D01*
D02*
G37*
G36*
X-409352D02*
Y153358D01*
X-409549Y153161D01*
X-412010D01*
X-412207Y153358D01*
Y160327D01*
X-412010Y160524D01*
X-409549D01*
X-409352Y160327D01*
D02*
G37*
G36*
X-400195Y151081D02*
Y150392D01*
X-400392Y150195D01*
X-405018D01*
X-405215Y150392D01*
Y151081D01*
X-405018Y151278D01*
X-400392D01*
X-400195Y151081D01*
D02*
G37*
G36*
X-410039Y149016D02*
Y146457D01*
X-410236Y146260D01*
X-414567D01*
X-414764Y146457D01*
Y147047D01*
X-414567Y147244D01*
X-413386D01*
X-413189Y147441D01*
Y148031D01*
X-413386Y148228D01*
X-414567D01*
X-414764Y148425D01*
Y149016D01*
X-414567Y149213D01*
X-410236D01*
X-410039Y149016D01*
D02*
G37*
G36*
X-406004Y151081D02*
Y146258D01*
X-406201Y146061D01*
X-406791D01*
X-406988Y146258D01*
Y151081D01*
X-406791Y151278D01*
X-406201D01*
X-406004Y151081D01*
D02*
G37*
G36*
X-400394Y145276D02*
X-400197Y145079D01*
Y144488D01*
X-400394Y144291D01*
X-403248D01*
X-403642Y143898D01*
Y143110D01*
X-403839Y142913D01*
X-404823D01*
X-405020Y143110D01*
Y145079D01*
X-404823Y145276D01*
X-400394Y145276D01*
D02*
G37*
G36*
X-409941Y145079D02*
Y143110D01*
X-410138Y142913D01*
X-411122D01*
X-411319Y143110D01*
Y143898D01*
X-411713Y144291D01*
X-414567D01*
X-414764Y144488D01*
Y145079D01*
X-414567Y145276D01*
X-410138Y145276D01*
X-409941Y145079D01*
D02*
G37*
G36*
X-140375Y116078D02*
X-147776D01*
Y122771D01*
X-140375D01*
Y116078D01*
D02*
G37*
G36*
X-150532D02*
X-157934D01*
Y122771D01*
X-150532D01*
Y116078D01*
D02*
G37*
G36*
X-140375Y106629D02*
X-147776D01*
Y113322D01*
X-140375D01*
Y106629D01*
D02*
G37*
G36*
X-150532D02*
X-157934D01*
Y113322D01*
X-150532D01*
Y106629D01*
D02*
G37*
D26*
X-48012Y154095D02*
D03*
Y159095D02*
D03*
Y164094D02*
D03*
Y169095D02*
D03*
X-68090Y154095D02*
D03*
Y159095D02*
D03*
Y164094D02*
D03*
Y169095D02*
D03*
X-487861Y348800D02*
D03*
Y353800D02*
D03*
Y358800D02*
D03*
Y363800D02*
D03*
X-507939Y348800D02*
D03*
Y353800D02*
D03*
Y358800D02*
D03*
Y363800D02*
D03*
X-478631Y105400D02*
D03*
Y110400D02*
D03*
Y115400D02*
D03*
Y120400D02*
D03*
X-498709Y105400D02*
D03*
Y110400D02*
D03*
Y115400D02*
D03*
Y120400D02*
D03*
D27*
X-673622Y358366D02*
D03*
Y380020D02*
D03*
X-686221D02*
D03*
Y358366D02*
D03*
D28*
X-175926Y105724D02*
D03*
Y123676D02*
D03*
D29*
X-149154Y114700D02*
D03*
D30*
X-653149Y-51575D02*
D03*
X-653150Y-55512D02*
D03*
Y-57480D02*
D03*
Y-59449D02*
D03*
Y-61417D02*
D03*
Y-63386D02*
D03*
Y-65354D02*
D03*
Y-67323D02*
D03*
Y-53543D02*
D03*
X-666732Y-59449D02*
D03*
Y-57480D02*
D03*
Y-55512D02*
D03*
Y-53543D02*
D03*
Y-51575D02*
D03*
Y-49606D02*
D03*
Y-61417D02*
D03*
Y-63386D02*
D03*
Y-67323D02*
D03*
X-653149Y-49606D02*
D03*
X-666732Y-65354D02*
D03*
D31*
X-662894Y-69193D02*
D03*
X-656988D02*
D03*
X-656988Y-47736D02*
D03*
X-662893D02*
D03*
D32*
X-659941Y-58465D02*
D03*
D33*
X-659941Y-49705D02*
D03*
X-659941Y-67224D02*
D03*
D03*
D34*
X-658858Y-69439D02*
D03*
X-661024Y-69439D02*
D03*
X-658858Y-47490D02*
D03*
X-661024Y-47490D02*
D03*
D35*
X-630039Y286614D02*
D03*
X-625039D02*
D03*
X-620039D02*
D03*
X-615039D02*
D03*
Y256693D02*
D03*
X-620039D02*
D03*
X-625039D02*
D03*
X-630039D02*
D03*
D36*
X-530272Y349273D02*
D03*
Y341792D02*
D03*
X-519642D02*
D03*
Y345532D02*
D03*
Y349273D02*
D03*
X-530272Y345532D02*
D03*
D37*
X-689173Y58268D02*
D03*
X-696654D02*
D03*
Y48031D02*
D03*
X-689173D02*
D03*
X-692913Y58268D02*
D03*
D38*
X-663493Y232402D02*
D03*
X-654438Y228661D02*
D03*
Y236142D02*
D03*
X-617728Y320400D02*
D03*
X-608672Y316660D02*
D03*
Y324140D02*
D03*
X-664665Y250175D02*
D03*
X-655610Y246435D02*
D03*
Y253915D02*
D03*
X-664665Y265442D02*
D03*
X-655610Y261702D02*
D03*
Y269182D02*
D03*
X-664665Y280709D02*
D03*
X-655610Y276969D02*
D03*
Y284449D02*
D03*
X-579572Y-98200D02*
D03*
X-588628Y-94460D02*
D03*
Y-101940D02*
D03*
X-365672Y-94500D02*
D03*
X-374728Y-90760D02*
D03*
Y-98240D02*
D03*
X-636417Y81693D02*
D03*
X-627362Y77953D02*
D03*
Y85433D02*
D03*
X-651928Y212106D02*
D03*
X-660983Y215846D02*
D03*
Y208366D02*
D03*
D39*
X-656872Y190560D02*
D03*
X-665928Y194300D02*
D03*
X-656872Y198040D02*
D03*
D40*
X-550269Y134159D02*
D03*
Y131600D02*
D03*
Y129041D02*
D03*
X-558931D02*
D03*
Y134159D02*
D03*
Y131600D02*
D03*
X-579857Y144586D02*
D03*
Y142027D02*
D03*
Y139468D02*
D03*
X-588519D02*
D03*
Y144586D02*
D03*
Y142027D02*
D03*
X-565069Y139359D02*
D03*
Y136800D02*
D03*
Y134241D02*
D03*
X-573731D02*
D03*
Y139359D02*
D03*
Y136800D02*
D03*
D41*
X-660428Y327860D02*
D03*
Y335340D02*
D03*
X-650979D02*
D03*
D42*
Y328647D02*
D03*
D43*
X-608268Y310531D02*
D03*
Y305413D02*
D03*
Y302854D02*
D03*
X-631102Y310531D02*
D03*
X-608268Y307973D02*
D03*
X-631102D02*
D03*
Y305413D02*
D03*
Y302854D02*
D03*
X-594437Y177343D02*
D03*
Y172225D02*
D03*
Y169666D02*
D03*
Y167107D02*
D03*
Y164548D02*
D03*
Y161988D02*
D03*
Y159430D02*
D03*
Y156870D02*
D03*
Y154311D02*
D03*
X-617272Y156870D02*
D03*
Y159430D02*
D03*
Y161988D02*
D03*
Y164548D02*
D03*
Y167107D02*
D03*
Y169666D02*
D03*
Y172225D02*
D03*
Y174784D02*
D03*
X-594437D02*
D03*
X-617272Y177343D02*
D03*
Y154311D02*
D03*
X-634261Y-104480D02*
D03*
Y-101920D02*
D03*
Y-99361D02*
D03*
X-616939D02*
D03*
Y-101920D02*
D03*
Y-104480D02*
D03*
Y-107039D02*
D03*
X-634261D02*
D03*
D44*
X-617172Y131674D02*
D03*
Y134233D02*
D03*
Y136792D02*
D03*
Y139351D02*
D03*
Y141910D02*
D03*
Y144469D02*
D03*
Y147028D02*
D03*
X-640400Y131674D02*
D03*
Y134233D02*
D03*
Y136792D02*
D03*
Y139351D02*
D03*
Y141910D02*
D03*
Y144469D02*
D03*
Y147028D02*
D03*
Y149587D02*
D03*
X-617172D02*
D03*
X-541100Y116495D02*
D03*
Y113936D02*
D03*
Y111377D02*
D03*
Y108818D02*
D03*
Y106259D02*
D03*
Y103700D02*
D03*
Y101141D02*
D03*
X-517872Y113936D02*
D03*
Y111377D02*
D03*
Y108818D02*
D03*
Y106259D02*
D03*
Y103700D02*
D03*
Y101141D02*
D03*
Y116495D02*
D03*
D45*
X-426752Y422835D02*
D03*
Y420276D02*
D03*
Y417717D02*
D03*
X-411791D02*
D03*
Y420276D02*
D03*
Y422835D02*
D03*
Y425394D02*
D03*
X-426752D02*
D03*
X-641320Y-82961D02*
D03*
Y-85520D02*
D03*
Y-88080D02*
D03*
Y-90639D02*
D03*
X-656280D02*
D03*
Y-88080D02*
D03*
Y-85520D02*
D03*
Y-82961D02*
D03*
D46*
X-70028Y-86676D02*
D03*
Y-82739D02*
D03*
Y-80770D02*
D03*
Y-78802D02*
D03*
Y-76833D02*
D03*
Y-74865D02*
D03*
Y-70928D02*
D03*
Y-68959D02*
D03*
Y-66991D02*
D03*
Y-65022D02*
D03*
Y-63054D02*
D03*
Y-59117D02*
D03*
Y-57148D02*
D03*
Y-55180D02*
D03*
Y-53211D02*
D03*
Y-51243D02*
D03*
Y-45337D02*
D03*
Y-43369D02*
D03*
Y-41400D02*
D03*
X-40500D02*
D03*
Y-43369D02*
D03*
Y-45337D02*
D03*
Y-47306D02*
D03*
Y-51243D02*
D03*
Y-53211D02*
D03*
Y-55180D02*
D03*
Y-57148D02*
D03*
Y-59117D02*
D03*
Y-63054D02*
D03*
Y-65022D02*
D03*
Y-66991D02*
D03*
Y-68959D02*
D03*
Y-70928D02*
D03*
Y-74865D02*
D03*
Y-76833D02*
D03*
Y-78802D02*
D03*
Y-80770D02*
D03*
Y-82739D02*
D03*
Y-86676D02*
D03*
Y-88644D02*
D03*
Y-90613D02*
D03*
Y-92581D02*
D03*
Y-94550D02*
D03*
Y-96518D02*
D03*
Y-98487D02*
D03*
Y-100455D02*
D03*
Y-102424D02*
D03*
X-70028Y-88644D02*
D03*
Y-90613D02*
D03*
Y-92581D02*
D03*
Y-94550D02*
D03*
Y-96518D02*
D03*
X-40500Y-49274D02*
D03*
Y-61085D02*
D03*
Y-72896D02*
D03*
X-70028Y-47306D02*
D03*
Y-49274D02*
D03*
Y-61085D02*
D03*
Y-72896D02*
D03*
X-40500Y-84707D02*
D03*
X-70028D02*
D03*
Y-98487D02*
D03*
Y-100455D02*
D03*
Y-102424D02*
D03*
X-559685Y392422D02*
D03*
Y390454D02*
D03*
Y388485D02*
D03*
Y384548D02*
D03*
Y382579D02*
D03*
Y380611D02*
D03*
Y378643D02*
D03*
Y376674D02*
D03*
Y374706D02*
D03*
Y372737D02*
D03*
Y370768D02*
D03*
Y368800D02*
D03*
Y366831D02*
D03*
Y364863D02*
D03*
Y362895D02*
D03*
Y360926D02*
D03*
Y356989D02*
D03*
Y355020D02*
D03*
Y353052D02*
D03*
Y351083D02*
D03*
Y349115D02*
D03*
Y347147D02*
D03*
Y345178D02*
D03*
X-620315D02*
D03*
Y347147D02*
D03*
Y349115D02*
D03*
Y351083D02*
D03*
Y353052D02*
D03*
Y355020D02*
D03*
Y356989D02*
D03*
Y358958D02*
D03*
Y360926D02*
D03*
Y364863D02*
D03*
Y366831D02*
D03*
Y368800D02*
D03*
Y370768D02*
D03*
Y372737D02*
D03*
Y374706D02*
D03*
Y376674D02*
D03*
Y378643D02*
D03*
Y380611D02*
D03*
Y384548D02*
D03*
Y386516D02*
D03*
Y388485D02*
D03*
Y390454D02*
D03*
Y392422D02*
D03*
X-559685Y386516D02*
D03*
Y358958D02*
D03*
X-620315Y382579D02*
D03*
Y362895D02*
D03*
D47*
X-616402Y-70153D02*
D03*
Y-68184D02*
D03*
Y-66216D02*
D03*
Y-64247D02*
D03*
X-604198Y-66216D02*
D03*
Y-70153D02*
D03*
Y-64247D02*
D03*
Y-68184D02*
D03*
D48*
X-370748Y412992D02*
D03*
X-368779Y412992D02*
D03*
X-364843D02*
D03*
X-362874Y412992D02*
D03*
Y401181D02*
D03*
X-366811Y401181D02*
D03*
X-368779D02*
D03*
X-370748Y401181D02*
D03*
X-366811Y412992D02*
D03*
X-364843Y401181D02*
D03*
D49*
X-366811Y407087D02*
D03*
D50*
X-692841Y310880D02*
D03*
X-671581D02*
D03*
Y305880D02*
D03*
Y300880D02*
D03*
Y295880D02*
D03*
X-692841Y300880D02*
D03*
Y305880D02*
D03*
Y295880D02*
D03*
X-133000Y-133500D02*
D03*
Y-128500D02*
D03*
Y-123500D02*
D03*
Y-118500D02*
D03*
Y-113500D02*
D03*
Y-108500D02*
D03*
X-154260Y-133500D02*
D03*
Y-128500D02*
D03*
Y-118500D02*
D03*
Y-113500D02*
D03*
X-133000Y-103500D02*
D03*
X-154260Y-108500D02*
D03*
Y-123500D02*
D03*
Y-103500D02*
D03*
X-572539Y278425D02*
D03*
Y283425D02*
D03*
Y288425D02*
D03*
X-593799Y278425D02*
D03*
Y293425D02*
D03*
X-572539Y293425D02*
D03*
X-593799Y288425D02*
D03*
Y283425D02*
D03*
X-138681Y357697D02*
D03*
Y352697D02*
D03*
Y347697D02*
D03*
X-117421Y357697D02*
D03*
Y352697D02*
D03*
Y347697D02*
D03*
Y342697D02*
D03*
X-138681Y342697D02*
D03*
D51*
X-478218Y-126169D02*
D03*
X-483218D02*
D03*
X-488218D02*
D03*
X-493218D02*
D03*
X-498218D02*
D03*
X-503218D02*
D03*
X-508218D02*
D03*
X-513218D02*
D03*
X-518218D02*
D03*
X-528218D02*
D03*
X-533218D02*
D03*
X-538218D02*
D03*
X-543218D02*
D03*
Y-89555D02*
D03*
X-538218D02*
D03*
X-533218D02*
D03*
X-528218D02*
D03*
X-523218D02*
D03*
X-518218D02*
D03*
X-508218D02*
D03*
X-503218D02*
D03*
X-498218D02*
D03*
X-493218D02*
D03*
X-488218D02*
D03*
X-483218D02*
D03*
X-478218D02*
D03*
X-513218D02*
D03*
X-523218Y-126169D02*
D03*
D52*
X-599007Y115100D02*
D03*
Y110100D02*
D03*
Y105100D02*
D03*
Y100100D02*
D03*
Y95100D02*
D03*
Y90100D02*
D03*
Y85100D02*
D03*
Y80100D02*
D03*
X-562393D02*
D03*
Y90100D02*
D03*
Y95100D02*
D03*
Y100100D02*
D03*
Y105100D02*
D03*
Y110100D02*
D03*
Y115100D02*
D03*
Y85100D02*
D03*
D53*
X-667430Y215374D02*
D03*
Y209862D02*
D03*
X-527300Y320456D02*
D03*
Y314944D02*
D03*
X-383600Y-67956D02*
D03*
Y-62444D02*
D03*
X-404000Y-99300D02*
D03*
Y-93788D02*
D03*
X-398400Y-99100D02*
D03*
Y-93588D02*
D03*
X-362000Y-111044D02*
D03*
Y-116556D02*
D03*
D54*
X-645079Y294390D02*
D03*
Y284154D02*
D03*
X-669095Y336910D02*
D03*
Y347146D02*
D03*
X-537400Y351417D02*
D03*
Y341181D02*
D03*
X-635800Y187818D02*
D03*
Y177582D02*
D03*
X-628088Y187845D02*
D03*
Y177609D02*
D03*
X-385400Y-83318D02*
D03*
Y-73082D02*
D03*
X-558200Y142782D02*
D03*
Y153018D02*
D03*
D55*
X-521654Y134724D02*
D03*
X-531653D02*
D03*
X-511654D02*
D03*
X-557992Y174094D02*
D03*
X-567992D02*
D03*
D56*
X-580100Y405950D02*
D03*
Y412250D02*
D03*
X-173819Y-122638D02*
D03*
Y-116339D02*
D03*
X-129429Y-78937D02*
D03*
Y-85236D02*
D03*
X-165760Y-123240D02*
D03*
Y-129539D02*
D03*
X-135827Y-87402D02*
D03*
Y-93701D02*
D03*
X-676575Y-67126D02*
D03*
Y-60827D02*
D03*
X-461122Y408268D02*
D03*
Y401968D02*
D03*
X-303563Y-121161D02*
D03*
Y-127461D02*
D03*
X-160827Y-87500D02*
D03*
Y-93799D02*
D03*
X-246654Y-117224D02*
D03*
Y-123524D02*
D03*
X-219882Y-117224D02*
D03*
Y-123524D02*
D03*
X-204921Y74902D02*
D03*
Y81201D02*
D03*
D57*
X-497372Y49800D02*
D03*
X-493828D02*
D03*
X-88976Y188386D02*
D03*
X-92520D02*
D03*
X-79872Y169800D02*
D03*
X-76328D02*
D03*
X-551928Y110100D02*
D03*
X-555472D02*
D03*
X-595528Y122300D02*
D03*
X-599072D02*
D03*
X-598972Y74000D02*
D03*
X-595428D02*
D03*
X-620374Y332185D02*
D03*
X-623917D02*
D03*
X-588166Y153283D02*
D03*
X-584623D02*
D03*
X-670343Y-43200D02*
D03*
X-666800D02*
D03*
X-629472Y-87100D02*
D03*
X-625928D02*
D03*
X-681595Y15551D02*
D03*
X-678051D02*
D03*
X-603684Y318639D02*
D03*
X-600141D02*
D03*
X-414567Y80610D02*
D03*
X-418110D02*
D03*
X-542028Y390551D02*
D03*
X-545571D02*
D03*
X-542126Y386417D02*
D03*
X-545669D02*
D03*
X-542126Y382579D02*
D03*
X-545669D02*
D03*
X-551428Y399300D02*
D03*
X-554972D02*
D03*
X-542126Y378937D02*
D03*
X-545669D02*
D03*
X-542126Y375295D02*
D03*
X-545669D02*
D03*
X-542126Y371358D02*
D03*
X-545669D02*
D03*
X-542126Y367618D02*
D03*
X-545669D02*
D03*
X-542126Y363484D02*
D03*
X-545669D02*
D03*
X-542126Y359646D02*
D03*
X-545669D02*
D03*
X-639272Y384252D02*
D03*
X-635729D02*
D03*
X-639272Y380315D02*
D03*
X-635728D02*
D03*
X-537500Y386614D02*
D03*
X-533957D02*
D03*
X-537697Y382579D02*
D03*
X-534154D02*
D03*
X-537795Y378839D02*
D03*
X-534252D02*
D03*
X-537894Y375295D02*
D03*
X-534350D02*
D03*
X-518072Y365000D02*
D03*
X-514528D02*
D03*
X-502472Y99000D02*
D03*
X-498928D02*
D03*
X-519882Y384744D02*
D03*
X-523425D02*
D03*
X-503839Y78839D02*
D03*
X-500295D02*
D03*
X-330728Y-99000D02*
D03*
X-334272D02*
D03*
X-302972Y-107900D02*
D03*
X-299428D02*
D03*
X-157772Y-61600D02*
D03*
X-154228D02*
D03*
X-133872Y-74600D02*
D03*
X-130328D02*
D03*
X-363779Y-79823D02*
D03*
X-367323D02*
D03*
X-384429Y400394D02*
D03*
X-387972D02*
D03*
X-247028Y-95100D02*
D03*
X-250572D02*
D03*
X-527628Y324700D02*
D03*
X-531172D02*
D03*
X-644193Y378051D02*
D03*
X-647736D02*
D03*
X-644095Y384449D02*
D03*
X-647638D02*
D03*
X-537008Y359547D02*
D03*
X-533465D02*
D03*
X-537106Y364272D02*
D03*
X-533563D02*
D03*
X-536319Y370768D02*
D03*
X-532776D02*
D03*
X-525228Y358800D02*
D03*
X-528772D02*
D03*
X-371028Y-79700D02*
D03*
X-374572D02*
D03*
X-195528Y68200D02*
D03*
X-199072D02*
D03*
X-231657Y402512D02*
D03*
X-228114D02*
D03*
X-146358Y402461D02*
D03*
X-142815D02*
D03*
X-629823Y340945D02*
D03*
X-633366D02*
D03*
X-587202Y164968D02*
D03*
X-583659D02*
D03*
X-274606Y402508D02*
D03*
X-271063D02*
D03*
X-189075Y402559D02*
D03*
X-185531D02*
D03*
X-622244Y406201D02*
D03*
X-618701D02*
D03*
X-622146Y401772D02*
D03*
X-618602D02*
D03*
X-635532Y375492D02*
D03*
X-639075D02*
D03*
X-334941Y401327D02*
D03*
X-331398Y401327D02*
D03*
X-334941Y406051D02*
D03*
X-331398D02*
D03*
X-311221Y412350D02*
D03*
X-307677Y412350D02*
D03*
X-334941Y410775D02*
D03*
X-331398Y410776D02*
D03*
X-313189Y415697D02*
D03*
X-309646Y415697D02*
D03*
X-313189Y419043D02*
D03*
X-309646D02*
D03*
X-334941Y420224D02*
D03*
X-331398D02*
D03*
X-334941Y415500D02*
D03*
X-331398D02*
D03*
X-334941Y387153D02*
D03*
X-331398D02*
D03*
X-334941Y396602D02*
D03*
X-331398D02*
D03*
X-334941Y391878D02*
D03*
X-331398Y391878D02*
D03*
X-334941Y377705D02*
D03*
X-331398Y377705D02*
D03*
X-334941Y382429D02*
D03*
X-331398D02*
D03*
X-663484Y-83268D02*
D03*
X-667028D02*
D03*
X-228072Y236500D02*
D03*
X-224528D02*
D03*
X-274606Y246457D02*
D03*
X-271063D02*
D03*
X-642214Y328751D02*
D03*
X-645757D02*
D03*
X-630872Y-90900D02*
D03*
X-627328D02*
D03*
X-675787Y271715D02*
D03*
X-679331D02*
D03*
X-675787Y280315D02*
D03*
X-679331D02*
D03*
X-675787Y288915D02*
D03*
X-679331D02*
D03*
X-350571Y403937D02*
D03*
X-354114D02*
D03*
X-663681Y-87992D02*
D03*
X-667224D02*
D03*
X-320472Y236417D02*
D03*
X-316929D02*
D03*
X-612372Y-86500D02*
D03*
X-608828D02*
D03*
X-391437Y138779D02*
D03*
X-394980D02*
D03*
D58*
X-494095Y-48110D02*
D03*
Y-44409D02*
D03*
X-600100Y330850D02*
D03*
Y327150D02*
D03*
X-606000Y85150D02*
D03*
Y81450D02*
D03*
X-620900Y-84050D02*
D03*
Y-87750D02*
D03*
X-645300Y187850D02*
D03*
Y184150D02*
D03*
X-539300Y239050D02*
D03*
Y235350D02*
D03*
X-527900Y310850D02*
D03*
Y307150D02*
D03*
X-606000Y92550D02*
D03*
Y88850D02*
D03*
Y102750D02*
D03*
Y99050D02*
D03*
X-651900Y190450D02*
D03*
Y194150D02*
D03*
X-535433Y1850D02*
D03*
Y-1850D02*
D03*
X-629331Y157953D02*
D03*
Y154252D02*
D03*
X-533800Y243650D02*
D03*
Y247350D02*
D03*
X-488700Y-68350D02*
D03*
Y-72050D02*
D03*
X-469132Y-90193D02*
D03*
Y-86492D02*
D03*
X-468996Y-81201D02*
D03*
Y-77500D02*
D03*
X-635700Y161550D02*
D03*
Y157850D02*
D03*
X-600800Y128350D02*
D03*
Y132050D02*
D03*
X-646400Y149050D02*
D03*
Y152750D02*
D03*
X-641500Y184150D02*
D03*
Y187850D02*
D03*
X-635800Y169350D02*
D03*
Y173050D02*
D03*
X-632000Y169350D02*
D03*
Y173050D02*
D03*
X-628200Y169350D02*
D03*
Y173050D02*
D03*
X-593500Y144650D02*
D03*
Y148350D02*
D03*
X-379600Y-80650D02*
D03*
Y-76950D02*
D03*
X-529900Y243650D02*
D03*
Y247350D02*
D03*
X-191700Y-10850D02*
D03*
Y-14550D02*
D03*
X-476004Y188299D02*
D03*
Y192000D02*
D03*
X-476000Y199501D02*
D03*
Y195800D02*
D03*
X-518400Y354550D02*
D03*
Y358250D02*
D03*
X-506300Y98950D02*
D03*
Y102650D02*
D03*
X-79900Y162450D02*
D03*
Y166150D02*
D03*
X-635701Y96438D02*
D03*
Y100139D02*
D03*
X-672754Y85499D02*
D03*
Y81798D02*
D03*
X-607600Y-97400D02*
D03*
Y-101101D02*
D03*
X-684055Y61890D02*
D03*
Y58189D02*
D03*
Y52047D02*
D03*
Y48346D02*
D03*
X-619246Y103393D02*
D03*
Y107094D02*
D03*
X-410433Y138661D02*
D03*
Y134961D02*
D03*
X-574803Y249626D02*
D03*
Y253327D02*
D03*
X-623146Y103393D02*
D03*
Y107094D02*
D03*
X-546100Y244850D02*
D03*
Y248550D02*
D03*
X-518900Y279550D02*
D03*
Y283250D02*
D03*
X-513800Y279550D02*
D03*
Y283250D02*
D03*
X-530900Y282750D02*
D03*
Y279050D02*
D03*
X-527100Y281150D02*
D03*
Y284850D02*
D03*
X-524000Y243650D02*
D03*
Y247350D02*
D03*
X-520100Y243650D02*
D03*
Y247350D02*
D03*
X-512900Y246250D02*
D03*
Y249950D02*
D03*
X-509000Y246250D02*
D03*
Y249950D02*
D03*
X-520500Y236050D02*
D03*
Y239750D02*
D03*
X-512300Y235650D02*
D03*
Y239350D02*
D03*
X-532424Y239191D02*
D03*
Y235490D02*
D03*
X-528600Y239150D02*
D03*
Y235450D02*
D03*
X-586721Y156768D02*
D03*
Y160469D02*
D03*
X-116700Y-128650D02*
D03*
Y-132350D02*
D03*
X-636200Y-84950D02*
D03*
Y-81250D02*
D03*
X-513600Y-82750D02*
D03*
Y-79050D02*
D03*
X-575200Y408450D02*
D03*
Y412150D02*
D03*
X-653600Y316750D02*
D03*
Y320450D02*
D03*
X-649800Y316750D02*
D03*
Y320450D02*
D03*
X-549300Y-93050D02*
D03*
Y-89350D02*
D03*
X-558100Y-83650D02*
D03*
Y-79950D02*
D03*
Y-68450D02*
D03*
Y-72150D02*
D03*
X-483600Y340050D02*
D03*
Y343750D02*
D03*
X-471200Y215350D02*
D03*
Y219050D02*
D03*
X-470931Y232980D02*
D03*
Y236681D02*
D03*
X-607600Y-93801D02*
D03*
Y-90100D02*
D03*
X-565721Y-5835D02*
D03*
Y-2134D02*
D03*
X-361800Y-103250D02*
D03*
Y-106950D02*
D03*
X-649221Y230453D02*
D03*
Y234154D02*
D03*
X-565821Y9366D02*
D03*
Y5665D02*
D03*
X-642224Y241713D02*
D03*
Y238012D02*
D03*
X-554134Y-34567D02*
D03*
Y-38268D02*
D03*
X-509449Y-1752D02*
D03*
Y1949D02*
D03*
X-486221Y-48110D02*
D03*
Y-44409D02*
D03*
X-680020Y-52461D02*
D03*
Y-56161D02*
D03*
X-676476D02*
D03*
Y-52461D02*
D03*
D59*
X-403583Y46752D02*
D03*
X-406181D02*
D03*
X-438601Y-67900D02*
D03*
X-441199D02*
D03*
X-394623Y93700D02*
D03*
X-392024D02*
D03*
X-397221D02*
D03*
X-394623D02*
D03*
X-438501Y-73000D02*
D03*
X-441099D02*
D03*
X-394623Y90600D02*
D03*
X-392024D02*
D03*
X-397221D02*
D03*
X-394623D02*
D03*
X-423300Y119800D02*
D03*
X-420702D02*
D03*
X-425898D02*
D03*
X-423300D02*
D03*
X-420702Y116700D02*
D03*
X-423300D02*
D03*
D03*
X-425898D02*
D03*
X-458801Y-52800D02*
D03*
X-461399D02*
D03*
X-439399Y16900D02*
D03*
X-436801D02*
D03*
X-458801Y-57800D02*
D03*
X-461399D02*
D03*
X-436299Y22300D02*
D03*
X-433701D02*
D03*
X-452501Y-57600D02*
D03*
X-455099D02*
D03*
X-387499Y110600D02*
D03*
X-384901D02*
D03*
X-453301Y-63200D02*
D03*
X-455899D02*
D03*
X-387499Y107600D02*
D03*
X-384901D02*
D03*
X-439901Y-57800D02*
D03*
X-442499D02*
D03*
X-437199Y-53100D02*
D03*
X-434601D02*
D03*
X-433901Y-57800D02*
D03*
X-436499D02*
D03*
X-369298Y116600D02*
D03*
X-366700D02*
D03*
X-433901Y-62900D02*
D03*
X-436499D02*
D03*
X-369298Y119700D02*
D03*
X-366700D02*
D03*
X-462599Y-37400D02*
D03*
X-460001D02*
D03*
X-406181Y49213D02*
D03*
X-408779D02*
D03*
X-462499Y-42400D02*
D03*
X-459901D02*
D03*
X-406181Y46752D02*
D03*
X-408779D02*
D03*
X-453701Y-47900D02*
D03*
X-456299D02*
D03*
X-453701Y-42800D02*
D03*
X-456299D02*
D03*
X-432699Y52000D02*
D03*
X-430101D02*
D03*
X-438801Y47800D02*
D03*
X-441399D02*
D03*
X-434999Y-42900D02*
D03*
X-432401D02*
D03*
X-431101Y47100D02*
D03*
X-433699D02*
D03*
X-429199Y-42800D02*
D03*
X-426601D02*
D03*
X-431001Y42000D02*
D03*
X-433599D02*
D03*
X-464001Y-25400D02*
D03*
X-466599D02*
D03*
X-464001Y-30400D02*
D03*
X-466599D02*
D03*
X-464001Y4300D02*
D03*
X-466599D02*
D03*
X-464001Y-500D02*
D03*
X-466599D02*
D03*
X-377599Y102200D02*
D03*
X-375001D02*
D03*
X-380199D02*
D03*
X-377601D02*
D03*
X-377600Y97400D02*
D03*
X-375002D02*
D03*
X-380198D02*
D03*
X-377600D02*
D03*
X-430801Y91600D02*
D03*
X-433399D02*
D03*
X-429502Y62100D02*
D03*
X-432100D02*
D03*
X-433399Y87200D02*
D03*
X-430801D02*
D03*
X-437899Y62100D02*
D03*
X-435301D02*
D03*
X-77001Y-41400D02*
D03*
X-79599D02*
D03*
X-480774Y-61100D02*
D03*
X-483372D02*
D03*
X-480746Y-64100D02*
D03*
X-483344D02*
D03*
X-511346Y-70336D02*
D03*
X-508748D02*
D03*
X-511346Y-67335D02*
D03*
X-508748D02*
D03*
X-619246Y87544D02*
D03*
X-616647D02*
D03*
X-524499Y87100D02*
D03*
X-521901D02*
D03*
X-529101Y87100D02*
D03*
X-531699D02*
D03*
X-403583Y49213D02*
D03*
X-406181D02*
D03*
D60*
X-401772Y146752D02*
D03*
Y148721D02*
D03*
D61*
X-410679Y144537D02*
D03*
D62*
X-406595Y143996D02*
D03*
D63*
X-404331Y143504D02*
D03*
D64*
X-406226Y150463D02*
D03*
D65*
X-566378Y338485D02*
D03*
X-568347D02*
D03*
X-570315D02*
D03*
X-574252D02*
D03*
X-576221D02*
D03*
X-578189D02*
D03*
X-580158D02*
D03*
X-582126D02*
D03*
X-584094D02*
D03*
X-586063D02*
D03*
X-588031D02*
D03*
X-590000D02*
D03*
X-591968D02*
D03*
X-593937D02*
D03*
X-595905D02*
D03*
X-597874D02*
D03*
X-599843D02*
D03*
X-601811D02*
D03*
X-603780D02*
D03*
X-607717D02*
D03*
X-609685D02*
D03*
X-611654D02*
D03*
X-613622D02*
D03*
Y399115D02*
D03*
X-611654D02*
D03*
X-609685D02*
D03*
X-607717D02*
D03*
X-605748D02*
D03*
X-603780D02*
D03*
X-601811D02*
D03*
X-599843D02*
D03*
X-597874D02*
D03*
X-595905D02*
D03*
X-591968D02*
D03*
X-590000D02*
D03*
X-588031D02*
D03*
X-584094D02*
D03*
X-582126D02*
D03*
X-580158D02*
D03*
X-578189D02*
D03*
X-576221D02*
D03*
X-574252D02*
D03*
X-572284D02*
D03*
X-570315D02*
D03*
X-568347D02*
D03*
X-566378D02*
D03*
X-586063D02*
D03*
X-593937D02*
D03*
X-572284Y338485D02*
D03*
X-605748D02*
D03*
D66*
X-235939Y-4817D02*
D03*
X-233380D02*
D03*
X-230820D02*
D03*
X-228261D02*
D03*
Y-19384D02*
D03*
X-230820D02*
D03*
X-233380D02*
D03*
X-235939D02*
D03*
X-89882Y-65300D02*
D03*
X-92441D02*
D03*
X-95000D02*
D03*
Y-79867D02*
D03*
X-92441D02*
D03*
X-89882D02*
D03*
X-87323D02*
D03*
Y-65300D02*
D03*
X-211377Y-1633D02*
D03*
X-208818D02*
D03*
X-206259D02*
D03*
X-203700D02*
D03*
Y-16200D02*
D03*
X-206259D02*
D03*
X-208818D02*
D03*
X-211377D02*
D03*
D67*
X-224816Y-8261D02*
D03*
Y-10820D02*
D03*
Y-13379D02*
D03*
Y-15939D02*
D03*
X-239384D02*
D03*
Y-10820D02*
D03*
Y-8261D02*
D03*
Y-13379D02*
D03*
X-83878Y-76422D02*
D03*
Y-73863D02*
D03*
Y-68745D02*
D03*
X-98445D02*
D03*
Y-71304D02*
D03*
Y-73863D02*
D03*
Y-76422D02*
D03*
X-83878Y-71304D02*
D03*
X-200255Y-5078D02*
D03*
Y-7637D02*
D03*
Y-10196D02*
D03*
Y-12755D02*
D03*
X-214822D02*
D03*
Y-7637D02*
D03*
Y-5078D02*
D03*
Y-10196D02*
D03*
D68*
X-232100Y-12100D02*
D03*
X-91161Y-72584D02*
D03*
X-207539Y-8917D02*
D03*
D69*
X-533956Y228098D02*
D03*
Y226130D02*
D03*
Y224161D02*
D03*
Y222193D02*
D03*
Y220224D02*
D03*
Y218256D02*
D03*
X-518602D02*
D03*
Y220224D02*
D03*
Y222193D02*
D03*
Y224161D02*
D03*
Y226130D02*
D03*
Y228098D02*
D03*
X-533804Y267733D02*
D03*
Y265765D02*
D03*
Y263796D02*
D03*
Y261828D02*
D03*
Y259859D02*
D03*
Y257891D02*
D03*
X-518450D02*
D03*
Y259859D02*
D03*
Y261828D02*
D03*
Y263796D02*
D03*
Y265765D02*
D03*
Y267733D02*
D03*
D70*
X-531200Y215500D02*
D03*
X-529232D02*
D03*
X-525294D02*
D03*
X-523326D02*
D03*
X-521357D02*
D03*
Y230854D02*
D03*
X-523326D02*
D03*
X-525294D02*
D03*
X-527263D02*
D03*
X-529232D02*
D03*
X-531200D02*
D03*
X-527263Y215500D02*
D03*
X-531048Y255135D02*
D03*
X-529079D02*
D03*
X-525142D02*
D03*
X-523174D02*
D03*
X-521206D02*
D03*
Y270489D02*
D03*
X-523174D02*
D03*
X-525142D02*
D03*
X-527111D02*
D03*
X-529079D02*
D03*
X-531048D02*
D03*
X-527111Y255135D02*
D03*
D71*
X-526279Y223177D02*
D03*
X-526127Y262812D02*
D03*
D72*
X-549016Y-984D02*
D03*
Y984D02*
D03*
Y2953D02*
D03*
Y4921D02*
D03*
X-561221D02*
D03*
Y2953D02*
D03*
Y984D02*
D03*
Y-984D02*
D03*
X-484055Y-30512D02*
D03*
Y-32480D02*
D03*
Y-34449D02*
D03*
Y-36417D02*
D03*
X-496260Y-32480D02*
D03*
Y-30512D02*
D03*
Y-36417D02*
D03*
Y-34449D02*
D03*
X-539118Y45955D02*
D03*
Y43987D02*
D03*
X-526913Y40050D02*
D03*
Y42018D02*
D03*
Y43987D02*
D03*
Y45955D02*
D03*
X-539118Y42018D02*
D03*
Y40050D02*
D03*
X-559555Y42018D02*
D03*
Y40050D02*
D03*
Y45955D02*
D03*
Y43987D02*
D03*
X-547350Y40050D02*
D03*
Y42018D02*
D03*
Y43987D02*
D03*
Y45955D02*
D03*
X-538300Y71905D02*
D03*
Y69937D02*
D03*
Y67968D02*
D03*
Y66000D02*
D03*
X-550505Y69937D02*
D03*
Y71905D02*
D03*
Y67968D02*
D03*
Y66000D02*
D03*
X-541300Y-74831D02*
D03*
Y-72863D02*
D03*
X-553505Y-78768D02*
D03*
Y-76800D02*
D03*
Y-74831D02*
D03*
Y-72863D02*
D03*
X-541300Y-76800D02*
D03*
Y-78768D02*
D03*
D73*
X-552165Y8071D02*
D03*
X-554134D02*
D03*
X-558071Y-4134D02*
D03*
X-556102D02*
D03*
X-554134D02*
D03*
X-552165D02*
D03*
X-558071Y8071D02*
D03*
X-556102D02*
D03*
X-487205Y-39567D02*
D03*
X-489173D02*
D03*
X-491142D02*
D03*
X-493110D02*
D03*
Y-27362D02*
D03*
X-491142D02*
D03*
X-489173D02*
D03*
X-487205D02*
D03*
X-530063Y49105D02*
D03*
X-532031D02*
D03*
X-534000D02*
D03*
X-535968D02*
D03*
Y36900D02*
D03*
X-534000D02*
D03*
X-532031D02*
D03*
X-530063D02*
D03*
X-550500Y49105D02*
D03*
X-552468D02*
D03*
X-554437D02*
D03*
X-556405D02*
D03*
Y36900D02*
D03*
X-554437D02*
D03*
X-552468D02*
D03*
X-550500D02*
D03*
X-541450Y62850D02*
D03*
X-543418D02*
D03*
X-545387D02*
D03*
X-547355D02*
D03*
Y75055D02*
D03*
X-545387D02*
D03*
X-543418D02*
D03*
X-541450D02*
D03*
X-544450Y-81918D02*
D03*
X-546418D02*
D03*
X-548387D02*
D03*
X-550355D02*
D03*
X-546418Y-69713D02*
D03*
X-544450D02*
D03*
X-548387D02*
D03*
X-550355D02*
D03*
D74*
X-555118Y1969D02*
D03*
X-547402Y-75816D02*
D03*
D75*
X-663779Y84055D02*
D03*
X-665354D02*
D03*
X-666929D02*
D03*
Y91142D02*
D03*
X-665354D02*
D03*
X-663779D02*
D03*
X-476700Y227400D02*
D03*
X-478275D02*
D03*
X-479850D02*
D03*
Y234487D02*
D03*
X-478275D02*
D03*
X-476700D02*
D03*
X-642126Y90945D02*
D03*
X-643701D02*
D03*
X-645276D02*
D03*
Y98032D02*
D03*
X-643701D02*
D03*
X-642126D02*
D03*
X-526856Y77369D02*
D03*
X-528431D02*
D03*
Y82881D02*
D03*
X-620446Y98843D02*
D03*
X-622021D02*
D03*
Y91757D02*
D03*
X-620446D02*
D03*
X-618872D02*
D03*
Y98843D02*
D03*
X-476984Y210044D02*
D03*
X-478559D02*
D03*
X-480134D02*
D03*
Y217131D02*
D03*
X-478559D02*
D03*
X-476984D02*
D03*
D76*
X-668110Y86811D02*
D03*
Y88386D02*
D03*
X-662598D02*
D03*
X-481031Y230156D02*
D03*
Y231731D02*
D03*
X-475519D02*
D03*
X-646457Y93701D02*
D03*
Y95276D02*
D03*
X-640945D02*
D03*
X-524100Y81700D02*
D03*
Y80125D02*
D03*
Y78550D02*
D03*
X-531187D02*
D03*
Y80125D02*
D03*
Y81700D02*
D03*
X-617691Y96087D02*
D03*
X-623202D02*
D03*
Y94513D02*
D03*
X-481315Y212800D02*
D03*
Y214375D02*
D03*
X-475803D02*
D03*
D77*
X-662795Y86811D02*
D03*
X-475716Y230156D02*
D03*
X-641142Y93701D02*
D03*
X-617887Y94513D02*
D03*
X-476000Y212800D02*
D03*
D78*
X-638779Y-15725D02*
D03*
X-623032D02*
D03*
X-607283D02*
D03*
X-591535D02*
D03*
Y62969D02*
D03*
X-607283D02*
D03*
X-623032D02*
D03*
X-638779D02*
D03*
X-654528D02*
D03*
Y-15725D02*
D03*
D79*
X-581184Y0D02*
D03*
Y31496D02*
D03*
Y47244D02*
D03*
X-664879Y47244D02*
D03*
Y31496D02*
D03*
Y15748D02*
D03*
Y0D02*
D03*
X-581184Y15748D02*
D03*
D80*
X-632972Y-49213D02*
D03*
Y-71673D02*
D03*
D81*
X-624705Y-50443D02*
D03*
Y-60443D02*
D03*
Y-70443D02*
D03*
X-641240Y-60443D02*
D03*
Y-50443D02*
D03*
Y-70443D02*
D03*
D82*
Y-50443D02*
D03*
Y-60443D02*
D03*
X-624705Y-70443D02*
D03*
Y-60443D02*
D03*
Y-50443D02*
D03*
X-641240Y-70443D02*
D03*
D83*
X-632972Y-72352D02*
D03*
Y-48533D02*
D03*
D84*
X-568082Y-75200D02*
D03*
Y-80200D02*
D03*
Y-85200D02*
D03*
X-578318Y-80200D02*
D03*
Y-75200D02*
D03*
Y-85200D02*
D03*
D85*
X-535433Y-56988D02*
D03*
X-533465D02*
D03*
X-531496D02*
D03*
X-529528D02*
D03*
X-527559D02*
D03*
X-525591D02*
D03*
Y-37500D02*
D03*
X-527559D02*
D03*
X-529528D02*
D03*
X-531496D02*
D03*
X-533465D02*
D03*
X-535433D02*
D03*
X-537402D02*
D03*
Y-56988D02*
D03*
D86*
X-521752Y-53150D02*
D03*
Y-51181D02*
D03*
Y-49213D02*
D03*
Y-47244D02*
D03*
X-541240Y-41339D02*
D03*
Y-43307D02*
D03*
Y-45276D02*
D03*
Y-47244D02*
D03*
Y-49213D02*
D03*
Y-51181D02*
D03*
Y-53150D02*
D03*
X-521752Y-45276D02*
D03*
Y-43307D02*
D03*
Y-41339D02*
D03*
D87*
X-531496Y-47244D02*
D03*
D88*
X-694687Y280705D02*
D03*
Y283855D02*
D03*
D89*
X-695966Y275981D02*
D03*
Y288580D02*
D03*
D90*
X-682480Y426968D02*
D03*
X-659055Y-129232D02*
D03*
D91*
X-683858Y423032D02*
D03*
Y430905D02*
D03*
X-660433Y-133169D02*
D03*
Y-125295D02*
D03*
D92*
X-198300Y253661D02*
D03*
Y236339D02*
D03*
X-353500Y213039D02*
D03*
Y230361D02*
D03*
D93*
X-87300Y-97543D02*
D03*
Y-90457D02*
D03*
X-194300Y-26343D02*
D03*
Y-19257D02*
D03*
D94*
X-696850Y73819D02*
D03*
Y79724D02*
D03*
D95*
X-563089Y-67300D02*
D03*
X-566711D02*
D03*
X-529370Y-27559D02*
D03*
X-525748D02*
D03*
D96*
X-698100Y106700D02*
D03*
D97*
X-687076Y109259D02*
D03*
Y101582D02*
D03*
Y106700D02*
D03*
Y104141D02*
D03*
Y111818D02*
D03*
D98*
X-535433Y-9744D02*
D03*
X-505905D02*
D03*
X-535433Y11713D02*
D03*
X-505905D02*
D03*
D99*
X-541240Y-15748D02*
D03*
X-529626D02*
D03*
X-500098D02*
D03*
X-511713D02*
D03*
X-529626Y17717D02*
D03*
X-541240D02*
D03*
X-511713D02*
D03*
X-500098D02*
D03*
D100*
X-98622Y-14567D02*
D03*
X-79724D02*
D03*
D101*
X-683071Y72618D02*
D03*
X-679134D02*
D03*
Y78957D02*
D03*
X-681102D02*
D03*
X-683071D02*
D03*
X-681102Y72618D02*
D03*
D102*
X-637165Y347776D02*
D03*
Y352776D02*
D03*
Y357776D02*
D03*
Y362776D02*
D03*
Y367776D02*
D03*
X-653189Y347776D02*
D03*
Y367776D02*
D03*
Y362776D02*
D03*
Y357776D02*
D03*
Y352776D02*
D03*
D103*
X-585925Y246949D02*
D03*
X-579429Y253051D02*
D03*
X-585925D02*
D03*
X-579429Y246949D02*
D03*
D104*
X-689764Y-111417D02*
D03*
X-51575Y-130709D02*
D03*
D105*
X-596129Y415200D02*
D03*
X-612271D02*
D03*
D106*
X-142129Y91700D02*
D03*
X-158271D02*
D03*
D107*
X-650241Y313135D02*
D03*
X-652800D02*
D03*
X-655359Y305065D02*
D03*
X-650241D02*
D03*
X-655359Y313135D02*
D03*
D108*
X-266732Y-78543D02*
D03*
X-242323D02*
D03*
X-309764Y-82480D02*
D03*
X-285354D02*
D03*
X-350413D02*
D03*
X-326004D02*
D03*
X-140256Y-48819D02*
D03*
X-115847D02*
D03*
X-180905D02*
D03*
X-156496D02*
D03*
X-226083Y-78543D02*
D03*
X-201673D02*
D03*
D109*
X-696063Y36417D02*
D03*
X-685827D02*
D03*
D110*
X-324606Y217126D02*
D03*
X-336417D02*
D03*
X-198721Y359842D02*
D03*
X-186909Y359842D02*
D03*
X-198721Y345276D02*
D03*
X-186909Y345276D02*
D03*
X-328543Y318996D02*
D03*
X-340354D02*
D03*
X-256791Y344882D02*
D03*
X-268602D02*
D03*
X-328518Y291665D02*
D03*
X-340329D02*
D03*
X-324606Y198031D02*
D03*
X-336417D02*
D03*
D111*
X-401575Y167323D02*
D03*
Y179134D02*
D03*
X-685700Y-33494D02*
D03*
Y-45305D02*
D03*
X-677500Y-33595D02*
D03*
Y-45406D02*
D03*
X-298150Y-56790D02*
D03*
Y-68601D02*
D03*
X-280433Y-56790D02*
D03*
Y-68601D02*
D03*
X-289291Y-56791D02*
D03*
Y-68602D02*
D03*
X-359823Y382185D02*
D03*
Y393996D02*
D03*
X-338799Y-57085D02*
D03*
Y-68896D02*
D03*
X-321083Y-57087D02*
D03*
Y-68898D02*
D03*
X-329941Y-57088D02*
D03*
Y-68899D02*
D03*
X-143996Y-4724D02*
D03*
Y-16535D02*
D03*
X-123721Y-23620D02*
D03*
Y-35432D02*
D03*
X-114862Y-23620D02*
D03*
Y-35432D02*
D03*
X-563200Y67305D02*
D03*
Y55494D02*
D03*
X-679626Y-79232D02*
D03*
Y-91043D02*
D03*
X-416929Y392028D02*
D03*
Y403839D02*
D03*
X-155413Y-23425D02*
D03*
Y-35236D02*
D03*
X-164272Y-23427D02*
D03*
Y-35238D02*
D03*
X-185236Y-4921D02*
D03*
Y-16732D02*
D03*
X-250098Y-53151D02*
D03*
Y-64962D02*
D03*
X-241240Y-53150D02*
D03*
Y-64961D02*
D03*
X-271161Y-34644D02*
D03*
Y-46455D02*
D03*
X-200689Y-53345D02*
D03*
Y-65156D02*
D03*
X-209547Y-53347D02*
D03*
Y-65158D02*
D03*
X-229823Y-34449D02*
D03*
Y-46260D02*
D03*
X-427559Y391929D02*
D03*
Y403740D02*
D03*
X-135433Y28739D02*
D03*
Y16928D02*
D03*
X-188583Y28739D02*
D03*
Y16928D02*
D03*
X-153150Y28939D02*
D03*
Y17128D02*
D03*
X-162008Y28939D02*
D03*
Y17128D02*
D03*
X-144291Y28939D02*
D03*
Y17128D02*
D03*
X-170866Y28939D02*
D03*
Y17128D02*
D03*
X-179724Y28939D02*
D03*
Y17128D02*
D03*
X-451476Y101278D02*
D03*
Y113089D02*
D03*
X-397047Y105413D02*
D03*
Y117224D02*
D03*
X-410138Y105412D02*
D03*
Y117223D02*
D03*
X-391732Y167323D02*
D03*
Y179134D02*
D03*
X-411417Y167323D02*
D03*
Y179134D02*
D03*
D112*
X-428150Y148228D02*
D03*
Y141142D02*
D03*
X-287913Y-103248D02*
D03*
Y-110335D02*
D03*
X-317047Y-123524D02*
D03*
Y-116437D02*
D03*
X-340768Y-105118D02*
D03*
Y-112205D02*
D03*
X-147539Y-89862D02*
D03*
Y-82776D02*
D03*
X-171260Y-71457D02*
D03*
Y-78543D02*
D03*
X-471600Y391357D02*
D03*
Y398443D02*
D03*
X-118405Y-69587D02*
D03*
Y-76673D02*
D03*
X-233366Y-119587D02*
D03*
Y-112500D02*
D03*
X-257087Y-101181D02*
D03*
Y-108268D02*
D03*
X-204232Y-99311D02*
D03*
Y-106398D02*
D03*
X-421260Y154921D02*
D03*
Y162008D02*
D03*
D113*
X-365200Y231500D02*
D03*
X-371499D02*
D03*
D114*
X-517913Y-27559D02*
D03*
X-511614D02*
D03*
X-371929Y419587D02*
D03*
X-365630D02*
D03*
X-310827Y258169D02*
D03*
X-304528D02*
D03*
X-323794Y258200D02*
D03*
X-317495D02*
D03*
X-228150Y258169D02*
D03*
X-234449D02*
D03*
X-219390Y45276D02*
D03*
X-213090D02*
D03*
X-417618Y373917D02*
D03*
X-411319D02*
D03*
X-417520Y384055D02*
D03*
X-411221D02*
D03*
X-451279Y380610D02*
D03*
X-457579D02*
D03*
X-271457Y424457D02*
D03*
X-277756D02*
D03*
X-228508Y424461D02*
D03*
X-234807D02*
D03*
X-319390Y424260D02*
D03*
X-313090D02*
D03*
X-212106Y424508D02*
D03*
X-205807D02*
D03*
X-169390D02*
D03*
X-163091D02*
D03*
X-297638Y424457D02*
D03*
X-291339D02*
D03*
X-254689Y424461D02*
D03*
X-248390D02*
D03*
X-185925Y424508D02*
D03*
X-192224D02*
D03*
X-143209D02*
D03*
X-149508D02*
D03*
X-291850Y246400D02*
D03*
X-298150D02*
D03*
X-259055Y246358D02*
D03*
X-252756D02*
D03*
X-210630Y262402D02*
D03*
X-204331D02*
D03*
X-199550Y303200D02*
D03*
X-193250D02*
D03*
X-200250Y293700D02*
D03*
X-193950D02*
D03*
X-200394Y318996D02*
D03*
X-194095D02*
D03*
X-195472Y370177D02*
D03*
X-189173D02*
D03*
X-200787Y198622D02*
D03*
X-194488D02*
D03*
X-329306Y207019D02*
D03*
X-335605Y207019D02*
D03*
X-253642Y329921D02*
D03*
X-259941Y329921D02*
D03*
X-323031Y331496D02*
D03*
X-329331D02*
D03*
X-175250Y99300D02*
D03*
X-168950D02*
D03*
X-696063Y66929D02*
D03*
X-689764D02*
D03*
X-595076Y249326D02*
D03*
X-601375D02*
D03*
X-394882Y159449D02*
D03*
X-388583D02*
D03*
D115*
X-394980Y149114D02*
D03*
X-391437D02*
D03*
X-384626Y394291D02*
D03*
X-388169D02*
D03*
X-595669Y426181D02*
D03*
X-599213D02*
D03*
X-619291Y412402D02*
D03*
X-622835D02*
D03*
X-191634Y50886D02*
D03*
X-195177D02*
D03*
X-390528Y-71700D02*
D03*
X-394072D02*
D03*
X-514572Y341100D02*
D03*
X-511028D02*
D03*
X-509772Y-82600D02*
D03*
X-506228D02*
D03*
X-659162Y221969D02*
D03*
X-662706D02*
D03*
D116*
X-534449Y67323D02*
D03*
Y64567D02*
D03*
X-606936Y110053D02*
D03*
Y107297D02*
D03*
X-665256Y323425D02*
D03*
Y320669D02*
D03*
X-357756Y412500D02*
D03*
Y409744D02*
D03*
X-161260Y-127268D02*
D03*
Y-124512D02*
D03*
X-172146Y390158D02*
D03*
Y387402D02*
D03*
X-187992Y398031D02*
D03*
Y395276D02*
D03*
X-577756Y-53248D02*
D03*
Y-56004D02*
D03*
X-598819Y292421D02*
D03*
Y289665D02*
D03*
X-291142Y279232D02*
D03*
Y276476D02*
D03*
X-287205Y235925D02*
D03*
Y233169D02*
D03*
X-255709Y235925D02*
D03*
Y233169D02*
D03*
X-295079Y235925D02*
D03*
Y233169D02*
D03*
X-259620Y241861D02*
D03*
Y239106D02*
D03*
X-287179Y241861D02*
D03*
Y239106D02*
D03*
X-287205Y248917D02*
D03*
Y251673D02*
D03*
X-255683Y250917D02*
D03*
Y253672D02*
D03*
X-295079Y252559D02*
D03*
Y255315D02*
D03*
X-267520Y248917D02*
D03*
Y251673D02*
D03*
X-283268Y248917D02*
D03*
Y251673D02*
D03*
X-279306Y241861D02*
D03*
Y239106D02*
D03*
X-267495Y241861D02*
D03*
Y239106D02*
D03*
X-247441Y253642D02*
D03*
Y250886D02*
D03*
X-259350Y270571D02*
D03*
Y273327D02*
D03*
X-263878Y269390D02*
D03*
Y266634D02*
D03*
X-251378Y270571D02*
D03*
Y273327D02*
D03*
X-302559Y269390D02*
D03*
Y266634D02*
D03*
X-298622Y273327D02*
D03*
Y270571D02*
D03*
X-243602Y241929D02*
D03*
X-243602Y239173D02*
D03*
X-247441Y273327D02*
D03*
X-247441Y270571D02*
D03*
X-247441Y245768D02*
D03*
Y243012D02*
D03*
X-434000Y380222D02*
D03*
Y382978D02*
D03*
X-428445Y365748D02*
D03*
Y368504D02*
D03*
X-553839Y361319D02*
D03*
Y358563D02*
D03*
X-553937Y384154D02*
D03*
Y386910D02*
D03*
X-607677Y331890D02*
D03*
Y329134D02*
D03*
X-625787Y360433D02*
D03*
Y363189D02*
D03*
X-585925Y408465D02*
D03*
Y405709D02*
D03*
X-251772Y279232D02*
D03*
Y276476D02*
D03*
X-263583Y235925D02*
D03*
Y233169D02*
D03*
X-279331Y279232D02*
D03*
Y276476D02*
D03*
Y236221D02*
D03*
Y233465D02*
D03*
X-259646Y280315D02*
D03*
Y283071D02*
D03*
X-306496Y273327D02*
D03*
Y270571D02*
D03*
Y265453D02*
D03*
Y262697D02*
D03*
X-267520Y267421D02*
D03*
Y264665D02*
D03*
X-290748Y273327D02*
D03*
Y270571D02*
D03*
X-243504Y249705D02*
D03*
Y246949D02*
D03*
X-282874Y273721D02*
D03*
Y276476D02*
D03*
X-291437Y254823D02*
D03*
Y257579D02*
D03*
X-278937Y270571D02*
D03*
Y273327D02*
D03*
X-76600Y-45722D02*
D03*
Y-48478D02*
D03*
X-300394Y384004D02*
D03*
Y381248D02*
D03*
X-273524Y397980D02*
D03*
Y395224D02*
D03*
X-268799Y409299D02*
D03*
Y406543D02*
D03*
X-300394Y409102D02*
D03*
Y406346D02*
D03*
X-268799Y393256D02*
D03*
Y390500D02*
D03*
Y415795D02*
D03*
Y418551D02*
D03*
X-295571Y397980D02*
D03*
Y395224D02*
D03*
X-172146Y415846D02*
D03*
Y418602D02*
D03*
Y409154D02*
D03*
Y406398D02*
D03*
X-145276Y398130D02*
D03*
Y395374D02*
D03*
X-140551Y415846D02*
D03*
Y418602D02*
D03*
X-140256Y390158D02*
D03*
Y387402D02*
D03*
X-140551Y409154D02*
D03*
Y406398D02*
D03*
X-167224Y398031D02*
D03*
Y395276D02*
D03*
X-172146Y383858D02*
D03*
Y381102D02*
D03*
X-208465Y307874D02*
D03*
Y310630D02*
D03*
X-300394Y390401D02*
D03*
Y387646D02*
D03*
X-214862Y390256D02*
D03*
Y387500D02*
D03*
X-257445Y390110D02*
D03*
Y387354D02*
D03*
X-300394Y415598D02*
D03*
Y418354D02*
D03*
X-225850Y409106D02*
D03*
Y406350D02*
D03*
X-225752Y390110D02*
D03*
Y387354D02*
D03*
X-183268Y390256D02*
D03*
Y387500D02*
D03*
X-214862Y383760D02*
D03*
Y381004D02*
D03*
Y415846D02*
D03*
Y418602D02*
D03*
X-257445Y415799D02*
D03*
Y418555D02*
D03*
X-252622Y398083D02*
D03*
Y395327D02*
D03*
X-225752Y415799D02*
D03*
Y418555D02*
D03*
X-214862Y409154D02*
D03*
Y406398D02*
D03*
X-210039Y398031D02*
D03*
Y395276D02*
D03*
X-257445Y383811D02*
D03*
Y381055D02*
D03*
X-230575Y397984D02*
D03*
Y395228D02*
D03*
X-257445Y409106D02*
D03*
Y406350D02*
D03*
X-183268Y409154D02*
D03*
Y406398D02*
D03*
Y415846D02*
D03*
Y418602D02*
D03*
X-220250Y316665D02*
D03*
Y313909D02*
D03*
X-224187Y316665D02*
D03*
Y313909D02*
D03*
X-232087Y294980D02*
D03*
Y292224D02*
D03*
X-239800Y199622D02*
D03*
Y202378D02*
D03*
X-251476Y210335D02*
D03*
Y207579D02*
D03*
X-231900Y222822D02*
D03*
Y225578D02*
D03*
X-259941Y218209D02*
D03*
Y215453D02*
D03*
X-302854Y316634D02*
D03*
Y313878D02*
D03*
X-283268Y300098D02*
D03*
Y302854D02*
D03*
X-291116Y301870D02*
D03*
Y304626D02*
D03*
X-602658Y310728D02*
D03*
Y307972D02*
D03*
X-76400Y-96522D02*
D03*
Y-99278D02*
D03*
X-34200Y-98522D02*
D03*
Y-101278D02*
D03*
X-76200Y-82322D02*
D03*
Y-85078D02*
D03*
X-76400Y-70722D02*
D03*
Y-73478D02*
D03*
X-291142Y224114D02*
D03*
Y221358D02*
D03*
X-529172Y58142D02*
D03*
Y55387D02*
D03*
X-531731Y58142D02*
D03*
Y55387D02*
D03*
X-676575Y11713D02*
D03*
Y8957D02*
D03*
X-430886Y422638D02*
D03*
Y425394D02*
D03*
X-299311Y250886D02*
D03*
Y253642D02*
D03*
X-263287Y273721D02*
D03*
Y276476D02*
D03*
X-255315Y273327D02*
D03*
Y270571D02*
D03*
X-259941Y265453D02*
D03*
Y262697D02*
D03*
X-267815Y273327D02*
D03*
Y270571D02*
D03*
X-259252Y254823D02*
D03*
Y257579D02*
D03*
X-286811Y254429D02*
D03*
Y257185D02*
D03*
Y270571D02*
D03*
Y273327D02*
D03*
X-251378Y250886D02*
D03*
Y253642D02*
D03*
X-279035Y253642D02*
D03*
Y250886D02*
D03*
X-279331Y264665D02*
D03*
Y267421D02*
D03*
X-294685Y270571D02*
D03*
Y273327D02*
D03*
X-282874Y257579D02*
D03*
Y254823D02*
D03*
X-243872Y302098D02*
D03*
Y304854D02*
D03*
X-212402Y314764D02*
D03*
Y312008D02*
D03*
X-239961Y283169D02*
D03*
Y280413D02*
D03*
X-232087Y209547D02*
D03*
Y212303D02*
D03*
X-216339Y217421D02*
D03*
Y220177D02*
D03*
X-243898Y225295D02*
D03*
Y228051D02*
D03*
X-267520Y221358D02*
D03*
Y224114D02*
D03*
X-228150Y221358D02*
D03*
Y224114D02*
D03*
X-267520Y204429D02*
D03*
Y201673D02*
D03*
X-259620Y231231D02*
D03*
Y233987D02*
D03*
X-259646Y205610D02*
D03*
Y208366D02*
D03*
X-263583Y193799D02*
D03*
Y196555D02*
D03*
X-220276Y205610D02*
D03*
Y208366D02*
D03*
X-212376Y227294D02*
D03*
Y230050D02*
D03*
X-247835Y201673D02*
D03*
Y204429D02*
D03*
X-306890Y318602D02*
D03*
Y315846D02*
D03*
X-310802Y281231D02*
D03*
Y278476D02*
D03*
X-299016Y302854D02*
D03*
X-299016Y300098D02*
D03*
X-251772Y292323D02*
D03*
Y295079D02*
D03*
X-306890Y296161D02*
D03*
Y298917D02*
D03*
X-299016Y291437D02*
D03*
Y288681D02*
D03*
X-279306Y298161D02*
D03*
Y300917D02*
D03*
X-261713Y307677D02*
D03*
Y310433D02*
D03*
X-283268Y310728D02*
D03*
Y307972D02*
D03*
X-291142Y201673D02*
D03*
Y204429D02*
D03*
X-287008Y296850D02*
D03*
Y294094D02*
D03*
X-314764Y294980D02*
D03*
Y292224D02*
D03*
X-419600Y93378D02*
D03*
Y90622D02*
D03*
X-438976Y101575D02*
D03*
Y98819D02*
D03*
X-424200Y90622D02*
D03*
Y93378D02*
D03*
X-267520Y279232D02*
D03*
Y276476D02*
D03*
X-248031Y279134D02*
D03*
Y281890D02*
D03*
X-263189Y258760D02*
D03*
Y261516D02*
D03*
X-676575Y4232D02*
D03*
Y1476D02*
D03*
X-614600Y-83000D02*
D03*
Y-80244D02*
D03*
X-399800Y282378D02*
D03*
Y279622D02*
D03*
X-397300Y282378D02*
D03*
Y279622D02*
D03*
X-620200Y-80578D02*
D03*
Y-77822D02*
D03*
X-589002Y177346D02*
D03*
Y174590D02*
D03*
X-575100Y144522D02*
D03*
Y147278D02*
D03*
X-545700Y131578D02*
D03*
Y128822D02*
D03*
X-540846Y48819D02*
D03*
Y51575D02*
D03*
X-493700Y-68722D02*
D03*
Y-71478D02*
D03*
X-632800Y-85078D02*
D03*
Y-82322D02*
D03*
X-498600Y-60778D02*
D03*
Y-58022D02*
D03*
X-244100Y-16078D02*
D03*
Y-13322D02*
D03*
X-676181Y82087D02*
D03*
Y79331D02*
D03*
X-636811Y89961D02*
D03*
Y87205D02*
D03*
X-650601Y97910D02*
D03*
Y100666D02*
D03*
X-672254Y89371D02*
D03*
Y92126D02*
D03*
X-627347Y93621D02*
D03*
Y90865D02*
D03*
X-219500Y-15222D02*
D03*
Y-17978D02*
D03*
X-79100Y-66078D02*
D03*
Y-63322D02*
D03*
X-525100Y275022D02*
D03*
Y277778D02*
D03*
X-525300Y235322D02*
D03*
Y238078D02*
D03*
X-587598Y257480D02*
D03*
Y260236D02*
D03*
X-627347Y96965D02*
D03*
Y99721D02*
D03*
X-485131Y232753D02*
D03*
Y235509D02*
D03*
Y229409D02*
D03*
Y226653D02*
D03*
X-545768Y-54232D02*
D03*
Y-56988D02*
D03*
X-547244Y50295D02*
D03*
Y53051D02*
D03*
X-506398Y-48819D02*
D03*
Y-51575D02*
D03*
X-517224Y-54232D02*
D03*
Y-56988D02*
D03*
X-552165Y-9449D02*
D03*
Y-12205D02*
D03*
X-558071Y-9449D02*
D03*
Y-12205D02*
D03*
X-555118Y-9449D02*
D03*
Y-12205D02*
D03*
X-485500Y211578D02*
D03*
Y208822D02*
D03*
Y214922D02*
D03*
Y217678D02*
D03*
X-570100Y-67578D02*
D03*
Y-64822D02*
D03*
X-646400Y305222D02*
D03*
Y307978D02*
D03*
X-543799Y48819D02*
D03*
Y51575D02*
D03*
X-477362Y-35039D02*
D03*
Y-37795D02*
D03*
X-481299Y-38976D02*
D03*
Y-41732D02*
D03*
X-534449Y70472D02*
D03*
Y73228D02*
D03*
D117*
X-681293Y-19390D02*
D03*
Y-28051D02*
D03*
D118*
X-121653Y423228D02*
D03*
X-133071D02*
D03*
D119*
X-131299Y415158D02*
D03*
Y403740D02*
D03*
X-181100Y63109D02*
D03*
Y51691D02*
D03*
D120*
X-90551Y174114D02*
D03*
X-86811Y183169D02*
D03*
X-94291D02*
D03*
X-522539Y370177D02*
D03*
X-518799Y379232D02*
D03*
X-526279D02*
D03*
X-502362Y93799D02*
D03*
X-506102Y84744D02*
D03*
X-498622D02*
D03*
X-385500Y-89372D02*
D03*
X-389240Y-98428D02*
D03*
X-381760D02*
D03*
X-517900Y335128D02*
D03*
X-521640Y326072D02*
D03*
X-514160D02*
D03*
X-517900Y319528D02*
D03*
X-521640Y310472D02*
D03*
X-514160D02*
D03*
D121*
X-358071Y271063D02*
D03*
X-355315D02*
D03*
X-358071Y266634D02*
D03*
X-355315D02*
D03*
X-357283Y273819D02*
D03*
X-354528D02*
D03*
X-357283Y277953D02*
D03*
X-354528D02*
D03*
X-355709Y282677D02*
D03*
X-352953D02*
D03*
X-355709Y286811D02*
D03*
X-352953D02*
D03*
X-617678Y-73900D02*
D03*
X-614922D02*
D03*
X-185039Y376181D02*
D03*
X-187795D02*
D03*
X-123228Y337402D02*
D03*
X-120472D02*
D03*
X-312179Y248358D02*
D03*
X-309424D02*
D03*
X-320079Y244390D02*
D03*
X-317323D02*
D03*
X-281865Y283790D02*
D03*
X-284620D02*
D03*
X-298721Y275984D02*
D03*
X-295965D02*
D03*
X-325984Y275886D02*
D03*
X-323228D02*
D03*
X-332480Y271949D02*
D03*
X-335236D02*
D03*
X-209817Y244421D02*
D03*
X-207061D02*
D03*
X-325984Y271949D02*
D03*
X-323228D02*
D03*
X-221628Y256231D02*
D03*
X-218872D02*
D03*
X-234620Y268042D02*
D03*
X-237376D02*
D03*
X-225590Y267717D02*
D03*
X-222835D02*
D03*
X-318504Y252264D02*
D03*
X-315748D02*
D03*
X-217717Y276181D02*
D03*
X-214961D02*
D03*
X-261319Y252067D02*
D03*
X-258563D02*
D03*
X-241339Y271654D02*
D03*
X-238583Y271654D02*
D03*
X-35630Y82677D02*
D03*
X-38386D02*
D03*
X-37222Y80000D02*
D03*
X-39978D02*
D03*
X-37222Y77300D02*
D03*
X-39978D02*
D03*
X-38222Y72300D02*
D03*
X-40978D02*
D03*
X-38222Y69500D02*
D03*
X-40978D02*
D03*
X-37622Y63400D02*
D03*
X-40378D02*
D03*
X-37622Y60600D02*
D03*
X-40378D02*
D03*
X-178839Y262697D02*
D03*
X-181595D02*
D03*
X-178839Y265256D02*
D03*
X-181595D02*
D03*
X-175689Y234547D02*
D03*
X-172933D02*
D03*
X-151772Y257579D02*
D03*
X-149016D02*
D03*
X-151772Y260138D02*
D03*
X-149016D02*
D03*
X-178543Y252362D02*
D03*
X-175787D02*
D03*
X-178543Y254921D02*
D03*
X-175787D02*
D03*
X-157972Y267323D02*
D03*
X-155217D02*
D03*
X-157972Y269882D02*
D03*
X-155217D02*
D03*
X-358563Y283465D02*
D03*
X-361319D02*
D03*
X-358563Y286024D02*
D03*
X-361319D02*
D03*
X-385177Y213917D02*
D03*
X-387933D02*
D03*
X-385177Y211358D02*
D03*
X-387933D02*
D03*
X-360138Y274606D02*
D03*
X-362894D02*
D03*
X-360138Y277067D02*
D03*
X-362894D02*
D03*
X-399980Y208917D02*
D03*
X-402736D02*
D03*
X-399980Y206358D02*
D03*
X-402736D02*
D03*
X-393113Y193799D02*
D03*
X-395869D02*
D03*
X-393113Y191437D02*
D03*
X-395869D02*
D03*
X-360925Y269980D02*
D03*
X-363681D02*
D03*
X-360925Y267421D02*
D03*
X-363681D02*
D03*
X-406102Y282480D02*
D03*
X-403346D02*
D03*
X-406102Y285039D02*
D03*
X-403346D02*
D03*
X-394980Y218917D02*
D03*
X-397736D02*
D03*
X-394980Y216358D02*
D03*
X-397736D02*
D03*
X-394980Y196457D02*
D03*
X-397736D02*
D03*
X-394980Y198819D02*
D03*
X-397736D02*
D03*
X-427362Y383366D02*
D03*
X-430118D02*
D03*
X-420276Y361811D02*
D03*
X-417520D02*
D03*
X-420276Y368504D02*
D03*
X-417520D02*
D03*
X-625886Y386221D02*
D03*
X-628642D02*
D03*
X-574606Y332874D02*
D03*
X-571850D02*
D03*
X-599213Y404921D02*
D03*
X-596457D02*
D03*
X-250295Y232972D02*
D03*
X-253051D02*
D03*
X-246457Y236910D02*
D03*
X-249213D02*
D03*
X-305512Y252658D02*
D03*
X-308268D02*
D03*
X-296431Y240483D02*
D03*
X-293676D02*
D03*
X-242520Y263779D02*
D03*
X-245276D02*
D03*
X-77022Y-58700D02*
D03*
X-79778D02*
D03*
X-34778Y-58900D02*
D03*
X-32022D02*
D03*
X-34678Y72300D02*
D03*
X-31922D02*
D03*
X-34678Y69600D02*
D03*
X-31922D02*
D03*
X-34078Y63400D02*
D03*
X-31322D02*
D03*
X-34078Y60600D02*
D03*
X-31322D02*
D03*
X-32178Y85400D02*
D03*
X-29422D02*
D03*
X-32178Y82700D02*
D03*
X-29422D02*
D03*
X-30922Y80000D02*
D03*
X-33678D02*
D03*
X-30922Y77300D02*
D03*
X-33678D02*
D03*
X-42224Y102264D02*
D03*
X-44980D02*
D03*
X-42224Y99803D02*
D03*
X-44980D02*
D03*
X-36811Y93996D02*
D03*
X-39567D02*
D03*
X-36811Y91535D02*
D03*
X-39567D02*
D03*
X-53937Y113386D02*
D03*
X-51181D02*
D03*
X-53937Y110925D02*
D03*
X-51181D02*
D03*
X-49606Y108071D02*
D03*
X-46850D02*
D03*
X-49606Y105512D02*
D03*
X-46850D02*
D03*
X-270571Y376130D02*
D03*
X-273327D02*
D03*
X-295768D02*
D03*
X-298524D02*
D03*
X-142323Y376083D02*
D03*
X-145079D02*
D03*
X-167520Y376181D02*
D03*
X-170276D02*
D03*
X-165650Y390453D02*
D03*
X-162894D02*
D03*
X-338878Y382429D02*
D03*
X-341634D02*
D03*
X-338878Y410776D02*
D03*
X-341634D02*
D03*
X-338878Y396602D02*
D03*
X-341634D02*
D03*
X-146653Y406299D02*
D03*
X-143898D02*
D03*
X-274902Y406248D02*
D03*
X-272146D02*
D03*
X-189370Y406201D02*
D03*
X-186614D02*
D03*
X-231953Y406153D02*
D03*
X-229197D02*
D03*
X-247799Y390405D02*
D03*
X-245043D02*
D03*
X-210236Y376181D02*
D03*
X-212992D02*
D03*
X-252819Y376134D02*
D03*
X-255575D02*
D03*
X-230771Y375838D02*
D03*
X-233527D02*
D03*
X-224803Y287697D02*
D03*
X-227559D02*
D03*
X-266043Y303150D02*
D03*
X-268799D02*
D03*
X-309055Y291634D02*
D03*
X-311811D02*
D03*
X-76522Y-93300D02*
D03*
X-79278D02*
D03*
X-34578Y-83900D02*
D03*
X-31822D02*
D03*
X-652122Y-73900D02*
D03*
X-654878D02*
D03*
X-667913Y-73425D02*
D03*
X-665158D02*
D03*
X-639722Y-78000D02*
D03*
X-642478D02*
D03*
X-654122Y-78200D02*
D03*
X-656878D02*
D03*
X-675678Y-3700D02*
D03*
X-672922D02*
D03*
X-640945Y-44055D02*
D03*
X-638189D02*
D03*
X-624016Y-42618D02*
D03*
X-621260D02*
D03*
X-175689Y231988D02*
D03*
X-172933D02*
D03*
X-679724Y316929D02*
D03*
X-682480D02*
D03*
X-688386Y351181D02*
D03*
X-691142D02*
D03*
X-296457Y267717D02*
D03*
X-293701D02*
D03*
X-300394Y263779D02*
D03*
X-297638D02*
D03*
X-254331Y267717D02*
D03*
X-257087D02*
D03*
X-303543Y248327D02*
D03*
X-306299D02*
D03*
X-264961Y255906D02*
D03*
X-262205D02*
D03*
X-246457Y267717D02*
D03*
X-249213D02*
D03*
X-333071Y264469D02*
D03*
X-335827D02*
D03*
X-216313Y268042D02*
D03*
X-219069D02*
D03*
X-317618Y267913D02*
D03*
X-320374D02*
D03*
X-312179Y264106D02*
D03*
X-309424D02*
D03*
X-320079Y275886D02*
D03*
X-317323D02*
D03*
X-304823Y279528D02*
D03*
X-307579D02*
D03*
X-35622Y85400D02*
D03*
X-38378D02*
D03*
X-175689Y221752D02*
D03*
X-172933D02*
D03*
X-163091Y227067D02*
D03*
X-160335D02*
D03*
X-175689Y224311D02*
D03*
X-172933D02*
D03*
X-163091Y229331D02*
D03*
X-160335D02*
D03*
X-171145Y245100D02*
D03*
X-173901D02*
D03*
X-153872Y249606D02*
D03*
X-151117D02*
D03*
X-171145Y242541D02*
D03*
X-173901D02*
D03*
X-153872Y247047D02*
D03*
X-151117D02*
D03*
X-244488Y311319D02*
D03*
X-247244D02*
D03*
X-236614Y295669D02*
D03*
X-239370D02*
D03*
X-220768D02*
D03*
X-218012D02*
D03*
X-228922Y319200D02*
D03*
X-231678D02*
D03*
X-232677Y307382D02*
D03*
X-235433D02*
D03*
X-212992Y287697D02*
D03*
X-215748D02*
D03*
Y303445D02*
D03*
X-212992D02*
D03*
X-239370Y212894D02*
D03*
X-236614D02*
D03*
X-290551Y228642D02*
D03*
X-287795D02*
D03*
X-282677Y212894D02*
D03*
X-279921D02*
D03*
X-294488Y216831D02*
D03*
X-291732D02*
D03*
X-252362Y224705D02*
D03*
X-255118D02*
D03*
X-209055Y197146D02*
D03*
X-211811D02*
D03*
X-220250Y193239D02*
D03*
X-217495D02*
D03*
X-231496Y197146D02*
D03*
X-228740D02*
D03*
X-310236Y311319D02*
D03*
X-307480D02*
D03*
X-294488Y319193D02*
D03*
X-291732D02*
D03*
X-302362Y232579D02*
D03*
X-299606D02*
D03*
X-272047Y319193D02*
D03*
X-274803Y319193D02*
D03*
X-306299Y220768D02*
D03*
X-303543Y220768D02*
D03*
X-298425Y205020D02*
D03*
X-295669D02*
D03*
X-268110Y291634D02*
D03*
X-270866D02*
D03*
X-302362Y193209D02*
D03*
X-299606Y193209D02*
D03*
X-283858Y323130D02*
D03*
X-286614D02*
D03*
X-310236Y208957D02*
D03*
X-307480Y208957D02*
D03*
X-314173Y197146D02*
D03*
X-311417D02*
D03*
X-279921Y193209D02*
D03*
X-282677D02*
D03*
X-283858Y220768D02*
D03*
X-286614D02*
D03*
X-251083Y319291D02*
D03*
X-248327D02*
D03*
X-225556Y240400D02*
D03*
X-222800D02*
D03*
X-336910Y259744D02*
D03*
X-339665D02*
D03*
X-336713Y236910D02*
D03*
X-339469D02*
D03*
X-209817Y240483D02*
D03*
X-207061D02*
D03*
X-209278Y272000D02*
D03*
X-206522D02*
D03*
X-331890Y248524D02*
D03*
X-329134D02*
D03*
X-327165Y240354D02*
D03*
X-329921D02*
D03*
X-209817Y252294D02*
D03*
X-207061D02*
D03*
X-225565D02*
D03*
X-222810D02*
D03*
X-234620Y244421D02*
D03*
X-237376Y244421D02*
D03*
X-312179Y268042D02*
D03*
X-309424D02*
D03*
X-312205Y240748D02*
D03*
X-309449Y240748D02*
D03*
X-234620Y264106D02*
D03*
X-237376D02*
D03*
X-226772Y271949D02*
D03*
X-229528Y271949D02*
D03*
X-225565Y248358D02*
D03*
X-222810D02*
D03*
X-234620Y248358D02*
D03*
X-237376D02*
D03*
X-422522Y82700D02*
D03*
X-425278D02*
D03*
X-425197Y107874D02*
D03*
X-422441D02*
D03*
X-292520Y263779D02*
D03*
X-289764D02*
D03*
X-288583Y267717D02*
D03*
X-285827D02*
D03*
X-289469Y260138D02*
D03*
X-286713D02*
D03*
X-284646Y263779D02*
D03*
X-281890D02*
D03*
X-249803Y260531D02*
D03*
X-247047D02*
D03*
X-296850Y259842D02*
D03*
X-299606D02*
D03*
X-251969Y257874D02*
D03*
X-249213D02*
D03*
X-257087Y263779D02*
D03*
X-254331D02*
D03*
X-51178Y99800D02*
D03*
X-48422D02*
D03*
X-51278Y102300D02*
D03*
X-48522D02*
D03*
X-45669Y93898D02*
D03*
X-42913D02*
D03*
X-45669Y91437D02*
D03*
X-42913D02*
D03*
X-60039Y110925D02*
D03*
X-57284D02*
D03*
X-60039Y113484D02*
D03*
X-57284D02*
D03*
X-55878Y107900D02*
D03*
X-53122D02*
D03*
X-55778Y105500D02*
D03*
X-53022D02*
D03*
X-596063Y-85925D02*
D03*
X-598819D02*
D03*
X-602078Y-82700D02*
D03*
X-599322D02*
D03*
X-161516Y270079D02*
D03*
X-164272D02*
D03*
X-161417Y267323D02*
D03*
X-164173D02*
D03*
X-182022Y254800D02*
D03*
X-184778D02*
D03*
X-182022Y252500D02*
D03*
X-184778D02*
D03*
X-181988Y234842D02*
D03*
X-179232D02*
D03*
X-185122Y265200D02*
D03*
X-187878D02*
D03*
X-185082Y262810D02*
D03*
X-187838D02*
D03*
X-156727Y227027D02*
D03*
X-153971D02*
D03*
X-156727Y229351D02*
D03*
X-153971D02*
D03*
X-160378Y249600D02*
D03*
X-157622D02*
D03*
X-160378Y247200D02*
D03*
X-157622D02*
D03*
X-157972Y237205D02*
D03*
X-155217D02*
D03*
X-157972Y239665D02*
D03*
X-155217D02*
D03*
X-47578Y69500D02*
D03*
X-44822D02*
D03*
X-47578Y72200D02*
D03*
X-44822D02*
D03*
X-46778Y63300D02*
D03*
X-44022D02*
D03*
X-46778Y60500D02*
D03*
X-44022D02*
D03*
X-611078Y-106900D02*
D03*
X-608322D02*
D03*
X-640378Y128000D02*
D03*
X-637622D02*
D03*
X-541078Y96300D02*
D03*
X-538322D02*
D03*
X-542717Y1969D02*
D03*
X-539961D02*
D03*
X-469622Y-20000D02*
D03*
X-472378D02*
D03*
X-469610Y-17073D02*
D03*
X-472366D02*
D03*
X-486128Y-61100D02*
D03*
X-483372D02*
D03*
X-486100Y-64100D02*
D03*
X-483344D02*
D03*
X-557478Y138500D02*
D03*
X-554722D02*
D03*
X-160578Y260200D02*
D03*
X-157822D02*
D03*
X-160678Y257600D02*
D03*
X-157922D02*
D03*
X-508748Y-70336D02*
D03*
X-505992D02*
D03*
X-508748Y-67335D02*
D03*
X-505992D02*
D03*
X-522578Y40100D02*
D03*
X-519822D02*
D03*
X-542717Y-1969D02*
D03*
X-539961D02*
D03*
X-517822Y96300D02*
D03*
X-520578D02*
D03*
X-671063Y315748D02*
D03*
X-673819D02*
D03*
X-498722Y-63900D02*
D03*
X-501478D02*
D03*
X-657379Y92188D02*
D03*
X-654623D02*
D03*
X-694488Y42323D02*
D03*
X-697244D02*
D03*
X-687402D02*
D03*
X-684646D02*
D03*
X-690354Y81693D02*
D03*
X-687598D02*
D03*
X-549606Y-34449D02*
D03*
X-546850D02*
D03*
X-504921Y2067D02*
D03*
X-502165D02*
D03*
X-524016Y-32972D02*
D03*
X-521260D02*
D03*
X-549606Y-38386D02*
D03*
X-546850D02*
D03*
X-504921Y-1870D02*
D03*
X-502165D02*
D03*
X-64003Y-32156D02*
D03*
X-66759D02*
D03*
X-522047Y44291D02*
D03*
X-519291D02*
D03*
X-525778Y73200D02*
D03*
X-523022D02*
D03*
X-529122D02*
D03*
X-531878D02*
D03*
X-549122Y-86100D02*
D03*
X-551878D02*
D03*
X-472297Y-14103D02*
D03*
X-469541D02*
D03*
X-472297Y-11741D02*
D03*
X-469541D02*
D03*
X-518322Y-132700D02*
D03*
X-521078D02*
D03*
X-181988Y232480D02*
D03*
X-179232D02*
D03*
X-563583Y46260D02*
D03*
X-566339D02*
D03*
X-554232Y72342D02*
D03*
X-556988D02*
D03*
D122*
X-594095Y-90453D02*
D03*
X-600394D02*
D03*
X-591850Y-72200D02*
D03*
X-585550D02*
D03*
X-123721Y-87106D02*
D03*
X-117421D02*
D03*
X-144685Y-66437D02*
D03*
X-138386D02*
D03*
X-150197D02*
D03*
X-156496D02*
D03*
X-505610Y66437D02*
D03*
X-499311D02*
D03*
X-324626Y-94095D02*
D03*
X-330925D02*
D03*
X-314193Y-100098D02*
D03*
X-307894D02*
D03*
X-310256Y-94685D02*
D03*
X-303957D02*
D03*
X-236024Y-96161D02*
D03*
X-242323D02*
D03*
X-240945Y-90158D02*
D03*
X-247244D02*
D03*
X-230512Y-96161D02*
D03*
X-224213D02*
D03*
X-226575Y-90748D02*
D03*
X-220276D02*
D03*
X-326004Y-100098D02*
D03*
X-319705D02*
D03*
X-190157Y59252D02*
D03*
X-196457D02*
D03*
X-194250Y78700D02*
D03*
X-187950D02*
D03*
X-205413Y87303D02*
D03*
X-199114D02*
D03*
X-603950Y-76100D02*
D03*
X-610250D02*
D03*
X-591950Y-78300D02*
D03*
X-598250D02*
D03*
X-580350Y-108300D02*
D03*
X-586650D02*
D03*
X-521450Y304200D02*
D03*
X-515150D02*
D03*
D123*
X-563700Y124772D02*
D03*
Y121228D02*
D03*
X-555500Y83572D02*
D03*
Y80028D02*
D03*
X-377244Y395374D02*
D03*
Y398917D02*
D03*
X-686000Y-52528D02*
D03*
Y-56072D02*
D03*
X-295669Y418748D02*
D03*
Y415205D02*
D03*
X-607518Y118774D02*
D03*
Y115231D02*
D03*
X-549600Y84472D02*
D03*
Y80928D02*
D03*
X-301700Y279372D02*
D03*
Y275828D02*
D03*
X-630200Y322628D02*
D03*
Y326172D02*
D03*
X-548900Y352528D02*
D03*
Y356072D02*
D03*
X-566299Y410331D02*
D03*
Y413875D02*
D03*
X-562600Y410328D02*
D03*
Y413872D02*
D03*
X-570000Y410328D02*
D03*
Y413872D02*
D03*
X-551500Y391428D02*
D03*
Y394972D02*
D03*
X-330335Y-122539D02*
D03*
Y-126083D02*
D03*
X-219500Y-98872D02*
D03*
Y-95328D02*
D03*
X-637598Y394390D02*
D03*
Y390846D02*
D03*
X-210433Y76279D02*
D03*
Y79823D02*
D03*
X-608563Y296752D02*
D03*
Y293209D02*
D03*
X-603740Y330807D02*
D03*
Y327264D02*
D03*
X-575900Y225572D02*
D03*
Y222028D02*
D03*
X-669200Y320328D02*
D03*
Y323872D02*
D03*
X-332500Y160172D02*
D03*
Y156628D02*
D03*
X-650538Y246303D02*
D03*
Y249847D02*
D03*
Y261341D02*
D03*
Y264884D02*
D03*
Y276378D02*
D03*
Y279921D02*
D03*
X-669193Y332579D02*
D03*
Y329035D02*
D03*
X-404528Y138583D02*
D03*
Y135039D02*
D03*
X-280512Y-8661D02*
D03*
Y-5118D02*
D03*
X-327756Y-9646D02*
D03*
Y-6102D02*
D03*
X-570866Y249705D02*
D03*
Y253248D02*
D03*
X-566929D02*
D03*
Y249705D02*
D03*
X-473500Y332172D02*
D03*
Y335716D02*
D03*
D124*
X-136831Y-14055D02*
D03*
X-109823Y-4055D02*
D03*
X-178071Y-14350D02*
D03*
X-151063Y-4350D02*
D03*
X-263898Y-44075D02*
D03*
X-236890Y-34075D02*
D03*
X-222657Y-43780D02*
D03*
X-195650Y-33779D02*
D03*
X-75004Y175400D02*
D03*
X-47996Y185400D02*
D03*
D125*
X-135079Y-6555D02*
D03*
X-111575Y-11555D02*
D03*
X-176319Y-6850D02*
D03*
X-152815Y-11850D02*
D03*
X-262146Y-36575D02*
D03*
X-238642Y-41575D02*
D03*
X-220905Y-36279D02*
D03*
X-197402Y-41280D02*
D03*
X-73252Y182900D02*
D03*
X-49748Y177900D02*
D03*
D126*
X-377343Y386417D02*
D03*
X-389154D02*
D03*
X-447638Y390945D02*
D03*
X-459449D02*
D03*
X-196064Y25787D02*
D03*
X-207876D02*
D03*
X-196065Y43504D02*
D03*
X-207876D02*
D03*
X-196065Y34646D02*
D03*
X-207876D02*
D03*
D127*
X-309267Y-108580D02*
D03*
Y-105037D02*
D03*
X-324621Y-108580D02*
D03*
Y-105037D02*
D03*
X-139759Y-74919D02*
D03*
Y-71376D02*
D03*
X-357658Y403839D02*
D03*
Y400295D02*
D03*
X-155113Y-74919D02*
D03*
Y-71376D02*
D03*
X-240940Y-104643D02*
D03*
Y-101100D02*
D03*
X-225586Y-104643D02*
D03*
Y-101100D02*
D03*
X-199508Y72638D02*
D03*
Y76181D02*
D03*
X-693110Y359350D02*
D03*
Y362894D02*
D03*
X-667323Y354823D02*
D03*
Y358366D02*
D03*
X-179727Y72069D02*
D03*
Y75612D02*
D03*
X-175200Y72128D02*
D03*
Y75672D02*
D03*
X-514500Y350028D02*
D03*
Y353572D02*
D03*
X-507800Y109972D02*
D03*
Y106428D02*
D03*
X-76100Y162528D02*
D03*
Y166072D02*
D03*
X-112900Y-128728D02*
D03*
Y-132272D02*
D03*
D128*
X-356693Y-103543D02*
D03*
Y-97244D02*
D03*
X-125984Y-124508D02*
D03*
Y-130807D02*
D03*
X-614370Y-50886D02*
D03*
X-614370Y-44587D02*
D03*
X-442028Y389764D02*
D03*
Y396063D02*
D03*
X-478051Y392224D02*
D03*
Y398524D02*
D03*
X-484547Y392224D02*
D03*
Y398524D02*
D03*
X-466240Y342618D02*
D03*
Y336319D02*
D03*
X-460335Y342618D02*
D03*
Y336319D02*
D03*
X-216142Y62402D02*
D03*
Y68701D02*
D03*
X-190300Y85050D02*
D03*
Y91350D02*
D03*
X-273425Y258957D02*
D03*
Y252658D02*
D03*
Y235039D02*
D03*
Y241339D02*
D03*
Y228346D02*
D03*
Y222047D02*
D03*
Y271949D02*
D03*
Y265650D02*
D03*
X-241437Y331201D02*
D03*
Y337500D02*
D03*
X-234547Y331201D02*
D03*
Y337500D02*
D03*
X-273425Y195768D02*
D03*
X-273425Y202067D02*
D03*
X-231594Y186909D02*
D03*
X-231594Y180610D02*
D03*
X-261024Y186122D02*
D03*
Y179823D02*
D03*
X-285236Y186319D02*
D03*
X-285236Y180020D02*
D03*
X-169980Y182382D02*
D03*
X-169980Y176083D02*
D03*
X-274410Y187106D02*
D03*
Y180807D02*
D03*
X-222146Y187008D02*
D03*
Y180709D02*
D03*
X-261614Y318012D02*
D03*
X-261614Y324311D02*
D03*
X-301279Y333071D02*
D03*
Y339370D02*
D03*
X-305217Y183563D02*
D03*
X-305217Y177264D02*
D03*
X-312008Y183760D02*
D03*
X-312008Y177461D02*
D03*
X-269094Y329724D02*
D03*
Y336024D02*
D03*
X-282972Y333760D02*
D03*
Y340059D02*
D03*
X-299410Y183563D02*
D03*
Y177264D02*
D03*
X-291535Y333071D02*
D03*
Y339370D02*
D03*
X-320669Y290256D02*
D03*
Y296555D02*
D03*
X-311221Y332972D02*
D03*
Y339272D02*
D03*
X-485827Y37500D02*
D03*
Y31201D02*
D03*
X-478937Y37500D02*
D03*
Y31201D02*
D03*
X-476870Y61713D02*
D03*
Y55413D02*
D03*
X-484547Y61713D02*
D03*
Y55413D02*
D03*
X-432087Y103642D02*
D03*
Y97342D02*
D03*
X-414567Y94784D02*
D03*
Y88484D02*
D03*
X-406791Y94685D02*
D03*
Y88386D02*
D03*
X-186400Y117050D02*
D03*
Y123350D02*
D03*
X-420276Y147835D02*
D03*
Y141535D02*
D03*
X-544100Y348550D02*
D03*
Y354850D02*
D03*
D129*
X-426772Y171260D02*
D03*
X-419685D02*
D03*
X-222643Y28500D02*
D03*
X-215557D02*
D03*
X-222543Y37900D02*
D03*
X-215457D02*
D03*
X-222843Y19500D02*
D03*
X-215757D02*
D03*
X-220043Y52600D02*
D03*
X-212957D02*
D03*
X-496258Y57972D02*
D03*
X-503345D02*
D03*
D130*
X-614665Y-58071D02*
D03*
X-607579Y-58071D02*
D03*
X-588043Y421000D02*
D03*
X-580957D02*
D03*
X-594882Y242126D02*
D03*
X-601968D02*
D03*
D131*
X-681201Y8661D02*
D03*
X-683760D02*
D03*
X-686319D02*
D03*
X-688878D02*
D03*
Y-8661D02*
D03*
X-686319D02*
D03*
X-683760D02*
D03*
X-681201D02*
D03*
D132*
X-313529Y383467D02*
D03*
X-311024Y385972D02*
D03*
X-310183Y406498D02*
D03*
X-307677Y409004D02*
D03*
X-310872Y380809D02*
D03*
X-308366Y383315D02*
D03*
D133*
X-623600Y323348D02*
D03*
Y316852D02*
D03*
X-462008Y416732D02*
D03*
Y423228D02*
D03*
D134*
X-194380Y-99715D02*
D03*
X-192431Y-101663D02*
D03*
X-275394Y388334D02*
D03*
X-273445Y386386D02*
D03*
X-296850Y391582D02*
D03*
X-298799Y393531D02*
D03*
X-149409Y388189D02*
D03*
X-147461Y386240D02*
D03*
X-191634Y388583D02*
D03*
X-189685Y386634D02*
D03*
X-211319Y391732D02*
D03*
X-213268Y393681D02*
D03*
X-477352Y-30522D02*
D03*
X-475404Y-32470D02*
D03*
D135*
X-502264Y73032D02*
D03*
X-495768D02*
D03*
D136*
X-365860Y-61345D02*
D03*
X-369600Y-70400D02*
D03*
X-373340Y-61345D02*
D03*
D137*
X-583051Y-32677D02*
D03*
X-588051D02*
D03*
X-593051Y-32677D02*
D03*
X-583051Y-53937D02*
D03*
X-588051Y-53937D02*
D03*
X-598051Y-53937D02*
D03*
Y-32677D02*
D03*
X-593051Y-53937D02*
D03*
X-692200Y322970D02*
D03*
X-687200D02*
D03*
X-682200D02*
D03*
X-677200D02*
D03*
X-687200Y344230D02*
D03*
X-682200D02*
D03*
X-677200D02*
D03*
X-692200D02*
D03*
D138*
X-179677Y-107505D02*
D03*
X-176141Y-103969D02*
D03*
X-172606Y-100434D02*
D03*
X-194710Y-92472D02*
D03*
X-187638Y-85401D02*
D03*
X-184103Y-81865D02*
D03*
X-169070Y-96898D02*
D03*
X-191174Y-88936D02*
D03*
D139*
X-313484Y378098D02*
D03*
X-315433Y376150D02*
D03*
X-316831Y381248D02*
D03*
X-318779Y379299D02*
D03*
X-313779Y404181D02*
D03*
X-315728Y402232D02*
D03*
X-314774Y410864D02*
D03*
X-316722Y408915D02*
D03*
X-233704Y384028D02*
D03*
X-231756Y385976D02*
D03*
D140*
X-283409Y199332D02*
D03*
X-282930Y202046D02*
D03*
D141*
X-255983Y300212D02*
D03*
X-255041Y297622D02*
D03*
D142*
X-645079Y320866D02*
D03*
X-634842D02*
D03*
X-577618Y152500D02*
D03*
X-567382D02*
D03*
X-550218Y141500D02*
D03*
X-539982D02*
D03*
X-108118Y-128500D02*
D03*
X-97882D02*
D03*
X-501218Y340200D02*
D03*
X-490982D02*
D03*
X-495318Y128400D02*
D03*
X-485082D02*
D03*
D143*
X-474600Y355648D02*
D03*
X-469600Y379152D02*
D03*
X-484200Y70400D02*
D03*
X-479200Y93904D02*
D03*
D144*
X-467100Y353896D02*
D03*
X-477100Y380904D02*
D03*
X-476700Y68648D02*
D03*
X-486700Y95656D02*
D03*
D145*
X-193799Y188681D02*
D03*
Y176870D02*
D03*
D146*
X-443701Y97342D02*
D03*
X-439247Y92888D02*
D03*
D147*
X-220200Y306599D02*
D03*
Y304001D02*
D03*
X-224200Y306699D02*
D03*
Y304101D02*
D03*
X-255700Y208299D02*
D03*
Y205701D02*
D03*
X-263500Y209501D02*
D03*
Y212099D02*
D03*
X-433800Y-81799D02*
D03*
Y-79201D02*
D03*
X-428900Y-81899D02*
D03*
Y-79301D02*
D03*
X-384901Y110600D02*
D03*
Y113199D02*
D03*
Y107600D02*
D03*
Y105002D02*
D03*
X-366700Y116599D02*
D03*
Y114001D02*
D03*
X-366701Y119700D02*
D03*
Y122298D02*
D03*
X-406181Y51811D02*
D03*
Y49213D02*
D03*
Y44154D02*
D03*
Y46752D02*
D03*
X-453600Y46101D02*
D03*
Y48699D02*
D03*
X-448800Y45001D02*
D03*
Y47599D02*
D03*
X-443500Y-40401D02*
D03*
Y-42999D02*
D03*
X-438100Y-43001D02*
D03*
Y-45599D02*
D03*
X-463300Y64901D02*
D03*
Y67499D02*
D03*
X-454100Y61901D02*
D03*
Y64499D02*
D03*
X-453800Y57099D02*
D03*
Y54501D02*
D03*
X-449200Y59501D02*
D03*
Y62099D02*
D03*
X-454400Y93801D02*
D03*
Y96399D02*
D03*
X-463200Y94301D02*
D03*
Y96899D02*
D03*
X-456400Y2001D02*
D03*
Y4599D02*
D03*
X-453389Y2028D02*
D03*
Y4626D02*
D03*
X-613546Y89744D02*
D03*
Y92343D02*
D03*
X-613547Y97144D02*
D03*
Y99743D02*
D03*
X-519900Y81401D02*
D03*
Y83999D02*
D03*
D148*
X-560925Y-27559D02*
D03*
Y-47244D02*
D03*
D149*
X-566929Y-33366D02*
D03*
Y-21752D02*
D03*
Y-41437D02*
D03*
Y-53051D02*
D03*
D150*
X-644250Y-99200D02*
D03*
X-640550D02*
D03*
X-635750Y192600D02*
D03*
X-639450D02*
D03*
X-639450Y158000D02*
D03*
X-643150D02*
D03*
X-552350Y334800D02*
D03*
X-548650D02*
D03*
Y338600D02*
D03*
X-552350D02*
D03*
X-534150Y336400D02*
D03*
X-537850D02*
D03*
X-526850Y329300D02*
D03*
X-530550D02*
D03*
X-530450Y336400D02*
D03*
X-526750D02*
D03*
X-650050Y135600D02*
D03*
X-646350D02*
D03*
X-607550Y142700D02*
D03*
X-611250D02*
D03*
X-607650Y130700D02*
D03*
X-611350D02*
D03*
X-481250Y-70100D02*
D03*
X-484950D02*
D03*
X-653150Y184600D02*
D03*
X-656850D02*
D03*
X-649950Y144500D02*
D03*
X-646250D02*
D03*
X-628350Y192600D02*
D03*
X-632050D02*
D03*
X-491550Y-63600D02*
D03*
X-495250D02*
D03*
X-527150Y32400D02*
D03*
X-523450D02*
D03*
X-465431Y-86492D02*
D03*
X-469132D02*
D03*
X-538350Y32600D02*
D03*
X-542050D02*
D03*
X-607650Y150700D02*
D03*
X-611350D02*
D03*
X-607650Y138900D02*
D03*
X-611350D02*
D03*
X-600250Y150600D02*
D03*
X-603950D02*
D03*
X-587317Y168789D02*
D03*
X-583616D02*
D03*
X-646350Y131800D02*
D03*
X-650050D02*
D03*
X-617350Y125700D02*
D03*
X-613650D02*
D03*
X-601350Y135800D02*
D03*
X-597650D02*
D03*
X-611350Y146900D02*
D03*
X-607650D02*
D03*
X-646350Y139400D02*
D03*
X-650050D02*
D03*
X-577850Y158000D02*
D03*
X-574150D02*
D03*
X-379750Y-84400D02*
D03*
X-376050D02*
D03*
X-563850Y144100D02*
D03*
X-567550D02*
D03*
X-550350Y147200D02*
D03*
X-546650D02*
D03*
X-200750Y3500D02*
D03*
X-197050D02*
D03*
X-468996Y-81201D02*
D03*
X-465295D02*
D03*
X-472299Y195800D02*
D03*
X-476000D02*
D03*
X-491561Y-59827D02*
D03*
X-495262D02*
D03*
X-500750Y-67300D02*
D03*
X-497050D02*
D03*
X-500762Y-71227D02*
D03*
X-497061D02*
D03*
X-640866Y84646D02*
D03*
X-644567D02*
D03*
X-652551Y86388D02*
D03*
X-648850D02*
D03*
X-661754Y79398D02*
D03*
X-665455D02*
D03*
X-391358Y142197D02*
D03*
X-395059D02*
D03*
X-391358Y145669D02*
D03*
X-395059D02*
D03*
X-546250Y272800D02*
D03*
X-542550D02*
D03*
X-546250Y269000D02*
D03*
X-542550D02*
D03*
X-549850Y264500D02*
D03*
X-546150D02*
D03*
X-549850Y260700D02*
D03*
X-546150D02*
D03*
X-535450Y275300D02*
D03*
X-531750D02*
D03*
X-509950Y273100D02*
D03*
X-513650D02*
D03*
X-546150Y256100D02*
D03*
X-542450D02*
D03*
X-546150Y252400D02*
D03*
X-542450D02*
D03*
X-507650Y256800D02*
D03*
X-511350D02*
D03*
X-507650Y260700D02*
D03*
X-511350D02*
D03*
X-506150Y264600D02*
D03*
X-509850D02*
D03*
X-506150Y268500D02*
D03*
X-509850D02*
D03*
X-510250Y231900D02*
D03*
X-513950D02*
D03*
X-650850Y-40400D02*
D03*
X-647150D02*
D03*
X-654550D02*
D03*
X-658250D02*
D03*
X-472303Y192000D02*
D03*
X-476004D02*
D03*
X-549350Y32400D02*
D03*
X-545650D02*
D03*
X-557150Y32300D02*
D03*
X-560850D02*
D03*
X-540150Y58300D02*
D03*
X-536450D02*
D03*
X-548550D02*
D03*
X-552250D02*
D03*
X-555804Y-107471D02*
D03*
X-559505D02*
D03*
X-555804Y-112471D02*
D03*
X-559505D02*
D03*
X-555804Y-117471D02*
D03*
X-559505D02*
D03*
X-95050Y-59500D02*
D03*
X-98750D02*
D03*
Y-85100D02*
D03*
X-95050D02*
D03*
X-225450Y-24400D02*
D03*
X-221750D02*
D03*
X-225150Y300D02*
D03*
X-221450D02*
D03*
X-218050Y-21400D02*
D03*
X-214350D02*
D03*
X-203850Y-22100D02*
D03*
X-200150D02*
D03*
X-665531Y304331D02*
D03*
X-661831D02*
D03*
X-655450Y301300D02*
D03*
X-651750D02*
D03*
X-543150Y-133100D02*
D03*
X-539450D02*
D03*
X-474450Y128400D02*
D03*
X-478150D02*
D03*
X-476250Y205500D02*
D03*
X-472550D02*
D03*
X-467650Y209900D02*
D03*
X-471350D02*
D03*
X-475650Y222800D02*
D03*
X-471950D02*
D03*
X-471050Y227300D02*
D03*
X-467350D02*
D03*
X-559450Y309300D02*
D03*
X-555750D02*
D03*
X-559450Y305400D02*
D03*
X-555750D02*
D03*
X-650816Y221969D02*
D03*
X-654517D02*
D03*
X-597028Y128543D02*
D03*
X-593327Y128543D02*
D03*
X-375020Y-119390D02*
D03*
X-378720D02*
D03*
X-629931Y337213D02*
D03*
X-633632D02*
D03*
X-513661Y-51673D02*
D03*
X-509961Y-51673D02*
D03*
X-513661Y-47736D02*
D03*
X-509961Y-47736D02*
D03*
X-617350Y121949D02*
D03*
X-613650D02*
D03*
X-530394Y-62008D02*
D03*
X-526693D02*
D03*
X-469132Y-86492D02*
D03*
X-472832D02*
D03*
X-468996Y-81201D02*
D03*
X-472697D02*
D03*
D151*
X-552356Y342800D02*
D03*
X-546844D02*
D03*
X-67744Y-132900D02*
D03*
X-73256D02*
D03*
X-373000Y-107100D02*
D03*
X-367488D02*
D03*
X-372156Y-115000D02*
D03*
X-366644D02*
D03*
D152*
X-479300Y334731D02*
D03*
Y326069D02*
D03*
D153*
X-502330Y43900D02*
D03*
X-493669D02*
D03*
D154*
X-195661Y273500D02*
D03*
X-178339D02*
D03*
X-362461Y256900D02*
D03*
X-345139D02*
D03*
D155*
X-490158Y-33465D02*
D03*
X-533016Y43002D02*
D03*
X-553453D02*
D03*
X-544402Y68953D02*
D03*
D156*
X-683300Y-69880D02*
D03*
Y-62400D02*
D03*
X-692355Y-66140D02*
D03*
D157*
X-526856Y82684D02*
D03*
D158*
X-398100Y257000D02*
D03*
X-241600Y30700D02*
D03*
X-132185Y386713D02*
D03*
X-485500Y15600D02*
D03*
X-548900Y166000D02*
D03*
X-627900Y207900D02*
D03*
X-606791Y-45768D02*
D03*
X-552400Y410700D02*
D03*
D159*
X-156600Y172900D02*
D03*
X-274016Y-127953D02*
D03*
X-342520Y149606D02*
D03*
X-72700Y-114700D02*
D03*
X-633600Y407400D02*
D03*
D160*
X-193400Y281750D02*
D03*
Y288050D02*
D03*
D161*
X-558661Y21654D02*
D03*
X-567323D02*
D03*
M02*
