G04*
G04 #@! TF.GenerationSoftware,Altium Limited,Altium Designer,26.3.0 (6)*
G04*
G04 Layer_Color=16711935*
%FSLAX25Y25*%
%MOIN*%
G70*
G04*
G04 #@! TF.SameCoordinates,C6CC49F9-BE5A-4A86-91F3-016C1980600B*
G04*
G04*
G04 #@! TF.FilePolarity,Positive*
G04*
G01*
G75*
%ADD16C,0.01000*%
%ADD335C,0.01500*%
%ADD785C,0.00197*%
D16*
X395269Y389467D02*
X396683Y390881D01*
X399510D01*
X400923Y389467D01*
Y388054D01*
X399510Y386640D01*
X398096D01*
X399510D01*
X400923Y385227D01*
Y383814D01*
X399510Y382400D01*
X396683D01*
X395269Y383814D01*
X403750Y382400D02*
Y383814D01*
X405163D01*
Y382400D01*
X403750D01*
X416470Y390881D02*
X410817D01*
Y386640D01*
X413644Y388054D01*
X415057D01*
X416470Y386640D01*
Y383814D01*
X415057Y382400D01*
X412230D01*
X410817Y383814D01*
X399510Y348468D02*
Y356948D01*
X395269Y352708D01*
X400923D01*
X403750Y348468D02*
Y349882D01*
X405163D01*
Y348468D01*
X403750D01*
X410817D02*
X413644D01*
X412230D01*
Y356948D01*
X410817Y355535D01*
X423537Y356948D02*
X417884D01*
Y352708D01*
X420711Y354122D01*
X422124D01*
X423537Y352708D01*
Y349882D01*
X422124Y348468D01*
X419297D01*
X417884Y349882D01*
X399510Y314536D02*
Y323016D01*
X395269Y318776D01*
X400923D01*
X403750Y314536D02*
Y315949D01*
X405163D01*
Y314536D01*
X403750D01*
X416470D02*
X410817D01*
X416470Y320189D01*
Y321603D01*
X415057Y323016D01*
X412230D01*
X410817Y321603D01*
X424951Y323016D02*
X419297D01*
Y318776D01*
X422124Y320189D01*
X423537D01*
X424951Y318776D01*
Y315949D01*
X423537Y314536D01*
X420711D01*
X419297Y315949D01*
X399510Y280604D02*
Y289084D01*
X395269Y284844D01*
X400923D01*
X403750Y280604D02*
Y282017D01*
X405163D01*
Y280604D01*
X403750D01*
X410817D02*
X413644D01*
X412230D01*
Y289084D01*
X410817Y287671D01*
X423537Y289084D02*
X417884D01*
Y284844D01*
X420711Y286257D01*
X422124D01*
X423537Y284844D01*
Y282017D01*
X422124Y280604D01*
X419297D01*
X417884Y282017D01*
X399510Y246672D02*
Y255152D01*
X395269Y250912D01*
X400923D01*
X403750Y246672D02*
Y248085D01*
X405163D01*
Y246672D01*
X403750D01*
X416470D02*
X410817D01*
X416470Y252325D01*
Y253738D01*
X415057Y255152D01*
X412230D01*
X410817Y253738D01*
X424951Y255152D02*
X419297D01*
Y250912D01*
X422124Y252325D01*
X423537D01*
X424951Y250912D01*
Y248085D01*
X423537Y246672D01*
X420711D01*
X419297Y248085D01*
X399510Y212739D02*
Y221220D01*
X395269Y216980D01*
X400923D01*
X403750Y212739D02*
Y214153D01*
X405163D01*
Y212739D01*
X403750D01*
X410817D02*
X413644D01*
X412230D01*
Y221220D01*
X410817Y219806D01*
X423537Y221220D02*
X417884D01*
Y216980D01*
X420711Y218393D01*
X422124D01*
X423537Y216980D01*
Y214153D01*
X422124Y212739D01*
X419297D01*
X417884Y214153D01*
X399510Y178807D02*
Y187287D01*
X395269Y183047D01*
X400923D01*
X403750Y178807D02*
Y180221D01*
X405163D01*
Y178807D01*
X403750D01*
X416470D02*
X410817D01*
X416470Y184461D01*
Y185874D01*
X415057Y187287D01*
X412230D01*
X410817Y185874D01*
X424951Y187287D02*
X419297D01*
Y183047D01*
X422124Y184461D01*
X423537D01*
X424951Y183047D01*
Y180221D01*
X423537Y178807D01*
X420711D01*
X419297Y180221D01*
X399510Y144875D02*
Y153355D01*
X395269Y149115D01*
X400923D01*
X403750Y144875D02*
Y146288D01*
X405163D01*
Y144875D01*
X403750D01*
X410817D02*
X413644D01*
X412230D01*
Y153355D01*
X410817Y151942D01*
X423537Y153355D02*
X417884D01*
Y149115D01*
X420711Y150529D01*
X422124D01*
X423537Y149115D01*
Y146288D01*
X422124Y144875D01*
X419297D01*
X417884Y146288D01*
X399510Y110943D02*
Y119423D01*
X395269Y115183D01*
X400923D01*
X403750Y110943D02*
Y112356D01*
X405163D01*
Y110943D01*
X403750D01*
X416470D02*
X410817D01*
X416470Y116596D01*
Y118010D01*
X415057Y119423D01*
X412230D01*
X410817Y118010D01*
X424951Y119423D02*
X419297D01*
Y115183D01*
X422124Y116596D01*
X423537D01*
X424951Y115183D01*
Y112356D01*
X423537Y110943D01*
X420711D01*
X419297Y112356D01*
X399510Y77011D02*
Y85491D01*
X395269Y81251D01*
X400923D01*
X403750Y77011D02*
Y78424D01*
X405163D01*
Y77011D01*
X403750D01*
X410817D02*
X413644D01*
X412230D01*
Y85491D01*
X410817Y84078D01*
X423537Y85491D02*
X417884D01*
Y81251D01*
X420711Y82664D01*
X422124D01*
X423537Y81251D01*
Y78424D01*
X422124Y77011D01*
X419297D01*
X417884Y78424D01*
X399510Y43079D02*
Y51559D01*
X395269Y47319D01*
X400923D01*
X403750Y43079D02*
Y44492D01*
X405163D01*
Y43079D01*
X403750D01*
X416470D02*
X410817D01*
X416470Y48732D01*
Y50145D01*
X415057Y51559D01*
X412230D01*
X410817Y50145D01*
X424951Y51559D02*
X419297D01*
Y47319D01*
X422124Y48732D01*
X423537D01*
X424951Y47319D01*
Y44492D01*
X423537Y43079D01*
X420711D01*
X419297Y44492D01*
X399510Y9146D02*
Y17627D01*
X395269Y13386D01*
X400923D01*
X403750Y9146D02*
Y10560D01*
X405163D01*
Y9146D01*
X403750D01*
X410817D02*
X413644D01*
X412230D01*
Y17627D01*
X410817Y16213D01*
X423537Y17627D02*
X417884D01*
Y13386D01*
X420711Y14800D01*
X422124D01*
X423537Y13386D01*
Y10560D01*
X422124Y9146D01*
X419297D01*
X417884Y10560D01*
X399510Y-24786D02*
Y-16306D01*
X395269Y-20546D01*
X400923D01*
X403750Y-24786D02*
Y-23372D01*
X405163D01*
Y-24786D01*
X403750D01*
X416470D02*
X410817D01*
X416470Y-19132D01*
Y-17719D01*
X415057Y-16306D01*
X412230D01*
X410817Y-17719D01*
X424951Y-16306D02*
X419297D01*
Y-20546D01*
X422124Y-19132D01*
X423537D01*
X424951Y-20546D01*
Y-23372D01*
X423537Y-24786D01*
X420711D01*
X419297Y-23372D01*
X399510Y-58718D02*
Y-50238D01*
X395269Y-54478D01*
X400923D01*
X403750Y-58718D02*
Y-57305D01*
X405163D01*
Y-58718D01*
X403750D01*
X410817D02*
X413644D01*
X412230D01*
Y-50238D01*
X410817Y-51651D01*
X423537Y-50238D02*
X417884D01*
Y-54478D01*
X420711Y-53065D01*
X422124D01*
X423537Y-54478D01*
Y-57305D01*
X422124Y-58718D01*
X419297D01*
X417884Y-57305D01*
X395269Y-85583D02*
X396683Y-84170D01*
X399510D01*
X400923Y-85583D01*
Y-86997D01*
X399510Y-88410D01*
X398096D01*
X399510D01*
X400923Y-89824D01*
Y-91237D01*
X399510Y-92650D01*
X396683D01*
X395269Y-91237D01*
X403750Y-92650D02*
Y-91237D01*
X405163D01*
Y-92650D01*
X403750D01*
X416470Y-84170D02*
X410817D01*
Y-88410D01*
X413644Y-86997D01*
X415057D01*
X416470Y-88410D01*
Y-91237D01*
X415057Y-92650D01*
X412230D01*
X410817Y-91237D01*
X400923Y423399D02*
X399510Y424813D01*
X396683D01*
X395269Y423399D01*
Y417746D01*
X396683Y416332D01*
X399510D01*
X400923Y417746D01*
X405163Y416332D02*
X407990D01*
X409403Y417746D01*
Y420573D01*
X407990Y421986D01*
X405163D01*
X403750Y420573D01*
Y417746D01*
X405163Y416332D01*
X412230D02*
Y421986D01*
X416470D01*
X417884Y420573D01*
Y416332D01*
X420711D02*
X424951D01*
X426364Y417746D01*
X424951Y419159D01*
X422124D01*
X420711Y420573D01*
X422124Y421986D01*
X426364D01*
X430604Y423399D02*
Y421986D01*
X429191D01*
X432018D01*
X430604D01*
Y417746D01*
X432018Y416332D01*
X437671Y421986D02*
X440498D01*
X441911Y420573D01*
Y416332D01*
X437671D01*
X436258Y417746D01*
X437671Y419159D01*
X441911D01*
X444738Y416332D02*
Y421986D01*
X448978D01*
X450392Y420573D01*
Y416332D01*
X454632Y423399D02*
Y421986D01*
X453218D01*
X456045D01*
X454632D01*
Y417746D01*
X456045Y416332D01*
X304221Y389467D02*
X305634Y390881D01*
X308461D01*
X309874Y389467D01*
Y383814D01*
X308461Y382400D01*
X305634D01*
X304221Y383814D01*
Y389467D01*
X312701Y382400D02*
Y383814D01*
X314114D01*
Y382400D01*
X312701D01*
X319768Y389467D02*
X321181Y390881D01*
X324008D01*
X325422Y389467D01*
Y383814D01*
X324008Y382400D01*
X321181D01*
X319768Y383814D01*
Y389467D01*
X328248D02*
X329662Y390881D01*
X332488D01*
X333902Y389467D01*
Y383814D01*
X332488Y382400D01*
X329662D01*
X328248Y383814D01*
Y389467D01*
X336729D02*
X338142Y390881D01*
X340969D01*
X342382Y389467D01*
Y388054D01*
X340969Y386640D01*
X342382Y385227D01*
Y383814D01*
X340969Y382400D01*
X338142D01*
X336729Y383814D01*
Y385227D01*
X338142Y386640D01*
X336729Y388054D01*
Y389467D01*
X338142Y386640D02*
X340969D01*
X345209Y382400D02*
Y388054D01*
X346622D01*
X348036Y386640D01*
Y382400D01*
Y386640D01*
X349449Y388054D01*
X350863Y386640D01*
Y382400D01*
X353689D02*
Y388054D01*
X355103D01*
X356516Y386640D01*
Y382400D01*
Y386640D01*
X357929Y388054D01*
X359343Y386640D01*
Y382400D01*
X304221Y372501D02*
X305634Y373915D01*
X308461D01*
X309874Y372501D01*
Y366848D01*
X308461Y365434D01*
X305634D01*
X304221Y366848D01*
Y372501D01*
X312701Y365434D02*
Y366848D01*
X314114D01*
Y365434D01*
X312701D01*
X319768Y372501D02*
X321181Y373915D01*
X324008D01*
X325422Y372501D01*
Y366848D01*
X324008Y365434D01*
X321181D01*
X319768Y366848D01*
Y372501D01*
X332488Y365434D02*
Y373915D01*
X328248Y369674D01*
X333902D01*
X336729Y373915D02*
X342382D01*
Y372501D01*
X336729Y366848D01*
Y365434D01*
X345209D02*
Y371088D01*
X346622D01*
X348036Y369674D01*
Y365434D01*
Y369674D01*
X349449Y371088D01*
X350863Y369674D01*
Y365434D01*
X353689D02*
Y371088D01*
X355103D01*
X356516Y369674D01*
Y365434D01*
Y369674D01*
X357929Y371088D01*
X359343Y369674D01*
Y365434D01*
X304221Y355535D02*
X305634Y356948D01*
X308461D01*
X309874Y355535D01*
Y349882D01*
X308461Y348468D01*
X305634D01*
X304221Y349882D01*
Y355535D01*
X312701Y348468D02*
Y349882D01*
X314114D01*
Y348468D01*
X312701D01*
X319768D02*
X322595D01*
X321181D01*
Y356948D01*
X319768Y355535D01*
X326835Y348468D02*
X329662D01*
X328248D01*
Y356948D01*
X326835Y355535D01*
X333902D02*
X335315Y356948D01*
X338142D01*
X339555Y355535D01*
Y349882D01*
X338142Y348468D01*
X335315D01*
X333902Y349882D01*
Y355535D01*
X342382Y348468D02*
Y354122D01*
X343796D01*
X345209Y352708D01*
Y348468D01*
Y352708D01*
X346622Y354122D01*
X348036Y352708D01*
Y348468D01*
X350863D02*
Y354122D01*
X352276D01*
X353689Y352708D01*
Y348468D01*
Y352708D01*
X355103Y354122D01*
X356516Y352708D01*
Y348468D01*
X304221Y338569D02*
X305634Y339982D01*
X308461D01*
X309874Y338569D01*
Y332915D01*
X308461Y331502D01*
X305634D01*
X304221Y332915D01*
Y338569D01*
X312701Y331502D02*
Y332915D01*
X314114D01*
Y331502D01*
X312701D01*
X319768Y338569D02*
X321181Y339982D01*
X324008D01*
X325422Y338569D01*
Y332915D01*
X324008Y331502D01*
X321181D01*
X319768Y332915D01*
Y338569D01*
X328248Y331502D02*
X331075D01*
X329662D01*
Y339982D01*
X328248Y338569D01*
X335315D02*
X336729Y339982D01*
X339555D01*
X340969Y338569D01*
Y337156D01*
X339555Y335742D01*
X340969Y334329D01*
Y332915D01*
X339555Y331502D01*
X336729D01*
X335315Y332915D01*
Y334329D01*
X336729Y335742D01*
X335315Y337156D01*
Y338569D01*
X336729Y335742D02*
X339555D01*
X343796Y331502D02*
Y337156D01*
X345209D01*
X346622Y335742D01*
Y331502D01*
Y335742D01*
X348036Y337156D01*
X349449Y335742D01*
Y331502D01*
X352276D02*
Y337156D01*
X353689D01*
X355103Y335742D01*
Y331502D01*
Y335742D01*
X356516Y337156D01*
X357929Y335742D01*
Y331502D01*
X304221Y321603D02*
X305634Y323016D01*
X308461D01*
X309874Y321603D01*
Y315949D01*
X308461Y314536D01*
X305634D01*
X304221Y315949D01*
Y321603D01*
X312701Y314536D02*
Y315949D01*
X314114D01*
Y314536D01*
X312701D01*
X319768D02*
X322595D01*
X321181D01*
Y323016D01*
X319768Y321603D01*
X326835D02*
X328248Y323016D01*
X331075D01*
X332488Y321603D01*
Y315949D01*
X331075Y314536D01*
X328248D01*
X326835Y315949D01*
Y321603D01*
X335315D02*
X336729Y323016D01*
X339555D01*
X340969Y321603D01*
Y315949D01*
X339555Y314536D01*
X336729D01*
X335315Y315949D01*
Y321603D01*
X343796Y314536D02*
Y320189D01*
X345209D01*
X346622Y318776D01*
Y314536D01*
Y318776D01*
X348036Y320189D01*
X349449Y318776D01*
Y314536D01*
X352276D02*
Y320189D01*
X353689D01*
X355103Y318776D01*
Y314536D01*
Y318776D01*
X356516Y320189D01*
X357929Y318776D01*
Y314536D01*
X304221Y304637D02*
X305634Y306050D01*
X308461D01*
X309874Y304637D01*
Y298983D01*
X308461Y297570D01*
X305634D01*
X304221Y298983D01*
Y304637D01*
X312701Y297570D02*
Y298983D01*
X314114D01*
Y297570D01*
X312701D01*
X319768Y304637D02*
X321181Y306050D01*
X324008D01*
X325422Y304637D01*
Y298983D01*
X324008Y297570D01*
X321181D01*
X319768Y298983D01*
Y304637D01*
X328248Y297570D02*
X331075D01*
X329662D01*
Y306050D01*
X328248Y304637D01*
X335315D02*
X336729Y306050D01*
X339555D01*
X340969Y304637D01*
Y303223D01*
X339555Y301810D01*
X340969Y300397D01*
Y298983D01*
X339555Y297570D01*
X336729D01*
X335315Y298983D01*
Y300397D01*
X336729Y301810D01*
X335315Y303223D01*
Y304637D01*
X336729Y301810D02*
X339555D01*
X343796Y297570D02*
Y303223D01*
X345209D01*
X346622Y301810D01*
Y297570D01*
Y301810D01*
X348036Y303223D01*
X349449Y301810D01*
Y297570D01*
X352276D02*
Y303223D01*
X353689D01*
X355103Y301810D01*
Y297570D01*
Y301810D01*
X356516Y303223D01*
X357929Y301810D01*
Y297570D01*
X304221Y287671D02*
X305634Y289084D01*
X308461D01*
X309874Y287671D01*
Y282017D01*
X308461Y280604D01*
X305634D01*
X304221Y282017D01*
Y287671D01*
X312701Y280604D02*
Y282017D01*
X314114D01*
Y280604D01*
X312701D01*
X319768D02*
X322595D01*
X321181D01*
Y289084D01*
X319768Y287671D01*
X326835Y280604D02*
X329662D01*
X328248D01*
Y289084D01*
X326835Y287671D01*
X333902D02*
X335315Y289084D01*
X338142D01*
X339555Y287671D01*
Y282017D01*
X338142Y280604D01*
X335315D01*
X333902Y282017D01*
Y287671D01*
X342382Y280604D02*
Y286257D01*
X343796D01*
X345209Y284844D01*
Y280604D01*
Y284844D01*
X346622Y286257D01*
X348036Y284844D01*
Y280604D01*
X350863D02*
Y286257D01*
X352276D01*
X353689Y284844D01*
Y280604D01*
Y284844D01*
X355103Y286257D01*
X356516Y284844D01*
Y280604D01*
X304221Y270705D02*
X305634Y272118D01*
X308461D01*
X309874Y270705D01*
Y265051D01*
X308461Y263638D01*
X305634D01*
X304221Y265051D01*
Y270705D01*
X312701Y263638D02*
Y265051D01*
X314114D01*
Y263638D01*
X312701D01*
X319768Y270705D02*
X321181Y272118D01*
X324008D01*
X325422Y270705D01*
Y265051D01*
X324008Y263638D01*
X321181D01*
X319768Y265051D01*
Y270705D01*
X328248Y263638D02*
X331075D01*
X329662D01*
Y272118D01*
X328248Y270705D01*
X335315D02*
X336729Y272118D01*
X339555D01*
X340969Y270705D01*
Y269291D01*
X339555Y267878D01*
X340969Y266464D01*
Y265051D01*
X339555Y263638D01*
X336729D01*
X335315Y265051D01*
Y266464D01*
X336729Y267878D01*
X335315Y269291D01*
Y270705D01*
X336729Y267878D02*
X339555D01*
X343796Y263638D02*
Y269291D01*
X345209D01*
X346622Y267878D01*
Y263638D01*
Y267878D01*
X348036Y269291D01*
X349449Y267878D01*
Y263638D01*
X352276D02*
Y269291D01*
X353689D01*
X355103Y267878D01*
Y263638D01*
Y267878D01*
X356516Y269291D01*
X357929Y267878D01*
Y263638D01*
X304221Y253738D02*
X305634Y255152D01*
X308461D01*
X309874Y253738D01*
Y248085D01*
X308461Y246672D01*
X305634D01*
X304221Y248085D01*
Y253738D01*
X312701Y246672D02*
Y248085D01*
X314114D01*
Y246672D01*
X312701D01*
X319768D02*
X322595D01*
X321181D01*
Y255152D01*
X319768Y253738D01*
X326835D02*
X328248Y255152D01*
X331075D01*
X332488Y253738D01*
Y248085D01*
X331075Y246672D01*
X328248D01*
X326835Y248085D01*
Y253738D01*
X335315D02*
X336729Y255152D01*
X339555D01*
X340969Y253738D01*
Y248085D01*
X339555Y246672D01*
X336729D01*
X335315Y248085D01*
Y253738D01*
X343796Y246672D02*
Y252325D01*
X345209D01*
X346622Y250912D01*
Y246672D01*
Y250912D01*
X348036Y252325D01*
X349449Y250912D01*
Y246672D01*
X352276D02*
Y252325D01*
X353689D01*
X355103Y250912D01*
Y246672D01*
Y250912D01*
X356516Y252325D01*
X357929Y250912D01*
Y246672D01*
X304221Y236772D02*
X305634Y238186D01*
X308461D01*
X309874Y236772D01*
Y231119D01*
X308461Y229706D01*
X305634D01*
X304221Y231119D01*
Y236772D01*
X312701Y229706D02*
Y231119D01*
X314114D01*
Y229706D01*
X312701D01*
X319768Y236772D02*
X321181Y238186D01*
X324008D01*
X325422Y236772D01*
Y231119D01*
X324008Y229706D01*
X321181D01*
X319768Y231119D01*
Y236772D01*
X328248Y229706D02*
X331075D01*
X329662D01*
Y238186D01*
X328248Y236772D01*
X335315D02*
X336729Y238186D01*
X339555D01*
X340969Y236772D01*
Y235359D01*
X339555Y233946D01*
X340969Y232532D01*
Y231119D01*
X339555Y229706D01*
X336729D01*
X335315Y231119D01*
Y232532D01*
X336729Y233946D01*
X335315Y235359D01*
Y236772D01*
X336729Y233946D02*
X339555D01*
X343796Y229706D02*
Y235359D01*
X345209D01*
X346622Y233946D01*
Y229706D01*
Y233946D01*
X348036Y235359D01*
X349449Y233946D01*
Y229706D01*
X352276D02*
Y235359D01*
X353689D01*
X355103Y233946D01*
Y229706D01*
Y233946D01*
X356516Y235359D01*
X357929Y233946D01*
Y229706D01*
X304221Y219806D02*
X305634Y221220D01*
X308461D01*
X309874Y219806D01*
Y214153D01*
X308461Y212739D01*
X305634D01*
X304221Y214153D01*
Y219806D01*
X312701Y212739D02*
Y214153D01*
X314114D01*
Y212739D01*
X312701D01*
X319768D02*
X322595D01*
X321181D01*
Y221220D01*
X319768Y219806D01*
X326835Y212739D02*
X329662D01*
X328248D01*
Y221220D01*
X326835Y219806D01*
X333902D02*
X335315Y221220D01*
X338142D01*
X339555Y219806D01*
Y214153D01*
X338142Y212739D01*
X335315D01*
X333902Y214153D01*
Y219806D01*
X342382Y212739D02*
Y218393D01*
X343796D01*
X345209Y216980D01*
Y212739D01*
Y216980D01*
X346622Y218393D01*
X348036Y216980D01*
Y212739D01*
X350863D02*
Y218393D01*
X352276D01*
X353689Y216980D01*
Y212739D01*
Y216980D01*
X355103Y218393D01*
X356516Y216980D01*
Y212739D01*
X304221Y202840D02*
X305634Y204254D01*
X308461D01*
X309874Y202840D01*
Y197187D01*
X308461Y195773D01*
X305634D01*
X304221Y197187D01*
Y202840D01*
X312701Y195773D02*
Y197187D01*
X314114D01*
Y195773D01*
X312701D01*
X319768Y202840D02*
X321181Y204254D01*
X324008D01*
X325422Y202840D01*
Y197187D01*
X324008Y195773D01*
X321181D01*
X319768Y197187D01*
Y202840D01*
X328248Y195773D02*
X331075D01*
X329662D01*
Y204254D01*
X328248Y202840D01*
X335315D02*
X336729Y204254D01*
X339555D01*
X340969Y202840D01*
Y201427D01*
X339555Y200013D01*
X340969Y198600D01*
Y197187D01*
X339555Y195773D01*
X336729D01*
X335315Y197187D01*
Y198600D01*
X336729Y200013D01*
X335315Y201427D01*
Y202840D01*
X336729Y200013D02*
X339555D01*
X343796Y195773D02*
Y201427D01*
X345209D01*
X346622Y200013D01*
Y195773D01*
Y200013D01*
X348036Y201427D01*
X349449Y200013D01*
Y195773D01*
X352276D02*
Y201427D01*
X353689D01*
X355103Y200013D01*
Y195773D01*
Y200013D01*
X356516Y201427D01*
X357929Y200013D01*
Y195773D01*
X304221Y185874D02*
X305634Y187287D01*
X308461D01*
X309874Y185874D01*
Y180221D01*
X308461Y178807D01*
X305634D01*
X304221Y180221D01*
Y185874D01*
X312701Y178807D02*
Y180221D01*
X314114D01*
Y178807D01*
X312701D01*
X319768D02*
X322595D01*
X321181D01*
Y187287D01*
X319768Y185874D01*
X326835D02*
X328248Y187287D01*
X331075D01*
X332488Y185874D01*
Y180221D01*
X331075Y178807D01*
X328248D01*
X326835Y180221D01*
Y185874D01*
X335315D02*
X336729Y187287D01*
X339555D01*
X340969Y185874D01*
Y180221D01*
X339555Y178807D01*
X336729D01*
X335315Y180221D01*
Y185874D01*
X343796Y178807D02*
Y184461D01*
X345209D01*
X346622Y183047D01*
Y178807D01*
Y183047D01*
X348036Y184461D01*
X349449Y183047D01*
Y178807D01*
X352276D02*
Y184461D01*
X353689D01*
X355103Y183047D01*
Y178807D01*
Y183047D01*
X356516Y184461D01*
X357929Y183047D01*
Y178807D01*
X304221Y168908D02*
X305634Y170321D01*
X308461D01*
X309874Y168908D01*
Y163254D01*
X308461Y161841D01*
X305634D01*
X304221Y163254D01*
Y168908D01*
X312701Y161841D02*
Y163254D01*
X314114D01*
Y161841D01*
X312701D01*
X319768Y168908D02*
X321181Y170321D01*
X324008D01*
X325422Y168908D01*
Y163254D01*
X324008Y161841D01*
X321181D01*
X319768Y163254D01*
Y168908D01*
X328248Y161841D02*
X331075D01*
X329662D01*
Y170321D01*
X328248Y168908D01*
X335315D02*
X336729Y170321D01*
X339555D01*
X340969Y168908D01*
Y167495D01*
X339555Y166081D01*
X340969Y164668D01*
Y163254D01*
X339555Y161841D01*
X336729D01*
X335315Y163254D01*
Y164668D01*
X336729Y166081D01*
X335315Y167495D01*
Y168908D01*
X336729Y166081D02*
X339555D01*
X343796Y161841D02*
Y167495D01*
X345209D01*
X346622Y166081D01*
Y161841D01*
Y166081D01*
X348036Y167495D01*
X349449Y166081D01*
Y161841D01*
X352276D02*
Y167495D01*
X353689D01*
X355103Y166081D01*
Y161841D01*
Y166081D01*
X356516Y167495D01*
X357929Y166081D01*
Y161841D01*
X304221Y151942D02*
X305634Y153355D01*
X308461D01*
X309874Y151942D01*
Y146288D01*
X308461Y144875D01*
X305634D01*
X304221Y146288D01*
Y151942D01*
X312701Y144875D02*
Y146288D01*
X314114D01*
Y144875D01*
X312701D01*
X319768D02*
X322595D01*
X321181D01*
Y153355D01*
X319768Y151942D01*
X326835Y144875D02*
X329662D01*
X328248D01*
Y153355D01*
X326835Y151942D01*
X333902D02*
X335315Y153355D01*
X338142D01*
X339555Y151942D01*
Y146288D01*
X338142Y144875D01*
X335315D01*
X333902Y146288D01*
Y151942D01*
X342382Y144875D02*
Y150529D01*
X343796D01*
X345209Y149115D01*
Y144875D01*
Y149115D01*
X346622Y150529D01*
X348036Y149115D01*
Y144875D01*
X350863D02*
Y150529D01*
X352276D01*
X353689Y149115D01*
Y144875D01*
Y149115D01*
X355103Y150529D01*
X356516Y149115D01*
Y144875D01*
X304221Y134976D02*
X305634Y136389D01*
X308461D01*
X309874Y134976D01*
Y129322D01*
X308461Y127909D01*
X305634D01*
X304221Y129322D01*
Y134976D01*
X312701Y127909D02*
Y129322D01*
X314114D01*
Y127909D01*
X312701D01*
X319768Y134976D02*
X321181Y136389D01*
X324008D01*
X325422Y134976D01*
Y129322D01*
X324008Y127909D01*
X321181D01*
X319768Y129322D01*
Y134976D01*
X328248Y127909D02*
X331075D01*
X329662D01*
Y136389D01*
X328248Y134976D01*
X335315D02*
X336729Y136389D01*
X339555D01*
X340969Y134976D01*
Y133563D01*
X339555Y132149D01*
X340969Y130736D01*
Y129322D01*
X339555Y127909D01*
X336729D01*
X335315Y129322D01*
Y130736D01*
X336729Y132149D01*
X335315Y133563D01*
Y134976D01*
X336729Y132149D02*
X339555D01*
X343796Y127909D02*
Y133563D01*
X345209D01*
X346622Y132149D01*
Y127909D01*
Y132149D01*
X348036Y133563D01*
X349449Y132149D01*
Y127909D01*
X352276D02*
Y133563D01*
X353689D01*
X355103Y132149D01*
Y127909D01*
Y132149D01*
X356516Y133563D01*
X357929Y132149D01*
Y127909D01*
X304221Y118010D02*
X305634Y119423D01*
X308461D01*
X309874Y118010D01*
Y112356D01*
X308461Y110943D01*
X305634D01*
X304221Y112356D01*
Y118010D01*
X312701Y110943D02*
Y112356D01*
X314114D01*
Y110943D01*
X312701D01*
X319768D02*
X322595D01*
X321181D01*
Y119423D01*
X319768Y118010D01*
X326835D02*
X328248Y119423D01*
X331075D01*
X332488Y118010D01*
Y112356D01*
X331075Y110943D01*
X328248D01*
X326835Y112356D01*
Y118010D01*
X335315D02*
X336729Y119423D01*
X339555D01*
X340969Y118010D01*
Y112356D01*
X339555Y110943D01*
X336729D01*
X335315Y112356D01*
Y118010D01*
X343796Y110943D02*
Y116596D01*
X345209D01*
X346622Y115183D01*
Y110943D01*
Y115183D01*
X348036Y116596D01*
X349449Y115183D01*
Y110943D01*
X352276D02*
Y116596D01*
X353689D01*
X355103Y115183D01*
Y110943D01*
Y115183D01*
X356516Y116596D01*
X357929Y115183D01*
Y110943D01*
X304221Y101044D02*
X305634Y102457D01*
X308461D01*
X309874Y101044D01*
Y95390D01*
X308461Y93977D01*
X305634D01*
X304221Y95390D01*
Y101044D01*
X312701Y93977D02*
Y95390D01*
X314114D01*
Y93977D01*
X312701D01*
X319768Y101044D02*
X321181Y102457D01*
X324008D01*
X325422Y101044D01*
Y95390D01*
X324008Y93977D01*
X321181D01*
X319768Y95390D01*
Y101044D01*
X328248Y93977D02*
X331075D01*
X329662D01*
Y102457D01*
X328248Y101044D01*
X335315D02*
X336729Y102457D01*
X339555D01*
X340969Y101044D01*
Y99630D01*
X339555Y98217D01*
X340969Y96803D01*
Y95390D01*
X339555Y93977D01*
X336729D01*
X335315Y95390D01*
Y96803D01*
X336729Y98217D01*
X335315Y99630D01*
Y101044D01*
X336729Y98217D02*
X339555D01*
X343796Y93977D02*
Y99630D01*
X345209D01*
X346622Y98217D01*
Y93977D01*
Y98217D01*
X348036Y99630D01*
X349449Y98217D01*
Y93977D01*
X352276D02*
Y99630D01*
X353689D01*
X355103Y98217D01*
Y93977D01*
Y98217D01*
X356516Y99630D01*
X357929Y98217D01*
Y93977D01*
X304221Y84078D02*
X305634Y85491D01*
X308461D01*
X309874Y84078D01*
Y78424D01*
X308461Y77011D01*
X305634D01*
X304221Y78424D01*
Y84078D01*
X312701Y77011D02*
Y78424D01*
X314114D01*
Y77011D01*
X312701D01*
X319768D02*
X322595D01*
X321181D01*
Y85491D01*
X319768Y84078D01*
X326835Y77011D02*
X329662D01*
X328248D01*
Y85491D01*
X326835Y84078D01*
X333902D02*
X335315Y85491D01*
X338142D01*
X339555Y84078D01*
Y78424D01*
X338142Y77011D01*
X335315D01*
X333902Y78424D01*
Y84078D01*
X342382Y77011D02*
Y82664D01*
X343796D01*
X345209Y81251D01*
Y77011D01*
Y81251D01*
X346622Y82664D01*
X348036Y81251D01*
Y77011D01*
X350863D02*
Y82664D01*
X352276D01*
X353689Y81251D01*
Y77011D01*
Y81251D01*
X355103Y82664D01*
X356516Y81251D01*
Y77011D01*
X304221Y67111D02*
X305634Y68525D01*
X308461D01*
X309874Y67111D01*
Y61458D01*
X308461Y60045D01*
X305634D01*
X304221Y61458D01*
Y67111D01*
X312701Y60045D02*
Y61458D01*
X314114D01*
Y60045D01*
X312701D01*
X319768Y67111D02*
X321181Y68525D01*
X324008D01*
X325422Y67111D01*
Y61458D01*
X324008Y60045D01*
X321181D01*
X319768Y61458D01*
Y67111D01*
X328248Y60045D02*
X331075D01*
X329662D01*
Y68525D01*
X328248Y67111D01*
X335315D02*
X336729Y68525D01*
X339555D01*
X340969Y67111D01*
Y65698D01*
X339555Y64285D01*
X340969Y62871D01*
Y61458D01*
X339555Y60045D01*
X336729D01*
X335315Y61458D01*
Y62871D01*
X336729Y64285D01*
X335315Y65698D01*
Y67111D01*
X336729Y64285D02*
X339555D01*
X343796Y60045D02*
Y65698D01*
X345209D01*
X346622Y64285D01*
Y60045D01*
Y64285D01*
X348036Y65698D01*
X349449Y64285D01*
Y60045D01*
X352276D02*
Y65698D01*
X353689D01*
X355103Y64285D01*
Y60045D01*
Y64285D01*
X356516Y65698D01*
X357929Y64285D01*
Y60045D01*
X304221Y50145D02*
X305634Y51559D01*
X308461D01*
X309874Y50145D01*
Y44492D01*
X308461Y43079D01*
X305634D01*
X304221Y44492D01*
Y50145D01*
X312701Y43079D02*
Y44492D01*
X314114D01*
Y43079D01*
X312701D01*
X319768D02*
X322595D01*
X321181D01*
Y51559D01*
X319768Y50145D01*
X326835D02*
X328248Y51559D01*
X331075D01*
X332488Y50145D01*
Y44492D01*
X331075Y43079D01*
X328248D01*
X326835Y44492D01*
Y50145D01*
X335315D02*
X336729Y51559D01*
X339555D01*
X340969Y50145D01*
Y44492D01*
X339555Y43079D01*
X336729D01*
X335315Y44492D01*
Y50145D01*
X343796Y43079D02*
Y48732D01*
X345209D01*
X346622Y47319D01*
Y43079D01*
Y47319D01*
X348036Y48732D01*
X349449Y47319D01*
Y43079D01*
X352276D02*
Y48732D01*
X353689D01*
X355103Y47319D01*
Y43079D01*
Y47319D01*
X356516Y48732D01*
X357929Y47319D01*
Y43079D01*
X304221Y33179D02*
X305634Y34593D01*
X308461D01*
X309874Y33179D01*
Y27526D01*
X308461Y26112D01*
X305634D01*
X304221Y27526D01*
Y33179D01*
X312701Y26112D02*
Y27526D01*
X314114D01*
Y26112D01*
X312701D01*
X319768Y33179D02*
X321181Y34593D01*
X324008D01*
X325422Y33179D01*
Y27526D01*
X324008Y26112D01*
X321181D01*
X319768Y27526D01*
Y33179D01*
X328248Y26112D02*
X331075D01*
X329662D01*
Y34593D01*
X328248Y33179D01*
X335315D02*
X336729Y34593D01*
X339555D01*
X340969Y33179D01*
Y31766D01*
X339555Y30353D01*
X340969Y28939D01*
Y27526D01*
X339555Y26112D01*
X336729D01*
X335315Y27526D01*
Y28939D01*
X336729Y30353D01*
X335315Y31766D01*
Y33179D01*
X336729Y30353D02*
X339555D01*
X343796Y26112D02*
Y31766D01*
X345209D01*
X346622Y30353D01*
Y26112D01*
Y30353D01*
X348036Y31766D01*
X349449Y30353D01*
Y26112D01*
X352276D02*
Y31766D01*
X353689D01*
X355103Y30353D01*
Y26112D01*
Y30353D01*
X356516Y31766D01*
X357929Y30353D01*
Y26112D01*
X304221Y16213D02*
X305634Y17627D01*
X308461D01*
X309874Y16213D01*
Y10560D01*
X308461Y9146D01*
X305634D01*
X304221Y10560D01*
Y16213D01*
X312701Y9146D02*
Y10560D01*
X314114D01*
Y9146D01*
X312701D01*
X319768D02*
X322595D01*
X321181D01*
Y17627D01*
X319768Y16213D01*
X326835Y9146D02*
X329662D01*
X328248D01*
Y17627D01*
X326835Y16213D01*
X333902D02*
X335315Y17627D01*
X338142D01*
X339555Y16213D01*
Y10560D01*
X338142Y9146D01*
X335315D01*
X333902Y10560D01*
Y16213D01*
X342382Y9146D02*
Y14800D01*
X343796D01*
X345209Y13386D01*
Y9146D01*
Y13386D01*
X346622Y14800D01*
X348036Y13386D01*
Y9146D01*
X350863D02*
Y14800D01*
X352276D01*
X353689Y13386D01*
Y9146D01*
Y13386D01*
X355103Y14800D01*
X356516Y13386D01*
Y9146D01*
X304221Y-753D02*
X305634Y660D01*
X308461D01*
X309874Y-753D01*
Y-6406D01*
X308461Y-7820D01*
X305634D01*
X304221Y-6406D01*
Y-753D01*
X312701Y-7820D02*
Y-6406D01*
X314114D01*
Y-7820D01*
X312701D01*
X319768Y-753D02*
X321181Y660D01*
X324008D01*
X325422Y-753D01*
Y-6406D01*
X324008Y-7820D01*
X321181D01*
X319768Y-6406D01*
Y-753D01*
X328248Y-7820D02*
X331075D01*
X329662D01*
Y660D01*
X328248Y-753D01*
X335315D02*
X336729Y660D01*
X339555D01*
X340969Y-753D01*
Y-2166D01*
X339555Y-3580D01*
X340969Y-4993D01*
Y-6406D01*
X339555Y-7820D01*
X336729D01*
X335315Y-6406D01*
Y-4993D01*
X336729Y-3580D01*
X335315Y-2166D01*
Y-753D01*
X336729Y-3580D02*
X339555D01*
X343796Y-7820D02*
Y-2166D01*
X345209D01*
X346622Y-3580D01*
Y-7820D01*
Y-3580D01*
X348036Y-2166D01*
X349449Y-3580D01*
Y-7820D01*
X352276D02*
Y-2166D01*
X353689D01*
X355103Y-3580D01*
Y-7820D01*
Y-3580D01*
X356516Y-2166D01*
X357929Y-3580D01*
Y-7820D01*
X304221Y-17719D02*
X305634Y-16306D01*
X308461D01*
X309874Y-17719D01*
Y-23372D01*
X308461Y-24786D01*
X305634D01*
X304221Y-23372D01*
Y-17719D01*
X312701Y-24786D02*
Y-23372D01*
X314114D01*
Y-24786D01*
X312701D01*
X319768D02*
X322595D01*
X321181D01*
Y-16306D01*
X319768Y-17719D01*
X326835D02*
X328248Y-16306D01*
X331075D01*
X332488Y-17719D01*
Y-23372D01*
X331075Y-24786D01*
X328248D01*
X326835Y-23372D01*
Y-17719D01*
X335315D02*
X336729Y-16306D01*
X339555D01*
X340969Y-17719D01*
Y-23372D01*
X339555Y-24786D01*
X336729D01*
X335315Y-23372D01*
Y-17719D01*
X343796Y-24786D02*
Y-19132D01*
X345209D01*
X346622Y-20546D01*
Y-24786D01*
Y-20546D01*
X348036Y-19132D01*
X349449Y-20546D01*
Y-24786D01*
X352276D02*
Y-19132D01*
X353689D01*
X355103Y-20546D01*
Y-24786D01*
Y-20546D01*
X356516Y-19132D01*
X357929Y-20546D01*
Y-24786D01*
X304221Y-34685D02*
X305634Y-33272D01*
X308461D01*
X309874Y-34685D01*
Y-40339D01*
X308461Y-41752D01*
X305634D01*
X304221Y-40339D01*
Y-34685D01*
X312701Y-41752D02*
Y-40339D01*
X314114D01*
Y-41752D01*
X312701D01*
X319768Y-34685D02*
X321181Y-33272D01*
X324008D01*
X325422Y-34685D01*
Y-40339D01*
X324008Y-41752D01*
X321181D01*
X319768Y-40339D01*
Y-34685D01*
X328248Y-41752D02*
X331075D01*
X329662D01*
Y-33272D01*
X328248Y-34685D01*
X335315D02*
X336729Y-33272D01*
X339555D01*
X340969Y-34685D01*
Y-36098D01*
X339555Y-37512D01*
X340969Y-38925D01*
Y-40339D01*
X339555Y-41752D01*
X336729D01*
X335315Y-40339D01*
Y-38925D01*
X336729Y-37512D01*
X335315Y-36098D01*
Y-34685D01*
X336729Y-37512D02*
X339555D01*
X343796Y-41752D02*
Y-36098D01*
X345209D01*
X346622Y-37512D01*
Y-41752D01*
Y-37512D01*
X348036Y-36098D01*
X349449Y-37512D01*
Y-41752D01*
X352276D02*
Y-36098D01*
X353689D01*
X355103Y-37512D01*
Y-41752D01*
Y-37512D01*
X356516Y-36098D01*
X357929Y-37512D01*
Y-41752D01*
X304221Y-51651D02*
X305634Y-50238D01*
X308461D01*
X309874Y-51651D01*
Y-57305D01*
X308461Y-58718D01*
X305634D01*
X304221Y-57305D01*
Y-51651D01*
X312701Y-58718D02*
Y-57305D01*
X314114D01*
Y-58718D01*
X312701D01*
X319768D02*
X322595D01*
X321181D01*
Y-50238D01*
X319768Y-51651D01*
X326835Y-58718D02*
X329662D01*
X328248D01*
Y-50238D01*
X326835Y-51651D01*
X333902D02*
X335315Y-50238D01*
X338142D01*
X339555Y-51651D01*
Y-57305D01*
X338142Y-58718D01*
X335315D01*
X333902Y-57305D01*
Y-51651D01*
X342382Y-58718D02*
Y-53065D01*
X343796D01*
X345209Y-54478D01*
Y-58718D01*
Y-54478D01*
X346622Y-53065D01*
X348036Y-54478D01*
Y-58718D01*
X350863D02*
Y-53065D01*
X352276D01*
X353689Y-54478D01*
Y-58718D01*
Y-54478D01*
X355103Y-53065D01*
X356516Y-54478D01*
Y-58718D01*
X304221Y-68617D02*
X305634Y-67204D01*
X308461D01*
X309874Y-68617D01*
Y-74271D01*
X308461Y-75684D01*
X305634D01*
X304221Y-74271D01*
Y-68617D01*
X312701Y-75684D02*
Y-74271D01*
X314114D01*
Y-75684D01*
X312701D01*
X319768Y-68617D02*
X321181Y-67204D01*
X324008D01*
X325422Y-68617D01*
Y-74271D01*
X324008Y-75684D01*
X321181D01*
X319768Y-74271D01*
Y-68617D01*
X332488Y-75684D02*
Y-67204D01*
X328248Y-71444D01*
X333902D01*
X336729Y-67204D02*
X342382D01*
Y-68617D01*
X336729Y-74271D01*
Y-75684D01*
X345209D02*
Y-70031D01*
X346622D01*
X348036Y-71444D01*
Y-75684D01*
Y-71444D01*
X349449Y-70031D01*
X350863Y-71444D01*
Y-75684D01*
X353689D02*
Y-70031D01*
X355103D01*
X356516Y-71444D01*
Y-75684D01*
Y-71444D01*
X357929Y-70031D01*
X359343Y-71444D01*
Y-75684D01*
X304221Y-85583D02*
X305634Y-84170D01*
X308461D01*
X309874Y-85583D01*
Y-91237D01*
X308461Y-92650D01*
X305634D01*
X304221Y-91237D01*
Y-85583D01*
X312701Y-92650D02*
Y-91237D01*
X314114D01*
Y-92650D01*
X312701D01*
X319768Y-85583D02*
X321181Y-84170D01*
X324008D01*
X325422Y-85583D01*
Y-91237D01*
X324008Y-92650D01*
X321181D01*
X319768Y-91237D01*
Y-85583D01*
X328248D02*
X329662Y-84170D01*
X332488D01*
X333902Y-85583D01*
Y-91237D01*
X332488Y-92650D01*
X329662D01*
X328248Y-91237D01*
Y-85583D01*
X336729D02*
X338142Y-84170D01*
X340969D01*
X342382Y-85583D01*
Y-86997D01*
X340969Y-88410D01*
X342382Y-89824D01*
Y-91237D01*
X340969Y-92650D01*
X338142D01*
X336729Y-91237D01*
Y-89824D01*
X338142Y-88410D01*
X336729Y-86997D01*
Y-85583D01*
X338142Y-88410D02*
X340969D01*
X345209Y-92650D02*
Y-86997D01*
X346622D01*
X348036Y-88410D01*
Y-92650D01*
Y-88410D01*
X349449Y-86997D01*
X350863Y-88410D01*
Y-92650D01*
X353689D02*
Y-86997D01*
X355103D01*
X356516Y-88410D01*
Y-92650D01*
Y-88410D01*
X357929Y-86997D01*
X359343Y-88410D01*
Y-92650D01*
X304221Y424813D02*
X309874D01*
X307048D01*
Y416332D01*
X312701Y424813D02*
Y416332D01*
Y420573D01*
X314114Y421986D01*
X316941D01*
X318355Y420573D01*
Y416332D01*
X321181D02*
X324008D01*
X322595D01*
Y421986D01*
X321181D01*
X333902D02*
X329662D01*
X328248Y420573D01*
Y417746D01*
X329662Y416332D01*
X333902D01*
X336729D02*
Y424813D01*
Y419159D02*
X340969Y421986D01*
X336729Y419159D02*
X340969Y416332D01*
X345209D02*
Y421986D01*
X349449D01*
X350863Y420573D01*
Y416332D01*
X357929D02*
X355103D01*
X353689Y417746D01*
Y420573D01*
X355103Y421986D01*
X357929D01*
X359343Y420573D01*
Y419159D01*
X353689D01*
X362170Y416332D02*
X366410D01*
X367823Y417746D01*
X366410Y419159D01*
X363583D01*
X362170Y420573D01*
X363583Y421986D01*
X367823D01*
X370650Y416332D02*
X374890D01*
X376303Y417746D01*
X374890Y419159D01*
X372063D01*
X370650Y420573D01*
X372063Y421986D01*
X376303D01*
X244267Y406433D02*
X242853Y407847D01*
X240026D01*
X238613Y406433D01*
Y400780D01*
X240026Y399366D01*
X242853D01*
X244267Y400780D01*
Y403607D01*
X241440D01*
X247093Y407847D02*
X252747D01*
X249920D01*
Y399366D01*
X259814Y407847D02*
X256987D01*
X255574Y406433D01*
Y400780D01*
X256987Y399366D01*
X259814D01*
X261227Y400780D01*
Y406433D01*
X259814Y407847D01*
X244267Y389467D02*
X242853Y390881D01*
X240026D01*
X238613Y389467D01*
Y383814D01*
X240026Y382400D01*
X242853D01*
X244267Y383814D01*
Y386640D01*
X241440D01*
X247093Y390881D02*
X252747D01*
X249920D01*
Y382400D01*
X261227Y389467D02*
X259814Y390881D01*
X256987D01*
X255574Y389467D01*
Y388054D01*
X256987Y386640D01*
X259814D01*
X261227Y385227D01*
Y383814D01*
X259814Y382400D01*
X256987D01*
X255574Y383814D01*
X244267Y372501D02*
X242853Y373915D01*
X240026D01*
X238613Y372501D01*
Y366848D01*
X240026Y365434D01*
X242853D01*
X244267Y366848D01*
Y369674D01*
X241440D01*
X247093Y373915D02*
X252747D01*
X249920D01*
Y365434D01*
X255574Y373915D02*
Y365434D01*
X261227D01*
X244267Y338569D02*
X242853Y339982D01*
X240026D01*
X238613Y338569D01*
Y332915D01*
X240026Y331502D01*
X242853D01*
X244267Y332915D01*
Y335742D01*
X241440D01*
X247093Y331502D02*
Y339982D01*
X251333D01*
X252747Y338569D01*
Y335742D01*
X251333Y334329D01*
X247093D01*
X255574Y331502D02*
X258400D01*
X256987D01*
Y339982D01*
X255574Y338569D01*
X244267Y304637D02*
X242853Y306050D01*
X240026D01*
X238613Y304637D01*
Y298983D01*
X240026Y297570D01*
X242853D01*
X244267Y298983D01*
Y301810D01*
X241440D01*
X247093Y297570D02*
X249920D01*
X248507D01*
Y306050D01*
X247093Y304637D01*
X244267Y270705D02*
X242853Y272118D01*
X240026D01*
X238613Y270705D01*
Y265051D01*
X240026Y263638D01*
X242853D01*
X244267Y265051D01*
Y267878D01*
X241440D01*
X247093Y263638D02*
Y272118D01*
X251333D01*
X252747Y270705D01*
Y267878D01*
X251333Y266464D01*
X247093D01*
X261227Y263638D02*
X255574D01*
X261227Y269291D01*
Y270705D01*
X259814Y272118D01*
X256987D01*
X255574Y270705D01*
X244267Y236772D02*
X242853Y238186D01*
X240026D01*
X238613Y236772D01*
Y231119D01*
X240026Y229706D01*
X242853D01*
X244267Y231119D01*
Y233946D01*
X241440D01*
X252747Y229706D02*
X247093D01*
X252747Y235359D01*
Y236772D01*
X251333Y238186D01*
X248507D01*
X247093Y236772D01*
X244267Y202840D02*
X242853Y204254D01*
X240026D01*
X238613Y202840D01*
Y197187D01*
X240026Y195773D01*
X242853D01*
X244267Y197187D01*
Y200013D01*
X241440D01*
X247093Y195773D02*
Y204254D01*
X251333D01*
X252747Y202840D01*
Y200013D01*
X251333Y198600D01*
X247093D01*
X255574Y202840D02*
X256987Y204254D01*
X259814D01*
X261227Y202840D01*
Y201427D01*
X259814Y200013D01*
X258400D01*
X259814D01*
X261227Y198600D01*
Y197187D01*
X259814Y195773D01*
X256987D01*
X255574Y197187D01*
X244267Y168908D02*
X242853Y170321D01*
X240026D01*
X238613Y168908D01*
Y163254D01*
X240026Y161841D01*
X242853D01*
X244267Y163254D01*
Y166081D01*
X241440D01*
X247093Y168908D02*
X248507Y170321D01*
X251333D01*
X252747Y168908D01*
Y167495D01*
X251333Y166081D01*
X249920D01*
X251333D01*
X252747Y164668D01*
Y163254D01*
X251333Y161841D01*
X248507D01*
X247093Y163254D01*
X244267Y134976D02*
X242853Y136389D01*
X240026D01*
X238613Y134976D01*
Y129322D01*
X240026Y127909D01*
X242853D01*
X244267Y129322D01*
Y132149D01*
X241440D01*
X247093Y127909D02*
Y136389D01*
X251333D01*
X252747Y134976D01*
Y132149D01*
X251333Y130736D01*
X247093D01*
X259814Y127909D02*
Y136389D01*
X255574Y132149D01*
X261227D01*
X244267Y101044D02*
X242853Y102457D01*
X240026D01*
X238613Y101044D01*
Y95390D01*
X240026Y93977D01*
X242853D01*
X244267Y95390D01*
Y98217D01*
X241440D01*
X247093Y93977D02*
Y102457D01*
X251333D01*
X252747Y101044D01*
Y98217D01*
X251333Y96803D01*
X247093D01*
X261227Y102457D02*
X255574D01*
Y98217D01*
X258400Y99630D01*
X259814D01*
X261227Y98217D01*
Y95390D01*
X259814Y93977D01*
X256987D01*
X255574Y95390D01*
X244267Y67111D02*
X242853Y68525D01*
X240026D01*
X238613Y67111D01*
Y61458D01*
X240026Y60045D01*
X242853D01*
X244267Y61458D01*
Y64285D01*
X241440D01*
X251333Y60045D02*
Y68525D01*
X247093Y64285D01*
X252747D01*
X244267Y33179D02*
X242853Y34593D01*
X240026D01*
X238613Y33179D01*
Y27526D01*
X240026Y26112D01*
X242853D01*
X244267Y27526D01*
Y30353D01*
X241440D01*
X247093Y26112D02*
Y34593D01*
X251333D01*
X252747Y33179D01*
Y30353D01*
X251333Y28939D01*
X247093D01*
X261227Y34593D02*
X258400Y33179D01*
X255574Y30353D01*
Y27526D01*
X256987Y26112D01*
X259814D01*
X261227Y27526D01*
Y28939D01*
X259814Y30353D01*
X255574D01*
X244267Y-753D02*
X242853Y660D01*
X240026D01*
X238613Y-753D01*
Y-6406D01*
X240026Y-7820D01*
X242853D01*
X244267Y-6406D01*
Y-3580D01*
X241440D01*
X252747Y660D02*
X247093D01*
Y-3580D01*
X249920Y-2166D01*
X251333D01*
X252747Y-3580D01*
Y-6406D01*
X251333Y-7820D01*
X248507D01*
X247093Y-6406D01*
X244267Y-34685D02*
X242853Y-33272D01*
X240026D01*
X238613Y-34685D01*
Y-40339D01*
X240026Y-41752D01*
X242853D01*
X244267Y-40339D01*
Y-37512D01*
X241440D01*
X247093Y-41752D02*
Y-33272D01*
X251333D01*
X252747Y-34685D01*
Y-37512D01*
X251333Y-38925D01*
X247093D01*
X255574Y-33272D02*
X261227D01*
Y-34685D01*
X255574Y-40339D01*
Y-41752D01*
X244267Y-68617D02*
X242853Y-67204D01*
X240026D01*
X238613Y-68617D01*
Y-74271D01*
X240026Y-75684D01*
X242853D01*
X244267Y-74271D01*
Y-71444D01*
X241440D01*
X247093Y-67204D02*
Y-75684D01*
X251333D01*
X252747Y-74271D01*
Y-72857D01*
X251333Y-71444D01*
X247093D01*
X251333D01*
X252747Y-70031D01*
Y-68617D01*
X251333Y-67204D01*
X247093D01*
X255574D02*
Y-75684D01*
X261227D01*
X244267Y-85583D02*
X242853Y-84170D01*
X240026D01*
X238613Y-85583D01*
Y-91237D01*
X240026Y-92650D01*
X242853D01*
X244267Y-91237D01*
Y-88410D01*
X241440D01*
X247093Y-84170D02*
Y-92650D01*
X251333D01*
X252747Y-91237D01*
Y-89824D01*
X251333Y-88410D01*
X247093D01*
X251333D01*
X252747Y-86997D01*
Y-85583D01*
X251333Y-84170D01*
X247093D01*
X261227Y-85583D02*
X259814Y-84170D01*
X256987D01*
X255574Y-85583D01*
Y-86997D01*
X256987Y-88410D01*
X259814D01*
X261227Y-89824D01*
Y-91237D01*
X259814Y-92650D01*
X256987D01*
X255574Y-91237D01*
X244267Y-102549D02*
X242853Y-101136D01*
X240026D01*
X238613Y-102549D01*
Y-108203D01*
X240026Y-109616D01*
X242853D01*
X244267Y-108203D01*
Y-105376D01*
X241440D01*
X247093Y-101136D02*
Y-109616D01*
X251333D01*
X252747Y-108203D01*
Y-106790D01*
X251333Y-105376D01*
X247093D01*
X251333D01*
X252747Y-103963D01*
Y-102549D01*
X251333Y-101136D01*
X247093D01*
X259814D02*
X256987D01*
X255574Y-102549D01*
Y-108203D01*
X256987Y-109616D01*
X259814D01*
X261227Y-108203D01*
Y-102549D01*
X259814Y-101136D01*
X244267Y423399D02*
X242853Y424813D01*
X240026D01*
X238613Y423399D01*
Y417746D01*
X240026Y416332D01*
X242853D01*
X244267Y417746D01*
Y420573D01*
X241440D01*
X251333Y416332D02*
X248507D01*
X247093Y417746D01*
Y420573D01*
X248507Y421986D01*
X251333D01*
X252747Y420573D01*
Y419159D01*
X247093D01*
X255574Y421986D02*
Y416332D01*
Y419159D01*
X256987Y420573D01*
X258400Y421986D01*
X259814D01*
X264054Y424813D02*
Y416332D01*
X268294D01*
X269707Y417746D01*
Y419159D01*
Y420573D01*
X268294Y421986D01*
X264054D01*
X276774Y416332D02*
X273948D01*
X272534Y417746D01*
Y420573D01*
X273948Y421986D01*
X276774D01*
X278188Y420573D01*
Y419159D01*
X272534D01*
X281015Y421986D02*
Y416332D01*
Y419159D01*
X282428Y420573D01*
X283841Y421986D01*
X285255D01*
X107990Y407847D02*
X113643D01*
X110816D01*
Y399366D01*
X117883D02*
X120710D01*
X122123Y400780D01*
Y403607D01*
X120710Y405020D01*
X117883D01*
X116470Y403607D01*
Y400780D01*
X117883Y399366D01*
X124950Y396540D02*
Y405020D01*
X129190D01*
X130604Y403607D01*
Y400780D01*
X129190Y399366D01*
X124950D01*
X146151Y407847D02*
X143324D01*
X141911Y406433D01*
Y400780D01*
X143324Y399366D01*
X146151D01*
X147564Y400780D01*
Y406433D01*
X146151Y407847D01*
X150391Y405020D02*
X153218Y399366D01*
X156045Y405020D01*
X163111Y399366D02*
X160285D01*
X158871Y400780D01*
Y403607D01*
X160285Y405020D01*
X163111D01*
X164525Y403607D01*
Y402193D01*
X158871D01*
X167352Y405020D02*
Y399366D01*
Y402193D01*
X168765Y403607D01*
X170178Y405020D01*
X171592D01*
X175832Y399366D02*
X178659D01*
X177245D01*
Y407847D01*
X175832D01*
X184312Y405020D02*
X187139D01*
X188552Y403607D01*
Y399366D01*
X184312D01*
X182899Y400780D01*
X184312Y402193D01*
X188552D01*
X191379Y405020D02*
Y400780D01*
X192793Y399366D01*
X197033D01*
Y397953D01*
X195619Y396540D01*
X194206D01*
X197033Y399366D02*
Y405020D01*
X107990Y390881D02*
X113643D01*
X110816D01*
Y382400D01*
X117883D02*
X120710D01*
X122123Y383814D01*
Y386640D01*
X120710Y388054D01*
X117883D01*
X116470Y386640D01*
Y383814D01*
X117883Y382400D01*
X124950Y379573D02*
Y388054D01*
X129190D01*
X130604Y386640D01*
Y383814D01*
X129190Y382400D01*
X124950D01*
X147564Y389467D02*
X146151Y390881D01*
X143324D01*
X141911Y389467D01*
Y388054D01*
X143324Y386640D01*
X146151D01*
X147564Y385227D01*
Y383814D01*
X146151Y382400D01*
X143324D01*
X141911Y383814D01*
X151804Y382400D02*
X154631D01*
X156045Y383814D01*
Y386640D01*
X154631Y388054D01*
X151804D01*
X150391Y386640D01*
Y383814D01*
X151804Y382400D01*
X158871D02*
X161698D01*
X160285D01*
Y390881D01*
X158871D01*
X171592D02*
Y382400D01*
X167352D01*
X165938Y383814D01*
Y386640D01*
X167352Y388054D01*
X171592D01*
X178659Y382400D02*
X175832D01*
X174419Y383814D01*
Y386640D01*
X175832Y388054D01*
X178659D01*
X180072Y386640D01*
Y385227D01*
X174419D01*
X182899Y388054D02*
Y382400D01*
Y385227D01*
X184312Y386640D01*
X185726Y388054D01*
X187139D01*
X107990Y373915D02*
X113643D01*
X110816D01*
Y365434D01*
X120710Y373915D02*
X117883D01*
X116470Y372501D01*
Y366848D01*
X117883Y365434D01*
X120710D01*
X122123Y366848D01*
Y372501D01*
X120710Y373915D01*
X124950Y365434D02*
Y373915D01*
X129190D01*
X130604Y372501D01*
Y369674D01*
X129190Y368261D01*
X124950D01*
X107990Y356948D02*
Y348468D01*
X112230D01*
X113643Y349882D01*
Y355535D01*
X112230Y356948D01*
X107990D01*
X116470Y348468D02*
X119297D01*
X117883D01*
Y354122D01*
X116470D01*
X127777Y348468D02*
X124950D01*
X123537Y349882D01*
Y352708D01*
X124950Y354122D01*
X127777D01*
X129190Y352708D01*
Y351295D01*
X123537D01*
X132017Y348468D02*
X134844D01*
X133430D01*
Y356948D01*
X132017D01*
X143324Y348468D02*
X140497D01*
X139084Y349882D01*
Y352708D01*
X140497Y354122D01*
X143324D01*
X144738Y352708D01*
Y351295D01*
X139084D01*
X153218Y354122D02*
X148978D01*
X147564Y352708D01*
Y349882D01*
X148978Y348468D01*
X153218D01*
X157458Y355535D02*
Y354122D01*
X156045D01*
X158871D01*
X157458D01*
Y349882D01*
X158871Y348468D01*
X163111Y354122D02*
Y348468D01*
Y351295D01*
X164525Y352708D01*
X165938Y354122D01*
X167352D01*
X171592Y348468D02*
X174419D01*
X173005D01*
Y354122D01*
X171592D01*
X184312D02*
X180072D01*
X178659Y352708D01*
Y349882D01*
X180072Y348468D01*
X184312D01*
X187139D02*
X189966D01*
X188552D01*
Y356948D01*
X187139Y355535D01*
X113643Y338569D02*
X112230Y339982D01*
X109403D01*
X107990Y338569D01*
Y332915D01*
X109403Y331502D01*
X112230D01*
X113643Y332915D01*
Y335742D01*
X110816D01*
X116470Y331502D02*
X119297D01*
X117883D01*
Y339982D01*
X116470Y338569D01*
X107990Y323016D02*
Y314536D01*
X112230D01*
X113643Y315949D01*
Y321603D01*
X112230Y323016D01*
X107990D01*
X116470Y314536D02*
X119297D01*
X117883D01*
Y320189D01*
X116470D01*
X127777Y314536D02*
X124950D01*
X123537Y315949D01*
Y318776D01*
X124950Y320189D01*
X127777D01*
X129190Y318776D01*
Y317363D01*
X123537D01*
X132017Y314536D02*
X134844D01*
X133430D01*
Y323016D01*
X132017D01*
X143324Y314536D02*
X140497D01*
X139084Y315949D01*
Y318776D01*
X140497Y320189D01*
X143324D01*
X144738Y318776D01*
Y317363D01*
X139084D01*
X153218Y320189D02*
X148978D01*
X147564Y318776D01*
Y315949D01*
X148978Y314536D01*
X153218D01*
X157458Y321603D02*
Y320189D01*
X156045D01*
X158871D01*
X157458D01*
Y315949D01*
X158871Y314536D01*
X163111Y320189D02*
Y314536D01*
Y317363D01*
X164525Y318776D01*
X165938Y320189D01*
X167352D01*
X171592Y314536D02*
X174419D01*
X173005D01*
Y320189D01*
X171592D01*
X184312D02*
X180072D01*
X178659Y318776D01*
Y315949D01*
X180072Y314536D01*
X184312D01*
X187139Y323016D02*
X192793D01*
Y321603D01*
X187139Y315949D01*
Y314536D01*
X107990Y306050D02*
Y297570D01*
X113643D01*
X116470D02*
X119297D01*
X117883D01*
Y306050D01*
X116470Y304637D01*
X107990Y289084D02*
Y280604D01*
X112230D01*
X113643Y282017D01*
Y287671D01*
X112230Y289084D01*
X107990D01*
X116470Y280604D02*
X119297D01*
X117883D01*
Y286257D01*
X116470D01*
X127777Y280604D02*
X124950D01*
X123537Y282017D01*
Y284844D01*
X124950Y286257D01*
X127777D01*
X129190Y284844D01*
Y283431D01*
X123537D01*
X132017Y280604D02*
X134844D01*
X133430D01*
Y289084D01*
X132017D01*
X143324Y280604D02*
X140497D01*
X139084Y282017D01*
Y284844D01*
X140497Y286257D01*
X143324D01*
X144738Y284844D01*
Y283431D01*
X139084D01*
X153218Y286257D02*
X148978D01*
X147564Y284844D01*
Y282017D01*
X148978Y280604D01*
X153218D01*
X157458Y287671D02*
Y286257D01*
X156045D01*
X158871D01*
X157458D01*
Y282017D01*
X158871Y280604D01*
X163111Y286257D02*
Y280604D01*
Y283431D01*
X164525Y284844D01*
X165938Y286257D01*
X167352D01*
X171592Y280604D02*
X174419D01*
X173005D01*
Y286257D01*
X171592D01*
X184312D02*
X180072D01*
X178659Y284844D01*
Y282017D01*
X180072Y280604D01*
X184312D01*
X192793D02*
X187139D01*
X192793Y286257D01*
Y287671D01*
X191379Y289084D01*
X188552D01*
X187139Y287671D01*
X107990Y263638D02*
Y272118D01*
X112230D01*
X113643Y270705D01*
Y267878D01*
X112230Y266464D01*
X107990D01*
X116470Y270705D02*
X117883Y272118D01*
X120710D01*
X122123Y270705D01*
Y269291D01*
X120710Y267878D01*
X119297D01*
X120710D01*
X122123Y266464D01*
Y265051D01*
X120710Y263638D01*
X117883D01*
X116470Y265051D01*
X107990Y255152D02*
Y246672D01*
X112230D01*
X113643Y248085D01*
Y253738D01*
X112230Y255152D01*
X107990D01*
X116470Y246672D02*
X119297D01*
X117883D01*
Y252325D01*
X116470D01*
X127777Y246672D02*
X124950D01*
X123537Y248085D01*
Y250912D01*
X124950Y252325D01*
X127777D01*
X129190Y250912D01*
Y249498D01*
X123537D01*
X132017Y246672D02*
X134844D01*
X133430D01*
Y255152D01*
X132017D01*
X143324Y246672D02*
X140497D01*
X139084Y248085D01*
Y250912D01*
X140497Y252325D01*
X143324D01*
X144738Y250912D01*
Y249498D01*
X139084D01*
X153218Y252325D02*
X148978D01*
X147564Y250912D01*
Y248085D01*
X148978Y246672D01*
X153218D01*
X157458Y253738D02*
Y252325D01*
X156045D01*
X158871D01*
X157458D01*
Y248085D01*
X158871Y246672D01*
X163111Y252325D02*
Y246672D01*
Y249498D01*
X164525Y250912D01*
X165938Y252325D01*
X167352D01*
X171592Y246672D02*
X174419D01*
X173005D01*
Y252325D01*
X171592D01*
X184312D02*
X180072D01*
X178659Y250912D01*
Y248085D01*
X180072Y246672D01*
X184312D01*
X187139Y248085D02*
X188552Y246672D01*
X191379D01*
X192793Y248085D01*
Y253738D01*
X191379Y255152D01*
X188552D01*
X187139Y253738D01*
Y252325D01*
X188552Y250912D01*
X192793D01*
X107990Y238186D02*
Y229706D01*
X113643D01*
X122123D02*
X116470D01*
X122123Y235359D01*
Y236772D01*
X120710Y238186D01*
X117883D01*
X116470Y236772D01*
X107990Y221220D02*
Y212739D01*
X112230D01*
X113643Y214153D01*
Y219806D01*
X112230Y221220D01*
X107990D01*
X116470Y212739D02*
X119297D01*
X117883D01*
Y218393D01*
X116470D01*
X127777Y212739D02*
X124950D01*
X123537Y214153D01*
Y216980D01*
X124950Y218393D01*
X127777D01*
X129190Y216980D01*
Y215566D01*
X123537D01*
X132017Y212739D02*
X134844D01*
X133430D01*
Y221220D01*
X132017D01*
X143324Y212739D02*
X140497D01*
X139084Y214153D01*
Y216980D01*
X140497Y218393D01*
X143324D01*
X144738Y216980D01*
Y215566D01*
X139084D01*
X153218Y218393D02*
X148978D01*
X147564Y216980D01*
Y214153D01*
X148978Y212739D01*
X153218D01*
X157458Y219806D02*
Y218393D01*
X156045D01*
X158871D01*
X157458D01*
Y214153D01*
X158871Y212739D01*
X163111Y218393D02*
Y212739D01*
Y215566D01*
X164525Y216980D01*
X165938Y218393D01*
X167352D01*
X171592Y212739D02*
X174419D01*
X173005D01*
Y218393D01*
X171592D01*
X184312D02*
X180072D01*
X178659Y216980D01*
Y214153D01*
X180072Y212739D01*
X184312D01*
X187139Y219806D02*
X188552Y221220D01*
X191379D01*
X192793Y219806D01*
Y218393D01*
X191379Y216980D01*
X189966D01*
X191379D01*
X192793Y215566D01*
Y214153D01*
X191379Y212739D01*
X188552D01*
X187139Y214153D01*
X113643Y202840D02*
X112230Y204254D01*
X109403D01*
X107990Y202840D01*
Y197187D01*
X109403Y195773D01*
X112230D01*
X113643Y197187D01*
Y200013D01*
X110816D01*
X122123Y195773D02*
X116470D01*
X122123Y201427D01*
Y202840D01*
X120710Y204254D01*
X117883D01*
X116470Y202840D01*
X107990Y187287D02*
Y178807D01*
X112230D01*
X113643Y180221D01*
Y185874D01*
X112230Y187287D01*
X107990D01*
X116470Y178807D02*
X119297D01*
X117883D01*
Y184461D01*
X116470D01*
X127777Y178807D02*
X124950D01*
X123537Y180221D01*
Y183047D01*
X124950Y184461D01*
X127777D01*
X129190Y183047D01*
Y181634D01*
X123537D01*
X132017Y178807D02*
X134844D01*
X133430D01*
Y187287D01*
X132017D01*
X143324Y178807D02*
X140497D01*
X139084Y180221D01*
Y183047D01*
X140497Y184461D01*
X143324D01*
X144738Y183047D01*
Y181634D01*
X139084D01*
X153218Y184461D02*
X148978D01*
X147564Y183047D01*
Y180221D01*
X148978Y178807D01*
X153218D01*
X157458Y185874D02*
Y184461D01*
X156045D01*
X158871D01*
X157458D01*
Y180221D01*
X158871Y178807D01*
X163111Y184461D02*
Y178807D01*
Y181634D01*
X164525Y183047D01*
X165938Y184461D01*
X167352D01*
X171592Y178807D02*
X174419D01*
X173005D01*
Y184461D01*
X171592D01*
X184312D02*
X180072D01*
X178659Y183047D01*
Y180221D01*
X180072Y178807D01*
X184312D01*
X187139Y185874D02*
X188552Y187287D01*
X191379D01*
X192793Y185874D01*
Y184461D01*
X191379Y183047D01*
X192793Y181634D01*
Y180221D01*
X191379Y178807D01*
X188552D01*
X187139Y180221D01*
Y181634D01*
X188552Y183047D01*
X187139Y184461D01*
Y185874D01*
X188552Y183047D02*
X191379D01*
X107990Y170321D02*
Y161841D01*
X113643D01*
X116470Y168908D02*
X117883Y170321D01*
X120710D01*
X122123Y168908D01*
Y167495D01*
X120710Y166081D01*
X119297D01*
X120710D01*
X122123Y164668D01*
Y163254D01*
X120710Y161841D01*
X117883D01*
X116470Y163254D01*
X107990Y153355D02*
Y144875D01*
X112230D01*
X113643Y146288D01*
Y151942D01*
X112230Y153355D01*
X107990D01*
X116470Y144875D02*
X119297D01*
X117883D01*
Y150529D01*
X116470D01*
X127777Y144875D02*
X124950D01*
X123537Y146288D01*
Y149115D01*
X124950Y150529D01*
X127777D01*
X129190Y149115D01*
Y147702D01*
X123537D01*
X132017Y144875D02*
X134844D01*
X133430D01*
Y153355D01*
X132017D01*
X143324Y144875D02*
X140497D01*
X139084Y146288D01*
Y149115D01*
X140497Y150529D01*
X143324D01*
X144738Y149115D01*
Y147702D01*
X139084D01*
X153218Y150529D02*
X148978D01*
X147564Y149115D01*
Y146288D01*
X148978Y144875D01*
X153218D01*
X157458Y151942D02*
Y150529D01*
X156045D01*
X158871D01*
X157458D01*
Y146288D01*
X158871Y144875D01*
X163111Y150529D02*
Y144875D01*
Y147702D01*
X164525Y149115D01*
X165938Y150529D01*
X167352D01*
X171592Y144875D02*
X174419D01*
X173005D01*
Y150529D01*
X171592D01*
X184312D02*
X180072D01*
X178659Y149115D01*
Y146288D01*
X180072Y144875D01*
X184312D01*
X195619D02*
X198446D01*
X197033D01*
Y153355D01*
X195619Y151942D01*
X107990Y127909D02*
Y136389D01*
X112230D01*
X113643Y134976D01*
Y132149D01*
X112230Y130736D01*
X107990D01*
X120710Y127909D02*
Y136389D01*
X116470Y132149D01*
X122123D01*
X107990Y119423D02*
Y110943D01*
X112230D01*
X113643Y112356D01*
Y118010D01*
X112230Y119423D01*
X107990D01*
X116470Y110943D02*
X119297D01*
X117883D01*
Y116596D01*
X116470D01*
X127777Y110943D02*
X124950D01*
X123537Y112356D01*
Y115183D01*
X124950Y116596D01*
X127777D01*
X129190Y115183D01*
Y113770D01*
X123537D01*
X132017Y110943D02*
X134844D01*
X133430D01*
Y119423D01*
X132017D01*
X143324Y110943D02*
X140497D01*
X139084Y112356D01*
Y115183D01*
X140497Y116596D01*
X143324D01*
X144738Y115183D01*
Y113770D01*
X139084D01*
X153218Y116596D02*
X148978D01*
X147564Y115183D01*
Y112356D01*
X148978Y110943D01*
X153218D01*
X157458Y118010D02*
Y116596D01*
X156045D01*
X158871D01*
X157458D01*
Y112356D01*
X158871Y110943D01*
X163111Y116596D02*
Y110943D01*
Y113770D01*
X164525Y115183D01*
X165938Y116596D01*
X167352D01*
X171592Y110943D02*
X174419D01*
X173005D01*
Y116596D01*
X171592D01*
X184312D02*
X180072D01*
X178659Y115183D01*
Y112356D01*
X180072Y110943D01*
X184312D01*
X187139D02*
X189966D01*
X188552D01*
Y119423D01*
X187139Y118010D01*
X194206D02*
X195619Y119423D01*
X198446D01*
X199859Y118010D01*
Y112356D01*
X198446Y110943D01*
X195619D01*
X194206Y112356D01*
Y118010D01*
X113643Y101044D02*
X112230Y102457D01*
X109403D01*
X107990Y101044D01*
Y95390D01*
X109403Y93977D01*
X112230D01*
X113643Y95390D01*
Y98217D01*
X110816D01*
X116470Y93977D02*
Y102457D01*
X122123Y93977D01*
Y102457D01*
X124950D02*
Y93977D01*
X129190D01*
X130604Y95390D01*
Y101044D01*
X129190Y102457D01*
X124950D01*
X107990Y85491D02*
Y77011D01*
X112230D01*
X113643Y78424D01*
Y84078D01*
X112230Y85491D01*
X107990D01*
X116470Y77011D02*
X119297D01*
X117883D01*
Y82664D01*
X116470D01*
X127777Y77011D02*
X124950D01*
X123537Y78424D01*
Y81251D01*
X124950Y82664D01*
X127777D01*
X129190Y81251D01*
Y79837D01*
X123537D01*
X132017Y77011D02*
X134844D01*
X133430D01*
Y85491D01*
X132017D01*
X143324Y77011D02*
X140497D01*
X139084Y78424D01*
Y81251D01*
X140497Y82664D01*
X143324D01*
X144738Y81251D01*
Y79837D01*
X139084D01*
X153218Y82664D02*
X148978D01*
X147564Y81251D01*
Y78424D01*
X148978Y77011D01*
X153218D01*
X157458Y84078D02*
Y82664D01*
X156045D01*
X158871D01*
X157458D01*
Y78424D01*
X158871Y77011D01*
X163111Y82664D02*
Y77011D01*
Y79837D01*
X164525Y81251D01*
X165938Y82664D01*
X167352D01*
X171592Y77011D02*
X174419D01*
X173005D01*
Y82664D01*
X171592D01*
X184312D02*
X180072D01*
X178659Y81251D01*
Y78424D01*
X180072Y77011D01*
X184312D01*
X187139D02*
X189966D01*
X188552D01*
Y85491D01*
X187139Y84078D01*
X194206D02*
X195619Y85491D01*
X198446D01*
X199859Y84078D01*
Y82664D01*
X198446Y81251D01*
X197033D01*
X198446D01*
X199859Y79837D01*
Y78424D01*
X198446Y77011D01*
X195619D01*
X194206Y78424D01*
X107990Y68525D02*
Y60045D01*
X113643D01*
X122123Y68525D02*
X116470D01*
Y64285D01*
X119297Y65698D01*
X120710D01*
X122123Y64285D01*
Y61458D01*
X120710Y60045D01*
X117883D01*
X116470Y61458D01*
X107990Y51559D02*
Y43079D01*
X112230D01*
X113643Y44492D01*
Y50145D01*
X112230Y51559D01*
X107990D01*
X116470Y43079D02*
X119297D01*
X117883D01*
Y48732D01*
X116470D01*
X127777Y43079D02*
X124950D01*
X123537Y44492D01*
Y47319D01*
X124950Y48732D01*
X127777D01*
X129190Y47319D01*
Y45905D01*
X123537D01*
X132017Y43079D02*
X134844D01*
X133430D01*
Y51559D01*
X132017D01*
X143324Y43079D02*
X140497D01*
X139084Y44492D01*
Y47319D01*
X140497Y48732D01*
X143324D01*
X144738Y47319D01*
Y45905D01*
X139084D01*
X153218Y48732D02*
X148978D01*
X147564Y47319D01*
Y44492D01*
X148978Y43079D01*
X153218D01*
X157458Y50145D02*
Y48732D01*
X156045D01*
X158871D01*
X157458D01*
Y44492D01*
X158871Y43079D01*
X163111Y48732D02*
Y43079D01*
Y45905D01*
X164525Y47319D01*
X165938Y48732D01*
X167352D01*
X171592Y43079D02*
X174419D01*
X173005D01*
Y48732D01*
X171592D01*
X184312D02*
X180072D01*
X178659Y47319D01*
Y44492D01*
X180072Y43079D01*
X184312D01*
X191379D02*
Y51559D01*
X187139Y47319D01*
X192793D01*
X107990Y26112D02*
Y34593D01*
X112230D01*
X113643Y33179D01*
Y30353D01*
X112230Y28939D01*
X107990D01*
X122123Y34593D02*
X119297Y33179D01*
X116470Y30353D01*
Y27526D01*
X117883Y26112D01*
X120710D01*
X122123Y27526D01*
Y28939D01*
X120710Y30353D01*
X116470D01*
X107990Y17627D02*
Y9146D01*
X112230D01*
X113643Y10560D01*
Y16213D01*
X112230Y17627D01*
X107990D01*
X116470Y9146D02*
X119297D01*
X117883D01*
Y14800D01*
X116470D01*
X127777Y9146D02*
X124950D01*
X123537Y10560D01*
Y13386D01*
X124950Y14800D01*
X127777D01*
X129190Y13386D01*
Y11973D01*
X123537D01*
X132017Y9146D02*
X134844D01*
X133430D01*
Y17627D01*
X132017D01*
X143324Y9146D02*
X140497D01*
X139084Y10560D01*
Y13386D01*
X140497Y14800D01*
X143324D01*
X144738Y13386D01*
Y11973D01*
X139084D01*
X153218Y14800D02*
X148978D01*
X147564Y13386D01*
Y10560D01*
X148978Y9146D01*
X153218D01*
X157458Y16213D02*
Y14800D01*
X156045D01*
X158871D01*
X157458D01*
Y10560D01*
X158871Y9146D01*
X163111Y14800D02*
Y9146D01*
Y11973D01*
X164525Y13386D01*
X165938Y14800D01*
X167352D01*
X171592Y9146D02*
X174419D01*
X173005D01*
Y14800D01*
X171592D01*
X184312D02*
X180072D01*
X178659Y13386D01*
Y10560D01*
X180072Y9146D01*
X184312D01*
X187139D02*
X189966D01*
X188552D01*
Y17627D01*
X187139Y16213D01*
X194206Y9146D02*
X197033D01*
X195619D01*
Y17627D01*
X194206Y16213D01*
X107990Y660D02*
Y-7820D01*
X113643D01*
X122123Y660D02*
X119297Y-753D01*
X116470Y-3580D01*
Y-6406D01*
X117883Y-7820D01*
X120710D01*
X122123Y-6406D01*
Y-4993D01*
X120710Y-3580D01*
X116470D01*
X107990Y-16306D02*
Y-24786D01*
X112230D01*
X113643Y-23372D01*
Y-17719D01*
X112230Y-16306D01*
X107990D01*
X116470Y-24786D02*
X119297D01*
X117883D01*
Y-19132D01*
X116470D01*
X127777Y-24786D02*
X124950D01*
X123537Y-23372D01*
Y-20546D01*
X124950Y-19132D01*
X127777D01*
X129190Y-20546D01*
Y-21959D01*
X123537D01*
X132017Y-24786D02*
X134844D01*
X133430D01*
Y-16306D01*
X132017D01*
X143324Y-24786D02*
X140497D01*
X139084Y-23372D01*
Y-20546D01*
X140497Y-19132D01*
X143324D01*
X144738Y-20546D01*
Y-21959D01*
X139084D01*
X153218Y-19132D02*
X148978D01*
X147564Y-20546D01*
Y-23372D01*
X148978Y-24786D01*
X153218D01*
X157458Y-17719D02*
Y-19132D01*
X156045D01*
X158871D01*
X157458D01*
Y-23372D01*
X158871Y-24786D01*
X163111Y-19132D02*
Y-24786D01*
Y-21959D01*
X164525Y-20546D01*
X165938Y-19132D01*
X167352D01*
X171592Y-24786D02*
X174419D01*
X173005D01*
Y-19132D01*
X171592D01*
X184312D02*
X180072D01*
X178659Y-20546D01*
Y-23372D01*
X180072Y-24786D01*
X184312D01*
X192793Y-16306D02*
X187139D01*
Y-20546D01*
X189966Y-19132D01*
X191379D01*
X192793Y-20546D01*
Y-23372D01*
X191379Y-24786D01*
X188552D01*
X187139Y-23372D01*
X113643Y-34685D02*
X112230Y-33272D01*
X109403D01*
X107990Y-34685D01*
Y-40339D01*
X109403Y-41752D01*
X112230D01*
X113643Y-40339D01*
Y-37512D01*
X110816D01*
X116470Y-34685D02*
X117883Y-33272D01*
X120710D01*
X122123Y-34685D01*
Y-36098D01*
X120710Y-37512D01*
X119297D01*
X120710D01*
X122123Y-38925D01*
Y-40339D01*
X120710Y-41752D01*
X117883D01*
X116470Y-40339D01*
X107990Y-50238D02*
Y-58718D01*
X112230D01*
X113643Y-57305D01*
Y-51651D01*
X112230Y-50238D01*
X107990D01*
X116470Y-58718D02*
X119297D01*
X117883D01*
Y-53065D01*
X116470D01*
X127777Y-58718D02*
X124950D01*
X123537Y-57305D01*
Y-54478D01*
X124950Y-53065D01*
X127777D01*
X129190Y-54478D01*
Y-55891D01*
X123537D01*
X132017Y-58718D02*
X134844D01*
X133430D01*
Y-50238D01*
X132017D01*
X143324Y-58718D02*
X140497D01*
X139084Y-57305D01*
Y-54478D01*
X140497Y-53065D01*
X143324D01*
X144738Y-54478D01*
Y-55891D01*
X139084D01*
X153218Y-53065D02*
X148978D01*
X147564Y-54478D01*
Y-57305D01*
X148978Y-58718D01*
X153218D01*
X157458Y-51651D02*
Y-53065D01*
X156045D01*
X158871D01*
X157458D01*
Y-57305D01*
X158871Y-58718D01*
X163111Y-53065D02*
Y-58718D01*
Y-55891D01*
X164525Y-54478D01*
X165938Y-53065D01*
X167352D01*
X171592Y-58718D02*
X174419D01*
X173005D01*
Y-53065D01*
X171592D01*
X184312D02*
X180072D01*
X178659Y-54478D01*
Y-57305D01*
X180072Y-58718D01*
X184312D01*
X187139D02*
X189966D01*
X188552D01*
Y-50238D01*
X187139Y-51651D01*
X199859Y-58718D02*
X194206D01*
X199859Y-53065D01*
Y-51651D01*
X198446Y-50238D01*
X195619D01*
X194206Y-51651D01*
X107990Y-67204D02*
Y-75684D01*
X112230D01*
X113643Y-74271D01*
Y-72857D01*
X112230Y-71444D01*
X107990D01*
X112230D01*
X113643Y-70031D01*
Y-68617D01*
X112230Y-67204D01*
X107990D01*
X116470D02*
X122123D01*
X119297D01*
Y-75684D01*
X124950D02*
Y-67204D01*
X127777Y-70031D01*
X130604Y-67204D01*
Y-75684D01*
X107990Y-84170D02*
Y-92650D01*
X112230D01*
X113643Y-91237D01*
Y-89824D01*
X112230Y-88410D01*
X107990D01*
X112230D01*
X113643Y-86997D01*
Y-85583D01*
X112230Y-84170D01*
X107990D01*
X117883Y-92650D02*
X120710D01*
X122123Y-91237D01*
Y-88410D01*
X120710Y-86997D01*
X117883D01*
X116470Y-88410D01*
Y-91237D01*
X117883Y-92650D01*
X126364Y-85583D02*
Y-86997D01*
X124950D01*
X127777D01*
X126364D01*
Y-91237D01*
X127777Y-92650D01*
X133430Y-85583D02*
Y-86997D01*
X132017D01*
X134844D01*
X133430D01*
Y-91237D01*
X134844Y-92650D01*
X140497D02*
X143324D01*
X144738Y-91237D01*
Y-88410D01*
X143324Y-86997D01*
X140497D01*
X139084Y-88410D01*
Y-91237D01*
X140497Y-92650D01*
X147564D02*
Y-86997D01*
X148978D01*
X150391Y-88410D01*
Y-92650D01*
Y-88410D01*
X151804Y-86997D01*
X153218Y-88410D01*
Y-92650D01*
X170178Y-85583D02*
X168765Y-84170D01*
X165938D01*
X164525Y-85583D01*
Y-86997D01*
X165938Y-88410D01*
X168765D01*
X170178Y-89824D01*
Y-91237D01*
X168765Y-92650D01*
X165938D01*
X164525Y-91237D01*
X174419Y-92650D02*
X177245D01*
X178659Y-91237D01*
Y-88410D01*
X177245Y-86997D01*
X174419D01*
X173005Y-88410D01*
Y-91237D01*
X174419Y-92650D01*
X181485D02*
X184312D01*
X182899D01*
Y-84170D01*
X181485D01*
X194206D02*
Y-92650D01*
X189966D01*
X188552Y-91237D01*
Y-88410D01*
X189966Y-86997D01*
X194206D01*
X201273Y-92650D02*
X198446D01*
X197033Y-91237D01*
Y-88410D01*
X198446Y-86997D01*
X201273D01*
X202686Y-88410D01*
Y-89824D01*
X197033D01*
X205513Y-86997D02*
Y-92650D01*
Y-89824D01*
X206926Y-88410D01*
X208340Y-86997D01*
X209753D01*
X107990Y-101136D02*
Y-109616D01*
X112230D01*
X113643Y-108203D01*
Y-106790D01*
X112230Y-105376D01*
X107990D01*
X112230D01*
X113643Y-103963D01*
Y-102549D01*
X112230Y-101136D01*
X107990D01*
X117883Y-109616D02*
X120710D01*
X122123Y-108203D01*
Y-105376D01*
X120710Y-103963D01*
X117883D01*
X116470Y-105376D01*
Y-108203D01*
X117883Y-109616D01*
X126364Y-102549D02*
Y-103963D01*
X124950D01*
X127777D01*
X126364D01*
Y-108203D01*
X127777Y-109616D01*
X133430Y-102549D02*
Y-103963D01*
X132017D01*
X134844D01*
X133430D01*
Y-108203D01*
X134844Y-109616D01*
X140497D02*
X143324D01*
X144738Y-108203D01*
Y-105376D01*
X143324Y-103963D01*
X140497D01*
X139084Y-105376D01*
Y-108203D01*
X140497Y-109616D01*
X147564D02*
Y-103963D01*
X148978D01*
X150391Y-105376D01*
Y-109616D01*
Y-105376D01*
X151804Y-103963D01*
X153218Y-105376D01*
Y-109616D01*
X168765Y-101136D02*
X165938D01*
X164525Y-102549D01*
Y-108203D01*
X165938Y-109616D01*
X168765D01*
X170178Y-108203D01*
Y-102549D01*
X168765Y-101136D01*
X173005Y-103963D02*
X175832Y-109616D01*
X178659Y-103963D01*
X185726Y-109616D02*
X182899D01*
X181485Y-108203D01*
Y-105376D01*
X182899Y-103963D01*
X185726D01*
X187139Y-105376D01*
Y-106790D01*
X181485D01*
X189966Y-103963D02*
Y-109616D01*
Y-106790D01*
X191379Y-105376D01*
X192793Y-103963D01*
X194206D01*
X198446Y-109616D02*
X201273D01*
X199859D01*
Y-101136D01*
X198446D01*
X206926Y-103963D02*
X209753D01*
X211167Y-105376D01*
Y-109616D01*
X206926D01*
X205513Y-108203D01*
X206926Y-106790D01*
X211167D01*
X213993Y-103963D02*
Y-108203D01*
X215407Y-109616D01*
X219647D01*
Y-111030D01*
X218233Y-112443D01*
X216820D01*
X219647Y-109616D02*
Y-103963D01*
X107990Y416332D02*
Y424813D01*
X113643Y416332D01*
Y424813D01*
X117883Y421986D02*
X120710D01*
X122123Y420573D01*
Y416332D01*
X117883D01*
X116470Y417746D01*
X117883Y419159D01*
X122123D01*
X124950Y416332D02*
Y421986D01*
X126364D01*
X127777Y420573D01*
Y416332D01*
Y420573D01*
X129190Y421986D01*
X130604Y420573D01*
Y416332D01*
X137671D02*
X134844D01*
X133430Y417746D01*
Y420573D01*
X134844Y421986D01*
X137671D01*
X139084Y420573D01*
Y419159D01*
X133430D01*
X50862Y365434D02*
X53689D01*
X52275D01*
Y373915D01*
X50862Y372501D01*
X56516Y331502D02*
X50862D01*
X56516Y337156D01*
Y338569D01*
X55102Y339982D01*
X52275D01*
X50862Y338569D01*
Y304637D02*
X52275Y306050D01*
X55102D01*
X56516Y304637D01*
Y303223D01*
X55102Y301810D01*
X53689D01*
X55102D01*
X56516Y300397D01*
Y298983D01*
X55102Y297570D01*
X52275D01*
X50862Y298983D01*
X55102Y263638D02*
Y272118D01*
X50862Y267878D01*
X56516D01*
Y238186D02*
X50862D01*
Y233946D01*
X53689Y235359D01*
X55102D01*
X56516Y233946D01*
Y231119D01*
X55102Y229706D01*
X52275D01*
X50862Y231119D01*
X56516Y204254D02*
X53689Y202840D01*
X50862Y200013D01*
Y197187D01*
X52275Y195773D01*
X55102D01*
X56516Y197187D01*
Y198600D01*
X55102Y200013D01*
X50862D01*
Y170321D02*
X56516D01*
Y168908D01*
X50862Y163254D01*
Y161841D01*
Y134976D02*
X52275Y136389D01*
X55102D01*
X56516Y134976D01*
Y133563D01*
X55102Y132149D01*
X56516Y130736D01*
Y129322D01*
X55102Y127909D01*
X52275D01*
X50862Y129322D01*
Y130736D01*
X52275Y132149D01*
X50862Y133563D01*
Y134976D01*
X52275Y132149D02*
X55102D01*
X50862Y95390D02*
X52275Y93977D01*
X55102D01*
X56516Y95390D01*
Y101044D01*
X55102Y102457D01*
X52275D01*
X50862Y101044D01*
Y99630D01*
X52275Y98217D01*
X56516D01*
X50862Y60045D02*
X53689D01*
X52275D01*
Y68525D01*
X50862Y67111D01*
X57929D02*
X59342Y68525D01*
X62169D01*
X63582Y67111D01*
Y61458D01*
X62169Y60045D01*
X59342D01*
X57929Y61458D01*
Y67111D01*
X50862Y26112D02*
X53689D01*
X52275D01*
Y34593D01*
X50862Y33179D01*
X57929Y26112D02*
X60756D01*
X59342D01*
Y34593D01*
X57929Y33179D01*
X50862Y-7820D02*
X53689D01*
X52275D01*
Y660D01*
X50862Y-753D01*
X63582Y-7820D02*
X57929D01*
X63582Y-2166D01*
Y-753D01*
X62169Y660D01*
X59342D01*
X57929Y-753D01*
X50862Y-41752D02*
X53689D01*
X52275D01*
Y-33272D01*
X50862Y-34685D01*
X57929D02*
X59342Y-33272D01*
X62169D01*
X63582Y-34685D01*
Y-36098D01*
X62169Y-37512D01*
X60756D01*
X62169D01*
X63582Y-38925D01*
Y-40339D01*
X62169Y-41752D01*
X59342D01*
X57929Y-40339D01*
X50862Y-75684D02*
X53689D01*
X52275D01*
Y-67204D01*
X50862Y-68617D01*
X62169Y-75684D02*
Y-67204D01*
X57929Y-71444D01*
X63582D01*
X50862Y424813D02*
Y416332D01*
X56516D01*
X60756Y421986D02*
X63582D01*
X64996Y420573D01*
Y416332D01*
X60756D01*
X59342Y417746D01*
X60756Y419159D01*
X64996D01*
X67823Y421986D02*
Y417746D01*
X69236Y416332D01*
X73476D01*
Y414919D01*
X72063Y413506D01*
X70649D01*
X73476Y416332D02*
Y421986D01*
X80543Y416332D02*
X77716D01*
X76303Y417746D01*
Y420573D01*
X77716Y421986D01*
X80543D01*
X81956Y420573D01*
Y419159D01*
X76303D01*
X84783Y421986D02*
Y416332D01*
Y419159D01*
X86197Y420573D01*
X87610Y421986D01*
X89023D01*
D335*
X465528Y-113858D02*
Y429057D01*
X385787Y395125D02*
X465528D01*
X385787Y378159D02*
X465528D01*
X385787Y361193D02*
X465528D01*
X385787Y344227D02*
X465528D01*
X385787Y327260D02*
X465528D01*
X385787Y310294D02*
X465528D01*
X385787Y293328D02*
X465528D01*
X385787Y276362D02*
X465528D01*
X385787Y259396D02*
X465528D01*
X385787Y242430D02*
X465528D01*
X385787Y225464D02*
X465528D01*
X385787Y208498D02*
X465528D01*
X385787Y191532D02*
X465528D01*
X385787Y174566D02*
X465528D01*
X385787Y157600D02*
X465528D01*
X385787Y140633D02*
X465528D01*
X385787Y123667D02*
X465528D01*
X385787Y106701D02*
X465528D01*
X385787Y89735D02*
X465528D01*
X385787Y72769D02*
X465528D01*
X385787Y55803D02*
X465528D01*
X385787Y38837D02*
X465528D01*
X385787Y21871D02*
X465528D01*
X385787Y4905D02*
X465528D01*
X385787Y-12061D02*
X465528D01*
X385787Y-29027D02*
X465528D01*
X385787Y-45994D02*
X465528D01*
X385787Y-62960D02*
X465528D01*
X385787Y-79926D02*
X465528D01*
X385787Y-96892D02*
X465528D01*
X385787Y-113858D02*
X465528D01*
X385787D02*
Y429057D01*
X294738Y395125D02*
X385787D01*
X294738Y378159D02*
X385787D01*
X294738Y361193D02*
X385787D01*
X294738Y344227D02*
X385787D01*
X294738Y327260D02*
X385787D01*
X294738Y310294D02*
X385787D01*
X294738Y293328D02*
X385787D01*
X294738Y276362D02*
X385787D01*
X294738Y259396D02*
X385787D01*
X294738Y242430D02*
X385787D01*
X294738Y225464D02*
X385787D01*
X294738Y208498D02*
X385787D01*
X294738Y191532D02*
X385787D01*
X294738Y174566D02*
X385787D01*
X294738Y157600D02*
X385787D01*
X294738Y140633D02*
X385787D01*
X294738Y123667D02*
X385787D01*
X294738Y106701D02*
X385787D01*
X294738Y89735D02*
X385787D01*
X294738Y72769D02*
X385787D01*
X294738Y55803D02*
X385787D01*
X294738Y38837D02*
X385787D01*
X294738Y21871D02*
X385787D01*
X294738Y4905D02*
X385787D01*
X294738Y-12061D02*
X385787D01*
X294738Y-29027D02*
X385787D01*
X294738Y-45994D02*
X385787D01*
X294738Y-62960D02*
X385787D01*
X294738Y-79926D02*
X385787D01*
X294738Y-96892D02*
X385787D01*
X294738Y-113858D02*
X385787D01*
X294738D02*
Y429057D01*
X229130Y395125D02*
X294738D01*
X229130Y378159D02*
X294738D01*
X229130Y361193D02*
X294738D01*
X229130Y344227D02*
X294738D01*
X229130Y327260D02*
X294738D01*
X229130Y310294D02*
X294738D01*
X229130Y293328D02*
X294738D01*
X229130Y276362D02*
X294738D01*
X229130Y259396D02*
X294738D01*
X229130Y242430D02*
X294738D01*
X229130Y225464D02*
X294738D01*
X229130Y208498D02*
X294738D01*
X229130Y191532D02*
X294738D01*
X229130Y174566D02*
X294738D01*
X229130Y157600D02*
X294738D01*
X229130Y140633D02*
X294738D01*
X229130Y123667D02*
X294738D01*
X229130Y106701D02*
X294738D01*
X229130Y89735D02*
X294738D01*
X229130Y72769D02*
X294738D01*
X229130Y55803D02*
X294738D01*
X229130Y38837D02*
X294738D01*
X229130Y21871D02*
X294738D01*
X229130Y4905D02*
X294738D01*
X229130Y-12061D02*
X294738D01*
X229130Y-29027D02*
X294738D01*
X229130Y-45994D02*
X294738D01*
X229130Y-62960D02*
X294738D01*
X229130Y-79926D02*
X294738D01*
X229130Y-96892D02*
X294738D01*
X229130Y-113858D02*
X294738D01*
X229130D02*
Y429057D01*
X98506Y395125D02*
X229130D01*
X98506Y378159D02*
X229130D01*
X98506Y361193D02*
X229130D01*
X98506Y344227D02*
X229130D01*
X98506Y327260D02*
X229130D01*
X98506Y310294D02*
X229130D01*
X98506Y293328D02*
X229130D01*
X98506Y276362D02*
X229130D01*
X98506Y259396D02*
X229130D01*
X98506Y242430D02*
X229130D01*
X98506Y225464D02*
X229130D01*
X98506Y208498D02*
X229130D01*
X98506Y191532D02*
X229130D01*
X98506Y174566D02*
X229130D01*
X98506Y157600D02*
X229130D01*
X98506Y140633D02*
X229130D01*
X98506Y123667D02*
X229130D01*
X98506Y106701D02*
X229130D01*
X98506Y89735D02*
X229130D01*
X98506Y72769D02*
X229130D01*
X98506Y55803D02*
X229130D01*
X98506Y38837D02*
X229130D01*
X98506Y21871D02*
X229130D01*
X98506Y4905D02*
X229130D01*
X98506Y-12061D02*
X229130D01*
X98506Y-29027D02*
X229130D01*
X98506Y-45994D02*
X229130D01*
X98506Y-62960D02*
X229130D01*
X98506Y-79926D02*
X229130D01*
X98506Y-96892D02*
X229130D01*
X98506Y-113858D02*
X229130D01*
X98506D02*
Y429057D01*
X41379Y395125D02*
X98506D01*
X41379Y378159D02*
X98506D01*
X41379Y361193D02*
X98506D01*
X41379Y344227D02*
X98506D01*
X41379Y327260D02*
X98506D01*
X41379Y310294D02*
X98506D01*
X41379Y293328D02*
X98506D01*
X41379Y276362D02*
X98506D01*
X41379Y259396D02*
X98506D01*
X41379Y242430D02*
X98506D01*
X41379Y225464D02*
X98506D01*
X41379Y208498D02*
X98506D01*
X41379Y191532D02*
X98506D01*
X41379Y174566D02*
X98506D01*
X41379Y157600D02*
X98506D01*
X41379Y140633D02*
X98506D01*
X41379Y123667D02*
X98506D01*
X41379Y106701D02*
X98506D01*
X41379Y89735D02*
X98506D01*
X41379Y72769D02*
X98506D01*
X41379Y55803D02*
X98506D01*
X41379Y38837D02*
X98506D01*
X41379Y21871D02*
X98506D01*
X41379Y4905D02*
X98506D01*
X41379Y-12061D02*
X98506D01*
X41379Y-29027D02*
X98506D01*
X41379Y-45994D02*
X98506D01*
X41379Y-62960D02*
X98506D01*
X41379Y-79926D02*
X98506D01*
X41379Y-96892D02*
X98506D01*
X41379Y-113858D02*
X98506D01*
X41379D02*
Y429057D01*
X465528D01*
X41379Y412091D02*
X465528D01*
D785*
X-695935Y116936D02*
G03*
X-696722Y117724I-787J0D01*
G01*
Y114377D02*
G03*
X-695935Y115164I0J787D01*
G01*
Y98235D02*
G03*
X-696722Y99023I-787J0D01*
G01*
Y95676D02*
G03*
X-695935Y96464I0J787D01*
G01*
X-38583Y-127953D02*
G03*
X-42520Y-131890I0J-3937D01*
G01*
Y131890D02*
G03*
X-38583Y127953I3937J0D01*
G01*
X-44488Y-144685D02*
G03*
X-42520Y-142717I0J1969D01*
G01*
X-703150Y117724D02*
X-696722D01*
X-695935Y115164D02*
Y116936D01*
X-703150Y114377D02*
X-696722D01*
X-703150Y99023D02*
X-696722D01*
X-695935Y96464D02*
Y98235D01*
X-703150Y95676D02*
X-696722D01*
X-703150Y-120768D02*
Y95676D01*
Y99023D02*
Y114377D01*
Y117724D02*
Y128111D01*
X-711024Y-140354D02*
Y-120768D01*
X-703150Y129390D02*
Y404685D01*
Y128111D02*
Y129390D01*
X-711024Y-120768D02*
X-703150D01*
X-657480Y439961D02*
X-44882D01*
X-42520Y142717D02*
Y142913D01*
X-657480Y436024D02*
Y439961D01*
X-687402Y436024D02*
X-657480D01*
X-687402Y419488D02*
Y436024D01*
X-711024Y419488D02*
X-687402D01*
X-42520Y131890D02*
Y142717D01*
X-38583Y127953D02*
X-2362D01*
X0Y-125591D02*
Y125591D01*
X-38583Y-127953D02*
X-2362D01*
X-42520Y-142717D02*
Y-131890D01*
X-622047Y-144685D02*
X-44488D01*
X-654488Y-138386D02*
X-622047D01*
X-711024Y-140354D02*
X-654488D01*
Y-138386D01*
X-622047Y-144685D02*
Y-138386D01*
X-2362Y-127953D02*
X0Y-125591D01*
Y125591D02*
Y125591D01*
X-2362Y127953D02*
X0Y125591D01*
X-39370Y190551D02*
X-26378D01*
X-42520Y142717D02*
Y187795D01*
X-26378Y190551D02*
Y422985D01*
X-44882Y433221D02*
Y439961D01*
X-39764Y190551D02*
X-39370D01*
X-42520Y187795D02*
X-39764Y190551D01*
X-44820Y433221D02*
X-35863D01*
X-44882Y433283D02*
X-44820Y433221D01*
X-35863Y422985D02*
Y433221D01*
Y422985D02*
X-26378D01*
X-711024Y404685D02*
Y419488D01*
Y404685D02*
X-703150D01*
M02*
